<svg width="98" height="69" viewBox="0 0 98 69" fill="none" xmlns="http://www.w3.org/2000/svg">
<path d="M96.0564 27.4623H1.73895" stroke="url(#paint0_linear)" stroke-width="2" stroke-linecap="round"/>
<path d="M8.61532 26.8622V19.2484" stroke="url(#paint1_linear)" stroke-width="2" stroke-linecap="round"/>
<path fill-rule="evenodd" clip-rule="evenodd" d="M13.895 38.3271V66.6618C13.895 67.214 13.4473 67.6618 12.895 67.6618H10.3749C9.82259 67.6618 9.37488 67.214 9.37488 66.6618V38.3271L13.895 38.3271Z" stroke="url(#paint2_linear)" stroke-width="2" stroke-linecap="round"/>
<path fill-rule="evenodd" clip-rule="evenodd" d="M28.0762 38.3271V66.6618C28.0762 67.214 27.6285 67.6618 27.0762 67.6618H24.556C24.0037 67.6618 23.556 67.214 23.556 66.6618V38.3271L28.0762 38.3271Z" stroke="url(#paint3_linear)" stroke-width="2" stroke-linecap="round"/>
<path fill-rule="evenodd" clip-rule="evenodd" d="M41.4053 38.3271V66.6618C41.4053 67.214 40.9576 67.6618 40.4053 67.6618H37.8851C37.3328 67.6618 36.8851 67.214 36.8851 66.6618V38.3271L41.4053 38.3271Z" stroke="url(#paint4_linear)" stroke-width="2" stroke-linecap="round"/>
<path fill-rule="evenodd" clip-rule="evenodd" d="M59.5552 38.3271V66.6618C59.5552 67.214 59.1075 67.6618 58.5552 67.6618H56.035C55.4827 67.6618 55.035 67.214 55.035 66.6618V38.3271L59.5552 38.3271Z" stroke="url(#paint5_linear)" stroke-width="2" stroke-linecap="round"/>
<path fill-rule="evenodd" clip-rule="evenodd" d="M73.3042 38.3271V66.6618C73.3042 67.214 72.8565 67.6618 72.3042 67.6618H69.7841C69.2318 67.6618 68.7841 67.214 68.7841 66.6618V38.3271L73.3042 38.3271Z" stroke="url(#paint6_linear)" stroke-width="2" stroke-linecap="round"/>
<path fill-rule="evenodd" clip-rule="evenodd" d="M86.2603 38.3271V66.6618C86.2603 67.214 85.8125 67.6618 85.2603 67.6618H82.7401C82.1878 67.6618 81.7401 67.214 81.7401 66.6618V38.3271L86.2603 38.3271Z" stroke="url(#paint7_linear)" stroke-width="2" stroke-linecap="round"/>
<path d="M34.9005 27.0692V19.4555" stroke="url(#paint8_linear)" stroke-width="2" stroke-linecap="round"/>
<path d="M61.5396 27.2753V19.6615" stroke="url(#paint9_linear)" stroke-width="2" stroke-linecap="round"/>
<path d="M88.1793 27.0692V19.4555" stroke="url(#paint10_linear)" stroke-width="2" stroke-linecap="round"/>
<path d="M92.0532 28.0533V30.4619C92.0532 31.7874 90.9787 32.8619 89.6532 32.8619H7.6705C6.34501 32.8619 5.27049 31.7874 5.27049 30.4619V27.4619" stroke="url(#paint11_linear)" stroke-width="2" stroke-linecap="round"/>
<path fill-rule="evenodd" clip-rule="evenodd" d="M88.4933 15.5615C89.5112 15.5615 90.3364 16.3867 90.3364 17.4046V17.4046C90.3364 18.4225 89.5112 19.2477 88.4933 19.2477H7.34942C6.3315 19.2477 5.50632 18.4225 5.50632 17.4046V17.4046C5.50632 16.3867 6.3315 15.5615 7.34942 15.5615L88.4933 15.5615Z" stroke="url(#paint12_linear)" stroke-width="2" stroke-linecap="round"/>
<path fill-rule="evenodd" clip-rule="evenodd" d="M14.6794 32.8623C15.3421 32.8623 15.8794 33.3996 15.8794 34.0623V36.7139C15.8794 37.3767 15.3421 37.9139 14.6794 37.9139H8.59021C7.92747 37.9139 7.39021 37.3767 7.39021 36.7139V34.0623C7.39021 33.3996 7.92747 32.8623 8.59021 32.8623H14.6794Z" stroke="url(#paint13_linear)" stroke-width="2" stroke-linecap="round"/>
<path fill-rule="evenodd" clip-rule="evenodd" d="M28.862 33.2754C29.5248 33.2754 30.062 33.8126 30.062 34.4754V37.127C30.062 37.7898 29.5248 38.327 28.862 38.327H22.7728C22.1101 38.327 21.5728 37.7898 21.5728 37.127V34.4754C21.5728 33.8126 22.1101 33.2754 22.7728 33.2754H28.862Z" stroke="url(#paint14_linear)" stroke-width="2" stroke-linecap="round"/>
<path fill-rule="evenodd" clip-rule="evenodd" d="M42.1896 33.2754C42.8524 33.2754 43.3896 33.8126 43.3896 34.4754V37.127C43.3896 37.7898 42.8524 38.327 42.1896 38.327H36.1005C35.4377 38.327 34.9005 37.7898 34.9005 37.127V34.4754C34.9005 33.8126 35.4377 33.2754 36.1005 33.2754H42.1896Z" stroke="url(#paint15_linear)" stroke-width="2" stroke-linecap="round"/>
<path fill-rule="evenodd" clip-rule="evenodd" d="M48.4133 7.16211C51.7306 7.16211 54.4199 9.85139 54.4199 13.1688V15.3621C54.4199 15.4726 54.3304 15.5621 54.2199 15.5621H42.6066C42.4961 15.5621 42.4066 15.4726 42.4066 15.3621V13.1688C42.4066 9.85139 45.0959 7.16211 48.4133 7.16211V7.16211Z" stroke="url(#paint16_linear)" stroke-width="2" stroke-linecap="round"/>
<path fill-rule="evenodd" clip-rule="evenodd" d="M48.2689 1.82812C50.2106 1.82812 51.7847 3.40217 51.7847 5.34385V7.09955C51.7847 7.17056 51.7271 7.22813 51.6561 7.22813H44.8818C44.8108 7.22813 44.7532 7.17056 44.7532 7.09955V5.34385C44.7532 3.40217 46.3273 1.82812 48.2689 1.82812V1.82812Z" stroke="url(#paint17_linear)" stroke-width="2" stroke-linecap="round"/>
<path fill-rule="evenodd" clip-rule="evenodd" d="M34.4438 9.97559C36.3854 9.97559 37.9595 11.5496 37.9595 13.4913V15.247C37.9595 15.318 37.9019 15.3756 37.8309 15.3756H31.0566C30.9856 15.3756 30.928 15.318 30.928 15.247V13.4913C30.928 11.5496 32.5021 9.97559 34.4438 9.97559V9.97559Z" stroke="url(#paint18_linear)" stroke-width="2" stroke-linecap="round"/>
<path fill-rule="evenodd" clip-rule="evenodd" d="M62.3368 9.56201C64.2785 9.56201 65.8525 11.1361 65.8525 13.0777V14.8334C65.8525 14.9044 65.795 14.962 65.724 14.962H58.9497C58.8787 14.962 58.8211 14.9044 58.8211 14.8334V13.0777C58.8211 11.1361 60.3951 9.56201 62.3368 9.56201V9.56201Z" stroke="url(#paint19_linear)" stroke-width="2" stroke-linecap="round"/>
<path fill-rule="evenodd" clip-rule="evenodd" d="M60.34 33.2754C61.0028 33.2754 61.54 33.8126 61.54 34.4754V37.127C61.54 37.7898 61.0028 38.327 60.34 38.327H54.2509C53.5881 38.327 53.0509 37.7898 53.0509 37.127V34.4754C53.0509 33.8126 53.5881 33.2754 54.2509 33.2754H60.34Z" stroke="url(#paint20_linear)" stroke-width="2" stroke-linecap="round"/>
<path fill-rule="evenodd" clip-rule="evenodd" d="M74.0891 33.2754C74.7518 33.2754 75.2891 33.8126 75.2891 34.4754V37.127C75.2891 37.7898 74.7518 38.327 74.0891 38.327H67.9999C67.3371 38.327 66.7999 37.7898 66.7999 37.127V34.4754C66.7999 33.8126 67.3371 33.2754 67.9999 33.2754H74.0891Z" stroke="url(#paint21_linear)" stroke-width="2" stroke-linecap="round"/>
<path fill-rule="evenodd" clip-rule="evenodd" d="M86.9792 32.8623C87.6419 32.8623 88.1792 33.3996 88.1792 34.0623V36.7139C88.1792 37.3767 87.6419 37.9139 86.9792 37.9139H80.89C80.2273 37.9139 79.69 37.3767 79.69 36.7139V34.0623C79.69 33.3996 80.2273 32.8623 80.89 32.8623H86.9792Z" stroke="url(#paint22_linear)" stroke-width="2" stroke-linecap="round"/>
<defs>
<linearGradient id="paint0_linear" x1="-0.078048" y1="27.4613" x2="94.8865" y2="27.4613" gradientUnits="userSpaceOnUse">
<stop stop-color="#5C9BF0"/>
<stop offset="1" stop-color="#5F9EF0"/>
</linearGradient>
<linearGradient id="paint1_linear" x1="7.02439" y1="22.8411" x2="9.42855" y2="22.8411" gradientUnits="userSpaceOnUse">
<stop stop-color="#5C9BF0"/>
<stop offset="1" stop-color="#5F9EF0"/>
</linearGradient>
<linearGradient id="paint2_linear" x1="9.30511" y1="52.969" x2="13.8331" y2="52.969" gradientUnits="userSpaceOnUse">
<stop stop-color="#5C9BF0"/>
<stop offset="1" stop-color="#5F9EF0"/>
</linearGradient>
<linearGradient id="paint3_linear" x1="23.4863" y1="52.969" x2="28.0143" y2="52.969" gradientUnits="userSpaceOnUse">
<stop stop-color="#5C9BF0"/>
<stop offset="1" stop-color="#5F9EF0"/>
</linearGradient>
<linearGradient id="paint4_linear" x1="36.8154" y1="52.969" x2="41.3434" y2="52.969" gradientUnits="userSpaceOnUse">
<stop stop-color="#5C9BF0"/>
<stop offset="1" stop-color="#5F9EF0"/>
</linearGradient>
<linearGradient id="paint5_linear" x1="54.9653" y1="52.969" x2="59.4933" y2="52.969" gradientUnits="userSpaceOnUse">
<stop stop-color="#5C9BF0"/>
<stop offset="1" stop-color="#5F9EF0"/>
</linearGradient>
<linearGradient id="paint6_linear" x1="68.7143" y1="52.969" x2="73.2423" y2="52.969" gradientUnits="userSpaceOnUse">
<stop stop-color="#5C9BF0"/>
<stop offset="1" stop-color="#5F9EF0"/>
</linearGradient>
<linearGradient id="paint7_linear" x1="81.6703" y1="52.969" x2="86.1983" y2="52.969" gradientUnits="userSpaceOnUse">
<stop stop-color="#5C9BF0"/>
<stop offset="1" stop-color="#5F9EF0"/>
</linearGradient>
<linearGradient id="paint8_linear" x1="33.3095" y1="23.0482" x2="35.7137" y2="23.0482" gradientUnits="userSpaceOnUse">
<stop stop-color="#5C9BF0"/>
<stop offset="1" stop-color="#5F9EF0"/>
</linearGradient>
<linearGradient id="paint9_linear" x1="59.9487" y1="23.2542" x2="62.3529" y2="23.2542" gradientUnits="userSpaceOnUse">
<stop stop-color="#5C9BF0"/>
<stop offset="1" stop-color="#5F9EF0"/>
</linearGradient>
<linearGradient id="paint10_linear" x1="86.5883" y1="23.0482" x2="88.9925" y2="23.0482" gradientUnits="userSpaceOnUse">
<stop stop-color="#5C9BF0"/>
<stop offset="1" stop-color="#5F9EF0"/>
</linearGradient>
<linearGradient id="paint11_linear" x1="3.93112" y1="30.1572" x2="90.8644" y2="30.1572" gradientUnits="userSpaceOnUse">
<stop stop-color="#5C9BF0"/>
<stop offset="1" stop-color="#5F9EF0"/>
</linearGradient>
<linearGradient id="paint12_linear" x1="4.19708" y1="17.4014" x2="89.1744" y2="17.4014" gradientUnits="userSpaceOnUse">
<stop stop-color="#5C9BF0"/>
<stop offset="1" stop-color="#5F9EF0"/>
</linearGradient>
<linearGradient id="paint13_linear" x1="7.25919" y1="35.3837" x2="15.7631" y2="35.3837" gradientUnits="userSpaceOnUse">
<stop stop-color="#5C9BF0"/>
<stop offset="1" stop-color="#5F9EF0"/>
</linearGradient>
<linearGradient id="paint14_linear" x1="21.4418" y1="35.7968" x2="29.9457" y2="35.7968" gradientUnits="userSpaceOnUse">
<stop stop-color="#5C9BF0"/>
<stop offset="1" stop-color="#5F9EF0"/>
</linearGradient>
<linearGradient id="paint15_linear" x1="34.7694" y1="35.7968" x2="43.2734" y2="35.7968" gradientUnits="userSpaceOnUse">
<stop stop-color="#5C9BF0"/>
<stop offset="1" stop-color="#5F9EF0"/>
</linearGradient>
<linearGradient id="paint16_linear" x1="42.2212" y1="11.3548" x2="54.2554" y2="11.3548" gradientUnits="userSpaceOnUse">
<stop stop-color="#5C9BF0"/>
<stop offset="1" stop-color="#5F9EF0"/>
</linearGradient>
<linearGradient id="paint17_linear" x1="44.6447" y1="4.52344" x2="51.6883" y2="4.52344" gradientUnits="userSpaceOnUse">
<stop stop-color="#5C9BF0"/>
<stop offset="1" stop-color="#5F9EF0"/>
</linearGradient>
<linearGradient id="paint18_linear" x1="30.8195" y1="12.6709" x2="37.8632" y2="12.6709" gradientUnits="userSpaceOnUse">
<stop stop-color="#5C9BF0"/>
<stop offset="1" stop-color="#5F9EF0"/>
</linearGradient>
<linearGradient id="paint19_linear" x1="58.7126" y1="12.2573" x2="65.7562" y2="12.2573" gradientUnits="userSpaceOnUse">
<stop stop-color="#5C9BF0"/>
<stop offset="1" stop-color="#5F9EF0"/>
</linearGradient>
<linearGradient id="paint20_linear" x1="52.9198" y1="35.7968" x2="61.4238" y2="35.7968" gradientUnits="userSpaceOnUse">
<stop stop-color="#5C9BF0"/>
<stop offset="1" stop-color="#5F9EF0"/>
</linearGradient>
<linearGradient id="paint21_linear" x1="66.6689" y1="35.7968" x2="75.1728" y2="35.7968" gradientUnits="userSpaceOnUse">
<stop stop-color="#5C9BF0"/>
<stop offset="1" stop-color="#5F9EF0"/>
</linearGradient>
<linearGradient id="paint22_linear" x1="79.559" y1="35.3837" x2="88.0629" y2="35.3837" gradientUnits="userSpaceOnUse">
<stop stop-color="#5C9BF0"/>
<stop offset="1" stop-color="#5F9EF0"/>
</linearGradient>
</defs>
</svg>
