<svg width="87" height="69" viewBox="0 0 87 69" fill="none" xmlns="http://www.w3.org/2000/svg">
<path fill-rule="evenodd" clip-rule="evenodd" d="M5.54764 67.0044C3.3385 67.0044 1.54764 65.2135 1.54764 63.0044V9.50439C1.54764 7.84754 2.89079 6.50439 4.54764 6.50439L82.4521 6.50439C84.109 6.50439 85.4521 7.84754 85.4521 9.50439V63.0044C85.4521 65.2135 83.6613 67.0044 81.4521 67.0044H5.54764Z" fill="#12083A" stroke="url(#paint0_linear)" stroke-width="2" stroke-linecap="round"/>
<path fill-rule="evenodd" clip-rule="evenodd" d="M14.86 34.1963C14.1973 34.1963 13.66 33.659 13.66 32.9963V30.1834C13.66 29.5207 14.1973 28.9834 14.86 28.9834L17.717 28.9834C18.3797 28.9834 18.917 29.5207 18.917 30.1834V32.9963C18.917 33.659 18.3797 34.1963 17.717 34.1963H14.86Z" fill="#12083A" stroke="url(#paint1_linear)" stroke-width="1.2" stroke-linecap="round"/>
<path fill-rule="evenodd" clip-rule="evenodd" d="M25.4806 12.2807C24.8179 12.2807 24.2806 11.7434 24.2806 11.0807V1.92803C24.2806 1.26529 24.8179 0.728027 25.4806 0.728027L28.3376 0.728027C29.0003 0.728027 29.5376 1.26529 29.5376 1.92803V11.0807C29.5376 11.7434 29.0003 12.2807 28.3376 12.2807H25.4806Z" fill="#12083A" stroke="url(#paint2_linear)" stroke-width="1.2" stroke-linecap="round"/>
<path fill-rule="evenodd" clip-rule="evenodd" d="M57.3424 12.2807C56.6797 12.2807 56.1424 11.7434 56.1424 11.0807V1.92803C56.1424 1.26529 56.6797 0.728027 57.3424 0.728027L60.1994 0.728027C60.8622 0.728027 61.3994 1.26529 61.3994 1.92803V11.0807C61.3994 11.7434 60.8622 12.2807 60.1994 12.2807H57.3424Z" fill="#12083A" stroke="url(#paint3_linear)" stroke-width="1.2" stroke-linecap="round"/>
<path fill-rule="evenodd" clip-rule="evenodd" d="M14.86 44.5254C14.1973 44.5254 13.66 43.9881 13.66 43.3254V40.5125C13.66 39.8498 14.1973 39.3125 14.86 39.3125L17.717 39.3125C18.3797 39.3125 18.917 39.8498 18.917 40.5125V43.3254C18.917 43.9881 18.3797 44.5254 17.717 44.5254H14.86Z" fill="#12083A" stroke="url(#paint4_linear)" stroke-width="1.2" stroke-linecap="round"/>
<path fill-rule="evenodd" clip-rule="evenodd" d="M14.86 54.8555C14.1973 54.8555 13.66 54.3182 13.66 53.6555V50.8426C13.66 50.1798 14.1973 49.6426 14.86 49.6426L17.717 49.6426C18.3797 49.6426 18.917 50.1798 18.917 50.8426V53.6555C18.917 54.3182 18.3797 54.8555 17.717 54.8555H14.86Z" fill="#12083A" stroke="url(#paint5_linear)" stroke-width="1.2" stroke-linecap="round"/>
<path fill-rule="evenodd" clip-rule="evenodd" d="M36.1012 34.1963C35.4385 34.1963 34.9012 33.659 34.9012 32.9963V30.1834C34.9012 29.5207 35.4385 28.9834 36.1012 28.9834L38.9582 28.9834C39.6209 28.9834 40.1582 29.5207 40.1582 30.1834V32.9963C40.1582 33.659 39.6209 34.1963 38.9582 34.1963H36.1012Z" fill="#12083A" stroke="url(#paint6_linear)" stroke-width="1.2" stroke-linecap="round"/>
<path fill-rule="evenodd" clip-rule="evenodd" d="M36.1012 44.5254C35.4385 44.5254 34.9012 43.9881 34.9012 43.3254V40.5125C34.9012 39.8498 35.4385 39.3125 36.1012 39.3125L38.9582 39.3125C39.6209 39.3125 40.1582 39.8498 40.1582 40.5125V43.3254C40.1582 43.9881 39.6209 44.5254 38.9582 44.5254H36.1012Z" fill="#12083A" stroke="url(#paint7_linear)" stroke-width="1.2" stroke-linecap="round"/>
<path fill-rule="evenodd" clip-rule="evenodd" d="M36.1012 54.8555C35.4385 54.8555 34.9012 54.3182 34.9012 53.6555V50.8426C34.9012 50.1798 35.4385 49.6426 36.1012 49.6426L38.9582 49.6426C39.6209 49.6426 40.1582 50.1798 40.1582 50.8426V53.6555C40.1582 54.3182 39.6209 54.8555 38.9582 54.8555H36.1012Z" fill="#12083A" stroke="url(#paint8_linear)" stroke-width="1.2" stroke-linecap="round"/>
<path fill-rule="evenodd" clip-rule="evenodd" d="M25.4806 34.1963C24.8179 34.1963 24.2806 33.659 24.2806 32.9963V30.1834C24.2806 29.5207 24.8179 28.9834 25.4806 28.9834L28.3376 28.9834C29.0003 28.9834 29.5376 29.5207 29.5376 30.1834V32.9963C29.5376 33.659 29.0003 34.1963 28.3376 34.1963H25.4806Z" fill="#12083A" stroke="url(#paint9_linear)" stroke-width="1.2" stroke-linecap="round"/>
<path fill-rule="evenodd" clip-rule="evenodd" d="M25.4806 44.5254C24.8179 44.5254 24.2806 43.9881 24.2806 43.3254V40.5125C24.2806 39.8498 24.8179 39.3125 25.4806 39.3125L28.3376 39.3125C29.0003 39.3125 29.5376 39.8498 29.5376 40.5125V43.3254C29.5376 43.9881 29.0003 44.5254 28.3376 44.5254H25.4806Z" fill="#12083A" stroke="url(#paint10_linear)" stroke-width="1.2" stroke-linecap="round"/>
<path fill-rule="evenodd" clip-rule="evenodd" d="M25.4806 54.8555C24.8179 54.8555 24.2806 54.3182 24.2806 53.6555V50.8426C24.2806 50.1798 24.8179 49.6426 25.4806 49.6426L28.3376 49.6426C29.0003 49.6426 29.5376 50.1798 29.5376 50.8426V53.6555C29.5376 54.3182 29.0003 54.8555 28.3376 54.8555H25.4806Z" fill="#12083A" stroke="url(#paint11_linear)" stroke-width="1.2" stroke-linecap="round"/>
<path fill-rule="evenodd" clip-rule="evenodd" d="M46.7218 34.1963C46.0591 34.1963 45.5218 33.659 45.5218 32.9963V30.1834C45.5218 29.5207 46.0591 28.9834 46.7218 28.9834L49.5788 28.9834C50.2415 28.9834 50.7788 29.5207 50.7788 30.1834V32.9963C50.7788 33.659 50.2416 34.1963 49.5788 34.1963H46.7218Z" fill="#12083A" stroke="url(#paint12_linear)" stroke-width="1.2" stroke-linecap="round"/>
<path fill-rule="evenodd" clip-rule="evenodd" d="M57.3424 34.1963C56.6797 34.1963 56.1424 33.659 56.1424 32.9963V30.1834C56.1424 29.5207 56.6797 28.9834 57.3424 28.9834L60.1994 28.9834C60.8622 28.9834 61.3994 29.5207 61.3994 30.1834V32.9963C61.3994 33.659 60.8622 34.1963 60.1994 34.1963H57.3424Z" fill="#12083A" stroke="url(#paint13_linear)" stroke-width="1.2" stroke-linecap="round"/>
<path fill-rule="evenodd" clip-rule="evenodd" d="M67.963 34.1963C67.3003 34.1963 66.763 33.659 66.763 32.9963V30.1834C66.763 29.5207 67.3003 28.9834 67.963 28.9834L70.82 28.9834C71.4828 28.9834 72.02 29.5207 72.02 30.1834V32.9963C72.02 33.659 71.4828 34.1963 70.82 34.1963H67.963Z" fill="#12083A" stroke="url(#paint14_linear)" stroke-width="1.2" stroke-linecap="round"/>
<path fill-rule="evenodd" clip-rule="evenodd" d="M46.7218 44.5254C46.0591 44.5254 45.5218 43.9881 45.5218 43.3254V40.5125C45.5218 39.8498 46.0591 39.3125 46.7218 39.3125L49.5788 39.3125C50.2415 39.3125 50.7788 39.8498 50.7788 40.5125V43.3254C50.7788 43.9881 50.2416 44.5254 49.5788 44.5254H46.7218Z" fill="#12083A" stroke="url(#paint15_linear)" stroke-width="1.2" stroke-linecap="round"/>
<path fill-rule="evenodd" clip-rule="evenodd" d="M46.7218 54.8555C46.0591 54.8555 45.5218 54.3182 45.5218 53.6555V50.8426C45.5218 50.1798 46.0591 49.6426 46.7218 49.6426L49.5788 49.6426C50.2415 49.6426 50.7788 50.1798 50.7788 50.8426V53.6555C50.7788 54.3182 50.2416 54.8555 49.5788 54.8555H46.7218Z" fill="#12083A" stroke="url(#paint16_linear)" stroke-width="1.2" stroke-linecap="round"/>
<path fill-rule="evenodd" clip-rule="evenodd" d="M57.3424 44.5254C56.6797 44.5254 56.1424 43.9881 56.1424 43.3254V40.5125C56.1424 39.8498 56.6797 39.3125 57.3424 39.3125L60.1994 39.3125C60.8622 39.3125 61.3994 39.8498 61.3994 40.5125V43.3254C61.3994 43.9881 60.8622 44.5254 60.1994 44.5254H57.3424Z" fill="#12083A" stroke="url(#paint17_linear)" stroke-width="1.2" stroke-linecap="round"/>
<path fill-rule="evenodd" clip-rule="evenodd" d="M57.3424 54.8555C56.6797 54.8555 56.1424 54.3182 56.1424 53.6555V50.8426C56.1424 50.1798 56.6797 49.6426 57.3424 49.6426L60.1994 49.6426C60.8622 49.6426 61.3994 50.1798 61.3994 50.8426V53.6555C61.3994 54.3182 60.8622 54.8555 60.1994 54.8555H57.3424Z" fill="#12083A" stroke="url(#paint18_linear)" stroke-width="1.2" stroke-linecap="round"/>
<path fill-rule="evenodd" clip-rule="evenodd" d="M67.963 44.5254C67.3003 44.5254 66.763 43.9881 66.763 43.3254V40.5125C66.763 39.8498 67.3003 39.3125 67.963 39.3125L70.82 39.3125C71.4828 39.3125 72.02 39.8498 72.02 40.5125V43.3254C72.02 43.9881 71.4828 44.5254 70.82 44.5254H67.963Z" fill="#12083A" stroke="url(#paint19_linear)" stroke-width="1.2" stroke-linecap="round"/>
<path fill-rule="evenodd" clip-rule="evenodd" d="M67.963 54.8555C67.3003 54.8555 66.763 54.3182 66.763 53.6555V50.8426C66.763 50.1798 67.3003 49.6426 67.963 49.6426L70.82 49.6426C71.4828 49.6426 72.02 50.1798 72.02 50.8426V53.6555C72.02 54.3182 71.4828 54.8555 70.82 54.8555H67.963Z" fill="#12083A" stroke="url(#paint20_linear)" stroke-width="1.2" stroke-linecap="round"/>
<path d="M85.4521 19.5381H1.54755" stroke="url(#paint21_linear)" stroke-width="2" stroke-linecap="round"/>
<defs>
<linearGradient id="paint0_linear" x1="0.252691" y1="36.7019" x2="84.3028" y2="36.7019" gradientUnits="userSpaceOnUse">
<stop stop-color="#5C9BF0"/>
<stop offset="1" stop-color="#5F9EF0"/>
</linearGradient>
<linearGradient id="paint1_linear" x1="13.5789" y1="31.5853" x2="18.845" y2="31.5853" gradientUnits="userSpaceOnUse">
<stop stop-color="#5C9BF0"/>
<stop offset="1" stop-color="#5F9EF0"/>
</linearGradient>
<linearGradient id="paint2_linear" x1="24.1995" y1="6.49433" x2="29.4656" y2="6.49433" gradientUnits="userSpaceOnUse">
<stop stop-color="#5C9BF0"/>
<stop offset="1" stop-color="#5F9EF0"/>
</linearGradient>
<linearGradient id="paint3_linear" x1="56.0613" y1="6.49433" x2="61.3274" y2="6.49433" gradientUnits="userSpaceOnUse">
<stop stop-color="#5C9BF0"/>
<stop offset="1" stop-color="#5F9EF0"/>
</linearGradient>
<linearGradient id="paint4_linear" x1="13.5789" y1="41.9144" x2="18.845" y2="41.9144" gradientUnits="userSpaceOnUse">
<stop stop-color="#5C9BF0"/>
<stop offset="1" stop-color="#5F9EF0"/>
</linearGradient>
<linearGradient id="paint5_linear" x1="13.5789" y1="52.2445" x2="18.845" y2="52.2445" gradientUnits="userSpaceOnUse">
<stop stop-color="#5C9BF0"/>
<stop offset="1" stop-color="#5F9EF0"/>
</linearGradient>
<linearGradient id="paint6_linear" x1="34.8201" y1="31.5853" x2="40.0862" y2="31.5853" gradientUnits="userSpaceOnUse">
<stop stop-color="#5C9BF0"/>
<stop offset="1" stop-color="#5F9EF0"/>
</linearGradient>
<linearGradient id="paint7_linear" x1="34.8201" y1="41.9144" x2="40.0862" y2="41.9144" gradientUnits="userSpaceOnUse">
<stop stop-color="#5C9BF0"/>
<stop offset="1" stop-color="#5F9EF0"/>
</linearGradient>
<linearGradient id="paint8_linear" x1="34.8201" y1="52.2445" x2="40.0862" y2="52.2445" gradientUnits="userSpaceOnUse">
<stop stop-color="#5C9BF0"/>
<stop offset="1" stop-color="#5F9EF0"/>
</linearGradient>
<linearGradient id="paint9_linear" x1="24.1995" y1="31.5853" x2="29.4656" y2="31.5853" gradientUnits="userSpaceOnUse">
<stop stop-color="#5C9BF0"/>
<stop offset="1" stop-color="#5F9EF0"/>
</linearGradient>
<linearGradient id="paint10_linear" x1="24.1995" y1="41.9144" x2="29.4656" y2="41.9144" gradientUnits="userSpaceOnUse">
<stop stop-color="#5C9BF0"/>
<stop offset="1" stop-color="#5F9EF0"/>
</linearGradient>
<linearGradient id="paint11_linear" x1="24.1995" y1="52.2445" x2="29.4656" y2="52.2445" gradientUnits="userSpaceOnUse">
<stop stop-color="#5C9BF0"/>
<stop offset="1" stop-color="#5F9EF0"/>
</linearGradient>
<linearGradient id="paint12_linear" x1="45.4407" y1="31.5853" x2="50.7068" y2="31.5853" gradientUnits="userSpaceOnUse">
<stop stop-color="#5C9BF0"/>
<stop offset="1" stop-color="#5F9EF0"/>
</linearGradient>
<linearGradient id="paint13_linear" x1="56.0613" y1="31.5853" x2="61.3274" y2="31.5853" gradientUnits="userSpaceOnUse">
<stop stop-color="#5C9BF0"/>
<stop offset="1" stop-color="#5F9EF0"/>
</linearGradient>
<linearGradient id="paint14_linear" x1="66.6819" y1="31.5853" x2="71.948" y2="31.5853" gradientUnits="userSpaceOnUse">
<stop stop-color="#5C9BF0"/>
<stop offset="1" stop-color="#5F9EF0"/>
</linearGradient>
<linearGradient id="paint15_linear" x1="45.4407" y1="41.9144" x2="50.7068" y2="41.9144" gradientUnits="userSpaceOnUse">
<stop stop-color="#5C9BF0"/>
<stop offset="1" stop-color="#5F9EF0"/>
</linearGradient>
<linearGradient id="paint16_linear" x1="45.4407" y1="52.2445" x2="50.7068" y2="52.2445" gradientUnits="userSpaceOnUse">
<stop stop-color="#5C9BF0"/>
<stop offset="1" stop-color="#5F9EF0"/>
</linearGradient>
<linearGradient id="paint17_linear" x1="56.0613" y1="41.9144" x2="61.3274" y2="41.9144" gradientUnits="userSpaceOnUse">
<stop stop-color="#5C9BF0"/>
<stop offset="1" stop-color="#5F9EF0"/>
</linearGradient>
<linearGradient id="paint18_linear" x1="56.0613" y1="52.2445" x2="61.3274" y2="52.2445" gradientUnits="userSpaceOnUse">
<stop stop-color="#5C9BF0"/>
<stop offset="1" stop-color="#5F9EF0"/>
</linearGradient>
<linearGradient id="paint19_linear" x1="66.6819" y1="41.9144" x2="71.948" y2="41.9144" gradientUnits="userSpaceOnUse">
<stop stop-color="#5C9BF0"/>
<stop offset="1" stop-color="#5F9EF0"/>
</linearGradient>
<linearGradient id="paint20_linear" x1="66.6819" y1="52.2445" x2="71.948" y2="52.2445" gradientUnits="userSpaceOnUse">
<stop stop-color="#5C9BF0"/>
<stop offset="1" stop-color="#5F9EF0"/>
</linearGradient>
<linearGradient id="paint21_linear" x1="-0.368983" y1="19.5372" x2="84.7785" y2="19.5372" gradientUnits="userSpaceOnUse">
<stop stop-color="#5C9BF0"/>
<stop offset="1" stop-color="#5F9EF0"/>
</linearGradient>
</defs>
</svg>
