<?xml version="1.0" encoding="UTF-8"?>
<svg width="54px" height="74px" viewBox="0 0 54 74" version="1.1" xmlns="http://www.w3.org/2000/svg" xmlns:xlink="http://www.w3.org/1999/xlink">
    <!-- Generator: Sketch 56.2 (81672) - https://sketch.com -->
    <title>Osaka</title>
    <desc>Created with Sketch.</desc>
    <defs>
        <linearGradient x1="101.543361%" y1="100%" x2="1.36983803%" y2="100%" id="linearGradient-1">
            <stop stop-color="#5C9BF0" offset="0%"></stop>
            <stop stop-color="#5F9EF0" offset="100%"></stop>
        </linearGradient>
        <linearGradient x1="101.543361%" y1="100%" x2="1.36983803%" y2="100%" id="linearGradient-2">
            <stop stop-color="#5C9BF0" offset="0%"></stop>
            <stop stop-color="#5F9EF0" offset="100%"></stop>
        </linearGradient>
        <linearGradient x1="101.543361%" y1="100%" x2="1.36983803%" y2="100%" id="linearGradient-3">
            <stop stop-color="#5C9BF0" offset="0%"></stop>
            <stop stop-color="#5F9EF0" offset="100%"></stop>
        </linearGradient>
        <linearGradient x1="101.543361%" y1="100%" x2="1.36983803%" y2="100%" id="linearGradient-4">
            <stop stop-color="#5C9BF0" offset="0%"></stop>
            <stop stop-color="#5F9EF0" offset="100%"></stop>
        </linearGradient>
        <linearGradient x1="101.543361%" y1="100%" x2="1.36983803%" y2="100%" id="linearGradient-5">
            <stop stop-color="#5C9BF0" offset="0%"></stop>
            <stop stop-color="#5F9EF0" offset="100%"></stop>
        </linearGradient>
        <linearGradient x1="101.543361%" y1="100%" x2="1.36983803%" y2="100%" id="linearGradient-6">
            <stop stop-color="#5C9BF0" offset="0%"></stop>
            <stop stop-color="#5F9EF0" offset="100%"></stop>
        </linearGradient>
        <linearGradient x1="101.543361%" y1="100%" x2="1.36983803%" y2="100%" id="linearGradient-7">
            <stop stop-color="#5C9BF0" offset="0%"></stop>
            <stop stop-color="#5F9EF0" offset="100%"></stop>
        </linearGradient>
        <linearGradient x1="101.543361%" y1="100%" x2="1.36983803%" y2="100%" id="linearGradient-8">
            <stop stop-color="#5C9BF0" offset="0%"></stop>
            <stop stop-color="#5F9EF0" offset="100%"></stop>
        </linearGradient>
        <linearGradient x1="101.543361%" y1="100%" x2="1.36983803%" y2="100%" id="linearGradient-9">
            <stop stop-color="#5C9BF0" offset="0%"></stop>
            <stop stop-color="#5F9EF0" offset="100%"></stop>
        </linearGradient>
        <linearGradient x1="101.543361%" y1="100%" x2="1.36983803%" y2="100%" id="linearGradient-10">
            <stop stop-color="#5C9BF0" offset="0%"></stop>
            <stop stop-color="#5F9EF0" offset="100%"></stop>
        </linearGradient>
        <linearGradient x1="101.543361%" y1="100%" x2="1.36983803%" y2="100%" id="linearGradient-11">
            <stop stop-color="#5C9BF0" offset="0%"></stop>
            <stop stop-color="#5F9EF0" offset="100%"></stop>
        </linearGradient>
    </defs>
    <g id="mobile" stroke="none" stroke-width="1" fill="none" fill-rule="evenodd">
        <g id="Main-Page" transform="translate(-893.000000, -8353.000000)">
            <g id="Roadmap" transform="translate(302.000000, 8221.000000)">
                <g id="Beta" transform="translate(558.500000, 133.465900)">
                    <g id="Osaka" transform="translate(33.960603, 0.000000)">
                        <path d="M9.79859822,8.67517936 C9.79859822,10.4922843 11.2716528,11.9653388 13.0887577,11.9653388 L38.0776167,11.9653388 C39.8947216,11.9653388 41.3677762,10.4922843 41.3677762,8.67517936 L41.3677762,8.67517936" id="Line-3-Copy-38" stroke="url(#linearGradient-1)" stroke-width="2" stroke-linecap="round" transform="translate(25.583187, 10.320259) scale(-1, 1) translate(-25.583187, -10.320259) "></path>
                        <path d="M5.31353376,31.8266486 C5.31353376,33.6437535 6.78658834,35.116808 8.60369324,35.116808 L42.8530487,35.116808 C44.6701536,35.116808 46.1432081,33.6437535 46.1432081,31.8266486 L46.1432081,31.8266486" id="Line-3-Copy-44" stroke="url(#linearGradient-2)" stroke-width="2" stroke-linecap="round" transform="translate(25.728371, 33.471728) scale(-1, 1) translate(-25.728371, -33.471728) "></path>
                        <path d="M3.94351218e-13,54.5792659 C3.9457375e-13,56.3963708 1.47305457,57.8694254 3.29015947,57.8694254 L47.5464471,57.8694254 C49.363552,57.8694254 50.8366066,56.3963708 50.8366066,54.5792659 L50.8366066,54.5792659" id="Line-3-Copy-49" stroke="url(#linearGradient-3)" stroke-width="2" stroke-linecap="round" transform="translate(25.418303, 56.224346) scale(-1, 1) translate(-25.418303, -56.224346) "></path>
                        <polyline id="Line-3-Copy-39" stroke="url(#linearGradient-4)" stroke-width="2" stroke-linecap="round" transform="translate(25.393767, 7.531759) scale(-1, 1) translate(-25.393767, -7.531759) " points="11.9941648 11.4816935 25.2792909 3.58182552 38.7933696 11.4816935"></polyline>
                        <polyline id="Line-3-Copy-45" stroke="url(#linearGradient-5)" stroke-width="2" stroke-linecap="round" transform="translate(25.583187, 30.094492) scale(-1, 1) translate(-25.583187, -30.094492) " points="9.79859822 35.116808 25.7726072 25.0721766 41.3677762 35.116808"></polyline>
                        <polyline id="Line-3-Copy-50" stroke="url(#linearGradient-6)" stroke-width="2" stroke-linecap="round" transform="translate(25.728371, 51.239498) scale(-1, 1) translate(-25.728371, -51.239498) " points="5.31353376 57.8694254 25.8735547 44.6095715 46.1432081 57.8694254"></polyline>
                        <path d="M25.5831872,3.58182552 L25.5831872,5.94191363e-13" id="Line-3-Copy-40" stroke="url(#linearGradient-7)" stroke-width="2" stroke-linecap="round" transform="translate(25.583187, 1.790913) scale(-1, 1) translate(-25.583187, -1.790913) "></path>
                        <path d="M20.2764888,16.2730538 L20.2764888,12.6912283" id="Line-3-Copy-41" stroke="url(#linearGradient-7)" stroke-width="2" stroke-linecap="round" transform="translate(20.276489, 14.482141) scale(-1, 1) translate(-20.276489, -14.482141) "></path>
                        <path d="M13.3176214,39.959607 L13.3176214,36.3777815" id="Line-3-Copy-46" stroke="url(#linearGradient-8)" stroke-width="2" stroke-linecap="round" transform="translate(13.317621, 38.168694) scale(-1, 1) translate(-13.317621, -38.168694) "></path>
                        <path d="M34.2795799,29.9837576 L34.2795799,19.2730538 C34.2795799,17.6161995 32.9364342,16.2730538 31.2795799,16.2730538 L19.3906083,16.2730538 C17.7337541,16.2730538 16.3906083,17.6161995 16.3906083,19.2730538 L16.3906083,29.9837576" id="Line-3-Copy-43" stroke="url(#linearGradient-9)" stroke-width="2" stroke-linecap="round" transform="translate(25.335094, 23.128406) scale(-1, 1) translate(-25.335094, -23.128406) "></path>
                        <path d="M40.9474236,54.5792659 L40.9474236,42.959607 C40.9474236,41.3027527 39.6042779,39.959607 37.9474236,39.959607 L12.7985982,39.959607 C11.141744,39.959607 9.79859822,41.3027527 9.79859822,42.959607 L9.79859822,54.5792659" id="Line-3-Copy-47" stroke="url(#linearGradient-10)" stroke-width="2" stroke-linecap="round" transform="translate(25.373011, 47.269436) scale(-1, 1) translate(-25.373011, -47.269436) "></path>
                        <path d="M46.398671,69.5306954 L43.2410021,57.8694254 L6.9116401,57.8694254 L4.43050866,69.5848779 C4.31608223,70.1251787 4.66132167,70.6559401 5.20162255,70.7703665 C5.26974123,70.7847929 5.33918038,70.7920652 5.40880994,70.7920652 L45.4334323,70.7920652 C45.985717,70.7920652 46.4334323,70.34435 46.4334323,69.7920652 C46.4334323,69.7037896 46.4217436,69.6159025 46.398671,69.5306954 Z" id="Line-3-Copy-51" stroke="url(#linearGradient-11)" stroke-width="2" stroke-linecap="round" transform="translate(25.457538, 64.330745) scale(-1, 1) translate(-25.457538, -64.330745) "></path>
                        <path d="M30.6986491,16.2730538 L30.6986491,12.6912283" id="Line-3-Copy-42" stroke="url(#linearGradient-7)" stroke-width="2" stroke-linecap="round" transform="translate(30.698649, 14.482141) scale(-1, 1) translate(-30.698649, -14.482141) "></path>
                        <path d="M37.9426776,39.959607 L37.9426776,36.3777815" id="Line-3-Copy-48" stroke="url(#linearGradient-8)" stroke-width="2" stroke-linecap="round" transform="translate(37.942678, 38.168694) scale(-1, 1) translate(-37.942678, -38.168694) "></path>
                        <circle id="Oval" fill="#5E9DF0" cx="25.7283709" cy="52.2149407" r="1.63843581"></circle>
                        <circle id="Oval-Copy-8" fill="#5E9DF0" cx="25.5831872" cy="30.8558871" r="1.63843581"></circle>
                        <circle id="Oval-Copy-9" fill="#5E9DF0" cx="25.5831872" cy="8.12525529" r="1.63843581"></circle>
                    </g>
                </g>
            </g>
        </g>
    </g>
</svg>