<?xml version="1.0" encoding="UTF-8"?>
<svg width="944px" height="1141px" viewBox="0 0 944 1141" version="1.1" xmlns="http://www.w3.org/2000/svg" xmlns:xlink="http://www.w3.org/1999/xlink">
    <!-- Generator: Sketch 51.3 (57544) - http://www.bohemiancoding.com/sketch -->
    <title>Looper_Group</title>
    <desc>Created with Sketch.</desc>
    <defs>
        <linearGradient x1="0.595623394%" y1="0.589783955%" x2="100.97748%" y2="99.9875053%" id="linearGradient-1">
            <stop stop-color="#83C3F7" offset="0%"></stop>
            <stop stop-color="#1B58E4" offset="100%"></stop>
        </linearGradient>
    </defs>
    <g id="Page-1" stroke="none" stroke-width="1" fill="none" fill-rule="evenodd" opacity="0.212100074">
        <g id="Landing-02" transform="translate(-656.000000, -2142.000000)" fill="url(#linearGradient-1)" fill-rule="nonzero">
            <g id="Group-22" transform="translate(215.000000, 2090.000000)">
                <g id="Looper_Group" transform="translate(1128.000000, 699.000000) scale(-1, 1) translate(-1128.000000, -699.000000) translate(379.000000, 0.000000)">
                    <g id="original_Triangle_34561970-Group">
                        <g id="Triangle" opacity="0.126440823" transform="translate(749.000000, 699.000000) rotate(18.962708) translate(-749.000000, -699.000000) translate(139.000000, 169.991597)">
                            <path d="M705.74882,936.977408 L1136.0835,230.174603 C1170.74958,173.23734 1152.01464,99.3865043 1094.23785,65.224146 C1075.27717,54.0130441 1053.58113,48.0909091 1031.46937,48.0909091 L170.8,48.0909091 C103.421261,48.0909091 48.8,101.918493 48.8,168.318182 C48.8,190.108647 54.8094557,211.489433 66.1858631,230.174603 L496.520546,936.977408 C531.186622,993.914672 606.126373,1012.37738 663.903165,978.215023 C681.074617,968.061858 695.445949,953.899349 705.74882,936.977408 Z M747.594475,961.719977 C733.170456,985.410694 713.050591,1005.23821 689.010558,1019.45264 C608.123049,1067.27994 503.207397,1041.43215 454.674892,961.719977 L24.3402083,254.917172 C8.41323793,228.757934 0,198.824833 0,168.318182 C0,75.3586169 76.4697647,0 170.8,0 L1031.46937,0 C1062.42583,0 1092.80029,8.29098895 1119.34524,23.9865316 C1200.23275,71.8138332 1226.46166,175.205003 1177.92916,254.917172 L747.594475,961.719977 Z"></path>
                        </g>
                        <g id="Triangle" opacity="0.188063142" transform="translate(749.000000, 699.000000) rotate(18.083392) translate(-749.000000, -699.000000) translate(154.000000, 182.991379)">
                            <path d="M688.394341,913.951499 L1108.14702,224.518139 C1141.96065,168.980089 1123.68641,96.9441138 1067.33036,63.6212842 C1048.83593,52.6856914 1027.6734,46.9090909 1006.10537,46.9090909 L166.6,46.9090909 C100.878115,46.9090909 47.6,99.4138793 47.6,164.181818 C47.6,185.43679 53.4616822,206.292151 64.5583418,224.518139 L484.311025,913.951499 C518.124656,969.489548 591.221626,987.498542 647.577678,954.175712 C664.326881,944.272058 678.344819,930.457588 688.394341,913.951499 Z M729.211004,938.086027 C715.141674,961.194553 695.51656,980.53481 672.067676,994.399926 C593.169203,1041.05189 490.833445,1015.8393 443.494361,938.086027 L23.7416786,248.652667 C8.20635503,223.136284 0,193.938779 0,164.181818 C0,73.5067038 74.5893607,0 166.6,0 L1006.10537,0 C1036.30061,0 1065.92815,8.08724064 1091.82036,23.3970706 C1170.71883,70.049032 1196.30277,170.899398 1148.96369,248.652667 L729.211004,938.086027 Z"></path>
                        </g>
                        <g id="Triangle" opacity="0.207337263" transform="translate(749.000000, 699.000000) rotate(17.217891) translate(-749.000000, -699.000000) translate(169.000000, 195.991150)">
                            <path d="M671.039862,890.925589 L1080.21054,218.861674 C1113.17173,164.722839 1095.35818,94.5017233 1040.42287,62.0184224 C1022.39469,51.3583387 1001.76566,45.7272727 980.741365,45.7272727 L162.4,45.7272727 C98.334969,45.7272727 46.4,96.9092661 46.4,160.045455 C46.4,180.764933 52.1139087,201.094868 62.9308206,218.861674 L472.101503,890.925589 C505.06269,945.064424 576.316879,962.619703 631.25219,930.136402 C647.579144,920.482258 661.243689,907.015828 671.039862,890.925589 Z M710.827534,914.452076 C697.112892,936.978411 677.982529,955.831414 655.124793,969.347214 C578.215358,1014.82384 478.459492,990.246445 432.313831,914.452076 L23.1431489,242.388162 C7.99947213,217.514633 0,189.052724 0,160.045455 C0,71.6547907 72.7089566,0 162.4,0 L980.741365,0 C1010.17538,0 1039.05601,7.88349233 1064.29548,22.8076095 C1141.20491,68.2842308 1166.14388,166.593793 1119.99822,242.388162 L710.827534,914.452076 Z"></path>
                        </g>
                        <g id="Triangle" opacity="0.201061913" transform="translate(749.000000, 699.000000) rotate(16.366896) translate(-749.000000, -699.000000) translate(184.000000, 208.990909)">
                            <path d="M653.685383,867.899679 L1052.27406,213.205209 C1084.38281,160.465589 1067.02995,92.0593329 1013.51538,60.4155605 C995.953444,50.030986 975.85793,44.5454545 955.377364,44.5454545 L158.2,44.5454545 C95.7918233,44.5454545 45.2,94.4046529 45.2,155.909091 C45.2,176.093076 50.7661352,195.897585 61.3032994,213.205209 L459.891981,867.899679 C492.000723,920.639299 561.412132,937.740863 614.926702,906.097091 C630.831408,896.692458 644.142559,883.574067 653.685383,867.899679 Z M692.444063,890.818126 C679.08411,912.762269 660.448498,931.128017 638.181911,944.294503 C563.261512,988.595784 466.08554,964.653595 421.133301,890.818126 L22.5446192,236.123656 C7.79258923,211.892982 0,184.16667 0,155.909091 C0,69.8028776 70.8285526,0 158.2,0 L955.377364,0 C984.050156,0 1012.18388,7.67974402 1036.77059,22.2181484 C1111.69099,66.5194296 1135.98498,162.288188 1091.03274,236.123656 L692.444063,890.818126 Z"></path>
                        </g>
                        <g id="Triangle" opacity="0.462410982" transform="translate(749.000000, 699.000000) rotate(15.531089) translate(-749.000000, -699.000000) translate(199.000000, 221.990654)">
                            <path d="M636.330903,844.873769 L1024.33759,207.548744 C1055.59388,156.208338 1038.70173,89.6169424 986.607896,58.8126987 C969.512202,48.7036333 949.950197,43.3636364 930.013363,43.3636364 L154,43.3636364 C93.2486775,43.3636364 44,91.9000396 44,151.772727 C44,171.421219 49.4183617,190.700302 59.6757782,207.548744 L447.68246,844.873769 C478.938757,896.214175 546.507385,912.862024 598.601215,882.05778 C614.083671,872.902658 627.04143,860.132306 636.330903,844.873769 Z M674.060592,867.184176 C661.055329,888.546127 642.914467,906.424621 621.239028,919.241792 C548.307667,962.367733 453.711588,939.060744 409.952771,867.184176 L21.9460894,229.859151 C7.58570633,206.271332 0,179.280615 0,151.772727 C0,67.9509646 68.9481485,0 154,0 L930.013363,0 C957.924931,0 985.311738,7.47599571 1009.24571,21.6286873 C1082.17707,64.7546284 1105.82609,157.982583 1062.06727,229.859151 L674.060592,867.184176 Z"></path>
                        </g>
                        <g id="Triangle" opacity="0.304195892" transform="translate(749.000000, 699.000000) rotate(14.711137) translate(-749.000000, -699.000000) translate(214.000000, 234.990385)">
                            <path d="M618.976424,821.847859 L996.401106,201.89228 C1026.80496,151.951088 1010.3735,87.1745519 959.700408,57.2098369 C943.07096,47.3762806 924.042465,42.1818182 904.649362,42.1818182 L149.8,42.1818182 C90.7055318,42.1818182 42.8,89.3954264 42.8,147.636364 C42.8,166.749362 48.0705882,185.503019 58.0482569,201.89228 L435.472938,821.847859 C465.876791,871.789051 531.602639,887.983185 582.275727,858.01847 C597.335935,849.112859 609.9403,836.690545 618.976424,821.847859 Z M655.677122,843.550226 C643.026547,864.329985 625.380436,881.721225 604.296145,894.189081 C533.353822,936.139682 441.337635,913.467894 398.772241,843.550226 L21.3475597,223.594646 C7.37882343,200.649681 0,174.394561 0,147.636364 C0,66.0990515 67.0677445,0 149.8,0 L904.649362,0 C931.799706,0 958.439599,7.2722474 981.720827,21.0392262 C1052.66315,62.9898273 1075.6672,153.676978 1033.1018,223.594646 L655.677122,843.550226 Z"></path>
                        </g>
                        <g id="Triangle" opacity="0.600998151" transform="translate(749.000000, 699.000000) rotate(13.907695) translate(-749.000000, -699.000000) translate(229.000000, 247.990099)">
                            <path d="M601.621945,798.821949 L968.464626,196.235815 C998.016035,147.693838 982.045268,84.7321615 932.79292,55.6069751 C916.629718,46.0489279 898.134732,41 879.285362,41 L145.6,41 C88.162386,41 41.6,86.8908131 41.6,143.5 C41.6,162.077504 46.7228147,180.305736 56.4207357,196.235815 L423.263417,798.821949 C452.814825,847.363927 516.697892,863.104346 565.950239,833.979159 C580.588198,825.323059 592.83917,813.248784 601.621945,798.821949 Z M637.293651,819.916275 C624.997765,840.113843 607.846405,857.017828 587.353263,869.136369 C518.399976,909.91163 428.963683,887.875043 387.591711,819.916275 L20.74903,217.330141 C7.17194053,195.028031 0,169.508506 0,143.5 C0,64.2471384 65.1873404,0 145.6,0 L879.285362,0 C905.67448,0 931.567461,7.06849908 954.195944,20.4497652 C1023.14923,61.2250261 1045.5083,149.371373 1004.13633,217.330141 L637.293651,819.916275 Z"></path>
                        </g>
                        <g id="Triangle" opacity="0.326706602" transform="translate(749.000000, 699.000000) rotate(13.121407) translate(-749.000000, -699.000000) translate(244.000000, 260.989796)">
                            <path d="M584.267466,775.796039 L940.528146,190.57935 C969.22711,143.436587 953.717039,82.289771 905.885432,54.0041133 C890.188477,44.7215752 872.226999,39.8181818 853.921361,39.8181818 L141.4,39.8181818 C85.6192403,39.8181818 40.4,84.3861999 40.4,139.363636 C40.4,157.405647 45.3750412,175.108453 54.7932145,190.57935 L411.053895,775.796039 C439.752859,822.938802 501.793145,838.225506 549.624752,809.939849 C563.840462,801.533259 575.73804,789.807023 584.267466,775.796039 Z M618.91018,796.282325 C606.968984,815.897702 590.312374,832.314432 570.41038,844.083658 C503.446131,883.683579 416.58973,862.282193 376.411181,796.282325 L20.1505003,211.065636 C6.96505763,189.40638 0,164.622452 0,139.363636 C0,62.3952253 63.3069364,0 141.4,0 L853.921361,0 C879.549255,0 904.695323,6.86475077 926.671061,19.8603041 C993.63531,59.4602249 1015.34941,145.065768 975.170861,211.065636 L618.91018,796.282325 Z"></path>
                        </g>
                        <g id="Triangle" opacity="0.414230592" transform="translate(749.000000, 699.000000) rotate(12.352900) translate(-749.000000, -699.000000) translate(259.000000, 273.989474)">
                            <path d="M566.912987,752.77013 L912.591667,184.922885 C940.438186,139.179337 925.38881,79.8473805 878.977944,52.4012515 C863.747235,43.3942225 846.319267,38.6363636 828.55736,38.6363636 L137.2,38.6363636 C83.0760945,38.6363636 39.2,81.8815867 39.2,135.227273 C39.2,152.73379 44.0272677,169.911171 53.1656933,184.922885 L398.844373,752.77013 C426.690893,798.513678 486.888398,813.346667 533.299264,785.900538 C547.092725,777.743459 558.63691,766.365262 566.912987,752.77013 Z M600.526709,772.648375 C588.940202,791.68156 572.778343,807.611036 553.467498,819.030947 C488.492285,857.455527 404.215778,836.689342 365.230651,772.648375 L19.5519706,204.801131 C6.75817473,183.78473 0,159.736397 0,135.227273 C0,60.5433122 61.4265323,0 137.2,0 L828.55736,0 C853.424029,0 877.823185,6.66100246 899.146178,19.270843 C964.12139,57.6954237 985.190517,140.760163 946.205389,204.801131 L600.526709,772.648375 Z"></path>
                        </g>
                        <g id="Triangle" opacity="0.0458091451" transform="translate(749.000000, 699.000000) rotate(11.602789) translate(-749.000000, -699.000000) translate(274.000000, 286.989130)">
                            <path d="M549.558508,729.74422 L884.655187,179.266421 C911.649262,134.922087 897.060581,77.4049901 852.070456,50.7983897 C837.305993,42.0668698 820.411534,37.4545455 803.193359,37.4545455 L133,37.4545455 C80.5329488,37.4545455 38,79.3769734 38,131.090909 C38,148.061933 42.6794942,164.713888 51.5381721,179.266421 L386.634852,729.74422 C413.628927,774.088554 471.983651,788.467828 516.973776,761.861228 C530.344989,753.953659 541.53578,742.923501 549.558508,729.74422 Z M582.143239,749.014424 C570.91142,767.465418 555.244312,782.907639 536.524615,793.978235 C473.53844,831.227476 391.841826,811.096492 354.05012,749.014424 L18.9534409,198.536625 C6.55129183,178.163079 0,154.850343 0,131.090909 C0,58.6913992 59.5461283,0 133,0 L803.193359,0 C827.298804,0 850.951046,6.45725415 871.621295,18.6813819 C934.60747,55.9306225 955.031624,136.454558 917.239918,198.536625 L582.143239,749.014424 Z"></path>
                        </g>
                        <g id="Triangle" opacity="0.858914098" transform="translate(749.000000, 699.000000) rotate(10.871673) translate(-749.000000, -699.000000) translate(289.000000, 299.988764)">
                            <path d="M532.204028,706.71831 L856.718708,173.609956 C882.860338,130.664836 868.732352,74.9625996 825.162968,49.1955279 C810.864751,40.7395172 794.503801,36.2727273 777.829358,36.2727273 L128.8,36.2727273 C77.989803,36.2727273 36.8,76.8723602 36.8,126.954545 C36.8,143.390076 41.3317207,159.516605 49.9106508,173.609956 L374.42533,706.71831 C400.566961,749.663429 457.078904,763.588989 500.648289,737.821917 C513.597252,730.163859 524.43465,719.48174 532.204028,706.71831 Z M563.759768,725.380474 C552.882639,743.249276 537.710281,758.204243 519.581732,768.925524 C458.584594,804.999424 379.467873,785.503642 342.86959,725.380474 L18.3549112,192.27212 C6.34440893,172.541429 0,149.964288 0,126.954545 C0,56.8394861 57.6657242,0 128.8,0 L777.829358,0 C801.173579,0 824.078908,6.25350584 844.096412,18.0919208 C905.09355,54.1658213 924.87273,132.148953 888.274447,192.27212 L563.759768,725.380474 Z"></path>
                        </g>
                        <g id="Triangle" opacity="0.252826892" transform="translate(749.000000, 699.000000) rotate(10.160138) translate(-749.000000, -699.000000) translate(304.000000, 312.988372)">
                            <path d="M514.849549,683.6924 L828.782228,167.953491 C854.071414,126.407586 840.404123,72.5202092 798.25548,47.5926661 C784.423509,39.4121645 768.596069,35.0909091 752.465358,35.0909091 L124.6,35.0909091 C75.4466573,35.0909091 35.6,74.3677469 35.6,122.818182 C35.6,138.718219 39.9839472,154.319322 48.2831296,167.953491 L362.215808,683.6924 C387.504995,725.238305 442.174157,738.710149 484.322801,713.782606 C496.849516,706.374059 507.33352,696.039979 514.849549,683.6924 Z M545.376297,701.746524 C534.853857,719.033134 520.176251,733.500846 502.63885,743.872813 C443.630749,778.771373 367.093921,759.910791 331.68906,701.746524 L17.7563815,186.007615 C6.13752603,166.919778 0,145.078234 0,122.818182 C0,54.987573 55.7853202,0 124.6,0 L752.465358,0 C775.048353,0 797.20677,6.04975753 816.571529,17.5024598 C875.57963,52.4010201 894.713837,127.843348 859.308976,186.007615 L545.376297,701.746524 Z"></path>
                        </g>
                        <g id="Triangle" opacity="0.382300547" transform="translate(749.000000, 699.000000) rotate(9.468751) translate(-749.000000, -699.000000) translate(319.000000, 325.987952)">
                            <path d="M497.49507,660.66649 L800.845748,162.297027 C825.28249,122.150336 812.075895,70.0778187 771.347992,45.9898043 C757.982267,38.0848118 742.688336,33.9090909 727.101357,33.9090909 L120.4,33.9090909 C72.9035115,33.9090909 34.4,71.8631337 34.4,118.681818 C34.4,134.046362 38.6361737,149.122039 46.6556084,162.297027 L350.006287,660.66649 C374.443028,700.813181 427.26941,713.83131 467.997313,689.743296 C480.101779,682.584259 490.23239,672.598218 497.49507,660.66649 Z M526.992827,678.112574 C516.825075,694.816992 502.64222,708.79745 485.695967,718.820101 C428.676903,752.543322 354.719969,734.317941 320.50853,678.112574 L17.1578517,179.74311 C5.93064313,161.298127 0,140.192179 0,118.681818 C0,53.1356599 53.9049161,0 120.4,0 L727.101357,0 C748.923128,0 770.334631,5.84600922 789.046646,16.9129987 C846.06571,50.6362189 864.554943,123.537743 830.343505,179.74311 L526.992827,678.112574 Z"></path>
                        </g>
                        <g id="Triangle" opacity="0.545422738" transform="translate(749.000000, 699.000000) rotate(8.798065) translate(-749.000000, -699.000000) translate(334.000000, 338.987500)">
                            <path d="M480.140591,637.64058 L772.909269,156.640562 C796.493566,117.893086 783.747666,67.6354282 744.440504,44.3869424 C731.541025,36.7574591 716.780603,32.7272727 701.737356,32.7272727 L116.2,32.7272727 C70.3603658,32.7272727 33.2,69.3585205 33.2,114.545455 C33.2,129.374505 37.2884002,143.924756 45.0280872,156.640562 L337.796765,637.64058 C361.381062,676.388057 412.364664,688.952471 451.671826,665.703985 C463.354043,658.794459 473.131261,649.156457 480.140591,637.64058 Z M508.609356,654.478623 C498.796294,670.600851 485.108189,684.094054 468.753085,693.76739 C413.723058,726.31527 342.346016,708.72509 309.328,654.478623 L16.559322,173.478605 C5.72376023,155.676477 0,135.306125 0,114.545455 C0,51.2837468 52.0245121,0 116.2,0 L701.737356,0 C722.797902,0 743.462493,5.64226091 761.521763,16.3235376 C816.55179,48.8714177 834.39605,119.232138 801.378034,173.478605 L508.609356,654.478623 Z"></path>
                        </g>
                        <g id="Triangle" opacity="0.0299988706" transform="translate(749.000000, 699.000000) rotate(8.148617) translate(-749.000000, -699.000000) translate(349.000000, 351.987013)">
                            <path d="M462.786112,614.614671 L744.972789,150.984097 C767.704642,113.635835 755.419437,65.1930378 717.533016,42.7840806 C705.099783,35.4301064 690.872871,31.5454545 676.373355,31.5454545 L112,31.5454545 C67.81722,31.5454545 32,66.8539072 32,110.409091 C32,124.702648 35.9406267,138.727473 43.4005659,150.984097 L325.587243,614.614671 C348.319096,651.962932 397.459917,664.073632 435.346338,641.664675 C446.606306,635.004659 456.030131,625.714696 462.786112,614.614671 Z M490.225885,630.844673 C480.767512,646.384709 467.574158,659.390657 451.810202,668.714679 C398.769212,700.087219 329.972064,683.13224 298.14747,630.844673 L15.9607923,167.2141 C5.51687733,150.054826 0,130.42007 0,110.409091 C0,49.4318338 50.144108,0 112,0 L676.373355,0 C696.672677,0 716.590355,5.4385126 733.99688,15.7340765 C787.03787,47.1066165 804.237157,114.926533 772.412563,167.2141 L490.225885,630.844673 Z"></path>
                        </g>
                        <g id="Triangle" opacity="0.474482654" transform="translate(749.000000, 699.000000) rotate(7.520926) translate(-749.000000, -699.000000) translate(364.000000, 364.986486)">
                            <path d="M445.431632,591.588761 L717.03631,145.327632 C738.915718,109.378585 727.091208,62.7506473 690.625527,41.1812188 C678.658542,34.1027537 664.965138,30.3636364 651.009354,30.3636364 L107.8,30.3636364 C65.2740743,30.3636364 30.8,64.349294 30.8,106.272727 C30.8,120.03079 34.5928532,133.53019 41.7730447,145.327632 L313.377722,591.588761 C335.25713,627.537808 382.55517,639.194793 419.02085,617.625364 C429.85857,611.214859 438.929001,602.272935 445.431632,591.588761 Z M471.842415,607.210723 C462.73873,622.168567 450.040127,634.687261 434.86732,643.661967 C383.815367,673.859167 317.598111,657.539389 286.96694,607.210723 L15.3622626,160.949594 C5.30999443,144.433176 0,125.534016 0,106.272727 C0,47.5799207 48.263704,0 107.8,0 L651.009354,0 C670.547452,0 689.718216,5.23476429 706.471997,15.1446154 C757.523949,45.3418153 774.078263,110.620928 743.447092,160.949594 L471.842415,607.210723 Z"></path>
                        </g>
                        <g id="Triangle" opacity="0.974352301" transform="translate(749.000000, 699.000000) rotate(6.915493) translate(-749.000000, -699.000000) translate(379.000000, 377.985915)">
                            <path d="M428.077153,568.562851 L689.09983,139.671168 C710.126794,105.121335 698.762979,60.3082568 663.718039,39.578357 C652.2173,32.775401 639.057405,29.1818182 625.645353,29.1818182 L103.6,29.1818182 C62.7309285,29.1818182 29.6,61.8446808 29.6,102.136364 C29.6,115.358933 33.2450797,128.332908 40.1455235,139.671168 L301.1682,568.562851 C322.195164,603.112684 367.650423,614.315953 402.695363,593.586053 C413.110833,587.425059 421.827871,578.831174 428.077153,568.562851 Z M453.458944,583.576772 C444.709948,597.952425 432.506096,609.983864 417.924437,618.609256 C368.861521,647.631116 305.224159,631.946539 275.78641,583.576772 L14.7637329,154.685089 C5.10311153,138.811525 0,120.647961 0,102.136364 C0,45.7280076 46.3832999,0 103.6,0 L625.645353,0 C644.422226,0 662.846078,5.03101598 678.947114,14.5551544 C728.010029,43.5770141 743.91937,106.315323 714.481621,154.685089 L453.458944,583.576772 Z"></path>
                        </g>
                        <g id="Triangle" opacity="0.393830392" transform="translate(749.000000, 699.000000) rotate(6.332802) translate(-749.000000, -699.000000) translate(394.000000, 390.985294)">
                            <path d="M410.722674,545.536941 L661.16335,134.014703 C681.33787,100.864084 670.43475,57.8658664 636.810551,37.9754952 C625.776058,31.4480483 613.149673,28 600.281353,28 L99.4,28 C60.1877828,28 28.4,59.3400675 28.4,98 C28.4,110.687076 31.8973062,123.135625 38.5180023,134.014703 L288.958679,545.536941 C309.133198,578.68756 352.745676,589.437114 386.369875,569.546743 C396.363097,563.63526 404.726741,555.389413 410.722674,545.536941 Z M435.075473,559.942822 C426.681167,573.736283 414.972065,585.280468 400.981554,593.556545 C353.907676,621.403064 292.850207,606.353688 264.60588,559.942822 L14.1652032,148.420584 C4.89622863,133.189875 0,115.761907 0,98 C0,43.8760945 44.5028959,0 99.4,0 L600.281353,0 C618.297001,0 635.97394,4.82726767 651.422231,13.9656933 C698.496109,41.8122129 713.760477,102.009718 685.516149,148.420584 L435.075473,559.942822 Z"></path>
                        </g>
                        <g id="Triangle" opacity="0.174476711" transform="translate(749.000000, 699.000000) rotate(5.773320) translate(-749.000000, -699.000000) translate(409.000000, 403.984615)">
                            <path d="M393.368195,522.511031 L633.226871,128.358238 C652.548946,96.606834 642.106521,55.4234759 609.903063,36.3726334 C599.334816,30.1206956 587.24194,26.8181818 574.917352,26.8181818 L95.2,26.8181818 C57.644637,26.8181818 27.2,56.8354543 27.2,93.8636364 C27.2,106.015219 30.5495327,117.938342 36.8904811,128.358238 L276.749157,522.511031 C296.071232,554.262435 337.840929,564.558275 370.044387,545.507432 C379.61536,539.84546 387.625611,531.947652 393.368195,522.511031 Z M416.692002,536.308872 C408.652385,549.520142 397.438034,560.577072 384.038672,568.503834 C338.953831,595.175013 280.476254,580.760838 253.425349,536.308872 L13.5666735,142.156079 C4.68934573,127.568224 0,110.875852 0,93.8636364 C0,42.0241814 42.6224918,0 95.2,0 L574.917352,0 C592.171776,0 609.101802,4.62351936 623.897348,13.3762322 C668.982189,40.0474117 683.601583,97.704113 656.550678,142.156079 L416.692002,536.308872 Z"></path>
                        </g>
                        <g id="Triangle" opacity="0.867742886" transform="translate(749.000000, 699.000000) rotate(5.237493) translate(-749.000000, -699.000000) translate(424.000000, 416.983871)">
                            <path d="M376.013716,499.485121 L605.290391,122.701773 C623.760022,92.3495836 613.778292,52.9810854 582.995575,34.7697716 C572.893574,28.793343 561.334208,25.6363636 549.553351,25.6363636 L91,25.6363636 C55.1014913,25.6363636 26,54.330841 26,89.7272727 C26,101.343362 29.2017592,112.741059 35.2629598,122.701773 L264.539635,499.485121 C283.009266,529.837311 322.936182,539.679436 353.7189,521.468122 C362.867624,516.05566 370.524481,508.505891 376.013716,499.485121 Z M398.308532,512.674922 C390.623603,525.304 379.904003,535.873675 367.095789,543.451122 C323.999985,568.946962 268.102302,555.167987 242.244819,512.674922 L12.9681438,135.891574 C4.48246283,121.946574 0,105.989798 0,89.7272727 C0,40.1722684 40.7420878,0 91,0 L549.553351,0 C566.04655,0 582.229663,4.41977105 596.372465,12.7867711 C639.468269,38.2826105 653.44269,93.398508 627.585207,135.891574 L398.308532,512.674922 Z"></path>
                        </g>
                        <g id="Triangle" opacity="0.416073917" transform="translate(749.000000, 699.000000) rotate(4.725750) translate(-749.000000, -699.000000) translate(439.000000, 429.983051)">
                            <path d="M358.659236,476.459211 L577.353912,117.045309 C594.971097,88.0923333 585.450064,50.538695 556.088087,33.1669098 C546.452332,27.4659903 535.426475,24.4545455 524.18935,24.4545455 L86.8,24.4545455 C52.5583455,24.4545455 24.8,51.8262278 24.8,85.5909091 C24.8,96.6715049 27.8539857,107.543776 33.6354386,117.045309 L252.330114,476.459211 C269.9473,505.412187 308.031435,514.800596 337.393412,497.428811 C346.119887,492.26586 353.423351,485.06413 358.659236,476.459211 Z M379.925061,489.040971 C372.594822,501.087858 362.369972,511.170279 350.152907,518.398411 C309.04614,542.71891 255.728349,529.575137 231.064289,489.040971 L12.369614,129.627069 C4.27557993,116.324923 0,101.103743 0,85.5909091 C0,38.3203553 38.8616837,0 86.8,0 L524.18935,0 C539.921325,0 555.357525,4.21602274 568.847582,12.19731 C609.954349,36.5178093 623.283796,89.092903 598.619736,129.627069 L379.925061,489.040971 Z"></path>
                        </g>
                        <g id="Triangle" opacity="0.353970261" transform="translate(749.000000, 699.000000) rotate(4.238500) translate(-749.000000, -699.000000) translate(454.000000, 442.982143)">
                            <path d="M341.304757,453.433302 L549.417432,111.388844 C566.182173,83.835083 557.121835,48.0963045 529.180599,31.564048 C520.01109,26.1386376 509.518742,23.2727273 498.825349,23.2727273 L82.6,23.2727273 C50.0151998,23.2727273 23.6,49.3216146 23.6,81.4545455 C23.6,91.9996478 26.5062122,102.346493 32.0079174,111.388844 L240.120592,453.433302 C256.885333,480.987063 293.126689,489.921757 321.067924,473.389501 C329.372151,468.47606 336.322221,461.622369 341.304757,453.433302 Z M361.54159,465.407021 C354.56604,476.871716 344.835941,486.466883 333.210024,493.3457 C294.092294,516.490859 243.354397,503.982286 219.883759,465.407021 L11.7710843,123.362563 C4.06869703,110.703272 0,96.2176887 0,81.4545455 C0,36.4684422 36.9812797,0 82.6,0 L498.825349,0 C513.796099,0 528.485387,4.01227442 541.322699,11.607849 C580.440429,34.7530081 593.124903,84.7872981 569.654265,123.362563 L361.54159,465.407021 Z"></path>
                        </g>
                        <g id="Triangle" opacity="0.396943456" transform="translate(749.000000, 699.000000) rotate(3.776132) translate(-749.000000, -699.000000) translate(469.000000, 455.981132)">
                            <path d="M323.950278,430.407392 L521.480952,105.732379 C537.393249,79.5778327 528.793606,45.6539141 502.273111,29.9611861 C493.569848,24.8112849 483.61101,22.0909091 473.461349,22.0909091 L78.4,22.0909091 C47.472054,22.0909091 22.4,46.8170013 22.4,77.3181818 C22.4,87.3277907 25.1584387,97.1492105 30.3803962,105.732379 L227.91107,430.407392 C243.823367,456.561938 278.221942,465.042918 304.742437,449.35019 C312.624414,444.68626 319.221091,438.180609 323.950278,430.407392 Z M343.15812,441.773071 C336.537258,452.655574 327.30191,461.763486 316.267142,468.292988 C279.138449,490.262807 230.980445,478.389436 208.703229,441.773071 L11.1725546,117.098058 C3.86181413,105.081622 0,91.3316342 0,77.3181818 C0,34.6165291 35.1008756,0 78.4,0 L473.461349,0 C487.670874,0 501.613248,3.80852611 513.797816,11.0183879 C550.926509,32.9882069 562.96601,80.4816931 540.688794,117.098058 L343.15812,441.773071 Z"></path>
                        </g>
                        <g id="Triangle" opacity="0.685178706" transform="translate(749.000000, 699.000000) rotate(3.339017) translate(-749.000000, -699.000000) translate(484.000000, 468.980000)">
                            <path d="M306.595799,407.381482 L493.544473,100.075914 C508.604325,75.3205824 500.465377,43.2115236 475.365623,28.3583243 C467.128607,23.4839322 457.703277,20.9090909 448.097348,20.9090909 L74.2,20.9090909 C44.9289083,20.9090909 21.2,44.3123881 21.2,73.1818182 C21.2,82.6559335 23.8106652,91.9519276 28.7528749,100.075914 L215.701549,407.381482 C230.761401,432.136814 263.317195,440.164079 288.416949,425.310879 C295.876678,420.89646 302.119962,414.738848 306.595799,407.381482 Z M324.774649,418.13912 C318.508477,428.439432 309.76788,437.06009 299.324259,443.240277 C264.184603,464.034756 218.606492,452.796585 197.522699,418.13912 L10.5740249,110.833553 C3.65493123,99.4599714 0,86.4455797 0,73.1818182 C0,32.764616 33.2204716,0 74.2,0 L448.097348,0 C461.545649,0 474.74111,3.6047778 486.272933,10.4289268 C521.412589,31.2234058 532.807116,76.1760881 511.723323,110.833553 L324.774649,418.13912 Z"></path>
                        </g>
                        <g id="Triangle" opacity="0.144532535" transform="translate(749.000000, 699.000000) rotate(2.927502) translate(-749.000000, -699.000000) translate(499.000000, 481.978723)">
                            <path d="M289.24132,384.355572 L465.607993,94.4194498 C479.815401,71.0633321 472.137148,40.7691331 448.458135,26.7554625 C440.687365,22.1565795 431.795544,19.7272727 422.733347,19.7272727 L70,19.7272727 C42.3857625,19.7272727 20,41.8077748 20,69.0454545 C20,77.9840764 22.4628917,86.7546447 27.1253537,94.4194498 L203.492027,384.355572 C217.699435,407.71169 248.412448,415.285239 272.091461,401.271569 C279.128941,397.10666 285.018832,391.297087 289.24132,384.355572 Z M306.391178,394.50517 C300.479695,404.223291 292.233849,412.356693 282.381376,418.187566 C249.230758,437.806705 206.23254,427.203735 186.342169,394.50517 L9.9754952,104.569048 C3.44804833,93.8383208 0,81.5595252 0,69.0454545 C0,30.912703 31.3400675,0 70,0 L422.733347,0 C435.420423,0 447.868972,3.40102949 458.74805,9.83946572 C491.898668,29.4586046 502.648223,71.8704831 482.757852,104.569048 L306.391178,394.50517 Z"></path>
                        </g>
                        <g id="Triangle" opacity="0.851282524" transform="translate(749.000000, 699.000000) rotate(2.541918) translate(-749.000000, -699.000000) translate(514.000000, 494.977273)">
                            <path d="M271.886841,361.329662 L437.671514,88.762985 C451.026477,66.8060818 443.808919,38.3267427 421.550647,25.1526007 C414.246123,20.8292268 405.887812,18.5454545 397.369346,18.5454545 L65.8,18.5454545 C39.8426168,18.5454545 18.8,39.3031616 18.8,64.9090909 C18.8,73.3122193 21.1151182,81.5573619 25.4978325,88.762985 L191.282506,361.329662 C204.637469,383.286565 233.507701,390.4064 255.765974,377.232258 C262.381205,373.31686 267.917702,367.855326 271.886841,361.329662 Z M288.007708,370.87122 C282.450913,380.007149 274.699818,387.653297 265.438494,393.134854 C234.276912,411.578653 193.858587,401.610884 175.161639,370.87122 L9.37696549,98.3045427 C3.24116543,88.2166702 0,76.6734707 0,64.9090909 C0,29.0607899 29.4596635,0 65.8,0 L397.369346,0 C409.295198,0 420.996833,3.19728118 431.223167,9.25000464 C462.384748,27.6938034 472.48933,67.5648781 453.792381,98.3045427 L288.007708,370.87122 Z"></path>
                        </g>
                        <g id="Triangle" opacity="0.716735943" transform="translate(749.000000, 699.000000) rotate(2.182573) translate(-749.000000, -699.000000) translate(529.000000, 507.975610)">
                            <path d="M254.532361,338.303752 L409.735034,83.1065203 C422.237553,62.5488315 415.48069,35.8843522 394.643159,23.5497389 C387.804881,19.5018741 379.980079,17.3636364 372.005345,17.3636364 L61.6,17.3636364 C37.299471,17.3636364 17.6,36.7985484 17.6,60.7727273 C17.6,68.6403622 19.7673447,76.360079 23.8703113,83.1065203 L179.072984,338.303752 C191.575503,358.861441 218.602954,365.527561 239.440486,353.192948 C245.633468,349.52706 250.816572,344.413565 254.532361,338.303752 Z M269.624237,347.23727 C264.422132,355.791007 257.165787,362.949901 248.495611,368.082143 C219.323067,385.350602 181.484635,376.018034 163.981108,347.23727 L8.77843578,92.0400375 C3.03428253,82.5950197 0,71.7874162 0,60.7727273 C0,27.2088768 27.5792594,0 61.6,0 L372.005345,0 C383.169972,0 394.124695,2.99353287 403.698284,8.66054356 C432.870828,25.9290022 442.330436,63.2592732 424.82691,92.0400375 L269.624237,347.23727 Z"></path>
                        </g>
                        <g id="Triangle" opacity="0.240732937" transform="translate(749.000000, 699.000000) rotate(1.849753) translate(-749.000000, -699.000000) translate(544.000000, 520.973684)">
                            <path d="M237.177882,315.277843 L381.798554,77.4500556 C393.448629,58.2915812 387.152461,33.4419617 367.73567,21.9468771 C361.363639,18.1745214 354.072346,16.1818182 346.641344,16.1818182 L57.4,16.1818182 C34.7563253,16.1818182 16.4,34.2939351 16.4,56.6363636 C16.4,63.9685051 18.4195712,71.1627961 22.24279,77.4500556 L166.863462,315.277843 C178.513537,334.436317 203.698207,340.648722 223.114998,329.153637 C228.885732,325.73726 233.715442,320.971804 237.177882,315.277843 Z M251.240766,323.603319 C246.39335,331.574865 239.631756,338.246504 231.552729,343.029432 C204.369221,359.12255 169.110683,350.425183 152.800578,323.603319 L8.17990606,85.7755323 C2.82739963,76.9733691 0,66.9013617 0,56.6363636 C0,25.3569637 25.6988554,0 57.4,0 L346.641344,0 C357.044747,0 367.252557,2.78978456 376.173401,8.07108248 C403.356908,24.164201 412.171543,58.9536682 395.861438,85.7755323 L251.240766,323.603319 Z"></path>
                        </g>
                        <g id="Triangle" opacity="0.806690368" transform="translate(749.000000, 699.000000) rotate(1.543726) translate(-749.000000, -699.000000) translate(559.000000, 533.971429)">
                            <path d="M219.823403,292.251933 L353.862075,71.7935908 C364.659705,54.0343309 358.824232,30.9995713 340.828182,20.3440153 C334.922397,16.8471688 328.164614,15 321.277344,15 L53.2,15 C32.2131795,15 15.2,31.7893219 15.2,52.5 C15.2,59.296648 17.0717977,65.9655133 20.6152688,71.7935908 L154.653941,292.251933 C165.451571,310.011193 188.79346,315.769883 206.789511,305.114327 C212.137996,301.94746 216.614312,297.530043 219.823403,292.251933 Z M232.857295,299.969369 C228.364568,307.358723 222.097725,313.543108 214.609846,317.97672 C189.415376,332.894499 156.73673,324.832333 141.620048,299.969369 L7.58137635,79.5110272 C2.62051673,71.3517186 0,62.0153072 0,52.5 C0,23.5050506 23.8184513,0 53.2,0 L321.277344,0 C330.919522,0 340.380419,2.58603625 348.648518,7.4816214 C373.842988,22.3993998 382.012649,54.6480632 366.895967,79.5110272 L232.857295,299.969369 Z"></path>
                        </g>
                        <g id="Triangle" opacity="0.176365571" transform="translate(749.000000, 699.000000) rotate(1.264734) translate(-749.000000, -699.000000) translate(574.000000, 546.968750)">
                            <path d="M202.468924,269.226023 L325.925595,66.1371261 C335.870781,49.7770805 330.496004,28.5571808 313.920694,18.7411535 C308.481155,15.5198161 302.256881,13.8181818 295.913343,13.8181818 L49,13.8181818 C29.6700338,13.8181818 14,29.2847086 14,48.3636364 C14,54.6247909 15.7240242,60.7682304 18.9877476,66.1371261 L142.444419,269.226023 C152.389605,285.586068 173.888714,290.891043 190.464023,281.075016 C195.390259,278.157661 199.513182,274.088282 202.468924,269.226023 Z M214.473825,276.335419 C210.335786,283.142581 204.563694,288.839712 197.666963,292.924009 C174.46153,306.666447 144.362778,299.239482 130.439518,276.335419 L6.98284664,73.246522 C2.41363383,65.730068 0,57.1292527 0,48.3636364 C0,21.6531376 21.9380473,0 49,0 L295.913343,0 C304.794296,0 313.50828,2.38228794 321.123635,6.89216032 C344.329068,20.6345986 351.853756,50.3424582 337.930496,73.246522 L214.473825,276.335419 Z"></path>
                        </g>
                        <g id="Triangle" opacity="0.691049074" transform="translate(749.000000, 699.000000) rotate(1.013003) translate(-749.000000, -699.000000) translate(589.000000, 559.965517)">
                            <path d="M185.114445,246.200113 L297.989116,60.4806614 C307.081857,45.5198302 302.167775,26.1147903 287.013206,17.1382917 C282.039913,14.1924634 276.349148,12.6363636 270.549342,12.6363636 L44.8,12.6363636 C27.126888,12.6363636 12.8,26.7800954 12.8,44.2272727 C12.8,49.9529338 14.3762507,55.5709475 17.3602264,60.4806614 L130.234897,246.200113 C139.327639,261.160944 158.983967,266.012204 174.138535,257.035705 C178.642523,254.367861 182.412052,250.646521 185.114445,246.200113 Z M196.090354,252.701468 C192.307005,258.92644 187.029663,264.136315 180.724081,267.871298 C159.507685,280.438396 131.988825,273.646632 119.258988,252.701468 L6.38431693,66.9820168 C2.20675093,60.1084175 0,52.2431982 0,44.2272727 C0,19.8012245 20.0576432,0 44.8,0 L270.549342,0 C278.669071,0 286.636142,2.17853963 293.598752,6.30269924 C314.815148,18.8697974 321.694863,46.0368532 308.965025,66.9820168 L196.090354,252.701468 Z"></path>
                        </g>
                        <g id="Triangle" opacity="0.00632068333" transform="translate(749.000000, 699.000000) rotate(0.788732) translate(-749.000000, -699.000000) translate(604.000000, 572.961538)">
                            <path d="M167.759965,223.174203 L270.052636,54.8241966 C278.292933,41.2625799 273.839546,23.6723999 260.105718,15.5354299 C255.598671,12.8651107 250.441416,11.4545455 245.185341,11.4545455 L40.6,11.4545455 C24.5837423,11.4545455 11.6,24.2754822 11.6,40.0909091 C11.6,45.2810766 13.0284772,50.3736647 15.7327052,54.8241966 L118.025376,223.174203 C126.265672,236.73582 144.07922,241.133365 157.813048,232.996395 C161.894786,230.578061 165.310922,227.20476 167.759965,223.174203 Z M177.706883,229.067518 C174.278223,234.710298 169.495632,239.432919 163.781198,242.818587 C144.553839,254.210345 119.614873,248.053782 108.078458,229.067518 L5.78578722,60.7175116 C1.99986803,54.4867669 0,47.3571437 0,40.0909091 C0,17.9493114 18.1772392,0 40.6,0 L245.185341,0 C252.543845,0 259.764004,1.97479132 266.073869,5.71323816 C285.301228,17.1049962 291.535969,41.7312483 279.999554,60.7175116 L177.706883,229.067518 Z"></path>
                        </g>
                        <g id="Triangle" opacity="0.0663371384" transform="translate(749.000000, 699.000000) rotate(0.592101) translate(-749.000000, -699.000000) translate(619.000000, 585.956522)">
                            <path d="M150.405486,200.148293 L242.116156,49.1677319 C249.504009,37.0053296 245.511317,21.2300094 233.19823,13.932568 C229.15743,11.537758 224.533683,10.2727273 219.82134,10.2727273 L36.4,10.2727273 C22.0405965,10.2727273 10.4,21.7708689 10.4,35.9545455 C10.4,40.6092195 11.6807037,45.1763818 14.1051839,49.1677319 L105.815854,200.148293 C113.203706,212.310696 129.174473,216.254526 141.48756,208.957084 C145.14705,206.788261 148.209792,203.762999 150.405486,200.148293 Z M159.323413,205.433568 C156.249441,210.494156 151.961601,214.729522 146.838316,217.765875 C129.599994,227.982293 107.240921,222.460931 96.8979277,205.433568 L5.1872575,54.4530065 C1.79298513,48.8651164 0,42.4710892 0,35.9545455 C0,16.0973983 16.2968351,0 36.4,0 L219.82134,0 C226.41862,0 232.891865,1.77104301 238.548986,5.12377708 C255.787308,15.340195 261.377076,37.4256433 251.034083,54.4530065 L159.323413,205.433568 Z"></path>
                        </g>
                        <g id="Triangle" opacity="0.857080468" transform="translate(749.000000, 699.000000) rotate(0.423268) translate(-749.000000, -699.000000) translate(634.000000, 598.950000)">
                            <path d="M133.051007,177.122383 L214.179677,43.5112672 C220.715085,32.7480793 217.183088,18.787619 206.290742,12.3297062 C202.716188,10.2104053 198.62595,9.09090909 194.45734,9.09090909 L32.2,9.09090909 C19.4974508,9.09090909 9.2,19.2662557 9.2,31.8181818 C9.2,35.9373624 10.3329302,39.979099 12.4776627,43.5112672 L93.6063325,177.122383 C100.14174,187.885571 114.269726,191.375686 125.162072,184.917774 C128.399313,182.998461 131.108663,180.321238 133.051007,177.122383 Z M140.939942,181.799618 C138.22066,186.278014 134.42757,190.026126 129.895433,192.713164 C114.646149,201.754242 94.8669683,196.868081 85.7173976,181.799618 L4.58872779,48.1885013 C1.58610223,43.2434658 0,37.5850346 0,31.8181818 C0,14.2454852 14.4164311,0 32.2,0 L194.45734,0 C200.293395,0 206.019727,1.5672947 211.024103,4.534316 C226.273387,13.5753938 231.218183,33.1200383 222.068612,48.1885013 L140.939942,181.799618 Z"></path>
                        </g>
                        <g id="Triangle" opacity="0.840031133" transform="translate(749.000000, 699.000000) rotate(0.282367) translate(-749.000000, -699.000000) translate(649.000000, 611.941176)">
                            <path d="M115.696528,154.096474 L186.243197,37.8548024 C191.92616,28.490829 188.854859,16.3452285 179.383254,10.7268444 C176.274946,8.88305261 172.718218,7.90909091 169.093339,7.90909091 L28,7.90909091 C16.954305,7.90909091 8,16.7616424 8,27.6818182 C8,31.2655053 8.98515667,34.7818161 10.8501415,37.8548024 L81.3968109,154.096474 C87.0797741,163.460447 99.3649792,166.496847 108.836584,160.878463 C111.651577,159.208661 114.007533,156.879477 115.696528,154.096474 Z M122.556471,158.165667 C120.191878,162.061872 116.893539,165.32273 112.952551,167.660453 C99.6923031,175.52619 82.4930159,171.27523 74.5368675,158.165667 L3.99019808,41.9239961 C1.37921933,37.6218152 0,32.6989801 0,27.6818182 C0,12.3935722 12.536027,0 28,0 L169.093339,0 C174.168169,0 179.147589,1.36354639 183.49922,3.94485492 C196.759467,11.8105926 201.059289,28.8144333 193.103141,41.9239961 L122.556471,158.165667 Z"></path>
                        </g>
                        <g id="Triangle" opacity="0.737088293" transform="translate(749.000000, 699.000000) rotate(0.169510) translate(-749.000000, -699.000000) translate(664.000000, 624.928571)">
                            <path d="M98.3420487,131.070564 L158.306718,32.1983377 C163.137236,24.2335787 160.52663,13.902838 152.475766,9.12398261 C149.833704,7.55569992 146.810485,6.72727273 143.729338,6.72727273 L23.8,6.72727273 C14.4111593,6.72727273 6.8,14.2570292 6.8,23.5454545 C6.8,26.5936482 7.63738317,29.5845332 9.22262026,32.1983377 L69.1872892,131.070564 C74.017808,139.035323 84.4602323,141.618008 92.5110968,136.839153 C94.9038401,135.418861 96.9064028,133.437716 98.3420487,131.070564 Z M104.173001,134.531717 C102.163096,137.84573 99.3595085,140.619333 96.009668,142.607741 C84.7384576,149.298139 70.1190635,145.68238 63.3563373,134.531717 L3.39166837,35.659491 C1.17233643,32.0001647 0,27.8129256 0,23.5454545 C0,10.5416591 10.655623,0 23.8,0 L143.729338,0 C148.042944,0 152.27545,1.15979808 155.974337,3.35539384 C167.245547,10.0457914 170.900396,24.5088283 164.13767,35.659491 L104.173001,134.531717 Z"></path>
                        </g>
                        <g id="Triangle" opacity="0.226580763" transform="translate(749.000000, 699.000000) rotate(0.084789) translate(-749.000000, -699.000000) translate(679.000000, 637.909091)">
                            <path d="M80.9875695,108.044654 L130.370238,26.541873 C134.348312,19.9763284 132.198401,11.4604476 125.568278,7.5211208 C123.392462,6.22834723 120.902752,5.54545455 118.365337,5.54545455 L19.6,5.54545455 C11.8680135,5.54545455 5.6,11.752416 5.6,19.4090909 C5.6,21.9217911 6.28960967,24.3872504 7.59509904,26.541873 L56.9777676,108.044654 C60.9558418,114.610198 69.5554854,116.739169 76.1856091,112.799842 C78.1561036,111.629061 79.8052729,109.995955 80.9875695,108.044654 Z M85.7895299,110.897767 C84.1343146,113.629589 81.8254776,115.915937 79.0667854,117.55503 C69.7846122,123.070087 57.7451112,120.089529 52.1758072,110.897767 L2.79313866,29.3949858 C0.965453534,26.3785141 0,22.9268711 0,19.4090909 C0,8.68974599 8.7752189,0 19.6,0 L118.365337,0 C121.917718,0 125.403312,0.956049765 128.449454,2.76593276 C137.731627,8.28099022 140.741502,20.2032234 135.172198,29.3949858 L85.7895299,110.897767 Z"></path>
                        </g>
                        <g id="Triangle" opacity="0.832001161" transform="translate(749.000000, 699.000000) rotate(0.028271) translate(-749.000000, -699.000000) translate(694.000000, 650.875000)">
                            <path d="M63.6330903,85.018744 L102.433759,20.8854082 C105.559388,15.7190781 103.870173,9.0180571 98.6607896,5.91825899 C96.9512202,4.90099455 94.9950197,4.36363636 93.0013363,4.36363636 L15.4,4.36363636 C9.32486775,4.36363636 4.4,9.24780273 4.4,15.2727273 C4.4,17.249934 4.94183617,19.1899675 5.96757782,20.8854082 L44.768246,85.018744 C47.8938757,90.1850742 54.6507385,91.8603295 59.8601215,88.7605314 C61.4083671,87.8392612 62.704143,86.5541943 63.6330903,85.018744 Z M67.4060592,87.2638164 C66.1055329,89.4134468 64.2914467,91.2125405 62.1239028,92.5023187 C54.8307667,96.842036 45.3711588,94.4966787 40.9952771,87.2638164 L2.19460894,23.1304806 C0.758570633,20.7568636 0,18.0408166 0,15.2727273 C0,6.83783291 6.89481485,0 15.4,0 L93.0013363,0 C95.7924931,0 98.5311738,0.752301455 100.924571,2.17647168 C108.217707,6.51618903 110.582609,15.8976184 106.206727,23.1304806 L67.4060592,87.2638164 Z"></path>
                        </g>
                        <g id="Triangle" opacity="0.312023293" transform="translate(709.000000, 663.800000)">
                            <path d="M46.2786112,61.9928342 L74.4972789,15.2289435 C76.7704642,11.4618278 75.5419437,6.57566663 71.7533016,4.31539718 C70.5099783,3.57364186 69.0872871,3.18181818 67.6373355,3.18181818 L11.2,3.18181818 C6.781722,3.18181818 3.2,6.74318949 3.2,11.1363636 C3.2,12.5780768 3.59406267,13.9926846 4.34005659,15.2289435 L32.5587243,61.9928342 C34.8319096,65.75995 39.7459917,66.9814902 43.5346338,64.7212208 C44.6606306,64.0494613 45.6030131,63.1124333 46.2786112,61.9928342 Z M49.0225885,63.6298662 C48.0767512,65.1973049 46.7574158,66.5091441 45.1810202,67.4496074 C39.8769212,70.6139846 32.9972064,68.9038282 29.814747,63.6298662 L1.59607923,16.8659755 C0.551687733,15.135213 0,13.1547621 0,11.1363636 C0,4.98591983 5.0144108,0 11.2,0 L67.6373355,0 C69.6672677,0 71.6590355,0.548553144 73.399688,1.5870106 C78.703787,4.75138783 80.4237157,11.5920134 77.2412563,16.8659755 L49.0225885,63.6298662 Z"></path>
                        </g>
                        <g id="Triangle" opacity="0.189704309" transform="translate(724.000000, 677.000000)">
                            <path d="M28.924132,38.9669244 L46.5607993,9.57247878 C47.9815401,7.20457745 47.2137148,4.13327617 44.8458135,2.71253537 C44.0687365,2.24628917 43.1795544,2 42.2733347,2 L7,2 C4.23857625,2 2,4.23857625 2,7 C2,7.90621973 2.24628917,8.79540177 2.71253537,9.57247878 L20.3492027,38.9669244 C21.7699435,41.3348257 24.8412448,42.102651 27.2091461,40.6819102 C27.9128941,40.2596614 28.5018832,39.6706724 28.924132,38.9669244 Z M30.6391178,39.9959159 C30.0479695,40.9811631 29.2233849,41.8057477 28.2381376,42.3968961 C24.9230758,44.3859332 20.623254,43.3109777 18.6342169,39.9959159 L0.99754952,10.6014703 C0.344804833,9.51356248 0,8.26870762 0,7 C0,3.13400675 3.13400675,0 7,0 L42.2733347,0 C43.5420423,0 44.7868972,0.344804833 45.874805,0.99754952 C49.1898668,2.98658664 50.2648223,7.28640843 48.2757852,10.6014703 L30.6391178,39.9959159 Z"></path>
                        </g>
                    </g>
                </g>
            </g>
        </g>
    </g>
</svg>