<?xml version="1.0" encoding="UTF-8"?>
<svg width="160px" height="127px" viewBox="0 0 160 127" version="1.1" xmlns="http://www.w3.org/2000/svg" xmlns:xlink="http://www.w3.org/1999/xlink">
    <!-- Generator: Sketch 53.2 (72643) - https://sketchapp.com -->
    <title>Group 28</title>
    <desc>Created with Sketch.</desc>
    <defs>
        <linearGradient x1="25.1642408%" y1="-21.5688345%" x2="71.2072413%" y2="116.365489%" id="linearGradient-1">
            <stop stop-color="#83C3F7" offset="0%"></stop>
            <stop stop-color="#1B58E4" offset="100%"></stop>
        </linearGradient>
        <linearGradient x1="25.8078844%" y1="-21.5688345%" x2="70.6576344%" y2="116.365489%" id="linearGradient-2">
            <stop stop-color="#83C3F7" offset="0%"></stop>
            <stop stop-color="#1B58E4" offset="100%"></stop>
        </linearGradient>
        <linearGradient x1="-8.55490331%" y1="3.24506965%" x2="100%" y2="93.3556568%" id="linearGradient-3">
            <stop stop-color="#83C3F7" offset="0%"></stop>
            <stop stop-color="#1B58E4" offset="100%"></stop>
        </linearGradient>
    </defs>
    <g id="Page-1" stroke="none" stroke-width="1" fill="none" fill-rule="evenodd">
        <g id="Desktop" transform="translate(-270.000000, -4727.000000)">
            <g id="Group-16" transform="translate(185.000000, 4577.000000)">
                <g id="Group-28" transform="translate(85.000000, 150.000000)">
                    <path d="M38.0668444,76.5889198 L32.0437333,43.5428777 C29.5328,45.5021024 29.9000889,46.2302119 29.9000889,46.2302119 L24.2883556,31.0690518 C24.2883556,31.0690518 27.4905801,23.2506637 27.7013333,19.7207456 C27.8418355,17.3674669 27.4760873,15.3600821 26.6040889,13.6985911 C25.7827556,11.6854985 24.5034667,9.78656306 22.6944,8.85404059 C22.0672,8.53011924 21.5192889,8.69172317 21.0432,9.17403778 C19.6469915,10.6814759 18.82471,13.1599974 18.5763556,16.6096024 C18.2744889,18.39224 18.3701333,18.0494114 18.2744889,18.39224 C16.9123556,23.3648608 12.336,23.591035 12.9233778,28.6303664 C13.6590222,34.9621726 8.93973333,46.7000406 11.5185778,51.8199956 C13.9139556,56.5757176 13.8129778,62.2382765 14.7008,67.4277962 C14.9422222,68.8337147 14.2368,71.06549 14.4494222,72.0700743 C12.4757333,75.332476 0.279466667,86.5009844 0.279466667,86.5009844 L20.9944889,109.089147 C20.9944889,109.089147 34.9411556,93.7200069 42.4167111,90.774035 C53.7809778,86.2987119 56.0451556,82.2179451 58.5319111,79.088608 L44.3779556,81.6856867 C41.5139556,82.211167 38.6737778,79.9176754 38.0668444,76.5889198 Z" id="Fill-942" fill="#FFFFFF"></path>
                    <path d="M77.7550222,54.7169423 C77.4026667,54.7815125 77.1125333,54.9060154 76.8476444,55.0547766 L78.4088889,63.618358 C78.7086222,63.6633075 79.0236444,63.6765069 79.3767111,63.6119367 C81.5608889,63.2109592 83.9651556,60.7102007 83.5178667,58.2565322 C83.0698667,55.7992962 79.9399111,54.3163215 77.7550222,54.7169423" id="Fill-943" fill="#D9D9D9"></path>
                    <path d="M76.0760889,43.6340519 C75.5804444,43.725021 75.1914667,43.9322878 74.8718222,44.2134002 L76.6012444,53.7020125 C76.9991111,53.8500603 77.4364444,53.9060687 77.9320889,53.8150996 C80.1169778,53.4141221 82.4686222,50.6261867 81.9562667,47.8154198 C81.4439111,45.0039395 78.2609778,43.2334311 76.0760889,43.6340519" id="Fill-944" fill="#D9D9D9"></path>
                    <path d="M73.9068444,13.5568131 C72.4398222,13.5346951 70.7943111,14.0937092 69.5381333,14.9502457 L71.3710222,25.0071474 C75.2462222,24.409962 77.0680889,20.0627092 77.4478222,16.5010013 C77.7560889,13.6081839 73.9068444,13.5568131 73.9068444,13.5568131" id="Fill-945" fill="#D9D9D9"></path>
                    <path d="M78.4195556,32.1708749 C76.1795556,30.5227288 73.4979556,32.517271 72.8394667,33.0623721 L74.7715556,43.6643749 C75.2110222,43.363285 75.6920889,43.0329423 76.2456889,42.6544395 C81.3123556,39.1861979 83.1768889,35.6708665 78.4195556,32.1708749" id="Fill-946" fill="#D9D9D9"></path>
                    <path d="M31.6896,41.9395294 L29.1555556,44.3760743 C29.1555556,44.3760743 32.1699556,52.4837401 33.5893333,58.7395603 C34.6776889,63.5359507 36.2471111,71.5258918 36.9934222,76.965844 C37.6903111,82.0462007 44.2759111,75.219594 49.3347556,78.3093328 C54.3928889,81.399785 54.8334222,83.401462 54.8334222,83.401462 L58.8245333,79.0039086 L31.6896,41.9395294" id="Fill-947" fill="#D9D9D9"></path>
                    <path d="M79.4506667,68.9953187 C80.0576,72.3237176 78.2126222,75.4769563 75.3486222,76.0027934 L44.3779556,81.6856867 C41.5139556,82.211167 38.6737778,79.9176754 38.0668444,76.5889198 L26.4337778,12.7646417 C25.8272,9.43588609 27.6743111,6.28300407 30.5383111,5.75752373 L61.5089778,0.0749872156 C64.3729778,-0.450493121 67.2110222,1.84264171 67.8172444,5.17104059 L79.4506667,68.9953187 Z M52.7328,4.73117823 C52.6368,4.20462767 52.1923556,3.84467542 51.7390222,3.92815295 L42.0992,5.69687767 C41.6462222,5.77999845 41.3568,6.27408553 41.4528,6.80099283 C41.5484444,7.3275434 41.9932444,7.68606868 42.4465778,7.60294789 L52.0864,5.83422317 C52.5400889,5.75110238 52.8288,5.25772879 52.7328,4.73117823 Z" id="Combined-Shape" fill="url(#linearGradient-1)"></path>
                    <polyline id="Fill-952" fill="#FFFFFF" opacity="0.229999989" points="75.7056 67.8373355 41.1619556 74.1759198 30.1792 13.9222681 64.7228444 7.58404059 75.7056 67.8373355"></polyline>
                    <path d="M34.3988594,18.3857809 L36.1868664,27.83645 C36.3327467,28.6075134 37.075593,29.11471 37.8468474,28.9698429 L63.2353143,24.201049 C64.0072859,24.0560472 64.5155453,23.3126934 64.3705435,22.5407218 C64.3704392,22.5401662 64.3703345,22.5396107 64.3702295,22.5390553 L62.5977279,13.1641018 C62.4522372,12.3945859 61.7120149,11.8874899 60.941897,12.0297599 L35.5379248,16.7228382 C34.7655229,16.8655301 34.2550421,17.6073603 34.3977341,18.3797622 C34.3981049,18.3817692 34.39848,18.3837754 34.3988594,18.3857809 Z" id="Path-5" fill="#53F0CC"></path>
                    <path d="M37.5988594,34.4391517 L39.3868664,43.8898207 C39.5327467,44.6608842 40.275593,45.1680808 41.0468474,45.0232137 L66.4353143,40.2544198 C67.2072859,40.109418 67.7155453,39.3660642 67.5705435,38.5940926 C67.5704392,38.593537 67.5703345,38.5929815 67.5702295,38.5924261 L65.7977279,29.2174726 C65.6522372,28.4479566 64.9120149,27.9408607 64.141897,28.0831307 L38.7379248,32.7762089 C37.9655229,32.9189009 37.4550421,33.6607311 37.5977341,34.433133 C37.5981049,34.43514 37.59848,34.4371462 37.5988594,34.4391517 Z" id="Path-5-Copy" fill="#53F0CC"></path>
                    <path d="M41.865526,59.0543202 L43.653533,68.5049893 C43.7994134,69.2760528 44.5422596,69.7832493 45.3135141,69.6383822 L70.7019809,64.8695884 C71.4739526,64.7245866 71.982212,63.9812327 71.8372102,63.2092611 C71.8371059,63.2087056 71.8370012,63.2081501 71.8368962,63.2075946 L70.0643946,53.8326411 C69.9189039,53.0631252 69.1786816,52.5560292 68.4085637,52.6982992 L43.0045915,57.3913775 C42.2321896,57.5340694 41.7217088,58.2758996 41.8644008,59.0483015 C41.8647715,59.0503085 41.8651466,59.0523148 41.865526,59.0543202 Z" id="Path-5-Copy-2" fill="#53F0CC"></path>
                    <polyline id="Fill-984" fill="url(#linearGradient-2)" points="8.20053333 76.3770153 32.4632889 105.57774 16.2314667 126.882347 -5.68434189e-14 126.882347 -5.68434189e-14 83.4205209 8.20053333 76.3770153"></polyline>
                    <path d="M131.940978,69.2068664 C130.036978,65.1257428 113.113956,54.2526164 112.305778,53.5926445 C108.861156,50.7808074 104.357689,50.9199367 100.152533,52.5687962 C100.152533,52.5687962 97.1335111,50.6049338 96.9393778,50.5724704 C93.8677333,50.0587625 93.1630222,50.3313131 91.1242667,51.7572091 C90.7932444,51.9887344 91.1317333,52.4878159 91.472,52.6954395 C92.8839111,53.5544732 99.9527111,63.3980434 99.9527111,63.3980434 C98.8330667,62.894681 93.1797333,55.6628159 91.7475556,53.6172597 C88.8419556,49.467285 85.4858667,46.2262878 82.3875556,42.9018131 C81.7724444,42.2418411 70.8384,32.0308271 69.8599111,31.2170996 C69.3066667,30.7572597 68.8039111,30.4301277 68.4753778,30.4137176 C64.9475556,28.5954058 58.2993778,34.0549788 71.5978667,45.4175546 C76.6474667,51.4678917 84.6848,61.4534451 86.4394667,65.2745041 C88.5841778,69.9438945 91.4876444,80.9354591 93.2458667,85.4250518 C94.1255111,87.6700265 81.1804444,84.0915518 79.5996444,83.1297765 C78.3832889,82.390608 75.2440889,77.1229619 72.6225778,76.3812962 C69.6725333,75.5475911 65.4936889,74.3132653 63.1278222,76.3345631 C62.3196444,77.0298524 62.3861333,77.9791417 62.9397333,79.0197569 C63.1355259,78.8195059 64.6420148,80.4873917 67.4592,84.0234142 C70.2552889,86.9522625 75.1523556,92.3558271 77.4652444,94.0735378 C80.3118222,96.1911558 89.2167111,102.953549 92.6776889,104.013785 C96.0316444,105.037277 103.822578,107.986459 107.201778,108.920409 C111.674311,110.157945 115.847822,108.122734 119.969422,110.367709 C123.576889,112.333355 126.238222,113.59515 126.238222,113.59515 C126.238222,113.59515 140.989867,111.078695 146.967822,100.337206 C140.497422,93.4456726 141.314844,93.5230855 138.887822,90.7979367 C136.744178,88.3910013 133.275378,72.0650799 131.940978,69.2068664 Z" id="Fill-992" fill="#FFFFFF"></path>
                    <path d="M144.507022,95.8451164 C144.507022,95.8451164 129.926044,102.533664 127.052089,105.477852 C126.148267,106.403954 121.6,115.704563 121.6,115.704563 L134.4,126.882347 L160,126.882347 L160,109.089147 L144.507022,95.8451164" id="Fill-999" fill="url(#linearGradient-3)"></path>
                </g>
            </g>
        </g>
    </g>
</svg>