<?xml version="1.0" encoding="UTF-8"?>
<svg width="136px" height="135px" viewBox="0 0 136 135" version="1.1" xmlns="http://www.w3.org/2000/svg" xmlns:xlink="http://www.w3.org/1999/xlink">
    <!-- Generator: Sketch 53.2 (72643) - https://sketchapp.com -->
    <title>Group 36</title>
    <desc>Created with Sketch.</desc>
    <defs>
        <linearGradient x1="26.5581273%" y1="18.0537565%" x2="102.230061%" y2="100.590524%" id="linearGradient-1">
            <stop stop-color="#05062C" offset="0%"></stop>
            <stop stop-color="#05062C" stop-opacity="0" offset="100%"></stop>
        </linearGradient>
        <rect id="path-2" x="20" y="20" width="116" height="115" rx="9"></rect>
        <rect id="path-3" x="10" y="10" width="116" height="115" rx="9"></rect>
        <linearGradient x1="100%" y1="47.3100102%" x2="0%" y2="58.6620077%" id="linearGradient-4">
            <stop stop-color="#83C3F7" offset="0%"></stop>
            <stop stop-color="#1B58E4" offset="100%"></stop>
        </linearGradient>
        <linearGradient x1="100%" y1="49.2326721%" x2="0%" y2="52.4708645%" id="linearGradient-5">
            <stop stop-color="#83C3F7" offset="0%"></stop>
            <stop stop-color="#1B58E4" offset="100%"></stop>
        </linearGradient>
        <linearGradient x1="100%" y1="0.858353151%" x2="0%" y2="99.1416468%" id="linearGradient-6">
            <stop stop-color="#83C3F7" offset="0%"></stop>
            <stop stop-color="#1B58E4" offset="100%"></stop>
        </linearGradient>
        <linearGradient x1="-11.4155784%" y1="21.5421196%" x2="109.488689%" y2="75.5525362%" id="linearGradient-7">
            <stop stop-color="#83C3F7" offset="0%"></stop>
            <stop stop-color="#1B58E4" offset="100%"></stop>
        </linearGradient>
        <linearGradient x1="-11.4155784%" y1="-14.030231%" x2="109.488689%" y2="107.493207%" id="linearGradient-8">
            <stop stop-color="#83C3F7" offset="0%"></stop>
            <stop stop-color="#1B58E4" offset="100%"></stop>
        </linearGradient>
        <linearGradient x1="100%" y1="48.7519035%" x2="0%" y2="54.0189824%" id="linearGradient-9">
            <stop stop-color="#83C3F7" offset="0%"></stop>
            <stop stop-color="#1B58E4" offset="100%"></stop>
        </linearGradient>
        <linearGradient x1="30.0694444%" y1="22.8472222%" x2="95.5512153%" y2="100%" id="linearGradient-10">
            <stop stop-color="#18DAA2" stop-opacity="0" offset="0%"></stop>
            <stop stop-color="#18DAA2" offset="100%"></stop>
        </linearGradient>
    </defs>
    <g id="Page-1" stroke="none" stroke-width="1" fill="none" fill-rule="evenodd">
        <g id="Desktop" transform="translate(-1042.000000, -1390.000000)">
            <g id="Group-36" transform="translate(1042.000000, 1390.000000)">
                <g id="Rectangle-Copy-2" opacity="0.298758371">
                    <use fill="#3774E8" xlink:href="#path-2"></use>
                    <use fill="url(#linearGradient-1)" xlink:href="#path-2"></use>
                </g>
                <g id="Rectangle" opacity="0.298758371">
                    <use fill="#3774E8" xlink:href="#path-3"></use>
                    <use fill="url(#linearGradient-1)" xlink:href="#path-3"></use>
                </g>
                <path d="M59.5833841,37 L15.4166159,37 C14.6341818,37 14,37.8953475 14,39 C14,40.1046525 14.6341818,41 15.4166159,41 L59.5833841,41 C60.3658182,41 61,40.1046525 61,39 C61,37.8953475 60.3658182,37 59.5833841,37 Z" id="Path" fill="url(#linearGradient-4)"></path>
                <path d="M59.5833841,50 L15.4166159,50 C14.6341818,50 14,50.8953475 14,52 C14,53.1046525 14.6341818,54 15.4166159,54 L59.5833841,54 C60.3658182,54 61,53.1046525 61,52 C61,50.8953475 60.3658182,50 59.5833841,50 Z" id="Path" fill="url(#linearGradient-4)"></path>
                <path d="M59.5833841,63 L15.4166159,63 C14.6341818,63 14,63.8953475 14,65 C14,66.1046525 14.6341818,67 15.4166159,67 L59.5833841,67 C60.3658182,67 61,66.1046525 61,65 C61,63.8953475 60.3658182,63 59.5833841,63 Z" id="Path" fill="url(#linearGradient-4)"></path>
                <path d="M100.583384,77 L15.4166159,77 C14.6341818,77 14,77.8953475 14,79 C14,80.1046525 14.6341818,81 15.4166159,81 L100.583384,81 C101.365818,81 102,80.1046525 102,79 C102,77.8953475 101.365818,77 100.583384,77 Z" id="Path" fill="url(#linearGradient-5)"></path>
                <path d="M100.583384,93 L15.4166159,93 C14.6341818,93 14,93.8953475 14,95 C14,96.1046525 14.6341818,97 15.4166159,97 L100.583384,97 C101.365818,97 102,96.1046525 102,95 C102,93.8953475 101.365818,93 100.583384,93 Z" id="Path" fill="url(#linearGradient-5)"></path>
                <path d="M106.33305,0 L9.66672331,0 C4.33050717,0.0062890625 0.00634373761,4.29318359 0,9.5834082 L0,105.416816 C0.00634373761,110.706816 4.33050717,114.993711 9.66672331,115 L106.333277,115 C111.669266,114.993711 115.99343,110.706816 116,105.416592 L116,9.5834082 C115.99343,4.29318359 111.669266,0.0062890625 106.33305,0 Z M112.133039,105.416592 C112.133039,108.592119 109.536411,111.166592 106.33305,111.166592 L9.66672331,111.166592 C6.46358894,111.166592 3.86673464,108.592344 3.86673464,105.416592 L3.86673464,19.1665918 L112.133265,19.1665918 L112.133265,105.416592 L112.133039,105.416592 Z M112.133265,15.3334082 L3.86673464,15.3334082 L3.86673464,9.5834082 C3.86673464,6.40788086 6.46358894,3.8334082 9.66672331,3.8334082 L106.333277,3.8334082 C109.536411,3.8334082 112.133265,6.40788086 112.133265,9.5834082 L112.133265,15.3334082 L112.133265,15.3334082 Z" id="Shape" fill="url(#linearGradient-6)" transform="translate(58.000000, 57.500000) scale(-1, 1) translate(-58.000000, -57.500000) "></path>
                <path d="M104,8 L102,8 C100.895347,8 100,8.89529501 100,9.99988281 C100,11.1044706 100.895347,12 102,12 L104,12 C105.104653,12 106,11.104705 106,10.0001172 C106,8.89552938 105.104653,8 104,8 Z" id="Path" fill="url(#linearGradient-7)" transform="translate(103.000000, 10.000000) scale(-1, 1) translate(-103.000000, -10.000000) "></path>
                <path d="M95.7599461,8.16485494 C95.277143,7.94504835 94.7226226,7.94504835 94.2400539,8.16485494 C93.9977149,8.2662141 93.7745942,8.40807011 93.5800668,8.58433673 C92.8066444,9.37203552 92.8066444,10.6330558 93.5800668,11.4207546 C93.7745942,11.5970213 93.9977149,11.7388773 94.2400539,11.8402364 C94.7242632,12.0532545 95.2757368,12.0532545 95.7599461,11.8402364 C96.0022851,11.7388773 96.2254058,11.5970213 96.4199332,11.4207546 C97.1933556,10.6330558 97.1933556,9.37203552 96.4199332,8.58433673 C96.2254058,8.40807011 96.0022851,8.2662141 95.7599461,8.16485494 Z" id="Path" fill="url(#linearGradient-8)" transform="translate(95.000000, 10.000000) scale(-1, 1) translate(-95.000000, -10.000000) "></path>
                <path d="M87.766606,8.15248304 C87.0162685,7.84190542 86.1520446,8.01460434 85.5800353,8.58995582 C85.4035818,8.78392077 85.2615753,9.00639624 85.1601087,9.24803452 C84.9466304,9.73084368 84.9466304,10.2807227 85.1601087,10.7635318 C85.2615753,11.0051701 85.4035818,11.2276456 85.5800353,11.4216105 C86.3685692,12.1927965 87.6309266,12.1927965 88.4194606,11.4216105 C88.5959141,11.2276456 88.7379205,11.0051701 88.8393871,10.7635318 C88.9513988,10.5268011 89.0062329,10.2674022 88.9994373,10.0056663 C89.0043583,9.19568735 88.5169435,8.46306067 87.766606,8.15248304 Z" id="Path" fill="url(#linearGradient-8)" transform="translate(87.000000, 10.000000) scale(-1, 1) translate(-87.000000, -10.000000) "></path>
                <path d="M77.083402,8 L11.916598,8 C10.8580106,8 10,8.89534747 10,10 C10,11.1046525 10.8580106,12 11.916598,12 L77.083402,12 C78.1419894,12 79,11.1046525 79,10 C79,8.89534747 78.1419894,8 77.083402,8 Z" id="Path" fill="url(#linearGradient-9)" transform="translate(44.500000, 10.000000) scale(-1, 1) translate(-44.500000, -10.000000) "></path>
                <rect id="Rectangle" fill="url(#linearGradient-10)" opacity="0.300000012" x="71.7228452" y="37.0972656" width="30" height="30" rx="5"></rect>
                <path d="M82.7228452,47.0972656 L92.7228452,57.0972656" id="Line-2" stroke="#18DAA2" stroke-width="3" stroke-linecap="round" transform="translate(87.343939, 52.097266) scale(-1, 1) translate(-87.343939, -52.097266) "></path>
                <path d="M81.7228452,47.0972656 L91.7228452,57.0972656" id="Line-2" stroke="#18DAA2" stroke-width="3" stroke-linecap="round"></path>
            </g>
        </g>
    </g>
</svg>