<?xml version="1.0" encoding="UTF-8"?>
<svg width="146px" height="110px" viewBox="0 0 146 110" version="1.1" xmlns="http://www.w3.org/2000/svg" xmlns:xlink="http://www.w3.org/1999/xlink">
    <!-- Generator: Sketch 53.2 (72643) - https://sketchapp.com -->
    <title>Group 14 Copy</title>
    <desc>Created with Sketch.</desc>
    <defs>
        <linearGradient x1="-8.55490331%" y1="9.51614266%" x2="100%" y2="87.5405163%" id="linearGradient-1">
            <stop stop-color="#83C3F7" offset="0%"></stop>
            <stop stop-color="#1B58E4" offset="100%"></stop>
        </linearGradient>
    </defs>
    <g id="Page-1" stroke="none" stroke-width="1" fill="none" fill-rule="evenodd">
        <g id="Desktop" transform="translate(-1169.000000, -4726.000000)">
            <g id="Group-16" transform="translate(185.000000, 4577.000000)">
                <g id="Group-14-Copy" transform="translate(984.000000, 149.000000)">
                    <g id="Group-6" transform="translate(0.000000, 0.713592)">
                        <rect id="Rectangle" fill="#FFFFFF" opacity="0.229999989" x="8.07389163" y="12.6796117" width="129.802956" height="83.1407767" rx="7.53694581"></rect>
                        <g id="notebook" transform="translate(0.724138, 0.000000)">
                            <path d="M5,109 L139.926408,109 C142.687831,109 144.926408,106.761424 144.926408,104 L144.926408,5 C144.926408,2.23857625 142.687831,-5.07265313e-16 139.926408,0 L5,0 C2.23857625,5.07265313e-16 -3.38176876e-16,2.23857625 0,5 L-8.8817842e-16,104 C6.8079094e-15,106.761424 2.23857625,109 5,109 Z" id="Fill-520" fill="url(#linearGradient-1)"></path>
                            <path d="M9.06853466,97.6665798 L9.06853466,29.2864078 C9.06853466,26.524984 11.3071109,24.2864078 14.0685347,24.2864078 L130.150172,24.2864078 C132.911596,24.2864078 135.150172,26.524984 135.150172,29.2864078 L135.150172,97.6665798 C135.150172,100.428004 132.911596,102.66658 130.150172,102.66658 L14.0685347,102.66658 C11.3071109,102.66658 9.06853466,100.428004 9.06853466,97.6665798 Z" id="Path" fill="#FFFFFF" opacity="0.229999989"></path>
                            <g id="25540" transform="translate(36.275862, 31.286408)">
                                <path d="M10.6830918,47.6770171 C11.0920408,46.794599 11.4086599,45.8930273 11.638966,44.9832321 C4.6622466,40.7391519 0,33.0475307 0,24.2631143 C0,10.8905819 10.8036395,0.0500699659 24.1306871,0.0500699659 C37.457631,0.0500699659 48.2613741,10.8905819 48.2613741,24.2631143 C48.2613741,37.6355427 37.457631,48.4760546 24.1306871,48.4760546 C22.3104388,48.4760546 20.5377041,48.2725478 18.8328163,47.8892679 C15.6909014,51.8165853 10.8125612,53.9133823 5.87581463,53.5622679 C7.88362755,52.0884829 9.55977891,50.1003618 10.6830918,47.6770171" id="Fill-3" fill="#EEEDED" opacity="0.300000012"></path>
                                <path d="M59.0311939,55.0266843 C58.6222449,54.1442662 58.3056259,53.2426945 58.0753197,52.3327952 C65.0520391,48.0888191 69.7142857,40.397198 69.7142857,31.6127816 C69.7142857,18.2402491 58.9106463,7.3997372 45.5835986,7.3997372 C32.2566548,7.3997372 21.4529116,18.2402491 21.4529116,31.6127816 C21.4529116,44.9852099 32.2566548,55.8257218 45.5835986,55.8257218 C47.4038469,55.8257218 49.1765816,55.622215 50.8814694,55.2388311 C54.0233844,59.1662526 58.9017245,61.2629454 63.8384711,60.9119352 C61.8306582,59.4381502 60.1545068,57.450029 59.0311939,55.0266843" id="Fill-6" fill="#FFFFFF" opacity="0.229999989"></path>
                                <path d="M38.9681071,32.1695887 C38.9681071,33.4251894 37.9537228,34.4430358 36.7023929,34.4430358 C35.4510629,34.4430358 34.4366786,33.4251894 34.4366786,32.1695887 C34.4366786,30.9140922 35.4510629,29.8962457 36.7023929,29.8962457 C37.9537228,29.8962457 38.9681071,30.9140922 38.9681071,32.1695887" id="Fill-9" fill="#56F1CE"></path>
                                <path d="M47.8492092,32.1695887 C47.8492092,33.4251894 46.8349286,34.4430358 45.5835986,34.4430358 C44.3322687,34.4430358 43.3178844,33.4251894 43.3178844,32.1695887 C43.3178844,30.9140922 44.3322687,29.8962457 45.5835986,29.8962457 C46.8349286,29.8962457 47.8492092,30.9140922 47.8492092,32.1695887" id="Fill-10" fill="#56F1CE"></path>
                                <path d="M56.512869,32.1695887 C56.512869,33.4251894 55.4984847,34.4430358 54.2471548,34.4430358 C52.9958248,34.4430358 51.9814405,33.4251894 51.9814405,32.1695887 C51.9814405,30.9140922 52.9958248,29.8962457 54.2471548,29.8962457 C55.4984847,29.8962457 56.512869,30.9140922 56.512869,32.1695887" id="Fill-11" fill="#56F1CE"></path>
                            </g>
                            <path d="M35,11 L35,11 C35,8.790861 36.790861,7 39,7 L131,7 C133.209139,7 135,8.790861 135,11 L135,11 C135,13.209139 133.209139,15 131,15 L39,15 C36.790861,15 35,13.209139 35,11 Z" id="Path-Copy-2" fill="#FFFFFF" opacity="0.229999989"></path>
                            <circle id="Oval" fill="#FFFFFF" opacity="0.229999989" cx="11.5" cy="10.5" r="2.5"></circle>
                            <circle id="Oval-Copy-6" fill="#FFFFFF" opacity="0.229999989" cx="19.5" cy="10.5" r="2.5"></circle>
                            <circle id="Oval-Copy-7" fill="#FFFFFF" opacity="0.229999989" cx="27.5" cy="10.5" r="2.5"></circle>
                        </g>
                    </g>
                </g>
            </g>
        </g>
    </g>
</svg>