<?xml version="1.0" encoding="UTF-8"?>
<svg width="50px" height="50px" viewBox="0 0 50 50" version="1.1" xmlns="http://www.w3.org/2000/svg" xmlns:xlink="http://www.w3.org/1999/xlink">
    <!-- Generator: Sketch 53.2 (72643) - https://sketchapp.com -->
    <title>discord</title>
    <desc>Created with Sketch.</desc>
    <defs>
        <linearGradient x1="-3.00813312%" y1="4.57634549%" x2="110.556676%" y2="107.988196%" id="linearGradient-1">
            <stop stop-color="#706AE1" offset="0%"></stop>
            <stop stop-color="#3742B2" offset="100%"></stop>
        </linearGradient>
    </defs>
    <g id="Page-1" stroke="none" stroke-width="1" fill="none" fill-rule="evenodd">
        <g id="Desktop" transform="translate(-1385.000000, -407.000000)">
            <g id="Group-48" transform="translate(1385.000000, 340.000000)">
                <g id="discord" transform="translate(0.000000, 67.000000)">
                    <circle id="Oval" fill="url(#linearGradient-1)" cx="24.9515595" cy="24.9515595" r="24.9515595"></circle>
                    <path d="M37.0484405,11.0689084 C36.4999025,10.5202729 35.7420078,10.1807992 34.9047758,10.1807992 L14.9977583,10.1807992 C13.3236842,10.1807992 11.9665692,11.5379142 11.9665692,13.2119883 L11.9665692,33.1189084 C11.9665692,33.9557505 12.305653,34.7134503 12.8540936,35.2618908 L12.8540936,35.2618908 L27.3770955,49.7848928 C40.0187135,48.5651072 49.9025341,37.912963 49.9025341,24.9513645 C49.9025341,24.5989279 49.8933723,24.248538 49.8789474,23.8996101 L37.0484405,11.0689084 Z" id="Path" fill="#4744BB"></path>
                    <path d="M34.9047758,10.1808967 L14.9977583,10.1808967 C13.3236842,10.1808967 11.9665692,11.5380117 11.9665692,13.2120858 L11.9665692,33.1191033 C11.9665692,34.7931774 13.3236842,36.1502924 14.9977583,36.1502924 L31.8210526,36.1502924 L34.9047758,36.1502924 L34.9047758,36.1502924 C36.5787477,36.1502924 37.93577,34.7932701 37.93577,33.1192982 C37.93577,26.4836257 37.93577,19.8479532 37.93577,13.2122807 C37.9358674,11.5380117 36.5787524,10.1808967 34.9047758,10.1808967 Z" id="Path" fill="#6966DC"></path>
                    <path d="M31.2461014,18.5232943 C31.2461014,18.5232943 29.9891813,17.1925926 27.1352827,17 L27.1352827,17.4201754 C27.1352827,17.4201754 28.7005848,17.3292398 30.6382066,19.2365497 C29.1756335,18.184308 27.0891813,17.5251462 24.7716374,17.5251462 C22.4540936,17.5251462 20.3676413,18.1842105 18.9050682,19.2365497 C20.8426901,17.3292398 22.4079922,17.4201754 22.4079922,17.4201754 L22.4079922,17 C19.5540936,17.1925926 18.2971735,18.5232943 18.2971735,18.5232943 C16.1225146,21.3244639 16,27.4524366 16,27.4524366 C18.0484405,29.9210526 20.6222222,29.6060429 20.6222222,29.6060429 L21.5676413,28.2404483 C20.3484405,27.9106238 19.4777778,27.1534113 18.9544834,26.5637427 C20.414425,27.595614 22.479922,28.2404483 24.7716374,28.2404483 C27.0633528,28.2404483 29.1288499,27.5957115 30.5887914,26.5637427 C30.0654971,27.1533138 29.1948343,27.9106238 27.9756335,28.2404483 L28.9210526,29.6060429 C28.9210526,29.6060429 31.4948343,29.9212476 33.5432749,27.4524366 C33.5434698,27.4523392 33.4208577,21.3244639 31.2461014,18.5232943 Z M22.0404483,25.7191033 C21.2185185,25.7191033 20.5522417,25.0112086 20.5522417,24.1378168 C20.5522417,23.2645224 21.2185185,22.5565302 22.0404483,22.5565302 C22.8623782,22.5565302 23.528655,23.2645224 23.528655,24.1378168 C23.528655,25.0111111 22.8623782,25.7191033 22.0404483,25.7191033 Z M27.5030214,25.7191033 C26.6810916,25.7191033 26.0148148,25.0112086 26.0148148,24.1378168 C26.0148148,23.2645224 26.6810916,22.5565302 27.5030214,22.5565302 C28.3249513,22.5565302 28.9912281,23.2645224 28.9912281,24.1378168 C28.9912281,25.0111111 28.3250487,25.7191033 27.5030214,25.7191033 Z" id="Shape" fill="#FFFFFF" fill-rule="nonzero"></path>
                </g>
            </g>
        </g>
    </g>
</svg>