<?xml version="1.0" encoding="UTF-8"?>
<svg width="18px" height="13px" viewBox="0 0 18 13" version="1.1" xmlns="http://www.w3.org/2000/svg" xmlns:xlink="http://www.w3.org/1999/xlink">
    <!-- Generator: Sketch 53.2 (72643) - https://sketchapp.com -->
    <title>Shape</title>
    <desc>Created with Sketch.</desc>
    <g id="Page-1" stroke="none" stroke-width="1" fill="none" fill-rule="evenodd">
        <g id="Desktop" transform="translate(-1316.000000, -7105.000000)" fill="#FFFFFF" fill-rule="nonzero">
            <g id="Footer" transform="translate(0.000000, 7021.000000)">
                <path d="M1331.2461,85.5232943 C1331.2461,85.5232943 1329.98918,84.1925926 1327.13528,84 L1327.13528,84.4201754 C1327.13528,84.4201754 1328.70058,84.3292398 1330.63821,86.2365497 C1329.17563,85.184308 1327.08918,84.5251462 1324.77164,84.5251462 C1322.45409,84.5251462 1320.36764,85.1842105 1318.90507,86.2365497 C1320.84269,84.3292398 1322.40799,84.4201754 1322.40799,84.4201754 L1322.40799,84 C1319.55409,84.1925926 1318.29717,85.5232943 1318.29717,85.5232943 C1316.12251,88.3244639 1316,94.4524366 1316,94.4524366 C1318.04844,96.9210526 1320.62222,96.6060429 1320.62222,96.6060429 L1321.56764,95.2404483 C1320.34844,94.9106238 1319.47778,94.1534113 1318.95448,93.5637427 C1320.41442,94.595614 1322.47992,95.2404483 1324.77164,95.2404483 C1327.06335,95.2404483 1329.12885,94.5957115 1330.58879,93.5637427 C1330.0655,94.1533138 1329.19483,94.9106238 1327.97563,95.2404483 L1328.92105,96.6060429 C1328.92105,96.6060429 1331.49483,96.9212476 1333.54327,94.4524366 C1333.54347,94.4523392 1333.42086,88.3244639 1331.2461,85.5232943 Z M1322.04045,92.7191033 C1321.21852,92.7191033 1320.55224,92.0112086 1320.55224,91.1378168 C1320.55224,90.2645224 1321.21852,89.5565302 1322.04045,89.5565302 C1322.86238,89.5565302 1323.52865,90.2645224 1323.52865,91.1378168 C1323.52865,92.0111111 1322.86238,92.7191033 1322.04045,92.7191033 Z M1327.50302,92.7191033 C1326.68109,92.7191033 1326.01481,92.0112086 1326.01481,91.1378168 C1326.01481,90.2645224 1326.68109,89.5565302 1327.50302,89.5565302 C1328.32495,89.5565302 1328.99123,90.2645224 1328.99123,91.1378168 C1328.99123,92.0111111 1328.32505,92.7191033 1327.50302,92.7191033 Z" id="Shape"></path>
            </g>
        </g>
    </g>
</svg>