<?xml version="1.0" encoding="UTF-8"?>
<svg width="170px" height="128px" viewBox="0 0 170 128" version="1.1" xmlns="http://www.w3.org/2000/svg" xmlns:xlink="http://www.w3.org/1999/xlink">
    <!-- Generator: Sketch 53.2 (72643) - https://sketchapp.com -->
    <title>Group 45</title>
    <desc>Created with Sketch.</desc>
    <defs>
        <linearGradient x1="30.0694444%" y1="23.0348056%" x2="95.5512153%" y2="99.6545779%" id="linearGradient-1">
            <stop stop-color="#18DAA2" stop-opacity="0" offset="0%"></stop>
            <stop stop-color="#18DAA2" offset="100%"></stop>
        </linearGradient>
        <linearGradient x1="26.5581273%" y1="18.257527%" x2="102.230061%" y2="100.26783%" id="linearGradient-2">
            <stop stop-color="#05062C" offset="0%"></stop>
            <stop stop-color="#05062C" stop-opacity="0" offset="100%"></stop>
        </linearGradient>
        <path d="M95.9763223,46.5037559 C95.7074594,45.8631247 95.3780637,45.2593851 94.9947628,44.6993851 L100.746264,44.6993851 C106.349747,44.6993851 110.908707,40.1407421 110.908707,34.5376494 C110.908707,28.9345567 106.349747,24.3759137 100.746264,24.3759137 L83.0547758,24.3759137 C84.1794932,22.7407579 84.8398311,20.762533 84.8398311,18.6323239 C84.8398311,13.0292312 80.2808707,8.47058824 74.6773879,8.47058824 L20.551332,8.47058824 C14.9478493,8.47058824 10.3888889,13.0292312 10.3888889,18.6323239 C10.3888889,24.2354166 14.9478493,28.7940596 20.551332,28.7940596 L38.24282,28.7940596 C37.1181027,30.4292155 36.4577648,32.4074403 36.4577648,34.5376494 C36.4577648,36.6678585 37.1178817,38.6460833 38.24282,40.2812391 L32.4811566,40.2812391 C26.8776738,40.2812391 22.3187135,44.8398821 22.3187135,50.4429748 C22.3187135,53.6609314 23.8240806,56.5325054 26.1660819,58.3956375 C23.8240806,60.2587697 22.3187135,63.1303437 22.3187135,66.3483003 C22.3187135,69.5662569 23.8240806,72.4378308 26.1660819,74.300963 C23.8240806,76.1640951 22.3187135,79.0356691 22.3187135,82.2536257 C22.3187135,85.4715823 23.8240806,88.3431563 26.1660819,90.2062884 C23.8240806,92.0694206 22.3187135,94.9409945 22.3187135,98.1589512 C22.3187135,103.762044 26.8776738,108.320687 32.4811566,108.320687 L58.5168941,108.320687 C65.3756595,115.656355 75.1329305,120.249902 85.9446654,120.249902 C106.653515,120.249902 123.50152,103.403069 123.50152,82.6956612 C123.50152,65.4611366 111.830175,50.9031247 95.9763223,46.5037559 Z" id="path-3"></path>
        <path d="M103.531878,54.0331677 C103.263015,53.3925365 102.933619,52.7887968 102.550318,52.2287968 L108.301819,52.2287968 C113.905302,52.2287968 118.464263,47.6701538 118.464263,42.0670611 C118.464263,36.4639684 113.905302,31.9053254 108.301819,31.9053254 L90.6103314,31.9053254 C91.7350487,30.2701696 92.3953866,28.2919448 92.3953866,26.1617357 C92.3953866,20.558643 87.8364263,16 82.2329435,16 L28.1068876,16 C22.5034048,16 17.9444444,20.558643 17.9444444,26.1617357 C17.9444444,31.7648284 22.5034048,36.3234714 28.1068876,36.3234714 L45.7983756,36.3234714 C44.6736582,37.9586272 44.0133203,39.9368521 44.0133203,42.0670611 C44.0133203,44.1972702 44.6734373,46.1754951 45.7983756,47.8106509 L40.0367122,47.8106509 C34.4332294,47.8106509 29.874269,52.3692939 29.874269,57.9723866 C29.874269,61.1903432 31.3796361,64.0619172 33.7216374,65.9250493 C31.3796361,67.7881815 29.874269,70.6597554 29.874269,73.877712 C29.874269,77.0956686 31.3796361,79.9672426 33.7216374,81.8303748 C31.3796361,83.6935069 29.874269,86.5650809 29.874269,89.7830375 C29.874269,93.0009941 31.3796361,95.872568 33.7216374,97.7357002 C31.3796361,99.5988323 29.874269,102.470406 29.874269,105.688363 C29.874269,111.291456 34.4332294,115.850099 40.0367122,115.850099 L66.0724496,115.850099 C72.9312151,123.185767 82.688486,127.779314 93.5002209,127.779314 C114.209071,127.779314 131.057076,110.932481 131.057076,90.225073 C131.057076,72.9905483 119.385731,58.4325365 103.531878,54.0331677 Z" id="path-4"></path>
        <linearGradient x1="1.24740997%" y1="3.68708914%" x2="94.6544034%" y2="97.0979771%" id="linearGradient-5">
            <stop stop-color="#83C3F7" offset="0%"></stop>
            <stop stop-color="#1B58E4" offset="100%"></stop>
        </linearGradient>
        <linearGradient x1="1.24740997%" y1="26.922605%" x2="94.6544034%" y2="73.468588%" id="linearGradient-6">
            <stop stop-color="#83C3F7" offset="0%"></stop>
            <stop stop-color="#1B58E4" offset="100%"></stop>
        </linearGradient>
    </defs>
    <g id="Page-1" stroke="none" stroke-width="1" fill="none" fill-rule="evenodd">
        <g id="Desktop" transform="translate(-400.000000, -1671.000000)">
            <g id="Group-40" transform="translate(400.000000, 1641.000000)">
                <g id="Group-31-Copy">
                    <g id="Group-34">
                        <g id="Group-45" transform="translate(0.000000, 30.000000)">
                            <g id="Group-44">
                                <ellipse id="Oval" fill="url(#linearGradient-1)" opacity="0.300000012" cx="76.5" cy="74.3529412" rx="34.9444444" ry="34.8235294"></ellipse>
                                <g id="Path" opacity="0.298758371">
                                    <use fill="#3774E8" xlink:href="#path-3"></use>
                                    <use fill="url(#linearGradient-2)" xlink:href="#path-3"></use>
                                </g>
                                <g id="Path" opacity="0.298758371">
                                    <use fill="#3774E8" xlink:href="#path-4"></use>
                                    <use fill="url(#linearGradient-2)" xlink:href="#path-4"></use>
                                </g>
                                <g id="money">
                                    <path d="M99.7426121,58.7339487 C96.8566992,54.2373807 92.7908382,50.6392426 87.9846654,48.3289941 C86.8846914,47.800142 85.5646784,48.2631637 85.0362313,49.3628402 C84.5075634,50.4625168 84.9703964,51.782217 86.0701494,52.3108481 C94.4455491,56.3366627 99.85705,64.938572 99.85705,74.225073 C99.85705,78.1987535 98.8774789,82.1395187 97.0246004,85.6219014 C96.451527,86.6988245 96.860013,88.0366391 97.937232,88.6096726 C98.2677323,88.7855148 98.622976,88.8690178 98.9729175,88.8690178 C99.7633788,88.8690178 100.527992,88.4435503 100.925211,87.6971045 C103.116985,83.5785089 104.275504,78.9197949 104.275504,74.225073 C104.275504,68.7112268 102.708057,63.3544458 99.7426121,58.7339487 Z" id="Path" fill="#18DAA2"></path>
                                    <path d="M65.0411826,96.1392978 C56.6660039,92.1132623 51.2545029,83.5113531 51.2545029,74.225073 C51.2545029,70.2513925 52.2340741,66.3106272 54.0869526,62.8282446 C54.660026,61.7513215 54.25154,60.4135069 53.174321,59.8404734 C52.0975439,59.2674398 50.7591943,59.6758974 50.1863418,60.7530414 C47.9945679,64.871858 46.8360494,69.5303511 46.8360494,74.225073 C46.8360494,79.7389191 48.4034958,85.0954793 51.3689409,89.7161972 C54.2548538,94.2127653 58.3207147,97.8109034 63.1268876,100.121373 C63.4355166,100.269822 63.7615984,100.33985 64.0825991,100.33985 C64.9053151,100.33985 65.6948928,99.8783748 66.0753216,99.0875266 C66.6035478,97.9878501 66.1409357,96.667929 65.0411826,96.1392978 Z" id="Path" fill="#18DAA2"></path>
                                    <path d="M85.5874334,38.0331677 C85.3185705,37.3925365 84.9891748,36.7887968 84.6058739,36.2287968 L90.3573749,36.2287968 C95.9608577,36.2287968 100.519818,31.6701538 100.519818,26.0670611 C100.519818,20.4639684 95.9608577,15.9053254 90.3573749,15.9053254 L72.6658869,15.9053254 C73.7906043,14.2701696 74.4509422,12.2919448 74.4509422,10.1617357 C74.4509422,4.558643 69.8919818,0 64.288499,0 L10.1624431,0 C4.55896036,0 0,4.558643 0,10.1617357 C0,15.7648284 4.55896036,20.3234714 10.1624431,20.3234714 L27.8539311,20.3234714 C26.7292138,21.9586272 26.0688759,23.9368521 26.0688759,26.0670611 C26.0688759,28.1972702 26.7289929,30.1754951 27.8539311,31.8106509 L22.0922677,31.8106509 C16.4887849,31.8106509 11.9298246,36.3692939 11.9298246,41.9723866 C11.9298246,45.1903432 13.4351917,48.0619172 15.777193,49.9250493 C13.4351917,51.7881815 11.9298246,54.6597554 11.9298246,57.877712 C11.9298246,61.0956686 13.4351917,63.9672426 15.777193,65.8303748 C13.4351917,67.6935069 11.9298246,70.5650809 11.9298246,73.7830375 C11.9298246,77.0009941 13.4351917,79.872568 15.777193,81.7357002 C13.4351917,83.5988323 11.9298246,86.4704063 11.9298246,89.6883629 C11.9298246,95.2914556 16.4887849,99.8500986 22.0922677,99.8500986 L48.1280052,99.8500986 C54.9867706,107.185767 64.7440416,111.779314 75.5557765,111.779314 C96.2646264,111.779314 113.112632,94.9324813 113.112632,74.225073 C113.112632,56.9905483 101.441287,42.4325365 85.5874334,38.0331677 Z M90.3573749,20.3234714 C93.5247433,20.3234714 96.1013645,22.9001341 96.1013645,26.0670611 C96.1013645,29.2339882 93.5247433,31.8106509 90.3573749,31.8106509 L76.2183236,31.8106509 L36.231319,31.8106509 C33.0639506,31.8106509 30.4873294,29.2339882 30.4873294,26.0670611 C30.4873294,22.9001341 33.0639506,20.3234714 36.231319,20.3234714 L90.3573749,20.3234714 Z M10.1624431,15.9053254 C6.99507472,15.9053254 4.41845354,13.3286627 4.41845354,10.1617357 C4.41845354,6.99480868 6.99507472,4.41814596 10.1624431,4.41814596 L64.288499,4.41814596 C67.4558674,4.41814596 70.0324886,6.99480868 70.0324886,10.1617357 C70.0324886,13.3286627 67.4558674,15.9053254 64.288499,15.9053254 L10.1624431,15.9053254 Z M22.0922677,36.2287968 L76.2183236,36.2287968 C77.1082001,36.2287968 77.9602989,36.4355661 78.7246914,36.8058067 C77.6797271,36.7181065 76.6232749,36.6708323 75.5557765,36.6708323 C65.1845614,36.6708323 55.7820923,40.896568 48.9789994,47.7159763 L22.0922677,47.7159763 C18.9251202,47.7159763 16.3482781,45.1393136 16.3482781,41.9723866 C16.3482781,38.8054596 18.9251202,36.2287968 22.0922677,36.2287968 Z M22.0922677,52.1341223 L45.2040936,52.1341223 C42.6961793,55.5698935 40.757141,59.4450493 39.525718,63.6213018 L22.0922677,63.6213018 C18.9248993,63.6213018 16.3482781,61.04486 16.3482781,57.877712 C16.3482781,54.710785 18.9248993,52.1341223 22.0922677,52.1341223 Z M22.0922677,68.0394477 L38.5112411,68.0394477 C38.1761014,70.0525759 37.9989214,72.1182801 37.9989214,74.225073 C37.9989214,76.0245838 38.1290448,77.7940513 38.3749318,79.5266272 L22.0922677,79.5266272 C18.9248993,79.5266272 16.3482781,76.9501854 16.3482781,73.7830375 C16.3482781,70.6158895 18.9248993,68.0394477 22.0922677,68.0394477 Z M22.0922677,95.4319527 C18.9248993,95.4319527 16.3482781,92.8555108 16.3482781,89.6883629 C16.3482781,86.521215 18.9248993,83.9447732 22.0922677,83.9447732 L39.2769591,83.9447732 C40.3917349,88.1007022 42.2026381,91.9738698 44.5775569,95.4319527 L22.0922677,95.4319527 Z M75.5557765,107.361168 C57.2832619,107.361168 42.4173749,92.4963156 42.4173749,74.225073 C42.4173749,55.9538304 57.2832619,41.0889783 75.5557765,41.0889783 C93.8282911,41.0889783 108.694178,55.9538304 108.694178,74.225073 C108.694178,92.4963156 93.8282911,107.361168 75.5557765,107.361168 Z" id="Shape" fill="url(#linearGradient-5)"></path>
                                </g>
                                <g id="right-arrow" transform="translate(122.777778, 37.874944)" fill="url(#linearGradient-6)">
                                    <path d="M31.7988956,1.20870306 C31.1555697,0.548153767 30.0848594,0.548153767 29.4190396,1.20870306 C28.7757136,1.84693649 28.7757136,2.90917116 29.4190396,3.54591687 L41.4862743,15.5176289 L1.66604919,15.5176289 C0.73780036,15.5191166 0,16.2510766 0,17.1719775 C0,18.0928785 0.73780036,18.8486421 1.66604919,18.8486421 L41.4862743,18.8486421 L29.4190396,30.7980382 C28.7757136,31.4585875 28.7757136,32.5223099 29.4190396,33.1590556 C30.0848594,33.8196049 31.1570693,33.8196049 31.7988956,33.1590556 L46.7228573,18.3532301 C47.3886772,17.7149967 47.3886772,16.652762 46.7228573,16.0160163 L31.7988956,1.20870306 Z" id="Path"></path>
                                </g>
                                <path d="M167.466633,33.3949912 C168.030592,32.8058741 168.962745,32.7879811 169.548655,33.3550263 C170.134566,33.9220714 170.152361,34.8593261 169.588403,35.4484433 L130.977811,75.7814793 C130.413853,76.3705965 129.4817,76.3884895 128.895789,75.8214443 C128.309879,75.2543992 128.292083,74.3171445 128.856042,73.7280273 L167.466633,33.3949912 Z" id="Path-12" fill="#18DAA2"></path>
                            </g>
                        </g>
                    </g>
                </g>
            </g>
        </g>
    </g>
</svg>