<?xml version="1.0" encoding="UTF-8"?>
<svg width="170px" height="136px" viewBox="0 0 170 136" version="1.1" xmlns="http://www.w3.org/2000/svg" xmlns:xlink="http://www.w3.org/1999/xlink">
    <!-- Generator: Sketch 53.2 (72643) - https://sketchapp.com -->
    <title>Group 14</title>
    <desc>Created with Sketch.</desc>
    <defs>
        <linearGradient x1="-8.55490331%" y1="49.8307251%" x2="100%" y2="50.1569679%" id="linearGradient-1">
            <stop stop-color="#83C3F7" offset="0%"></stop>
            <stop stop-color="#1B58E4" offset="100%"></stop>
        </linearGradient>
        <linearGradient x1="-8.55490331%" y1="48.8597882%" x2="100%" y2="51.0573138%" id="linearGradient-2">
            <stop stop-color="#83C3F7" offset="0%"></stop>
            <stop stop-color="#1B58E4" offset="100%"></stop>
        </linearGradient>
        <linearGradient x1="-8.55490331%" y1="19.6656963%" x2="100%" y2="78.1288764%" id="linearGradient-3">
            <stop stop-color="#83C3F7" offset="0%"></stop>
            <stop stop-color="#1B58E4" offset="100%"></stop>
        </linearGradient>
        <linearGradient x1="-8.55490331%" y1="19.7172732%" x2="100%" y2="78.0810494%" id="linearGradient-4">
            <stop stop-color="#83C3F7" offset="0%"></stop>
            <stop stop-color="#1B58E4" offset="100%"></stop>
        </linearGradient>
        <linearGradient x1="29.1153285%" y1="0%" x2="70.8846715%" y2="100%" id="linearGradient-5">
            <stop stop-color="#7CFFE9" offset="0%"></stop>
            <stop stop-color="#18DAA2" offset="100%"></stop>
        </linearGradient>
        <linearGradient x1="29.1139292%" y1="0%" x2="70.8860708%" y2="100%" id="linearGradient-6">
            <stop stop-color="#7CFFE9" offset="0%"></stop>
            <stop stop-color="#18DAA2" offset="100%"></stop>
        </linearGradient>
        <linearGradient x1="38.1532593%" y1="0%" x2="61.8467407%" y2="100%" id="linearGradient-7">
            <stop stop-color="#7CFFE9" offset="0%"></stop>
            <stop stop-color="#18DAA2" offset="100%"></stop>
        </linearGradient>
        <linearGradient x1="0.271360412%" y1="0%" x2="99.7286396%" y2="100%" id="linearGradient-8">
            <stop stop-color="#7CFFE9" offset="0%"></stop>
            <stop stop-color="#18DAA2" offset="100%"></stop>
        </linearGradient>
        <linearGradient x1="0.278316464%" y1="0%" x2="99.7216835%" y2="100%" id="linearGradient-9">
            <stop stop-color="#7CFFE9" offset="0%"></stop>
            <stop stop-color="#18DAA2" offset="100%"></stop>
        </linearGradient>
    </defs>
    <g id="Page-1" stroke="none" stroke-width="1" fill="none" fill-rule="evenodd">
        <g id="Desktop" transform="translate(-866.000000, -4726.000000)">
            <g id="Group-16" transform="translate(185.000000, 4577.000000)">
                <g id="Group-14" transform="translate(673.000000, 147.000000)">
                    <g id="Group-21" transform="translate(8.000000, 2.713592)">
                        <path d="M6.01130907,109.960567 L154.418845,110.608592 C154.924026,109.485073 155.176616,108.577871 155.176616,107.886985 C155.176616,107.196098 154.997823,105.67323 154.640237,103.318379 L5.32344553,105.252991 C5.25903568,106.151892 5.25903568,106.889306 5.32344553,107.465233 C5.38785538,108.041159 5.61714322,108.872937 6.01130907,109.960567 Z" id="Path-10" fill="url(#linearGradient-1)"></path>
                        <path d="M13.3988401,88.1796117 L5.57676566,103.440955 C4.94389281,104.675728 5.43182963,106.189754 6.66660306,106.822627 C7.02615348,107.006912 7.42484579,107.101763 7.82886361,107.099134 L152.760266,106.15632 C154.14775,106.147294 155.265212,105.015199 155.256186,103.627715 C155.253732,103.250564 155.166394,102.878804 155.00065,102.540014 L147.975203,88.1796117 L13.3988401,88.1796117 Z" id="Path-9" fill="url(#linearGradient-2)"></path>
                        <rect id="Rectangle" fill="#FFFFFF" opacity="0.229999989" x="15.0738916" y="1.67961165" width="129.802956" height="83.1407767" rx="7.53694581"></rect>
                        <g id="notebook" transform="translate(11.724138, 0.000000)">
                            <path d="M134.835788,88.3143061 C135.615742,87.2200809 136.086359,85.88608 136.086359,84.4394772 L136.086359,6.70179814 C136.086359,3.00580747 133.084195,0 129.395935,0 L7.01842105,0 C3.33148332,0 0.330641208,3.00713219 0.330641208,6.70179814 L0.330641208,84.4394772 C0.330641208,85.915224 0.82505308,87.2717453 1.63541265,88.3818672 L134.835788,88.3143061 Z" id="Shape" fill="url(#linearGradient-3)"></path>
                            <polygon id="Path" fill="#FFFFFF" opacity="0.229999989" points="131.14885 82.8988187 5.06853466 82.8988187 5.06853466 4.51864666 131.150172 4.51864666 131.150172 82.8988187"></polygon>
                        </g>
                        <path d="M139.607136,125.970874 C138.039626,122.990582 135.933839,121.269743 133.289774,120.808357 C129.323677,120.116278 120.461961,119.685666 115.565652,114.35056 C110.669342,109.015454 107.119129,98.6780193 109.726349,98.6780193 C112.333569,98.6780193 114.969114,104.273904 115.565652,105.64566 C116.16219,107.017417 119.730365,109.435731 120.740369,108.226574 C121.750373,107.017417 120.731388,101.138706 118.607063,98.6780193 C116.482738,96.2173322 115.970137,93.6371073 113.692792,92.3363156 C111.415447,91.035524 107.303946,92.7321804 106.461124,91.1692324 C105.618303,89.6062845 109.971942,86.395253 112.768797,87.2457971 C114.633367,87.8128265 115.859488,88.1438807 116.44716,88.2389598 C116.521846,85.2297409 117.670664,83.5385121 119.893614,83.1652733 C120.850023,83.0046901 121.874549,83.4906656 122.967193,84.6232 C124.994237,82.6649035 126.558702,81.9451557 127.660587,82.4639566 C128.762473,82.9827575 129.828747,83.948241 130.859408,85.3604071 C132.665747,85.2639756 134.013355,85.5217222 134.902232,86.133647 C136.235548,87.0515342 140.05549,90.2855708 141.136305,92.3363156 C142.21712,94.3870605 146.515855,107.250291 148.565915,109.581106 C149.932621,111.134982 152.052686,112.724801 154.926108,114.35056 L139.607136,125.970874 Z" id="Path-7" fill="#FFFFFF"></path>
                        <path d="M11.920875,114.148173 C13.2053969,113.315317 13.5265274,111.974848 12.8842664,110.126763 C11.920875,107.354637 10.1835001,93.5728671 11.1907991,92.495174 C12.198098,91.4174809 14.0689491,88.2660971 15.6005661,88.7421068 C16.6216441,89.0594466 17.3464516,89.1368186 17.7749883,88.974223 C16.7916592,86.8443791 16.7916592,85.4741431 17.7749883,84.8635149 C19.2499821,83.9475727 22.3995939,85.1090483 23.2243615,85.9851863 C24.0491291,86.8613244 21.7075135,83.3488709 25.6661604,83.1468687 C28.3052584,83.0122005 30.6575108,85.1102409 32.7229176,89.4409898 C34.0468202,88.2814522 35.3381695,88.2814522 36.5969654,89.4409898 C38.4851593,91.180296 38.1231639,91.4942567 38.1231639,91.9947153 C38.1231639,92.495174 36.8945467,97.2373813 36.8945467,97.2373813 C36.8945467,97.2373813 38.2705446,95.4353127 38.8303832,96.336347 C39.3902219,97.2373813 39.0619178,99.3136064 39.9036052,100.042454 C40.7452926,100.771302 41.6988884,104.513487 40.3887888,108.209158 C39.515389,110.67294 36.0802179,115.753705 30.0832754,123.451456 L11.920875,114.148173 Z" id="Path-8" fill="#FFFFFF"></path>
                        <path d="M-1.95399252e-14,134.368932 L11.0523953,114.823581 C17.4670285,113.787864 22.0105235,114.071077 24.6828804,115.673221 C27.3552373,117.275366 29.4560177,120.97556 30.9852217,126.773804 L28.8662155,134.368932 L-1.95399252e-14,134.368932 Z" id="Path-6" fill="url(#linearGradient-4)"></path>
                        <path d="M139.014778,134.368932 L150.067174,114.823581 C156.481807,113.787864 161.025302,114.071077 163.697659,115.673221 C166.370016,117.275366 168.470796,120.97556 170,126.773804 L167.880994,134.368932 L139.014778,134.368932 Z" id="Path-6-Copy" fill="url(#linearGradient-4)" transform="translate(154.507389, 124.291262) scale(-1, 1) translate(-154.507389, -124.291262) "></path>
                        <g id="github-logo" transform="translate(51.083744, 10.917476)" fill="#EEEDED" opacity="0.300000012">
                            <path d="M60.9390642,16.292487 C58.0185076,11.2803781 54.056959,7.31228444 49.0533759,4.38731099 C44.049048,1.46218835 38.5858138,0 32.6598006,0 C26.7345322,0 21.2695107,1.46263591 16.2662254,4.38731099 C11.2621954,7.31213525 7.30079576,11.2803781 4.38023914,16.292487 C1.46012936,21.3044468 0,26.7775456 0,32.7116344 C0,39.8398212 2.07632391,46.2496695 6.23001437,51.9428201 C10.383258,57.6364183 15.7486339,61.5761663 22.3256952,63.7625116 C23.0912838,63.9048367 23.6580279,63.8047317 24.0265232,63.464733 C24.3951676,63.1242868 24.5792663,62.6979084 24.5792663,62.1873882 C24.5792663,62.102202 24.5719679,61.335825 24.5578179,59.8873619 C24.5432211,58.4388988 24.5363695,57.1752793 24.5363695,56.0971 L23.5582333,56.2665772 C22.9345914,56.3810041 22.1478523,56.4294901 21.198016,56.4157648 C20.2486266,56.4024871 19.263043,56.3028298 18.2426057,56.1175387 C17.2217217,55.9338887 16.2721833,55.5079579 15.3932459,54.8406414 C14.5147553,54.173325 13.8911134,53.2998312 13.5224691,52.2215027 L13.0972248,51.2413397 C12.8137783,50.5887928 12.3675325,49.8638899 11.7578917,49.0693164 C11.1482508,48.2739969 10.5317583,47.7348327 9.90811643,47.4509286 L9.61037098,47.237441 C9.41197332,47.0955635 9.22787458,46.9244453 9.05762794,46.7258765 C8.88753024,46.5273077 8.76018039,46.3285897 8.67513154,46.1295734 C8.58993374,45.9304078 8.66053472,45.7670473 8.88767919,45.6388951 C9.11482366,45.5107429 9.52532214,45.4485317 10.120962,45.4485317 L10.9711526,45.5757888 C11.5381945,45.6896189 12.2395869,46.0296176 13.0762233,46.5978735 C13.9124128,47.1656817 14.5998042,47.9038623 15.1385462,48.8121169 C15.7909349,49.9766758 16.5769292,50.8640441 17.4987634,51.4746692 C18.4198529,52.0852943 19.3485387,52.3900847 20.2839271,52.3900847 C21.2193154,52.3900847 22.027205,52.3190714 22.7078937,52.1777907 C23.3878377,52.035764 24.0257785,51.8222765 24.6214184,51.5385215 C24.8765649,49.6351852 25.5712546,48.1729969 26.7048917,47.1509122 C25.0891125,46.9808382 23.6364305,46.724683 22.346101,46.3840875 C21.0565162,46.0430445 19.7238856,45.4895583 18.349103,44.7221369 C16.9735756,43.9557598 15.8324912,43.0040917 14.9255517,41.8687735 C14.0184633,40.7328586 13.2740252,39.2415787 12.69328,37.3962764 C12.112237,35.5502282 11.8216411,33.4207234 11.8216411,31.0071653 C11.8216411,27.5706273 12.941724,24.6462506 15.181443,22.2323941 C14.1322589,19.648762 14.2313088,16.7524326 15.4788905,13.5437042 C16.301079,13.2878474 17.5203608,13.4798519 19.13614,14.1185243 C20.752217,14.7574951 21.9354536,15.3048646 22.6870411,15.7586935 C23.4386287,16.2123732 24.0408222,16.5968299 24.4945153,16.9086321 C27.1316254,16.1706007 29.8530397,15.8015104 32.6595027,15.8015104 C35.4659658,15.8015104 38.1879758,16.1706007 40.8252349,16.9086321 L42.441163,15.8868457 C43.5462022,15.2050581 44.8511286,14.5802601 46.3528143,14.0123027 C47.8553936,13.4446436 49.0043722,13.2882949 49.7985587,13.5441518 C51.0738446,16.7530294 51.1874913,19.6492096 50.1380093,22.2328417 C52.3775794,24.6466981 53.4981091,27.5718208 53.4981091,31.0076128 C53.4981091,33.4211709 53.2064705,35.5573892 52.6263212,37.4176102 C52.0454271,39.2781297 51.2945843,40.7679177 50.3734949,41.8901074 C49.4513628,43.0121478 48.3029799,43.9563566 46.9281973,44.7225845 C45.5531168,45.4894091 44.2200394,46.0428953 42.9304545,46.3839384 C41.6402739,46.7249814 40.1875919,46.9812858 38.5718127,47.1516581 C40.0454963,48.4290029 40.782487,50.4452743 40.782487,53.199577 L40.782487,62.1861947 C40.782487,62.6967149 40.9597342,63.1229441 41.3145264,63.4635395 C41.6688718,63.8035382 42.2284664,63.9036432 42.994055,63.7611689 C49.57201,61.575122 54.9373859,57.6352248 59.0904806,51.9416266 C63.2431284,46.248476 65.320197,39.8386277 65.320197,32.7104409 C65.3187076,26.7770981 63.8578335,21.3044468 60.9390642,16.292487 Z" id="Path"></path>
                        </g>
                        <path d="M70.6797569,42.830872 C74.0829549,39.925186 76.6355873,37.7459215 78.337654,36.2930785 C79.4388855,35.352496 77.8444028,33.7661028 76.7498708,34.7008066 C73.8866688,37.1454814 71.0234668,39.5901562 68.1594274,42.0348309 C67.723122,42.4077047 67.7239594,43.2550688 68.1594274,43.6271028 C71.0234668,46.0717775 73.8866688,48.5156125 76.7498708,50.961127 C77.8444028,51.8949911 79.439723,50.3094377 78.337654,49.3688552 C76.4282944,47.739072 73.875662,45.5597443 70.6797569,42.830872 Z" id="Fill-73" fill="url(#linearGradient-5)"></path>
                        <path d="M99.8623338,43.6271028 C100.299477,43.254229 100.298639,42.4060251 99.8623338,42.0348309 C96.9991318,39.5901562 94.1359299,37.1454814 91.2718905,34.7008066 C90.1781959,33.7669426 88.5820383,35.352496 89.6849447,36.2930785 C92.25648,38.4880788 94.8273402,40.6830792 97.3981314,42.8780795 C97.6905509,43.1277539 92.5489841,46.9241804 89.6849447,49.3688552 C88.5828757,50.3094377 90.1781959,51.8949911 91.2718905,50.961127 C94.1359299,48.5156125 96.9991318,46.0717775 99.8623338,43.6271028 Z" id="Fill-74" fill="url(#linearGradient-6)"></path>
                        <path d="M81.1506097,52.163729 C83.6394767,46.1414814 86.1291811,40.1192338 88.6180481,34.0961465 C89.1707575,32.7591756 87.0001171,32.1763503 86.4532698,33.4982047 C83.9644028,39.5204523 81.4746984,45.5426998 78.9849939,51.5649474 C78.433122,52.9027581 80.6045998,53.4847435 81.1506097,52.163729" id="Fill-75" fill="url(#linearGradient-7)"></path>
                    </g>
                    <g id="Group-13" transform="translate(33.279044, 32.670407) rotate(-36.000000) translate(-33.279044, -32.670407) translate(8.279044, 11.670407)">
                        <path d="M39.3523313,16.5632614 C36.6307631,16.5632614 34.4242995,14.3505603 34.4242995,11.6212983 C34.4242995,8.89203636 36.6307631,6.68032481 39.3523313,6.68032481 C42.0738995,6.68032481 44.280363,8.89203636 44.280363,11.6212983 C44.280363,14.3505603 42.0738995,16.5632614 39.3523313,16.5632614 Z M46.4937341,10.5436456 L49.0297857,9.64213809 L48.1150309,7.05339651 L45.5770057,7.95391441 C45.0707822,7.09495888 44.4155533,6.36464875 43.6419096,5.79168187 L44.7954677,3.36424185 L42.3235575,2.17674572 L41.1680258,4.60913363 C40.2384691,4.36470735 39.2585862,4.31621792 38.2757428,4.4666341 L37.3748031,1.91747573 L34.7933592,2.83481649 L35.6942989,5.38397486 C34.831844,5.88668156 34.1055662,6.54277317 33.5381617,7.31662482 L31.1096702,6.15980567 L29.9314424,8.64266217 L32.3569734,9.80343965 C32.1112626,10.7306762 32.0629099,11.7153084 32.2119152,12.7019198 L29.6748768,13.6024377 L30.5906184,16.194148 L33.1286436,15.2926405 C33.6319067,16.1496169 34.2861489,16.8819062 35.0607794,17.4519043 L33.9072213,19.8862714 L36.3761711,21.0688196 L37.5395971,18.6403901 C38.4612595,18.8788789 39.4421292,18.9323162 40.4318801,18.7828896 L41.3298594,21.3251209 L43.913277,20.405801 L43.0152976,17.8645592 C43.8688714,17.3569046 44.5971228,16.6978443 45.1714348,15.927951 L47.5940055,17.0818014 L48.7732202,14.6048824 L46.3476891,13.4431153 C46.5894528,12.51291 46.6417527,11.5292674 46.4937341,10.5436456 L46.4937341,10.5436456 Z" id="Fill-516" fill="url(#linearGradient-8)" transform="translate(39.352331, 11.621298) rotate(-6.000000) translate(-39.352331, -11.621298) "></path>
                        <path d="M17.2356816,32.3860523 C12.9026845,32.3860523 9.39069715,28.8641366 9.39069715,24.5188904 C9.39069715,20.1736441 12.9026845,16.6517285 17.2356816,16.6517285 C21.5676919,16.6517285 25.0796793,20.1736441 25.0796793,24.5188904 C25.0796793,28.8641366 21.5676919,32.3860523 17.2356816,32.3860523 Z M28.6035082,22.8019689 L32.6404681,21.3680673 L31.1849521,17.2454765 L27.144045,18.6803677 C26.3378372,17.312768 25.2947996,16.1500113 24.0642719,15.2376185 L25.8997022,11.3733081 L21.9653685,9.48419971 L20.125991,13.3554371 C18.6458052,12.9665321 17.0856895,12.8893449 15.5216265,13.1288233 L14.0878199,9.07055522 L9.9778375,10.5311755 L11.4116441,14.5894435 C10.0390185,15.3900138 8.88250004,16.4330313 7.97958674,17.6660481 L4.11334156,15.8244395 L2.23843961,19.7768225 L6.09876404,21.6233789 C5.70799501,23.1008221 5.63102535,24.668317 5.86785507,26.237791 L1.82990835,27.6726822 L3.28739791,31.7972521 L7.32731822,30.3623609 C8.1285921,31.7269919 9.17064287,32.8927173 10.4021574,33.8001622 L8.56574029,37.6763475 L12.4981004,39.5575393 L14.3493194,35.6922394 C15.8166769,36.0722382 17.3777795,36.1563525 18.9536839,35.9188533 L20.3835433,39.9672255 L24.4964861,38.5026469 L23.0656399,34.4562538 C24.4244504,33.6487565 25.584916,32.6007911 26.498684,31.3747014 L30.3560481,33.2113621 L32.2319368,29.2668957 L28.3716124,27.4183601 C28.7564607,25.9379482 28.8383643,24.3714429 28.6035082,22.8019689 L28.6035082,22.8019689 Z" id="Fill-515" fill="url(#linearGradient-9)" transform="translate(17.235188, 24.518890) rotate(6.000000) translate(-17.235188, -24.518890) "></path>
                    </g>
                </g>
            </g>
        </g>
    </g>
</svg>