<?xml version="1.0" encoding="UTF-8"?>
<svg width="16px" height="12px" viewBox="0 0 16 12" version="1.1" xmlns="http://www.w3.org/2000/svg" xmlns:xlink="http://www.w3.org/1999/xlink">
    <!-- Generator: Sketch 53.2 (72643) - https://sketchapp.com -->
    <title>envelope</title>
    <desc>Created with Sketch.</desc>
    <g id="Page-1" stroke="none" stroke-width="1" fill="none" fill-rule="evenodd">
        <g id="Desktop" transform="translate(-1369.000000, -7107.000000)" fill="#FFFFFF" fill-rule="nonzero">
            <g id="Footer" transform="translate(0.000000, 7021.000000)">
                <g id="envelope" transform="translate(1369.000000, 86.000000)">
                    <path d="M1.4622134,3.71401489 C1.65492804,3.85000496 2.23584119,4.25389578 3.20498263,4.92547891 C4.17415385,5.59706203 4.91660546,6.11416377 5.43236725,6.4768139 C5.48903226,6.51656576 5.60941935,6.60297767 5.79358809,6.73616873 C5.9777866,6.86944913 6.13083871,6.97715136 6.25262531,7.05930521 C6.37450124,7.14142928 6.52183623,7.23355831 6.69477916,7.33554342 C6.86766253,7.43743921 7.03063027,7.51408437 7.18365261,7.56482382 C7.33670471,7.61598015 7.47838213,7.6413201 7.60871464,7.6413201 L7.61726055,7.6413201 L7.62583623,7.6413201 C7.75616873,7.6413201 7.89790571,7.61595037 8.05095782,7.56482382 C8.2039206,7.51408437 8.36703722,7.43734988 8.53977171,7.33554342 C8.71259553,7.23343921 8.85993052,7.1413995 8.98180645,7.05930521 C9.10368238,6.97715136 9.25661538,6.86944913 9.44087345,6.73616873 C9.62501241,6.60285856 9.74554839,6.51656576 9.8022134,6.4768139 C10.3235434,6.11416377 11.6498859,5.19314144 13.7808238,3.71383623 C14.1945409,3.42491315 14.5401886,3.07628784 14.8178561,2.66819851 C15.095732,2.26028784 15.2345211,1.83236725 15.2345211,1.38467494 C15.2345211,1.01056079 15.0998412,0.690312655 14.8306005,0.423960298 C14.5613896,0.157548387 14.2425409,0.0244168734 13.874263,0.0244168734 L1.36016873,0.0244168734 C0.923791563,0.0244168734 0.587970223,0.171751861 0.352764268,0.466421836 C0.117588089,0.761151365 0,1.12954839 0,1.57158313 C0,1.92863524 0.15591067,2.31555335 0.467583127,2.73209926 C0.779225806,3.14867494 1.11087841,3.47600993 1.4622134,3.71401489 Z" id="Path"></path>
                    <path d="M14.3842779,4.6235732 C12.5254988,5.88166749 11.1140844,6.85941439 10.1507196,7.55660546 C9.82767246,7.79455087 9.56560794,7.98029777 9.36434739,8.1133995 C9.16308685,8.24659057 8.89542432,8.38261042 8.5609727,8.5213995 C8.2266402,8.66039702 7.91505707,8.72968734 7.62595533,8.72968734 L7.61729032,8.72968734 L7.60874442,8.72968734 C7.31970223,8.72968734 7.00794045,8.66039702 6.67360794,8.5213995 C6.33927543,8.38261042 6.07143424,8.24659057 5.87023325,8.1133995 C5.66909181,7.98029777 5.40693797,7.79455087 5.0839206,7.55660546 C4.31874938,6.99555335 2.91037221,6.0177469 0.858729529,4.6235732 C0.535593052,4.40834739 0.249379653,4.16164764 0,3.88398015 L0,10.6339057 C0,11.0081985 0.133131514,11.328268 0.399543424,11.5946501 C0.665895782,11.8611216 0.986173697,11.9943127 1.36025806,11.9943127 L13.8743821,11.9943127 C14.2483772,11.9943127 14.5686253,11.8611216 14.8350074,11.5946501 C15.1014789,11.3281787 15.2345509,11.0082283 15.2345509,10.6339057 L15.2345509,3.88398015 C14.990799,4.15590074 14.7075037,4.4026005 14.3842779,4.6235732 Z" id="Path"></path>
                </g>
            </g>
        </g>
    </g>
</svg>