<svg width="50" height="50" viewBox="0 0 50 50" fill="none" xmlns="http://www.w3.org/2000/svg">
<path fill-rule="evenodd" clip-rule="evenodd" d="M25 50C38.8071 50 50 38.8071 50 25C50 11.1929 38.8071 0 25 0C11.1929 0 0 11.1929 0 25C0 38.8071 11.1929 50 25 50Z" fill="url(#paint0_linear)"/>
<mask id="mask0" mask-type="alpha" maskUnits="userSpaceOnUse" x="0" y="0" width="50" height="50">
<path fill-rule="evenodd" clip-rule="evenodd" d="M25 50C38.8071 50 50 38.8071 50 25C50 11.1929 38.8071 0 25 0C11.1929 0 0 11.1929 0 25C0 38.8071 11.1929 50 25 50Z" fill="white"/>
</mask>
<g mask="url(#mask0)">
<path fill-rule="evenodd" clip-rule="evenodd" d="M38.6679 13.3355C37.4023 11.5968 35.3523 10.4656 33.0373 10.4656L18.9276 10.039C15.0831 10.039 11.9666 13.1555 11.9666 17L11.2642 31.6344C11.2642 33.6181 12.9148 36.4569 12.9148 36.4569L22.5126 49.8772C23.3309 49.9579 24.1605 50 25 50C31.8896 50 41.6616 46.4374 47.5748 37.1003C49.5619 33.9627 50 26.7159 50 26.7159L38.6679 13.3355Z" fill="#4744BB"/>
</g>
<path fill-rule="evenodd" clip-rule="evenodd" d="M33.1008 38.3967H17.2959C13.8187 38.3967 11 35.578 11 32.1008V16.2959C11 12.8187 13.8187 10 17.2959 10H33.1009C36.5781 10 39.3968 12.8187 39.3968 16.2959V32.1009C39.3967 35.578 36.578 38.3967 33.1008 38.3967Z" fill="#6966DC"/>
<path d="M33.196 31.9588L27.7689 29.3498L27.728 17.523C27.7271 17.2469 28.0153 17.065 28.2641 17.1846L33.4093 19.6588C33.5388 19.721 33.6212 19.8521 33.6212 19.9958V31.6914C33.6211 31.91 33.3929 32.0535 33.196 31.9588Z" fill="#DEDEDE"/>
<path d="M27.7688 29.3498L21.895 26.5257L27.5497 17.2157C27.6496 17.0513 27.858 16.9894 28.0315 17.0728L33.2485 19.5816C33.4479 19.6775 33.521 19.9246 33.4057 20.1135L27.7688 29.3498Z" fill="white"/>
<path d="M27.7689 29.3498L21.8951 26.5257L16.5113 17.7586C16.3613 17.5143 16.6223 17.2251 16.8806 17.3493L21.8951 19.7607L27.7689 29.3498Z" fill="#CCCDCC"/>
<path d="M21.47 31.9587L16.1681 29.4092C16.0653 29.3597 16 29.2558 16 29.1418V17.3827C16 17.1711 16.2211 17.0321 16.4118 17.1239L21.8952 19.7607V31.6914C21.8952 31.9099 21.667 32.0534 21.47 31.9587Z" fill="white"/>
<defs>
<linearGradient id="paint0_linear" x1="-27.357" y1="30.6794" x2="29.4254" y2="82.3853" gradientUnits="userSpaceOnUse">
<stop stop-color="#706AE1"/>
<stop offset="1" stop-color="#3742B2"/>
</linearGradient>
</defs>
</svg>
