<?xml version="1.0" encoding="UTF-8"?>
<svg width="18px" height="15px" viewBox="0 0 18 15" version="1.1" xmlns="http://www.w3.org/2000/svg" xmlns:xlink="http://www.w3.org/1999/xlink">
    <!-- Generator: Sketch 53.2 (72643) - https://sketchapp.com -->
    <title>medium copy</title>
    <desc>Created with Sketch.</desc>
    <g id="Page-1" stroke="none" stroke-width="1" fill="none" fill-rule="evenodd">
        <g id="Desktop" transform="translate(-1401.000000, -357.000000)" fill-rule="nonzero">
            <g id="Group-48" transform="translate(1385.000000, 340.000000)">
                <g id="twitter-3">
                    <g id="medium-copy" transform="translate(16.000000, 17.000000)">
                        <path d="M17.1960448,14.9587612 L11.7689552,12.349791 L11.7280746,0.522985075 C11.7271343,0.246895522 12.0153582,0.0649701493 12.2641791,0.18461194 L17.4093134,2.65876119 C17.5388507,2.72104478 17.6212388,2.85210448 17.6212388,2.99583582 L17.6212388,14.691403 C17.621194,14.9099552 17.3929701,15.0534627 17.1960448,14.9587612 Z" id="Path" fill="#DEDEDE"></path>
                        <path d="M11.7689552,12.349791 L5.89522388,9.52567164 L11.5499104,0.215731343 C11.649806,0.0512686567 11.8582388,-0.0105671642 12.0316567,0.0728059701 L17.2487015,2.58156716 C17.4481343,2.67747761 17.5211642,2.92459701 17.4058657,3.11346269 L11.7689552,12.349791 Z" id="Path" fill="#FFFFFF"></path>
                        <path d="M11.7689552,12.349791 L5.89522388,9.52567164 L0.51138806,0.758597015 C0.36138806,0.514343284 0.62238806,0.225134328 0.880701493,0.349343284 L5.89522388,2.76067164 L11.7689552,12.349791 Z" id="Path" fill="#CCCDCC"></path>
                        <path d="M5.47002985,14.9587164 L0.168089552,12.4091642 C0.0653283582,12.3597313 0,12.255806 0,12.141806 L0,0.382746269 C0,0.171134328 0.221059701,0.0321044776 0.41180597,0.123850746 L5.89522388,2.76067164 L5.89522388,14.6913582 C5.89522388,14.9099104 5.66695522,15.0534179 5.47002985,14.9587164 Z" id="Path" fill="#FFFFFF"></path>
                    </g>
                </g>
            </g>
        </g>
    </g>
</svg>