<?xml version="1.0" encoding="UTF-8"?>
<svg width="156px" height="123px" viewBox="0 0 156 123" version="1.1" xmlns="http://www.w3.org/2000/svg" xmlns:xlink="http://www.w3.org/1999/xlink">
    <!-- Generator: Sketch 52.4 (67378) - http://www.bohemiancoding.com/sketch -->
    <title>Artboard</title>
    <desc>Created with Sketch.</desc>
    <defs>
        <linearGradient x1="26.5581273%" y1="17.4957541%" x2="102.230061%" y2="101.474185%" id="linearGradient-1">
            <stop stop-color="#05062C" offset="0%"></stop>
            <stop stop-color="#05062C" stop-opacity="0" offset="100%"></stop>
        </linearGradient>
        <linearGradient x1="23.0717891%" y1="-96.8162951%" x2="83.8570355%" y2="130.235332%" id="linearGradient-2">
            <stop stop-color="#7CBCF6" offset="0%"></stop>
            <stop stop-color="#3C7CEA" offset="100%"></stop>
        </linearGradient>
        <linearGradient x1="-9.96414418%" y1="-2.09031573%" x2="169.365419%" y2="73.0852061%" id="linearGradient-3">
            <stop stop-color="#7CBCF6" offset="0%"></stop>
            <stop stop-color="#2582F3" offset="80.4231474%"></stop>
            <stop stop-color="#3C7CEA" offset="100%"></stop>
        </linearGradient>
        <linearGradient x1="100%" y1="-321.386719%" x2="0%" y2="1245.89844%" id="linearGradient-4">
            <stop stop-color="#83C3F7" offset="0%"></stop>
            <stop stop-color="#1B58E4" offset="100%"></stop>
        </linearGradient>
    </defs>
    <g id="Artboard" stroke="none" stroke-width="1" fill="none" fill-rule="evenodd">
        <g id="Meta-transactions" transform="translate(2.000000, 2.000000)">
            <g id="Group-9" opacity="0.298758371" transform="translate(24.994505, 8.350930)">
                <g id="Rectangle-Copy-2" transform="translate(9.000000, 9.000000)">
                    <g id="path-2-link" fill="#3774E8">
                        <rect id="path-2" x="0.5808233" y="0.0671988" width="119.130981" height="103.110143" rx="8.06948947"></rect>
                    </g>
                    <g id="path-2-link" fill="url(#linearGradient-1)">
                        <rect id="path-2" x="0.5808233" y="0.0671988" width="119.130981" height="103.110143" rx="8.06948947"></rect>
                    </g>
                </g>
                <g id="Rectangle">
                    <g id="path-3-link" fill="#3774E8">
                        <rect id="path-3" x="0.2354801" y="0.10109936" width="116.699981" height="103.110143" rx="8.06948947"></rect>
                    </g>
                    <g id="path-3-link" fill="url(#linearGradient-1)">
                        <rect id="path-3" x="0.2354801" y="0.10109936" width="116.699981" height="103.110143" rx="8.06948947"></rect>
                    </g>
                </g>
            </g>
            <rect id="Rectangle" fill="url(#linearGradient-2)" x="0.96266534" y="13.9642856" width="125.788816" height="4" rx="1.57300001"></rect>
            <rect id="Rectangle" stroke="url(#linearGradient-3)" stroke-width="4" fill-opacity="0.127418" fill="#5292EE" x="1.23133685" y="0.33197756" width="124.986001" height="100.500045" rx="3.14600002"></rect>
            <rect id="Rectangle" stroke="url(#linearGradient-3)" stroke-width="4.71900003" fill="url(#linearGradient-2)" x="22.1981655" y="69.8057859" width="86.4638156" height="1" rx="0.5"></rect>
            <rect id="Rectangle" stroke="url(#linearGradient-3)" stroke-width="4.71900003" fill="url(#linearGradient-2)" x="22.1981655" y="79.243786" width="39.2738153" height="1" rx="0.5"></rect>
            <g id="Path" transform="translate(10.349998, 6.349999)">
                <g id="path-7-link" fill="#000000">
                    <path d="M38.7573901,0.78909635 L1.8547365,0.78909635 C1.2552797,0.78909635 0.7694055,1.2961137 0.7694055,1.9216562 C0.7694055,2.5471988 1.2552797,3.0542161 1.8547365,3.0542161 L38.7573901,3.0542161 C39.3568469,3.0542161 39.8427211,2.5471988 39.8427211,1.9216562 C39.8427211,1.2961137 39.3568469,0.78909635 38.7573901,0.78909635 Z" id="path-7"></path>
                </g>
                <g id="path-7-link" fill="url(#linearGradient-4)">
                    <path d="M38.7573901,0.78909635 L1.8547365,0.78909635 C1.2552797,0.78909635 0.7694055,1.2961137 0.7694055,1.9216562 C0.7694055,2.5471988 1.2552797,3.0542161 1.8547365,3.0542161 L38.7573901,3.0542161 C39.3568469,3.0542161 39.8427211,2.5471988 39.8427211,1.9216562 C39.8427211,1.2961137 39.3568469,0.78909635 38.7573901,0.78909635 Z" id="path-7"></path>
                </g>
            </g>
            <g id="Path-Copy" transform="translate(97.349998, 6.349999)">
                <g id="path-9-link" fill="#000000">
                    <path d="M1.835546,0.78909635 L1.126023,0.78909635 C0.5265665,0.78909635 0.0406923,1.2961137 0.0406923,1.9216562 C0.0406923,2.5471988 0.5265665,3.0542161 1.126023,3.0542161 L1.777365,3.0542161 C2.407718,3.0542161 2.923203,2.5518015 2.939389,1.9216562 C2.955048,1.3120206 2.473535,0.8051193 1.863899,0.78946042 C1.85445,0.78921772 1.844998,0.78909635 1.835546,0.78909635 Z" id="path-9"></path>
                </g>
                <g id="path-9-link" fill="url(#linearGradient-4)">
                    <path d="M1.835546,0.78909635 L1.126023,0.78909635 C0.5265665,0.78909635 0.0406923,1.2961137 0.0406923,1.9216562 C0.0406923,2.5471988 0.5265665,3.0542161 1.126023,3.0542161 L1.777365,3.0542161 C2.407718,3.0542161 2.923203,2.5518015 2.939389,1.9216562 C2.955048,1.3120206 2.473535,0.8051193 1.863899,0.78946042 C1.85445,0.78921772 1.844998,0.78909635 1.835546,0.78909635 Z" id="path-9"></path>
                </g>
            </g>
            <g id="Path-Copy" transform="translate(103.349998, 6.349999)">
                <g id="path-11-link" fill="#000000">
                    <path d="M2.127546,0.78909635 L1.418023,0.78909635 C0.818567,0.78909635 0.332692,1.2961137 0.332692,1.9216562 C0.332692,2.5471988 0.818567,3.0542161 1.418023,3.0542161 L2.069365,3.0542161 C2.699718,3.0542161 3.215203,2.5518015 3.231389,1.9216562 C3.247048,1.3120206 2.765535,0.8051193 2.155899,0.78946042 C2.14645,0.78921772 2.136998,0.78909635 2.127546,0.78909635 Z" id="path-11"></path>
                </g>
                <g id="path-11-link" fill="url(#linearGradient-4)">
                    <path d="M2.127546,0.78909635 L1.418023,0.78909635 C0.818567,0.78909635 0.332692,1.2961137 0.332692,1.9216562 C0.332692,2.5471988 0.818567,3.0542161 1.418023,3.0542161 L2.069365,3.0542161 C2.699718,3.0542161 3.215203,2.5518015 3.231389,1.9216562 C3.247048,1.3120206 2.765535,0.8051193 2.155899,0.78946042 C2.14645,0.78921772 2.136998,0.78909635 2.127546,0.78909635 Z" id="path-11"></path>
                </g>
            </g>
            <g id="Path-Copy" transform="translate(109.349998, 6.349999)">
                <g id="path-13-link" fill="#000000">
                    <path d="M2.419546,0.78909635 L1.710023,0.78909635 C1.110567,0.78909635 0.624692,1.2961137 0.624692,1.9216562 C0.624692,2.5471988 1.110567,3.0542161 1.710023,3.0542161 L2.361365,3.0542161 C2.991718,3.0542161 3.507203,2.5518015 3.523389,1.9216562 C3.539048,1.3120206 3.057535,0.8051193 2.447899,0.78946042 C2.43845,0.78921772 2.428998,0.78909635 2.419546,0.78909635 Z" id="path-13"></path>
                </g>
                <g id="path-13-link" fill="url(#linearGradient-4)">
                    <path d="M2.419546,0.78909635 L1.710023,0.78909635 C1.110567,0.78909635 0.624692,1.2961137 0.624692,1.9216562 C0.624692,2.5471988 1.110567,3.0542161 1.710023,3.0542161 L2.361365,3.0542161 C2.991718,3.0542161 3.507203,2.5518015 3.523389,1.9216562 C3.539048,1.3120206 3.057535,0.8051193 2.447899,0.78946042 C2.43845,0.78921772 2.428998,0.78909635 2.419546,0.78909635 Z" id="path-13"></path>
                </g>
            </g>
            <g id="Group-6" transform="translate(54.670126, 45.196265) rotate(-90.000000) translate(-54.670126, -45.196265) translate(45.170126, 39.196265)" fill="#17D2A5">
                <path d="M0.597564494,3.48059118 C-0.198820921,2.68472492 -0.19924178,1.39394991 0.596624479,0.597564494 C1.39249074,-0.198820921 2.68326575,-0.19924178 3.47965117,0.596624479 L10.6147786,7.72710056 C11.411164,8.52296682 11.4115848,9.81374184 10.6157186,10.6101272 C9.81985233,11.4065127 8.52907731,11.4069335 7.7326919,10.6110673 L0.597564494,3.48059118 Z" id="Stroke-354"></path>
                <path d="M10.6147786,10.6110673 C9.81839316,11.4069335 8.52761814,11.4065127 7.73175188,10.6101272 C6.93588562,9.81374184 6.93630648,8.52296682 7.7326919,7.72710056 L14.8678193,0.596624479 C15.6642047,-0.19924178 16.9549797,-0.198820921 17.750846,0.597564494 C18.5467122,1.39394991 18.5462914,2.68472492 17.749906,3.48059118 L10.6147786,10.6110673 Z" id="Stroke-355"></path>
            </g>
            <path d="M66.1796793,51.9717873 L76.5969919,51.9717873" id="Line-4" stroke="#17D2A5" stroke-width="4.7567516" stroke-linecap="round"></path>
        </g>
    </g>
</svg>