<?xml version="1.0" encoding="UTF-8"?>
<svg width="145px" height="129px" viewBox="0 0 145 129" version="1.1" xmlns="http://www.w3.org/2000/svg" xmlns:xlink="http://www.w3.org/1999/xlink">
    <!-- Generator: Sketch 52.4 (67378) - http://www.bohemiancoding.com/sketch -->
    <title>Artboard</title>
    <desc>Created with Sketch.</desc>
    <defs>
        <linearGradient x1="26.5581273%" y1="17.4957541%" x2="102.230061%" y2="101.474185%" id="linearGradient-1">
            <stop stop-color="#05062C" offset="0%"></stop>
            <stop stop-color="#05062C" stop-opacity="0" offset="100%"></stop>
        </linearGradient>
        <linearGradient x1="1.24740997%" y1="2.57564706%" x2="94.6544034%" y2="98.2282596%" id="linearGradient-2">
            <stop stop-color="#83C3F7" offset="0%"></stop>
            <stop stop-color="#1B58E4" offset="100%"></stop>
        </linearGradient>
        <linearGradient x1="41.7999985%" y1="15.7563469%" x2="165.307675%" y2="168.582587%" id="linearGradient-3">
            <stop stop-color="#181E5E" offset="0%"></stop>
            <stop stop-color="#3C7CEA" offset="100%"></stop>
        </linearGradient>
        <linearGradient x1="-160.694281%" y1="13.9803579%" x2="169.365419%" y2="73.0852061%" id="linearGradient-4">
            <stop stop-color="#7CBCF6" offset="0%"></stop>
            <stop stop-color="#3C7CEA" offset="100%"></stop>
        </linearGradient>
    </defs>
    <g id="Artboard" stroke="none" stroke-width="1" fill="none" fill-rule="evenodd">
        <g id="Personal-multisig" transform="translate(1.000000, 0.000000)">
            <g id="Group-10-Copy" transform="translate(22.086874, 0.944996)">
                <g id="Rectangle-Copy-3" opacity="0.298758371" transform="translate(19.000000, 40.000000)">
                    <g id="path-2-link" fill="#3774E8">
                        <rect id="path-2" x="0.5313473" y="0.8607329" width="102.46421" height="86.2198843" rx="14.5965608"></rect>
                    </g>
                    <g id="path-2-link" fill="url(#linearGradient-1)">
                        <rect id="path-2" x="0.5313473" y="0.8607329" width="102.46421" height="86.2198843" rx="14.5965608"></rect>
                    </g>
                </g>
                <g id="Rectangle" opacity="0.298758371" transform="translate(10.000000, 31.000000)">
                    <g id="path-3-link" fill="#3774E8">
                        <rect id="path-3" x="0.2264237" y="0.5558092" width="102.46421" height="86.2198843" rx="14.5965608"></rect>
                    </g>
                    <g id="path-3-link" fill="url(#linearGradient-1)">
                        <rect id="path-3" x="0.2264237" y="0.5558092" width="102.46421" height="86.2198843" rx="14.5965608"></rect>
                    </g>
                </g>
                <g id="wallet-2">
                    <g id="Shape">
                        <g id="path-5-link" fill="#000000" fill-rule="nonzero">
                            <path d="M106.525574,50.8343306 L101.362772,50.8343306 L101.362772,26.7501087 C101.362772,20.9761389 96.7308062,16.2788211 91.0371675,16.2788211 L84.0447146,16.2788211 L76.8890262,3.23158518 C75.7984337,1.23762837 73.7229659,0 71.4720523,0 C70.4229112,0 69.3821247,0.2743768 68.4631221,0.79152167 L41.0010112,16.2784953 L10.3256046,16.2784953 C4.63196584,16.2784953 0,20.9758131 0,26.7497828 L0,98.6524716 C0,104.426441 4.63196584,109.123759 10.3256046,109.123759 L91.0371675,109.123759 C96.7308062,109.123759 101.362772,104.426441 101.362772,98.6524716 L101.362772,77.5358856 L106.525574,77.5358856 L106.525574,50.8343306 Z M91.0371675,20.4671406 C94.2173663,20.4671406 96.8153159,22.9173059 97.1642798,26.0524356 L89.4035279,26.0524356 L86.3428637,20.4671406 L91.0371675,20.4671406 Z M70.4723959,4.45226866 C71.4408833,3.90155988 72.744196,4.28673017 73.2788885,5.26497144 L84.6783765,26.0504804 L32.1705532,26.0504804 L70.4723959,4.45226866 Z M97.2324017,98.6524716 C97.2324017,102.116397 94.4525795,104.93544 91.0368461,104.93544 L10.3256046,104.93544 C6.9098712,104.93544 4.13004904,102.116397 4.13004904,98.6524716 L4.13004904,26.7501087 C4.13004904,23.286183 6.9098712,20.4671406 10.3256046,20.4671406 L33.5747634,20.4671406 L23.6704219,26.0527614 L11.6163855,26.0527614 C10.4743802,26.0527614 9.55120031,26.9909215 9.55120031,28.1470841 C9.55120031,29.3032467 10.4743802,30.2414068 11.6163855,30.2414068 L16.2422461,30.2414068 L91.7000704,30.2414068 L97.2324017,30.2414068 L97.2324017,50.8362858 L82.130233,50.8362858 C75.1168936,50.8362858 69.4091164,56.6249194 69.4091164,63.7368833 L69.4091164,64.6375692 C69.4091164,71.749859 75.117215,77.5381667 82.130233,77.5381667 L97.2324017,77.5381667 L97.2324017,98.6524716 Z M102.395204,73.3475662 L101.362772,73.3475662 L82.130233,73.3475662 C77.392871,73.3475662 73.5391654,69.4398149 73.5391654,64.6352881 L73.5391654,63.7346023 C73.5391654,58.9304014 77.3925497,55.0223242 82.130233,55.0223242 L101.362772,55.0223242 L102.395204,55.0223242 L102.395204,73.3475662 Z M88.4556057,64.357001 C88.4556057,66.9120942 86.4151629,68.9809995 83.895939,68.9809995 C81.3763938,68.9809995 79.3362723,66.9117683 79.3362723,64.357001 C79.3362723,61.8022336 81.3767151,59.7330024 83.895939,59.7330024 C86.4154842,59.7326765 88.4556057,61.8038629 88.4556057,64.357001 Z" id="path-5"></path>
                        </g>
                        <g id="path-5-link" fill="url(#linearGradient-2)">
                            <path d="M106.525574,50.8343306 L101.362772,50.8343306 L101.362772,26.7501087 C101.362772,20.9761389 96.7308062,16.2788211 91.0371675,16.2788211 L84.0447146,16.2788211 L76.8890262,3.23158518 C75.7984337,1.23762837 73.7229659,0 71.4720523,0 C70.4229112,0 69.3821247,0.2743768 68.4631221,0.79152167 L41.0010112,16.2784953 L10.3256046,16.2784953 C4.63196584,16.2784953 0,20.9758131 0,26.7497828 L0,98.6524716 C0,104.426441 4.63196584,109.123759 10.3256046,109.123759 L91.0371675,109.123759 C96.7308062,109.123759 101.362772,104.426441 101.362772,98.6524716 L101.362772,77.5358856 L106.525574,77.5358856 L106.525574,50.8343306 Z M91.0371675,20.4671406 C94.2173663,20.4671406 96.8153159,22.9173059 97.1642798,26.0524356 L89.4035279,26.0524356 L86.3428637,20.4671406 L91.0371675,20.4671406 Z M70.4723959,4.45226866 C71.4408833,3.90155988 72.744196,4.28673017 73.2788885,5.26497144 L84.6783765,26.0504804 L32.1705532,26.0504804 L70.4723959,4.45226866 Z M97.2324017,98.6524716 C97.2324017,102.116397 94.4525795,104.93544 91.0368461,104.93544 L10.3256046,104.93544 C6.9098712,104.93544 4.13004904,102.116397 4.13004904,98.6524716 L4.13004904,26.7501087 C4.13004904,23.286183 6.9098712,20.4671406 10.3256046,20.4671406 L33.5747634,20.4671406 L23.6704219,26.0527614 L11.6163855,26.0527614 C10.4743802,26.0527614 9.55120031,26.9909215 9.55120031,28.1470841 C9.55120031,29.3032467 10.4743802,30.2414068 11.6163855,30.2414068 L16.2422461,30.2414068 L91.7000704,30.2414068 L97.2324017,30.2414068 L97.2324017,50.8362858 L82.130233,50.8362858 C75.1168936,50.8362858 69.4091164,56.6249194 69.4091164,63.7368833 L69.4091164,64.6375692 C69.4091164,71.749859 75.117215,77.5381667 82.130233,77.5381667 L97.2324017,77.5381667 L97.2324017,98.6524716 Z M102.395204,73.3475662 L101.362772,73.3475662 L82.130233,73.3475662 C77.392871,73.3475662 73.5391654,69.4398149 73.5391654,64.6352881 L73.5391654,63.7346023 C73.5391654,58.9304014 77.3925497,55.0223242 82.130233,55.0223242 L101.362772,55.0223242 L102.395204,55.0223242 L102.395204,73.3475662 Z M88.4556057,64.357001 C88.4556057,66.9120942 86.4151629,68.9809995 83.895939,68.9809995 C81.3763938,68.9809995 79.3362723,66.9117683 79.3362723,64.357001 C79.3362723,61.8022336 81.3767151,59.7330024 83.895939,59.7330024 C86.4154842,59.7326765 88.4556057,61.8038629 88.4556057,64.357001 Z" id="path-5"></path>
                        </g>
                    </g>
                </g>
            </g>
            <g id="Group-4" transform="translate(0.998749, 57.167673)">
                <rect id="Rectangle" stroke="url(#linearGradient-4)" stroke-width="4.37896812" fill="url(#linearGradient-3)" x="0.44387597" y="0.49167947" width="68.6038339" height="68.6038339" rx="34.3019169"></rect>
                <g id="Group-8-Copy" transform="translate(21.740258, 16.504107)" fill="#17D2A5" fill-rule="nonzero">
                    <path d="M13.0055346,17.7348199 C17.5690585,17.7348199 21.2817839,14.1185289 21.2817839,9.67353815 L21.2817839,8.06128179 C21.2817839,3.61629101 17.5690585,0 13.0055346,0 C8.44201076,0 4.72928532,3.61629101 4.72928532,8.06128179 L4.72928532,9.67353815 C4.72928532,14.1185289 8.44201076,17.7348199 13.0055346,17.7348199 Z M8.03978504,8.06128179 C8.03978504,5.39420671 10.2673375,3.22451272 13.0055346,3.22451272 C15.7437317,3.22451272 17.9712842,5.39420671 17.9712842,8.06128179 L17.9712842,9.67353815 C17.9712842,12.3406132 15.7437317,14.5103072 13.0055346,14.5103072 C10.2673375,14.5103072 8.03978504,12.3406132 8.03978504,9.67353815 L8.03978504,8.06128179 Z" id="Shape"></path>
                    <path d="M19.5230857,17.7348199 L18.143269,17.7348199 C17.5787431,17.7348199 17.0546566,18.0288514 16.7587783,18.5116261 C15.8105862,20.0589129 14.442759,20.9461084 13.0056362,20.9461084 C11.5685134,20.9461084 10.2006863,20.0589129 9.25249411,18.5118301 C8.95661589,18.0290554 8.43252939,17.735024 7.86800349,17.735024 L6.48818677,17.735024 C2.83421263,17.7348199 0,21.2160623 0,24.2108571 L0,27.74658 C0,29.3973186 1.3375484,30.7403546 2.98154211,30.7403546 L23.0364364,30.7403546 C24.676569,30.7403546 26.0110692,29.4003793 26.0110692,27.7533135 L26.0110692,24.2108571 C26.0110692,22.7898752 25.3518461,21.1995345 24.2475863,19.9570936 C22.97405,18.5240729 21.2961197,17.7348199 19.5230857,17.7348199 Z M22.7598634,27.4756058 L3.25140906,27.4756058 L3.25140906,24.2108571 C3.25140906,23.1081882 4.51193971,20.9995687 6.48818677,20.9995687 L7.01003793,20.9995687 C8.54836084,23.0520754 10.6914458,24.2108571 13.0056362,24.2108571 C15.3198266,24.2108571 17.4629116,23.0520754 19.0010313,20.9995687 L19.5228825,20.9995687 C21.4991295,20.9995687 22.7596602,23.1081882 22.7596602,24.2108571 L22.7596602,27.4756058 L22.7598634,27.4756058 Z" id="Shape"></path>
                </g>
            </g>
        </g>
    </g>
</svg>