<?xml version="1.0" encoding="UTF-8"?>
<svg width="142px" height="127px" viewBox="0 0 142 127" version="1.1" xmlns="http://www.w3.org/2000/svg" xmlns:xlink="http://www.w3.org/1999/xlink">
    <!-- Generator: Sketch 53.2 (72643) - https://sketchapp.com -->
    <title>Group 37</title>
    <desc>Created with Sketch.</desc>
    <defs>
        <linearGradient x1="26.5581273%" y1="20.7713009%" x2="102.230061%" y2="96.2869825%" id="linearGradient-1">
            <stop stop-color="#05062C" offset="0%"></stop>
            <stop stop-color="#05062C" stop-opacity="0" offset="100%"></stop>
        </linearGradient>
        <rect id="path-2" x="8" y="7" width="116" height="110" rx="9"></rect>
        <rect id="path-3" x="18" y="17" width="116" height="110" rx="9"></rect>
        <linearGradient x1="100%" y1="42.9343787%" x2="0%" y2="72.7519322%" id="linearGradient-4">
            <stop stop-color="#83C3F7" offset="0%"></stop>
            <stop stop-color="#1B58E4" offset="100%"></stop>
        </linearGradient>
        <linearGradient x1="100%" y1="41.2097818%" x2="0%" y2="78.3052885%" id="linearGradient-5">
            <stop stop-color="#83C3F7" offset="0%"></stop>
            <stop stop-color="#1B58E4" offset="100%"></stop>
        </linearGradient>
        <linearGradient x1="100%" y1="44.8596994%" x2="0%" y2="66.5522275%" id="linearGradient-6">
            <stop stop-color="#83C3F7" offset="0%"></stop>
            <stop stop-color="#1B58E4" offset="100%"></stop>
        </linearGradient>
        <linearGradient x1="100%" y1="47.5251197%" x2="0%" y2="57.9693357%" id="linearGradient-7">
            <stop stop-color="#83C3F7" offset="0%"></stop>
            <stop stop-color="#1B58E4" offset="100%"></stop>
        </linearGradient>
        <linearGradient x1="100%" y1="-321.386719%" x2="0%" y2="1245.89844%" id="linearGradient-8">
            <stop stop-color="#83C3F7" offset="0%"></stop>
            <stop stop-color="#1B58E4" offset="100%"></stop>
        </linearGradient>
        <circle id="path-9" cx="26.5" cy="43.5" r="2.5"></circle>
        <filter x="-1560.0%" y="-1440.0%" width="3220.0%" height="3220.0%" filterUnits="objectBoundingBox" id="filter-10">
            <feOffset dx="0" dy="6" in="SourceAlpha" result="shadowOffsetOuter1"></feOffset>
            <feGaussianBlur stdDeviation="25" in="shadowOffsetOuter1" result="shadowBlurOuter1"></feGaussianBlur>
            <feColorMatrix values="0 0 0 0 0.121568627   0 0 0 0 0.360784314   0 0 0 0 0.898039216  0 0 0 1 0" type="matrix" in="shadowBlurOuter1"></feColorMatrix>
        </filter>
        <circle id="path-11" cx="26.5" cy="52.5" r="2.5"></circle>
        <filter x="-1560.0%" y="-1440.0%" width="3220.0%" height="3220.0%" filterUnits="objectBoundingBox" id="filter-12">
            <feOffset dx="0" dy="6" in="SourceAlpha" result="shadowOffsetOuter1"></feOffset>
            <feGaussianBlur stdDeviation="25" in="shadowOffsetOuter1" result="shadowBlurOuter1"></feGaussianBlur>
            <feColorMatrix values="0 0 0 0 0.121568627   0 0 0 0 0.360784314   0 0 0 0 0.898039216  0 0 0 1 0" type="matrix" in="shadowBlurOuter1"></feColorMatrix>
        </filter>
        <circle id="path-13" cx="26.5" cy="62.5" r="2.5"></circle>
        <filter x="-1560.0%" y="-1440.0%" width="3220.0%" height="3220.0%" filterUnits="objectBoundingBox" id="filter-14">
            <feOffset dx="0" dy="6" in="SourceAlpha" result="shadowOffsetOuter1"></feOffset>
            <feGaussianBlur stdDeviation="25" in="shadowOffsetOuter1" result="shadowBlurOuter1"></feGaussianBlur>
            <feColorMatrix values="0 0 0 0 0.121568627   0 0 0 0 0.360784314   0 0 0 0 0.898039216  0 0 0 1 0" type="matrix" in="shadowBlurOuter1"></feColorMatrix>
        </filter>
        <linearGradient x1="100%" y1="3.44721453%" x2="0%" y2="96.5527855%" id="linearGradient-15">
            <stop stop-color="#83C3F7" offset="0%"></stop>
            <stop stop-color="#1B58E4" offset="100%"></stop>
        </linearGradient>
    </defs>
    <g id="Page-1" stroke="none" stroke-width="1" fill="none" fill-rule="evenodd">
        <g id="Desktop" transform="translate(-1036.000000, -840.000000)">
            <g id="Group-35" transform="translate(415.000000, 806.000000)">
                <g id="Group-37" transform="translate(629.000000, 34.000000)">
                    <g id="Rectangle-Copy-2" opacity="0.298758371">
                        <use fill="#3774E8" xlink:href="#path-2"></use>
                        <use fill="url(#linearGradient-1)" xlink:href="#path-2"></use>
                    </g>
                    <g id="Rectangle" opacity="0.298758371">
                        <use fill="#3774E8" xlink:href="#path-3"></use>
                        <use fill="url(#linearGradient-1)" xlink:href="#path-3"></use>
                    </g>
                    <path d="M84.1259178,27 L56.8740822,27 C56.3913036,27 56,27.8953475 56,29 C56,30.1046525 56.3913036,31 56.8740822,31 L84.1259178,31 C84.6086964,31 85,30.1046525 85,29 C85,27.8953475 84.6086964,27 84.1259178,27 Z" id="Path" fill="url(#linearGradient-4)"></path>
                    <path d="M81.2163401,81 L56.7836599,81 C56.3508239,81 56,81.8953475 56,83 C56,84.1046525 56.3508239,85 56.7836599,85 L81.2163401,85 C81.6491761,85 82,84.1046525 82,83 C82,81.8953475 81.6491761,81 81.2163401,81 Z" id="Path" fill="url(#linearGradient-5)"></path>
                    <path d="M89.4526711,14 L56.5473289,14 C56.2450248,14 56,14.8953475 56,16 C56,17.1046525 56.2450248,18 56.5473289,18 L89.4526711,18 C89.7549752,18 90,17.1046525 90,16 C90,14.8953475 89.7549752,14 89.4526711,14 Z" id="Path" fill="url(#linearGradient-6)"></path>
                    <path d="M104.211202,92 L56.7887975,92 C56.3531239,92 56,92.8953475 56,94 C56,95.1046525 56.3531239,96 56.7887975,96 L104.211202,96 C104.646876,96 105,95.1046525 105,94 C105,92.8953475 104.646876,92 104.211202,92 Z" id="Path" fill="url(#linearGradient-7)"></path>
                    <path d="M29,33 L24.5345912,33 L24.5345912,19.38 L19,19.38 L19,16.17 C19.7756852,16.1900001 20.5251536,16.1350007 21.2484277,16.005 C21.9717017,15.8749994 22.6215904,15.6450017 23.1981132,15.315 C23.774636,14.9849984 24.2620525,14.5500027 24.6603774,14.01 C25.0587022,13.4699973 25.3207541,12.800004 25.4465409,12 L29,12 L29,33 Z" id="1" fill="#18DAA2"></path>
                    <g id="Oval-Copy-3">
                        <use fill="black" fill-opacity="1" filter="url(#filter-10)" xlink:href="#path-9"></use>
                        <use fill="url(#linearGradient-8)" fill-rule="evenodd" xlink:href="#path-9"></use>
                    </g>
                    <g id="Oval-Copy-4">
                        <use fill="black" fill-opacity="1" filter="url(#filter-12)" xlink:href="#path-11"></use>
                        <use fill="url(#linearGradient-8)" fill-rule="evenodd" xlink:href="#path-11"></use>
                    </g>
                    <g id="Oval-Copy-5">
                        <use fill="black" fill-opacity="1" filter="url(#filter-14)" xlink:href="#path-13"></use>
                        <use fill="url(#linearGradient-8)" fill-rule="evenodd" xlink:href="#path-13"></use>
                    </g>
                    <path d="M22.8579179,97 L18.4559545,97 L18.4559545,83.38 L13,83.38 L13,80.17 C13.7646641,80.1900001 14.5034839,80.1350007 15.2164815,80.005 C15.9294792,79.8749994 16.5701341,79.6450017 17.1384655,79.315 C17.706797,78.9849983 18.1872881,78.5500027 18.5799535,78.01 C18.9726189,77.4699973 19.2309475,76.800004 19.354947,76 L22.8579179,76 L22.8579179,97 Z M43,79.66 C41.8633371,80.6200048 40.8558556,81.799993 39.9775252,83.2 C39.0991948,84.600007 38.3655416,86.0899921 37.7765435,87.67 C37.1875455,89.2500079 36.7328872,90.8499919 36.4125549,92.47 C36.0922226,94.0900081 35.9217258,95.599993 35.9010592,97 L31.1890984,97 C31.4370976,93.8599843 32.1965837,90.8400145 33.4675794,87.94 C34.7385752,85.0399855 36.4073779,82.3800121 38.4740377,79.96 L28.1821235,79.96 L28.1821235,76 L43,76 L43,79.66 Z" id="17" fill="#18DAA2"></path>
                    <path d="M7.8,2.86956522 C5.1490332,2.86956522 3,4.88449391 3,7.37003441 L3,102.629966 C3,105.115506 5.1490332,107.130435 7.8,107.130435 L106.2,107.130435 C108.850967,107.130435 111,105.115506 111,102.629966 L111,7.37003441 C111,4.88449391 108.850967,2.86956522 106.2,2.86956522 L7.8,2.86956522 Z M7.97202797,0 L106.027972,1.32924661e-15 C110.430802,5.70074037e-16 114,3.35025017 114,7.4829932 L114,102.517007 C114,106.64975 110.430802,110 106.027972,110 L7.97202797,110 C3.5691985,110 5.39191102e-16,106.64975 0,102.517007 L0,7.4829932 C-5.39191102e-16,3.35025017 3.5691985,7.59172578e-16 7.97202797,0 Z" id="Rectangle" fill="url(#linearGradient-15)" transform="translate(57.000000, 55.000000) scale(-1, 1) translate(-57.000000, -55.000000) "></path>
                </g>
            </g>
        </g>
    </g>
</svg>