<?xml version="1.0" encoding="UTF-8"?>
<svg width="176px" height="141px" viewBox="0 0 176 141" version="1.1" xmlns="http://www.w3.org/2000/svg" xmlns:xlink="http://www.w3.org/1999/xlink">
    <!-- Generator: Sketch 53.2 (72643) - https://sketchapp.com -->
    <title>Group 15</title>
    <desc>Created with Sketch.</desc>
    <defs>
        <linearGradient x1="-8.55490331%" y1="9.91577917%" x2="100%" y2="87.169935%" id="linearGradient-1">
            <stop stop-color="#83C3F7" offset="0%"></stop>
            <stop stop-color="#1B58E4" offset="100%"></stop>
        </linearGradient>
        <linearGradient x1="0%" y1="0.00204570395%" x2="100%" y2="99.9979543%" id="linearGradient-2">
            <stop stop-color="#7CFFE9" offset="0%"></stop>
            <stop stop-color="#18DAA2" offset="100%"></stop>
        </linearGradient>
        <linearGradient x1="25.604463%" y1="0%" x2="74.395537%" y2="100%" id="linearGradient-3">
            <stop stop-color="#7CFFE9" offset="0%"></stop>
            <stop stop-color="#18DAA2" offset="100%"></stop>
        </linearGradient>
        <linearGradient x1="-8.55490331%" y1="36.5991593%" x2="100%" y2="62.4265451%" id="linearGradient-4">
            <stop stop-color="#83C3F7" offset="0%"></stop>
            <stop stop-color="#1B58E4" offset="100%"></stop>
        </linearGradient>
    </defs>
    <g id="Page-1" stroke="none" stroke-width="1" fill="none" fill-rule="evenodd">
        <g id="Desktop" transform="translate(-562.000000, -4727.000000)">
            <g id="Group-16" transform="translate(185.000000, 4577.000000)">
                <g id="Group-15" transform="translate(377.000000, 150.000000)">
                    <path d="M5,108.460669 L139.926408,108.460669 C142.687831,108.460669 144.926408,106.222093 144.926408,103.460669 L144.926408,5 C144.926408,2.23857625 142.687831,-5.07265313e-16 139.926408,0 L5,0 C2.23857625,5.07265313e-16 -3.38176876e-16,2.23857625 0,5 L-8.8817842e-16,103.460669 C-5.50001544e-16,106.222093 2.23857625,108.460669 5,108.460669 Z" id="Fill-520" fill="url(#linearGradient-1)"></path>
                    <polygon id="Fill-521" fill="#FFFFFF" opacity="0.229999989" points="5.85715924 92.4018153 137.571032 92.4018153 137.571032 12.6597452 5.85715924 12.6597452"></polygon>
                    <path d="M83.0419873,69.5454777 L81.352242,67.6448089 L79.8522102,69.1813694 L79.8522102,60.2754459 L80.2740573,60.0409554 L80.2174968,60.0279936 C85.2938025,57.2506369 89.2011911,51.6782484 90.7483567,44.8344268 C90.9215732,44.9546178 91.1101083,45.0323885 91.3116051,45.0618471 C92.6584522,45.2598089 94.0736433,43.2083121 94.4731019,40.4816242 C94.8725605,37.753758 94.1042803,35.3829299 92.7586115,35.1849682 C90.6658726,20.6819108 83.0207771,20.326051 83.0207771,20.326051 C83.0207771,20.326051 79.8522102,11.2433758 64.8541306,15.6798408 C51.2892707,19.6921019 51.5485064,33.207707 51.7219586,35.7541083 C51.179449,36.6791083 50.9110223,38.2427707 51.079172,39.977293 C51.340293,42.6698089 52.5530446,44.7554777 53.7874777,44.6352866 C54.1849331,44.5975796 54.5360796,44.3348089 54.8213567,43.9082484 C56.2069713,51.1350318 60.2025,57.0597452 65.4643949,59.9761465 L65.4676943,68.2893631 L65.4889045,68.2764013 L65.4889045,68.909172 L64.2213599,67.6448089 L62.530672,69.5454777 L62.6815,69.8883758 C59.4335127,70.5918471 45.791,74.5781847 43.5704108,92.2474522 L101.858962,92.2474522 C100.932783,87.9512102 96.6777834,72.4512739 83.0419873,69.5454777" id="Fill-529" fill="#EEEDED" opacity="0.300000012"></path>
                    <path d="M72.7149809,32.9673248 C61.5810446,32.9673248 52.5550478,41.9934395 52.5550478,53.1264331 C52.5550478,64.2606051 61.5810446,73.2867197 72.7149809,73.2867197 C83.8491529,73.2867197 92.8752675,64.2606051 92.8752675,53.1264331 C92.8752675,41.9934395 83.8491529,32.9673248 72.7149809,32.9673248 Z M72.7149809,35.239172 C75.130586,35.239172 77.4731338,35.7116879 79.6778153,36.643758 C80.7371465,37.0915287 81.7587707,37.6465287 82.715586,38.2922611 C83.6629745,38.9332803 84.5538025,39.6685669 85.3645032,40.4780892 C86.1740255,41.2887898 86.9093121,42.1796178 87.5503312,43.1270064 C88.1960637,44.0838217 88.7510637,45.1054459 89.1988344,46.1647771 C90.1309045,48.3682803 90.6034204,50.710828 90.6034204,53.1264331 C90.6034204,55.5420382 90.1309045,57.884586 89.1988344,60.0892675 C88.7510637,61.1485987 88.1960637,62.1702229 87.5503312,63.1270382 C86.9093121,64.0744268 86.1740255,64.9652548 85.3645032,65.7759554 C84.5538025,66.5854777 83.6629745,67.3219427 82.715586,67.9617834 C81.7587707,68.6075159 80.7371465,69.1625159 79.6778153,69.6102866 C77.4731338,70.5423567 75.130586,71.0148726 72.7149809,71.0148726 C70.2990223,71.0148726 67.9565924,70.5423567 65.7526178,69.6102866 C64.6931688,69.1625159 63.6710732,68.6075159 62.714965,67.9617834 C61.7671051,67.3219427 60.8759236,66.5854777 60.0658121,65.7759554 C59.2558185,64.9652548 58.520414,64.0744268 57.8801019,63.1270382 C57.2340159,62.1702229 56.6792516,61.1485987 56.2312452,60.0892675 C55.2990573,57.884586 54.8263057,55.5420382 54.8263057,53.1264331 C54.8263057,50.710828 55.2990573,48.3682803 56.2312452,46.1647771 C56.6792516,45.1054459 57.2340159,44.0838217 57.8801019,43.1270064 C58.520414,42.1796178 59.2558185,41.2887898 60.0658121,40.4780892 C60.8759236,39.6685669 61.7671051,38.9332803 62.7148471,38.2922611 C63.6710732,37.6465287 64.6931688,37.0915287 65.7526178,36.643758 C67.9565924,35.7116879 70.2990223,35.239172 72.7149809,35.239172 L72.7149809,35.239172 Z" id="Fill-530" fill="url(#linearGradient-2)"></path>
                    <polyline id="Fill-531" fill="url(#linearGradient-3)" points="67.0134459 40.5817834 67.0134459 65.9798089 84.754121 53.2807962 67.0134459 40.5817834"></polyline>
                    <path d="M136.71007,87.7763428 C135.649324,85.5038831 126.256198,67.8123058 119.048923,64.3043313 C112.780152,61.2531515 113.824489,68.056009 113.51707,67.805097 C110.287737,65.1703836 104.844564,66.8523531 106.908404,72.18634 C106.908404,72.18634 105.872756,70.8734952 104.834507,70.4190333 C102.713398,69.4905817 100.458134,71.872444 100.168171,72.9230621 C99.731054,74.5068615 100.885628,76.3427043 100.647628,76.0880528 C92.5400657,67.4132362 79.1594227,52.720192 78.5090703,52.1796321 C77.9904037,51.7487586 77.5190703,51.4422333 77.2110703,51.4268569 C75.4971384,50.0252922 67.5799501,51.9473768 72.6992299,59.0990475 C82.152265,72.3050057 99.3415568,89.9418903 100.401975,92.6482292 C101.226641,94.7517882 102.169171,98.6796336 100.168171,96.7917447 C98.1671712,94.9038559 89.4505984,90.3259667 86.9929317,89.63102 C84.227265,88.8498318 80.3095984,87.6932588 78.0915984,89.5872307 C77.2110703,91.7661714 79.0256659,93.4784433 83.0092988,96.7917447 C86.9929317,100.105046 91.9793533,100.951896 94.6643601,104.037457 C97.349367,107.123019 105.98729,117.485923 114.402137,119.123707 C122.816984,120.761491 131.363737,129.368514 131.363737,129.368514 C131.363737,129.368514 143.866001,127.550782 149.470334,117.485923 C146.184958,112.699207 144.724025,111.328327 143.222737,108.007346 C141.21307,105.752028 137.96107,90.4545114 136.71007,87.7763428 Z" id="Fill-992" fill="#FFFFFF"></path>
                    <path d="M145.054864,140.545746 L113.723876,140.545746 L112.169641,137.545683 C111.559259,136.197657 112.648048,134.388899 114.600564,133.503963 L136.701583,123.491574 L158.802602,113.479186 C160.755118,112.59425 162.832539,112.970141 163.442921,114.316988 L175.657634,140.545746 L145.054864,140.545746 Z" id="Combined-Shape" fill="url(#linearGradient-4)"></path>
                </g>
            </g>
        </g>
    </g>
</svg>