<svg xmlns="http://www.w3.org/2000/svg" width="92" height="87" viewBox="0 0 92 87">
  <defs>
    <linearGradient id="universallogin-logo-a" x1="50%" x2="50%" y1="0%" y2="100%">
      <stop offset="0%" stop-color="#DEEDFF"/>
      <stop offset="100%" stop-color="#B2D4FD"/>
    </linearGradient>
    <linearGradient id="universallogin-logo-b" x1="90.51%" x2="87.171%" y1="0%" y2="64.341%">
      <stop offset="0%" stop-color="#00D6D9"/>
      <stop offset="100%" stop-color="#455CDA"/>
    </linearGradient>
    <linearGradient id="universallogin-logo-c" x1="64.68%" x2="86.637%" y1="0%" y2="33.138%">
      <stop offset="0%" stop-color="#00D6D9"/>
      <stop offset="39.973%" stop-color="#1CEFF5" stop-opacity=".6"/>
      <stop offset="100%" stop-color="#04CFD9" stop-opacity="0"/>
    </linearGradient>
    <linearGradient id="universallogin-logo-d" x1="64.85%" x2="71.949%" y1="50%" y2="59.736%">
      <stop offset="0%" stop-color="#3F66DA" stop-opacity="0"/>
      <stop offset="100%" stop-color="#2E2EAE"/>
    </linearGradient>
    <linearGradient id="universallogin-logo-e" x1="44.043%" x2="68.272%" y1="43.159%" y2="88.249%">
      <stop offset="0%" stop-color="#2D41B3" stop-opacity="0"/>
      <stop offset="100%" stop-color="#141E62"/>
    </linearGradient>
    <linearGradient id="universallogin-logo-f" x1="43.426%" x2="83.697%" y1="20.807%" y2="69.271%">
      <stop offset="0%" stop-color="#3F66DA" stop-opacity="0"/>
      <stop offset="100%" stop-color="#2436C1"/>
    </linearGradient>
    <linearGradient id="universallogin-logo-g" x1="79.308%" x2="84.243%" y1="114.196%" y2="27.718%">
      <stop offset="0%" stop-color="#706AE1"/>
      <stop offset="49.668%" stop-color="#686CFF"/>
      <stop offset="100%" stop-color="#4352ED"/>
    </linearGradient>
    <linearGradient id="universallogin-logo-h" x1="190.663%" y1="0%" y2="118.578%">
      <stop offset="0%" stop-color="#00D6D9"/>
      <stop offset="100%" stop-color="#0FC4DD" stop-opacity="0"/>
    </linearGradient>
    <linearGradient id="universallogin-logo-i" x1="32.768%" x2="50%" y1="50%" y2="79.275%">
      <stop offset="0%" stop-color="#2D41B3" stop-opacity="0"/>
      <stop offset="100%" stop-color="#141E62"/>
    </linearGradient>
    <linearGradient id="universallogin-logo-j" x1="69.976%" x2="38.879%" y1="72.967%" y2="94.862%">
      <stop offset="0%" stop-color="#3F4DDA" stop-opacity="0"/>
      <stop offset="100%" stop-color="#2736A4"/>
    </linearGradient>
    <linearGradient id="universallogin-logo-k" x1="8.731%" x2="75.794%" y1="0%" y2="79.07%">
      <stop offset="0%" stop-color="#00D6D9"/>
      <stop offset="100%" stop-color="#5272EE"/>
    </linearGradient>
    <linearGradient id="universallogin-logo-l" x1="-29.315%" x2="28.807%" y1="24.262%" y2="71.104%">
      <stop offset="0%" stop-color="#00D6D9"/>
      <stop offset="45.46%" stop-color="#66E1EA" stop-opacity=".545"/>
      <stop offset="100%" stop-color="#0FC4DD" stop-opacity="0"/>
    </linearGradient>
    <linearGradient id="universallogin-logo-m" x1="66.556%" x2="98.603%" y1="68.466%" y2="50.771%">
      <stop offset="0%" stop-color="#3F4DDA" stop-opacity="0"/>
      <stop offset="100%" stop-color="#211B9A"/>
    </linearGradient>
    <linearGradient id="universallogin-logo-n" x1="31.865%" x2="65.914%" y1="67.74%" y2="100%">
      <stop offset="0%" stop-color="#5272EE" stop-opacity="0"/>
      <stop offset="72.755%" stop-color="#292AA8" stop-opacity=".84"/>
      <stop offset="100%" stop-color="#211C9B"/>
    </linearGradient>
  </defs>
  <g fill="none" fill-rule="evenodd" transform="translate(0 -.85)">
    <path fill="url(#universallogin-logo-a)" d="M0.729892716,1.35888669 L12.0895994,1.35888669 C24.7921483,1.35888669 35.0895989,11.6563372 35.0895989,24.3588862 L35.0895989,42.5873404 C35.0895989,48.6850911 40.0328025,53.6282948 46.1305532,53.6282948 L46.1305532,53.6282948 C52.228304,53.6282948 57.1715076,48.6850911 57.1715076,42.5873404 L57.1715076,24.3588862 C57.1715076,11.6563372 67.4689581,1.35888669 80.1715071,1.35888669 L91.7232723,1.35888669 L91.7232723,41.8758288 C91.7232723,67.0029568 71.3537105,87.3725186 46.2265825,87.3725186 L46.2265825,87.3725186 C21.0994546,87.3725186 0.729892716,67.0029568 0.729892716,41.8758288 L0.729892716,1.35888669 Z"/>
    <path fill="url(#universallogin-logo-b)" d="M0.729892716,1.35888669 L12.0895994,1.35888669 C24.7921483,1.35888669 35.0895989,11.6563372 35.0895989,24.3588862 L35.0895989,42.5873404 C35.0895989,48.6850911 40.0328025,53.6282948 46.1305532,53.6282948 L46.1305532,53.6282948 C52.228304,53.6282948 57.1715076,48.6850911 57.1715076,42.5873404 L57.1715076,24.3588862 C57.1715076,11.6563372 67.4689581,1.35888669 80.1715071,1.35888669 L91.7232723,1.35888669 L91.7232723,41.8758288 C91.7232723,67.0029568 71.3537105,87.3725186 46.2265825,87.3725186 L46.2265825,87.3725186 C21.0994546,87.3725186 0.729892716,67.0029568 0.729892716,41.8758288 L0.729892716,1.35888669 Z"/>
    <path fill="url(#universallogin-logo-c)" d="M0.729892716,1.35888669 L12.0895994,1.35888669 C24.7921483,1.35888669 35.0895989,11.6563372 35.0895989,24.3588862 L35.0895989,42.5873404 C35.0895989,48.6850911 40.0328025,53.6282948 46.1305532,53.6282948 L46.1305532,53.6282948 C52.228304,53.6282948 57.1715076,48.6850911 57.1715076,42.5873404 L57.1715076,24.3588862 C57.1715076,11.6563372 67.4689581,1.35888669 80.1715071,1.35888669 L91.7232723,1.35888669 L91.7232723,41.8758288 C91.7232723,67.0029568 71.3537105,87.3725186 46.2265825,87.3725186 L46.2265825,87.3725186 C21.0994546,87.3725186 0.729892716,67.0029568 0.729892716,41.8758288 L0.729892716,1.35888669 Z"/>
    <path fill="url(#universallogin-logo-d)" d="M0.729892716,1.35888669 L12.0895994,1.35888669 C24.7921483,1.35888669 35.0895989,11.6563372 35.0895989,24.3588862 L35.0895989,42.5873404 C35.0895989,48.6850911 40.0328025,53.6282948 46.1305532,53.6282948 L46.1305532,53.6282948 C52.228304,53.6282948 57.1715076,48.6850911 57.1715076,42.5873404 L57.1715076,24.3588862 C57.1715076,11.6563372 67.4689581,1.35888669 80.1715071,1.35888669 L91.7232723,1.35888669 L91.7232723,41.8758288 C91.7232723,67.0029568 71.3537105,87.3725186 46.2265825,87.3725186 L46.2265825,87.3725186 C21.0994546,87.3725186 0.729892716,67.0029568 0.729892716,41.8758288 L0.729892716,1.35888669 Z"/>
    <path fill="url(#universallogin-logo-e)" d="M46.9419195,53.6024647 L53.5505238,56.1520618 L64.1428209,55.1839954 L68.9547959,53.6024647 L74.5846298,51.5868764 L80.9085066,46.1954092 L86.0920766,43.5708487 L88.4944073,36.5223259 L89.3504498,30.6457025 L90.6450421,26.4224848 L90.6450421,19.4472408 L91.433421,13.0332395 L91.433421,7.90933821 C89.9121586,18.3749853 89.0198979,20.8873347 87.569859,23.879626 C85.3948007,28.3680628 85.3948007,28.4601527 82.4590041,32.5051873 C79.5232075,36.550222 78.9890802,37.3465019 73.394341,42.1440177 C69.6645149,45.3423615 63.1533231,48.1679474 53.8607655,50.6207753 L52.7647273,51.3888763 C52.0649405,51.8792854 51.3319509,52.3205196 50.5710454,52.7093968 L49.3030202,53.1854283 L47.8237218,53.5103749 L46.9419195,53.6024647 Z"/>
    <path fill="url(#universallogin-logo-f)" d="M0.729892716,1.35888669 L12.0895994,1.35888669 C24.7921483,1.35888669 35.0895989,11.6563372 35.0895989,24.3588862 L35.0895989,42.5873404 C35.0895989,48.6850911 40.0328025,53.6282948 46.1305532,53.6282948 L46.1305532,53.6282948 C52.228304,53.6282948 57.1715076,48.6850911 57.1715076,42.5873404 L57.1715076,24.3588862 C57.1715076,11.6563372 67.4689581,1.35888669 80.1715071,1.35888669 L91.7232723,1.35888669 L91.7232723,41.8758288 C91.7232723,67.0029568 71.3537105,87.3725186 46.2265825,87.3725186 L46.2265825,87.3725186 C21.0994546,87.3725186 0.729892716,67.0029568 0.729892716,41.8758288 L0.729892716,1.35888669 Z"/>
    <path fill="url(#universallogin-logo-g)" d="M0.729892716,1.35888669 L12.0895994,1.35888669 C24.7921483,1.35888669 35.0895989,11.6563372 35.0895989,24.3588862 L35.0895989,42.4913111 C35.0895989,48.6420974 40.0757963,53.6282948 46.2265825,53.6282948 L46.2265825,53.6282948 C53.4571641,53.6282948 60.5873907,51.9360223 67.0468242,48.6868639 L67.5488115,48.4343594 C74.3191432,45.0288161 80.1018529,39.9422275 84.3432384,33.661641 L84.3827573,33.6031219 C88.6362946,27.3045414 91.0392084,19.9398117 91.3188273,12.3446482 L91.7232723,1.35888669 L91.7232723,41.8758288 C91.7232723,67.0029568 71.3537105,87.3725186 46.2265825,87.3725186 L46.2265825,87.3725186 C21.0994546,87.3725186 0.729892716,67.0029568 0.729892716,41.8758288 L0.729892716,1.35888669 Z"/>
    <path fill="url(#universallogin-logo-h)" d="M0.729892716,1.35888669 L12.0895994,1.35888669 C24.7921483,1.35888669 35.0895989,11.6563372 35.0895989,24.3588862 L35.0895989,42.4913111 C35.0895989,48.6420974 40.0757963,53.6282948 46.2265825,53.6282948 L46.2265825,53.6282948 C53.4571641,53.6282948 60.5873907,51.9360223 67.0468242,48.6868639 L67.5488115,48.4343594 C74.3191432,45.0288161 80.1018529,39.9422275 84.3432384,33.661641 L84.3827573,33.6031219 C88.6362946,27.3045414 91.0392084,19.9398117 91.3188273,12.3446482 L91.7232723,1.35888669 L91.7232723,41.8758288 C91.7232723,67.0029568 71.3537105,87.3725186 46.2265825,87.3725186 L46.2265825,87.3725186 C21.0994546,87.3725186 0.729892716,67.0029568 0.729892716,41.8758288 L0.729892716,1.35888669 Z"/>
    <path fill="url(#universallogin-logo-i)" d="M18.8286263,78.4587442 L25.0613035,76.3164666 L35.4406756,72.4444332 L40.4655756,73.7668694 L46.0954095,71.7512811 L52.4192863,66.3598139 L57.6028563,63.7352534 L60.005187,56.6867306 L60.8612295,50.8101072 L60.216386,47.200416 L59.742478,46.2703192 C59.8437729,49.344825 59.492687,51.5090137 58.6892202,52.7628852 C57.8857533,54.0167567 56.5934551,55.4188522 54.8123256,56.9691718 L29.5948946,69.8180947 L28.8639307,71.3204252 L28.3724214,72.0720839 L28.2245955,72.2672132 C28.0114547,72.5485578 27.7891281,72.8228239 27.5579755,73.0895676 L27.5579755,73.0895676 C27.3269192,73.3562003 27.0820518,73.6105441 26.8243803,73.8515532 L26.786614,73.8868773 C26.5038674,74.1513398 26.2047792,74.3977707 25.8911179,74.6247127 L25.6217971,74.8195733 L24.5037678,75.5671151 L18.8286263,78.4587442 Z" transform="rotate(117 39.845 62.365)"/>
    <path fill="url(#universallogin-logo-j)" d="M0.729892716,1.35888669 L12.0895994,1.35888669 C24.7921483,1.35888669 35.0895989,11.6563372 35.0895989,24.3588862 L35.0895989,42.4913111 C35.0895989,48.6420974 40.0757963,53.6282948 46.2265825,53.6282948 L46.2265825,53.6282948 C53.4571641,53.6282948 60.5873907,51.9360223 67.0468242,48.6868639 L67.5488115,48.4343594 C74.3191432,45.0288161 80.1018529,39.9422275 84.3432384,33.661641 L84.3827573,33.6031219 C88.6362946,27.3045414 91.0392084,19.9398117 91.3188273,12.3446482 L91.7232723,1.35888669 L91.7232723,41.8758288 C91.7232723,67.0029568 71.3537105,87.3725186 46.2265825,87.3725186 L46.2265825,87.3725186 C21.0994546,87.3725186 0.729892716,67.0029568 0.729892716,41.8758288 L0.729892716,1.35888669 Z"/>
    <path fill="url(#universallogin-logo-k)" d="M0.729892716,1.35888669 L12.0895994,1.35888669 C24.7921483,1.35888669 35.0895989,11.6563372 35.0895989,24.3588862 L35.0895989,29.9249872 L35.0895989,76.235535 C35.0895989,82.3863212 40.0757963,87.3725186 46.2265825,87.3725186 L46.2265825,87.3725186 C21.0994546,87.3725186 0.729892716,67.0029568 0.729892716,41.8758288 L0.729892716,1.35888669 Z"/>
    <path fill="url(#universallogin-logo-l)" d="M0.729892716,1.35888669 L12.0895994,1.35888669 C24.7921483,1.35888669 35.0895989,11.6563372 35.0895989,24.3588862 L35.0895989,29.9249872 L35.0895989,76.235535 C35.0895989,82.3863212 40.0757963,87.3725186 46.2265825,87.3725186 L46.2265825,87.3725186 C21.0994546,87.3725186 0.729892716,67.0029568 0.729892716,41.8758288 L0.729892716,1.35888669 Z"/>
    <path fill="url(#universallogin-logo-m)" d="M0.728804764,1.38636624 L12.0885114,1.38636624 C24.7910604,1.38636624 35.0885109,11.6838168 35.0885109,24.3863658 L35.0885109,42.5187907 C35.0885109,48.6695769 40.0747083,53.6557743 46.2254946,53.6557743 L46.2254946,53.6557743 C53.4560762,53.6557743 60.5863028,51.9635019 67.0457362,48.7143435 L67.5477235,48.4618389 C74.3180553,45.0562956 80.1007649,39.969707 84.3421505,33.6891205 L84.3816694,33.6306015 C88.6352066,27.3320209 91.0381204,19.9672913 91.3177393,12.3721278 L91.7221844,1.38636624 L91.7221844,41.9033084 C91.7221844,67.0304363 71.3526225,87.3999982 46.2254946,87.3999982 L46.2254946,87.3999982 C21.0983666,87.3999982 0.728804764,67.0304363 0.728804764,41.9033084 L0.728804764,1.38636624 Z"/>
    <path fill="url(#universallogin-logo-n)" d="M0.729892716,1.35888669 L12.0895994,1.35888669 C24.7921483,1.35888669 35.0895989,11.6563372 35.0895989,24.3588862 L35.0895989,29.9249872 L35.0895989,76.235535 C35.0895989,82.3863212 40.0757963,87.3725186 46.2265825,87.3725186 L46.2265825,87.3725186 C21.0994546,87.3725186 0.729892716,67.0029568 0.729892716,41.8758288 L0.729892716,1.35888669 Z"/>
  </g>
</svg>
