<?xml version="1.0" encoding="UTF-8"?>
<svg width="137px" height="136px" viewBox="0 0 137 136" version="1.1" xmlns="http://www.w3.org/2000/svg" xmlns:xlink="http://www.w3.org/1999/xlink">
    <!-- Generator: Sketch 52.4 (67378) - http://www.bohemiancoding.com/sketch -->
    <title>Artboard</title>
    <desc>Created with Sketch.</desc>
    <defs>
        <linearGradient x1="26.5581273%" y1="17.4957541%" x2="102.230061%" y2="101.474185%" id="linearGradient-1">
            <stop stop-color="#05062C" offset="0%"></stop>
            <stop stop-color="#05062C" stop-opacity="0" offset="100%"></stop>
        </linearGradient>
        <linearGradient x1="100%" y1="-321.386719%" x2="0%" y2="1245.89844%" id="linearGradient-2">
            <stop stop-color="#83C3F7" offset="0%"></stop>
            <stop stop-color="#1B58E4" offset="100%"></stop>
        </linearGradient>
        <linearGradient x1="100%" y1="0%" x2="0%" y2="100%" id="linearGradient-3">
            <stop stop-color="#83C3F7" offset="0%"></stop>
            <stop stop-color="#1B58E4" offset="100%"></stop>
        </linearGradient>
        <linearGradient x1="-11.4155784%" y1="-14.030231%" x2="109.488689%" y2="107.493207%" id="linearGradient-4">
            <stop stop-color="#83C3F7" offset="0%"></stop>
            <stop stop-color="#1B58E4" offset="100%"></stop>
        </linearGradient>
        <linearGradient x1="0.595623394%" y1="0.589783955%" x2="100.97748%" y2="99.9875053%" id="linearGradient-5">
            <stop stop-color="#83C3F7" offset="0%"></stop>
            <stop stop-color="#1B58E4" offset="100%"></stop>
        </linearGradient>
    </defs>
    <g id="Artboard" stroke="none" stroke-width="1" fill="none" fill-rule="evenodd">
        <g id="uability">
            <g id="Group-21">
                <g id="Group-9" transform="translate(0.878906, 0.902734)">
                    <g id="Rectangle-Copy-2" opacity="0.298758371" transform="translate(20.000000, 20.000000)">
                        <g id="path-2-link" fill="#3774E8">
                            <rect id="path-2" x="0" y="0" width="116" height="115" rx="9"></rect>
                        </g>
                        <g id="path-2-link" fill="url(#linearGradient-1)">
                            <rect id="path-2" x="0" y="0" width="116" height="115" rx="9"></rect>
                        </g>
                    </g>
                    <g id="Rectangle" opacity="0.298758371" transform="translate(10.000000, 10.000000)">
                        <g id="path-3-link" fill="#3774E8">
                            <rect id="path-3" x="0" y="0" width="116" height="115" rx="9"></rect>
                        </g>
                        <g id="path-3-link" fill="url(#linearGradient-1)">
                            <rect id="path-3" x="0" y="0" width="116" height="115" rx="9"></rect>
                        </g>
                    </g>
                    <g id="Path" transform="translate(14.000000, 37.000000)">
                        <g id="path-5-link" fill="#000000">
                            <path d="M45.5833841,0 L1.4166159,0 C0.6341818,0 0,0.8953475 0,2 C0,3.1046525 0.6341818,4 1.4166159,4 L45.5833841,4 C46.3658182,4 47,3.1046525 47,2 C47,0.8953475 46.3658182,0 45.5833841,0 Z" id="path-5"></path>
                        </g>
                        <g id="path-5-link" fill="url(#linearGradient-2)">
                            <path d="M45.5833841,0 L1.4166159,0 C0.6341818,0 0,0.8953475 0,2 C0,3.1046525 0.6341818,4 1.4166159,4 L45.5833841,4 C46.3658182,4 47,3.1046525 47,2 C47,0.8953475 46.3658182,0 45.5833841,0 Z" id="path-5"></path>
                        </g>
                    </g>
                    <g id="Path" transform="translate(14.000000, 50.000000)">
                        <g id="path-7-link" fill="#000000">
                            <path d="M45.5833841,0 L1.4166159,0 C0.6341818,0 0,0.8953475 0,2 C0,3.1046525 0.6341818,4 1.4166159,4 L45.5833841,4 C46.3658182,4 47,3.1046525 47,2 C47,0.8953475 46.3658182,0 45.5833841,0 Z" id="path-7"></path>
                        </g>
                        <g id="path-7-link" fill="url(#linearGradient-2)">
                            <path d="M45.5833841,0 L1.4166159,0 C0.6341818,0 0,0.8953475 0,2 C0,3.1046525 0.6341818,4 1.4166159,4 L45.5833841,4 C46.3658182,4 47,3.1046525 47,2 C47,0.8953475 46.3658182,0 45.5833841,0 Z" id="path-7"></path>
                        </g>
                    </g>
                    <g id="Path" transform="translate(14.000000, 63.000000)">
                        <g id="path-9-link" fill="#000000">
                            <path d="M45.5833841,0 L1.4166159,0 C0.6341818,0 0,0.8953475 0,2 C0,3.1046525 0.6341818,4 1.4166159,4 L45.5833841,4 C46.3658182,4 47,3.1046525 47,2 C47,0.8953475 46.3658182,0 45.5833841,0 Z" id="path-9"></path>
                        </g>
                        <g id="path-9-link" fill="url(#linearGradient-2)">
                            <path d="M45.5833841,0 L1.4166159,0 C0.6341818,0 0,0.8953475 0,2 C0,3.1046525 0.6341818,4 1.4166159,4 L45.5833841,4 C46.3658182,4 47,3.1046525 47,2 C47,0.8953475 46.3658182,0 45.5833841,0 Z" id="path-9"></path>
                        </g>
                    </g>
                    <g id="Path" transform="translate(14.000000, 77.000000)">
                        <g id="path-11-link" fill="#000000">
                            <path d="M86.583384,0 L1.4166159,0 C0.6341818,0 0,0.8953475 0,2 C0,3.1046525 0.6341818,4 1.4166159,4 L86.583384,4 C87.365818,4 88,3.1046525 88,2 C88,0.8953475 87.365818,0 86.583384,0 Z" id="path-11"></path>
                        </g>
                        <g id="path-11-link" fill="url(#linearGradient-2)">
                            <path d="M86.583384,0 L1.4166159,0 C0.6341818,0 0,0.8953475 0,2 C0,3.1046525 0.6341818,4 1.4166159,4 L86.583384,4 C87.365818,4 88,3.1046525 88,2 C88,0.8953475 87.365818,0 86.583384,0 Z" id="path-11"></path>
                        </g>
                    </g>
                    <g id="Path" transform="translate(14.000000, 93.000000)">
                        <g id="path-13-link" fill="#000000">
                            <path d="M86.583384,0 L1.4166159,0 C0.6341818,0 0,0.8953475 0,2 C0,3.1046525 0.6341818,4 1.4166159,4 L86.583384,4 C87.365818,4 88,3.1046525 88,2 C88,0.8953475 87.365818,0 86.583384,0 Z" id="path-13"></path>
                        </g>
                        <g id="path-13-link" fill="url(#linearGradient-2)">
                            <path d="M86.583384,0 L1.4166159,0 C0.6341818,0 0,0.8953475 0,2 C0,3.1046525 0.6341818,4 1.4166159,4 L86.583384,4 C87.365818,4 88,3.1046525 88,2 C88,0.8953475 87.365818,0 86.583384,0 Z" id="path-13"></path>
                        </g>
                    </g>
                    <g id="web-2" transform="translate(58.000000, 57.500000) scale(-1, 1) translate(-58.000000, -57.500000) ">
                        <g id="Shape">
                            <g id="path-16-link" fill="#000000" fill-rule="nonzero">
                                <path d="M106.33305,0 L9.66672331,0 C4.33050717,0.0062890625 0.00634373761,4.29318359 0,9.5834082 L0,105.416816 C0.00634373761,110.706816 4.33050717,114.993711 9.66672331,115 L106.333277,115 C111.669266,114.993711 115.99343,110.706816 116,105.416592 L116,9.5834082 C115.99343,4.29318359 111.669266,0.0062890625 106.33305,0 Z M112.133039,105.416592 C112.133039,108.592119 109.536411,111.166592 106.33305,111.166592 L9.66672331,111.166592 C6.46358894,111.166592 3.86673464,108.592344 3.86673464,105.416592 L3.86673464,19.1665918 L112.133265,19.1665918 L112.133265,105.416592 L112.133039,105.416592 Z M112.133265,15.3334082 L3.86673464,15.3334082 L3.86673464,9.5834082 C3.86673464,6.40788086 6.46358894,3.8334082 9.66672331,3.8334082 L106.333277,3.8334082 C109.536411,3.8334082 112.133265,6.40788086 112.133265,9.5834082 L112.133265,15.3334082 Z" id="path-16"></path>
                            </g>
                            <g id="path-16-link" fill="url(#linearGradient-3)">
                                <path d="M106.33305,0 L9.66672331,0 C4.33050717,0.0062890625 0.00634373761,4.29318359 0,9.5834082 L0,105.416816 C0.00634373761,110.706816 4.33050717,114.993711 9.66672331,115 L106.333277,115 C111.669266,114.993711 115.99343,110.706816 116,105.416592 L116,9.5834082 C115.99343,4.29318359 111.669266,0.0062890625 106.33305,0 Z M112.133039,105.416592 C112.133039,108.592119 109.536411,111.166592 106.33305,111.166592 L9.66672331,111.166592 C6.46358894,111.166592 3.86673464,108.592344 3.86673464,105.416592 L3.86673464,19.1665918 L112.133265,19.1665918 L112.133265,105.416592 L112.133039,105.416592 Z M112.133265,15.3334082 L3.86673464,15.3334082 L3.86673464,9.5834082 C3.86673464,6.40788086 6.46358894,3.8334082 9.66672331,3.8334082 L106.333277,3.8334082 C109.536411,3.8334082 112.133265,6.40788086 112.133265,9.5834082 L112.133265,15.3334082 Z" id="path-16"></path>
                            </g>
                        </g>
                        <g id="Path" transform="translate(10.000000, 8.000000)">
                            <g id="path-19-link" fill="#000000">
                                <path d="M4,0 L2,0 C0.8953475,0 0,0.89529501 0,1.99988281 C0,3.1044706 0.8953475,4 2,4 L4,4 C5.1046525,4 6,3.104705 6,2.0001172 C6,0.89552938 5.1046525,0 4,0 Z" id="path-19"></path>
                            </g>
                            <g id="path-19-link" fill="url(#linearGradient-4)">
                                <path d="M4,0 L2,0 C0.8953475,0 0,0.89529501 0,1.99988281 C0,3.1044706 0.8953475,4 2,4 L4,4 C5.1046525,4 6,3.104705 6,2.0001172 C6,0.89552938 5.1046525,0 4,0 Z" id="path-19"></path>
                            </g>
                        </g>
                        <g id="Path" transform="translate(19.000000, 8.000000)">
                            <g id="path-21-link" fill="#000000">
                                <path d="M2.7599461,0.16485494 C2.277143,-0.05495165 1.7226226,-0.05495165 1.2400539,0.16485494 C0.9977149,0.2662141 0.7745942,0.40807011 0.5800668,0.58433673 C-0.1933556,1.37203552 -0.1933556,2.6330558 0.5800668,3.4207546 C0.7745942,3.5970213 0.9977149,3.7388773 1.2400539,3.8402364 C1.7242632,4.0532545 2.2757368,4.0532545 2.7599461,3.8402364 C3.0022851,3.7388773 3.2254058,3.5970213 3.4199332,3.4207546 C4.1933556,2.6330558 4.1933556,1.37203552 3.4199332,0.58433673 C3.2254058,0.40807011 3.0022851,0.2662141 2.7599461,0.16485494 Z" id="path-21"></path>
                            </g>
                            <g id="path-21-link" fill="url(#linearGradient-4)">
                                <path d="M2.7599461,0.16485494 C2.277143,-0.05495165 1.7226226,-0.05495165 1.2400539,0.16485494 C0.9977149,0.2662141 0.7745942,0.40807011 0.5800668,0.58433673 C-0.1933556,1.37203552 -0.1933556,2.6330558 0.5800668,3.4207546 C0.7745942,3.5970213 0.9977149,3.7388773 1.2400539,3.8402364 C1.7242632,4.0532545 2.2757368,4.0532545 2.7599461,3.8402364 C3.0022851,3.7388773 3.2254058,3.5970213 3.4199332,3.4207546 C4.1933556,2.6330558 4.1933556,1.37203552 3.4199332,0.58433673 C3.2254058,0.40807011 3.0022851,0.2662141 2.7599461,0.16485494 Z" id="path-21"></path>
                            </g>
                        </g>
                        <g id="Path" transform="translate(27.000000, 8.000000)">
                            <g id="path-23-link" fill="#000000">
                                <path d="M2.766606,0.15248304 C2.0162685,-0.15809458 1.1520446,0.01460434 0.5800353,0.58995582 C0.4035818,0.78392077 0.2615753,1.00639624 0.1601087,1.24803452 C-0.0533696,1.73084368 -0.0533696,2.2807227 0.1601087,2.7635318 C0.2615753,3.0051701 0.4035818,3.2276456 0.5800353,3.4216105 C1.3685692,4.1927965 2.6309266,4.1927965 3.4194606,3.4216105 C3.5959141,3.2276456 3.7379205,3.0051701 3.8393871,2.7635318 C3.9513988,2.5268011 4.0062329,2.2674022 3.9994373,2.0056663 C4.0043583,1.19568735 3.5169435,0.46306067 2.766606,0.15248304 Z" id="path-23"></path>
                            </g>
                            <g id="path-23-link" fill="url(#linearGradient-4)">
                                <path d="M2.766606,0.15248304 C2.0162685,-0.15809458 1.1520446,0.01460434 0.5800353,0.58995582 C0.4035818,0.78392077 0.2615753,1.00639624 0.1601087,1.24803452 C-0.0533696,1.73084368 -0.0533696,2.2807227 0.1601087,2.7635318 C0.2615753,3.0051701 0.4035818,3.2276456 0.5800353,3.4216105 C1.3685692,4.1927965 2.6309266,4.1927965 3.4194606,3.4216105 C3.5959141,3.2276456 3.7379205,3.0051701 3.8393871,2.7635318 C3.9513988,2.5268011 4.0062329,2.2674022 3.9994373,2.0056663 C4.0043583,1.19568735 3.5169435,0.46306067 2.766606,0.15248304 Z" id="path-23"></path>
                            </g>
                        </g>
                        <g id="Path" transform="translate(37.000000, 8.000000)">
                            <g id="path-25-link" fill="#000000">
                                <path d="M67.083402,0 L1.916598,0 C0.8580106,0 0,0.89534747 0,2 C0,3.1046525 0.8580106,4 1.916598,4 L67.083402,4 C68.141989,4 69,3.1046525 69,2 C69,0.89534747 68.141989,0 67.083402,0 Z" id="path-25"></path>
                            </g>
                            <g id="path-25-link" fill="url(#linearGradient-2)">
                                <path d="M67.083402,0 L1.916598,0 C0.8580106,0 0,0.89534747 0,2 C0,3.1046525 0.8580106,4 1.916598,4 L67.083402,4 C68.141989,4 69,3.1046525 69,2 C69,0.89534747 68.141989,0 67.083402,0 Z" id="path-25"></path>
                            </g>
                        </g>
                    </g>
                </g>
                <rect id="Rectangle" stroke="url(#linearGradient-5)" stroke-width="3" x="74.1017514" y="39.5" width="27" height="27" rx="5"></rect>
                <path d="M82.8439386,48 L92.8439386,58" id="Line-2" stroke="url(#linearGradient-5)" stroke-width="3" stroke-linecap="round" transform="translate(87.843939, 53.000000) scale(-1, 1) translate(-87.843939, -53.000000) "></path>
            </g>
            <path d="M82.6017514,48 L92.6017514,58" id="Line-2" stroke="url(#linearGradient-5)" stroke-width="3" stroke-linecap="round"></path>
        </g>
    </g>
</svg>