<?xml version="1.0" encoding="UTF-8"?>
<svg width="150px" height="30px" viewBox="0 0 150 30" version="1.1" xmlns="http://www.w3.org/2000/svg" xmlns:xlink="http://www.w3.org/1999/xlink">
    <!-- Generator: Sketch 53.2 (72643) - https://sketchapp.com -->
    <title>Logo</title>
    <desc>Created with Sketch.</desc>
    <g id="Page-1" stroke="none" stroke-width="1" fill="none" fill-rule="evenodd">
        <g id="Desktop" transform="translate(-815.000000, -6346.000000)" fill="#FFFFFF">
            <g id="Group-47" transform="translate(460.000000, 6159.000000)">
                <g id="Group-22" transform="translate(0.000000, 177.000000)">
                    <g id="Logo" transform="translate(355.000000, 10.000000)">
                        <g id="Group-2">
                            <g id="Logo">
                                <g id="Group">
                                    <polygon id="Path-2" points="0.397518382 13.2100868 7.06542969 1.69149399 7.37724035 9.27440643"></polygon>
                                    <polygon id="Path-3" points="8.44554228 0.0234603882 8.73546645 8.46199036 23.2107652 0.0234603882"></polygon>
                                    <polygon id="Path-4" points="9.70685892 9.55701828 25.2817096 0.418052673 28.7909582 17.0525551"></polygon>
                                    <polygon id="Path-5" points="30.2033548 17.0380211 33.9022863 14.7322083 27.4039522 3.52746964"></polygon>
                                    <polygon id="Path-6" points="25.5198759 29.6339607 18.7621209 25.7194519 32.7587891 17.0999908"></polygon>
                                    <polygon id="Path-7" points="17.6879021 24.758606 28.1559053 18.2649422 9.69180836 11.0488129"></polygon>
                                    <polygon id="Path-8" points="0.0656594669 14.992218 7.8520795 10.5978012 15.5756549 23.9031029"></polygon>
                                    <polygon id="Path-9" points="0.543887868 16.9106483 8.07117417 29.89048 23.1731962 29.89048"></polygon>
                                </g>
                            </g>
                            <path d="M54.44,13.018 C54.247999,12.1059954 53.8250033,11.4220023 53.171,10.966 C52.5169967,10.5099977 51.7400045,10.282 50.84,10.282 C50.0719962,10.282 49.4150027,10.4259986 48.869,10.714 C48.3229973,11.0020014 47.8730018,11.3889976 47.519,11.875 C47.1649982,12.3610024 46.9040008,12.9159969 46.736,13.54 C46.5679992,14.1640031 46.484,14.8119966 46.484,15.484 C46.484,16.2160037 46.5679992,16.9089967 46.736,17.563 C46.9040008,18.2170033 47.1649982,18.7869976 47.519,19.273 C47.8730018,19.7590024 48.3259972,20.1459986 48.878,20.434 C49.4300028,20.7220014 50.0899962,20.866 50.858,20.866 C51.4220028,20.866 51.9229978,20.7730009 52.361,20.587 C52.7990022,20.4009991 53.1769984,20.1430017 53.495,19.813 C53.8130016,19.4829983 54.0619991,19.0900023 54.242,18.634 C54.4220009,18.1779977 54.5299998,17.6860026 54.566,17.158 L56.276,17.158 C56.1079992,18.7780081 55.5500047,20.0379955 54.602,20.938 C53.6539953,21.8380045 52.3580082,22.288 50.714,22.288 C49.717995,22.288 48.8480037,22.1170017 48.104,21.775 C47.3599963,21.4329983 46.7420025,20.962003 46.25,20.362 C45.7579975,19.761997 45.3890012,19.0540041 45.143,18.238 C44.8969988,17.4219959 44.774,16.5460047 44.774,15.61 C44.774,14.6739953 44.9059987,13.7950041 45.17,12.973 C45.4340013,12.1509959 45.8209975,11.4340031 46.331,10.822 C46.8410025,10.2099969 47.4769962,9.72700177 48.239,9.373 C49.0010038,9.01899823 49.8739951,8.842 50.858,8.842 C51.5300034,8.842 52.165997,8.9319991 52.766,9.112 C53.366003,9.2920009 53.8999977,9.55599826 54.368,9.904 C54.8360023,10.2520017 55.2259984,10.6869974 55.538,11.209 C55.8500016,11.7310026 56.0539995,12.3339966 56.15,13.018 L54.44,13.018 Z M58.9265,17.356 C58.9265,17.9200028 59.0014993,18.4209978 59.1515,18.859 C59.3015008,19.2970022 59.5084987,19.6629985 59.7725,19.957 C60.0365013,20.2510015 60.3454982,20.4759992 60.6995,20.632 C61.0535018,20.7880008 61.428498,20.866 61.8245,20.866 C62.220502,20.866 62.5954982,20.7880008 62.9495,20.632 C63.3035018,20.4759992 63.6124987,20.2510015 63.8765,19.957 C64.1405013,19.6629985 64.3474992,19.2970022 64.4975,18.859 C64.6475008,18.4209978 64.7225,17.9200028 64.7225,17.356 C64.7225,16.7919972 64.6475008,16.2910022 64.4975,15.853 C64.3474992,15.4149978 64.1405013,15.0460015 63.8765,14.746 C63.6124987,14.4459985 63.3035018,14.2180008 62.9495,14.062 C62.5954982,13.9059992 62.220502,13.828 61.8245,13.828 C61.428498,13.828 61.0535018,13.9059992 60.6995,14.062 C60.3454982,14.2180008 60.0365013,14.4459985 59.7725,14.746 C59.5084987,15.0460015 59.3015008,15.4149978 59.1515,15.853 C59.0014993,16.2910022 58.9265,16.7919972 58.9265,17.356 Z M57.3065,17.356 C57.3065,16.6719966 57.402499,16.033003 57.5945,15.439 C57.786501,14.844997 58.0744981,14.3290022 58.4585,13.891 C58.8425019,13.4529978 59.3164972,13.1080013 59.8805,12.856 C60.4445028,12.6039987 61.0924963,12.478 61.8245,12.478 C62.5685037,12.478 63.2194972,12.6039987 63.7775,12.856 C64.3355028,13.1080013 64.8064981,13.4529978 65.1905,13.891 C65.5745019,14.3290022 65.862499,14.844997 66.0545,15.439 C66.246501,16.033003 66.3425,16.6719966 66.3425,17.356 C66.3425,18.0400034 66.246501,18.6759971 66.0545,19.264 C65.862499,19.8520029 65.5745019,20.3649978 65.1905,20.803 C64.8064981,21.2410022 64.3355028,21.5829988 63.7775,21.829 C63.2194972,22.0750012 62.5685037,22.198 61.8245,22.198 C61.0924963,22.198 60.4445028,22.0750012 59.8805,21.829 C59.3164972,21.5829988 58.8425019,21.2410022 58.4585,20.803 C58.0744981,20.3649978 57.786501,19.8520029 57.5945,19.264 C57.402499,18.6759971 57.3065,18.0400034 57.3065,17.356 Z M67.805,12.694 L69.245,12.694 L69.245,14.17 L69.281,14.17 C69.9170032,13.0419944 70.9249931,12.478 72.305,12.478 C72.9170031,12.478 73.426998,12.5619992 73.835,12.73 C74.243002,12.8980008 74.5729987,13.1319985 74.825,13.432 C75.0770013,13.7320015 75.2539995,14.0889979 75.356,14.503 C75.4580005,14.9170021 75.509,15.3759975 75.509,15.88 L75.509,22 L73.979,22 L73.979,15.7 C73.979,15.1239971 73.8110017,14.6680017 73.475,14.332 C73.1389983,13.9959983 72.6770029,13.828 72.089,13.828 C71.6209977,13.828 71.2160017,13.8999993 70.874,14.044 C70.5319983,14.1880007 70.2470011,14.3919987 70.019,14.656 C69.7909989,14.9200013 69.6200006,15.2289982 69.506,15.583 C69.3919994,15.9370018 69.335,16.3239979 69.335,16.744 L69.335,22 L67.805,22 L67.805,12.694 Z M79.5995,12.694 L81.4535,12.694 L81.4535,14.044 L79.5995,14.044 L79.5995,19.822 C79.5995,20.0020009 79.6144999,20.1459995 79.6445,20.254 C79.6745002,20.3620005 79.7314996,20.4459997 79.8155,20.506 C79.8995004,20.5660003 80.0164993,20.6049999 80.1665,20.623 C80.3165008,20.6410001 80.5114988,20.65 80.7515,20.65 L81.4535,20.65 L81.4535,22 L80.2835,22 C79.887498,22 79.5485014,21.9730003 79.2665,21.919 C78.9844986,21.8649997 78.7565009,21.7660007 78.5825,21.622 C78.4084991,21.4779993 78.2795004,21.2740013 78.1955,21.01 C78.1114996,20.7459987 78.0695,20.3980022 78.0695,19.966 L78.0695,14.044 L76.4855,14.044 L76.4855,12.694 L78.0695,12.694 L78.0695,9.904 L79.5995,9.904 L79.5995,12.694 Z M82.754,12.694 L84.194,12.694 L84.194,14.656 L84.23,14.656 C84.6020019,13.8999962 85.0579973,13.3420018 85.598,12.982 C86.1380027,12.6219982 86.8219959,12.4539999 87.65,12.478 L87.65,14.098 C87.0379969,14.098 86.5160022,14.1819992 86.084,14.35 C85.6519978,14.5180008 85.3040013,14.7639984 85.04,15.088 C84.7759987,15.4120016 84.5840006,15.8049977 84.464,16.267 C84.3439994,16.7290023 84.284,17.259997 84.284,17.86 L84.284,22 L82.754,22 L82.754,12.694 Z M96.7085,21.964 C96.4444987,22.1200008 96.0785023,22.198 95.6105,22.198 C95.214498,22.198 94.8995012,22.0870011 94.6655,21.865 C94.4314988,21.6429989 94.3145,21.2800025 94.3145,20.776 C93.8944979,21.2800025 93.4055028,21.6429989 92.8475,21.865 C92.2894972,22.0870011 91.6865032,22.198 91.0385,22.198 C90.6184979,22.198 90.2195019,22.1500005 89.8415,22.054 C89.4634981,21.9579995 89.1365014,21.808001 88.8605,21.604 C88.5844986,21.399999 88.3655008,21.1330017 88.2035,20.803 C88.0414992,20.4729984 87.9605,20.0740023 87.9605,19.606 C87.9605,19.0779974 88.0504991,18.6460017 88.2305,18.31 C88.4105009,17.9739983 88.6474985,17.7010011 88.9415,17.491 C89.2355015,17.2809989 89.5714981,17.1220005 89.9495,17.014 C90.3275019,16.9059995 90.714498,16.8160004 91.1105,16.744 C91.5305021,16.6599996 91.9294981,16.5970002 92.3075,16.555 C92.6855019,16.5129998 93.0184986,16.4530004 93.3065,16.375 C93.5945014,16.2969996 93.8224992,16.1830007 93.9905,16.033 C94.1585008,15.8829993 94.2425,15.6640014 94.2425,15.376 C94.2425,15.0399983 94.1795006,14.770001 94.0535,14.566 C93.9274994,14.361999 93.765501,14.2060005 93.5675,14.098 C93.369499,13.9899995 93.1475012,13.9180002 92.9015,13.882 C92.6554988,13.8459998 92.4125012,13.828 92.1725,13.828 C91.5244968,13.828 90.9845022,13.9509988 90.5525,14.197 C90.1204978,14.4430012 89.8865002,14.9079966 89.8505,15.592 L88.3205,15.592 C88.3445001,15.0159971 88.4644989,14.530002 88.6805,14.134 C88.8965011,13.737998 89.1844982,13.4170012 89.5445,13.171 C89.9045018,12.9249988 90.3154977,12.7480005 90.7775,12.64 C91.2395023,12.5319995 91.7344974,12.478 92.2625,12.478 C92.6825021,12.478 93.0994979,12.5079997 93.5135,12.568 C93.9275021,12.6280003 94.3024983,12.7509991 94.6385,12.937 C94.9745017,13.1230009 95.244499,13.3839983 95.4485,13.72 C95.652501,14.0560017 95.7545,14.4939973 95.7545,15.034 L95.7545,19.822 C95.7545,20.1820018 95.7754998,20.4459992 95.8175,20.614 C95.8595002,20.7820008 96.0004988,20.866 96.2405,20.866 C96.3725007,20.866 96.5284991,20.8360003 96.7085,20.776 L96.7085,21.964 Z M94.2245,17.194 C94.032499,17.3380007 93.7805016,17.4429997 93.4685,17.509 C93.1564984,17.5750003 92.8295017,17.6289998 92.4875,17.671 C92.1454983,17.7130002 91.8005017,17.7609997 91.4525,17.815 C91.1044983,17.8690003 90.7925014,17.9559994 90.5165,18.076 C90.2404986,18.1960006 90.0155009,18.3669989 89.8415,18.589 C89.6674991,18.8110011 89.5805,19.1139981 89.5805,19.498 C89.5805,19.7500013 89.6314995,19.9629991 89.7335,20.137 C89.8355005,20.3110009 89.9674992,20.4519995 90.1295,20.56 C90.2915008,20.6680005 90.4804989,20.7459998 90.6965,20.794 C90.9125011,20.8420002 91.1404988,20.866 91.3805,20.866 C91.8845025,20.866 92.3164982,20.7970007 92.6765,20.659 C93.0365018,20.5209993 93.3304989,20.347001 93.5585,20.137 C93.7865011,19.9269989 93.9544995,19.6990012 94.0625,19.453 C94.1705005,19.2069988 94.2245,18.9760011 94.2245,18.76 L94.2245,17.194 Z M104.111,15.682 C103.990999,15.0939971 103.739002,14.6380016 103.355,14.314 C102.970998,13.9899984 102.455003,13.828 101.807,13.828 C101.254997,13.828 100.793002,13.929999 100.421,14.134 C100.048998,14.338001 99.7520011,14.6079983 99.53,14.944 C99.3079989,15.2800017 99.1490005,15.6669978 99.053,16.105 C98.9569995,16.5430022 98.909,16.9959977 98.909,17.464 C98.909,17.8960022 98.9599995,18.315998 99.062,18.724 C99.1640005,19.132002 99.3229989,19.4949984 99.539,19.813 C99.7550011,20.1310016 100.036998,20.385999 100.385,20.578 C100.733002,20.770001 101.146998,20.866 101.627,20.866 C102.383004,20.866 102.973998,20.668002 103.4,20.272 C103.826002,19.875998 104.087,19.3180036 104.183,18.598 L105.749,18.598 C105.580999,19.7500058 105.152003,20.6379969 104.462,21.262 C103.771997,21.8860031 102.833006,22.198 101.645,22.198 C100.936996,22.198 100.310003,22.0840011 99.764,21.856 C99.2179973,21.6279989 98.7620018,21.3040021 98.396,20.884 C98.0299982,20.4639979 97.7540009,19.9630029 97.568,19.381 C97.3819991,18.7989971 97.289,18.1600035 97.289,17.464 C97.289,16.7679965 97.3789991,16.117003 97.559,15.511 C97.7390009,14.904997 98.0119982,14.3770023 98.378,13.927 C98.7440018,13.4769977 99.2029972,13.1230013 99.755,12.865 C100.307003,12.6069987 100.948996,12.478 101.681,12.478 C102.209003,12.478 102.703998,12.5409994 103.166,12.667 C103.628002,12.7930006 104.035998,12.9879987 104.39,13.252 C104.744002,13.5160013 105.034999,13.848998 105.263,14.251 C105.491001,14.653002 105.635,15.1299972 105.695,15.682 L104.111,15.682 Z M109.2455,12.694 L111.0995,12.694 L111.0995,14.044 L109.2455,14.044 L109.2455,19.822 C109.2455,20.0020009 109.2605,20.1459995 109.2905,20.254 C109.3205,20.3620005 109.3775,20.4459997 109.4615,20.506 C109.5455,20.5660003 109.662499,20.6049999 109.8125,20.623 C109.962501,20.6410001 110.157499,20.65 110.3975,20.65 L111.0995,20.65 L111.0995,22 L109.9295,22 C109.533498,22 109.194501,21.9730003 108.9125,21.919 C108.630499,21.8649997 108.402501,21.7660007 108.2285,21.622 C108.054499,21.4779993 107.9255,21.2740013 107.8415,21.01 C107.7575,20.7459987 107.7155,20.3980022 107.7155,19.966 L107.7155,14.044 L106.1315,14.044 L106.1315,12.694 L107.7155,12.694 L107.7155,9.904 L109.2455,9.904 L109.2455,12.694 Z M112.706,9.148 L114.416,9.148 L114.416,20.56 L121.22,20.56 L121.22,22 L112.706,22 L112.706,9.148 Z M130.3685,21.964 C130.104499,22.1200008 129.738502,22.198 129.2705,22.198 C128.874498,22.198 128.559501,22.0870011 128.3255,21.865 C128.091499,21.6429989 127.9745,21.2800025 127.9745,20.776 C127.554498,21.2800025 127.065503,21.6429989 126.5075,21.865 C125.949497,22.0870011 125.346503,22.198 124.6985,22.198 C124.278498,22.198 123.879502,22.1500005 123.5015,22.054 C123.123498,21.9579995 122.796501,21.808001 122.5205,21.604 C122.244499,21.399999 122.025501,21.1330017 121.8635,20.803 C121.701499,20.4729984 121.6205,20.0740023 121.6205,19.606 C121.6205,19.0779974 121.710499,18.6460017 121.8905,18.31 C122.070501,17.9739983 122.307499,17.7010011 122.6015,17.491 C122.895501,17.2809989 123.231498,17.1220005 123.6095,17.014 C123.987502,16.9059995 124.374498,16.8160004 124.7705,16.744 C125.190502,16.6599996 125.589498,16.5970002 125.9675,16.555 C126.345502,16.5129998 126.678499,16.4530004 126.9665,16.375 C127.254501,16.2969996 127.482499,16.1830007 127.6505,16.033 C127.818501,15.8829993 127.9025,15.6640014 127.9025,15.376 C127.9025,15.0399983 127.839501,14.770001 127.7135,14.566 C127.587499,14.361999 127.425501,14.2060005 127.2275,14.098 C127.029499,13.9899995 126.807501,13.9180002 126.5615,13.882 C126.315499,13.8459998 126.072501,13.828 125.8325,13.828 C125.184497,13.828 124.644502,13.9509988 124.2125,14.197 C123.780498,14.4430012 123.5465,14.9079966 123.5105,15.592 L121.9805,15.592 C122.0045,15.0159971 122.124499,14.530002 122.3405,14.134 C122.556501,13.737998 122.844498,13.4170012 123.2045,13.171 C123.564502,12.9249988 123.975498,12.7480005 124.4375,12.64 C124.899502,12.5319995 125.394497,12.478 125.9225,12.478 C126.342502,12.478 126.759498,12.5079997 127.1735,12.568 C127.587502,12.6280003 127.962498,12.7509991 128.2985,12.937 C128.634502,13.1230009 128.904499,13.3839983 129.1085,13.72 C129.312501,14.0560017 129.4145,14.4939973 129.4145,15.034 L129.4145,19.822 C129.4145,20.1820018 129.4355,20.4459992 129.4775,20.614 C129.5195,20.7820008 129.660499,20.866 129.9005,20.866 C130.032501,20.866 130.188499,20.8360003 130.3685,20.776 L130.3685,21.964 Z M127.8845,17.194 C127.692499,17.3380007 127.440502,17.4429997 127.1285,17.509 C126.816498,17.5750003 126.489502,17.6289998 126.1475,17.671 C125.805498,17.7130002 125.460502,17.7609997 125.1125,17.815 C124.764498,17.8690003 124.452501,17.9559994 124.1765,18.076 C123.900499,18.1960006 123.675501,18.3669989 123.5015,18.589 C123.327499,18.8110011 123.2405,19.1139981 123.2405,19.498 C123.2405,19.7500013 123.291499,19.9629991 123.3935,20.137 C123.495501,20.3110009 123.627499,20.4519995 123.7895,20.56 C123.951501,20.6680005 124.140499,20.7459998 124.3565,20.794 C124.572501,20.8420002 124.800499,20.866 125.0405,20.866 C125.544503,20.866 125.976498,20.7970007 126.3365,20.659 C126.696502,20.5209993 126.990499,20.347001 127.2185,20.137 C127.446501,19.9269989 127.614499,19.6990012 127.7225,19.453 C127.830501,19.2069988 127.8845,18.9760011 127.8845,18.76 L127.8845,17.194 Z M131.453,12.694 L132.893,12.694 L132.893,14.17 L132.929,14.17 C133.565003,13.0419944 134.572993,12.478 135.953,12.478 C136.565003,12.478 137.074998,12.5619992 137.483,12.73 C137.891002,12.8980008 138.220999,13.1319985 138.473,13.432 C138.725001,13.7320015 138.901999,14.0889979 139.004,14.503 C139.106001,14.9170021 139.157,15.3759975 139.157,15.88 L139.157,22 L137.627,22 L137.627,15.7 C137.627,15.1239971 137.459002,14.6680017 137.123,14.332 C136.786998,13.9959983 136.325003,13.828 135.737,13.828 C135.268998,13.828 134.864002,13.8999993 134.522,14.044 C134.179998,14.1880007 133.895001,14.3919987 133.667,14.656 C133.438999,14.9200013 133.268001,15.2289982 133.154,15.583 C133.039999,15.9370018 132.983,16.3239979 132.983,16.744 L132.983,22 L131.453,22 L131.453,12.694 Z M142.2395,17.428 C142.2395,17.8600022 142.296499,18.2829979 142.4105,18.697 C142.524501,19.1110021 142.698499,19.4799984 142.9325,19.804 C143.166501,20.1280016 143.466498,20.385999 143.8325,20.578 C144.198502,20.770001 144.627498,20.866 145.1195,20.866 C145.635503,20.866 146.073498,20.764001 146.4335,20.56 C146.793502,20.355999 147.087499,20.0890017 147.3155,19.759 C147.543501,19.4289984 147.708499,19.0540021 147.8105,18.634 C147.912501,18.2139979 147.9635,17.7880022 147.9635,17.356 C147.9635,16.8999977 147.909501,16.4590021 147.8015,16.033 C147.693499,15.6069979 147.522501,15.2320016 147.2885,14.908 C147.054499,14.5839984 146.751502,14.323001 146.3795,14.125 C146.007498,13.926999 145.557503,13.828 145.0295,13.828 C144.513497,13.828 144.075502,13.929999 143.7155,14.134 C143.355498,14.338001 143.067501,14.6079983 142.8515,14.944 C142.635499,15.2800017 142.4795,15.6639978 142.3835,16.096 C142.2875,16.5280022 142.2395,16.9719977 142.2395,17.428 Z M149.4395,22 L147.9095,22 L147.9095,20.74 L147.8735,20.74 C147.621499,21.2560026 147.225503,21.6279989 146.6855,21.856 C146.145497,22.0840011 145.551503,22.198 144.9035,22.198 C144.183496,22.198 143.556503,22.0660013 143.0225,21.802 C142.488497,21.5379987 142.044502,21.1840022 141.6905,20.74 C141.336498,20.2959978 141.069501,19.7800029 140.8895,19.192 C140.709499,18.6039971 140.6195,17.9800033 140.6195,17.32 C140.6195,16.6599967 140.706499,16.0360029 140.8805,15.448 C141.054501,14.8599971 141.318498,14.3470022 141.6725,13.909 C142.026502,13.4709978 142.470497,13.1230013 143.0045,12.865 C143.538503,12.6069987 144.159496,12.478 144.8675,12.478 C145.107501,12.478 145.365499,12.5019998 145.6415,12.55 C145.917501,12.5980002 146.193499,12.6789994 146.4695,12.793 C146.745501,12.9070006 147.006499,13.0569991 147.2525,13.243 C147.498501,13.4290009 147.705499,13.6599986 147.8735,13.936 L147.9095,13.936 L147.9095,9.148 L149.4395,9.148 L149.4395,22 Z" id="ContractLand" fill-rule="nonzero"></path>
                        </g>
                    </g>
                </g>
            </g>
        </g>
    </g>
</svg>