<?xml version="1.0" encoding="UTF-8"?>
<svg width="170px" height="18px" viewBox="0 0 170 18" version="1.1" xmlns="http://www.w3.org/2000/svg" xmlns:xlink="http://www.w3.org/1999/xlink">
    <!-- Generator: Sketch 51.3 (57544) - http://www.bohemiancoding.com/sketch -->
    <title>Logo</title>
    <desc>Created with Sketch.</desc>
    <defs></defs>
    <g id="Page-1" stroke="none" stroke-width="1" fill="none" fill-rule="evenodd">
        <g id="Landing-02" transform="translate(-215.000000, -3601.000000)" fill="#FFFFFF">
            <g id="Group-2" transform="translate(0.000000, 3551.000000)">
                <g id="Logo" transform="translate(215.000000, 50.000000)">
                    <polygon id="Path" points="0 18 0 0.212269208 12.7032711 0.212269208 12.7032711 3.8097878 0 3.8097878 0 7.1574787 12.7032711 7.1574787 12.7032711 10.7549973 0 10.7549973 0 14.4024814 12.7032711 14.4024814 12.7032711 18"></polygon>
                    <path d="M22.5551029,17.7780822 L22.5551029,3.96986301 L17.3148148,3.96986301 L17.3148148,0.221917808 L32.4918755,0.221917808 L32.4918755,3.96986301 L27.2515874,3.96986301 L27.2515874,17.7780822 L22.5551029,17.7780822 Z M49.3333044,0.221917808 L53.8814789,0.221917808 L53.8814789,17.7780822 L49.3333044,17.7780822 L49.3333044,10.6767123 L42.2144225,10.6767123 L42.2144225,17.7780822 L37.6662479,17.7780822 L37.6662479,0.221917808 L42.2144225,0.221917808 L42.2144225,7.05205479 L49.3333044,7.05205479 L49.3333044,0.221917808 Z M82.0439074,0.221917808 L86.4437719,0.221917808 L80.1405952,17.7780822 L76.4575626,17.7780822 L72.77453,7.34794521 L69.0173423,17.7780822 L65.3343097,17.7780822 L59.0558514,0.221917808 L63.7770543,0.221917808 L67.3859319,11.2931507 L71.3161479,0.221917808 L74.4800954,0.221917808 L78.2620014,11.490411 L82.0439074,0.221917808 Z M94.7820919,16.9027397 C93.4472948,16.1712292 92.421494,15.1232945 91.7046586,13.7589041 C90.9878231,12.3945137 90.6294108,10.8000091 90.6294108,8.97534247 C90.6294108,7.15067581 90.9919428,5.5643903 91.7170177,4.21643836 C92.4420927,2.86848641 93.4678935,1.82877078 94.794451,1.09726027 C96.1210086,0.365749767 97.6823681,0 99.4785764,0 C101.274785,0 102.836144,0.365749767 104.162702,1.09726027 C105.489259,1.82877078 106.506821,2.86848641 107.215417,4.21643836 C107.924013,5.5643903 108.278305,7.15067581 108.278305,8.97534247 C108.278305,10.8000091 107.924013,12.3945137 107.215417,13.7589041 C106.506821,15.1232945 105.489259,16.1712292 104.162702,16.9027397 C102.836144,17.6342502 101.274785,18 99.4785764,18 C97.6823681,18 96.1168889,17.6342502 94.7820919,16.9027397 Z M102.580728,13.0684932 C103.330521,12.1315022 103.705413,10.7671322 103.705413,8.97534247 C103.705413,7.19999112 103.330521,5.84794985 102.580728,4.91917808 C101.830935,3.99040632 100.796894,3.5260274 99.4785764,3.5260274 C98.1602584,3.5260274 97.1303379,3.98629677 96.388784,4.90684932 C95.6472301,5.82740186 95.2764587,7.18355268 95.2764587,8.97534247 C95.2764587,10.7835707 95.6472301,12.1520502 96.388784,13.0808219 C97.1303379,14.0095937 98.1602584,14.4739726 99.4785764,14.4739726 C100.796894,14.4739726 101.830935,14.0054841 102.580728,13.0684932 Z M129.593754,17.7780822 L124.674804,17.7780822 L122.400717,11.9342466 C122.137053,11.276709 121.519101,10.9479452 120.546841,10.9479452 L118.865994,10.9479452 L118.865994,17.7780822 L114.293101,17.7780822 L114.293101,0.221917808 L122.474872,0.221917808 C124.60066,0.221917808 126.199096,0.67807763 127.27023,1.59041096 C128.341363,2.50274429 128.876922,3.80547099 128.876922,5.49863014 C128.876922,6.6821977 128.559706,7.70547514 127.925266,8.56849315 C127.290825,9.43151116 126.396854,10.0438338 125.243326,10.4054795 C125.737695,10.5041101 126.182621,10.7342448 126.578116,11.0958904 C126.973612,11.4575361 127.286708,11.9424627 127.517413,12.5506849 L129.593754,17.7780822 Z M123.883817,7.03972603 C124.32875,6.73561492 124.551212,6.2630169 124.551212,5.62191781 C124.551212,4.94794184 124.332869,4.46301518 123.896176,4.16712329 C123.459484,3.8712314 122.738539,3.72328767 121.733322,3.72328767 L118.816558,3.72328767 L118.816558,7.49589041 L121.733322,7.49589041 C122.72206,7.49589041 123.438885,7.34383714 123.883817,7.03972603 Z M152.441739,17.7780822 L146.929549,17.7780822 L139.884823,9.81369863 L139.884823,17.7780822 L135.237775,17.7780822 L135.237775,0.221917808 L139.884823,0.221917808 L139.884823,7.76712329 L146.731803,0.221917808 L152.169838,0.221917808 L144.38356,8.55616438 L152.441739,17.7780822 Z M158.456535,17.4821918 C157.171175,17.1369846 156.124776,16.6684961 155.317306,16.0767123 L156.775688,12.7972603 C157.632595,13.3397287 158.543045,13.7547931 159.507065,14.0424658 C160.471085,14.3301384 161.43921,14.4739726 162.41147,14.4739726 C163.400208,14.4739726 164.15823,14.3383575 164.685557,14.0671233 C165.212884,13.7958891 165.476544,13.4137011 165.476544,12.9205479 C165.476544,12.4767101 165.237602,12.1109603 164.759712,11.8232877 C164.281822,11.535615 163.383731,11.2520562 162.065413,10.9726027 C160.401036,10.643834 159.107456,10.2369887 158.184634,9.75205479 C157.261811,9.26712086 156.615021,8.6958937 156.244244,8.03835616 C155.873467,7.38081863 155.688081,6.58356633 155.688081,5.64657534 C155.688081,4.57807685 155.992938,3.61233308 156.60266,2.74931507 C157.212382,1.88629705 158.069276,1.21233119 159.173367,0.72739726 C160.277459,0.242463329 161.538081,0 162.955273,0 C164.224154,0 165.455939,0.176710562 166.650665,0.530136986 C167.845391,0.883563411 168.780559,1.34794233 169.456197,1.92328767 L168.022533,5.20273973 C167.248021,4.66027126 166.432324,4.24520692 165.575417,3.95753425 C164.71851,3.66986158 163.861617,3.5260274 163.00471,3.5260274 C162.164282,3.5260274 161.488654,3.68629977 160.977806,4.00684932 C160.466958,4.32739886 160.211537,4.7589014 160.211537,5.30136986 C160.211537,5.59726175 160.30217,5.84383463 160.483439,6.04109589 C160.664708,6.23835715 161.002522,6.4315059 161.496891,6.62054795 C161.99126,6.80958999 162.732803,7.01095784 163.721542,7.22465753 C165.320002,7.56986474 166.576505,7.98492908 167.491089,8.46986301 C168.405672,8.95479695 169.052462,9.52191456 169.431478,10.1712329 C169.810495,10.8205512 170,11.5972558 170,12.5013699 C170,14.2109675 169.332611,15.5547896 167.997814,16.5328767 C166.663017,17.5109638 164.784442,18 162.362033,18 C161.043715,18 159.741895,17.827399 158.456535,17.4821918 Z" id="ETHWORKS"></path>
                </g>
            </g>
        </g>
    </g>
</svg>