<?xml version="1.0" encoding="UTF-8"?>
<svg width="761px" height="707px" viewBox="0 0 761 707" version="1.1" xmlns="http://www.w3.org/2000/svg" xmlns:xlink="http://www.w3.org/1999/xlink">
    <!-- Generator: Sketch 53.2 (72643) - https://sketchapp.com -->
    <title>Illustration</title>
    <desc>Created with Sketch.</desc>
    <defs>
        <polyline id="path-1" points="353 351.533748 353 418.237864 559.378906 418.237864"></polyline>
        <filter x="-13.8%" y="-41.2%" width="127.6%" height="185.5%" filterUnits="objectBoundingBox" id="filter-2">
            <feMorphology radius="1" operator="dilate" in="SourceAlpha" result="shadowSpreadOuter1"></feMorphology>
            <feOffset dx="0" dy="1" in="shadowSpreadOuter1" result="shadowOffsetOuter1"></feOffset>
            <feMorphology radius="1" operator="erode" in="SourceAlpha" result="shadowInner"></feMorphology>
            <feOffset dx="0" dy="1" in="shadowInner" result="shadowInner"></feOffset>
            <feComposite in="shadowOffsetOuter1" in2="shadowInner" operator="out" result="shadowOffsetOuter1"></feComposite>
            <feGaussianBlur stdDeviation="9" in="shadowOffsetOuter1" result="shadowBlurOuter1"></feGaussianBlur>
            <feColorMatrix values="0 0 0 0 0.364705882   0 0 0 0 0.956862745   0 0 0 0 0.82745098  0 0 0 1 0" type="matrix" in="shadowBlurOuter1"></feColorMatrix>
        </filter>
        <linearGradient x1="26.5581273%" y1="18.6653646%" x2="26.5581273%" y2="100%" id="linearGradient-3">
            <stop stop-color="#05062C" offset="0%"></stop>
            <stop stop-color="#05062C" stop-opacity="0" offset="100%"></stop>
        </linearGradient>
        <rect id="path-4" x="0" y="10.0430828" width="115" height="15.0646242"></rect>
        <polyline id="path-5" points="102 6.82121026e-13 102 69.7170409 302.378906 69.7170409"></polyline>
        <filter x="-14.2%" y="-39.4%" width="128.4%" height="181.8%" filterUnits="objectBoundingBox" id="filter-6">
            <feMorphology radius="1" operator="dilate" in="SourceAlpha" result="shadowSpreadOuter1"></feMorphology>
            <feOffset dx="0" dy="1" in="shadowSpreadOuter1" result="shadowOffsetOuter1"></feOffset>
            <feMorphology radius="1" operator="erode" in="SourceAlpha" result="shadowInner"></feMorphology>
            <feOffset dx="0" dy="1" in="shadowInner" result="shadowInner"></feOffset>
            <feComposite in="shadowOffsetOuter1" in2="shadowInner" operator="out" result="shadowOffsetOuter1"></feComposite>
            <feGaussianBlur stdDeviation="9" in="shadowOffsetOuter1" result="shadowBlurOuter1"></feGaussianBlur>
            <feColorMatrix values="0 0 0 0 0.364705882   0 0 0 0 0.956862745   0 0 0 0 0.82745098  0 0 0 1 0" type="matrix" in="shadowBlurOuter1"></feColorMatrix>
        </filter>
        <polyline id="path-7" points="55 161.693633 55 231.410674 302.378906 231.410674"></polyline>
        <filter x="-11.5%" y="-39.4%" width="123.0%" height="181.8%" filterUnits="objectBoundingBox" id="filter-8">
            <feMorphology radius="1" operator="dilate" in="SourceAlpha" result="shadowSpreadOuter1"></feMorphology>
            <feOffset dx="0" dy="1" in="shadowSpreadOuter1" result="shadowOffsetOuter1"></feOffset>
            <feMorphology radius="1" operator="erode" in="SourceAlpha" result="shadowInner"></feMorphology>
            <feOffset dx="0" dy="1" in="shadowInner" result="shadowInner"></feOffset>
            <feComposite in="shadowOffsetOuter1" in2="shadowInner" operator="out" result="shadowOffsetOuter1"></feComposite>
            <feGaussianBlur stdDeviation="9" in="shadowOffsetOuter1" result="shadowBlurOuter1"></feGaussianBlur>
            <feColorMatrix values="0 0 0 0 0.364705882   0 0 0 0 0.956862745   0 0 0 0 0.82745098  0 0 0 1 0" type="matrix" in="shadowBlurOuter1"></feColorMatrix>
        </filter>
        <path d="M0.751953125,158.582631 L0.751953125,65.971481" id="path-9"></path>
        <filter x="-2800.0%" y="-29.7%" width="5700.0%" height="161.5%" filterUnits="objectBoundingBox" id="filter-10">
            <feMorphology radius="1" operator="dilate" in="SourceAlpha" result="shadowSpreadOuter1"></feMorphology>
            <feOffset dx="0" dy="1" in="shadowSpreadOuter1" result="shadowOffsetOuter1"></feOffset>
            <feMorphology radius="1" operator="erode" in="SourceAlpha" result="shadowInner"></feMorphology>
            <feOffset dx="0" dy="1" in="shadowInner" result="shadowInner"></feOffset>
            <feComposite in="shadowOffsetOuter1" in2="shadowInner" operator="out" result="shadowOffsetOuter1"></feComposite>
            <feGaussianBlur stdDeviation="9" in="shadowOffsetOuter1" result="shadowBlurOuter1"></feGaussianBlur>
            <feColorMatrix values="0 0 0 0 0.364705882   0 0 0 0 0.956862745   0 0 0 0 0.82745098  0 0 0 1 0" type="matrix" in="shadowBlurOuter1"></feColorMatrix>
        </filter>
        <linearGradient x1="26.5581273%" y1="35.4289226%" x2="102.230061%" y2="73.0749648%" id="linearGradient-11">
            <stop stop-color="#05062C" offset="0%"></stop>
            <stop stop-color="#05062C" stop-opacity="0" offset="100%"></stop>
        </linearGradient>
        <rect id="path-12" x="39" y="23.0990905" width="162" height="108.465294" rx="9"></rect>
        <rect id="path-13" x="29" y="13.0560077" width="162" height="108.465294" rx="9"></rect>
        <linearGradient x1="-8.55490331%" y1="22.8514374%" x2="100%" y2="75.1747517%" id="linearGradient-14">
            <stop stop-color="#83C3F7" offset="0%"></stop>
            <stop stop-color="#1B58E4" offset="100%"></stop>
        </linearGradient>
        <path d="M180.76934,105.613448 L170.009793,105.613448 C170.941151,104.304884 171.503123,102.709577 171.503123,100.979612 L171.503123,8.01455666 C171.503123,3.59458965 167.918185,0 163.51397,0 L17.3808204,0 C12.978183,0 9.3948245,3.59617387 9.3948245,8.01455666 L9.3948245,100.979612 C9.3948245,102.74443 9.98521044,104.366669 10.9528751,105.694243 L0.0907209217,105.694243 C0.0907209217,105.694243 -0.397057837,106.190103 0.889478372,107.479656 C4.53755835,111.142367 12.7319258,111.459211 12.7319258,111.459211 L12.7319258,111.449706 C12.7319258,111.449706 166.222799,111.486143 166.393285,111.476637 C174.949145,111.476637 177.711646,108.902284 179.97374,107.400446 C181.648605,105.71167 180.76934,105.613448 180.76934,105.613448 Z M80.1448446,107.568373 L80.1448446,106.16634 L100.705745,106.16634 L100.708902,107.568373 L80.1448446,107.568373 Z M165.607156,99.1371668 L15.0524267,99.1371668 L15.0524267,5.40376611 L165.608735,5.40376611 L165.608735,99.1371668 L165.607156,99.1371668 Z" id="path-15"></path>
        <filter x="-43.1%" y="-64.6%" width="186.1%" height="239.9%" filterUnits="objectBoundingBox" id="filter-16">
            <feOffset dx="0" dy="6" in="SourceAlpha" result="shadowOffsetOuter1"></feOffset>
            <feGaussianBlur stdDeviation="25" in="shadowOffsetOuter1" result="shadowBlurOuter1"></feGaussianBlur>
            <feColorMatrix values="0 0 0 0 0.121568627   0 0 0 0 0.360784314   0 0 0 0 0.898039216  0 0 0 1 0" type="matrix" in="shadowBlurOuter1"></feColorMatrix>
        </filter>
        <linearGradient x1="30.2400739%" y1="22.8472222%" x2="95.1612423%" y2="100%" id="linearGradient-17">
            <stop stop-color="#18DAA2" stop-opacity="0" offset="0%"></stop>
            <stop stop-color="#18DAA2" offset="100%"></stop>
        </linearGradient>
        <linearGradient x1="0.428059862%" y1="0%" x2="99.5719401%" y2="100%" id="linearGradient-18">
            <stop stop-color="#7CFFE9" offset="0%"></stop>
            <stop stop-color="#18DAA2" offset="100%"></stop>
        </linearGradient>
        <linearGradient x1="26.5581273%" y1="18.6653646%" x2="26.5581273%" y2="100%" id="linearGradient-19">
            <stop stop-color="#05062C" offset="0%"></stop>
            <stop stop-color="#05062C" stop-opacity="0" offset="100%"></stop>
        </linearGradient>
        <rect id="path-20" x="0" y="10.0430828" width="80" height="15.0646242"></rect>
        <linearGradient x1="42.1111783%" y1="17.4957541%" x2="67.5768225%" y2="101.474185%" id="linearGradient-21">
            <stop stop-color="#05062C" offset="0%"></stop>
            <stop stop-color="#05062C" stop-opacity="0" offset="100%"></stop>
        </linearGradient>
        <rect id="path-22" x="10" y="10.0430828" width="67" height="115.495452" rx="9"></rect>
        <rect id="path-23" x="0" y="0" width="67" height="115.495452" rx="9"></rect>
        <linearGradient x1="29.3320033%" y1="-14.030231%" x2="70.0195466%" y2="107.493207%" id="linearGradient-24">
            <stop stop-color="#83C3F7" offset="0%"></stop>
            <stop stop-color="#1B58E4" offset="100%"></stop>
        </linearGradient>
        <path d="M67,7.80111557 L67,107.694334 C67,111.987588 63.5005656,115.49545 59.2102985,115.49545 L7.78970147,115.49545 C3.50602469,115.49875 0,111.990888 0,107.697634 L0,7.80111557 C2.92666867e-15,3.511162 3.50602469,0 7.78970147,0 L59.2070034,0 C63.4906802,0 67,3.50786204 67,7.80111557 Z M24.3312841,6.56692893 C24.3312841,7.08832329 24.7530615,7.51071871 25.273693,7.51071871 L41.7230119,7.51071871 C42.2436433,7.51071871 42.6654207,7.08832329 42.6654207,6.56692893 C42.6654207,6.04553457 42.2436433,5.61983918 41.7230119,5.61983918 L25.273693,5.61983918 C24.7563567,5.62313914 24.3312841,6.04553457 24.3312841,6.56692893 Z M37.3932032,107.697634 C37.3932032,105.542758 35.6500762,103.797077 33.4983524,103.797077 C31.3466286,103.797077 29.6035017,105.539458 29.6035017,107.697634 C29.6035017,109.855811 31.3466286,111.601492 33.4983524,111.601492 C35.6500762,111.601492 37.3932032,109.852511 37.3932032,107.697634 Z M61.5795013,12.3715661 L5.42379383,12.3715661 L5.42379383,101.061406 L61.5795013,101.061406 L61.5795013,12.3715661 Z" id="path-25"></path>
        <filter x="-116.4%" y="-62.3%" width="332.8%" height="235.1%" filterUnits="objectBoundingBox" id="filter-26">
            <feOffset dx="0" dy="6" in="SourceAlpha" result="shadowOffsetOuter1"></feOffset>
            <feGaussianBlur stdDeviation="25" in="shadowOffsetOuter1" result="shadowBlurOuter1"></feGaussianBlur>
            <feColorMatrix values="0 0 0 0 0.121568627   0 0 0 0 0.360784314   0 0 0 0 0.898039216  0 0 0 1 0" type="matrix" in="shadowBlurOuter1"></feColorMatrix>
        </filter>
        <rect id="path-27" x="0" y="10.0430828" width="80" height="15.0646242"></rect>
        <linearGradient x1="26.5581273%" y1="17.7778967%" x2="102.230061%" y2="101.02738%" id="linearGradient-28">
            <stop stop-color="#05062C" offset="0%"></stop>
            <stop stop-color="#05062C" stop-opacity="0" offset="100%"></stop>
        </linearGradient>
        <rect id="path-29" x="20" y="20.0861656" width="116" height="115.495452" rx="9"></rect>
        <rect id="path-30" x="10" y="10.0430828" width="116" height="115.495452" rx="9"></rect>
        <linearGradient x1="100%" y1="0.434008925%" x2="0%" y2="99.5659911%" id="linearGradient-31">
            <stop stop-color="#83C3F7" offset="0%"></stop>
            <stop stop-color="#1B58E4" offset="100%"></stop>
        </linearGradient>
        <path d="M106.33305,0 L9.66672331,0 C4.33050717,0.00631615755 0.00634373761,4.31167984 0,9.62469622 L0,105.870982 C0.00634373761,111.183773 4.33050717,115.489136 9.66672331,115.495452 L106.333277,115.495452 C111.669266,115.489136 115.99343,111.183773 116,105.870756 L116,9.62469622 C115.99343,4.31167984 111.669266,0.00631615755 106.33305,0 Z M106.33305,111.645529 L9.66672331,111.645529 C6.46358894,111.645529 3.86673464,109.06019 3.86673464,105.870756 L3.86673464,19.2491669 L112.133265,19.2491669 L112.133265,105.870756 C112.133039,109.059965 109.536411,111.645529 106.33305,111.645529 Z M3.86673464,15.3994688 L3.86673464,9.62469622 C3.86673464,6.43548781 6.46358894,3.8499236 9.66672331,3.8499236 L106.333277,3.8499236 C109.536411,3.8499236 112.133265,6.43548781 112.133265,9.62469622 L112.133265,15.3994688 L3.86673464,15.3994688 Z" id="path-32"></path>
        <filter x="-67.2%" y="-62.3%" width="234.5%" height="235.1%" filterUnits="objectBoundingBox" id="filter-33">
            <feOffset dx="0" dy="6" in="SourceAlpha" result="shadowOffsetOuter1"></feOffset>
            <feGaussianBlur stdDeviation="25" in="shadowOffsetOuter1" result="shadowBlurOuter1"></feGaussianBlur>
            <feColorMatrix values="0 0 0 0 0.121568627   0 0 0 0 0.360784314   0 0 0 0 0.898039216  0 0 0 1 0" type="matrix" in="shadowBlurOuter1"></feColorMatrix>
        </filter>
        <linearGradient x1="-11.4155784%" y1="21.2963822%" x2="109.488689%" y2="75.7731856%" id="linearGradient-34">
            <stop stop-color="#83C3F7" offset="0%"></stop>
            <stop stop-color="#1B58E4" offset="100%"></stop>
        </linearGradient>
        <path d="M14,8.03446625 L12,8.03446625 C10.8953475,8.03446625 10,8.93361845 10,10.0429651 C10,11.1523118 10.8953475,12.0516994 12,12.0516994 L14,12.0516994 C15.1046525,12.0516994 16,11.1525472 16,10.0432005 C16,8.93385383 15.1046525,8.03446625 14,8.03446625 Z" id="path-35"></path>
        <filter x="-1300.0%" y="-1792.3%" width="2700.0%" height="3983.3%" filterUnits="objectBoundingBox" id="filter-36">
            <feOffset dx="0" dy="6" in="SourceAlpha" result="shadowOffsetOuter1"></feOffset>
            <feGaussianBlur stdDeviation="25" in="shadowOffsetOuter1" result="shadowBlurOuter1"></feGaussianBlur>
            <feColorMatrix values="0 0 0 0 0.121568627   0 0 0 0 0.360784314   0 0 0 0 0.898039216  0 0 0 1 0" type="matrix" in="shadowBlurOuter1"></feColorMatrix>
        </filter>
        <linearGradient x1="-10.8897875%" y1="-14.030231%" x2="108.979395%" y2="107.493207%" id="linearGradient-37">
            <stop stop-color="#83C3F7" offset="0%"></stop>
            <stop stop-color="#1B58E4" offset="100%"></stop>
        </linearGradient>
        <path d="M21.7599461,8.20003143 C21.277143,7.97927786 20.7226226,7.97927786 20.2400539,8.20003143 C19.9977149,8.30182728 19.7745942,8.44429444 19.5800668,8.62132047 C18.8066444,9.41241289 18.8066444,10.678866 19.5800668,11.4699585 C19.7745942,11.6469845 19.9977149,11.7894517 20.2400539,11.8912475 C20.7242632,12.1051833 21.2757368,12.1051833 21.7599461,11.8912475 C22.0022851,11.7894517 22.2254058,11.6469845 22.4199332,11.4699585 C23.1933556,10.678866 23.1933556,9.41241289 22.4199332,8.62132047 C22.2254058,8.44429444 22.0022851,8.30182728 21.7599461,8.20003143 Z" id="path-38"></path>
        <filter x="-1950.0%" y="-1792.3%" width="4000.0%" height="3983.3%" filterUnits="objectBoundingBox" id="filter-39">
            <feOffset dx="0" dy="6" in="SourceAlpha" result="shadowOffsetOuter1"></feOffset>
            <feGaussianBlur stdDeviation="25" in="shadowOffsetOuter1" result="shadowBlurOuter1"></feGaussianBlur>
            <feColorMatrix values="0 0 0 0 0.121568627   0 0 0 0 0.360784314   0 0 0 0 0.898039216  0 0 0 1 0" type="matrix" in="shadowBlurOuter1"></feColorMatrix>
        </filter>
        <path d="M29.766606,8.18760623 C29.0162685,7.87569055 28.1520446,8.04913351 27.5800353,8.62696376 C27.4035818,8.82176438 27.2615753,9.04519833 27.1601087,9.28787765 C26.9466304,9.77276689 26.9466304,10.3250149 27.1601087,10.8099041 C27.2615753,11.0525835 27.4035818,11.2760174 27.5800353,11.470818 C28.3685692,12.2453265 29.6309266,12.2453265 30.4194606,11.470818 C30.5959141,11.2760174 30.7379205,11.0525835 30.8393871,10.8099041 C30.9513988,10.5721535 31.0062329,10.311637 30.9994373,10.0487735 C31.0043583,9.23530496 30.5169435,8.49952192 29.766606,8.18760623 Z" id="path-40"></path>
        <filter x="-1950.0%" y="-1792.3%" width="4000.0%" height="3983.3%" filterUnits="objectBoundingBox" id="filter-41">
            <feOffset dx="0" dy="6" in="SourceAlpha" result="shadowOffsetOuter1"></feOffset>
            <feGaussianBlur stdDeviation="25" in="shadowOffsetOuter1" result="shadowBlurOuter1"></feGaussianBlur>
            <feColorMatrix values="0 0 0 0 0.121568627   0 0 0 0 0.360784314   0 0 0 0 0.898039216  0 0 0 1 0" type="matrix" in="shadowBlurOuter1"></feColorMatrix>
        </filter>
        <linearGradient x1="100%" y1="48.741126%" x2="0%" y2="54.0536868%" id="linearGradient-42">
            <stop stop-color="#83C3F7" offset="0%"></stop>
            <stop stop-color="#1B58E4" offset="100%"></stop>
        </linearGradient>
        <path d="M104.083402,8.03446625 L38.916598,8.03446625 C37.8580106,8.03446625 37,8.93367114 37,10.0430828 C37,11.1524945 37.8580106,12.0516994 38.916598,12.0516994 L104.083402,12.0516994 C105.141989,12.0516994 106,11.1524945 106,10.0430828 C106,8.93367114 105.141989,8.03446625 104.083402,8.03446625 Z" id="path-43"></path>
        <filter x="-113.0%" y="-1792.3%" width="326.1%" height="3983.3%" filterUnits="objectBoundingBox" id="filter-44">
            <feOffset dx="0" dy="6" in="SourceAlpha" result="shadowOffsetOuter1"></feOffset>
            <feGaussianBlur stdDeviation="25" in="shadowOffsetOuter1" result="shadowBlurOuter1"></feGaussianBlur>
            <feColorMatrix values="0 0 0 0 0.121568627   0 0 0 0 0.360784314   0 0 0 0 0.898039216  0 0 0 1 0" type="matrix" in="shadowBlurOuter1"></feColorMatrix>
        </filter>
        <linearGradient x1="3.87377755%" y1="0%" x2="96.1262224%" y2="100%" id="linearGradient-45">
            <stop stop-color="#7CFFE9" offset="0%"></stop>
            <stop stop-color="#18DAA2" offset="100%"></stop>
        </linearGradient>
        <linearGradient x1="26.5581273%" y1="18.6653646%" x2="26.5581273%" y2="100%" id="linearGradient-46">
            <stop stop-color="#05062C" offset="0%"></stop>
            <stop stop-color="#05062C" stop-opacity="0" offset="100%"></stop>
        </linearGradient>
        <rect id="path-47" x="0" y="0.0430828147" width="95" height="16.0646242"></rect>
        <linearGradient x1="26.5581273%" y1="23.1624544%" x2="102.230061%" y2="92.5003178%" id="linearGradient-48">
            <stop stop-color="#05062C" offset="0%"></stop>
            <stop stop-color="#05062C" stop-opacity="0" offset="100%"></stop>
        </linearGradient>
        <rect id="path-49" x="20" y="20.0861656" width="105" height="95.4092867" rx="9"></rect>
        <rect id="path-50" x="10" y="10.0430828" width="105" height="95.4092867" rx="9"></rect>
        <linearGradient x1="1.04179186%" y1="8.66626531%" x2="100%" y2="91.3337347%" id="linearGradient-51">
            <stop stop-color="#83C3F7" offset="0%"></stop>
            <stop stop-color="#1B58E4" offset="100%"></stop>
        </linearGradient>
        <path d="M96.8242462,29.4676631 C101.296849,29.4676631 104.935715,25.8161457 104.935715,21.3279939 L104.935715,8.13966917 C104.935715,3.65151741 101.296849,0 96.8242462,0 L8.11146919,0 C3.63886669,0 0,3.65151741 0,8.13966917 L0,21.3279939 C0,25.8161457 3.63886669,29.4676631 8.11146919,29.4676631 L50.9277053,29.4676631 L50.9277053,32.9708118 L8.11146919,32.9708118 C3.63886669,32.9708118 0,36.6223292 0,41.110481 L0,54.2988057 C0,58.7869575 3.63886669,62.4384749 8.11146919,62.4384749 L50.9277053,62.4384749 L50.9277053,65.9416237 L8.11146919,65.9416237 C3.63886669,65.9416237 0,69.5931411 0,74.0812928 L0,87.2696176 C0,91.7577693 3.63886669,95.4092867 8.11146919,95.4092867 L96.8242462,95.4092867 C101.296849,95.4092867 104.935715,91.7577693 104.935715,87.2696176 L104.935715,74.0812928 C104.935715,69.5931411 101.296849,65.9416237 96.8242462,65.9416237 L54.0080101,65.9416237 L54.0080101,62.4384749 L96.8242462,62.4384749 C101.296849,62.4384749 104.935715,58.7869575 104.935715,54.2988057 L104.935715,41.110481 C104.935715,36.6223292 101.296849,32.9708118 96.8242462,32.9708118 L54.0080101,32.9708118 L54.0080101,29.4676631 L96.8242462,29.4676631 Z M101.855411,74.0812928 L101.855411,87.2696176 C101.855411,90.0535905 99.5983687,92.3182731 96.8242462,92.3182731 L8.11146919,92.3182731 C5.33734673,92.3182731 3.08030476,90.0535905 3.08030476,87.2696176 L3.08030476,74.0812928 C3.08030476,71.2973199 5.33734673,69.0326373 8.11146919,69.0326373 L96.8242462,69.0326373 C99.5983687,69.0326373 101.855411,71.2973199 101.855411,74.0812928 Z M101.855411,41.110481 L101.855411,54.2988057 C101.855411,57.0827787 99.5983687,59.3474613 96.8242462,59.3474613 L8.11146919,59.3474613 C5.33734673,59.3474613 3.08030476,57.0827787 3.08030476,54.2988057 L3.08030476,41.110481 C3.08030476,38.3265081 5.33734673,36.0618254 8.11146919,36.0618254 L96.8242462,36.0618254 C99.5983687,36.0618254 101.855411,38.3265081 101.855411,41.110481 Z M3.08030476,21.3279939 L3.08030476,8.13966917 C3.08030476,5.35569625 5.33734673,3.09101361 8.11146919,3.09101361 L96.8242462,3.09101361 C99.5983687,3.09101361 101.855411,5.35569625 101.855411,8.13966917 L101.855411,21.3279939 C101.855411,24.1119668 99.5983687,26.3766495 96.8242462,26.3766495 L8.11146919,26.3766495 C5.33734673,26.3766495 3.08030476,24.1119668 3.08030476,21.3279939 Z" id="path-52"></path>
        <filter x="-74.3%" y="-75.5%" width="248.7%" height="263.5%" filterUnits="objectBoundingBox" id="filter-53">
            <feOffset dx="0" dy="6" in="SourceAlpha" result="shadowOffsetOuter1"></feOffset>
            <feGaussianBlur stdDeviation="25" in="shadowOffsetOuter1" result="shadowBlurOuter1"></feGaussianBlur>
            <feColorMatrix values="0 0 0 0 0.121568627   0 0 0 0 0.360784314   0 0 0 0 0.898039216  0 0 0 1 0" type="matrix" in="shadowBlurOuter1"></feColorMatrix>
        </filter>
        <linearGradient x1="0.34585102%" y1="-9.5088477%" x2="196.188074%" y2="631.537159%" id="linearGradient-54">
            <stop stop-color="#83C3F7" offset="0%"></stop>
            <stop stop-color="#1B58E4" offset="100%"></stop>
        </linearGradient>
        <path d="M14.682786,8.24270296 C11.1159985,8.24270296 8.21414602,11.1546438 8.21414602,14.7338315 C8.21414602,18.3130192 11.1159985,21.2249601 14.682786,21.2249601 C18.2495736,21.2249601 21.151426,18.3130192 21.151426,14.7338315 C21.151426,11.1546438 18.2495736,8.24270296 14.682786,8.24270296 Z M14.682786,18.1339465 C12.8144785,18.1339465 11.2944508,16.6086343 11.2944508,14.7338315 C11.2944508,12.8590287 12.8144785,11.3337166 14.682786,11.3337166 C16.5510935,11.3337166 18.0711212,12.8590287 18.0711212,14.7338315 C18.0711212,16.6086343 16.5510935,18.1339465 14.682786,18.1339465 Z" id="path-55"></path>
        <filter x="-602.9%" y="-554.6%" width="1305.8%" height="1301.6%" filterUnits="objectBoundingBox" id="filter-56">
            <feOffset dx="0" dy="6" in="SourceAlpha" result="shadowOffsetOuter1"></feOffset>
            <feGaussianBlur stdDeviation="25" in="shadowOffsetOuter1" result="shadowBlurOuter1"></feGaussianBlur>
            <feColorMatrix values="0 0 0 0 0.121568627   0 0 0 0 0.360784314   0 0 0 0 0.898039216  0 0 0 1 0" type="matrix" in="shadowBlurOuter1"></feColorMatrix>
        </filter>
        <path d="M14.682786,41.2135148 C11.1159985,41.2135148 8.21414602,44.1254557 8.21414602,47.7046434 C8.21414602,51.2838311 11.1159985,54.1957719 14.682786,54.1957719 C18.2495736,54.1957719 21.151426,51.2838311 21.151426,47.7046434 C21.151426,44.1254557 18.2495736,41.2135148 14.682786,41.2135148 Z M14.682786,51.1047583 C12.8144785,51.1047583 11.2944508,49.5794462 11.2944508,47.7046434 C11.2944508,45.8298406 12.8144785,44.3045284 14.682786,44.3045284 C16.5510935,44.3045284 18.0711212,45.8298406 18.0711212,47.7046434 C18.0711212,49.5794462 16.5510935,51.1047583 14.682786,51.1047583 Z" id="path-57"></path>
        <filter x="-602.9%" y="-554.6%" width="1305.8%" height="1301.6%" filterUnits="objectBoundingBox" id="filter-58">
            <feOffset dx="0" dy="6" in="SourceAlpha" result="shadowOffsetOuter1"></feOffset>
            <feGaussianBlur stdDeviation="25" in="shadowOffsetOuter1" result="shadowBlurOuter1"></feGaussianBlur>
            <feColorMatrix values="0 0 0 0 0.121568627   0 0 0 0 0.360784314   0 0 0 0 0.898039216  0 0 0 1 0" type="matrix" in="shadowBlurOuter1"></feColorMatrix>
        </filter>
        <linearGradient x1="2.80182584%" y1="46.1258437%" x2="116.090481%" y2="54.5226467%" id="linearGradient-59">
            <stop stop-color="#83C3F7" offset="0%"></stop>
            <stop stop-color="#1B58E4" offset="100%"></stop>
        </linearGradient>
        <path d="M93.5385878,49.4562177 L39.3252241,49.4562177 C38.4746492,49.4562177 37.7850717,50.1479866 37.7850717,51.0017246 C37.7850717,51.8554625 38.4746492,52.5472314 39.3252241,52.5472314 L93.5385878,52.5472314 C94.3891626,52.5472314 95.0787402,51.8554625 95.0787402,51.0017246 C95.0787402,50.1479866 94.3891626,49.4562177 93.5385878,49.4562177 Z" id="path-60"></path>
        <filter x="-136.1%" y="-2329.3%" width="372.3%" height="5146.9%" filterUnits="objectBoundingBox" id="filter-61">
            <feOffset dx="0" dy="6" in="SourceAlpha" result="shadowOffsetOuter1"></feOffset>
            <feGaussianBlur stdDeviation="25" in="shadowOffsetOuter1" result="shadowBlurOuter1"></feGaussianBlur>
            <feColorMatrix values="0 0 0 0 0.121568627   0 0 0 0 0.360784314   0 0 0 0 0.898039216  0 0 0 1 0" type="matrix" in="shadowBlurOuter1"></feColorMatrix>
        </filter>
        <path d="M37.7850717,44.4075622 C37.7850717,45.2613001 38.4746492,45.953069 39.3252241,45.953069 L93.5385878,45.953069 C94.3891626,45.953069 95.0787402,45.2613001 95.0787402,44.4075622 C95.0787402,43.5538242 94.3891626,42.8620554 93.5385878,42.8620554 L39.3252241,42.8620554 C38.4746492,42.8620554 37.7850717,43.5538242 37.7850717,44.4075622 Z" id="path-62"></path>
        <filter x="-136.1%" y="-2329.3%" width="372.3%" height="5146.9%" filterUnits="objectBoundingBox" id="filter-63">
            <feOffset dx="0" dy="6" in="SourceAlpha" result="shadowOffsetOuter1"></feOffset>
            <feGaussianBlur stdDeviation="25" in="shadowOffsetOuter1" result="shadowBlurOuter1"></feGaussianBlur>
            <feColorMatrix values="0 0 0 0 0.121568627   0 0 0 0 0.360784314   0 0 0 0 0.898039216  0 0 0 1 0" type="matrix" in="shadowBlurOuter1"></feColorMatrix>
        </filter>
        <path d="M95.0787402,18.0309127 C95.0787402,17.1771748 94.3891626,16.4854059 93.5385878,16.4854059 L39.3252241,16.4854059 C38.4746492,16.4854059 37.7850717,17.1771748 37.7850717,18.0309127 C37.7850717,18.8846507 38.4746492,19.5764195 39.3252241,19.5764195 L93.5385878,19.5764195 C94.3891626,19.5764195 95.0787402,18.8846507 95.0787402,18.0309127 Z" id="path-64"></path>
        <filter x="-136.1%" y="-2329.3%" width="372.3%" height="5146.9%" filterUnits="objectBoundingBox" id="filter-65">
            <feOffset dx="0" dy="6" in="SourceAlpha" result="shadowOffsetOuter1"></feOffset>
            <feGaussianBlur stdDeviation="25" in="shadowOffsetOuter1" result="shadowBlurOuter1"></feGaussianBlur>
            <feColorMatrix values="0 0 0 0 0.121568627   0 0 0 0 0.360784314   0 0 0 0 0.898039216  0 0 0 1 0" type="matrix" in="shadowBlurOuter1"></feColorMatrix>
        </filter>
        <path d="M39.3252241,12.9822572 L93.5385878,12.9822572 C94.3891626,12.9822572 95.0787402,12.2904883 95.0787402,11.4367504 C95.0787402,10.5830124 94.3891626,9.89124355 93.5385878,9.89124355 L39.3252241,9.89124355 C38.4746492,9.89124355 37.7850717,10.5830124 37.7850717,11.4367504 C37.7850717,12.2904883 38.4746492,12.9822572 39.3252241,12.9822572 Z" id="path-66"></path>
        <filter x="-136.1%" y="-2329.3%" width="372.3%" height="5146.9%" filterUnits="objectBoundingBox" id="filter-67">
            <feOffset dx="0" dy="6" in="SourceAlpha" result="shadowOffsetOuter1"></feOffset>
            <feGaussianBlur stdDeviation="25" in="shadowOffsetOuter1" result="shadowBlurOuter1"></feGaussianBlur>
            <feColorMatrix values="0 0 0 0 0.121568627   0 0 0 0 0.360784314   0 0 0 0 0.898039216  0 0 0 1 0" type="matrix" in="shadowBlurOuter1"></feColorMatrix>
        </filter>
        <path d="M14.682786,74.1843266 C11.1159985,74.1843266 8.21414602,77.0962675 8.21414602,80.6754552 C8.21414602,84.2546429 11.1159985,87.1665838 14.682786,87.1665838 C18.2495736,87.1665838 21.151426,84.2546429 21.151426,80.6754552 C21.151426,77.0962675 18.2495736,74.1843266 14.682786,74.1843266 Z M14.682786,84.0755702 C12.8144785,84.0755702 11.2944508,82.550258 11.2944508,80.6754552 C11.2944508,78.8006524 12.8144785,77.2753402 14.682786,77.2753402 C16.5510935,77.2753402 18.0711212,78.8006524 18.0711212,80.6754552 C18.0711212,82.550258 16.5510935,84.0755702 14.682786,84.0755702 Z" id="path-68"></path>
        <filter x="-602.9%" y="-554.6%" width="1305.8%" height="1301.6%" filterUnits="objectBoundingBox" id="filter-69">
            <feOffset dx="0" dy="6" in="SourceAlpha" result="shadowOffsetOuter1"></feOffset>
            <feGaussianBlur stdDeviation="25" in="shadowOffsetOuter1" result="shadowBlurOuter1"></feGaussianBlur>
            <feColorMatrix values="0 0 0 0 0.121568627   0 0 0 0 0.360784314   0 0 0 0 0.898039216  0 0 0 1 0" type="matrix" in="shadowBlurOuter1"></feColorMatrix>
        </filter>
        <path d="M93.5385878,82.4270296 L39.3252241,82.4270296 C38.4746492,82.4270296 37.7850717,83.1187984 37.7850717,83.9725364 C37.7850717,84.8262743 38.4746492,85.5180432 39.3252241,85.5180432 L93.5385878,85.5180432 C94.3891626,85.5180432 95.0787402,84.8262743 95.0787402,83.9725364 C95.0787402,83.1187984 94.3891626,82.4270296 93.5385878,82.4270296 Z" id="path-70"></path>
        <filter x="-136.1%" y="-2329.3%" width="372.3%" height="5146.9%" filterUnits="objectBoundingBox" id="filter-71">
            <feOffset dx="0" dy="6" in="SourceAlpha" result="shadowOffsetOuter1"></feOffset>
            <feGaussianBlur stdDeviation="25" in="shadowOffsetOuter1" result="shadowBlurOuter1"></feGaussianBlur>
            <feColorMatrix values="0 0 0 0 0.121568627   0 0 0 0 0.360784314   0 0 0 0 0.898039216  0 0 0 1 0" type="matrix" in="shadowBlurOuter1"></feColorMatrix>
        </filter>
        <path d="M37.7850717,77.378374 C37.7850717,78.232112 38.4746492,78.9238808 39.3252241,78.9238808 L93.5385878,78.9238808 C94.3891626,78.9238808 95.0787402,78.232112 95.0787402,77.378374 C95.0787402,76.5246361 94.3891626,75.8328672 93.5385878,75.8328672 L39.3252241,75.8328672 C38.4746492,75.8328672 37.7850717,76.5246361 37.7850717,77.378374 Z" id="path-72"></path>
        <filter x="-136.1%" y="-2329.3%" width="372.3%" height="5146.9%" filterUnits="objectBoundingBox" id="filter-73">
            <feOffset dx="0" dy="6" in="SourceAlpha" result="shadowOffsetOuter1"></feOffset>
            <feGaussianBlur stdDeviation="25" in="shadowOffsetOuter1" result="shadowBlurOuter1"></feGaussianBlur>
            <feColorMatrix values="0 0 0 0 0.121568627   0 0 0 0 0.360784314   0 0 0 0 0.898039216  0 0 0 1 0" type="matrix" in="shadowBlurOuter1"></feColorMatrix>
        </filter>
        <rect id="path-74" x="0" y="10.0430828" width="80" height="15.0646242"></rect>
        <linearGradient x1="26.5581273%" y1="38.7135407%" x2="102.230061%" y2="67.873397%" id="linearGradient-75">
            <stop stop-color="#05062C" offset="0%"></stop>
            <stop stop-color="#05062C" stop-opacity="0" offset="100%"></stop>
        </linearGradient>
        <rect id="path-76" x="20" y="20.0861656" width="196" height="115.495452" rx="9"></rect>
        <rect id="path-77" x="10" y="10.0430828" width="196" height="115.495452" rx="9"></rect>
        <linearGradient x1="100%" y1="32.6384846%" x2="0%" y2="67.3615154%" id="linearGradient-78">
            <stop stop-color="#83C3F7" offset="0%"></stop>
            <stop stop-color="#1B58E4" offset="100%"></stop>
        </linearGradient>
        <path d="M186.33305,0 L9.66672331,0 C4.33050717,0.00631615755 0.00634373761,4.31167984 1.08002496e-12,9.62469622 L1.08002496e-12,105.870982 C0.00634373761,111.183773 4.33050717,115.489136 9.66672331,115.495452 L186.333277,115.495452 C191.669266,115.489136 195.99343,111.183773 196,105.870756 L196,9.62469622 C195.99343,4.31167984 191.669266,0.00631615755 186.33305,0 Z M186.33305,111.645529 L9.66672331,111.645529 C6.46358894,111.645529 3.86673464,109.06019 3.86673464,105.870756 L3.86673464,19.2491669 L192.133265,19.2491669 L192.133265,105.870756 C192.133039,109.059965 189.536411,111.645529 186.33305,111.645529 Z M3.86673464,15.3994688 L3.86673464,9.62469622 C3.86673464,6.43548781 6.46358894,3.8499236 9.66672331,3.8499236 L186.333277,3.8499236 C189.536411,3.8499236 192.133265,6.43548781 192.133265,9.62469622 L192.133265,15.3994688 L3.86673464,15.3994688 Z" id="path-79"></path>
        <filter x="-39.8%" y="-62.3%" width="179.6%" height="235.1%" filterUnits="objectBoundingBox" id="filter-80">
            <feOffset dx="0" dy="6" in="SourceAlpha" result="shadowOffsetOuter1"></feOffset>
            <feGaussianBlur stdDeviation="25" in="shadowOffsetOuter1" result="shadowBlurOuter1"></feGaussianBlur>
            <feColorMatrix values="0 0 0 0 0.121568627   0 0 0 0 0.360784314   0 0 0 0 0.898039216  0 0 0 1 0" type="matrix" in="shadowBlurOuter1"></feColorMatrix>
        </filter>
        <path d="M14,8.03446625 L12,8.03446625 C10.8953475,8.03446625 10,8.93361845 10,10.0429651 C10,11.1523118 10.8953475,12.0516994 12,12.0516994 L14,12.0516994 C15.1046525,12.0516994 16,11.1525472 16,10.0432005 C16,8.93385383 15.1046525,8.03446625 14,8.03446625 Z" id="path-81"></path>
        <filter x="-1300.0%" y="-1792.3%" width="2700.0%" height="3983.3%" filterUnits="objectBoundingBox" id="filter-82">
            <feOffset dx="0" dy="6" in="SourceAlpha" result="shadowOffsetOuter1"></feOffset>
            <feGaussianBlur stdDeviation="25" in="shadowOffsetOuter1" result="shadowBlurOuter1"></feGaussianBlur>
            <feColorMatrix values="0 0 0 0 0.121568627   0 0 0 0 0.360784314   0 0 0 0 0.898039216  0 0 0 1 0" type="matrix" in="shadowBlurOuter1"></feColorMatrix>
        </filter>
        <path d="M21.7599461,8.20003143 C21.277143,7.97927786 20.7226226,7.97927786 20.2400539,8.20003143 C19.9977149,8.30182728 19.7745942,8.44429444 19.5800668,8.62132047 C18.8066444,9.41241289 18.8066444,10.678866 19.5800668,11.4699585 C19.7745942,11.6469845 19.9977149,11.7894517 20.2400539,11.8912475 C20.7242632,12.1051833 21.2757368,12.1051833 21.7599461,11.8912475 C22.0022851,11.7894517 22.2254058,11.6469845 22.4199332,11.4699585 C23.1933556,10.678866 23.1933556,9.41241289 22.4199332,8.62132047 C22.2254058,8.44429444 22.0022851,8.30182728 21.7599461,8.20003143 Z" id="path-83"></path>
        <filter x="-1950.0%" y="-1792.3%" width="4000.0%" height="3983.3%" filterUnits="objectBoundingBox" id="filter-84">
            <feOffset dx="0" dy="6" in="SourceAlpha" result="shadowOffsetOuter1"></feOffset>
            <feGaussianBlur stdDeviation="25" in="shadowOffsetOuter1" result="shadowBlurOuter1"></feGaussianBlur>
            <feColorMatrix values="0 0 0 0 0.121568627   0 0 0 0 0.360784314   0 0 0 0 0.898039216  0 0 0 1 0" type="matrix" in="shadowBlurOuter1"></feColorMatrix>
        </filter>
        <path d="M29.766606,8.18760623 C29.0162685,7.87569055 28.1520446,8.04913351 27.5800353,8.62696376 C27.4035818,8.82176438 27.2615753,9.04519833 27.1601087,9.28787765 C26.9466304,9.77276689 26.9466304,10.3250149 27.1601087,10.8099041 C27.2615753,11.0525835 27.4035818,11.2760174 27.5800353,11.470818 C28.3685692,12.2453265 29.6309266,12.2453265 30.4194606,11.470818 C30.5959141,11.2760174 30.7379205,11.0525835 30.8393871,10.8099041 C30.9513988,10.5721535 31.0062329,10.311637 30.9994373,10.0487735 C31.0043583,9.23530496 30.5169435,8.49952192 29.766606,8.18760623 Z" id="path-85"></path>
        <filter x="-1950.0%" y="-1792.3%" width="4000.0%" height="3983.3%" filterUnits="objectBoundingBox" id="filter-86">
            <feOffset dx="0" dy="6" in="SourceAlpha" result="shadowOffsetOuter1"></feOffset>
            <feGaussianBlur stdDeviation="25" in="shadowOffsetOuter1" result="shadowBlurOuter1"></feGaussianBlur>
            <feColorMatrix values="0 0 0 0 0.121568627   0 0 0 0 0.360784314   0 0 0 0 0.898039216  0 0 0 1 0" type="matrix" in="shadowBlurOuter1"></feColorMatrix>
        </filter>
        <path d="M184.083402,8.03446625 L118.916598,8.03446625 C117.858011,8.03446625 117,8.93367114 117,10.0430828 C117,11.1524945 117.858011,12.0516994 118.916598,12.0516994 L184.083402,12.0516994 C185.141989,12.0516994 186,11.1524945 186,10.0430828 C186,8.93367114 185.141989,8.03446625 184.083402,8.03446625 Z" id="path-87"></path>
        <filter x="-113.0%" y="-1792.3%" width="326.1%" height="3983.3%" filterUnits="objectBoundingBox" id="filter-88">
            <feOffset dx="0" dy="6" in="SourceAlpha" result="shadowOffsetOuter1"></feOffset>
            <feGaussianBlur stdDeviation="25" in="shadowOffsetOuter1" result="shadowBlurOuter1"></feGaussianBlur>
            <feColorMatrix values="0 0 0 0 0.121568627   0 0 0 0 0.360784314   0 0 0 0 0.898039216  0 0 0 1 0" type="matrix" in="shadowBlurOuter1"></feColorMatrix>
        </filter>
        <linearGradient x1="0%" y1="30.1764553%" x2="100%" y2="69.8235447%" id="linearGradient-89">
            <stop stop-color="#7CFFE9" offset="0%"></stop>
            <stop stop-color="#18DAA2" offset="100%"></stop>
        </linearGradient>
        <linearGradient x1="26.5581273%" y1="18.6653646%" x2="26.5581273%" y2="100%" id="linearGradient-90">
            <stop stop-color="#05062C" offset="0%"></stop>
            <stop stop-color="#05062C" stop-opacity="0" offset="100%"></stop>
        </linearGradient>
        <rect id="path-91" x="0" y="10.0430828" width="78" height="15.0646242"></rect>
        <linearGradient x1="33.9144957%" y1="17.4957541%" x2="85.8395798%" y2="101.474185%" id="linearGradient-92">
            <stop stop-color="#05062C" offset="0%"></stop>
            <stop stop-color="#05062C" stop-opacity="0" offset="100%"></stop>
        </linearGradient>
        <path d="M114.953703,40.1032068 C114.917468,38.5215563 113.786404,37.1572429 112.206604,36.9410402 C104.842882,35.9277726 97.5804255,34.1649267 90.4611314,31.5525049 C83.3754845,28.9525625 75.5355256,25.3231454 67.0795642,20.5430245 C66.0059274,19.9357446 64.9960262,19.932017 63.9235217,20.5430245 C55.5261194,25.3207144 47.7422931,28.9425141 40.6006753,31.5525049 C33.4791165,34.1550404 26.2202189,35.9290692 18.9150563,36.9410402 C17.3350939,37.159674 16.2265158,38.5215563 16.0506768,40.1032068 C15.3499092,70.1456527 21.917907,94.7269554 35.691258,113.834798 C43.1945831,124.243319 52.5845778,132.691592 63.9235217,139.133426 C64.8001283,139.778145 66.1744869,139.729361 67.1968441,139.133426 C78.4498906,132.584139 87.8274293,124.197129 95.3134455,113.834798 C109.105076,94.7394349 115.619529,70.1467871 114.953703,40.1032068 Z" id="path-93"></path>
        <path d="M104.953703,30.060124 C104.917468,28.4784734 103.786404,27.1141601 102.206604,26.8979574 C94.842882,25.8846898 87.5804255,24.1218439 80.4611314,21.5094221 C73.3754845,18.9094797 65.5355256,15.2800626 57.0795642,10.4999417 C56.0059274,9.89266177 54.9960262,9.88893414 53.9235217,10.4999417 C45.5261194,15.2776315 37.7422931,18.8994313 30.6006753,21.5094221 C23.4791165,24.1119576 16.2202189,25.8859863 8.91505632,26.8979574 C7.33509391,27.1165912 6.2265158,28.4784734 6.05067684,30.060124 C5.34990924,60.1025698 11.917907,84.6838726 25.691258,103.791715 C33.1945831,114.200236 42.5845778,122.648509 53.9235217,129.090344 C54.8001283,129.735062 56.1744869,129.686279 57.1968441,129.090344 C68.4498906,122.541056 77.8274293,114.154046 85.3134455,103.791715 C99.1050761,84.6963521 105.619529,60.1037043 104.953703,30.060124 Z" id="path-94"></path>
        <linearGradient x1="16.5466148%" y1="2.57564706%" x2="80.6412635%" y2="98.2282596%" id="linearGradient-95">
            <stop stop-color="#83C3F7" offset="0%"></stop>
            <stop stop-color="#1B58E4" offset="100%"></stop>
        </linearGradient>
        <path d="M98.9537032,20.0170411 C98.9174677,18.4353906 97.7864042,17.0710773 96.2066036,16.8548746 C88.842882,15.841607 81.5804255,14.0787611 74.4611314,11.4663393 C67.3754845,8.86639691 59.5355256,5.23697979 51.0795642,0.456858851 C50.0059274,-0.150421042 48.9960262,-0.154148674 47.9235217,0.456858851 C39.5261194,5.23454873 31.7422931,8.85634851 24.6006753,11.4663393 C17.4791165,14.0688748 10.2202189,15.8429035 2.91505632,16.8548746 C1.33509391,17.0735083 0.226515803,18.4353906 0.0506768414,20.0170411 C-0.65009076,50.059487 5.91790697,74.6407898 19.691258,93.748632 C27.1945831,104.157153 36.5845778,112.605426 47.9235217,119.047261 C48.8001283,119.691979 50.1744869,119.643196 51.1968441,119.047261 C62.4498906,112.497973 71.8274293,104.110963 79.3134455,93.748632 C93.1050761,74.6532692 99.6195295,50.0606215 98.9537032,20.0170411 Z M74.0520267,90.0592486 C67.5450146,99.0645596 59.3808779,106.573469 49.50219,112.605264 C39.6233404,106.573307 31.4205418,99.0921116 24.9521915,90.0592486 C12.4221691,72.5617435 6.30565857,50.1768264 6.53876247,22.8868317 C13.4359527,21.7737283 20.2758781,19.8995397 27.1145093,17.380957 C33.9531405,14.8635087 41.4352743,11.4076696 49.50219,7.01619481 C57.5691057,11.4076696 64.992357,14.8635087 71.8311499,17.380957 C78.6697811,19.8997018 85.5669714,21.7737283 92.4654558,22.8868317 C92.6987214,50.3529975 86.5433872,72.7691943 74.0520267,90.0592486 Z" id="path-96"></path>
        <filter x="-78.8%" y="-60.2%" width="257.6%" height="230.5%" filterUnits="objectBoundingBox" id="filter-97">
            <feOffset dx="0" dy="6" in="SourceAlpha" result="shadowOffsetOuter1"></feOffset>
            <feGaussianBlur stdDeviation="25" in="shadowOffsetOuter1" result="shadowBlurOuter1"></feGaussianBlur>
            <feColorMatrix values="0 0 0 0 0.121568627   0 0 0 0 0.360784314   0 0 0 0 0.898039216  0 0 0 1 0" type="matrix" in="shadowBlurOuter1"></feColorMatrix>
        </filter>
        <path d="M14.4921221,1.51435418 C12.4816181,-0.504805649 9.21045549,-0.504774265 7.19995156,1.51438556 C5.82666763,2.89358195 5.3496667,4.92608023 5.94429286,6.77008259 L0.137344018,12.6020637 C0.0494375966,12.6903486 0,12.8098612 0,12.9349288 L0,15.5981635 C0,15.8583732 0.209656659,16.0689325 0.468750916,16.0689325 L3.12056859,16.0689325 C3.24506884,16.0689325 3.36410032,16.0192821 3.45197549,15.9309972 L4.11482054,15.2648276 C4.21597698,15.1632356 4.26541458,15.0207181 4.2489458,14.8777299 L4.16653939,14.1623806 L5.15347882,14.0690428 C5.37779175,14.0478896 5.55494835,13.8699703 5.57601089,13.6446916 L5.66894857,12.6535031 L6.38123121,12.7367036 C6.51351272,12.7546243 6.64673173,12.7100267 6.74698193,12.6208631 C6.84676337,12.5312287 6.90398223,12.4033992 6.90398223,12.2691672 L6.90398223,11.3926266 L7.76092141,11.3926266 C7.88542165,11.3926266 8.00445313,11.3429762 8.09232831,11.2546913 L9.2944244,10.0633945 C11.130053,10.6610515 13.1188381,10.2180892 14.4921221,8.83795132 C16.502626,6.81882288 16.502626,3.53351401 14.4921221,1.51435418 Z M13.1660257,4.84331903 C12.6176184,5.39408744 11.7258979,5.39408744 11.1774906,4.84331903 C10.6290833,4.29255063 10.6290833,3.39699098 11.1774906,2.84622258 C11.7258979,2.29545418 12.6176184,2.29545418 13.1660257,2.84622258 C13.714433,3.39699098 13.7144018,4.29255063 13.1660257,4.84331903 Z" id="path-98"></path>
        <filter x="-487.5%" y="-448.1%" width="1075.0%" height="1070.8%" filterUnits="objectBoundingBox" id="filter-99">
            <feOffset dx="0" dy="6" in="SourceAlpha" result="shadowOffsetOuter1"></feOffset>
            <feGaussianBlur stdDeviation="25" in="shadowOffsetOuter1" result="shadowBlurOuter1"></feGaussianBlur>
            <feColorMatrix values="0 0 0 0 0.0941176471   0 0 0 0 0.854901961   0 0 0 0 0.635294118  0 0 0 1 0" type="matrix" in="shadowBlurOuter1"></feColorMatrix>
        </filter>
        <rect id="path-100" x="0" y="10.0430828" width="80" height="15.0646242"></rect>
        <linearGradient x1="26.5581273%" y1="26.7862844%" x2="102.230061%" y2="86.7615692%" id="linearGradient-101">
            <stop stop-color="#05062C" offset="0%"></stop>
            <stop stop-color="#05062C" stop-opacity="0" offset="100%"></stop>
        </linearGradient>
        <rect id="path-102" x="20" y="35.1507899" width="82" height="69.2972714" rx="9"></rect>
        <rect id="path-103" x="10" y="25.107707" width="82" height="69.2972714" rx="9"></rect>
        <linearGradient x1="3.93906624%" y1="2.57564706%" x2="92.1890102%" y2="98.2282596%" id="linearGradient-104">
            <stop stop-color="#83C3F7" offset="0%"></stop>
            <stop stop-color="#1B58E4" offset="100%"></stop>
        </linearGradient>
        <path d="M82,39.2992372 L78.025839,39.2992372 L78.025839,20.6800966 C78.025839,16.2163296 74.4602989,12.5849056 70.0775169,12.5849056 L64.6949489,12.5849056 L59.1867276,2.49828868 C58.3472241,0.956791408 56.749595,0 55.0169133,0 C54.2093178,0 53.4081535,0.212116473 52.7007345,0.611913199 L31.5612748,12.5846537 L7.9483221,12.5846537 C3.56554002,12.5846537 0,16.2160777 0,20.6798446 L0,76.2667047 C0,80.7304717 3.56554002,84.3618956 7.9483221,84.3618956 L70.0775169,84.3618956 C74.4602989,84.3618956 78.025839,80.7304717 78.025839,76.2667047 L78.025839,59.9417977 L82,59.9417977 L82,39.2992372 Z M70.0775169,15.8228308 C72.5255328,15.8228308 74.5253518,17.7170158 74.7939731,20.1407363 L68.8199931,20.1407363 L66.4639911,15.8228308 L70.0775169,15.8228308 Z M54.2474096,3.44198026 C54.9929204,3.01623579 55.9961691,3.314005 56.4077583,4.07026824 L65.1827217,20.1392247 L24.7638689,20.1392247 L54.2474096,3.44198026 Z M74.8464112,76.2667047 C74.8464112,78.9446122 72.7065925,81.1239704 70.0772695,81.1239704 L7.9483221,81.1239704 C5.31899914,81.1239704 3.17918043,78.9446122 3.17918043,76.2667047 L3.17918043,20.6800966 C3.17918043,18.0021891 5.31899914,15.8228308 7.9483221,15.8228308 L25.8447853,15.8228308 L18.2207381,20.1409882 L8.9419242,20.1409882 C8.06284482,20.1409882 7.35221031,20.8662653 7.35221031,21.7600767 C7.35221031,22.6538882 8.06284482,23.3791653 8.9419242,23.3791653 L12.5027646,23.3791653 L70.5877984,23.3791653 L74.8464112,23.3791653 L74.8464112,39.3007487 L63.2212419,39.3007487 C57.8225963,39.3007487 53.4289308,43.7758521 53.4289308,49.2740018 L53.4289308,49.9703081 C53.4289308,55.4687097 57.8228436,59.9435611 63.2212419,59.9435611 L74.8464112,59.9435611 L74.8464112,76.2667047 Z M78.8205722,56.7038725 L78.025839,56.7038725 L63.2212419,56.7038725 C59.5745713,56.7038725 56.6081112,53.6828502 56.6081112,49.9685447 L56.6081112,49.2722383 C56.6081112,45.5581847 59.5743239,42.5369105 63.2212419,42.5369105 L78.025839,42.5369105 L78.8205722,42.5369105 L78.8205722,56.7038725 Z M68.0903127,49.7534052 C68.0903127,51.7287083 66.5196447,53.3281471 64.5804262,53.3281471 C62.6409604,53.3281471 61.0705398,51.7284564 61.0705398,49.7534052 C61.0705398,47.7783539 62.6412078,46.1786632 64.5804262,46.1786632 C66.519892,46.1784112 68.0903127,47.7796135 68.0903127,49.7534052 Z" id="path-105"></path>
        <filter x="-95.1%" y="-85.3%" width="290.2%" height="284.9%" filterUnits="objectBoundingBox" id="filter-106">
            <feOffset dx="0" dy="6" in="SourceAlpha" result="shadowOffsetOuter1"></feOffset>
            <feGaussianBlur stdDeviation="25" in="shadowOffsetOuter1" result="shadowBlurOuter1"></feGaussianBlur>
            <feColorMatrix values="0 0 0 0 0.121568627   0 0 0 0 0.360784314   0 0 0 0 0.898039216  0 0 0 1 0" type="matrix" in="shadowBlurOuter1"></feColorMatrix>
        </filter>
        <rect id="path-107" x="0" y="10.0430828" width="80" height="15.0646242"></rect>
    </defs>
    <g id="Page-1" stroke="none" stroke-width="1" fill="none" fill-rule="evenodd">
        <g id="Tablet" transform="translate(0.000000, -3020.000000)">
            <g id="How-does-it-work?" transform="translate(12.000000, 2936.000000)">
                <g id="Illustration" transform="translate(18.000000, 95.598851)">
                    <polyline id="tPath-2" stroke="#18DAA2" opacity="0.400000006" points="91.0625 218.251055 91.0625 302.644335 194 302.644335"></polyline>
                    <polyline id="tPath-2" stroke="#18DAA2" opacity="0.400000006" transform="translate(211.468750, 409.993513) scale(-1, 1) translate(-211.468750, -409.993513) " points="169 351.533748 169 468.453278 253.9375 468.453278"></polyline>
                    <polyline id="tPath-2-Copy" stroke="#18DAA2" opacity="0.400000006" points="304 351.533748 304 544.780708 343.9375 544.780708"></polyline>
                    <g id="tPath-2-Copy-2" opacity="0.400000006" stroke-dasharray="8,8">
                        <use fill="black" fill-opacity="1" filter="url(#filter-2)" xlink:href="#path-1"></use>
                        <use stroke="#18DAA2" stroke-width="2" xlink:href="#path-1"></use>
                    </g>
                    <g id="tGroup-11-Copy" transform="translate(464.988368, 418.320249) rotate(-90.000000) translate(-464.988368, -418.320249) translate(458.488368, 414.320249)" fill="#17D2A5" fill-rule="nonzero">
                        <path d="M1.09115918,2.91335176 C0.588892838,2.40925035 0.58862741,1.59167389 1.09056633,1.08724364 C1.59250526,0.582813392 2.40657447,0.582546819 2.90884082,1.08664824 L7.40884082,5.60308936 C7.91110716,6.10719077 7.91137259,6.92476723 7.40943367,7.42919748 C6.90749474,7.93362773 6.09342553,7.9338943 5.59115918,7.42979288 L1.09115918,2.91335176 Z" id="tStroke-354"></path>
                        <path d="M7.40884082,7.42979288 C6.90657447,7.9338943 6.09250526,7.93362773 5.59056633,7.42919748 C5.08862741,6.92476723 5.08889284,6.10719077 5.59115918,5.60308936 L10.0911592,1.08664824 C10.5934255,0.582546819 11.4074947,0.582813392 11.9094337,1.08724364 C12.4113726,1.59167389 12.4111072,2.40925035 11.9088408,2.91335176 L7.40884082,7.42979288 Z" id="tStroke-355"></path>
                    </g>
                    <g id="tGroup-12-Copy-5" transform="translate(408.000000, 378.650072)">
                        <g id="tRectangle" opacity="0.298758371">
                            <use fill="#18DAA2" xlink:href="#path-4"></use>
                            <use fill="url(#linearGradient-3)" xlink:href="#path-4"></use>
                        </g>
                        <text id="Transaction" font-family="Geomanist-Book, Geomanist" font-size="18" font-weight="300" letter-spacing="-0.1285714" fill="#FFFFFF">
                            <tspan x="12.3021427" y="18.0495452">Transaction</tspan>
                        </text>
                    </g>
                    <g id="tGroup-20" transform="translate(332.000000, 80.370512)">
                        <g id="tPath-2-Copy-3" opacity="0.400000006" stroke-dasharray="8,8" transform="translate(202.189453, 34.858520) scale(-1, -1) translate(-202.189453, -34.858520) ">
                            <use fill="black" fill-opacity="1" filter="url(#filter-6)" xlink:href="#path-5"></use>
                            <use stroke="#18DAA2" stroke-width="2" xlink:href="#path-5"></use>
                        </g>
                        <g id="tPath-2-Copy-4" opacity="0.400000006" stroke-dasharray="8,8" transform="translate(178.689453, 196.552154) scale(-1, 1) translate(-178.689453, -196.552154) ">
                            <use fill="black" fill-opacity="1" filter="url(#filter-8)" xlink:href="#path-7"></use>
                            <use stroke="#18DAA2" stroke-width="2" xlink:href="#path-7"></use>
                        </g>
                        <g id="tPath-3" opacity="0.400000006" stroke-dasharray="8,8">
                            <use fill="black" fill-opacity="1" filter="url(#filter-10)" xlink:href="#path-9"></use>
                            <use stroke="#18DAA2" stroke-width="2" xlink:href="#path-9"></use>
                        </g>
                        <g id="tGroup-11" transform="translate(296.000000, 25.116324)" fill="#17D2A5" fill-rule="nonzero">
                            <path d="M1.09115918,2.91335176 C0.588892838,2.40925035 0.58862741,1.59167389 1.09056633,1.08724364 C1.59250526,0.582813392 2.40657447,0.582546819 2.90884082,1.08664824 L7.40884082,5.60308936 C7.91110716,6.10719077 7.91137259,6.92476723 7.40943367,7.42919748 C6.90749474,7.93362773 6.09342553,7.9338943 5.59115918,7.42979288 L1.09115918,2.91335176 Z" id="Stroke-354"></path>
                            <path d="M7.40884082,7.42979288 C6.90657447,7.9338943 6.09250526,7.93362773 5.59056633,7.42919748 C5.08862741,6.92476723 5.08889284,6.10719077 5.59115918,5.60308936 L10.0911592,1.08664824 C10.5934255,0.582546819 11.4074947,0.582813392 11.9094337,1.08724364 C12.4113726,1.59167389 12.4111072,2.40925035 11.9088408,2.91335176 L7.40884082,7.42979288 Z" id="Stroke-355"></path>
                        </g>
                        <g id="tGroup-11-Copy" transform="translate(296.000000, 205.891814)" fill="#17D2A5" fill-rule="nonzero">
                            <path d="M1.09115918,2.91335176 C0.588892838,2.40925035 0.58862741,1.59167389 1.09056633,1.08724364 C1.59250526,0.582813392 2.40657447,0.582546819 2.90884082,1.08664824 L7.40884082,5.60308936 C7.91110716,6.10719077 7.91137259,6.92476723 7.40943367,7.42919748 C6.90749474,7.93362773 6.09342553,7.9338943 5.59115918,7.42979288 L1.09115918,2.91335176 Z" id="tStroke-354"></path>
                            <path d="M7.40884082,7.42979288 C6.90657447,7.9338943 6.09250526,7.93362773 5.59056633,7.42919748 C5.08862741,6.92476723 5.08889284,6.10719077 5.59115918,5.60308936 L10.0911592,1.08664824 C10.5934255,0.582546819 11.4074947,0.582813392 11.9094337,1.08724364 C12.4113726,1.59167389 12.4111072,2.40925035 11.9088408,2.91335176 L7.40884082,7.42979288 Z" id="tStroke-355"></path>
                        </g>
                    </g>
                    <g id="tGroup-17" transform="translate(0.000000, 422.839636)">
                        <g id="tGroup-6">
                            <g id="tRectangle" opacity="0.298758371">
                                <use fill="#3774E8" xlink:href="#path-12"></use>
                                <use fill="url(#linearGradient-11)" xlink:href="#path-12"></use>
                            </g>
                            <g id="tRectangle" opacity="0.298758371">
                                <use fill="#3774E8" xlink:href="#path-13"></use>
                                <use fill="url(#linearGradient-11)" xlink:href="#path-13"></use>
                            </g>
                            <g id="tnotebook">
                                <g id="tShape">
                                    <use fill="black" fill-opacity="1" filter="url(#filter-16)" xlink:href="#path-15"></use>
                                    <use fill="url(#linearGradient-14)" fill-rule="evenodd" xlink:href="#path-15"></use>
                                </g>
                            </g>
                            <g id="tGroup-7" transform="translate(68.000000, 30.129248)">
                                <ellipse id="tOval" fill="url(#linearGradient-17)" opacity="0.300000012" cx="22.5" cy="22.5969363" rx="22.5" ry="22.5969363"></ellipse>
                                <g id="tkey" transform="translate(15.000000, 15.064624)" fill="url(#linearGradient-18)">
                                    <path d="M14.4921221,1.51435418 C12.4816181,-0.504805649 9.21045549,-0.504774265 7.19995156,1.51438556 C5.82666763,2.89358195 5.3496667,4.92608023 5.94429286,6.77008259 L0.137344018,12.6020637 C0.0494375966,12.6903486 0,12.8098612 0,12.9349288 L0,15.5981635 C0,15.8583732 0.209656659,16.0689325 0.468750916,16.0689325 L3.12056859,16.0689325 C3.24506884,16.0689325 3.36410032,16.0192821 3.45197549,15.9309972 L4.11482054,15.2648276 C4.21597698,15.1632356 4.26541458,15.0207181 4.2489458,14.8777299 L4.16653939,14.1623806 L5.15347882,14.0690428 C5.37779175,14.0478896 5.55494835,13.8699703 5.57601089,13.6446916 L5.66894857,12.6535031 L6.38123121,12.7367036 C6.51351272,12.7546243 6.64673173,12.7100267 6.74698193,12.6208631 C6.84676337,12.5312287 6.90398223,12.4033992 6.90398223,12.2691672 L6.90398223,11.3926266 L7.76092141,11.3926266 C7.88542165,11.3926266 8.00445313,11.3429762 8.09232831,11.2546913 L9.2944244,10.0633945 C11.130053,10.6610515 13.1188381,10.2180892 14.4921221,8.83795132 C16.502626,6.81882288 16.502626,3.53351401 14.4921221,1.51435418 Z M13.1660257,4.84331903 C12.6176184,5.39408744 11.7258979,5.39408744 11.1774906,4.84331903 C10.6290833,4.29255063 10.6290833,3.39699098 11.1774906,2.84622258 C11.7258979,2.29545418 12.6176184,2.29545418 13.1660257,2.84622258 C13.714433,3.39699098 13.7144018,4.29255063 13.1660257,4.84331903 Z" id="tShape"></path>
                                </g>
                            </g>
                        </g>
                        <g id="tGroup-12-Copy-3" transform="translate(61.000000, 147.633317)">
                            <g id="tRectangle" opacity="0.298758371">
                                <use fill="#18DAA2" xlink:href="#path-20"></use>
                                <use fill="url(#linearGradient-19)" xlink:href="#path-20"></use>
                            </g>
                            <text id="2nd-key" font-family="Geomanist-Book, Geomanist" font-size="18" font-weight="300" letter-spacing="-0.1285714" fill="#FFFFFF">
                                <tspan x="8.6079999" y="18.0495452">2nd key</tspan>
                            </text>
                        </g>
                    </g>
                    <g id="tGroup-13" transform="translate(36.000000, 72.336046)">
                        <g id="tGroup-8" transform="translate(6.000000, 35.150790)">
                            <g id="tGroup-5" transform="translate(10.000000, 10.043083)" opacity="0.300000012">
                                <g id="tRectangle-Copy">
                                    <use fill="#3774E8" xlink:href="#path-22"></use>
                                    <use fill="url(#linearGradient-21)" xlink:href="#path-22"></use>
                                </g>
                                <g id="tRectangle">
                                    <use fill="#3774E8" xlink:href="#path-23"></use>
                                    <use fill="url(#linearGradient-21)" xlink:href="#path-23"></use>
                                </g>
                            </g>
                            <g id="tsmartphone-with-wireless-internet">
                                <g id="tShape">
                                    <use fill="black" fill-opacity="1" filter="url(#filter-26)" xlink:href="#path-25"></use>
                                    <use fill="url(#linearGradient-24)" fill-rule="evenodd" xlink:href="#path-25"></use>
                                </g>
                            </g>
                            <g id="tGroup-7" transform="translate(10.000000, 35.150790)">
                                <ellipse id="tOval" fill="url(#linearGradient-17)" opacity="0.300000012" cx="22.5" cy="22.5969363" rx="22.5" ry="22.5969363"></ellipse>
                                <g id="tkey" transform="translate(15.000000, 15.064624)" fill="url(#linearGradient-18)">
                                    <path d="M14.4921221,1.51435418 C12.4816181,-0.504805649 9.21045549,-0.504774265 7.19995156,1.51438556 C5.82666763,2.89358195 5.3496667,4.92608023 5.94429286,6.77008259 L0.137344018,12.6020637 C0.0494375966,12.6903486 0,12.8098612 0,12.9349288 L0,15.5981635 C0,15.8583732 0.209656659,16.0689325 0.468750916,16.0689325 L3.12056859,16.0689325 C3.24506884,16.0689325 3.36410032,16.0192821 3.45197549,15.9309972 L4.11482054,15.2648276 C4.21597698,15.1632356 4.26541458,15.0207181 4.2489458,14.8777299 L4.16653939,14.1623806 L5.15347882,14.0690428 C5.37779175,14.0478896 5.55494835,13.8699703 5.57601089,13.6446916 L5.66894857,12.6535031 L6.38123121,12.7367036 C6.51351272,12.7546243 6.64673173,12.7100267 6.74698193,12.6208631 C6.84676337,12.5312287 6.90398223,12.4033992 6.90398223,12.2691672 L6.90398223,11.3926266 L7.76092141,11.3926266 C7.88542165,11.3926266 8.00445313,11.3429762 8.09232831,11.2546913 L9.2944244,10.0633945 C11.130053,10.6610515 13.1188381,10.2180892 14.4921221,8.83795132 C16.502626,6.81882288 16.502626,3.53351401 14.4921221,1.51435418 Z M13.1660257,4.84331903 C12.6176184,5.39408744 11.7258979,5.39408744 11.1774906,4.84331903 C10.6290833,4.29255063 10.6290833,3.39699098 11.1774906,2.84622258 C11.7258979,2.29545418 12.6176184,2.29545418 13.1660257,2.84622258 C13.714433,3.39699098 13.7144018,4.29255063 13.1660257,4.84331903 Z" id="tShape"></path>
                                </g>
                            </g>
                        </g>
                        <g id="tGroup-12-Copy-4">
                            <g id="tRectangle" opacity="0.298758371">
                                <use fill="#18DAA2" xlink:href="#path-27"></use>
                                <use fill="url(#linearGradient-19)" xlink:href="#path-27"></use>
                            </g>
                            <text id="1st-key" font-family="Geomanist-Book, Geomanist" font-size="18" font-weight="300" letter-spacing="-0.1285714" fill="#FFFFFF">
                                <tspan x="14.2779999" y="18.0495452">1st key</tspan>
                            </text>
                        </g>
                    </g>
                    <g id="tGroup-14" transform="translate(320.000000, 0.000000)">
                        <g id="tGroup-9" transform="translate(0.000000, 32.163715)">
                            <g id="tRectangle-Copy-2" opacity="0.298758371">
                                <use fill="#3774E8" xlink:href="#path-29"></use>
                                <use fill="url(#linearGradient-28)" xlink:href="#path-29"></use>
                            </g>
                            <g id="tRectangle" opacity="0.298758371">
                                <use fill="#3774E8" xlink:href="#path-30"></use>
                                <use fill="url(#linearGradient-28)" xlink:href="#path-30"></use>
                            </g>
                            <g id="tweb-2" transform="translate(58.000000, 58.000000) scale(-1, 1) translate(-58.000000, -58.000000) ">
                                <g id="tShape">
                                    <use fill="black" fill-opacity="1" filter="url(#filter-33)" xlink:href="#path-32"></use>
                                    <use fill="url(#linearGradient-31)" fill-rule="evenodd" xlink:href="#path-32"></use>
                                </g>
                                <g id="tPath">
                                    <use fill="black" fill-opacity="1" filter="url(#filter-36)" xlink:href="#path-35"></use>
                                    <use fill="url(#linearGradient-34)" fill-rule="evenodd" xlink:href="#path-35"></use>
                                </g>
                                <g id="tPath">
                                    <use fill="black" fill-opacity="1" filter="url(#filter-39)" xlink:href="#path-38"></use>
                                    <use fill="url(#linearGradient-37)" fill-rule="evenodd" xlink:href="#path-38"></use>
                                </g>
                                <g id="tPath">
                                    <use fill="black" fill-opacity="1" filter="url(#filter-41)" xlink:href="#path-40"></use>
                                    <use fill="url(#linearGradient-37)" fill-rule="evenodd" xlink:href="#path-40"></use>
                                </g>
                                <g id="tPath">
                                    <use fill="black" fill-opacity="1" filter="url(#filter-44)" xlink:href="#path-43"></use>
                                    <use fill="url(#linearGradient-42)" fill-rule="evenodd" xlink:href="#path-43"></use>
                                </g>
                            </g>
                            <g id="tGroup-7" transform="translate(36.000000, 41.176640)">
                                <ellipse id="tOval" fill="url(#linearGradient-17)" opacity="0.300000012" cx="22.5" cy="22.5969363" rx="22.5" ry="22.5969363"></ellipse>
                                <g id="tkey" transform="translate(15.000000, 15.064624)" fill="url(#linearGradient-45)">
                                    <path d="M14.4921221,1.51435418 C12.4816181,-0.504805649 9.21045549,0.495225735 7.19995156,2.51438556 C5.82666763,3.89358195 5.3496667,5.92608023 5.94429286,7.77008259 L0.137344018,13.6020637 C0.0494375966,13.6903486 0,13.8098612 0,13.9349288 L0,16.5981635 C0,16.8583732 0.209656659,17.0689325 0.468750916,17.0689325 L3.12056859,17.0689325 C3.24506884,17.0689325 3.36410032,17.0192821 3.45197549,16.9309972 L4.11482054,16.2648276 C4.21597698,16.1632356 4.26541458,16.0207181 4.2489458,15.8777299 L4.16653939,15.1623806 L5.15347882,15.0690428 C5.37779175,15.0478896 5.55494835,14.8699703 5.57601089,14.6446916 L5.66894857,13.6535031 L6.38123121,13.7367036 C6.51351272,13.7546243 6.64673173,13.7100267 6.74698193,13.6208631 C6.84676337,13.5312287 6.90398223,13.4033992 6.90398223,13.2691672 L6.90398223,12.3926266 L7.76092141,12.3926266 C7.88542165,12.3926266 8.00445313,12.3429762 8.09232831,12.2546913 L9.2944244,11.0633945 C11.130053,11.6610515 13.1188381,11.2180892 14.4921221,9.83795132 C16.502626,7.81882288 16.502626,3.53351401 14.4921221,1.51435418 Z M13.1660257,5.84331903 C12.6176184,6.39408744 11.7258979,6.39408744 11.1774906,5.84331903 C10.6290833,5.29255063 10.6290833,4.39699098 11.1774906,3.84622258 C11.7258979,3.29545418 12.6176184,3.29545418 13.1660257,3.84622258 C13.714433,4.39699098 13.7144018,5.29255063 13.1660257,5.84331903 Z" id="tShape"></path>
                                </g>
                            </g>
                        </g>
                        <g id="tGroup-12-Copy-5" transform="translate(7.000000, 0.000000)">
                            <text id="Web-app" font-family="Geomanist-Book, Geomanist" font-size="18" font-weight="300" letter-spacing="-0.1285714" fill="#FFFFFF">
                                <tspan x="9.3159999" y="20.0495452">Web app</tspan>
                            </text>
                            <g id="tRectangle" opacity="0.298758371">
                                <use fill="#18DAA2" xlink:href="#path-47"></use>
                                <use fill="url(#linearGradient-46)" xlink:href="#path-47"></use>
                            </g>
                        </g>
                    </g>
                    <g id="tGroup-15" transform="translate(485.000000, 147.659167)">
                        <g id="tGroup-9-Copy" transform="translate(92.000000, 0.000000)">
                            <g id="tRectangle" opacity="0.298758371">
                                <use fill="#3774E8" xlink:href="#path-49"></use>
                                <use fill="url(#linearGradient-48)" xlink:href="#path-49"></use>
                            </g>
                            <g id="tRectangle" opacity="0.298758371">
                                <use fill="#3774E8" xlink:href="#path-50"></use>
                                <use fill="url(#linearGradient-48)" xlink:href="#path-50"></use>
                            </g>
                            <g id="tdatabase">
                                <g id="tserver">
                                    <g id="tShape">
                                        <use fill="black" fill-opacity="1" filter="url(#filter-53)" xlink:href="#path-52"></use>
                                        <use fill="url(#linearGradient-51)" fill-rule="evenodd" xlink:href="#path-52"></use>
                                    </g>
                                    <g id="tShape">
                                        <use fill="black" fill-opacity="1" filter="url(#filter-56)" xlink:href="#path-55"></use>
                                        <use fill="url(#linearGradient-54)" fill-rule="evenodd" xlink:href="#path-55"></use>
                                    </g>
                                    <g id="tShape">
                                        <use fill="black" fill-opacity="1" filter="url(#filter-58)" xlink:href="#path-57"></use>
                                        <use fill="url(#linearGradient-54)" fill-rule="evenodd" xlink:href="#path-57"></use>
                                    </g>
                                    <g id="tPath">
                                        <use fill="black" fill-opacity="1" filter="url(#filter-61)" xlink:href="#path-60"></use>
                                        <use fill="url(#linearGradient-59)" fill-rule="evenodd" xlink:href="#path-60"></use>
                                    </g>
                                    <g id="tPath">
                                        <use fill="black" fill-opacity="1" filter="url(#filter-63)" xlink:href="#path-62"></use>
                                        <use fill="url(#linearGradient-59)" fill-rule="evenodd" xlink:href="#path-62"></use>
                                    </g>
                                    <g id="tPath">
                                        <use fill="black" fill-opacity="1" filter="url(#filter-65)" xlink:href="#path-64"></use>
                                        <use fill="url(#linearGradient-59)" fill-rule="evenodd" xlink:href="#path-64"></use>
                                    </g>
                                    <g id="tPath">
                                        <use fill="black" fill-opacity="1" filter="url(#filter-67)" xlink:href="#path-66"></use>
                                        <use fill="url(#linearGradient-59)" fill-rule="evenodd" xlink:href="#path-66"></use>
                                    </g>
                                    <g id="tShape">
                                        <use fill="black" fill-opacity="1" filter="url(#filter-69)" xlink:href="#path-68"></use>
                                        <use fill="url(#linearGradient-54)" fill-rule="evenodd" xlink:href="#path-68"></use>
                                    </g>
                                    <g id="tPath">
                                        <use fill="black" fill-opacity="1" filter="url(#filter-71)" xlink:href="#path-70"></use>
                                        <use fill="url(#linearGradient-59)" fill-rule="evenodd" xlink:href="#path-70"></use>
                                    </g>
                                    <g id="tPath">
                                        <use fill="black" fill-opacity="1" filter="url(#filter-73)" xlink:href="#path-72"></use>
                                        <use fill="url(#linearGradient-59)" fill-rule="evenodd" xlink:href="#path-72"></use>
                                    </g>
                                </g>
                            </g>
                        </g>
                        <g id="tGroup-12-Copy" transform="translate(0.000000, 69.297271)">
                            <g id="tRectangle" opacity="0.298758371">
                                <use fill="#18DAA2" xlink:href="#path-74"></use>
                                <use fill="url(#linearGradient-19)" xlink:href="#path-74"></use>
                            </g>
                            <text id="Relayer" font-family="Geomanist-Book, Geomanist" font-size="18" font-weight="300" letter-spacing="-0.1285714" fill="#FFFFFF">
                                <tspan x="10.7499999" y="18.0495452">Relayer</tspan>
                            </text>
                        </g>
                    </g>
                    <g id="tGroup-16" transform="translate(192.000000, 200.887506)">
                        <g id="tGroup-9" transform="translate(0.000000, 36.155098)">
                            <g id="tRectangle-Copy-2" opacity="0.298758371">
                                <use fill="#3774E8" xlink:href="#path-76"></use>
                                <use fill="url(#linearGradient-75)" xlink:href="#path-76"></use>
                            </g>
                            <g id="tRectangle" opacity="0.298758371">
                                <use fill="#3774E8" xlink:href="#path-77"></use>
                                <use fill="url(#linearGradient-75)" xlink:href="#path-77"></use>
                            </g>
                            <g id="tweb-2" transform="translate(98.000000, 58.000000) scale(-1, 1) translate(-98.000000, -58.000000) ">
                                <g id="tShape">
                                    <use fill="black" fill-opacity="1" filter="url(#filter-80)" xlink:href="#path-79"></use>
                                    <use fill="url(#linearGradient-78)" fill-rule="evenodd" xlink:href="#path-79"></use>
                                </g>
                                <g id="tPath">
                                    <use fill="black" fill-opacity="1" filter="url(#filter-82)" xlink:href="#path-81"></use>
                                    <use fill="url(#linearGradient-34)" fill-rule="evenodd" xlink:href="#path-81"></use>
                                </g>
                                <g id="tPath">
                                    <use fill="black" fill-opacity="1" filter="url(#filter-84)" xlink:href="#path-83"></use>
                                    <use fill="url(#linearGradient-37)" fill-rule="evenodd" xlink:href="#path-83"></use>
                                </g>
                                <g id="tPath">
                                    <use fill="black" fill-opacity="1" filter="url(#filter-86)" xlink:href="#path-85"></use>
                                    <use fill="url(#linearGradient-37)" fill-rule="evenodd" xlink:href="#path-85"></use>
                                </g>
                                <g id="tPath">
                                    <use fill="black" fill-opacity="1" filter="url(#filter-88)" xlink:href="#path-87"></use>
                                    <use fill="url(#linearGradient-42)" fill-rule="evenodd" xlink:href="#path-87"></use>
                                </g>
                            </g>
                            <g id="tbadge" transform="translate(54.000000, 34.146482)" fill="url(#linearGradient-89)">
                                <path d="M81.125,0.831241245 C84.915875,0.831241245 88,3.93835826 88,7.75749406 L88,49.3150109 C88,53.1341467 84.915875,56.2412638 81.125,56.2412638 L6.875,56.2412638 C3.084125,56.2412638 0,53.1341467 0,49.3150109 L0,7.75749406 C0,3.93835826 3.084125,0.831241245 6.875,0.831241245 L36.5555781,0.831241245 L40.4444219,0.831241245 L47.5554062,0.831241245 L51.4445937,0.831241245 L81.125,0.831241245 Z M85.25,49.3150109 L85.25,7.75749406 C85.25,5.46594332 83.3995937,3.60174237 81.125,3.60174237 L48.6945937,3.60174237 L44.8054062,3.60174237 L6.875,3.60174237 C4.60040625,3.60174237 2.75,5.46594332 2.75,7.75749406 L2.75,49.3150109 C2.75,51.6065617 4.60040625,53.4707626 6.875,53.4707626 L81.125,53.4707626 C83.3995937,53.4707626 85.25,51.6065617 85.25,49.3150109 Z M25,32.137865 C21.1402,32.137865 18,29.0660512 18,25.2903085 L18,23.9207972 C18,20.1450546 21.1402,17.0732408 25,17.0732408 C28.8598,17.0732408 32,20.1450546 32,23.9207972 L32,25.2903085 C32,29.0660512 28.8598,32.137865 25,32.137865 Z M20.8,23.9207972 L20.8,25.2903085 C20.8,27.5558226 22.68405,29.3988424 25,29.3988424 C27.31595,29.3988424 29.2,27.5558226 29.2,25.2903085 L29.2,23.9207972 C29.2,21.6552832 27.31595,19.8122634 25,19.8122634 C22.68405,19.8122634 20.8,21.6552832 20.8,23.9207972 Z M30.512504,32.137865 C32.0121251,32.137865 33.4313081,32.8082862 34.5084571,34.025548 C35.4424331,35.0809241 36,36.4318194 36,37.638855 L36,40.6479509 C36,42.0470306 34.8712881,43.1852561 33.4840741,43.1852561 L16.5217697,43.1852561 C15.1312901,43.1852561 14,42.0444307 14,40.6422312 L14,37.638855 C14,35.0949634 16.3971594,32.137865 19.4876679,32.1380383 L20.6547082,32.1380383 C21.1321807,32.1380383 21.5754498,32.3877997 21.8257018,32.7978867 C22.6276768,34.1120372 23.7845764,34.8656544 25.0000859,34.8656544 C26.2155954,34.8656544 27.3724951,34.1120372 28.1744701,32.7977134 C28.4247221,32.3876264 28.8679912,32.137865 29.3454636,32.137865 L30.512504,32.137865 Z M33.2501504,40.4120555 L33.2499785,40.4120555 L33.2499785,37.638855 C33.2499785,36.7022065 32.1838296,34.9110656 30.5123321,34.9110656 L30.0709537,34.9110656 C28.7700216,36.6545421 26.9574137,37.638855 25.0000859,37.638855 C23.0427581,37.638855 21.2301502,36.6545421 19.9290463,34.9110656 L19.4876679,34.9110656 C17.8161704,34.9110656 16.7500215,36.7022065 16.7500215,37.638855 L16.7500215,40.4120555 L33.2501504,40.4120555 Z M36.875,9.03877453 C39.1494219,9.03877453 41,10.9212876 41,13.2353484 L41,44.0102236 C41,46.3241095 39.1494219,48.2067975 36.875,48.2067975 L12.125,48.2067975 C9.85057812,48.2067975 8,46.3241095 8,44.0102236 L8,13.2353484 C8,10.9212876 9.85057812,9.03877453 12.125,9.03877453 L36.875,9.03877453 Z M38.25,44.0102236 L38.25,13.2353484 C38.25,12.4640531 37.6331406,11.8364905 36.875,11.8364905 L12.125,11.8364905 C11.3668594,11.8364905 10.75,12.4640531 10.75,13.2353484 L10.75,44.0102236 C10.75,44.7815189 11.3668594,45.4090816 12.125,45.4090816 L36.875,45.4090816 C37.6331406,45.4090816 38.25,44.7815189 38.25,44.0102236 Z M45.4,15.0646242 C44.62685,15.0646242 44,14.3901057 44,13.5581618 C44,12.7262179 44.62685,12.0516994 45.4,12.0516994 L70.6,12.0516994 C71.37315,12.0516994 72,12.7262179 72,13.5581618 C72,14.3901057 71.37315,15.0646242 70.6,15.0646242 L45.4,15.0646242 Z M78.6153846,18.0775491 C79.3800385,18.0775491 80,18.7520676 80,19.5840115 C80,20.4159554 79.3800385,21.0904739 78.6153846,21.0904739 L45.3846154,21.0904739 C44.6199615,21.0904739 44,20.4159554 44,19.5840115 C44,18.7520676 44.6199615,18.0775491 45.3846154,18.0775491 L78.6153846,18.0775491 Z M51.3636364,34.1464816 C50.6105682,34.1464816 50,33.471963 50,32.6400191 C50,31.8080753 50.6105682,31.1335567 51.3636364,31.1335567 L63.6363636,31.1335567 C64.3894318,31.1335567 65,31.8080753 65,32.6400191 C65,33.471963 64.3894318,34.1464816 63.6363636,34.1464816 L51.3636364,34.1464816 Z M45.5,31.1335567 C45.895625,31.1335567 46.281875,31.2936184 46.56125,31.574197 C46.840625,31.8547756 47,32.2426897 47,32.6400191 C47,33.0373486 46.840625,33.4252627 46.56125,33.7058413 C46.281875,33.9864199 45.895625,34.1464816 45.5,34.1464816 C45.104375,34.1464816 44.718125,33.9864199 44.43875,33.7058413 C44.159375,33.4252627 44,33.0373486 44,32.6400191 C44,32.2426897 44.159375,31.8547756 44.43875,31.574197 C44.718125,31.2936184 45.104375,31.1335567 45.5,31.1335567 Z M72.6111111,37.1594064 C73.378125,37.1594064 74,37.833925 74,38.6658688 C74,39.4978127 73.378125,40.1723313 72.6111111,40.1723313 L50.3888889,40.1723313 C49.621875,40.1723313 49,39.4978127 49,38.6658688 C49,37.833925 49.621875,37.1594064 50.3888889,37.1594064 L72.6111111,37.1594064 Z M45.5,37.1594064 C45.895625,37.1594064 46.281875,37.319468 46.56125,37.6000467 C46.840625,37.8806253 47,38.2685394 47,38.6658688 C47,39.0631983 46.840625,39.4511124 46.56125,39.731691 C46.281875,40.0122696 45.895625,40.1723313 45.5,40.1723313 C45.104375,40.1723313 44.718125,40.0122696 44.43875,39.731691 C44.159375,39.4511124 44,39.0631983 44,38.6658688 C44,38.2685394 44.159375,37.8806253 44.43875,37.6000467 C44.718125,37.319468 45.104375,37.1594064 45.5,37.1594064 Z M68.6666667,43.1852561 C69.403,43.1852561 70,43.8597747 70,44.6917185 C70,45.5236624 69.403,46.1981809 68.6666667,46.1981809 L51.3333333,46.1981809 C50.597,46.1981809 50,45.5236624 50,44.6917185 C50,43.8597747 50.597,43.1852561 51.3333333,43.1852561 L68.6666667,43.1852561 Z M45.5,43.1852561 C45.895625,43.1852561 46.281875,43.3453177 46.56125,43.6258964 C46.840625,43.906475 47,44.2943891 47,44.6917185 C47,45.089048 46.840625,45.4769621 46.56125,45.7575407 C46.281875,46.0381193 45.895625,46.1981809 45.5,46.1981809 C45.104375,46.1981809 44.718125,46.0381193 44.43875,45.7575407 C44.159375,45.4769621 44,45.089048 44,44.6917185 C44,44.2943891 44.159375,43.906475 44.43875,43.6258964 C44.718125,43.3453177 45.104375,43.1852561 45.5,43.1852561 Z" id="tCombined-Shape"></path>
                            </g>
                        </g>
                        <g id="tGroup-12-Copy-6">
                            <g id="tRectangle" opacity="0.298758371">
                                <use fill="#18DAA2" xlink:href="#path-91"></use>
                                <use fill="url(#linearGradient-90)" xlink:href="#path-91"></use>
                            </g>
                            <text id="Identity" font-family="Geomanist-Book, Geomanist" font-size="18" font-weight="300" letter-spacing="-0.1285714" fill="#FFFFFF">
                                <tspan x="8.8872856" y="18.0495452">Identity</tspan>
                            </text>
                        </g>
                    </g>
                    <g id="tGroup-18" transform="translate(341.000000, 514.231690)">
                        <g id="tsecurity-badge">
                            <g id="tPath-Copy" opacity="0.298758371">
                                <use fill="#3774E8" xlink:href="#path-93"></use>
                                <use fill="url(#linearGradient-92)" xlink:href="#path-93"></use>
                            </g>
                            <g id="tPath" opacity="0.298758371">
                                <use fill="#3774E8" xlink:href="#path-94"></use>
                                <use fill="url(#linearGradient-92)" xlink:href="#path-94"></use>
                            </g>
                            <g id="tShape">
                                <use fill="black" fill-opacity="1" filter="url(#filter-97)" xlink:href="#path-96"></use>
                                <use fill="url(#linearGradient-95)" fill-rule="evenodd" xlink:href="#path-96"></use>
                            </g>
                            <g id="tGroup-7" transform="translate(27.000000, 30.129248)">
                                <ellipse id="tOval" fill="url(#linearGradient-17)" opacity="0.300000012" cx="22.5" cy="22.5969363" rx="22.5" ry="22.5969363"></ellipse>
                                <g id="tkey" transform="translate(15.000000, 15.064624)">
                                    <g id="tShape">
                                        <use fill="black" fill-opacity="1" filter="url(#filter-99)" xlink:href="#path-98"></use>
                                        <use fill="#18DAA2" fill-rule="evenodd" xlink:href="#path-98"></use>
                                    </g>
                                </g>
                            </g>
                        </g>
                        <g id="tGroup-12-Copy-2" transform="translate(18.000000, 155.667784)">
                            <g id="tRectangle" opacity="0.298758371">
                                <use fill="#18DAA2" xlink:href="#path-100"></use>
                                <use fill="url(#linearGradient-19)" xlink:href="#path-100"></use>
                            </g>
                            <text id="3rd-key" font-family="Geomanist-Book, Geomanist" font-size="18" font-weight="300" letter-spacing="-0.1285714" fill="#FFFFFF">
                                <tspan x="10.4979999" y="18.0495452">3rd key</tspan>
                            </text>
                        </g>
                    </g>
                    <g id="12edas" transform="translate(559.000000, 377.645764)">
                        <g id="tGroup-10">
                            <g id="tRectangle-Copy-3" opacity="0.298758371">
                                <use fill="#3774E8" xlink:href="#path-102"></use>
                                <use fill="url(#linearGradient-101)" xlink:href="#path-102"></use>
                            </g>
                            <g id="tRectangle" opacity="0.298758371">
                                <use fill="#3774E8" xlink:href="#path-103"></use>
                                <use fill="url(#linearGradient-101)" xlink:href="#path-103"></use>
                            </g>
                            <g id="twallet-2">
                                <g id="tShape">
                                    <use fill="black" fill-opacity="1" filter="url(#filter-106)" xlink:href="#path-105"></use>
                                    <use fill="url(#linearGradient-104)" fill-rule="evenodd" xlink:href="#path-105"></use>
                                </g>
                            </g>
                        </g>
                        <g id="tGroup-12" transform="translate(14.000000, 120.516994)">
                            <g id="tRectangle" opacity="0.298758371">
                                <use fill="#18DAA2" xlink:href="#path-107"></use>
                                <use fill="url(#linearGradient-19)" xlink:href="#path-107"></use>
                            </g>
                            <text id="Wallet" font-family="Geomanist-Book, Geomanist" font-size="18" font-weight="300" letter-spacing="-0.1285714" fill="#FFFFFF">
                                <tspan x="15.0417142" y="18.0495452">Wallet</tspan>
                            </text>
                        </g>
                    </g>
                </g>
            </g>
        </g>
    </g>
</svg>