<?xml version="1.0" encoding="UTF-8"?>
<svg width="226px" height="35px" viewBox="0 0 226 35" version="1.1" xmlns="http://www.w3.org/2000/svg" xmlns:xlink="http://www.w3.org/1999/xlink">
    <!-- Generator: Sketch 51.3 (57544) - http://www.bohemiancoding.com/sketch -->
    <title>Group 2 Copy</title>
    <desc>Created with Sketch.</desc>
    <defs>
        <linearGradient x1="0.595623394%" y1="0.589783955%" x2="100.97748%" y2="99.9875053%" id="linearGradient-1">
            <stop stop-color="#83C3F7" offset="0%"></stop>
            <stop stop-color="#1B58E4" offset="100%"></stop>
        </linearGradient>
    </defs>
    <g id="Page-1" stroke="none" stroke-width="1" fill="none" fill-rule="evenodd">
        <g id="Landing-02" transform="translate(-200.000000, -30.000000)">
            <g id="Group-3" transform="translate(-898.000000, -416.000000)">
                <g id="Group-2-Copy" transform="translate(1113.000000, 446.000000)">
                    <g id="Group" transform="translate(-0.000000, 0.000000)">
                        <path d="M14.3181818,30.4924242 L27.5538437,8.43298773 C29.1360323,5.7960067 28.2809541,2.37569392 25.6439731,0.7935053 C24.7785919,0.274276572 23.7883665,0 22.7791672,0 L33.9155308,0 C34.9247301,0 35.9149555,0.274276572 36.7803368,0.7935053 C39.4173178,2.37569392 40.272396,5.7960067 38.6902074,8.43298773 L24.6610402,31.8149331 C24.1908085,32.5986525 23.5348889,33.2545721 22.7511695,33.7248037 C20.1141885,35.3069923 16.6938757,34.4519141 15.1116871,31.8149331 L14.3181818,30.4924242 Z" id="Path" fill="#18DAA2"></path>
                        <path d="M-7.10542736e-15,30.4924242 L13.2356619,8.43298773 C14.8178505,5.7960067 13.9627723,2.37569392 11.3257913,0.7935053 C10.4604101,0.274276572 9.47018463,0 8.46098539,0 L19.597349,0 C20.6065483,0 21.5967737,0.274276572 22.4621549,0.7935053 C25.099136,2.37569392 25.9542142,5.7960067 24.3720255,8.43298773 L10.3428583,31.8149331 C9.8726267,32.5986525 9.21670712,33.2545721 8.43298773,33.7248037 C5.7960067,35.3069923 2.37569392,34.4519141 0.7935053,31.8149331 L5.7782062e-16,30.4924242 Z" id="Path" fill="url(#linearGradient-1)"></path>
                        <path d="M-14.3181818,30.4924242 L-1.08251991,8.43298773 C0.499668706,5.7960067 -0.355409491,2.37569392 -2.99239052,0.7935053 C-3.85777173,0.274276572 -4.84799718,0 -5.85719643,0 L5.27916721,0 C6.28836645,0 7.27859191,0.274276572 8.14397312,0.7935053 C10.7809541,2.37569392 11.6360323,5.7960067 10.0538437,8.43298773 L-3.97532348,31.8149331 C-4.44555511,32.5986525 -5.1014747,33.2545721 -5.88519409,33.7248037 C-8.52217512,35.3069923 -11.9424879,34.4519141 -13.5246765,31.8149331 L-14.3181818,30.4924242 Z" id="Path" fill="url(#linearGradient-1)"></path>
                    </g>
                    <path d="M56.46,21.22 C54.793325,21.22 53.5533374,20.8566703 52.74,20.13 C51.9266626,19.4033297 51.52,18.2533412 51.52,16.68 L51.52,7.24 L53.44,7.24 L53.44,16.72 C53.44,18.586676 54.4333234,19.52 56.42,19.52 C57.4600052,19.52 58.2366641,19.2933356 58.75,18.84 C59.2633359,18.3866644 59.52,17.6800048 59.52,16.72 L59.52,7.24 L61.42,7.24 L61.42,16.68 C61.42,18.2533412 61.0100041,19.4033297 60.19,20.13 C59.3699959,20.8566703 58.126675,21.22 56.46,21.22 Z M64.32,11 L66.16,11 L66.16,11.66 C66.7333362,11.3399984 67.253331,11.113334 67.72,10.98 C68.186669,10.846666 68.6799974,10.78 69.2,10.78 C70.0400042,10.78 70.6999976,10.946665 71.18,11.28 C71.6600024,11.613335 71.999999,12.1299965 72.2,12.83 C72.400001,13.5300035 72.5,14.479994 72.5,15.68 L72.5,21 L70.64,21 L70.64,15.72 C70.64,14.8799958 70.5900005,14.2300023 70.49,13.77 C70.3899995,13.3099977 70.2033347,12.9766677 69.93,12.77 C69.6566653,12.5633323 69.2600026,12.46 68.74,12.46 C68.0333298,12.46 67.2933372,12.6133318 66.52,12.92 L66.18,13.08 L66.18,21 L64.32,21 L64.32,11 Z M75.16,11 L77.02,11 L77.02,21 L75.16,21 L75.16,11 Z M75.16,7.02 L77,7.02 L77,9.04 L75.16,9.04 L75.16,7.02 Z M78.82,11 L80.78,11 L82.9,19.4 L83.58,19.4 L85.78,11 L87.68,11 L85,21 L81.5,21 L78.82,11 Z M93.28,21.22 C91.746659,21.22 90.6533366,20.8233373 90,20.03 C89.3466634,19.2366627 89.02,17.9800086 89.02,16.26 C89.02,14.4066574 89.3699965,13.0300045 90.07,12.13 C90.7700035,11.2299955 91.853326,10.78 93.32,10.78 C96.0400136,10.78 97.4,12.3266512 97.4,15.42 L97.28,16.78 L90.9,16.78 C90.9133334,17.5000036 91.0066658,18.0566647 91.18,18.45 C91.3533342,18.8433353 91.6333314,19.1266658 92.02,19.3 C92.4066686,19.4733342 92.9533298,19.56 93.66,19.56 C94.0733354,19.56 94.5399974,19.5500001 95.06,19.53 C95.5800026,19.5099999 96.0466646,19.4800002 96.46,19.44 L97.02,19.38 L97.06,20.82 C95.4999922,21.086668 94.2400048,21.22 93.28,21.22 Z M95.54,15.32 C95.54,14.2399946 95.3700017,13.4733356 95.03,13.02 C94.6899983,12.5666644 94.120004,12.34 93.32,12.34 C92.4799958,12.34 91.8666686,12.5766643 91.48,13.05 C91.0933314,13.5233357 90.8933334,14.2799948 90.88,15.32 L95.54,15.32 Z M99.62,11 L101.46,11 L101.46,12.26 C102.646673,11.4999962 103.819994,11.0066678 104.98,10.78 L104.98,12.66 C104.459997,12.7666672 103.920003,12.9133324 103.36,13.1 C102.799997,13.2866676 102.333335,13.4666658 101.96,13.64 L101.48,13.86 L101.48,21 L99.62,21 L99.62,11 Z M109.94,21.22 C109.166663,21.22 108.160006,21.1133344 106.92,20.9 L106.32,20.8 L106.4,19.2 C108.013341,19.4266678 109.166663,19.54 109.86,19.54 C110.56667,19.54 111.099998,19.4333344 111.46,19.22 C111.820002,19.0066656 112,18.6600024 112,18.18 C112,17.8333316 111.910001,17.5700009 111.73,17.39 C111.549999,17.2099991 111.320001,17.0766671 111.04,16.99 C110.759999,16.9033329 110.360003,16.8200004 109.84,16.74 L109.36,16.66 C108.599996,16.5399994 107.996669,16.3866676 107.55,16.2 C107.103331,16.0133324 106.760001,15.7400018 106.52,15.38 C106.279999,15.0199982 106.16,14.5266698 106.16,13.9 C106.16,11.833323 107.426654,10.8 109.96,10.8 C110.760004,10.8 111.759994,10.899999 112.96,11.1 L113.54,11.22 L113.5,12.78 C112.006659,12.5666656 110.860004,12.46 110.06,12.46 C108.699993,12.46 108.02,12.8733292 108.02,13.7 C108.02,14.0066682 108.106666,14.2433325 108.28,14.41 C108.453334,14.5766675 108.676665,14.6999996 108.95,14.78 C109.223335,14.8600004 109.613331,14.9466662 110.12,15.04 C110.213334,15.0533334 110.399999,15.0866664 110.68,15.14 C111.466671,15.2866674 112.083331,15.4566657 112.53,15.65 C112.976669,15.8433343 113.309999,16.1266648 113.53,16.5 C113.750001,16.8733352 113.86,17.3799968 113.86,18.02 C113.86,19.1266722 113.540003,19.9366641 112.9,20.45 C112.259997,20.9633359 111.27334,21.22 109.94,21.22 Z M118.3,21.22 C117.353329,21.22 116.633336,20.953336 116.14,20.42 C115.646664,19.886664 115.4,19.120005 115.4,18.12 C115.4,17.1333284 115.653331,16.4100023 116.16,15.95 C116.666669,15.4899977 117.473328,15.2066672 118.58,15.1 L121.42,14.84 L121.42,14.06 C121.42,13.4733304 121.293335,13.0500013 121.04,12.79 C120.786665,12.5299987 120.413336,12.4 119.92,12.4 C118.799994,12.4 117.506674,12.4799992 116.04,12.64 L115.98,11.28 C117.39334,10.946665 118.706661,10.78 119.92,10.78 C121.093339,10.78 121.946664,11.0433307 122.48,11.57 C123.013336,12.0966693 123.28,12.926661 123.28,14.06 L123.28,18.88 C123.306667,19.146668 123.396666,19.3499993 123.55,19.49 C123.703334,19.6300007 123.946665,19.7266664 124.28,19.78 L124.22,21.22 C123.646664,21.22 123.160002,21.1566673 122.76,21.03 C122.359998,20.9033327 122.006668,20.706668 121.7,20.44 C120.566661,20.9600026 119.433339,21.22 118.3,21.22 Z M118.64,19.66 C119.453337,19.66 120.239996,19.5333346 121,19.28 L121.42,19.14 L121.42,16.2 L118.82,16.44 C118.299997,16.4933336 117.916668,16.6499987 117.67,16.91 C117.423332,17.1700013 117.3,17.5533308 117.3,18.06 C117.3,19.126672 117.746662,19.66 118.64,19.66 Z M126.24,6.76 L128.1,6.76 L128.1,21 L126.24,21 L126.24,6.76 Z M138.88,19.3 L138.88,21 L131.24,21 L131.24,7.24 L133.16,7.24 L133.16,19.3 L138.88,19.3 Z M144.44,21.22 C142.879992,21.22 141.760003,20.8033375 141.08,19.97 C140.399997,19.1366625 140.06,17.8266756 140.06,16.04 C140.06,14.2133242 140.406663,12.8800042 141.1,12.04 C141.793337,11.1999958 142.906659,10.78 144.44,10.78 C145.986674,10.78 147.10333,11.2033291 147.79,12.05 C148.47667,12.8966709 148.82,14.2266576 148.82,16.04 C148.82,17.8133422 148.480003,19.1199958 147.8,19.96 C147.119997,20.8000042 146.000008,21.22 144.44,21.22 Z M144.44,19.6 C145.080003,19.6 145.576665,19.4866678 145.93,19.26 C146.283335,19.0333322 146.533333,18.6666692 146.68,18.16 C146.826667,17.6533308 146.9,16.9466712 146.9,16.04 C146.9,15.0933286 146.823334,14.3600026 146.67,13.84 C146.516666,13.3199974 146.263335,12.9500011 145.91,12.73 C145.556665,12.5099989 145.06667,12.4 144.44,12.4 C143.81333,12.4 143.320002,12.5099989 142.96,12.73 C142.599998,12.9500011 142.343334,13.3233307 142.19,13.85 C142.036666,14.3766693 141.96,15.106662 141.96,16.04 C141.96,16.9333378 142.033333,17.6366641 142.18,18.15 C142.326667,18.6633359 142.579998,19.0333322 142.94,19.26 C143.300002,19.4866678 143.799997,19.6 144.44,19.6 Z M154.86,25.66 C153.393326,25.66 152.323337,25.4433355 151.65,25.01 C150.976663,24.5766645 150.64,23.8533384 150.64,22.84 C150.64,22.2666638 150.749999,21.8100017 150.97,21.47 C151.190001,21.1299983 151.59333,20.7333356 152.18,20.28 C151.966666,20.1333326 151.810001,19.9400012 151.71,19.7 C151.609999,19.4599988 151.56,19.206668 151.56,18.94 C151.56,18.7533324 151.603333,18.5566677 151.69,18.35 C151.776667,18.1433323 151.973332,17.7800026 152.28,17.26 C151.266662,16.726664 150.76,15.7333406 150.76,14.28 C150.76,11.9599884 152.059987,10.8 154.66,10.8 C155.273336,10.8 155.95333,10.8866658 156.7,11.06 L159.74,10.98 L159.74,12.52 L157.96,12.46 C158.173334,12.7000012 158.326666,12.9633319 158.42,13.25 C158.513334,13.5366681 158.56,13.9066644 158.56,14.36 C158.56,15.5466726 158.243336,16.3966641 157.61,16.91 C156.976664,17.4233359 155.986673,17.68 154.64,17.68 C154.239998,17.68 153.913335,17.6533336 153.66,17.6 C153.446666,18.1066692 153.34,18.4733322 153.34,18.7 C153.34,19.0200016 153.469999,19.2266662 153.73,19.32 C153.990001,19.4133338 154.393331,19.46 154.94,19.46 L155.64,19.46 C156.573338,19.4733334 157.319997,19.546666 157.88,19.68 C158.440003,19.813334 158.873332,20.0833313 159.18,20.49 C159.486668,20.8966687 159.64,21.4866628 159.64,22.26 C159.64,23.4333392 159.263337,24.2933306 158.51,24.84 C157.756663,25.3866694 156.540008,25.66 154.86,25.66 Z M154.68,16.22 C155.400004,16.22 155.916665,16.0666682 156.23,15.76 C156.543335,15.4533318 156.7,14.9466702 156.7,14.24 C156.7,13.5466632 156.540002,13.0466682 156.22,12.74 C155.899998,12.4333318 155.38667,12.28 154.68,12.28 C153.959996,12.28 153.436668,12.4366651 153.11,12.75 C152.783332,13.0633349 152.62,13.5666632 152.62,14.26 C152.62,14.9533368 152.783332,15.4533318 153.11,15.76 C153.436668,16.0666682 153.959996,16.22 154.68,16.22 Z M155.02,24.12 C156.020005,24.12 156.723331,23.9900013 157.13,23.73 C157.536669,23.4699987 157.74,23.0266698 157.74,22.4 C157.74,22.0266648 157.663334,21.7500009 157.51,21.57 C157.356666,21.3899991 157.126668,21.2700003 156.82,21.21 C156.513332,21.1499997 156.060003,21.1133334 155.46,21.1 L153.42,20.98 C153.059998,21.2600014 152.813334,21.5133322 152.68,21.74 C152.546666,21.9666678 152.48,22.2399984 152.48,22.56 C152.48,23.1333362 152.673331,23.5366655 153.06,23.77 C153.446669,24.0033345 154.099995,24.12 155.02,24.12 Z M161.5,11 L163.36,11 L163.36,21 L161.5,21 L161.5,11 Z M161.5,7.02 L163.34,7.02 L163.34,9.04 L161.5,9.04 L161.5,7.02 Z M166.1,11 L167.94,11 L167.94,11.66 C168.513336,11.3399984 169.033331,11.113334 169.5,10.98 C169.966669,10.846666 170.459997,10.78 170.98,10.78 C171.820004,10.78 172.479998,10.946665 172.96,11.28 C173.440002,11.613335 173.779999,12.1299965 173.98,12.83 C174.180001,13.5300035 174.28,14.479994 174.28,15.68 L174.28,21 L172.42,21 L172.42,15.72 C172.42,14.8799958 172.370001,14.2300023 172.27,13.77 C172.169999,13.3099977 171.983335,12.9766677 171.71,12.77 C171.436665,12.5633323 171.040003,12.46 170.52,12.46 C169.81333,12.46 169.073337,12.6133318 168.3,12.92 L167.96,13.08 L167.96,21 L166.1,21 L166.1,11 Z M181.02,21.2 C180.099995,21.2 178.860008,21.0733346 177.3,20.82 L176.58,20.7 L176.78,19.16 C178.580009,19.4000012 179.953329,19.52 180.9,19.52 C182.700009,19.52 183.6,18.7000082 183.6,17.06 C183.6,16.6066644 183.506668,16.2433347 183.32,15.97 C183.133332,15.6966653 182.836669,15.4766675 182.43,15.31 C182.023331,15.1433325 181.453337,14.9800008 180.72,14.82 C179.639995,14.5666654 178.800003,14.2833349 178.2,13.97 C177.599997,13.6566651 177.160001,13.2533358 176.88,12.76 C176.599999,12.2666642 176.46,11.620004 176.46,10.82 C176.46,9.553327 176.839996,8.6000032 177.6,7.96 C178.360004,7.3199968 179.479993,7 180.96,7 C181.506669,7 182.096664,7.033333 182.73,7.1 C183.363337,7.166667 184.199995,7.2866658 185.24,7.46 L185.08,9.02 C183.253324,8.8066656 181.933337,8.7 181.12,8.7 C179.293324,8.7 178.38,9.36666 178.38,10.7 C178.38,11.1933358 178.483332,11.5799986 178.69,11.86 C178.896668,12.1400014 179.226664,12.3699991 179.68,12.55 C180.133336,12.7300009 180.819995,12.9266656 181.74,13.14 C182.700005,13.3800012 183.446664,13.6466652 183.98,13.94 C184.513336,14.2333348 184.903332,14.613331 185.15,15.08 C185.396668,15.546669 185.52,16.1599962 185.52,16.92 C185.52,18.3333404 185.136671,19.3999964 184.37,20.12 C183.60333,20.8400036 182.486674,21.2 181.02,21.2 Z M192.88,7.24 C194.320007,7.24 195.426663,7.5199972 196.2,8.08 C196.973337,8.6400028 197.499999,9.3899953 197.78,10.33 C198.060001,11.2700047 198.2,12.4333264 198.2,13.82 C198.2,15.5266752 198.020002,16.9033281 197.66,17.95 C197.299998,18.9966719 196.733337,19.7666642 195.96,20.26 C195.186663,20.7533358 194.160006,21 192.88,21 L188.06,21 L188.06,7.24 L192.88,7.24 Z M192.88,19.32 C194.080006,19.32 194.939997,18.8766711 195.46,17.99 C195.980003,17.1033289 196.24,15.726676 196.24,13.86 C196.24,12.6733274 196.130001,11.7200036 195.91,11 C195.689999,10.2799964 195.336669,9.753335 194.85,9.42 C194.363331,9.086665 193.706671,8.92 192.88,8.92 L189.98,8.92 L189.98,19.32 L192.88,19.32 Z M205,15.08 L202.84,15.22 L202.84,21 L200.92,21 L200.92,7.24 L202.84,7.24 L202.84,13.54 L205,13.4 L208.12,7.24 L210.3,7.24 L206.66,14.16 L210.48,21 L208.24,21 L205,15.08 Z" id="UniversalLoginSDK" fill="#FFFFFF"></path>
                </g>
            </g>
        </g>
    </g>
</svg>