<svg width="174" height="30" viewBox="0 0 174 30" fill="none" xmlns="http://www.w3.org/2000/svg">
<g id="Logo">
<g id="Group 2">
<path id="Rectangle Copy" fill-rule="evenodd" clip-rule="evenodd" d="M0.24585 0.28418L8.863 0.28418C10.4981 0.28418 11.8236 1.60967 11.8236 3.24475V14.3273C11.8236 16.382 13.4892 18.0476 15.5439 18.0476C17.5986 18.0476 19.2642 16.382 19.2642 14.3273V3.24475C19.2642 1.60967 20.5897 0.28418 22.2248 0.28418H30.9067V14.185C30.9067 22.6517 24.043 29.5154 15.5763 29.5154C7.1095 29.5154 0.24585 22.6517 0.24585 14.185L0.24585 0.28418Z" fill="url(#paint0_linear)"/>
<path id="Rectangle Copy 2" fill-rule="evenodd" clip-rule="evenodd" d="M0.24585 0.28418L8.863 0.28418C10.4981 0.28418 11.8236 1.60967 11.8236 3.24475V14.3273C11.8236 16.382 13.4892 18.0476 15.5439 18.0476C17.5986 18.0476 19.2642 16.382 19.2642 14.3273V3.24475C19.2642 1.60967 20.5897 0.28418 22.2248 0.28418H30.9067V14.185C30.9067 22.6517 24.043 29.5154 15.5763 29.5154C7.1095 29.5154 0.24585 22.6517 0.24585 14.185L0.24585 0.28418Z" fill="url(#paint1_linear)"/>
<path id="Rectangle Copy 2_2" fill-rule="evenodd" clip-rule="evenodd" d="M0.24585 0.28418L8.863 0.28418C10.4981 0.28418 11.8236 1.60967 11.8236 3.24475V14.3273C11.8236 16.382 13.4892 18.0476 15.5439 18.0476C17.5986 18.0476 19.2642 16.382 19.2642 14.3273V3.24475C19.2642 1.60967 20.5897 0.28418 22.2248 0.28418H30.9067V14.185C30.9067 22.6517 24.043 29.5154 15.5763 29.5154C7.1095 29.5154 0.24585 22.6517 0.24585 14.185L0.24585 0.28418Z" fill="url(#paint2_linear)"/>
<path id="Rectangle Copy 2_3" fill-rule="evenodd" clip-rule="evenodd" d="M0.24585 0.28418L8.863 0.28418C10.4981 0.28418 11.8236 1.60967 11.8236 3.24475V14.3273C11.8236 16.382 13.4892 18.0476 15.5439 18.0476C17.5986 18.0476 19.2642 16.382 19.2642 14.3273V3.24475C19.2642 1.60967 20.5897 0.28418 22.2248 0.28418H30.9067V14.185C30.9067 22.6517 24.043 29.5154 15.5763 29.5154C7.1095 29.5154 0.24585 22.6517 0.24585 14.185L0.24585 0.28418Z" fill="url(#paint3_linear)"/>
<path id="Path 4" fill-rule="evenodd" clip-rule="evenodd" d="M15.8174 18.0393L18.0442 18.9057L21.6133 18.5767L23.2348 18.0393L25.1318 17.3543L27.2626 15.522L29.0093 14.6301L29.8188 12.2347L30.1072 10.2376L30.5434 8.80232V6.43183L30.8091 4.25207V2.51074L30.505 4.68992C30.4411 5.14778 30.374 5.60564 30.2438 6.04921C30.1113 6.50042 29.8836 7.15475 29.5072 7.93814C28.7743 9.46351 28.7743 9.49481 27.7851 10.8695C26.7959 12.2442 26.6159 12.5148 24.7307 14.1452C23.3447 15.3439 20.439 16.3371 18.9973 16.7791C18.4371 16.9508 17.9038 17.1991 17.4253 17.5373L17.0402 17.7358L16.613 17.8975L16.1145 18.008L15.8174 18.0393Z" fill="url(#paint4_linear)"/>
<path id="Rectangle Copy 2_4" fill-rule="evenodd" clip-rule="evenodd" d="M0.24585 0.28418L8.863 0.28418C10.4981 0.28418 11.8236 1.60967 11.8236 3.24475V14.3273C11.8236 16.382 13.4892 18.0476 15.5439 18.0476C17.5986 18.0476 19.2642 16.382 19.2642 14.3273V3.24475C19.2642 1.60967 20.5897 0.28418 22.2248 0.28418H30.9067V14.185C30.9067 22.6517 24.043 29.5154 15.5763 29.5154C7.1095 29.5154 0.24585 22.6517 0.24585 14.185L0.24585 0.28418Z" fill="white"/>
<path id="Rectangle Copy 3" fill-rule="evenodd" clip-rule="evenodd" d="M0.24585 0.28418L8.863 0.28418C10.4981 0.28418 11.8236 1.60967 11.8236 3.24475V14.2949C11.8236 16.3675 13.5037 18.0476 15.5763 18.0476H17.829C18.7839 18.0476 19.7254 17.8224 20.5771 17.3904L20.9924 17.1797C24.4332 15.4341 27.3676 12.8336 29.5143 9.62768C30.2412 8.54204 30.6515 7.27543 30.6991 5.96977L30.9067 0.28418V14.185C30.9067 22.6517 24.043 29.5154 15.5763 29.5154C7.1095 29.5154 0.24585 22.6517 0.24585 14.185L0.24585 0.28418Z" fill="white"/>
<path id="Universal Login Inc." d="M47.2752 8.004H49.0252V13.828C49.0252 14.164 49.0392 14.5047 49.0672 14.85C49.1046 15.1953 49.1979 15.508 49.3472 15.788C49.5059 16.0587 49.7392 16.2827 50.0472 16.46C50.3646 16.6373 50.8079 16.726 51.3772 16.726C51.9466 16.726 52.3852 16.6373 52.6932 16.46C53.0106 16.2827 53.2439 16.0587 53.3932 15.788C53.5519 15.508 53.6452 15.1953 53.6732 14.85C53.7106 14.5047 53.7292 14.164 53.7292 13.828V8.004H55.4792V14.402C55.4792 15.046 55.3812 15.606 55.1852 16.082C54.9892 16.558 54.7092 16.9593 54.3452 17.286C53.9906 17.6033 53.5612 17.8413 53.0572 18C52.5532 18.1587 51.9932 18.238 51.3772 18.238C50.7612 18.238 50.2012 18.1587 49.6972 18C49.1932 17.8413 48.7592 17.6033 48.3952 17.286C48.0406 16.9593 47.7652 16.558 47.5692 16.082C47.3732 15.606 47.2752 15.046 47.2752 14.402V8.004ZM57.2668 10.762H58.7788V11.826L58.8068 11.854C59.0494 11.4527 59.3668 11.14 59.7588 10.916C60.1508 10.6827 60.5848 10.566 61.0608 10.566C61.8541 10.566 62.4794 10.7713 62.9368 11.182C63.3941 11.5927 63.6228 12.2087 63.6228 13.03V18H62.0268V13.45C62.0081 12.8807 61.8868 12.47 61.6628 12.218C61.4388 11.9567 61.0888 11.826 60.6128 11.826C60.3421 11.826 60.0994 11.8773 59.8848 11.98C59.6701 12.0733 59.4881 12.2087 59.3388 12.386C59.1894 12.554 59.0728 12.7547 58.9888 12.988C58.9048 13.2213 58.8628 13.4687 58.8628 13.73V18H57.2668V10.762ZM65.3478 8.004H66.9438V9.516H65.3478V8.004ZM65.3478 10.762H66.9438V18H65.3478V10.762ZM67.9688 10.762H69.7048L71.5388 16.32H71.5668L73.3308 10.762H74.9828L72.3928 18H70.6008L67.9688 10.762ZM80.9125 13.744C80.8939 13.492 80.8379 13.2493 80.7445 13.016C80.6605 12.7827 80.5392 12.582 80.3805 12.414C80.2312 12.2367 80.0445 12.0967 79.8205 11.994C79.6059 11.882 79.3632 11.826 79.0925 11.826C78.8125 11.826 78.5559 11.8773 78.3225 11.98C78.0985 12.0733 77.9025 12.2087 77.7345 12.386C77.5759 12.554 77.4452 12.7547 77.3425 12.988C77.2492 13.2213 77.1979 13.4733 77.1885 13.744H80.9125ZM77.1885 14.794C77.1885 15.074 77.2259 15.3447 77.3005 15.606C77.3845 15.8673 77.5059 16.096 77.6645 16.292C77.8232 16.488 78.0239 16.6467 78.2665 16.768C78.5092 16.88 78.7985 16.936 79.1345 16.936C79.6012 16.936 79.9745 16.838 80.2545 16.642C80.5439 16.4367 80.7585 16.1333 80.8985 15.732H82.4105C82.3265 16.124 82.1819 16.474 81.9765 16.782C81.7712 17.09 81.5239 17.3513 81.2345 17.566C80.9452 17.7713 80.6185 17.9253 80.2545 18.028C79.8999 18.14 79.5265 18.196 79.1345 18.196C78.5652 18.196 78.0612 18.1027 77.6225 17.916C77.1839 17.7293 76.8105 17.468 76.5025 17.132C76.2039 16.796 75.9752 16.3947 75.8165 15.928C75.6672 15.4613 75.5925 14.948 75.5925 14.388C75.5925 13.8747 75.6719 13.3893 75.8305 12.932C75.9985 12.4653 76.2319 12.0593 76.5305 11.714C76.8385 11.3593 77.2072 11.0793 77.6365 10.874C78.0659 10.6687 78.5512 10.566 79.0925 10.566C79.6619 10.566 80.1705 10.6873 80.6185 10.93C81.0759 11.1633 81.4539 11.476 81.7525 11.868C82.0512 12.26 82.2659 12.7127 82.3965 13.226C82.5365 13.73 82.5739 14.2527 82.5085 14.794H77.1885ZM83.7218 10.762H85.2198V12.162H85.2478C85.2945 11.966 85.3832 11.7747 85.5138 11.588C85.6538 11.4013 85.8172 11.2333 86.0038 11.084C86.1998 10.9253 86.4145 10.7993 86.6478 10.706C86.8812 10.6127 87.1192 10.566 87.3618 10.566C87.5485 10.566 87.6745 10.5707 87.7398 10.58C87.8145 10.5893 87.8892 10.5987 87.9638 10.608V12.148C87.8518 12.1293 87.7352 12.1153 87.6138 12.106C87.5018 12.0873 87.3898 12.078 87.2778 12.078C87.0072 12.078 86.7505 12.134 86.5078 12.246C86.2745 12.3487 86.0692 12.5073 85.8918 12.722C85.7145 12.9273 85.5745 13.184 85.4718 13.492C85.3692 13.8 85.3178 14.1547 85.3178 14.556V18H83.7218V10.762ZM89.8477 15.676C89.8944 16.1427 90.0717 16.4693 90.3797 16.656C90.6877 16.8427 91.0564 16.936 91.4857 16.936C91.635 16.936 91.803 16.9267 91.9897 16.908C92.1857 16.88 92.3677 16.8333 92.5357 16.768C92.7037 16.7027 92.839 16.6093 92.9417 16.488C93.0537 16.3573 93.105 16.1893 93.0957 15.984C93.0864 15.7787 93.0117 15.6107 92.8717 15.48C92.7317 15.3493 92.5497 15.2467 92.3257 15.172C92.111 15.088 91.8637 15.018 91.5837 14.962C91.3037 14.906 91.019 14.8453 90.7297 14.78C90.431 14.7147 90.1417 14.6353 89.8617 14.542C89.591 14.4487 89.3437 14.3227 89.1197 14.164C88.905 14.0053 88.7324 13.8047 88.6017 13.562C88.471 13.31 88.4057 13.002 88.4057 12.638C88.4057 12.246 88.499 11.9193 88.6857 11.658C88.8817 11.3873 89.1244 11.1727 89.4137 11.014C89.7124 10.846 90.039 10.7293 90.3937 10.664C90.7577 10.5987 91.103 10.566 91.4297 10.566C91.803 10.566 92.1577 10.608 92.4937 10.692C92.839 10.7667 93.147 10.8927 93.4177 11.07C93.6977 11.2473 93.9264 11.4807 94.1037 11.77C94.2904 12.05 94.407 12.3907 94.4537 12.792H92.7877C92.713 12.4093 92.5357 12.1527 92.2557 12.022C91.985 11.8913 91.6724 11.826 91.3177 11.826C91.2057 11.826 91.0704 11.8353 90.9117 11.854C90.7624 11.8727 90.6177 11.91 90.4777 11.966C90.347 12.0127 90.235 12.0873 90.1417 12.19C90.0484 12.2833 90.0017 12.4093 90.0017 12.568C90.0017 12.764 90.067 12.9227 90.1977 13.044C90.3377 13.1653 90.515 13.268 90.7297 13.352C90.9537 13.4267 91.2057 13.492 91.4857 13.548C91.7657 13.604 92.055 13.6647 92.3537 13.73C92.643 13.7953 92.9277 13.8747 93.2077 13.968C93.4877 14.0613 93.735 14.1873 93.9497 14.346C94.1737 14.5047 94.351 14.7053 94.4817 14.948C94.6217 15.1907 94.6917 15.4893 94.6917 15.844C94.6917 16.2733 94.5937 16.6373 94.3977 16.936C94.2017 17.2347 93.945 17.4773 93.6277 17.664C93.3197 17.8507 92.9744 17.986 92.5917 18.07C92.209 18.154 91.831 18.196 91.4577 18.196C91.0004 18.196 90.5757 18.1447 90.1837 18.042C89.801 17.9393 89.465 17.7853 89.1757 17.58C88.8957 17.3653 88.6717 17.104 88.5037 16.796C88.345 16.4787 88.261 16.1053 88.2517 15.676H89.8477ZM101.965 16.39C101.965 16.586 101.989 16.726 102.035 16.81C102.091 16.894 102.194 16.936 102.343 16.936C102.39 16.936 102.446 16.936 102.511 16.936C102.577 16.936 102.651 16.9267 102.735 16.908V18.014C102.679 18.0327 102.605 18.0513 102.511 18.07C102.427 18.098 102.339 18.1213 102.245 18.14C102.152 18.1587 102.059 18.1727 101.965 18.182C101.872 18.1913 101.793 18.196 101.727 18.196C101.401 18.196 101.13 18.1307 100.915 18C100.701 17.8693 100.561 17.6407 100.495 17.314C100.178 17.622 99.7861 17.846 99.3195 17.986C98.8621 18.126 98.4188 18.196 97.9895 18.196C97.6628 18.196 97.3501 18.1493 97.0515 18.056C96.7528 17.972 96.4868 17.846 96.2535 17.678C96.0295 17.5007 95.8475 17.2813 95.7075 17.02C95.5768 16.7493 95.5115 16.4367 95.5115 16.082C95.5115 15.634 95.5908 15.27 95.7495 14.99C95.9175 14.71 96.1321 14.4907 96.3935 14.332C96.6641 14.1733 96.9628 14.0613 97.2895 13.996C97.6255 13.9213 97.9615 13.8653 98.2975 13.828C98.5868 13.772 98.8621 13.7347 99.1235 13.716C99.3848 13.688 99.6135 13.646 99.8095 13.59C100.015 13.534 100.173 13.45 100.285 13.338C100.407 13.2167 100.467 13.0393 100.467 12.806C100.467 12.6007 100.416 12.4327 100.313 12.302C100.22 12.1713 100.099 12.0733 99.9495 12.008C99.8095 11.9333 99.6508 11.8867 99.4735 11.868C99.2961 11.84 99.1281 11.826 98.9695 11.826C98.5215 11.826 98.1528 11.9193 97.8635 12.106C97.5741 12.2927 97.4108 12.582 97.3735 12.974H95.7775C95.8055 12.5073 95.9175 12.12 96.1135 11.812C96.3095 11.504 96.5568 11.2567 96.8555 11.07C97.1635 10.8833 97.5088 10.7527 97.8915 10.678C98.2741 10.6033 98.6661 10.566 99.0675 10.566C99.4221 10.566 99.7721 10.6033 100.117 10.678C100.463 10.7527 100.771 10.874 101.041 11.042C101.321 11.21 101.545 11.4293 101.713 11.7C101.881 11.9613 101.965 12.2833 101.965 12.666V16.39ZM100.369 14.374C100.127 14.5327 99.8281 14.6307 99.4735 14.668C99.1188 14.696 98.7641 14.7427 98.4095 14.808C98.2415 14.836 98.0781 14.878 97.9195 14.934C97.7608 14.9807 97.6208 15.0507 97.4995 15.144C97.3781 15.228 97.2801 15.3447 97.2055 15.494C97.1401 15.634 97.1075 15.8067 97.1075 16.012C97.1075 16.1893 97.1588 16.3387 97.2615 16.46C97.3641 16.5813 97.4855 16.6793 97.6255 16.754C97.7748 16.8193 97.9335 16.866 98.1015 16.894C98.2788 16.922 98.4375 16.936 98.5775 16.936C98.7548 16.936 98.9461 16.9127 99.1515 16.866C99.3568 16.8193 99.5481 16.74 99.7255 16.628C99.9121 16.516 100.066 16.376 100.187 16.208C100.309 16.0307 100.369 15.816 100.369 15.564V14.374ZM103.725 8.004H105.321V18H103.725V8.004ZM111.18 8.004H112.93V16.488H118.012V18H111.18V8.004ZM122.313 18.196C121.735 18.196 121.217 18.1027 120.759 17.916C120.311 17.72 119.929 17.454 119.611 17.118C119.303 16.782 119.065 16.3807 118.897 15.914C118.739 15.4473 118.659 14.934 118.659 14.374C118.659 13.8233 118.739 13.3147 118.897 12.848C119.065 12.3813 119.303 11.98 119.611 11.644C119.929 11.308 120.311 11.0467 120.759 10.86C121.217 10.664 121.735 10.566 122.313 10.566C122.892 10.566 123.405 10.664 123.853 10.86C124.311 11.0467 124.693 11.308 125.001 11.644C125.319 11.98 125.557 12.3813 125.715 12.848C125.883 13.3147 125.967 13.8233 125.967 14.374C125.967 14.934 125.883 15.4473 125.715 15.914C125.557 16.3807 125.319 16.782 125.001 17.118C124.693 17.454 124.311 17.72 123.853 17.916C123.405 18.1027 122.892 18.196 122.313 18.196ZM122.313 16.936C122.668 16.936 122.976 16.8613 123.237 16.712C123.499 16.5627 123.713 16.3667 123.881 16.124C124.049 15.8813 124.171 15.6107 124.245 15.312C124.329 15.004 124.371 14.6913 124.371 14.374C124.371 14.066 124.329 13.758 124.245 13.45C124.171 13.142 124.049 12.8713 123.881 12.638C123.713 12.3953 123.499 12.1993 123.237 12.05C122.976 11.9007 122.668 11.826 122.313 11.826C121.959 11.826 121.651 11.9007 121.389 12.05C121.128 12.1993 120.913 12.3953 120.745 12.638C120.577 12.8713 120.451 13.142 120.367 13.45C120.293 13.758 120.255 14.066 120.255 14.374C120.255 14.6913 120.293 15.004 120.367 15.312C120.451 15.6107 120.577 15.8813 120.745 16.124C120.913 16.3667 121.128 16.5627 121.389 16.712C121.651 16.8613 121.959 16.936 122.313 16.936ZM133.986 17.622C133.986 18.714 133.678 19.526 133.062 20.058C132.455 20.5993 131.578 20.87 130.43 20.87C130.066 20.87 129.697 20.8327 129.324 20.758C128.96 20.6833 128.624 20.5573 128.316 20.38C128.017 20.2027 127.765 19.9693 127.56 19.68C127.355 19.3907 127.233 19.036 127.196 18.616H128.792C128.839 18.84 128.918 19.022 129.03 19.162C129.142 19.302 129.273 19.4093 129.422 19.484C129.581 19.568 129.753 19.6193 129.94 19.638C130.127 19.666 130.323 19.68 130.528 19.68C131.172 19.68 131.643 19.5213 131.942 19.204C132.241 18.8867 132.39 18.4293 132.39 17.832V16.726H132.362C132.138 17.1273 131.83 17.44 131.438 17.664C131.055 17.888 130.64 18 130.192 18C129.613 18 129.119 17.902 128.708 17.706C128.307 17.5007 127.971 17.2253 127.7 16.88C127.439 16.5253 127.247 16.1193 127.126 15.662C127.005 15.2047 126.944 14.7147 126.944 14.192C126.944 13.7067 127.019 13.2447 127.168 12.806C127.317 12.3673 127.532 11.9847 127.812 11.658C128.092 11.322 128.433 11.056 128.834 10.86C129.245 10.664 129.707 10.566 130.22 10.566C130.677 10.566 131.097 10.664 131.48 10.86C131.863 11.0467 132.157 11.3453 132.362 11.756H132.39V10.762H133.986V17.622ZM130.444 16.74C130.799 16.74 131.097 16.67 131.34 16.53C131.592 16.3807 131.793 16.1893 131.942 15.956C132.101 15.7133 132.213 15.4427 132.278 15.144C132.353 14.836 132.39 14.528 132.39 14.22C132.39 13.912 132.353 13.6133 132.278 13.324C132.203 13.0347 132.087 12.778 131.928 12.554C131.779 12.33 131.578 12.1527 131.326 12.022C131.083 11.8913 130.789 11.826 130.444 11.826C130.089 11.826 129.791 11.9007 129.548 12.05C129.305 12.1993 129.109 12.3953 128.96 12.638C128.811 12.8713 128.703 13.142 128.638 13.45C128.573 13.7487 128.54 14.0473 128.54 14.346C128.54 14.6447 128.577 14.9387 128.652 15.228C128.727 15.508 128.839 15.76 128.988 15.984C129.147 16.208 129.343 16.39 129.576 16.53C129.819 16.67 130.108 16.74 130.444 16.74ZM135.635 8.004H137.231V9.516H135.635V8.004ZM135.635 10.762H137.231V18H135.635V10.762ZM138.97 10.762H140.482V11.826L140.51 11.854C140.753 11.4527 141.07 11.14 141.462 10.916C141.854 10.6827 142.288 10.566 142.764 10.566C143.557 10.566 144.183 10.7713 144.64 11.182C145.097 11.5927 145.326 12.2087 145.326 13.03V18H143.73V13.45C143.711 12.8807 143.59 12.47 143.366 12.218C143.142 11.9567 142.792 11.826 142.316 11.826C142.045 11.826 141.803 11.8773 141.588 11.98C141.373 12.0733 141.191 12.2087 141.042 12.386C140.893 12.554 140.776 12.7547 140.692 12.988C140.608 13.2213 140.566 13.4687 140.566 13.73V18H138.97V10.762ZM151.129 8.004H152.879V18H151.129V8.004ZM154.802 10.762H156.314V11.826L156.342 11.854C156.585 11.4527 156.902 11.14 157.294 10.916C157.686 10.6827 158.12 10.566 158.596 10.566C159.389 10.566 160.015 10.7713 160.472 11.182C160.929 11.5927 161.158 12.2087 161.158 13.03V18H159.562V13.45C159.543 12.8807 159.422 12.47 159.198 12.218C158.974 11.9567 158.624 11.826 158.148 11.826C157.877 11.826 157.635 11.8773 157.42 11.98C157.205 12.0733 157.023 12.2087 156.874 12.386C156.725 12.554 156.608 12.7547 156.524 12.988C156.44 13.2213 156.398 13.4687 156.398 13.73V18H154.802V10.762ZM167.727 13.184C167.662 12.736 167.48 12.4 167.181 12.176C166.892 11.9427 166.523 11.826 166.075 11.826C165.87 11.826 165.65 11.8633 165.417 11.938C165.184 12.0033 164.969 12.134 164.773 12.33C164.577 12.5167 164.414 12.7827 164.283 13.128C164.152 13.464 164.087 13.9073 164.087 14.458C164.087 14.7567 164.12 15.0553 164.185 15.354C164.26 15.6527 164.372 15.9187 164.521 16.152C164.68 16.3853 164.88 16.5767 165.123 16.726C165.366 16.866 165.66 16.936 166.005 16.936C166.472 16.936 166.854 16.7913 167.153 16.502C167.461 16.2127 167.652 15.8067 167.727 15.284H169.323C169.174 16.2267 168.814 16.95 168.245 17.454C167.685 17.9487 166.938 18.196 166.005 18.196C165.436 18.196 164.932 18.1027 164.493 17.916C164.064 17.72 163.7 17.4587 163.401 17.132C163.102 16.796 162.874 16.3993 162.715 15.942C162.566 15.4847 162.491 14.99 162.491 14.458C162.491 13.9167 162.566 13.408 162.715 12.932C162.864 12.456 163.088 12.0453 163.387 11.7C163.686 11.3453 164.054 11.07 164.493 10.874C164.941 10.6687 165.464 10.566 166.061 10.566C166.481 10.566 166.878 10.622 167.251 10.734C167.634 10.8367 167.97 10.9953 168.259 11.21C168.558 11.4247 168.8 11.6953 168.987 12.022C169.174 12.3487 169.286 12.736 169.323 13.184H167.727ZM170.746 16.11H172.692V18H170.746V16.11Z" fill="#FAFBFC"/>
</g>
</g>
<defs>
<linearGradient id="paint0_linear" x1="0.24585" y1="0.28418" x2="0.24585" y2="29.5154" gradientUnits="userSpaceOnUse">
<stop stop-color="#DEEDFF"/>
<stop offset="1" stop-color="#B2D4FD"/>
</linearGradient>
<linearGradient id="paint1_linear" x1="18.1331" y1="-0.203767" x2="17.2025" y2="18.6086" gradientUnits="userSpaceOnUse">
<stop stop-color="#00D6D9"/>
<stop offset="1" stop-color="#455CDA"/>
</linearGradient>
<linearGradient id="paint2_linear" x1="14.9971" y1="3.49326" x2="21.2909" y2="13.4567" gradientUnits="userSpaceOnUse">
<stop stop-color="#00D6D9"/>
<stop offset="0.399728" stop-color="#1CEFF5" stop-opacity="0.600272"/>
<stop offset="1" stop-color="#04CFD9" stop-opacity="0.01"/>
</linearGradient>
<linearGradient id="paint3_linear" x1="18.6367" y1="15.9373" x2="20.6797" y2="18.8763" gradientUnits="userSpaceOnUse">
<stop stop-color="#3F66DA" stop-opacity="0.01"/>
<stop offset="1" stop-color="#2E2EAE"/>
</linearGradient>
<linearGradient id="paint4_linear" x1="19.0403" y1="11.5727" x2="23.2016" y2="18.6544" gradientUnits="userSpaceOnUse">
<stop stop-color="#2D41B3" stop-opacity="0.01"/>
<stop offset="1" stop-color="#141E62"/>
</linearGradient>
</defs>
</svg>
