<?xml version="1.0" encoding="UTF-8"?>
<svg width="320px" height="740px" viewBox="0 0 320 740" version="1.1" xmlns="http://www.w3.org/2000/svg" xmlns:xlink="http://www.w3.org/1999/xlink">
    <!-- Generator: Sketch 52.3 (67297) - http://www.bohemiancoding.com/sketch -->
    <title>Group 4</title>
    <desc>Created with Sketch.</desc>
    <defs>
        <linearGradient x1="26.5581273%" y1="17.4957541%" x2="102.230061%" y2="101.474185%" id="linearGradient-1">
            <stop stop-color="#05062C" offset="0%"></stop>
            <stop stop-color="#05062C" stop-opacity="0" offset="100%"></stop>
        </linearGradient>
        <rect id="path-2" x="20" y="20" width="196" height="115" rx="9"></rect>
        <rect id="path-3" x="10" y="10" width="196" height="115" rx="9"></rect>
        <linearGradient x1="100%" y1="0%" x2="0%" y2="100%" id="linearGradient-4">
            <stop stop-color="#83C3F7" offset="0%"></stop>
            <stop stop-color="#1B58E4" offset="100%"></stop>
        </linearGradient>
        <path d="M186.33305,0 L9.66672331,0 C4.33050717,0.0062890625 0.00634373761,4.29318359 1.08002496e-12,9.5834082 L1.08002496e-12,105.416816 C0.00634373761,110.706816 4.33050717,114.993711 9.66672331,115 L186.333277,115 C191.669266,114.993711 195.99343,110.706816 196,105.416592 L196,9.5834082 C195.99343,4.29318359 191.669266,0.0062890625 186.33305,0 Z M186.33305,111.166592 L9.66672331,111.166592 C6.46358894,111.166592 3.86673464,108.592344 3.86673464,105.416592 L3.86673464,19.1665918 L192.133265,19.1665918 L192.133265,105.416592 C192.133039,108.592119 189.536411,111.166592 186.33305,111.166592 Z M3.86673464,15.3334082 L3.86673464,9.5834082 C3.86673464,6.40788086 6.46358894,3.8334082 9.66672331,3.8334082 L186.333277,3.8334082 C189.536411,3.8334082 192.133265,6.40788086 192.133265,9.5834082 L192.133265,15.3334082 L3.86673464,15.3334082 Z" id="path-5"></path>
        <filter x="-39.8%" y="-62.6%" width="179.6%" height="235.7%" filterUnits="objectBoundingBox" id="filter-6">
            <feOffset dx="0" dy="6" in="SourceAlpha" result="shadowOffsetOuter1"></feOffset>
            <feGaussianBlur stdDeviation="25" in="shadowOffsetOuter1" result="shadowBlurOuter1"></feGaussianBlur>
            <feColorMatrix values="0 0 0 0 0.121568627   0 0 0 0 0.360784314   0 0 0 0 0.898039216  0 0 0 1 0" type="matrix" in="shadowBlurOuter1"></feColorMatrix>
        </filter>
        <linearGradient x1="-11.4155784%" y1="-14.030231%" x2="109.488689%" y2="107.493207%" id="linearGradient-7">
            <stop stop-color="#83C3F7" offset="0%"></stop>
            <stop stop-color="#1B58E4" offset="100%"></stop>
        </linearGradient>
        <path d="M14,8 L12,8 C10.8953475,8 10,8.89529501 10,9.99988281 C10,11.1044706 10.8953475,12 12,12 L14,12 C15.1046525,12 16,11.104705 16,10.0001172 C16,8.89552938 15.1046525,8 14,8 Z" id="path-8"></path>
        <filter x="-1300.0%" y="-1800.0%" width="2700.0%" height="4000.0%" filterUnits="objectBoundingBox" id="filter-9">
            <feOffset dx="0" dy="6" in="SourceAlpha" result="shadowOffsetOuter1"></feOffset>
            <feGaussianBlur stdDeviation="25" in="shadowOffsetOuter1" result="shadowBlurOuter1"></feGaussianBlur>
            <feColorMatrix values="0 0 0 0 0.121568627   0 0 0 0 0.360784314   0 0 0 0 0.898039216  0 0 0 1 0" type="matrix" in="shadowBlurOuter1"></feColorMatrix>
        </filter>
        <path d="M21.7599461,8.16485494 C21.277143,7.94504835 20.7226226,7.94504835 20.2400539,8.16485494 C19.9977149,8.2662141 19.7745942,8.40807011 19.5800668,8.58433673 C18.8066444,9.37203552 18.8066444,10.6330558 19.5800668,11.4207546 C19.7745942,11.5970213 19.9977149,11.7388773 20.2400539,11.8402364 C20.7242632,12.0532545 21.2757368,12.0532545 21.7599461,11.8402364 C22.0022851,11.7388773 22.2254058,11.5970213 22.4199332,11.4207546 C23.1933556,10.6330558 23.1933556,9.37203552 22.4199332,8.58433673 C22.2254058,8.40807011 22.0022851,8.2662141 21.7599461,8.16485494 Z" id="path-10"></path>
        <filter x="-1950.0%" y="-1800.0%" width="4000.0%" height="4000.0%" filterUnits="objectBoundingBox" id="filter-11">
            <feOffset dx="0" dy="6" in="SourceAlpha" result="shadowOffsetOuter1"></feOffset>
            <feGaussianBlur stdDeviation="25" in="shadowOffsetOuter1" result="shadowBlurOuter1"></feGaussianBlur>
            <feColorMatrix values="0 0 0 0 0.121568627   0 0 0 0 0.360784314   0 0 0 0 0.898039216  0 0 0 1 0" type="matrix" in="shadowBlurOuter1"></feColorMatrix>
        </filter>
        <path d="M29.766606,8.15248304 C29.0162685,7.84190542 28.1520446,8.01460434 27.5800353,8.58995582 C27.4035818,8.78392077 27.2615753,9.00639624 27.1601087,9.24803452 C26.9466304,9.73084368 26.9466304,10.2807227 27.1601087,10.7635318 C27.2615753,11.0051701 27.4035818,11.2276456 27.5800353,11.4216105 C28.3685692,12.1927965 29.6309266,12.1927965 30.4194606,11.4216105 C30.5959141,11.2276456 30.7379205,11.0051701 30.8393871,10.7635318 C30.9513988,10.5268011 31.0062329,10.2674022 30.9994373,10.0056663 C31.0043583,9.19568735 30.5169435,8.46306067 29.766606,8.15248304 Z" id="path-12"></path>
        <filter x="-1950.0%" y="-1800.0%" width="4000.0%" height="4000.0%" filterUnits="objectBoundingBox" id="filter-13">
            <feOffset dx="0" dy="6" in="SourceAlpha" result="shadowOffsetOuter1"></feOffset>
            <feGaussianBlur stdDeviation="25" in="shadowOffsetOuter1" result="shadowBlurOuter1"></feGaussianBlur>
            <feColorMatrix values="0 0 0 0 0.121568627   0 0 0 0 0.360784314   0 0 0 0 0.898039216  0 0 0 1 0" type="matrix" in="shadowBlurOuter1"></feColorMatrix>
        </filter>
        <linearGradient x1="100%" y1="-321.386719%" x2="0%" y2="1245.89844%" id="linearGradient-14">
            <stop stop-color="#83C3F7" offset="0%"></stop>
            <stop stop-color="#1B58E4" offset="100%"></stop>
        </linearGradient>
        <path d="M184.083402,8 L118.916598,8 C117.858011,8 117,8.89534747 117,10 C117,11.1046525 117.858011,12 118.916598,12 L184.083402,12 C185.141989,12 186,11.1046525 186,10 C186,8.89534747 185.141989,8 184.083402,8 Z" id="path-15"></path>
        <filter x="-113.0%" y="-1800.0%" width="326.1%" height="4000.0%" filterUnits="objectBoundingBox" id="filter-16">
            <feOffset dx="0" dy="6" in="SourceAlpha" result="shadowOffsetOuter1"></feOffset>
            <feGaussianBlur stdDeviation="25" in="shadowOffsetOuter1" result="shadowBlurOuter1"></feGaussianBlur>
            <feColorMatrix values="0 0 0 0 0.121568627   0 0 0 0 0.360784314   0 0 0 0 0.898039216  0 0 0 1 0" type="matrix" in="shadowBlurOuter1"></feColorMatrix>
        </filter>
        <linearGradient x1="0%" y1="0%" x2="100%" y2="100%" id="linearGradient-17">
            <stop stop-color="#7CFFE9" offset="0%"></stop>
            <stop stop-color="#18DAA2" offset="100%"></stop>
        </linearGradient>
        <linearGradient x1="26.5581273%" y1="18.6653646%" x2="26.5581273%" y2="100%" id="linearGradient-18">
            <stop stop-color="#05062C" offset="0%"></stop>
            <stop stop-color="#05062C" stop-opacity="0" offset="100%"></stop>
        </linearGradient>
        <rect id="path-19" x="0" y="10" width="78" height="15"></rect>
        <rect id="path-20" x="0" y="4.5" width="87" height="11"></rect>
        <rect id="path-21" x="20" y="12" width="81" height="54" rx="9"></rect>
        <rect id="path-22" x="15" y="7" width="81" height="54" rx="9"></rect>
        <linearGradient x1="-8.55490331%" y1="-21.5688345%" x2="100%" y2="116.365489%" id="linearGradient-23">
            <stop stop-color="#83C3F7" offset="0%"></stop>
            <stop stop-color="#1B58E4" offset="100%"></stop>
        </linearGradient>
        <path d="M90.884033,53.0538892 L85.474537,53.0538892 C85.9427886,52.396545 86.2253268,51.595158 86.2253268,50.7261266 L86.2253268,4.02603465 C86.2253268,1.80570718 84.4229551,0 82.2086808,0 L8.73842353,0 C6.52494285,0 4.7233648,1.80650299 4.7233648,4.02603465 L4.7233648,50.7261266 C4.7233648,51.6126659 5.02018868,52.4275818 5.50669411,53.0944759 L0.0456110711,53.0944759 C0.0456110711,53.0944759 -0.199625764,53.3435664 0.447196309,53.9913608 C2.28131387,55.8312881 6.40113396,55.9904514 6.40113396,55.9904514 L6.40113396,55.9856765 C6.40113396,55.9856765 83.5705786,56.0039803 83.6562924,55.9992054 C87.9578576,55.9992054 89.3467394,54.7060039 90.4840351,53.95157 C91.3260943,53.1032299 90.884033,53.0538892 90.884033,53.0538892 Z M50.6326526,54.0359266 L40.2938169,54.0359266 L40.2938169,53.3316291 L50.6310653,53.3316291 L50.6326526,54.0359266 Z M83.2610563,49.8005922 L7.56779463,49.8005922 L7.56779463,2.71452939 L83.26185,2.71452939 L83.26185,49.8005922 L83.2610563,49.8005922 Z" id="path-24"></path>
        <filter x="-85.7%" y="-128.6%" width="271.3%" height="378.6%" filterUnits="objectBoundingBox" id="filter-25">
            <feOffset dx="0" dy="6" in="SourceAlpha" result="shadowOffsetOuter1"></feOffset>
            <feGaussianBlur stdDeviation="25" in="shadowOffsetOuter1" result="shadowBlurOuter1"></feGaussianBlur>
            <feColorMatrix values="0 0 0 0 0.121568627   0 0 0 0 0.360784314   0 0 0 0 0.898039216  0 0 0 1 0" type="matrix" in="shadowBlurOuter1"></feColorMatrix>
        </filter>
        <linearGradient x1="30.0694444%" y1="22.8472222%" x2="95.5512153%" y2="100%" id="linearGradient-26">
            <stop stop-color="#18DAA2" stop-opacity="0" offset="0%"></stop>
            <stop stop-color="#18DAA2" offset="100%"></stop>
        </linearGradient>
        <rect id="path-27" x="0" y="10" width="80" height="15"></rect>
        <rect id="path-28" x="16" y="28" width="64" height="54" rx="9"></rect>
        <rect id="path-29" x="8" y="20" width="64" height="54" rx="9"></rect>
        <linearGradient x1="1.24740997%" y1="2.57564706%" x2="94.6544034%" y2="98.2282596%" id="linearGradient-30">
            <stop stop-color="#83C3F7" offset="0%"></stop>
            <stop stop-color="#1B58E4" offset="100%"></stop>
        </linearGradient>
        <path d="M64,30.7455118 L60.8982158,30.7455118 L60.8982158,16.1789438 C60.8982158,12.6867437 58.1153553,9.845722 54.6946473,9.845722 L50.4936187,9.845722 L46.1945191,1.95452048 C45.5392969,0.748539758 44.2923669,0 42.9400299,0 C42.3097115,0 41.6844125,0.165947993 41.1322806,0.478726454 L24.6331901,9.84552491 L6.20356847,9.84552491 C2.7828605,9.84552491 0,12.6865467 0,16.1787468 L0,59.6667782 C0,63.1589782 2.7828605,66 6.20356847,66 L54.6946473,66 C58.1153553,66 60.8982158,63.1589782 60.8982158,59.6667782 L60.8982158,46.8950895 L64,46.8950895 L64,30.7455118 Z M54.6946473,12.3788925 C56.6052939,12.3788925 58.1661282,13.8607962 58.3757839,15.7569787 L53.7131653,15.7569787 L51.8743345,12.3788925 L54.6946473,12.3788925 Z M42.3394417,2.69281167 C42.9213037,2.35973315 43.7043271,2.59269103 44.0255675,3.18434883 L50.8743194,15.7557962 L19.3278977,15.7557962 L42.3394417,2.69281167 Z M58.4167112,59.6667782 C58.4167112,61.7618223 56.7466088,63.4668295 54.6944542,63.4668295 L6.20356847,63.4668295 C4.15141396,63.4668295 2.48131155,61.7618223 2.48131155,59.6667782 L2.48131155,16.1789438 C2.48131155,14.0838997 4.15141396,12.3788925 6.20356847,12.3788925 L20.1715397,12.3788925 L14.2210639,15.7571758 L6.97906279,15.7571758 C6.29295205,15.7571758 5.73831048,16.3245918 5.73831048,17.0238596 C5.73831048,17.7231274 6.29295205,18.2905434 6.97906279,18.2905434 L9.75825528,18.2905434 L55.0929159,18.2905434 L58.4167112,18.2905434 L58.4167112,30.7466943 L49.3434083,30.7466943 C45.1298312,30.7466943 41.7006289,34.2477634 41.7006289,38.5492063 L41.7006289,39.0939572 C41.7006289,43.3955972 45.1300243,46.8964691 49.3434083,46.8964691 L58.4167112,46.8964691 L58.4167112,59.6667782 Z M61.5184954,44.361919 L60.8982158,44.361919 L49.3434083,44.361919 C46.4972264,44.361919 44.1819405,41.9984412 44.1819405,39.0925776 L44.1819405,38.5478267 C44.1819405,35.6421601 46.4970333,33.2784852 49.3434083,33.2784852 L60.8982158,33.2784852 L61.5184954,33.2784852 L61.5184954,44.361919 Z M53.1436587,38.9242645 C53.1436587,40.4696305 51.9177714,41.7209415 50.4042351,41.7209415 C48.8905057,41.7209415 47.6648115,40.4694335 47.6648115,38.9242645 C47.6648115,37.3790955 48.8906988,36.1275875 50.4042351,36.1275875 C51.9179645,36.1273904 53.1436587,37.380081 53.1436587,38.9242645 Z" id="path-31"></path>
        <filter x="-121.9%" y="-109.1%" width="343.8%" height="336.4%" filterUnits="objectBoundingBox" id="filter-32">
            <feOffset dx="0" dy="6" in="SourceAlpha" result="shadowOffsetOuter1"></feOffset>
            <feGaussianBlur stdDeviation="25" in="shadowOffsetOuter1" result="shadowBlurOuter1"></feGaussianBlur>
            <feColorMatrix values="0 0 0 0 0.121568627   0 0 0 0 0.360784314   0 0 0 0 0.898039216  0 0 0 1 0" type="matrix" in="shadowBlurOuter1"></feColorMatrix>
        </filter>
        <rect id="path-33" x="0" y="10" width="80" height="15"></rect>
        <path d="M82.9667972,29.4040403 C82.9408102,28.2659022 82.1296434,27.2841574 80.9966551,27.1285804 C75.7156022,26.3994443 70.5071738,25.13092 65.4014175,23.2510503 C60.3197919,21.3801607 54.6971951,18.7684724 48.6328187,15.3287506 C47.8628368,14.8917587 47.1385642,14.8890763 46.3693944,15.3287506 C40.3470149,18.7667231 34.7646748,21.3729299 29.6429086,23.2510503 C24.535528,25.1238059 19.3296519,26.4003773 14.0905959,27.1285804 C12.9574916,27.2859068 12.1624507,28.2659022 12.036344,29.4040403 C11.5337733,51.0222504 16.2441555,68.7106826 26.1220133,82.4604735 C31.5031859,89.9503297 38.2374245,96.0296131 46.3693944,100.665086 C46.9980718,101.129018 47.9837229,101.093914 48.7169286,100.665086 C56.7872953,95.9522911 63.5126008,89.9170918 68.8813599,82.4604735 C78.7723273,68.7196627 83.444309,51.0230668 82.9667972,29.4040403 Z" id="path-34"></path>
        <path d="M75.9667972,22.4040403 C75.9408102,21.2659022 75.1296434,20.2841574 73.9966551,20.1285804 C68.7156022,19.3994443 63.5071738,18.13092 58.4014175,16.2510503 C53.3197919,14.3801607 47.6971951,11.7684724 41.6328187,8.32875055 C40.8628368,7.89175869 40.1385642,7.88907633 39.3693944,8.32875055 C33.3470149,11.7667231 27.7646748,14.3729299 22.6429086,16.2510503 C17.535528,18.1238059 12.3296519,19.4003773 7.09059595,20.1285804 C5.95749159,20.2859068 5.16245073,21.2659022 5.036344,22.4040403 C4.53377329,44.0222504 9.2441555,61.7106826 19.1220133,75.4604735 C24.5031859,82.9503297 31.2374245,89.0296131 39.3693944,93.6650856 C39.9980718,94.1290177 40.9837229,94.0939137 41.7169286,93.6650856 C49.7872953,88.9522911 56.5126008,82.9170918 61.8813599,75.4604735 C71.7723273,61.7196627 76.444309,44.0230668 75.9667972,22.4040403 Z" id="path-35"></path>
        <path d="M70.9667972,14.4040403 C70.9408102,13.2659022 70.1296434,12.2841574 68.9966551,12.1285804 C63.7156022,11.3994443 58.5071738,10.13092 53.4014175,8.25105029 C48.3197919,6.38016066 42.6971951,3.76847245 36.6328187,0.328750551 C35.8628368,-0.10824131 35.1385642,-0.110923672 34.3693944,0.328750551 C28.3470149,3.76672308 22.7646748,6.37292994 17.6429086,8.25105029 C12.535528,10.1238059 7.32965191,11.4003773 2.09059595,12.1285804 C0.957491595,12.2859068 0.162450728,13.2659022 0.0363439973,14.4040403 C-0.466226707,36.0222504 4.2441555,53.7106826 14.1220133,67.4604735 C19.5031859,74.9503297 26.2374245,81.0296131 34.3693944,85.6650856 C34.9980718,86.1290177 35.9837229,86.0939137 36.7169286,85.6650856 C44.7872953,80.9522911 51.5126008,74.9170918 56.8813599,67.4604735 C66.7723273,53.7196627 71.444309,36.0230668 70.9667972,14.4040403 Z M53.1080192,64.8056342 C48.4413741,71.2857559 42.5862862,76.6890838 35.5015706,81.0294965 C28.416739,76.6889672 22.5339239,71.305582 17.895006,64.8056342 C8.90882837,52.214624 4.52223998,36.1066865 4.68941551,16.4691097 C9.6358853,15.6681328 14.5412863,14.3194876 19.4457592,12.5071434 C24.350232,10.6956156 29.7162068,8.20883223 35.5015706,5.0487758 C41.2869344,8.20883223 46.6106802,10.6956156 51.5152691,12.5071434 C56.419742,14.3196042 61.3662118,15.6681328 66.3136097,16.4691097 C66.4809012,36.2334573 62.0664696,52.3639033 53.1080192,64.8056342 Z" id="path-36"></path>
        <filter x="-109.9%" y="-83.7%" width="319.7%" height="281.4%" filterUnits="objectBoundingBox" id="filter-37">
            <feOffset dx="0" dy="6" in="SourceAlpha" result="shadowOffsetOuter1"></feOffset>
            <feGaussianBlur stdDeviation="25" in="shadowOffsetOuter1" result="shadowBlurOuter1"></feGaussianBlur>
            <feColorMatrix values="0 0 0 0 0.121568627   0 0 0 0 0.360784314   0 0 0 0 0.898039216  0 0 0 1 0" type="matrix" in="shadowBlurOuter1"></feColorMatrix>
        </filter>
        <path d="M10.305509,1.10576246 C8.87581734,-0.368602765 6.54965724,-0.368579848 5.11996556,1.10578538 C4.14340809,2.11285731 3.80420743,3.59696211 4.2270527,4.94342955 L0.0976668574,9.20186914 C0.0351556242,9.26633366 0,9.35360024 0,9.44492307 L0,11.3895837 C0,11.5795856 0.14908918,11.7333333 0.333333984,11.7333333 L2.219071,11.7333333 C2.30760451,11.7333333 2.39224912,11.6970792 2.45473813,11.6326147 L2.9260946,11.146186 C2.99802808,11.0720048 3.0331837,10.9679403 3.02147257,10.8635321 L2.96287245,10.341193 L3.66469605,10.2730389 C3.82420747,10.2575931 3.95018549,10.1276787 3.9651633,9.96318298 L4.03125232,9.23942952 L4.53776442,9.30018154 C4.63183127,9.31326695 4.72656479,9.2807024 4.79785382,9.21559621 C4.86880951,9.15014627 4.90949848,9.05680678 4.90949848,8.95879229 L4.90949848,8.31875333 L5.51887745,8.31875333 C5.60741095,8.31875333 5.69205556,8.2824992 5.75454457,8.21803468 L6.60936846,7.3481647 C7.91470435,7.78456636 9.32895155,7.46112084 10.305509,6.45336141 C11.7352007,4.9790191 11.7352007,2.58012769 10.305509,1.10576246 Z M9.36250718,3.53653092 C8.97252864,3.93869511 8.33841629,3.93869511 7.94843775,3.53653092 C7.55845921,3.13436673 7.55845921,2.48044029 7.94843775,2.0782761 C8.33841629,1.6761119 8.97252864,1.6761119 9.36250718,2.0782761 C9.75248571,2.48044029 9.75246349,3.13436673 9.36250718,3.53653092 Z" id="path-38"></path>
        <filter x="-685.5%" y="-613.6%" width="1471.1%" height="1429.5%" filterUnits="objectBoundingBox" id="filter-39">
            <feOffset dx="0" dy="6" in="SourceAlpha" result="shadowOffsetOuter1"></feOffset>
            <feGaussianBlur stdDeviation="25" in="shadowOffsetOuter1" result="shadowBlurOuter1"></feGaussianBlur>
            <feColorMatrix values="0 0 0 0 0.0941176471   0 0 0 0 0.854901961   0 0 0 0 0.635294118  0 0 0 1 0" type="matrix" in="shadowBlurOuter1"></feColorMatrix>
        </filter>
        <rect id="path-40" x="0" y="10" width="80" height="15"></rect>
        <rect id="path-41" x="15" y="15" width="87" height="86" rx="9"></rect>
        <rect id="path-42" x="8" y="8" width="87" height="86" rx="9"></rect>
        <path d="M79.7497876,0 L7.25004248,0 C3.24788038,0.004703125 0.00475780321,3.21055469 0,7.16672266 L0,78.8334453 C0.00475780321,82.7894453 3.24788038,85.9952969 7.25004248,86 L79.7499575,86 C83.7519497,85.9952969 86.9950723,82.7894453 87,78.8332773 L87,7.16672266 C86.9950723,3.21055469 83.7519497,0.004703125 79.7497876,0 Z M84.0997791,78.8332773 C84.0997791,81.2080195 82.1523083,83.1332773 79.7497876,83.1332773 L7.25004248,83.1332773 C4.8476917,83.1332773 2.90005098,81.2081875 2.90005098,78.8332773 L2.90005098,14.3332773 L84.099949,14.3332773 L84.099949,78.8332773 L84.0997791,78.8332773 Z M84.099949,11.4667227 L2.90005098,11.4667227 L2.90005098,7.16672266 C2.90005098,4.79198047 4.8476917,2.86672266 7.25004248,2.86672266 L79.7499575,2.86672266 C82.1523083,2.86672266 84.099949,4.79198047 84.099949,7.16672266 L84.099949,11.4667227 Z" id="path-43"></path>
        <filter x="-89.7%" y="-83.7%" width="279.3%" height="281.4%" filterUnits="objectBoundingBox" id="filter-44">
            <feOffset dx="0" dy="6" in="SourceAlpha" result="shadowOffsetOuter1"></feOffset>
            <feGaussianBlur stdDeviation="25" in="shadowOffsetOuter1" result="shadowBlurOuter1"></feGaussianBlur>
            <feColorMatrix values="0 0 0 0 0.121568627   0 0 0 0 0.360784314   0 0 0 0 0.898039216  0 0 0 1 0" type="matrix" in="shadowBlurOuter1"></feColorMatrix>
        </filter>
        <path d="M10.5,5.9826087 L9,5.9826087 C8.17151061,5.9826087 7.5,6.65213366 7.5,7.47817324 C7.5,8.30421281 8.17151061,8.97391304 9,8.97391304 L10.5,8.97391304 C11.3284894,8.97391304 12,8.30438808 12,7.4783485 C12,6.65230893 11.3284894,5.9826087 10.5,5.9826087 Z" id="path-45"></path>
        <filter x="-1733.3%" y="-2407.0%" width="3566.7%" height="5315.1%" filterUnits="objectBoundingBox" id="filter-46">
            <feOffset dx="0" dy="6" in="SourceAlpha" result="shadowOffsetOuter1"></feOffset>
            <feGaussianBlur stdDeviation="25" in="shadowOffsetOuter1" result="shadowBlurOuter1"></feGaussianBlur>
            <feColorMatrix values="0 0 0 0 0.121568627   0 0 0 0 0.360784314   0 0 0 0 0.898039216  0 0 0 1 0" type="matrix" in="shadowBlurOuter1"></feColorMatrix>
        </filter>
        <path d="M16.3199596,6.10589152 C15.9578573,5.94151442 15.541967,5.94151442 15.1800404,6.10589152 C14.9982862,6.18169054 14.8309457,6.28777417 14.6850501,6.41959095 C14.1049833,7.00865265 14.1049833,7.95167654 14.6850501,8.54073825 C14.8309457,8.67255503 14.9982862,8.77863865 15.1800404,8.85443768 C15.5431974,9.01373817 15.9568026,9.01373817 16.3199596,8.85443768 C16.5017138,8.77863865 16.6690543,8.67255503 16.8149499,8.54073825 C17.3950167,7.95167654 17.3950167,7.00865265 16.8149499,6.41959095 C16.6690543,6.28777417 16.5017138,6.18169054 16.3199596,6.10589152 Z" id="path-47"></path>
        <filter x="-2600.0%" y="-2407.0%" width="5300.0%" height="5315.1%" filterUnits="objectBoundingBox" id="filter-48">
            <feOffset dx="0" dy="6" in="SourceAlpha" result="shadowOffsetOuter1"></feOffset>
            <feGaussianBlur stdDeviation="25" in="shadowOffsetOuter1" result="shadowBlurOuter1"></feGaussianBlur>
            <feColorMatrix values="0 0 0 0 0.121568627   0 0 0 0 0.360784314   0 0 0 0 0.898039216  0 0 0 1 0" type="matrix" in="shadowBlurOuter1"></feColorMatrix>
        </filter>
        <path d="M22.3249545,6.09663949 C21.7622013,5.86438144 21.1140335,5.9935302 20.6850265,6.42379305 C20.5526863,6.5688451 20.4461815,6.73521806 20.3700815,6.91592147 C20.2099728,7.27697875 20.2099728,7.68819259 20.3700815,8.04924988 C20.4461815,8.22995328 20.5526863,8.39632624 20.6850265,8.5413783 C21.2764269,9.11809129 22.2231949,9.11809129 22.8145954,8.5413783 C22.9469356,8.39632624 23.0534404,8.22995328 23.1295403,8.04924988 C23.2135491,7.87221647 23.2546747,7.67823119 23.2495779,7.48249829 C23.2532687,6.87677489 22.8877076,6.32889754 22.3249545,6.09663949 Z" id="path-49"></path>
        <filter x="-2600.0%" y="-2407.0%" width="5300.0%" height="5315.1%" filterUnits="objectBoundingBox" id="filter-50">
            <feOffset dx="0" dy="6" in="SourceAlpha" result="shadowOffsetOuter1"></feOffset>
            <feGaussianBlur stdDeviation="25" in="shadowOffsetOuter1" result="shadowBlurOuter1"></feGaussianBlur>
            <feColorMatrix values="0 0 0 0 0.121568627   0 0 0 0 0.360784314   0 0 0 0 0.898039216  0 0 0 1 0" type="matrix" in="shadowBlurOuter1"></feColorMatrix>
        </filter>
        <path d="M78.0625515,5.9826087 L29.1874485,5.9826087 C28.393508,5.9826087 27.75,6.65217289 27.75,7.47826087 C27.75,8.30434885 28.393508,8.97391304 29.1874485,8.97391304 L78.0625515,8.97391304 C78.856492,8.97391304 79.5,8.30434885 79.5,7.47826087 C79.5,6.65217289 78.856492,5.9826087 78.0625515,5.9826087 Z" id="path-51"></path>
        <filter x="-150.7%" y="-2407.0%" width="401.4%" height="5315.1%" filterUnits="objectBoundingBox" id="filter-52">
            <feOffset dx="0" dy="6" in="SourceAlpha" result="shadowOffsetOuter1"></feOffset>
            <feGaussianBlur stdDeviation="25" in="shadowOffsetOuter1" result="shadowBlurOuter1"></feGaussianBlur>
            <feColorMatrix values="0 0 0 0 0.121568627   0 0 0 0 0.360784314   0 0 0 0 0.898039216  0 0 0 1 0" type="matrix" in="shadowBlurOuter1"></feColorMatrix>
        </filter>
        <rect id="path-53" x="0" y="10" width="95" height="15"></rect>
        <rect id="path-54" x="17" y="18" width="92" height="83" rx="9"></rect>
        <rect id="path-55" x="9" y="9" width="92" height="83" rx="9"></rect>
        <linearGradient x1="1.04179186%" y1="0%" x2="100%" y2="100%" id="linearGradient-56">
            <stop stop-color="#83C3F7" offset="0%"></stop>
            <stop stop-color="#1B58E4" offset="100%"></stop>
        </linearGradient>
        <path d="M84.8364824,25.6349892 C88.7553341,25.6349892 91.9436744,22.4584017 91.9436744,18.5539957 L91.9436744,7.08099352 C91.9436744,3.17658747 88.7553341,0 84.8364824,0 L7.10719205,0 C3.18834033,0 0,3.17658747 0,7.08099352 L0,18.5539957 C0,22.4584017 3.18834033,25.6349892 7.10719205,25.6349892 L44.6223704,25.6349892 L44.6223704,28.6825054 L7.10719205,28.6825054 C3.18834033,28.6825054 0,31.8590929 0,35.7634989 L0,47.2365011 C0,51.1409071 3.18834033,54.3174946 7.10719205,54.3174946 L44.6223704,54.3174946 L44.6223704,57.3650108 L7.10719205,57.3650108 C3.18834033,57.3650108 0,60.5415983 0,64.4460043 L0,75.9190065 C0,79.8234125 3.18834033,83 7.10719205,83 L84.8364824,83 C88.7553341,83 91.9436744,79.8234125 91.9436744,75.9190065 L91.9436744,64.4460043 C91.9436744,60.5415983 88.7553341,57.3650108 84.8364824,57.3650108 L47.3213041,57.3650108 L47.3213041,54.3174946 L84.8364824,54.3174946 C88.7553341,54.3174946 91.9436744,51.1409071 91.9436744,47.2365011 L91.9436744,35.7634989 C91.9436744,31.8590929 88.7553341,28.6825054 84.8364824,28.6825054 L47.3213041,28.6825054 L47.3213041,25.6349892 L84.8364824,25.6349892 Z M89.2447407,64.4460043 L89.2447407,75.9190065 C89.2447407,78.3408855 87.2671421,80.3110151 84.8364824,80.3110151 L7.10719205,80.3110151 C4.67653237,80.3110151 2.69893369,78.3408855 2.69893369,75.9190065 L2.69893369,64.4460043 C2.69893369,62.0241253 4.67653237,60.0539957 7.10719205,60.0539957 L84.8364824,60.0539957 C87.2671421,60.0539957 89.2447407,62.0241253 89.2447407,64.4460043 Z M89.2447407,35.7634989 L89.2447407,47.2365011 C89.2447407,49.6583801 87.2671421,51.6285097 84.8364824,51.6285097 L7.10719205,51.6285097 C4.67653237,51.6285097 2.69893369,49.6583801 2.69893369,47.2365011 L2.69893369,35.7634989 C2.69893369,33.3416199 4.67653237,31.3714903 7.10719205,31.3714903 L84.8364824,31.3714903 C87.2671421,31.3714903 89.2447407,33.3416199 89.2447407,35.7634989 Z M2.69893369,18.5539957 L2.69893369,7.08099352 C2.69893369,4.65911447 4.67653237,2.68898488 7.10719205,2.68898488 L84.8364824,2.68898488 C87.2671421,2.68898488 89.2447407,4.65911447 89.2447407,7.08099352 L89.2447407,18.5539957 C89.2447407,20.9758747 87.2671421,22.9460043 84.8364824,22.9460043 L7.10719205,22.9460043 C4.67653237,22.9460043 2.69893369,20.9758747 2.69893369,18.5539957 Z" id="path-57"></path>
        <filter x="-84.8%" y="-86.7%" width="269.7%" height="288.0%" filterUnits="objectBoundingBox" id="filter-58">
            <feOffset dx="0" dy="6" in="SourceAlpha" result="shadowOffsetOuter1"></feOffset>
            <feGaussianBlur stdDeviation="25" in="shadowOffsetOuter1" result="shadowBlurOuter1"></feGaussianBlur>
            <feColorMatrix values="0 0 0 0 0.121568627   0 0 0 0 0.360784314   0 0 0 0 0.898039216  0 0 0 1 0" type="matrix" in="shadowBlurOuter1"></feColorMatrix>
        </filter>
        <linearGradient x1="0%" y1="-9.5088477%" x2="197.206303%" y2="631.537159%" id="linearGradient-59">
            <stop stop-color="#83C3F7" offset="0%"></stop>
            <stop stop-color="#1B58E4" offset="100%"></stop>
        </linearGradient>
        <path d="M12.8649173,7.17062635 C9.73973198,7.17062635 7.19715651,9.70382937 7.19715651,12.8174946 C7.19715651,15.9311598 9.73973198,18.4643629 12.8649173,18.4643629 C15.9901025,18.4643629 18.532678,15.9311598 18.532678,12.8174946 C18.532678,9.70382937 15.9901025,7.17062635 12.8649173,7.17062635 Z M12.8649173,15.775378 C11.227924,15.775378 9.8960902,14.4484536 9.8960902,12.8174946 C9.8960902,11.1865356 11.227924,9.85961123 12.8649173,9.85961123 C14.5019105,9.85961123 15.8337443,11.1865356 15.8337443,12.8174946 C15.8337443,14.4484536 14.5019105,15.775378 12.8649173,15.775378 Z" id="path-60"></path>
        <filter x="-688.1%" y="-637.5%" width="1476.2%" height="1481.3%" filterUnits="objectBoundingBox" id="filter-61">
            <feOffset dx="0" dy="6" in="SourceAlpha" result="shadowOffsetOuter1"></feOffset>
            <feGaussianBlur stdDeviation="25" in="shadowOffsetOuter1" result="shadowBlurOuter1"></feGaussianBlur>
            <feColorMatrix values="0 0 0 0 0.121568627   0 0 0 0 0.360784314   0 0 0 0 0.898039216  0 0 0 1 0" type="matrix" in="shadowBlurOuter1"></feColorMatrix>
        </filter>
        <path d="M12.8649173,35.8531317 C9.73973198,35.8531317 7.19715651,38.3863348 7.19715651,41.5 C7.19715651,44.6136652 9.73973198,47.1468683 12.8649173,47.1468683 C15.9901025,47.1468683 18.532678,44.6136652 18.532678,41.5 C18.532678,38.3863348 15.9901025,35.8531317 12.8649173,35.8531317 Z M12.8649173,44.4578834 C11.227924,44.4578834 9.8960902,43.130959 9.8960902,41.5 C9.8960902,39.869041 11.227924,38.5421166 12.8649173,38.5421166 C14.5019105,38.5421166 15.8337443,39.869041 15.8337443,41.5 C15.8337443,43.130959 14.5019105,44.4578834 12.8649173,44.4578834 Z" id="path-62"></path>
        <filter x="-688.1%" y="-637.5%" width="1476.2%" height="1481.3%" filterUnits="objectBoundingBox" id="filter-63">
            <feOffset dx="0" dy="6" in="SourceAlpha" result="shadowOffsetOuter1"></feOffset>
            <feGaussianBlur stdDeviation="25" in="shadowOffsetOuter1" result="shadowBlurOuter1"></feGaussianBlur>
            <feColorMatrix values="0 0 0 0 0.121568627   0 0 0 0 0.360784314   0 0 0 0 0.898039216  0 0 0 1 0" type="matrix" in="shadowBlurOuter1"></feColorMatrix>
        </filter>
        <linearGradient x1="2.80182584%" y1="-1281.03221%" x2="116.090481%" y2="1603.83209%" id="linearGradient-64">
            <stop stop-color="#83C3F7" offset="0%"></stop>
            <stop stop-color="#1B58E4" offset="100%"></stop>
        </linearGradient>
        <path d="M81.9576198,43.0237581 L34.4563868,43.0237581 C33.7111212,43.0237581 33.10692,43.6255529 33.10692,44.3682505 C33.10692,45.1109482 33.7111212,45.712743 34.4563868,45.712743 L81.9576198,45.712743 C82.7028853,45.712743 83.3070866,45.1109482 83.3070866,44.3682505 C83.3070866,43.6255529 82.7028853,43.0237581 81.9576198,43.0237581 Z" id="path-65"></path>
        <filter x="-155.4%" y="-2677.6%" width="410.8%" height="5901.4%" filterUnits="objectBoundingBox" id="filter-66">
            <feOffset dx="0" dy="6" in="SourceAlpha" result="shadowOffsetOuter1"></feOffset>
            <feGaussianBlur stdDeviation="25" in="shadowOffsetOuter1" result="shadowBlurOuter1"></feGaussianBlur>
            <feColorMatrix values="0 0 0 0 0.121568627   0 0 0 0 0.360784314   0 0 0 0 0.898039216  0 0 0 1 0" type="matrix" in="shadowBlurOuter1"></feColorMatrix>
        </filter>
        <path d="M33.10692,38.6317495 C33.10692,39.3744471 33.7111212,39.9762419 34.4563868,39.9762419 L81.9576198,39.9762419 C82.7028853,39.9762419 83.3070866,39.3744471 83.3070866,38.6317495 C83.3070866,37.8890518 82.7028853,37.287257 81.9576198,37.287257 L34.4563868,37.287257 C33.7111212,37.287257 33.10692,37.8890518 33.10692,38.6317495 Z" id="path-67"></path>
        <filter x="-155.4%" y="-2677.6%" width="410.8%" height="5901.4%" filterUnits="objectBoundingBox" id="filter-68">
            <feOffset dx="0" dy="6" in="SourceAlpha" result="shadowOffsetOuter1"></feOffset>
            <feGaussianBlur stdDeviation="25" in="shadowOffsetOuter1" result="shadowBlurOuter1"></feGaussianBlur>
            <feColorMatrix values="0 0 0 0 0.121568627   0 0 0 0 0.360784314   0 0 0 0 0.898039216  0 0 0 1 0" type="matrix" in="shadowBlurOuter1"></feColorMatrix>
        </filter>
        <path d="M83.3070866,15.6857451 C83.3070866,14.9430475 82.7028853,14.3412527 81.9576198,14.3412527 L34.4563868,14.3412527 C33.7111212,14.3412527 33.10692,14.9430475 33.10692,15.6857451 C33.10692,16.4284428 33.7111212,17.0302376 34.4563868,17.0302376 L81.9576198,17.0302376 C82.7028853,17.0302376 83.3070866,16.4284428 83.3070866,15.6857451 Z" id="path-69"></path>
        <filter x="-155.4%" y="-2677.6%" width="410.8%" height="5901.4%" filterUnits="objectBoundingBox" id="filter-70">
            <feOffset dx="0" dy="6" in="SourceAlpha" result="shadowOffsetOuter1"></feOffset>
            <feGaussianBlur stdDeviation="25" in="shadowOffsetOuter1" result="shadowBlurOuter1"></feGaussianBlur>
            <feColorMatrix values="0 0 0 0 0.121568627   0 0 0 0 0.360784314   0 0 0 0 0.898039216  0 0 0 1 0" type="matrix" in="shadowBlurOuter1"></feColorMatrix>
        </filter>
        <path d="M34.4563868,11.2937365 L81.9576198,11.2937365 C82.7028853,11.2937365 83.3070866,10.6919417 83.3070866,9.94924406 C83.3070866,9.20654644 82.7028853,8.60475162 81.9576198,8.60475162 L34.4563868,8.60475162 C33.7111212,8.60475162 33.10692,9.20654644 33.10692,9.94924406 C33.10692,10.6919417 33.7111212,11.2937365 34.4563868,11.2937365 Z" id="path-71"></path>
        <filter x="-155.4%" y="-2677.6%" width="410.8%" height="5901.4%" filterUnits="objectBoundingBox" id="filter-72">
            <feOffset dx="0" dy="6" in="SourceAlpha" result="shadowOffsetOuter1"></feOffset>
            <feGaussianBlur stdDeviation="25" in="shadowOffsetOuter1" result="shadowBlurOuter1"></feGaussianBlur>
            <feColorMatrix values="0 0 0 0 0.121568627   0 0 0 0 0.360784314   0 0 0 0 0.898039216  0 0 0 1 0" type="matrix" in="shadowBlurOuter1"></feColorMatrix>
        </filter>
        <path d="M12.8649173,64.5356371 C9.73973198,64.5356371 7.19715651,67.0688402 7.19715651,70.1825054 C7.19715651,73.2961706 9.73973198,75.8293737 12.8649173,75.8293737 C15.9901025,75.8293737 18.532678,73.2961706 18.532678,70.1825054 C18.532678,67.0688402 15.9901025,64.5356371 12.8649173,64.5356371 Z M12.8649173,73.1403888 C11.227924,73.1403888 9.8960902,71.8134644 9.8960902,70.1825054 C9.8960902,68.5515464 11.227924,67.224622 12.8649173,67.224622 C14.5019105,67.224622 15.8337443,68.5515464 15.8337443,70.1825054 C15.8337443,71.8134644 14.5019105,73.1403888 12.8649173,73.1403888 Z" id="path-73"></path>
        <filter x="-688.1%" y="-637.5%" width="1476.2%" height="1481.3%" filterUnits="objectBoundingBox" id="filter-74">
            <feOffset dx="0" dy="6" in="SourceAlpha" result="shadowOffsetOuter1"></feOffset>
            <feGaussianBlur stdDeviation="25" in="shadowOffsetOuter1" result="shadowBlurOuter1"></feGaussianBlur>
            <feColorMatrix values="0 0 0 0 0.121568627   0 0 0 0 0.360784314   0 0 0 0 0.898039216  0 0 0 1 0" type="matrix" in="shadowBlurOuter1"></feColorMatrix>
        </filter>
        <path d="M81.9576198,71.7062635 L34.4563868,71.7062635 C33.7111212,71.7062635 33.10692,72.3080583 33.10692,73.0507559 C33.10692,73.7934536 33.7111212,74.3952484 34.4563868,74.3952484 L81.9576198,74.3952484 C82.7028853,74.3952484 83.3070866,73.7934536 83.3070866,73.0507559 C83.3070866,72.3080583 82.7028853,71.7062635 81.9576198,71.7062635 Z" id="path-75"></path>
        <filter x="-155.4%" y="-2677.6%" width="410.8%" height="5901.4%" filterUnits="objectBoundingBox" id="filter-76">
            <feOffset dx="0" dy="6" in="SourceAlpha" result="shadowOffsetOuter1"></feOffset>
            <feGaussianBlur stdDeviation="25" in="shadowOffsetOuter1" result="shadowBlurOuter1"></feGaussianBlur>
            <feColorMatrix values="0 0 0 0 0.121568627   0 0 0 0 0.360784314   0 0 0 0 0.898039216  0 0 0 1 0" type="matrix" in="shadowBlurOuter1"></feColorMatrix>
        </filter>
        <path d="M33.10692,67.3142549 C33.10692,68.0569525 33.7111212,68.6587473 34.4563868,68.6587473 L81.9576198,68.6587473 C82.7028853,68.6587473 83.3070866,68.0569525 83.3070866,67.3142549 C83.3070866,66.5715572 82.7028853,65.9697624 81.9576198,65.9697624 L34.4563868,65.9697624 C33.7111212,65.9697624 33.10692,66.5715572 33.10692,67.3142549 Z" id="path-77"></path>
        <filter x="-155.4%" y="-2677.6%" width="410.8%" height="5901.4%" filterUnits="objectBoundingBox" id="filter-78">
            <feOffset dx="0" dy="6" in="SourceAlpha" result="shadowOffsetOuter1"></feOffset>
            <feGaussianBlur stdDeviation="25" in="shadowOffsetOuter1" result="shadowBlurOuter1"></feGaussianBlur>
            <feColorMatrix values="0 0 0 0 0.121568627   0 0 0 0 0.360784314   0 0 0 0 0.898039216  0 0 0 1 0" type="matrix" in="shadowBlurOuter1"></feColorMatrix>
        </filter>
        <rect id="path-79" x="0" y="10" width="80" height="15"></rect>
    </defs>
    <g id="Page-1" stroke="none" stroke-width="1" fill="none" fill-rule="evenodd">
        <g id="Mobile" transform="translate(0.000000, -536.000000)">
            <g id="Group-4" transform="translate(15.000000, 542.000000)">
                <g id="Group-16" transform="translate(37.000000, 217.000000)">
                    <g id="Group-9" transform="translate(0.000000, 36.000000)">
                        <g id="Rectangle-Copy-2" opacity="0.298758371">
                            <use fill="#3774E8" xlink:href="#path-2"></use>
                            <use fill="url(#linearGradient-1)" xlink:href="#path-2"></use>
                        </g>
                        <g id="Rectangle" opacity="0.298758371">
                            <use fill="#3774E8" xlink:href="#path-3"></use>
                            <use fill="url(#linearGradient-1)" xlink:href="#path-3"></use>
                        </g>
                        <g id="web-2" transform="translate(98.000000, 57.500000) scale(-1, 1) translate(-98.000000, -57.500000) ">
                            <g id="Shape">
                                <use fill="black" fill-opacity="1" filter="url(#filter-6)" xlink:href="#path-5"></use>
                                <use fill="url(#linearGradient-4)" fill-rule="evenodd" xlink:href="#path-5"></use>
                            </g>
                            <g id="Path">
                                <use fill="black" fill-opacity="1" filter="url(#filter-9)" xlink:href="#path-8"></use>
                                <use fill="url(#linearGradient-7)" fill-rule="evenodd" xlink:href="#path-8"></use>
                            </g>
                            <g id="Path">
                                <use fill="black" fill-opacity="1" filter="url(#filter-11)" xlink:href="#path-10"></use>
                                <use fill="url(#linearGradient-7)" fill-rule="evenodd" xlink:href="#path-10"></use>
                            </g>
                            <g id="Path">
                                <use fill="black" fill-opacity="1" filter="url(#filter-13)" xlink:href="#path-12"></use>
                                <use fill="url(#linearGradient-7)" fill-rule="evenodd" xlink:href="#path-12"></use>
                            </g>
                            <g id="Path">
                                <use fill="black" fill-opacity="1" filter="url(#filter-16)" xlink:href="#path-15"></use>
                                <use fill="url(#linearGradient-14)" fill-rule="evenodd" xlink:href="#path-15"></use>
                            </g>
                        </g>
                        <g id="badge" transform="translate(54.000000, 34.000000)" fill="url(#linearGradient-17)">
                            <path d="M81.125,0.827675386 C84.915875,0.827675386 88,3.92146349 88,7.72421596 L88,49.1034594 C88,52.9062119 84.915875,56 81.125,56 L6.875,56 C3.084125,56 0,52.9062119 0,49.1034594 L0,7.72421596 C0,3.92146349 3.084125,0.827675386 6.875,0.827675386 L36.5555781,0.827675386 L40.4444219,0.827675386 L47.5554062,0.827675386 L51.4445937,0.827675386 L81.125,0.827675386 Z M85.25,49.1034594 L85.25,7.72421596 C85.25,5.44249551 83.3995937,3.58629162 81.125,3.58629162 L48.6945937,3.58629162 L44.8054062,3.58629162 L6.875,3.58629162 C4.60040625,3.58629162 2.75,5.44249551 2.75,7.72421596 L2.75,49.1034594 C2.75,51.3851799 4.60040625,53.2413838 6.875,53.2413838 L81.125,53.2413838 C83.3995937,53.2413838 85.25,51.3851799 85.25,49.1034594 Z M25,32 C21.1402,32 18,28.9413636 18,25.1818182 L18,23.8181818 C18,20.0586364 21.1402,17 25,17 C28.8598,17 32,20.0586364 32,23.8181818 L32,25.1818182 C32,28.9413636 28.8598,32 25,32 Z M20.8,23.8181818 L20.8,25.1818182 C20.8,27.4376136 22.68405,29.2727273 25,29.2727273 C27.31595,29.2727273 29.2,27.4376136 29.2,25.1818182 L29.2,23.8181818 C29.2,21.5623864 27.31595,19.7272727 25,19.7272727 C22.68405,19.7272727 20.8,21.5623864 20.8,23.8181818 Z M30.512504,32 C32.0121251,32 33.4313081,32.6675453 34.5084571,33.8795852 C35.4424331,34.930434 36,36.2755342 36,37.4773918 L36,40.4735793 C36,41.8666573 34.8712881,43 33.4840741,43 L16.5217697,43 C15.1312901,43 14,41.8640685 14,40.4678842 L14,37.4773918 C14,34.9444131 16.3971594,32 19.4876679,32.0001726 L20.6547082,32.0001726 C21.1321807,32.0001726 21.5754498,32.2488625 21.8257018,32.6571904 C22.6276768,33.9657033 23.7845764,34.7160877 25.0000859,34.7160877 C26.2155954,34.7160877 27.3724951,33.9657033 28.1744701,32.6570178 C28.4247221,32.2486899 28.8679912,32 29.3454636,32 L30.512504,32 Z M33.2501504,40.2386959 L33.2499785,40.2386959 L33.2499785,37.4773918 C33.2499785,36.5447614 32.1838296,34.7613041 30.5123321,34.7613041 L30.0709537,34.7613041 C28.7700216,36.4973015 26.9574137,37.4773918 25.0000859,37.4773918 C23.0427581,37.4773918 21.2301502,36.4973015 19.9290463,34.7613041 L19.4876679,34.7613041 C17.8161704,34.7613041 16.7500215,36.5447614 16.7500215,37.4773918 L16.7500215,40.2386959 L33.2501504,40.2386959 Z M36.875,9 C39.1494219,9 41,10.8744375 41,13.1785714 L41,43.8214286 C41,46.1253884 39.1494219,48 36.875,48 L12.125,48 C9.85057812,48 8,46.1253884 8,43.8214286 L8,13.1785714 C8,10.8744375 9.85057812,9 12.125,9 L36.875,9 Z M38.25,43.8214286 L38.25,13.1785714 C38.25,12.4105848 37.6331406,11.7857143 36.875,11.7857143 L12.125,11.7857143 C11.3668594,11.7857143 10.75,12.4105848 10.75,13.1785714 L10.75,43.8214286 C10.75,44.5894152 11.3668594,45.2142857 12.125,45.2142857 L36.875,45.2142857 C37.6331406,45.2142857 38.25,44.5894152 38.25,43.8214286 Z M45.4,15 C44.62685,15 44,14.328375 44,13.5 C44,12.671625 44.62685,12 45.4,12 L70.6,12 C71.37315,12 72,12.671625 72,13.5 C72,14.328375 71.37315,15 70.6,15 L45.4,15 Z M78.6153846,18 C79.3800385,18 80,18.671625 80,19.5 C80,20.328375 79.3800385,21 78.6153846,21 L45.3846154,21 C44.6199615,21 44,20.328375 44,19.5 C44,18.671625 44.6199615,18 45.3846154,18 L78.6153846,18 Z M51.3636364,34 C50.6105682,34 50,33.328375 50,32.5 C50,31.671625 50.6105682,31 51.3636364,31 L63.6363636,31 C64.3894318,31 65,31.671625 65,32.5 C65,33.328375 64.3894318,34 63.6363636,34 L51.3636364,34 Z M45.5,31 C45.895625,31 46.281875,31.159375 46.56125,31.43875 C46.840625,31.718125 47,32.104375 47,32.5 C47,32.895625 46.840625,33.281875 46.56125,33.56125 C46.281875,33.840625 45.895625,34 45.5,34 C45.104375,34 44.718125,33.840625 44.43875,33.56125 C44.159375,33.281875 44,32.895625 44,32.5 C44,32.104375 44.159375,31.718125 44.43875,31.43875 C44.718125,31.159375 45.104375,31 45.5,31 Z M72.6111111,37 C73.378125,37 74,37.671625 74,38.5 C74,39.328375 73.378125,40 72.6111111,40 L50.3888889,40 C49.621875,40 49,39.328375 49,38.5 C49,37.671625 49.621875,37 50.3888889,37 L72.6111111,37 Z M45.5,37 C45.895625,37 46.281875,37.159375 46.56125,37.43875 C46.840625,37.718125 47,38.104375 47,38.5 C47,38.895625 46.840625,39.281875 46.56125,39.56125 C46.281875,39.840625 45.895625,40 45.5,40 C45.104375,40 44.718125,39.840625 44.43875,39.56125 C44.159375,39.281875 44,38.895625 44,38.5 C44,38.104375 44.159375,37.718125 44.43875,37.43875 C44.718125,37.159375 45.104375,37 45.5,37 Z M68.6666667,43 C69.403,43 70,43.671625 70,44.5 C70,45.328375 69.403,46 68.6666667,46 L51.3333333,46 C50.597,46 50,45.328375 50,44.5 C50,43.671625 50.597,43 51.3333333,43 L68.6666667,43 Z M45.5,43 C45.895625,43 46.281875,43.159375 46.56125,43.43875 C46.840625,43.718125 47,44.104375 47,44.5 C47,44.895625 46.840625,45.281875 46.56125,45.56125 C46.281875,45.840625 45.895625,46 45.5,46 C45.104375,46 44.718125,45.840625 44.43875,45.56125 C44.159375,45.281875 44,44.895625 44,44.5 C44,44.104375 44.159375,43.718125 44.43875,43.43875 C44.718125,43.159375 45.104375,43 45.5,43 Z" id="Combined-Shape"></path>
                        </g>
                    </g>
                    <g id="Group-12-Copy-6" transform="translate(66.000000, 0.000000)">
                        <g id="Rectangle" opacity="0.298758371">
                            <use fill="#18DAA2" xlink:href="#path-19"></use>
                            <use fill="url(#linearGradient-18)" xlink:href="#path-19"></use>
                        </g>
                        <path d="M10.2012856,18 L10.2012856,5.4 L12.1992856,5.4 L12.1992856,18 L10.2012856,18 Z M23.3927142,4.986 L23.3927142,18 L21.5387142,18 L21.5387142,16.776 C21.2867142,17.1 20.3327142,18.234 18.5147142,18.234 C15.8327142,18.234 13.9247142,16.2 13.9247142,13.32 C13.9247142,10.422 15.7067142,8.37 18.3887142,8.37 C20.1707142,8.37 21.1787142,9.45 21.4307142,9.864 L21.4307142,4.986 L23.3927142,4.986 Z M21.5027142,13.338 C21.5027142,11.286 20.2607142,10.116 18.6947142,10.116 C17.0567142,10.116 15.9047142,11.448 15.9047142,13.338 C15.9047142,15.264 17.1107142,16.506 18.7127142,16.506 C20.4407142,16.506 21.5027142,15.066 21.5027142,13.338 Z M24.9021428,13.338 C24.9021428,10.422 26.9001428,8.37 29.4741428,8.37 C32.3181428,8.37 33.9921428,10.332 33.9921428,13.284 C33.9921428,13.446 33.9921428,13.608 33.9741428,13.77 L26.9001428,13.77 C26.9361428,15.444 28.1421428,16.524 29.8161428,16.524 C31.2381428,16.524 32.0481428,15.732 32.4081428,15.21 L33.7041428,16.182 C33.2541428,16.956 32.0121428,18.234 29.7801428,18.234 C26.8461428,18.234 24.9021428,16.182 24.9021428,13.338 Z M26.9721428,12.42 L31.9941428,12.42 C31.9221428,10.872 30.8421428,10.008 29.4921428,10.008 C28.1421428,10.008 27.0981428,10.944 26.9721428,12.42 Z M40.0195714,8.37 C42.4495714,8.37 43.2955714,10.296 43.2955714,12.348 L43.2955714,18 L41.3515714,18 L41.3515714,12.186 C41.3515714,10.89 40.5415714,10.134 39.4615714,10.134 C38.2195714,10.134 37.4095714,11.052 37.4095714,12.33 L37.4095714,18 L35.4475714,18 L35.4475714,8.604 L37.3735714,8.604 L37.3735714,9.828 C37.7875714,9.09 38.7595714,8.37 40.0195714,8.37 Z M45.453,8.604 L45.453,6.642 L47.397,6.642 L47.397,8.604 L49.305,8.604 L49.305,10.224 L47.397,10.224 L47.397,14.598 C47.397,16.056 47.955,16.38 48.999,16.38 C49.161,16.38 49.377,16.362 49.377,16.362 L49.377,18.054 C49.377,18.054 49.035,18.126 48.423,18.126 C46.137,18.126 45.453,16.596 45.453,14.292 L45.453,10.224 L44.409,10.224 L44.409,8.604 L45.453,8.604 Z M50.8144286,18 L50.8144286,8.604 L52.7764286,8.604 L52.7764286,18 L50.8144286,18 Z M50.5624286,6.282 C50.5624286,5.598 51.1024286,5.058 51.7864286,5.058 C52.4704286,5.058 53.0104286,5.598 53.0104286,6.282 C53.0104286,6.966 52.4704286,7.506 51.7864286,7.506 C51.1024286,7.506 50.5624286,6.966 50.5624286,6.282 Z M55.0058572,8.604 L55.0058572,6.642 L56.9498572,6.642 L56.9498572,8.604 L58.8578572,8.604 L58.8578572,10.224 L56.9498572,10.224 L56.9498572,14.598 C56.9498572,16.056 57.5078572,16.38 58.5518572,16.38 C58.7138572,16.38 58.9298572,16.362 58.9298572,16.362 L58.9298572,18.054 C58.9298572,18.054 58.5878572,18.126 57.9758572,18.126 C55.6898572,18.126 55.0058572,16.596 55.0058572,14.292 L55.0058572,10.224 L53.9618572,10.224 L53.9618572,8.604 L55.0058572,8.604 Z M64.2012858,21.222 L62.3112858,21.222 L63.6432858,17.838 L59.9172858,8.604 L62.0232858,8.604 L64.5612858,15.444 L67.0632858,8.604 L69.1152858,8.604 L64.2012858,21.222 Z" id="Identity" fill="#FFFFFF"></path>
                    </g>
                </g>
                <polyline id="Path-2" stroke="#18DAA2" opacity="0.400000006" points="16 123 16 321.499225 40.2207031 321.499225"></polyline>
                <polyline id="Path-2" stroke="#18DAA2" opacity="0.400000006" transform="translate(28.110352, 404.382813) scale(1, -1) translate(-28.110352, -404.382813) " points="16 333 16 475.765625 40.2207031 475.765625"></polyline>
                <path d="M141,366.659726 L141,618.679688" id="Path-2" stroke="#18DAA2" opacity="0.400000006" transform="translate(141.000000, 492.669707) scale(1, -1) translate(-141.000000, -492.669707) "></path>
                <g id="Group-12-Copy-5" transform="translate(54.000000, 405.500000)">
                    <g id="Rectangle" opacity="0.298758371">
                        <use fill="#18DAA2" xlink:href="#path-20"></use>
                        <use fill="url(#linearGradient-18)" xlink:href="#path-20"></use>
                    </g>
                    <path d="M11.4082157,10.3224044 L11.4082157,2.12568306 L9,2.12568306 L9,0.759562842 L15.3352491,0.759562842 L15.3352491,2.12568306 L12.9270335,2.12568306 L12.9270335,10.3224044 L11.4082157,10.3224044 Z M19.5476718,3.0136612 L19.5476718,4.51639344 C17.9878049,4.51639344 17.5362644,5.70491803 17.5362644,7.24863388 L17.5362644,10.3224044 L16.0448127,10.3224044 L16.0448127,3.19125683 L17.5088983,3.19125683 L17.5088983,4.31147541 C17.7825592,3.6010929 18.5351266,3.0136612 19.5476718,3.0136612 Z M20.120405,8.12295082 C20.120405,6.7431694 21.2424145,5.77322404 22.8843797,5.77322404 C23.7053623,5.77322404 24.3210993,6.04644809 24.5947602,6.29234973 L24.5947602,5.62295082 C24.5947602,4.80327869 24.0200723,4.31147541 23.0759423,4.31147541 C22.2823258,4.31147541 21.5981737,4.58469945 21.078218,4.8715847 L20.5035302,3.83333333 C21.078218,3.46448087 22.036031,3.0136612 23.2264558,3.0136612 C25.3473276,3.0136612 26.0725289,4.16120219 26.0725289,5.71857923 L26.0725289,10.3224044 L24.7726397,10.3224044 L24.6494923,9.78961749 C24.2800502,10.1994536 23.7053623,10.5 22.8159645,10.5 C21.3108297,10.5 20.120405,9.55737705 20.120405,8.12295082 Z M21.6118567,8.08196721 C21.6118567,8.79234973 22.2275937,9.31147541 23.1306745,9.31147541 C24.0063893,9.31147541 24.6358093,8.81967213 24.6358093,8.08196721 C24.6358093,7.33060109 24.0200723,6.85245902 23.1169915,6.85245902 C22.2139106,6.85245902 21.6118567,7.3715847 21.6118567,8.08196721 Z M31.0238359,3.0136612 C32.8710468,3.0136612 33.5141498,4.47540984 33.5141498,6.03278689 L33.5141498,10.3224044 L32.0363811,10.3224044 L32.0363811,5.90983607 C32.0363811,4.92622951 31.4206442,4.35245902 30.5996616,4.35245902 C29.6555316,4.35245902 29.0397946,5.04918033 29.0397946,6.01912568 L29.0397946,10.3224044 L27.5483429,10.3224044 L27.5483429,3.19125683 L29.0124285,3.19125683 L29.0124285,4.12021858 C29.3271385,3.56010929 30.0660229,3.0136612 31.0238359,3.0136612 Z M34.5247403,9.07923497 L35.4551873,8.34153005 C35.7835803,8.81967213 36.2761699,9.2704918 37.1655677,9.2704918 C37.7949877,9.2704918 38.2602112,8.95628415 38.2602112,8.38251366 C38.2602112,7.01639344 34.7847182,7.50819672 34.7847182,5.03551913 C34.7847182,3.77868852 35.8519956,3.0136612 37.233983,3.0136612 C38.5749212,3.0136612 39.2864395,3.79234973 39.5601003,4.33879781 L38.5338721,5.02185792 C38.3286264,4.69398907 37.9455012,4.2295082 37.1518847,4.2295082 C36.604563,4.2295082 36.1940717,4.51639344 36.1940717,5.00819672 C36.1940717,6.37431694 39.6832477,5.80054645 39.6832477,8.31420765 C39.6832477,9.63934426 38.5612382,10.5 37.0971525,10.5 C35.6467499,10.5 34.8804995,9.72131148 34.5247403,9.07923497 Z M40.3243961,8.12295082 C40.3243961,6.7431694 41.4464057,5.77322404 43.0883709,5.77322404 C43.9093535,5.77322404 44.5250904,6.04644809 44.7987513,6.29234973 L44.7987513,5.62295082 C44.7987513,4.80327869 44.2240635,4.31147541 43.2799335,4.31147541 C42.486317,4.31147541 41.8021648,4.58469945 41.2822091,4.8715847 L40.7075213,3.83333333 C41.2822091,3.46448087 42.2400222,3.0136612 43.430447,3.0136612 C45.5513187,3.0136612 46.27652,4.16120219 46.27652,5.71857923 L46.27652,10.3224044 L44.9766309,10.3224044 L44.8534835,9.78961749 C44.4840413,10.1994536 43.9093535,10.5 43.0199557,10.5 C41.5148209,10.5 40.3243961,9.55737705 40.3243961,8.12295082 Z M41.8158478,8.08196721 C41.8158478,8.79234973 42.4315848,9.31147541 43.3346657,9.31147541 C44.2103804,9.31147541 44.8398004,8.81967213 44.8398004,8.08196721 C44.8398004,7.33060109 44.2240635,6.85245902 43.3209826,6.85245902 C42.4179017,6.85245902 41.8158478,7.3715847 41.8158478,8.08196721 Z M53.417114,3.88797814 L52.9655736,5.14480874 C52.6371805,4.83060109 51.9803944,4.36612022 51.0773136,4.36612022 C49.7226923,4.36612022 48.8196114,5.40437158 48.8196114,6.7568306 C48.8196114,8.12295082 49.8047905,9.17486339 51.1320457,9.17486339 C52.0488097,9.17486339 52.6919127,8.6557377 52.9929397,8.38251366 L53.417114,9.61202186 C53.0613549,9.92622951 52.2403723,10.5 51.0499475,10.5 C48.8743436,10.5 47.3144766,8.90163934 47.3144766,6.7568306 C47.3144766,4.62568306 48.9153927,3.0136612 51.0362644,3.0136612 C52.2130062,3.0136612 53.0066227,3.53278689 53.417114,3.88797814 Z M54.6329502,3.19125683 L54.6329502,1.70218579 L56.1107189,1.70218579 L56.1107189,3.19125683 L57.5611215,3.19125683 L57.5611215,4.42076503 L56.1107189,4.42076503 L56.1107189,7.74043716 C56.1107189,8.84699454 56.5348932,9.09289617 57.3285097,9.09289617 C57.4516571,9.09289617 57.6158537,9.07923497 57.6158537,9.07923497 L57.6158537,10.363388 C57.6158537,10.363388 57.3558758,10.4180328 56.8906523,10.4180328 C55.1529058,10.4180328 54.6329502,9.2568306 54.6329502,7.50819672 L54.6329502,4.42076503 L53.8393337,4.42076503 L53.8393337,3.19125683 L54.6329502,3.19125683 Z M58.7085424,10.3224044 L58.7085424,3.19125683 L60.1999942,3.19125683 L60.1999942,10.3224044 L58.7085424,10.3224044 Z M58.5169798,1.42896175 C58.5169798,0.909836066 58.9274711,0.5 59.4474268,0.5 C59.9673824,0.5 60.3778737,0.909836066 60.3778737,1.42896175 C60.3778737,1.94808743 59.9673824,2.3579235 59.4474268,2.3579235 C58.9274711,2.3579235 58.5169798,1.94808743 58.5169798,1.42896175 Z M62.8388669,6.7704918 C62.8388669,8.17759563 63.7829969,9.17486339 65.1102521,9.17486339 C66.4375073,9.17486339 67.4090034,8.15027322 67.4090034,6.7568306 C67.4090034,5.36338798 66.4375073,4.33879781 65.1102521,4.33879781 C63.7693138,4.33879781 62.8388669,5.37704918 62.8388669,6.7704918 Z M61.3337321,6.7704918 C61.3337321,4.61202186 62.9620143,3.0136612 65.1102521,3.0136612 C67.3132221,3.0136612 68.9004551,4.61202186 68.9004551,6.7568306 C68.9004551,8.90163934 67.285856,10.5 65.1102521,10.5 C62.9209651,10.5 61.3337321,8.92896175 61.3337321,6.7704918 Z M73.5096861,3.0136612 C75.356897,3.0136612 76,4.47540984 76,6.03278689 L76,10.3224044 L74.5222313,10.3224044 L74.5222313,5.90983607 C74.5222313,4.92622951 73.9064943,4.35245902 73.0855117,4.35245902 C72.1413817,4.35245902 71.5256448,5.04918033 71.5256448,6.01912568 L71.5256448,10.3224044 L70.034193,10.3224044 L70.034193,3.19125683 L71.4982787,3.19125683 L71.4982787,4.12021858 C71.8129887,3.56010929 72.551873,3.0136612 73.5096861,3.0136612 Z" id="Transaction" fill="#FFFFFF"></path>
                </g>
                <polyline id="Path-2" stroke="#18DAA2" opacity="0.400000006" transform="translate(244.110352, 400.500000) scale(-1, -1) translate(-244.110352, -400.500000) " points="232 333 232 468 256.220703 468"></polyline>
                <polyline id="Path-2-Copy" stroke="#18DAA2" opacity="0.400000006" transform="translate(244.110352, 222.249613) scale(-1, 1) translate(-244.110352, -222.249613) " points="232 123 232 321.499225 256.220703 321.499225"></polyline>
                <g id="Group-11-Copy" transform="translate(252.000000, 201.000000)" fill="#17D2A5" fill-rule="nonzero">
                    <path d="M-0.908840816,0.909433667 C-1.41110716,0.407494745 -1.41137259,-0.406574471 -0.909433667,-0.908840816 C-0.407494745,-1.41110716 0.406574471,-1.41137259 0.908840816,-0.909433667 L5.40884082,3.58763283 C5.91110716,4.08957175 5.91137259,4.90364096 5.40943367,5.40590731 C4.90749474,5.90817365 4.09342553,5.90843908 3.59115918,5.40650016 L-0.908840816,0.909433667 Z" id="Stroke-354"></path>
                    <path d="M5.40884082,5.40650016 C4.90657447,5.90843908 4.09250526,5.90817365 3.59056633,5.40590731 C3.08862741,4.90364096 3.08889284,4.08957175 3.59115918,3.58763283 L8.09115918,-0.909433667 C8.59342553,-1.41137259 9.40749474,-1.41110716 9.90943367,-0.908840816 C10.4113726,-0.406574471 10.4111072,0.407494745 9.90884082,0.909433667 L5.40884082,5.40650016 Z" id="Stroke-355"></path>
                </g>
                <path d="M85,108.5 L182.411133,108.5" id="Path-2" stroke="#18DAA2" opacity="0.400000006"></path>
                <g id="Group-11" transform="translate(141.000000, 108.500000) scale(-1, 1) rotate(90.000000) translate(-141.000000, -108.500000) translate(134.500000, 104.500000)" fill="#17D2A5" fill-rule="nonzero">
                    <path d="M1.09115918,2.90943367 C0.588892838,2.40749474 0.58862741,1.59342553 1.09056633,1.09115918 C1.59250526,0.588892838 2.40657447,0.58862741 2.90884082,1.09056633 L7.40884082,5.58763283 C7.91110716,6.08957175 7.91137259,6.90364096 7.40943367,7.40590731 C6.90749474,7.90817365 6.09342553,7.90843908 5.59115918,7.40650016 L1.09115918,2.90943367 Z" id="Stroke-354"></path>
                    <path d="M7.40884082,7.40650016 C6.90657447,7.90843908 6.09250526,7.90817365 5.59056633,7.40590731 C5.08862741,6.90364096 5.08889284,6.08957175 5.59115918,5.58763283 L10.0911592,1.09056633 C10.5934255,0.58862741 11.4074947,0.588892838 11.9094337,1.09115918 C12.4113726,1.59342553 12.4111072,2.40749474 11.9088408,2.90943367 L7.40884082,7.40650016 Z" id="Stroke-355"></path>
                </g>
                <g id="Group-17" transform="translate(0.000000, 474.000000)">
                    <g id="Group-6">
                        <g id="Rectangle" opacity="0.298758371">
                            <use fill="#3774E8" xlink:href="#path-21"></use>
                            <use fill="url(#linearGradient-1)" xlink:href="#path-21"></use>
                        </g>
                        <g id="Rectangle" opacity="0.298758371">
                            <use fill="#3774E8" xlink:href="#path-22"></use>
                            <use fill="url(#linearGradient-1)" xlink:href="#path-22"></use>
                        </g>
                        <g id="notebook">
                            <g id="Shape">
                                <use fill="black" fill-opacity="1" filter="url(#filter-25)" xlink:href="#path-24"></use>
                                <use fill="url(#linearGradient-23)" fill-rule="evenodd" xlink:href="#path-24"></use>
                            </g>
                        </g>
                        <g id="Group-7" transform="translate(34.000000, 15.000000)">
                            <circle id="Oval" fill="url(#linearGradient-26)" opacity="0.300000012" cx="11.5" cy="11.5" r="11.5"></circle>
                            <g id="key" transform="translate(7.666667, 7.666667)" fill="url(#linearGradient-17)">
                                <path d="M7.40708461,0.770682928 C6.37949371,-0.256904957 4.70756614,-0.256888985 3.67997524,0.7706989 C2.97807457,1.47259752 2.73427409,2.50697359 3.03819413,3.44542059 L0.0701980538,6.41342395 C0.0252681049,6.45835376 0,6.51917593 0,6.58282517 L0,7.93819468 C0,8.07062024 0.107157848,8.17777778 0.239583801,8.17777778 L1.59495728,8.17777778 C1.65859074,8.17777778 1.71942905,8.15250975 1.76434303,8.10757993 L2.1031305,7.76855387 C2.15483268,7.71685184 2.18010079,7.64432205 2.17168341,7.57155268 L2.12956458,7.20749817 L2.63400028,7.15999683 C2.74864912,7.14923156 2.83919582,7.05868512 2.84996112,6.94403662 L2.8974626,6.43960239 L3.26151818,6.48194471 C3.32912872,6.49106484 3.39721844,6.46836834 3.44845743,6.4229913 C3.49945683,6.37737467 3.52870203,6.31231988 3.52870203,6.24400675 L3.52870203,5.79791899 L3.96669316,5.79791899 C4.03032662,5.79791899 4.09116494,5.77265096 4.13607891,5.72772114 L4.75048358,5.12144812 C5.68869375,5.42560685 6.70518393,5.20017513 7.40708461,4.49779734 C8.4346755,3.47022543 8.4346755,1.79827081 7.40708461,0.770682928 Z M6.72930203,2.46485488 C6.44900496,2.74515114 5.99323671,2.74515114 5.71293963,2.46485488 C5.43264256,2.18455863 5.43264256,1.72879171 5.71293963,1.44849546 C5.99323671,1.16819921 6.44900496,1.16819921 6.72930203,1.44849546 C7.00959911,1.72879171 7.00958314,2.18455863 6.72930203,2.46485488 Z" id="Shape"></path>
                            </g>
                        </g>
                    </g>
                    <g id="Group-12-Copy-3" transform="translate(11.000000, 76.000000)">
                        <g id="Rectangle" opacity="0.298758371">
                            <use fill="#18DAA2" xlink:href="#path-27"></use>
                            <use fill="url(#linearGradient-18)" xlink:href="#path-27"></use>
                        </g>
                        <path d="M9.3819999,18 L9.3819999,17.28 C9.3819999,13.716 15.1599999,11.682 15.1599999,8.91 C15.1599999,7.794 14.4399999,7.02 13.1979999,7.02 C11.9739999,7.02 11.3799999,7.812 11.1279999,8.73 L9.3819999,8.226 C9.6339999,7.074 10.6599999,5.166 13.2699999,5.166 C15.6819999,5.166 17.1939999,6.678 17.1939999,8.838 C17.1939999,12.402 12.0279999,14.238 11.7219999,16.236 L17.3559999,16.236 L17.3559999,18 L9.3819999,18 Z M23.6174285,8.37 C26.0474285,8.37 26.8934285,10.296 26.8934285,12.348 L26.8934285,18 L24.9494285,18 L24.9494285,12.186 C24.9494285,10.89 24.1394285,10.134 23.0594285,10.134 C21.8174285,10.134 21.0074285,11.052 21.0074285,12.33 L21.0074285,18 L19.0454285,18 L19.0454285,8.604 L20.9714285,8.604 L20.9714285,9.828 C21.3854285,9.09 22.3574285,8.37 23.6174285,8.37 Z M37.7808571,4.986 L37.7808571,18 L35.9268571,18 L35.9268571,16.776 C35.6748571,17.1 34.7208571,18.234 32.9028571,18.234 C30.2208571,18.234 28.3128571,16.2 28.3128571,13.32 C28.3128571,10.422 30.0948571,8.37 32.7768571,8.37 C34.5588571,8.37 35.5668571,9.45 35.8188571,9.864 L35.8188571,4.986 L37.7808571,4.986 Z M35.8908571,13.338 C35.8908571,11.286 34.6488571,10.116 33.0828571,10.116 C31.4448571,10.116 30.2928571,11.448 30.2928571,13.338 C30.2928571,15.264 31.4988571,16.506 33.1008571,16.506 C34.8288571,16.506 35.8908571,15.066 35.8908571,13.338 Z M44.2377143,18 L44.2377143,4.986 L46.1997143,4.986 L46.1997143,12.618 L49.6737143,8.604 L51.9057143,8.604 L48.1437143,12.852 L52.1577143,18 L49.8357143,18 L46.1997143,13.068 L46.1997143,18 L44.2377143,18 Z M52.6411429,13.338 C52.6411429,10.422 54.6391429,8.37 57.2131429,8.37 C60.0571429,8.37 61.7311429,10.332 61.7311429,13.284 C61.7311429,13.446 61.7311429,13.608 61.7131429,13.77 L54.6391429,13.77 C54.6751429,15.444 55.8811429,16.524 57.5551429,16.524 C58.9771429,16.524 59.7871429,15.732 60.1471429,15.21 L61.4431429,16.182 C60.9931429,16.956 59.7511429,18.234 57.5191429,18.234 C54.5851429,18.234 52.6411429,16.182 52.6411429,13.338 Z M54.7111429,12.42 L59.7331429,12.42 C59.6611429,10.872 58.5811429,10.008 57.2311429,10.008 C55.8811429,10.008 54.8371429,10.944 54.7111429,12.42 Z M66.4805715,21.222 L64.5905715,21.222 L65.9225715,17.838 L62.1965715,8.604 L64.3025715,8.604 L66.8405715,15.444 L69.3425715,8.604 L71.3945715,8.604 L66.4805715,21.222 Z" id="2nd-key" fill="#FFFFFF"></path>
                    </g>
                </g>
                <g id="Group-19" transform="translate(105.000000, 613.000000)">
                    <g id="Group-10">
                        <g id="Rectangle-Copy-3" opacity="0.298758371">
                            <use fill="#3774E8" xlink:href="#path-28"></use>
                            <use fill="url(#linearGradient-1)" xlink:href="#path-28"></use>
                        </g>
                        <g id="Rectangle" opacity="0.298758371">
                            <use fill="#3774E8" xlink:href="#path-29"></use>
                            <use fill="url(#linearGradient-1)" xlink:href="#path-29"></use>
                        </g>
                        <g id="wallet-2">
                            <g id="Shape">
                                <use fill="black" fill-opacity="1" filter="url(#filter-32)" xlink:href="#path-31"></use>
                                <use fill="url(#linearGradient-30)" fill-rule="evenodd" xlink:href="#path-31"></use>
                            </g>
                        </g>
                    </g>
                    <g id="Group-12" transform="translate(0.000000, 94.000000)">
                        <g id="Rectangle" opacity="0.298758371">
                            <use fill="#18DAA2" xlink:href="#path-33"></use>
                            <use fill="url(#linearGradient-18)" xlink:href="#path-33"></use>
                        </g>
                        <path d="M26.3997142,18 L23.6817142,8.388 L20.9637142,18 L18.7137142,18 L15.2217142,5.4 L17.3637142,5.4 L19.9377142,15.516 L22.7277142,5.4 L24.6177142,5.4 L27.4257142,15.516 L29.9997142,5.4 L32.1237142,5.4 L28.6497142,18 L26.3997142,18 Z M32.7151428,15.102 C32.7151428,13.284 34.1911428,12.006 36.3511428,12.006 C37.4311428,12.006 38.2411428,12.366 38.6011428,12.69 L38.6011428,11.808 C38.6011428,10.728 37.8451428,10.08 36.6031428,10.08 C35.5591428,10.08 34.6591428,10.44 33.9751428,10.818 L33.2191428,9.45 C33.9751428,8.964 35.2351428,8.37 36.8011428,8.37 C39.5911428,8.37 40.5451428,9.882 40.5451428,11.934 L40.5451428,18 L38.8351428,18 L38.6731428,17.298 C38.1871428,17.838 37.4311428,18.234 36.2611428,18.234 C34.2811428,18.234 32.7151428,16.992 32.7151428,15.102 Z M34.6771428,15.048 C34.6771428,15.984 35.4871428,16.668 36.6751428,16.668 C37.8271428,16.668 38.6551428,16.02 38.6551428,15.048 C38.6551428,14.058 37.8451428,13.428 36.6571428,13.428 C35.4691428,13.428 34.6771428,14.112 34.6771428,15.048 Z M42.4865714,18 L42.4865714,4.986 L44.4485714,4.986 L44.4485714,18 L42.4865714,18 Z M46.516,18 L46.516,4.986 L48.478,4.986 L48.478,18 L46.516,18 Z M49.9874286,13.338 C49.9874286,10.422 51.9854286,8.37 54.5594286,8.37 C57.4034286,8.37 59.0774286,10.332 59.0774286,13.284 C59.0774286,13.446 59.0774286,13.608 59.0594286,13.77 L51.9854286,13.77 C52.0214286,15.444 53.2274286,16.524 54.9014286,16.524 C56.3234286,16.524 57.1334286,15.732 57.4934286,15.21 L58.7894286,16.182 C58.3394286,16.956 57.0974286,18.234 54.8654286,18.234 C51.9314286,18.234 49.9874286,16.182 49.9874286,13.338 Z M52.0574286,12.42 L57.0794286,12.42 C57.0074286,10.872 55.9274286,10.008 54.5774286,10.008 C53.2274286,10.008 52.1834286,10.944 52.0574286,12.42 Z M60.6948572,8.604 L60.6948572,6.642 L62.6388572,6.642 L62.6388572,8.604 L64.5468572,8.604 L64.5468572,10.224 L62.6388572,10.224 L62.6388572,14.598 C62.6388572,16.056 63.1968572,16.38 64.2408572,16.38 C64.4028572,16.38 64.6188572,16.362 64.6188572,16.362 L64.6188572,18.054 C64.6188572,18.054 64.2768572,18.126 63.6648572,18.126 C61.3788572,18.126 60.6948572,16.596 60.6948572,14.292 L60.6948572,10.224 L59.6508572,10.224 L59.6508572,8.604 L60.6948572,8.604 Z" id="Wallet" fill="#FFFFFF"></path>
                    </g>
                </g>
                <g id="Group-18" transform="translate(203.000000, 456.000000)">
                    <g id="security-badge">
                        <g id="Path-Copy" opacity="0.298758371">
                            <use fill="#3774E8" xlink:href="#path-34"></use>
                            <use fill="url(#linearGradient-1)" xlink:href="#path-34"></use>
                        </g>
                        <g id="Path" opacity="0.298758371">
                            <use fill="#3774E8" xlink:href="#path-35"></use>
                            <use fill="url(#linearGradient-1)" xlink:href="#path-35"></use>
                        </g>
                        <g id="Shape">
                            <use fill="black" fill-opacity="1" filter="url(#filter-37)" xlink:href="#path-36"></use>
                            <use fill="url(#linearGradient-30)" fill-rule="evenodd" xlink:href="#path-36"></use>
                        </g>
                        <g id="Group-7" transform="translate(20.000000, 22.000000)">
                            <ellipse id="Oval" fill="url(#linearGradient-26)" opacity="0.300000012" cx="16" cy="16.5" rx="16" ry="16.5"></ellipse>
                            <g id="key" transform="translate(10.666667, 11.000000)">
                                <g id="Shape">
                                    <use fill="black" fill-opacity="1" filter="url(#filter-39)" xlink:href="#path-38"></use>
                                    <use fill="#18DAA2" fill-rule="evenodd" xlink:href="#path-38"></use>
                                </g>
                            </g>
                        </g>
                    </g>
                    <g id="Group-12-Copy-2" transform="translate(0.000000, 111.000000)">
                        <g id="Rectangle" opacity="0.298758371">
                            <use fill="#18DAA2" xlink:href="#path-40"></use>
                            <use fill="url(#linearGradient-18)" xlink:href="#path-40"></use>
                        </g>
                        <path d="M18.8679999,5.4 L18.8679999,7.2 L15.9159999,10.494 C17.5899999,10.494 19.3539999,11.592 19.3539999,14.202 C19.3539999,16.542 17.5899999,18.234 15.2139999,18.234 C12.6039999,18.234 11.5059999,16.596 11.1639999,15.3 L12.8739999,14.742 C13.1619999,15.642 13.8639999,16.398 15.1779999,16.398 C16.4199999,16.398 17.3199999,15.516 17.3199999,14.256 C17.3199999,12.996 16.5459999,12.186 15.0519999,12.186 L13.6299999,12.186 L13.6299999,10.62 L16.6179999,7.164 L11.6139999,7.164 L11.6139999,5.4 L18.8679999,5.4 Z M25.6694285,8.37 L25.6694285,10.35 C23.6174285,10.35 23.0234285,11.916 23.0234285,13.95 L23.0234285,18 L21.0614285,18 L21.0614285,8.604 L22.9874285,8.604 L22.9874285,10.08 C23.3474285,9.144 24.3374285,8.37 25.6694285,8.37 Z M35.8908571,4.986 L35.8908571,18 L34.0368571,18 L34.0368571,16.776 C33.7848571,17.1 32.8308571,18.234 31.0128571,18.234 C28.3308571,18.234 26.4228571,16.2 26.4228571,13.32 C26.4228571,10.422 28.2048571,8.37 30.8868571,8.37 C32.6688571,8.37 33.6768571,9.45 33.9288571,9.864 L33.9288571,4.986 L35.8908571,4.986 Z M34.0008571,13.338 C34.0008571,11.286 32.7588571,10.116 31.1928571,10.116 C29.5548571,10.116 28.4028571,11.448 28.4028571,13.338 C28.4028571,15.264 29.6088571,16.506 31.2108571,16.506 C32.9388571,16.506 34.0008571,15.066 34.0008571,13.338 Z M42.3477143,18 L42.3477143,4.986 L44.3097143,4.986 L44.3097143,12.618 L47.7837143,8.604 L50.0157143,8.604 L46.2537143,12.852 L50.2677143,18 L47.9457143,18 L44.3097143,13.068 L44.3097143,18 L42.3477143,18 Z M50.7511429,13.338 C50.7511429,10.422 52.7491429,8.37 55.3231429,8.37 C58.1671429,8.37 59.8411429,10.332 59.8411429,13.284 C59.8411429,13.446 59.8411429,13.608 59.8231429,13.77 L52.7491429,13.77 C52.7851429,15.444 53.9911429,16.524 55.6651429,16.524 C57.0871429,16.524 57.8971429,15.732 58.2571429,15.21 L59.5531429,16.182 C59.1031429,16.956 57.8611429,18.234 55.6291429,18.234 C52.6951429,18.234 50.7511429,16.182 50.7511429,13.338 Z M52.8211429,12.42 L57.8431429,12.42 C57.7711429,10.872 56.6911429,10.008 55.3411429,10.008 C53.9911429,10.008 52.9471429,10.944 52.8211429,12.42 Z M64.5905715,21.222 L62.7005715,21.222 L64.0325715,17.838 L60.3065715,8.604 L62.4125715,8.604 L64.9505715,15.444 L67.4525715,8.604 L69.5045715,8.604 L64.5905715,21.222 Z" id="3rd-key" fill="#FFFFFF"></path>
                    </g>
                </g>
                <g id="Group-14">
                    <g id="Group-9" transform="translate(0.000000, 38.000000)">
                        <g id="Rectangle-Copy-2" opacity="0.298758371">
                            <use fill="#3774E8" xlink:href="#path-41"></use>
                            <use fill="url(#linearGradient-1)" xlink:href="#path-41"></use>
                        </g>
                        <g id="Rectangle" opacity="0.298758371">
                            <use fill="#3774E8" xlink:href="#path-42"></use>
                            <use fill="url(#linearGradient-1)" xlink:href="#path-42"></use>
                        </g>
                        <g id="web-2" transform="translate(43.500000, 43.000000) scale(-1, 1) translate(-43.500000, -43.000000) ">
                            <g id="Shape">
                                <use fill="black" fill-opacity="1" filter="url(#filter-44)" xlink:href="#path-43"></use>
                                <use fill="url(#linearGradient-4)" fill-rule="evenodd" xlink:href="#path-43"></use>
                            </g>
                            <g id="Path">
                                <use fill="black" fill-opacity="1" filter="url(#filter-46)" xlink:href="#path-45"></use>
                                <use fill="url(#linearGradient-7)" fill-rule="evenodd" xlink:href="#path-45"></use>
                            </g>
                            <g id="Path">
                                <use fill="black" fill-opacity="1" filter="url(#filter-48)" xlink:href="#path-47"></use>
                                <use fill="url(#linearGradient-7)" fill-rule="evenodd" xlink:href="#path-47"></use>
                            </g>
                            <g id="Path">
                                <use fill="black" fill-opacity="1" filter="url(#filter-50)" xlink:href="#path-49"></use>
                                <use fill="url(#linearGradient-7)" fill-rule="evenodd" xlink:href="#path-49"></use>
                            </g>
                            <g id="Path">
                                <use fill="black" fill-opacity="1" filter="url(#filter-52)" xlink:href="#path-51"></use>
                                <use fill="url(#linearGradient-14)" fill-rule="evenodd" xlink:href="#path-51"></use>
                            </g>
                        </g>
                        <g id="Group-7" transform="translate(27.000000, 31.000000)">
                            <circle id="Oval" fill="url(#linearGradient-26)" opacity="0.300000012" cx="17" cy="17" r="17"></circle>
                            <g id="key" transform="translate(11.333333, 11.333333)" fill="url(#linearGradient-17)">
                                <path d="M10.9496033,1.13927042 C9.43055592,-0.379772546 6.95901081,-0.379748935 5.4399634,1.13929403 C4.4023711,2.17688329 4.04197039,3.70596096 4.49124349,5.09323044 L0.103771036,9.48071366 C0.0373528507,9.54713165 0,9.63704267 0,9.73113286 L0,11.7347226 C0,11.9304821 0.158407254,12.0888889 0.354167358,12.0888889 L2.35776294,12.0888889 C2.45182979,12.0888889 2.54176469,12.0515361 2.60815926,11.9851182 L3.10897552,11.4839492 C3.18540483,11.4075201 3.22275768,11.3003022 3.2103146,11.19273 L3.14805198,10.6545625 L3.89373955,10.5843431 C4.06322044,10.5684293 4.19707209,10.434578 4.21298601,10.2650976 L4.28320559,9.51941223 L4.82137469,9.58200523 C4.92132072,9.59548716 5.02197509,9.5619358 5.09771968,9.4948567 C5.1731101,9.42742343 5.21634213,9.33125547 5.21634213,9.23027085 L5.21634213,8.57083677 L5.86380729,8.57083677 C5.95787414,8.57083677 6.04780903,8.53348403 6.11420361,8.46706604 L7.02245399,7.57083636 C8.40937337,8.02046231 9.91201103,7.68721541 10.9496033,6.64891781 C12.4686507,5.12989846 12.4686507,2.65831338 10.9496033,1.13927042 Z M9.94766387,3.64369853 C9.53331168,4.05804951 8.8595673,4.05804951 8.44521511,3.64369853 C8.03086291,3.22934754 8.03086291,2.55560514 8.44521511,2.14125416 C8.8595673,1.72690317 9.53331168,1.72690317 9.94766387,2.14125416 C10.3620161,2.55560514 10.3619925,3.22934754 9.94766387,3.64369853 Z" id="Shape"></path>
                            </g>
                        </g>
                    </g>
                    <g id="Group-12-Copy-5">
                        <g id="Rectangle" opacity="0.298758371">
                            <use fill="#18DAA2" xlink:href="#path-53"></use>
                            <use fill="url(#linearGradient-18)" xlink:href="#path-53"></use>
                        </g>
                        <path d="M21.6739999,18 L18.9559999,8.388 L16.2379999,18 L13.9879999,18 L10.4959999,5.4 L12.6379999,5.4 L15.2119999,15.516 L18.0019999,5.4 L19.8919999,5.4 L22.6999999,15.516 L25.2739999,5.4 L27.3979999,5.4 L23.9239999,18 L21.6739999,18 Z M27.7374285,13.338 C27.7374285,10.422 29.7354285,8.37 32.3094285,8.37 C35.1534285,8.37 36.8274285,10.332 36.8274285,13.284 C36.8274285,13.446 36.8274285,13.608 36.8094285,13.77 L29.7354285,13.77 C29.7714285,15.444 30.9774285,16.524 32.6514285,16.524 C34.0734285,16.524 34.8834285,15.732 35.2434285,15.21 L36.5394285,16.182 C36.0894285,16.956 34.8474285,18.234 32.6154285,18.234 C29.6814285,18.234 27.7374285,16.182 27.7374285,13.338 Z M29.8074285,12.42 L34.8294285,12.42 C34.7574285,10.872 33.6774285,10.008 32.3274285,10.008 C30.9774285,10.008 29.9334285,10.944 29.8074285,12.42 Z M38.2828571,18 L38.2828571,4.986 L40.2448571,4.986 L40.2448571,9.864 C40.4968571,9.45 41.5048571,8.37 43.2868571,8.37 C45.9688571,8.37 47.7508571,10.422 47.7508571,13.32 C47.7508571,16.2 45.8428571,18.234 43.1608571,18.234 C41.3428571,18.234 40.3888571,17.1 40.1368571,16.776 L40.1368571,18 L38.2828571,18 Z M40.1728571,13.338 C40.1728571,15.066 41.2348571,16.506 42.9628571,16.506 C44.5648571,16.506 45.7708571,15.264 45.7708571,13.338 C45.7708571,11.448 44.6188571,10.116 42.9808571,10.116 C41.4148571,10.116 40.1728571,11.286 40.1728571,13.338 Z M53.0557143,15.102 C53.0557143,13.284 54.5317143,12.006 56.6917143,12.006 C57.7717143,12.006 58.5817143,12.366 58.9417143,12.69 L58.9417143,11.808 C58.9417143,10.728 58.1857143,10.08 56.9437143,10.08 C55.8997143,10.08 54.9997143,10.44 54.3157143,10.818 L53.5597143,9.45 C54.3157143,8.964 55.5757143,8.37 57.1417143,8.37 C59.9317143,8.37 60.8857143,9.882 60.8857143,11.934 L60.8857143,18 L59.1757143,18 L59.0137143,17.298 C58.5277143,17.838 57.7717143,18.234 56.6017143,18.234 C54.6217143,18.234 53.0557143,16.992 53.0557143,15.102 Z M55.0177143,15.048 C55.0177143,15.984 55.8277143,16.668 57.0157143,16.668 C58.1677143,16.668 58.9957143,16.02 58.9957143,15.048 C58.9957143,14.058 58.1857143,13.428 56.9977143,13.428 C55.8097143,13.428 55.0177143,14.112 55.0177143,15.048 Z M62.8271429,21.366 L62.8271429,8.604 L64.6811429,8.604 L64.6811429,9.846 C64.9331429,9.504 65.8871429,8.37 67.7051429,8.37 C70.3871429,8.37 72.2951429,10.422 72.2951429,13.284 C72.2951429,16.2 70.5131429,18.234 67.8311429,18.234 C66.0491429,18.234 65.0411429,17.154 64.7891429,16.758 L64.7891429,21.366 L62.8271429,21.366 Z M64.7171429,13.284 C64.7171429,15.318 65.9591429,16.488 67.5251429,16.488 C69.1631429,16.488 70.3151429,15.174 70.3151429,13.284 C70.3151429,11.358 69.1091429,10.116 67.5071429,10.116 C65.7791429,10.116 64.7171429,11.556 64.7171429,13.284 Z M73.8045715,21.366 L73.8045715,8.604 L75.6585715,8.604 L75.6585715,9.846 C75.9105715,9.504 76.8645715,8.37 78.6825715,8.37 C81.3645715,8.37 83.2725715,10.422 83.2725715,13.284 C83.2725715,16.2 81.4905715,18.234 78.8085715,18.234 C77.0265715,18.234 76.0185715,17.154 75.7665715,16.758 L75.7665715,21.366 L73.8045715,21.366 Z M75.6945715,13.284 C75.6945715,15.318 76.9365715,16.488 78.5025715,16.488 C80.1405715,16.488 81.2925715,15.174 81.2925715,13.284 C81.2925715,11.358 80.0865715,10.116 78.4845715,10.116 C76.7565715,10.116 75.6945715,11.556 75.6945715,13.284 Z" id="Web-app" fill="#FFFFFF"></path>
                    </g>
                </g>
                <g id="Group-3" transform="translate(181.000000, 0.000000)">
                    <g id="Group-9-Copy" transform="translate(0.000000, 38.000000)">
                        <g id="Rectangle" opacity="0.298758371">
                            <use fill="#3774E8" xlink:href="#path-54"></use>
                            <use fill="url(#linearGradient-1)" xlink:href="#path-54"></use>
                        </g>
                        <g id="Rectangle" opacity="0.298758371">
                            <use fill="#3774E8" xlink:href="#path-55"></use>
                            <use fill="url(#linearGradient-1)" xlink:href="#path-55"></use>
                        </g>
                        <g id="database">
                            <g id="server">
                                <g id="Shape">
                                    <use fill="black" fill-opacity="1" filter="url(#filter-58)" xlink:href="#path-57"></use>
                                    <use fill="url(#linearGradient-56)" fill-rule="evenodd" xlink:href="#path-57"></use>
                                </g>
                                <g id="Shape">
                                    <use fill="black" fill-opacity="1" filter="url(#filter-61)" xlink:href="#path-60"></use>
                                    <use fill="url(#linearGradient-59)" fill-rule="evenodd" xlink:href="#path-60"></use>
                                </g>
                                <g id="Shape">
                                    <use fill="black" fill-opacity="1" filter="url(#filter-63)" xlink:href="#path-62"></use>
                                    <use fill="url(#linearGradient-59)" fill-rule="evenodd" xlink:href="#path-62"></use>
                                </g>
                                <g id="Path">
                                    <use fill="black" fill-opacity="1" filter="url(#filter-66)" xlink:href="#path-65"></use>
                                    <use fill="url(#linearGradient-64)" fill-rule="evenodd" xlink:href="#path-65"></use>
                                </g>
                                <g id="Path">
                                    <use fill="black" fill-opacity="1" filter="url(#filter-68)" xlink:href="#path-67"></use>
                                    <use fill="url(#linearGradient-64)" fill-rule="evenodd" xlink:href="#path-67"></use>
                                </g>
                                <g id="Path">
                                    <use fill="black" fill-opacity="1" filter="url(#filter-70)" xlink:href="#path-69"></use>
                                    <use fill="url(#linearGradient-64)" fill-rule="evenodd" xlink:href="#path-69"></use>
                                </g>
                                <g id="Path">
                                    <use fill="black" fill-opacity="1" filter="url(#filter-72)" xlink:href="#path-71"></use>
                                    <use fill="url(#linearGradient-64)" fill-rule="evenodd" xlink:href="#path-71"></use>
                                </g>
                                <g id="Shape">
                                    <use fill="black" fill-opacity="1" filter="url(#filter-74)" xlink:href="#path-73"></use>
                                    <use fill="url(#linearGradient-59)" fill-rule="evenodd" xlink:href="#path-73"></use>
                                </g>
                                <g id="Path">
                                    <use fill="black" fill-opacity="1" filter="url(#filter-76)" xlink:href="#path-75"></use>
                                    <use fill="url(#linearGradient-64)" fill-rule="evenodd" xlink:href="#path-75"></use>
                                </g>
                                <g id="Path">
                                    <use fill="black" fill-opacity="1" filter="url(#filter-78)" xlink:href="#path-77"></use>
                                    <use fill="url(#linearGradient-64)" fill-rule="evenodd" xlink:href="#path-77"></use>
                                </g>
                            </g>
                        </g>
                    </g>
                    <g id="Group-12-Copy" transform="translate(8.000000, 0.000000)">
                        <g id="Rectangle" opacity="0.298758371">
                            <use fill="#18DAA2" xlink:href="#path-79"></use>
                            <use fill="url(#linearGradient-18)" xlink:href="#path-79"></use>
                        </g>
                        <path d="M12.0639999,18 L12.0639999,5.4 L15.4479999,5.4 C18.1479999,5.4 19.6599999,7.002 19.6599999,9.108 C19.6599999,10.566 18.8859999,11.826 17.6079999,12.348 L20.6679999,18 L18.4539999,18 L15.8079999,12.798 L14.0619999,12.798 L14.0619999,18 L12.0639999,18 Z M14.0619999,11.088 L15.4119999,11.088 C16.6719999,11.088 17.5899999,10.386 17.5899999,9.108 C17.5899999,7.938 16.8699999,7.146 15.4119999,7.146 L14.0619999,7.146 L14.0619999,11.088 Z M21.3494285,13.338 C21.3494285,10.422 23.3474285,8.37 25.9214285,8.37 C28.7654285,8.37 30.4394285,10.332 30.4394285,13.284 C30.4394285,13.446 30.4394285,13.608 30.4214285,13.77 L23.3474285,13.77 C23.3834285,15.444 24.5894285,16.524 26.2634285,16.524 C27.6854285,16.524 28.4954285,15.732 28.8554285,15.21 L30.1514285,16.182 C29.7014285,16.956 28.4594285,18.234 26.2274285,18.234 C23.2934285,18.234 21.3494285,16.182 21.3494285,13.338 Z M23.4194285,12.42 L28.4414285,12.42 C28.3694285,10.872 27.2894285,10.008 25.9394285,10.008 C24.5894285,10.008 23.5454285,10.944 23.4194285,12.42 Z M31.8948571,18 L31.8948571,4.986 L33.8568571,4.986 L33.8568571,18 L31.8948571,18 Z M35.3482857,15.102 C35.3482857,13.284 36.8242857,12.006 38.9842857,12.006 C40.0642857,12.006 40.8742857,12.366 41.2342857,12.69 L41.2342857,11.808 C41.2342857,10.728 40.4782857,10.08 39.2362857,10.08 C38.1922857,10.08 37.2922857,10.44 36.6082857,10.818 L35.8522857,9.45 C36.6082857,8.964 37.8682857,8.37 39.4342857,8.37 C42.2242857,8.37 43.1782857,9.882 43.1782857,11.934 L43.1782857,18 L41.4682857,18 L41.3062857,17.298 C40.8202857,17.838 40.0642857,18.234 38.8942857,18.234 C36.9142857,18.234 35.3482857,16.992 35.3482857,15.102 Z M37.3102857,15.048 C37.3102857,15.984 38.1202857,16.668 39.3082857,16.668 C40.4602857,16.668 41.2882857,16.02 41.2882857,15.048 C41.2882857,14.058 40.4782857,13.428 39.2902857,13.428 C38.1022857,13.428 37.3102857,14.112 37.3102857,15.048 Z M48.4137143,21.222 L46.5237143,21.222 L47.8557143,17.838 L44.1297143,8.604 L46.2357143,8.604 L48.7737143,15.444 L51.2757143,8.604 L53.3277143,8.604 L48.4137143,21.222 Z M53.8651429,13.338 C53.8651429,10.422 55.8631429,8.37 58.4371429,8.37 C61.2811429,8.37 62.9551429,10.332 62.9551429,13.284 C62.9551429,13.446 62.9551429,13.608 62.9371429,13.77 L55.8631429,13.77 C55.8991429,15.444 57.1051429,16.524 58.7791429,16.524 C60.2011429,16.524 61.0111429,15.732 61.3711429,15.21 L62.6671429,16.182 C62.2171429,16.956 60.9751429,18.234 58.7431429,18.234 C55.8091429,18.234 53.8651429,16.182 53.8651429,13.338 Z M55.9351429,12.42 L60.9571429,12.42 C60.8851429,10.872 59.8051429,10.008 58.4551429,10.008 C57.1051429,10.008 56.0611429,10.944 55.9351429,12.42 Z M69.0185715,8.37 L69.0185715,10.35 C66.9665715,10.35 66.3725715,11.916 66.3725715,13.95 L66.3725715,18 L64.4105715,18 L64.4105715,8.604 L66.3365715,8.604 L66.3365715,10.08 C66.6965715,9.144 67.6865715,8.37 69.0185715,8.37 Z" id="Relayer" fill="#FFFFFF"></path>
                    </g>
                </g>
            </g>
        </g>
    </g>
</svg>