<svg width="1020" height="658" viewBox="0 0 1020 658" fill="none" xmlns="http://www.w3.org/2000/svg">
<g opacity="0.4" filter="url(#filter0_d)">
<path d="M144.062 229.289V313.32H394" stroke="#18DAA2"/>
</g>
<g opacity="0.4" filter="url(#filter1_d)">
<path d="M472.938 362V478.418H223" stroke="#18DAA2"/>
</g>
<g opacity="0.4" filter="url(#filter2_d)">
<path d="M503 362V508.418H542.938" stroke="#18DAA2"/>
</g>
<g opacity="0.4" filter="url(#filter3_d)">
<path d="M577 359V435.418H783.379" stroke="#18DAA2"/>
</g>
<path d="M687.91 440.909C687.408 441.411 686.593 441.411 686.091 440.909C685.589 440.408 685.589 439.593 686.091 439.091L690.588 434.591C691.09 434.089 691.904 434.089 692.406 434.591C692.908 435.093 692.909 435.907 692.407 436.409L687.91 440.909Z" fill="#17D2A5"/>
<path d="M692.407 434.591C692.909 435.093 692.908 435.908 692.406 436.409C691.904 436.911 691.09 436.911 690.588 436.409L686.091 431.909C685.589 431.407 685.589 430.593 686.091 430.091C686.593 429.589 687.408 429.589 687.91 430.091L692.407 434.591Z" fill="#17D2A5"/>
<g opacity="0.298758">
<rect x="632" y="406" width="115" height="15" fill="#18DAA2"/>
<rect x="632" y="406" width="115" height="15" fill="url(#paint0_linear)"/>
</g>
<path d="M643.266 410H645.486V398H649.006V396H639.746V398H643.266V410ZM655.153 399.3C653.673 399.3 652.573 400.16 652.173 401.2V399.56H650.033V410H652.213V405.5C652.213 403.24 652.873 401.5 655.153 401.5V399.3ZM655.988 406.78C655.988 408.88 657.728 410.26 659.928 410.26C661.228 410.26 662.068 409.82 662.608 409.22L662.788 410H664.688V403.26C664.688 400.98 663.628 399.3 660.528 399.3C658.788 399.3 657.388 399.96 656.548 400.5L657.388 402.02C658.148 401.6 659.148 401.2 660.308 401.2C661.688 401.2 662.528 401.92 662.528 403.12V404.1C662.128 403.74 661.228 403.34 660.028 403.34C657.628 403.34 655.988 404.76 655.988 406.78ZM658.168 406.72C658.168 405.68 659.048 404.92 660.368 404.92C661.688 404.92 662.588 405.62 662.588 406.72C662.588 407.8 661.668 408.52 660.388 408.52C659.068 408.52 658.168 407.76 658.168 406.72ZM671.917 399.3C670.517 399.3 669.437 400.1 668.977 400.92V399.56H666.837V410H669.017V403.7C669.017 402.28 669.917 401.26 671.297 401.26C672.497 401.26 673.397 402.1 673.397 403.54V410H675.557V403.72C675.557 401.44 674.617 399.3 671.917 399.3ZM677.028 408.18C677.548 409.12 678.668 410.26 680.788 410.26C682.928 410.26 684.568 409 684.568 407.06C684.568 403.38 679.468 404.22 679.468 402.22C679.468 401.5 680.068 401.08 680.868 401.08C682.028 401.08 682.588 401.76 682.888 402.24L684.388 401.24C683.988 400.44 682.948 399.3 680.988 399.3C678.968 399.3 677.408 400.42 677.408 402.26C677.408 405.88 682.488 405.16 682.488 407.16C682.488 408 681.808 408.46 680.888 408.46C679.588 408.46 678.868 407.8 678.388 407.1L677.028 408.18ZM685.501 406.78C685.501 408.88 687.241 410.26 689.441 410.26C690.741 410.26 691.581 409.82 692.121 409.22L692.301 410H694.201V403.26C694.201 400.98 693.141 399.3 690.041 399.3C688.301 399.3 686.901 399.96 686.061 400.5L686.901 402.02C687.661 401.6 688.661 401.2 689.821 401.2C691.201 401.2 692.041 401.92 692.041 403.12V404.1C691.641 403.74 690.741 403.34 689.541 403.34C687.141 403.34 685.501 404.76 685.501 406.78ZM687.681 406.72C687.681 405.68 688.561 404.92 689.881 404.92C691.201 404.92 692.101 405.62 692.101 406.72C692.101 407.8 691.181 408.52 689.901 408.52C688.581 408.52 687.681 407.76 687.681 406.72ZM704.63 400.58C704.03 400.06 702.87 399.3 701.15 399.3C698.05 399.3 695.71 401.66 695.71 404.78C695.71 407.92 697.99 410.26 701.17 410.26C702.91 410.26 704.11 409.42 704.63 408.96L704.01 407.16C703.57 407.56 702.63 408.32 701.29 408.32C699.35 408.32 697.91 406.78 697.91 404.78C697.91 402.8 699.23 401.28 701.21 401.28C702.53 401.28 703.49 401.96 703.97 402.42L704.63 400.58ZM706.406 399.56H705.246V401.36H706.406V405.88C706.406 408.44 707.166 410.14 709.706 410.14C710.386 410.14 710.766 410.06 710.766 410.06V408.18C710.766 408.18 710.526 408.2 710.346 408.2C709.186 408.2 708.566 407.84 708.566 406.22V401.36H710.686V399.56H708.566V397.38H706.406V399.56ZM712.373 410H714.553V399.56H712.373V410ZM712.093 396.98C712.093 397.74 712.693 398.34 713.453 398.34C714.213 398.34 714.813 397.74 714.813 396.98C714.813 396.22 714.213 395.62 713.453 395.62C712.693 395.62 712.093 396.22 712.093 396.98ZM718.419 404.8C718.419 402.76 719.779 401.24 721.739 401.24C723.679 401.24 725.099 402.74 725.099 404.78C725.099 406.82 723.679 408.32 721.739 408.32C719.799 408.32 718.419 406.86 718.419 404.8ZM716.219 404.8C716.219 407.96 718.539 410.26 721.739 410.26C724.919 410.26 727.279 407.92 727.279 404.78C727.279 401.64 724.959 399.3 721.739 399.3C718.599 399.3 716.219 401.64 716.219 404.8ZM734.022 399.3C732.622 399.3 731.542 400.1 731.082 400.92V399.56H728.942V410H731.122V403.7C731.122 402.28 732.022 401.26 733.402 401.26C734.602 401.26 735.502 402.1 735.502 403.54V410H737.662V403.72C737.662 401.44 736.722 399.3 734.022 399.3Z" fill="white"/>
<g opacity="0.4" filter="url(#filter4_d)">
<path d="M853.379 161.418V92H576" stroke="#18DAA2"/>
</g>
<g opacity="0.4" filter="url(#filter5_d)">
<path d="M853.379 253V322.418H590" stroke="#18DAA2"/>
</g>
<g opacity="0.4" filter="url(#filter6_d)">
<path d="M551.752 249.902V157.688" stroke="#18DAA2"/>
</g>
<path d="M848.091 119.909C847.589 119.407 847.589 118.593 848.091 118.091C848.593 117.589 849.407 117.589 849.909 118.091L854.409 122.588C854.911 123.09 854.911 123.904 854.41 124.406C853.908 124.908 853.093 124.908 852.591 124.406L848.091 119.909Z" fill="#17D2A5"/>
<path d="M854.409 124.406C853.907 124.908 853.093 124.908 852.591 124.406C852.089 123.904 852.089 123.09 852.591 122.588L857.091 118.091C857.593 117.589 858.408 117.589 858.91 118.091C859.411 118.593 859.411 119.407 858.909 119.909L854.409 124.406Z" fill="#17D2A5"/>
<path d="M848.091 299.909C847.589 299.407 847.589 298.593 848.091 298.091C848.593 297.589 849.407 297.589 849.909 298.091L854.409 302.588C854.911 303.09 854.911 303.904 854.41 304.406C853.908 304.908 853.093 304.908 852.591 304.406L848.091 299.909Z" fill="#17D2A5"/>
<path d="M854.409 304.406C853.907 304.908 853.093 304.908 852.591 304.406C852.089 303.904 852.089 303.09 852.591 302.588L857.091 298.091C857.593 297.589 858.408 297.589 858.91 298.091C859.411 298.593 859.411 299.407 858.909 299.909L854.409 304.406Z" fill="#17D2A5"/>
<g opacity="0.298758">
<rect x="92" y="456" width="162" height="108" rx="9" fill="#3774E8"/>
<rect x="92" y="456" width="162" height="108" rx="9" fill="url(#paint1_linear)"/>
</g>
<g opacity="0.298758">
<rect x="82" y="446" width="162" height="108" rx="9" fill="#3774E8"/>
<rect x="82" y="446" width="162" height="108" rx="9" fill="url(#paint2_linear)"/>
</g>
<g filter="url(#filter7_d)">
<path fill-rule="evenodd" clip-rule="evenodd" d="M233.769 538.16H223.01C223.941 536.857 224.503 535.269 224.503 533.546V440.98C224.503 436.579 220.918 433 216.514 433H70.3808C65.9782 433 62.3948 436.581 62.3948 440.98V533.546C62.3948 535.304 62.9852 536.919 63.9529 538.241H53.0907C53.0907 538.241 52.6029 538.735 53.8895 540.019C57.5376 543.666 65.7319 543.981 65.7319 543.981V543.972C65.7319 543.972 219.223 544.008 219.393 543.998C227.949 543.998 230.712 541.435 232.974 539.94C234.649 538.258 233.769 538.16 233.769 538.16ZM153.709 540.107H133.145V538.711H153.706L153.709 540.107ZM218.607 531.712H68.0524V438.381H218.609V531.712H218.607Z" fill="url(#paint3_linear)"/>
</g>
<path opacity="0.3" fill-rule="evenodd" clip-rule="evenodd" d="M143.5 508C155.926 508 166 497.926 166 485.5C166 473.074 155.926 463 143.5 463C131.074 463 121 473.074 121 485.5C121 497.926 131.074 508 143.5 508Z" fill="url(#paint4_linear)"/>
<path fill-rule="evenodd" clip-rule="evenodd" d="M150.492 479.508C148.482 477.497 145.21 477.497 143.2 479.508C141.827 480.881 141.35 482.905 141.944 484.741L136.137 490.548C136.049 490.636 136 490.755 136 490.879V493.531C136 493.79 136.21 494 136.469 494H139.121C139.245 494 139.364 493.951 139.452 493.863L140.115 493.199C140.216 493.098 140.265 492.956 140.249 492.814L140.167 492.102L141.153 492.009C141.378 491.988 141.555 491.81 141.576 491.586L141.669 490.599L142.381 490.682C142.514 490.7 142.647 490.656 142.747 490.567C142.847 490.477 142.904 490.35 142.904 490.217V489.344H143.761C143.885 489.344 144.004 489.294 144.092 489.206L145.294 488.02C147.13 488.615 149.119 488.174 150.492 486.8C152.503 484.79 152.503 481.518 150.492 479.508ZM149.166 482.823C148.618 483.371 147.726 483.371 147.177 482.823C146.629 482.274 146.629 481.382 147.177 480.834C147.726 480.286 148.618 480.286 149.166 480.834C149.714 481.382 149.714 482.274 149.166 482.823Z" fill="url(#paint5_linear)"/>
<g opacity="0.298758">
<rect x="114" y="590" width="80" height="15" fill="#18DAA2"/>
<rect x="114" y="590" width="80" height="15" fill="url(#paint6_linear)"/>
</g>
<path d="M119.979 594H128.839V592.04H122.579C122.919 589.82 128.659 587.78 128.659 583.82C128.659 581.42 126.979 579.74 124.299 579.74C121.399 579.74 120.259 581.86 119.979 583.14L121.919 583.7C122.199 582.68 122.859 581.8 124.219 581.8C125.599 581.8 126.399 582.66 126.399 583.9C126.399 586.98 119.979 589.24 119.979 593.2V594ZM135.804 583.3C134.404 583.3 133.324 584.1 132.864 584.92V583.56H130.724V594H132.904V587.7C132.904 586.28 133.804 585.26 135.184 585.26C136.384 585.26 137.284 586.1 137.284 587.54V594H139.444V587.72C139.444 585.44 138.504 583.3 135.804 583.3ZM151.535 579.54H149.355V584.96C149.075 584.5 147.955 583.3 145.975 583.3C142.995 583.3 141.015 585.58 141.015 588.8C141.015 592 143.135 594.26 146.115 594.26C148.135 594.26 149.195 593 149.475 592.64V594H151.535V579.54ZM149.435 588.82C149.435 590.74 148.255 592.34 146.335 592.34C144.555 592.34 143.215 590.96 143.215 588.82C143.215 586.72 144.495 585.24 146.315 585.24C148.055 585.24 149.435 586.54 149.435 588.82ZM158.713 594H160.893V588.52L164.933 594H167.513L163.053 588.28L167.233 583.56H164.753L160.893 588.02V579.54H158.713V594ZM168.048 588.82C168.048 591.98 170.208 594.26 173.468 594.26C175.948 594.26 177.328 592.84 177.828 591.98L176.388 590.9C175.988 591.48 175.088 592.36 173.508 592.36C171.648 592.36 170.308 591.16 170.268 589.3H178.128C178.148 589.12 178.148 588.94 178.148 588.76C178.148 585.48 176.288 583.3 173.128 583.3C170.268 583.3 168.048 585.58 168.048 588.82ZM170.348 587.8C170.488 586.16 171.648 585.12 173.148 585.12C174.648 585.12 175.848 586.08 175.928 587.8H170.348ZM183.415 597.58L188.875 583.56H186.595L183.815 591.16L180.995 583.56H178.655L182.795 593.82L181.315 597.58H183.415Z" fill="white"/>
<g opacity="0.3">
<rect x="115" y="139" width="67" height="115" rx="9" fill="#3774E8"/>
<rect x="115" y="139" width="67" height="115" rx="9" fill="url(#paint7_linear)"/>
</g>
<g opacity="0.3">
<rect x="105" y="129" width="67" height="115" rx="9" fill="#3774E8"/>
<rect x="105" y="129" width="67" height="115" rx="9" fill="url(#paint8_linear)"/>
</g>
<g filter="url(#filter8_d)">
<path fill-rule="evenodd" clip-rule="evenodd" d="M162 126.768V226.232C162 230.507 158.501 234 154.21 234H102.79C98.506 234.003 95 230.51 95 226.236V126.768C95 122.496 98.506 119 102.79 119H154.207C158.491 119 162 122.493 162 126.768ZM119.331 125.539C119.331 126.058 119.753 126.478 120.274 126.478H136.723C137.244 126.478 137.665 126.058 137.665 125.539C137.665 125.02 137.244 124.596 136.723 124.596H120.274C119.756 124.599 119.331 125.02 119.331 125.539ZM132.393 226.236C132.393 224.09 130.65 222.352 128.498 222.352C126.347 222.352 124.604 224.087 124.604 226.236C124.604 228.385 126.347 230.123 128.498 230.123C130.65 230.123 132.393 228.381 132.393 226.236ZM156.58 131.318H100.424V219.628H156.58V131.318Z" fill="url(#paint9_linear)"/>
</g>
<path opacity="0.3" fill-rule="evenodd" clip-rule="evenodd" d="M127.5 199C139.926 199 150 188.926 150 176.5C150 164.074 139.926 154 127.5 154C115.074 154 105 164.074 105 176.5C105 188.926 115.074 199 127.5 199Z" fill="url(#paint10_linear)"/>
<path fill-rule="evenodd" clip-rule="evenodd" d="M134.492 170.508C132.482 168.497 129.21 168.497 127.2 170.508C125.827 171.881 125.35 173.905 125.944 175.741L120.137 181.548C120.049 181.636 120 181.755 120 181.879V184.531C120 184.79 120.21 185 120.469 185H123.121C123.245 185 123.364 184.951 123.452 184.863L124.115 184.199C124.216 184.098 124.265 183.956 124.249 183.814L124.167 183.102L125.153 183.009C125.378 182.988 125.555 182.81 125.576 182.586L125.669 181.599L126.381 181.682C126.514 181.7 126.647 181.656 126.747 181.567C126.847 181.477 126.904 181.35 126.904 181.217V180.344H127.761C127.885 180.344 128.004 180.294 128.092 180.206L129.294 179.02C131.13 179.615 133.119 179.174 134.492 177.8C136.503 175.79 136.503 172.518 134.492 170.508ZM133.166 173.823C132.618 174.371 131.726 174.371 131.177 173.823C130.629 173.274 130.629 172.382 131.177 171.834C131.726 171.286 132.618 171.286 133.166 171.834C133.714 172.382 133.714 173.274 133.166 173.823Z" fill="url(#paint11_linear)"/>
<g opacity="0.298758">
<rect y="143" width="80" height="15" fill="#18DAA2"/>
<rect y="143" width="80" height="15" fill="url(#paint12_linear)"/>
</g>
<path d="M12.638 135.78L14.178 135.2V147H16.378V133H14.578L12.038 133.94L12.638 135.78ZM18.2785 145.18C18.7985 146.12 19.9185 147.26 22.0385 147.26C24.1785 147.26 25.8185 146 25.8185 144.06C25.8185 140.38 20.7185 141.22 20.7185 139.22C20.7185 138.5 21.3185 138.08 22.1185 138.08C23.2785 138.08 23.8385 138.76 24.1385 139.24L25.6385 138.24C25.2385 137.44 24.1985 136.3 22.2385 136.3C20.2185 136.3 18.6585 137.42 18.6585 139.26C18.6585 142.88 23.7385 142.16 23.7385 144.16C23.7385 145 23.0585 145.46 22.1385 145.46C20.8385 145.46 20.1185 144.8 19.6385 144.1L18.2785 145.18ZM27.5713 136.56H26.4113V138.36H27.5713V142.88C27.5713 145.44 28.3313 147.14 30.8713 147.14C31.5513 147.14 31.9313 147.06 31.9313 147.06V145.18C31.9313 145.18 31.6913 145.2 31.5113 145.2C30.3513 145.2 29.7313 144.84 29.7313 143.22V138.36H31.8513V136.56H29.7313V134.38H27.5713V136.56ZM38.4142 147H40.5942V141.52L44.6342 147H47.2142L42.7542 141.28L46.9342 136.56H44.4542L40.5942 141.02V132.54H38.4142V147ZM47.749 141.82C47.749 144.98 49.909 147.26 53.169 147.26C55.649 147.26 57.029 145.84 57.529 144.98L56.089 143.9C55.689 144.48 54.789 145.36 53.209 145.36C51.349 145.36 50.009 144.16 49.969 142.3H57.829C57.849 142.12 57.849 141.94 57.849 141.76C57.849 138.48 55.989 136.3 52.829 136.3C49.969 136.3 47.749 138.58 47.749 141.82ZM50.049 140.8C50.189 139.16 51.349 138.12 52.849 138.12C54.349 138.12 55.549 139.08 55.629 140.8H50.049ZM63.1166 150.58L68.5766 136.56H66.2966L63.5166 144.16L60.6966 136.56H58.3566L62.4966 146.82L61.0166 150.58H63.1166Z" fill="white"/>
<g opacity="0.298758">
<rect x="481" y="64" width="116" height="115" rx="9" fill="#3774E8"/>
<rect x="481" y="64" width="116" height="115" rx="9" fill="url(#paint13_linear)"/>
</g>
<g opacity="0.298758">
<rect x="471" y="54" width="116" height="115" rx="9" fill="#3774E8"/>
<rect x="471" y="54" width="116" height="115" rx="9" fill="url(#paint14_linear)"/>
</g>
<g filter="url(#filter9_d)">
<path fill-rule="evenodd" clip-rule="evenodd" d="M470.667 44H567.333C572.669 44.0063 576.994 48.2932 577 53.5834V149.417C576.994 154.707 572.669 158.994 567.333 159H470.667C465.331 158.994 461.007 154.707 461 149.417V53.5834C461.007 48.2932 465.331 44.0063 470.667 44ZM464.867 149.417C464.867 152.592 467.464 155.167 470.667 155.167H567.333C570.536 155.167 573.133 152.592 573.133 149.417V63.1666H464.867V149.417H464.867ZM464.867 59.3334H573.133V53.5834C573.133 50.4079 570.536 47.8334 567.333 47.8334H470.667C467.464 47.8334 464.867 50.4079 464.867 53.5834V59.3334H464.867Z" fill="url(#paint15_linear)"/>
</g>
<g filter="url(#filter10_d)">
<path fill-rule="evenodd" clip-rule="evenodd" d="M563 52H565C566.105 52 567 52.8953 567 53.9999C567 55.1045 566.105 56 565 56H563C561.895 56 561 55.1047 561 54.0001C561 52.8955 561.895 52 563 52Z" fill="url(#paint16_linear)"/>
</g>
<g filter="url(#filter11_d)">
<path fill-rule="evenodd" clip-rule="evenodd" d="M555.24 52.1649C555.723 51.945 556.277 51.945 556.76 52.1649C557.002 52.2662 557.225 52.4081 557.42 52.5843C558.193 53.372 558.193 54.6331 557.42 55.4208C557.225 55.597 557.002 55.7389 556.76 55.8402C556.276 56.0533 555.724 56.0533 555.24 55.8402C554.998 55.7389 554.775 55.597 554.58 55.4208C553.807 54.6331 553.807 53.372 554.58 52.5843C554.775 52.4081 554.998 52.2662 555.24 52.1649Z" fill="url(#paint17_linear)"/>
</g>
<g filter="url(#filter12_d)">
<path fill-rule="evenodd" clip-rule="evenodd" d="M547.233 52.1525C547.984 51.8419 548.848 52.0146 549.42 52.59C549.596 52.7839 549.738 53.0064 549.84 53.248C550.053 53.7308 550.053 54.2807 549.84 54.7635C549.738 55.0052 549.596 55.2276 549.42 55.4216C548.631 56.1928 547.369 56.1928 546.581 55.4216C546.404 55.2276 546.262 55.0052 546.161 54.7635C546.049 54.5268 545.994 54.2674 546.001 54.0057C545.996 53.1957 546.483 52.4631 547.233 52.1525Z" fill="url(#paint18_linear)"/>
</g>
<g filter="url(#filter13_d)">
<path fill-rule="evenodd" clip-rule="evenodd" d="M472.917 52H538.083C539.142 52 540 52.8953 540 54C540 55.1047 539.142 56 538.083 56H472.917C471.858 56 471 55.1047 471 54C471 52.8953 471.858 52 472.917 52Z" fill="url(#paint19_linear)"/>
</g>
<path opacity="0.3" fill-rule="evenodd" clip-rule="evenodd" d="M519.5 130C531.926 130 542 119.926 542 107.5C542 95.0736 531.926 85 519.5 85C507.074 85 497 95.0736 497 107.5C497 119.926 507.074 130 519.5 130Z" fill="url(#paint20_linear)"/>
<path fill-rule="evenodd" clip-rule="evenodd" d="M526.492 101.508C524.482 99.4974 521.21 99.4974 519.2 101.508C517.827 102.881 517.35 104.905 517.944 106.741L512.137 112.548C512.049 112.636 512 112.755 512 112.879V115.531C512 115.79 512.21 116 512.469 116H515.121C515.245 116 515.364 115.951 515.452 115.863L516.115 115.199C516.216 115.098 516.265 114.956 516.249 114.814L516.167 114.102L517.153 114.009C517.378 113.988 517.555 113.81 517.576 113.586L517.669 112.599L518.381 112.682C518.514 112.7 518.647 112.656 518.747 112.567C518.847 112.477 518.904 112.35 518.904 112.217V111.344H519.761C519.885 111.344 520.004 111.294 520.092 111.206L521.294 110.02C523.13 110.615 525.119 110.174 526.492 108.8C528.503 106.79 528.503 103.518 526.492 101.508ZM525.166 104.823C524.618 105.371 523.726 105.371 523.177 104.823C522.629 104.274 522.629 103.382 523.177 102.834C523.726 102.286 524.618 102.286 525.166 102.834C525.714 103.382 525.714 104.274 525.166 104.823Z" fill="url(#paint21_linear)"/>
<g opacity="0.298758">
<rect x="351" y="77" width="95" height="15" fill="#18DAA2"/>
<rect x="351" y="77" width="95" height="15" fill="url(#paint22_linear)"/>
</g>
<path d="M369.86 81H372.36L376.22 67H373.86L371 78.24L367.88 67H365.78L362.68 78.24L359.82 67H357.44L361.32 81H363.82L366.84 70.32L369.86 81ZM376.604 75.82C376.604 78.98 378.764 81.26 382.024 81.26C384.504 81.26 385.884 79.84 386.384 78.98L384.944 77.9C384.544 78.48 383.644 79.36 382.064 79.36C380.204 79.36 378.864 78.16 378.824 76.3H386.684C386.704 76.12 386.704 75.94 386.704 75.76C386.704 72.48 384.844 70.3 381.684 70.3C378.824 70.3 376.604 72.58 376.604 75.82ZM378.904 74.8C379.044 73.16 380.204 72.12 381.704 72.12C383.204 72.12 384.404 73.08 384.484 74.8H378.904ZM388.311 81H390.371V79.64C390.651 80 391.711 81.26 393.731 81.26C396.711 81.26 398.831 79 398.831 75.8C398.831 72.58 396.851 70.3 393.871 70.3C391.891 70.3 390.771 71.5 390.491 71.96V66.54H388.311V81ZM390.411 75.82C390.411 73.54 391.791 72.24 393.531 72.24C395.351 72.24 396.631 73.72 396.631 75.82C396.631 77.96 395.291 79.34 393.511 79.34C391.591 79.34 390.411 77.74 390.411 75.82ZM404.729 77.78C404.729 79.88 406.469 81.26 408.669 81.26C409.969 81.26 410.809 80.82 411.349 80.22L411.529 81H413.429V74.26C413.429 71.98 412.369 70.3 409.269 70.3C407.529 70.3 406.129 70.96 405.289 71.5L406.129 73.02C406.889 72.6 407.889 72.2 409.049 72.2C410.429 72.2 411.269 72.92 411.269 74.12V75.1C410.869 74.74 409.969 74.34 408.769 74.34C406.369 74.34 404.729 75.76 404.729 77.78ZM406.909 77.72C406.909 76.68 407.789 75.92 409.109 75.92C410.429 75.92 411.329 76.62 411.329 77.72C411.329 78.8 410.409 79.52 409.129 79.52C407.809 79.52 406.909 78.76 406.909 77.72ZM415.578 84.74H417.758V79.62C418.038 80.06 419.158 81.26 421.138 81.26C424.118 81.26 426.098 79 426.098 75.76C426.098 72.58 423.978 70.3 420.998 70.3C418.978 70.3 417.918 71.56 417.638 71.94V70.56H415.578V84.74ZM417.678 75.76C417.678 73.84 418.858 72.24 420.778 72.24C422.558 72.24 423.898 73.62 423.898 75.76C423.898 77.86 422.618 79.32 420.798 79.32C419.058 79.32 417.678 78.02 417.678 75.76ZM427.779 84.74H429.959V79.62C430.239 80.06 431.359 81.26 433.339 81.26C436.319 81.26 438.299 79 438.299 75.76C438.299 72.58 436.179 70.3 433.199 70.3C431.179 70.3 430.119 71.56 429.839 71.94V70.56H427.779V84.74ZM429.879 75.76C429.879 73.84 431.059 72.24 432.979 72.24C434.759 72.24 436.099 73.62 436.099 75.76C436.099 77.86 434.819 79.32 432.999 79.32C431.259 79.32 429.879 78.02 429.879 75.76Z" fill="white"/>
<g opacity="0.298758">
<rect x="820" y="179" width="105" height="95" rx="9" fill="#3774E8"/>
<rect x="820" y="179" width="105" height="95" rx="9" fill="url(#paint23_linear)"/>
</g>
<g opacity="0.298758">
<rect x="810" y="169" width="105" height="95" rx="9" fill="#3774E8"/>
<rect x="810" y="169" width="105" height="95" rx="9" fill="url(#paint24_linear)"/>
</g>
<g filter="url(#filter14_d)">
<path fill-rule="evenodd" clip-rule="evenodd" d="M896.824 188.341C901.297 188.341 904.936 184.705 904.936 180.237V167.105C904.936 162.636 901.297 159 896.824 159H808.111C803.639 159 800 162.636 800 167.105V180.237C800 184.705 803.639 188.341 808.111 188.341H850.928V191.829H808.111C803.639 191.829 800 195.465 800 199.934V213.066C800 217.535 803.639 221.171 808.111 221.171H850.928V224.659H808.111C803.639 224.659 800 228.295 800 232.763V245.895C800 250.364 803.639 254 808.111 254H896.824C901.297 254 904.936 250.364 904.936 245.895V232.763C904.936 228.295 901.297 224.659 896.824 224.659H854.008V221.171H896.824C901.297 221.171 904.936 217.535 904.936 213.066V199.934C904.936 195.465 901.297 191.829 896.824 191.829H854.008V188.341H896.824ZM901.855 232.764V245.895C901.855 248.667 899.598 250.922 896.824 250.922H808.111C805.337 250.922 803.08 248.667 803.08 245.895V232.764C803.08 229.991 805.337 227.737 808.111 227.737H896.824C899.598 227.737 901.855 229.991 901.855 232.764ZM901.855 199.934V213.066C901.855 215.838 899.598 218.093 896.824 218.093H808.111C805.337 218.093 803.08 215.838 803.08 213.066V199.934C803.08 197.162 805.337 194.907 808.111 194.907H896.824C899.598 194.907 901.855 197.162 901.855 199.934ZM803.08 180.236V167.105C803.08 164.333 805.337 162.078 808.111 162.078H896.824C899.598 162.078 901.855 164.333 901.855 167.105V180.236C901.855 183.009 899.598 185.263 896.824 185.263H808.111C805.337 185.263 803.08 183.009 803.08 180.236Z" fill="url(#paint25_linear)"/>
</g>
<g filter="url(#filter15_d)">
<path fill-rule="evenodd" clip-rule="evenodd" d="M814.683 167.207C811.116 167.207 808.214 170.107 808.214 173.671C808.214 177.235 811.116 180.134 814.683 180.134C818.25 180.134 821.152 177.235 821.152 173.671C821.152 170.107 818.25 167.207 814.683 167.207ZM814.683 177.056C812.815 177.056 811.295 175.537 811.295 173.671C811.295 171.804 812.815 170.285 814.683 170.285C816.551 170.285 818.071 171.804 818.071 173.671C818.071 175.537 816.551 177.056 814.683 177.056Z" fill="url(#paint26_linear)"/>
</g>
<g filter="url(#filter16_d)">
<path fill-rule="evenodd" clip-rule="evenodd" d="M814.683 200.037C811.116 200.037 808.214 202.936 808.214 206.5C808.214 210.064 811.116 212.963 814.683 212.963C818.25 212.963 821.152 210.064 821.152 206.5C821.152 202.936 818.25 200.037 814.683 200.037ZM814.683 209.886C812.815 209.886 811.295 208.367 811.295 206.5C811.295 204.633 812.815 203.114 814.683 203.114C816.551 203.114 818.071 204.633 818.071 206.5C818.071 208.367 816.551 209.886 814.683 209.886Z" fill="url(#paint27_linear)"/>
</g>
<g filter="url(#filter17_d)">
<path fill-rule="evenodd" clip-rule="evenodd" d="M893.539 208.244H839.325C838.475 208.244 837.785 208.933 837.785 209.783C837.785 210.633 838.475 211.322 839.325 211.322H893.539C894.389 211.322 895.079 210.633 895.079 209.783C895.079 208.933 894.389 208.244 893.539 208.244Z" fill="url(#paint28_linear)"/>
</g>
<g filter="url(#filter18_d)">
<path fill-rule="evenodd" clip-rule="evenodd" d="M837.785 203.217C837.785 204.067 838.475 204.756 839.325 204.756H893.539C894.389 204.756 895.079 204.067 895.079 203.217C895.079 202.367 894.389 201.678 893.539 201.678H839.325C838.475 201.678 837.785 202.367 837.785 203.217Z" fill="url(#paint29_linear)"/>
</g>
<g filter="url(#filter19_d)">
<path fill-rule="evenodd" clip-rule="evenodd" d="M895.079 176.954C895.079 176.103 894.389 175.415 893.539 175.415H839.325C838.475 175.415 837.785 176.103 837.785 176.954C837.785 177.804 838.475 178.492 839.325 178.492H893.539C894.389 178.492 895.079 177.804 895.079 176.954Z" fill="url(#paint30_linear)"/>
</g>
<g filter="url(#filter20_d)">
<path fill-rule="evenodd" clip-rule="evenodd" d="M839.325 171.927H893.539C894.389 171.927 895.079 171.238 895.079 170.388C895.079 169.538 894.389 168.849 893.539 168.849H839.325C838.475 168.849 837.785 169.538 837.785 170.388C837.785 171.238 838.475 171.927 839.325 171.927Z" fill="url(#paint31_linear)"/>
</g>
<g filter="url(#filter21_d)">
<path fill-rule="evenodd" clip-rule="evenodd" d="M814.683 232.866C811.116 232.866 808.214 235.766 808.214 239.329C808.214 242.893 811.116 245.793 814.683 245.793C818.25 245.793 821.152 242.893 821.152 239.329C821.152 235.766 818.25 232.866 814.683 232.866ZM814.683 242.715C812.815 242.715 811.295 241.196 811.295 239.329C811.295 237.463 812.815 235.944 814.683 235.944C816.551 235.944 818.071 237.463 818.071 239.329C818.071 241.196 816.551 242.715 814.683 242.715Z" fill="url(#paint32_linear)"/>
</g>
<g filter="url(#filter22_d)">
<path fill-rule="evenodd" clip-rule="evenodd" d="M893.539 241.073H839.325C838.475 241.073 837.785 241.762 837.785 242.612C837.785 243.462 838.475 244.151 839.325 244.151H893.539C894.389 244.151 895.079 243.462 895.079 242.612C895.079 241.762 894.389 241.073 893.539 241.073Z" fill="url(#paint33_linear)"/>
</g>
<g filter="url(#filter23_d)">
<path fill-rule="evenodd" clip-rule="evenodd" d="M837.785 236.046C837.785 236.897 838.475 237.585 839.325 237.585H893.539C894.389 237.585 895.079 236.897 895.079 236.046C895.079 235.196 894.389 234.508 893.539 234.508H839.325C838.475 234.508 837.785 235.196 837.785 236.046Z" fill="url(#paint34_linear)"/>
</g>
<g opacity="0.298758">
<rect x="940" y="177" width="80" height="15" fill="#18DAA2"/>
<rect x="940" y="177" width="80" height="15" fill="url(#paint35_linear)"/>
</g>
<path d="M949.462 181H951.682V175.22H953.622L956.562 181H959.022L955.622 174.72C957.042 174.14 957.902 172.74 957.902 171.12C957.902 168.78 956.222 167 953.222 167H949.462V181ZM951.682 173.32V168.94H953.182C954.802 168.94 955.602 169.82 955.602 171.12C955.602 172.54 954.582 173.32 953.182 173.32H951.682ZM959.787 175.82C959.787 178.98 961.947 181.26 965.207 181.26C967.687 181.26 969.067 179.84 969.567 178.98L968.127 177.9C967.727 178.48 966.827 179.36 965.247 179.36C963.387 179.36 962.047 178.16 962.007 176.3H969.867C969.887 176.12 969.887 175.94 969.887 175.76C969.887 172.48 968.027 170.3 964.867 170.3C962.007 170.3 959.787 172.58 959.787 175.82ZM962.087 174.8C962.227 173.16 963.387 172.12 964.887 172.12C966.387 172.12 967.587 173.08 967.667 174.8H962.087ZM971.495 181H973.675V166.54H971.495V181ZM975.341 177.78C975.341 179.88 977.081 181.26 979.281 181.26C980.581 181.26 981.421 180.82 981.961 180.22L982.141 181H984.041V174.26C984.041 171.98 982.981 170.3 979.881 170.3C978.141 170.3 976.741 170.96 975.901 171.5L976.741 173.02C977.501 172.6 978.501 172.2 979.661 172.2C981.041 172.2 981.881 172.92 981.881 174.12V175.1C981.481 174.74 980.581 174.34 979.381 174.34C976.981 174.34 975.341 175.76 975.341 177.78ZM977.521 177.72C977.521 176.68 978.401 175.92 979.721 175.92C981.041 175.92 981.941 176.62 981.941 177.72C981.941 178.8 981.021 179.52 979.741 179.52C978.421 179.52 977.521 178.76 977.521 177.72ZM989.85 184.58L995.31 170.56H993.03L990.25 178.16L987.43 170.56H985.09L989.23 180.82L987.75 184.58H989.85ZM995.915 175.82C995.915 178.98 998.075 181.26 1001.34 181.26C1003.82 181.26 1005.2 179.84 1005.7 178.98L1004.26 177.9C1003.86 178.48 1002.96 179.36 1001.38 179.36C999.515 179.36 998.175 178.16 998.135 176.3H1006C1006.02 176.12 1006.02 175.94 1006.02 175.76C1006.02 172.48 1004.16 170.3 1001 170.3C998.135 170.3 995.915 172.58 995.915 175.82ZM998.215 174.8C998.355 173.16 999.515 172.12 1001.02 172.12C1002.52 172.12 1003.72 173.08 1003.8 174.8H998.215ZM1012.74 170.3C1011.26 170.3 1010.16 171.16 1009.76 172.2V170.56H1007.62V181H1009.8V176.5C1009.8 174.24 1010.46 172.5 1012.74 172.5V170.3Z" fill="white"/>
<g opacity="0.298758">
<rect x="415" y="268" width="196" height="115" rx="9" fill="#3774E8"/>
<rect x="415" y="268" width="196" height="115" rx="9" fill="url(#paint36_linear)"/>
</g>
<g opacity="0.298758">
<rect x="405" y="258" width="196" height="115" rx="9" fill="#3774E8"/>
<rect x="405" y="258" width="196" height="115" rx="9" fill="url(#paint37_linear)"/>
</g>
<g filter="url(#filter24_d)">
<path fill-rule="evenodd" clip-rule="evenodd" d="M404.667 248H581.333C586.669 248.006 590.994 252.293 591 257.583V353.417C590.994 358.707 586.669 362.994 581.333 363H404.667C399.331 362.994 395.007 358.707 395 353.417V257.583C395.007 252.293 399.331 248.006 404.667 248ZM404.667 359.167H581.333C584.536 359.167 587.133 356.592 587.133 353.417V267.167H398.867V353.417C398.867 356.592 401.464 359.167 404.667 359.167ZM587.133 263.333V257.583C587.133 254.408 584.536 251.833 581.333 251.833H404.667C401.464 251.833 398.867 254.408 398.867 257.583V263.333H587.133Z" fill="url(#paint38_linear)"/>
</g>
<g filter="url(#filter25_d)">
<path fill-rule="evenodd" clip-rule="evenodd" d="M577 256H579C580.105 256 581 256.895 581 258C581 259.104 580.105 260 579 260H577C575.895 260 575 259.105 575 258C575 256.896 575.895 256 577 256Z" fill="url(#paint39_linear)"/>
</g>
<g filter="url(#filter26_d)">
<path fill-rule="evenodd" clip-rule="evenodd" d="M569.24 256.165C569.723 255.945 570.277 255.945 570.76 256.165C571.002 256.266 571.225 256.408 571.42 256.584C572.193 257.372 572.193 258.633 571.42 259.421C571.225 259.597 571.002 259.739 570.76 259.84C570.276 260.053 569.724 260.053 569.24 259.84C568.998 259.739 568.775 259.597 568.58 259.421C567.807 258.633 567.807 257.372 568.58 256.584C568.775 256.408 568.998 256.266 569.24 256.165Z" fill="url(#paint40_linear)"/>
</g>
<g filter="url(#filter27_d)">
<path fill-rule="evenodd" clip-rule="evenodd" d="M561.233 256.152C561.984 255.842 562.848 256.015 563.42 256.59C563.596 256.784 563.738 257.006 563.84 257.248C564.053 257.731 564.053 258.281 563.84 258.764C563.738 259.005 563.596 259.228 563.42 259.422C562.631 260.193 561.369 260.193 560.581 259.422C560.404 259.228 560.262 259.005 560.161 258.764C560.049 258.527 559.994 258.267 560.001 258.006C559.996 257.196 560.483 256.463 561.233 256.152Z" fill="url(#paint41_linear)"/>
</g>
<g filter="url(#filter28_d)">
<path fill-rule="evenodd" clip-rule="evenodd" d="M406.917 256H472.083C473.142 256 474 256.895 474 258C474 259.105 473.142 260 472.083 260H406.917C405.858 260 405 259.105 405 258C405 256.895 405.858 256 406.917 256Z" fill="url(#paint42_linear)"/>
</g>
<path fill-rule="evenodd" clip-rule="evenodd" d="M519.6 297H494.4C493.627 297 493 296.328 493 295.5C493 294.672 493.627 294 494.4 294H519.6C520.373 294 521 294.672 521 295.5C521 296.328 520.373 297 519.6 297ZM494.385 300H527.615C528.38 300 529 300.672 529 301.5C529 302.328 528.38 303 527.615 303H494.385C493.62 303 493 302.328 493 301.5C493 300.672 493.62 300 494.385 300ZM500.364 316H512.636C513.389 316 514 315.328 514 314.5C514 313.672 513.389 313 512.636 313H500.364C499.611 313 499 313.672 499 314.5C499 315.328 499.611 316 500.364 316ZM493.439 313.439C493.718 313.159 494.104 313 494.5 313C494.896 313 495.282 313.159 495.561 313.439C495.841 313.718 496 314.104 496 314.5C496 314.896 495.841 315.282 495.561 315.561C495.282 315.841 494.896 316 494.5 316C494.104 316 493.718 315.841 493.439 315.561C493.159 315.282 493 314.896 493 314.5C493 314.104 493.159 313.718 493.439 313.439ZM521.611 319H499.389C498.622 319 498 319.672 498 320.5C498 321.328 498.622 322 499.389 322H521.611C522.378 322 523 321.328 523 320.5C523 319.672 522.378 319 521.611 319ZM493.439 319.439C493.718 319.159 494.104 319 494.5 319C494.896 319 495.282 319.159 495.561 319.439C495.841 319.718 496 320.104 496 320.5C496 320.896 495.841 321.282 495.561 321.561C495.282 321.841 494.896 322 494.5 322C494.104 322 493.718 321.841 493.439 321.561C493.159 321.282 493 320.896 493 320.5C493 320.104 493.159 319.718 493.439 319.439ZM517.667 325H500.333C499.597 325 499 325.672 499 326.5C499 327.328 499.597 328 500.333 328H517.667C518.403 328 519 327.328 519 326.5C519 325.672 518.403 325 517.667 325ZM493.439 325.439C493.718 325.159 494.104 325 494.5 325C494.896 325 495.282 325.159 495.561 325.439C495.841 325.718 496 326.104 496 326.5C496 326.896 495.841 327.282 495.561 327.561C495.282 327.841 494.896 328 494.5 328C494.104 328 493.718 327.841 493.439 327.561C493.159 327.282 493 326.896 493 326.5C493 326.104 493.159 325.718 493.439 325.439Z" fill="url(#paint43_linear)"/>
<g opacity="0.298758">
<rect x="302" y="261" width="78" height="15" fill="#18DAA2"/>
<rect x="302" y="261" width="78" height="15" fill="url(#paint44_linear)"/>
</g>
<path d="M308.988 265H311.208V251H308.988V265ZM323.642 250.54H321.462V255.96C321.182 255.5 320.062 254.3 318.082 254.3C315.102 254.3 313.122 256.58 313.122 259.8C313.122 263 315.242 265.26 318.222 265.26C320.242 265.26 321.302 264 321.582 263.64V265H323.642V250.54ZM321.542 259.82C321.542 261.74 320.362 263.34 318.442 263.34C316.662 263.34 315.322 261.96 315.322 259.82C315.322 257.72 316.602 256.24 318.422 256.24C320.162 256.24 321.542 257.54 321.542 259.82ZM325.323 259.82C325.323 262.98 327.483 265.26 330.743 265.26C333.223 265.26 334.603 263.84 335.103 262.98L333.663 261.9C333.263 262.48 332.363 263.36 330.783 263.36C328.923 263.36 327.583 262.16 327.543 260.3H335.403C335.423 260.12 335.423 259.94 335.423 259.76C335.423 256.48 333.563 254.3 330.403 254.3C327.543 254.3 325.323 256.58 325.323 259.82ZM327.623 258.8C327.763 257.16 328.923 256.12 330.423 256.12C331.923 256.12 333.123 257.08 333.203 258.8H327.623ZM342.111 254.3C340.711 254.3 339.631 255.1 339.171 255.92V254.56H337.031V265H339.211V258.7C339.211 257.28 340.111 256.26 341.491 256.26C342.691 256.26 343.591 257.1 343.591 258.54V265H345.751V258.72C345.751 256.44 344.811 254.3 342.111 254.3ZM348.142 254.56H346.982V256.36H348.142V260.88C348.142 263.44 348.902 265.14 351.442 265.14C352.122 265.14 352.502 265.06 352.502 265.06V263.18C352.502 263.18 352.262 263.2 352.082 263.2C350.922 263.2 350.302 262.84 350.302 261.22V256.36H352.422V254.56H350.302V252.38H348.142V254.56ZM354.108 265H356.288V254.56H354.108V265ZM353.828 251.98C353.828 252.74 354.428 253.34 355.188 253.34C355.948 253.34 356.548 252.74 356.548 251.98C356.548 251.22 355.948 250.62 355.188 250.62C354.428 250.62 353.828 251.22 353.828 251.98ZM358.774 254.56H357.614V256.36H358.774V260.88C358.774 263.44 359.534 265.14 362.074 265.14C362.754 265.14 363.134 265.06 363.134 265.06V263.18C363.134 263.18 362.894 263.2 362.714 263.2C361.554 263.2 360.934 262.84 360.934 261.22V256.36H363.054V254.56H360.934V252.38H358.774V254.56ZM369.006 268.58L374.466 254.56H372.186L369.406 262.16L366.586 254.56H364.246L368.386 264.82L366.906 268.58H369.006Z" fill="white"/>
<g opacity="0.298758">
<path fill-rule="evenodd" clip-rule="evenodd" d="M654.954 517.931C654.917 516.356 653.786 514.998 652.207 514.783C644.843 513.774 637.58 512.018 630.461 509.417C623.375 506.828 615.536 503.215 607.08 498.455C606.006 497.85 604.996 497.847 603.924 498.455C595.526 503.212 587.742 506.818 580.601 509.417C573.479 512.009 566.22 513.775 558.915 514.783C557.335 515 556.227 516.356 556.051 517.931C555.35 547.845 561.918 572.321 575.691 591.346C583.195 601.71 592.585 610.122 603.924 616.537C604.8 617.179 606.174 617.13 607.197 616.537C618.45 610.015 627.827 601.664 635.313 591.346C649.105 572.333 655.62 547.846 654.954 517.931Z" fill="#3774E8"/>
<path fill-rule="evenodd" clip-rule="evenodd" d="M654.954 517.931C654.917 516.356 653.786 514.998 652.207 514.783C644.843 513.774 637.58 512.018 630.461 509.417C623.375 506.828 615.536 503.215 607.08 498.455C606.006 497.85 604.996 497.847 603.924 498.455C595.526 503.212 587.742 506.818 580.601 509.417C573.479 512.009 566.22 513.775 558.915 514.783C557.335 515 556.227 516.356 556.051 517.931C555.35 547.845 561.918 572.321 575.691 591.346C583.195 601.71 592.585 610.122 603.924 616.537C604.8 617.179 606.174 617.13 607.197 616.537C618.45 610.015 627.827 601.664 635.313 591.346C649.105 572.333 655.62 547.846 654.954 517.931Z" fill="url(#paint45_linear)"/>
</g>
<g opacity="0.298758">
<path fill-rule="evenodd" clip-rule="evenodd" d="M644.954 507.931C644.917 506.356 643.786 504.998 642.207 504.783C634.843 503.774 627.58 502.018 620.461 499.417C613.375 496.828 605.536 493.215 597.08 488.455C596.006 487.85 594.996 487.847 593.924 488.455C585.526 493.212 577.742 496.818 570.601 499.417C563.479 502.009 556.22 503.775 548.915 504.783C547.335 505 546.227 506.356 546.051 507.931C545.35 537.845 551.918 562.321 565.691 581.346C573.195 591.71 582.585 600.122 593.924 606.537C594.8 607.179 596.174 607.13 597.197 606.537C608.45 600.015 617.827 591.664 625.313 581.346C639.105 562.333 645.62 537.846 644.954 507.931Z" fill="#3774E8"/>
<path fill-rule="evenodd" clip-rule="evenodd" d="M644.954 507.931C644.917 506.356 643.786 504.998 642.207 504.783C634.843 503.774 627.58 502.018 620.461 499.417C613.375 496.828 605.536 493.215 597.08 488.455C596.006 487.85 594.996 487.847 593.924 488.455C585.526 493.212 577.742 496.818 570.601 499.417C563.479 502.009 556.22 503.775 548.915 504.783C547.335 505 546.227 506.356 546.051 507.931C545.35 537.845 551.918 562.321 565.691 581.346C573.195 591.71 582.585 600.122 593.924 606.537C594.8 607.179 596.174 607.13 597.197 606.537C608.45 600.015 617.827 591.664 625.313 581.346C639.105 562.333 645.62 537.846 644.954 507.931Z" fill="url(#paint46_linear)"/>
</g>
<g filter="url(#filter29_d)">
<path fill-rule="evenodd" clip-rule="evenodd" d="M638.954 497.931C638.917 496.356 637.786 494.998 636.207 494.783C628.843 493.774 621.58 492.018 614.461 489.417C607.375 486.828 599.536 483.215 591.08 478.455C590.006 477.85 588.996 477.847 587.924 478.455C579.526 483.212 571.742 486.818 564.601 489.417C557.479 492.009 550.22 493.775 542.915 494.783C541.335 495 540.227 496.356 540.051 497.931C539.35 527.845 545.918 552.321 559.691 571.346C567.195 581.71 576.585 590.122 587.924 596.537C588.8 597.179 590.174 597.13 591.197 596.537C602.45 590.015 611.827 581.664 619.313 571.346C633.105 552.333 639.62 527.846 638.954 497.931ZM614.052 567.673C607.545 576.64 599.381 584.116 589.502 590.122C579.623 584.116 571.421 576.667 564.952 567.673C552.422 550.25 546.306 527.962 546.539 500.789C553.436 499.68 560.276 497.814 567.115 495.306C573.953 492.8 581.435 489.359 589.502 484.986C597.569 489.359 604.992 492.8 611.831 495.306C618.67 497.814 625.567 499.68 632.465 500.789C632.699 528.137 626.543 550.457 614.052 567.673Z" fill="url(#paint47_linear)"/>
</g>
<path opacity="0.3" fill-rule="evenodd" clip-rule="evenodd" d="M589.5 553C601.926 553 612 542.926 612 530.5C612 518.074 601.926 508 589.5 508C577.074 508 567 518.074 567 530.5C567 542.926 577.074 553 589.5 553Z" fill="url(#paint48_linear)"/>
<g filter="url(#filter30_d)">
<path fill-rule="evenodd" clip-rule="evenodd" d="M596.492 524.508C594.482 522.497 591.21 522.497 589.2 524.508C587.827 525.881 587.35 527.905 587.944 529.741L582.137 535.548C582.049 535.636 582 535.755 582 535.879V538.531C582 538.79 582.21 539 582.469 539H585.121C585.245 539 585.364 538.951 585.452 538.863L586.115 538.199C586.216 538.098 586.265 537.956 586.249 537.814L586.167 537.102L587.153 537.009C587.378 536.988 587.555 536.81 587.576 536.586L587.669 535.599L588.381 535.682C588.514 535.7 588.647 535.656 588.747 535.567C588.847 535.477 588.904 535.35 588.904 535.217V534.344H589.761C589.885 534.344 590.004 534.294 590.092 534.206L591.294 533.02C593.13 533.615 595.119 533.174 596.492 531.8C598.503 529.79 598.503 526.518 596.492 524.508ZM595.166 527.823C594.618 528.371 593.726 528.371 593.177 527.823C592.629 527.274 592.629 526.382 593.177 525.834C593.726 525.286 594.618 525.286 595.166 525.834C595.714 526.382 595.714 527.274 595.166 527.823Z" fill="#18DAA2"/>
</g>
<g opacity="0.298758">
<rect x="558" y="643" width="80" height="15" fill="#18DAA2"/>
<rect x="558" y="643" width="80" height="15" fill="url(#paint49_linear)"/>
</g>
<path d="M574.519 633H566.459V634.96H572.019L568.699 638.8V640.54H570.279C571.939 640.54 572.799 641.44 572.799 642.84C572.799 644.24 571.799 645.22 570.419 645.22C568.959 645.22 568.179 644.38 567.859 643.38L565.959 644C566.339 645.44 567.559 647.26 570.459 647.26C573.099 647.26 575.059 645.38 575.059 642.78C575.059 639.88 573.099 638.66 571.239 638.66L574.519 635V633ZM582.08 636.3C580.6 636.3 579.5 637.16 579.1 638.2V636.56H576.96V647H579.14V642.5C579.14 640.24 579.8 638.5 582.08 638.5V636.3ZM593.435 632.54H591.255V637.96C590.975 637.5 589.855 636.3 587.875 636.3C584.895 636.3 582.915 638.58 582.915 641.8C582.915 645 585.035 647.26 588.015 647.26C590.035 647.26 591.095 646 591.375 645.64V647H593.435V632.54ZM591.335 641.82C591.335 643.74 590.155 645.34 588.235 645.34C586.455 645.34 585.115 643.96 585.115 641.82C585.115 639.72 586.395 638.24 588.215 638.24C589.955 638.24 591.335 639.54 591.335 641.82ZM600.613 647H602.793V641.52L606.833 647H609.413L604.953 641.28L609.133 636.56H606.653L602.793 641.02V632.54H600.613V647ZM609.948 641.82C609.948 644.98 612.108 647.26 615.368 647.26C617.848 647.26 619.228 645.84 619.728 644.98L618.288 643.9C617.888 644.48 616.988 645.36 615.408 645.36C613.548 645.36 612.208 644.16 612.168 642.3H620.028C620.048 642.12 620.048 641.94 620.048 641.76C620.048 638.48 618.188 636.3 615.028 636.3C612.168 636.3 609.948 638.58 609.948 641.82ZM612.248 640.8C612.388 639.16 613.548 638.12 615.048 638.12C616.548 638.12 617.748 639.08 617.828 640.8H612.248ZM625.316 650.58L630.776 636.56H628.496L625.716 644.16L622.896 636.56H620.556L624.696 646.82L623.216 650.58H625.316Z" fill="white"/>
<g opacity="0.298758">
<rect x="803" y="430" width="82" height="69" rx="9" fill="#3774E8"/>
<rect x="803" y="430" width="82" height="69" rx="9" fill="url(#paint50_linear)"/>
</g>
<g opacity="0.298758">
<rect x="793" y="420" width="82" height="69" rx="9" fill="#3774E8"/>
<rect x="793" y="420" width="82" height="69" rx="9" fill="url(#paint51_linear)"/>
</g>
<g filter="url(#filter31_d)">
<path fill-rule="evenodd" clip-rule="evenodd" d="M865 434.131H861.026V415.591C861.026 411.147 857.46 407.531 853.078 407.531H847.695L842.187 397.488C841.347 395.953 839.75 395 838.017 395C837.209 395 836.408 395.211 835.701 395.609L814.561 407.531H790.948C786.566 407.531 783 411.147 783 415.591V470.94C783 475.384 786.566 479 790.948 479H853.078C857.46 479 861.026 475.384 861.026 470.94V454.685H865V434.131ZM853.078 410.755C855.526 410.755 857.525 412.641 857.794 415.054H851.82L849.464 410.755H853.078ZM837.247 398.427C837.993 398.003 838.996 398.3 839.408 399.053L848.183 415.053H807.764L837.247 398.427ZM857.846 470.94C857.846 473.606 855.707 475.776 853.077 475.776H790.948C788.319 475.776 786.179 473.606 786.179 470.94V415.591C786.179 412.925 788.319 410.755 790.948 410.755H808.845L801.221 415.055H791.942C791.063 415.055 790.352 415.777 790.352 416.667C790.352 417.557 791.063 418.279 791.942 418.279H795.503H853.588H857.846V434.132H846.221C840.823 434.132 836.429 438.588 836.429 444.063V444.756C836.429 450.231 840.823 454.686 846.221 454.686H857.846V470.94ZM861.821 451.461H861.026H846.221C842.575 451.461 839.608 448.453 839.608 444.754V444.061C839.608 440.363 842.574 437.354 846.221 437.354H861.026H861.821V451.461ZM851.09 444.54C851.09 446.507 849.52 448.099 847.58 448.099C845.641 448.099 844.071 446.507 844.071 444.54C844.071 442.573 845.641 440.981 847.58 440.981C849.52 440.98 851.09 442.575 851.09 444.54Z" fill="url(#paint52_linear)"/>
</g>
<g opacity="0.298758">
<rect x="797" y="525" width="80" height="15" fill="#18DAA2"/>
<rect x="797" y="525" width="80" height="15" fill="url(#paint53_linear)"/>
</g>
<path d="M821.885 529H824.385L828.245 515H825.885L823.025 526.24L819.905 515H817.805L814.705 526.24L811.845 515H809.465L813.345 529H815.845L818.865 518.32L821.885 529ZM828.901 525.78C828.901 527.88 830.641 529.26 832.841 529.26C834.141 529.26 834.981 528.82 835.521 528.22L835.701 529H837.601V522.26C837.601 519.98 836.541 518.3 833.441 518.3C831.701 518.3 830.301 518.96 829.461 519.5L830.301 521.02C831.061 520.6 832.061 520.2 833.221 520.2C834.601 520.2 835.441 520.92 835.441 522.12V523.1C835.041 522.74 834.141 522.34 832.941 522.34C830.541 522.34 828.901 523.76 828.901 525.78ZM831.081 525.72C831.081 524.68 831.961 523.92 833.281 523.92C834.601 523.92 835.501 524.62 835.501 525.72C835.501 526.8 834.581 527.52 833.301 527.52C831.981 527.52 831.081 526.76 831.081 525.72ZM839.75 529H841.93V514.54H839.75V529ZM844.236 529H846.416V514.54H844.236V529ZM848.102 523.82C848.102 526.98 850.262 529.26 853.522 529.26C856.002 529.26 857.382 527.84 857.882 526.98L856.442 525.9C856.042 526.48 855.142 527.36 853.562 527.36C851.702 527.36 850.362 526.16 850.322 524.3H858.182C858.202 524.12 858.202 523.94 858.202 523.76C858.202 520.48 856.342 518.3 853.182 518.3C850.322 518.3 848.102 520.58 848.102 523.82ZM850.402 522.8C850.542 521.16 851.702 520.12 853.202 520.12C854.702 520.12 855.902 521.08 855.982 522.8H850.402ZM859.989 518.56H858.829V520.36H859.989V524.88C859.989 527.44 860.749 529.14 863.289 529.14C863.969 529.14 864.349 529.06 864.349 529.06V527.18C864.349 527.18 864.109 527.2 863.929 527.2C862.769 527.2 862.149 526.84 862.149 525.22V520.36H864.269V518.56H862.149V516.38H859.989V518.56Z" fill="white"/>
<defs>
<filter id="filter0_d" x="125.562" y="212.289" width="286.438" height="120.531" filterUnits="userSpaceOnUse" color-interpolation-filters="sRGB">
<feFlood flood-opacity="0" result="BackgroundImageFix"/>
<feColorMatrix in="SourceAlpha" type="matrix" values="0 0 0 0 0 0 0 0 0 0 0 0 0 0 0 0 0 0 127 0"/>
<feOffset dy="1"/>
<feGaussianBlur stdDeviation="9"/>
<feColorMatrix type="matrix" values="0 0 0 0 0.364706 0 0 0 0 0.956863 0 0 0 0 0.827451 0 0 0 1 0"/>
<feBlend mode="normal" in2="BackgroundImageFix" result="effect1_dropShadow"/>
<feBlend mode="normal" in="SourceGraphic" in2="effect1_dropShadow" result="shape"/>
</filter>
<filter id="filter1_d" x="205" y="345" width="286.438" height="152.918" filterUnits="userSpaceOnUse" color-interpolation-filters="sRGB">
<feFlood flood-opacity="0" result="BackgroundImageFix"/>
<feColorMatrix in="SourceAlpha" type="matrix" values="0 0 0 0 0 0 0 0 0 0 0 0 0 0 0 0 0 0 127 0"/>
<feOffset dy="1"/>
<feGaussianBlur stdDeviation="9"/>
<feColorMatrix type="matrix" values="0 0 0 0 0.364706 0 0 0 0 0.956863 0 0 0 0 0.827451 0 0 0 1 0"/>
<feBlend mode="normal" in2="BackgroundImageFix" result="effect1_dropShadow"/>
<feBlend mode="normal" in="SourceGraphic" in2="effect1_dropShadow" result="shape"/>
</filter>
<filter id="filter2_d" x="484.5" y="345" width="76.4375" height="182.918" filterUnits="userSpaceOnUse" color-interpolation-filters="sRGB">
<feFlood flood-opacity="0" result="BackgroundImageFix"/>
<feColorMatrix in="SourceAlpha" type="matrix" values="0 0 0 0 0 0 0 0 0 0 0 0 0 0 0 0 0 0 127 0"/>
<feOffset dy="1"/>
<feGaussianBlur stdDeviation="9"/>
<feColorMatrix type="matrix" values="0 0 0 0 0.364706 0 0 0 0 0.956863 0 0 0 0 0.827451 0 0 0 1 0"/>
<feBlend mode="normal" in2="BackgroundImageFix" result="effect1_dropShadow"/>
<feBlend mode="normal" in="SourceGraphic" in2="effect1_dropShadow" result="shape"/>
</filter>
<filter id="filter3_d" x="558.5" y="342" width="242.879" height="112.918" filterUnits="userSpaceOnUse" color-interpolation-filters="sRGB">
<feFlood flood-opacity="0" result="BackgroundImageFix"/>
<feColorMatrix in="SourceAlpha" type="matrix" values="0 0 0 0 0 0 0 0 0 0 0 0 0 0 0 0 0 0 127 0"/>
<feOffset dy="1"/>
<feGaussianBlur stdDeviation="9"/>
<feColorMatrix type="matrix" values="0 0 0 0 0.364706 0 0 0 0 0.956863 0 0 0 0 0.827451 0 0 0 1 0"/>
<feBlend mode="normal" in2="BackgroundImageFix" result="effect1_dropShadow"/>
<feBlend mode="normal" in="SourceGraphic" in2="effect1_dropShadow" result="shape"/>
</filter>
<filter id="filter4_d" x="558" y="74.5" width="313.879" height="105.918" filterUnits="userSpaceOnUse" color-interpolation-filters="sRGB">
<feFlood flood-opacity="0" result="BackgroundImageFix"/>
<feColorMatrix in="SourceAlpha" type="matrix" values="0 0 0 0 0 0 0 0 0 0 0 0 0 0 0 0 0 0 127 0"/>
<feOffset dy="1"/>
<feGaussianBlur stdDeviation="9"/>
<feColorMatrix type="matrix" values="0 0 0 0 0.364706 0 0 0 0 0.956863 0 0 0 0 0.827451 0 0 0 1 0"/>
<feBlend mode="normal" in2="BackgroundImageFix" result="effect1_dropShadow"/>
<feBlend mode="normal" in="SourceGraphic" in2="effect1_dropShadow" result="shape"/>
</filter>
<filter id="filter5_d" x="572" y="236" width="299.879" height="105.918" filterUnits="userSpaceOnUse" color-interpolation-filters="sRGB">
<feFlood flood-opacity="0" result="BackgroundImageFix"/>
<feColorMatrix in="SourceAlpha" type="matrix" values="0 0 0 0 0 0 0 0 0 0 0 0 0 0 0 0 0 0 127 0"/>
<feOffset dy="1"/>
<feGaussianBlur stdDeviation="9"/>
<feColorMatrix type="matrix" values="0 0 0 0 0.364706 0 0 0 0 0.956863 0 0 0 0 0.827451 0 0 0 1 0"/>
<feBlend mode="normal" in2="BackgroundImageFix" result="effect1_dropShadow"/>
<feBlend mode="normal" in="SourceGraphic" in2="effect1_dropShadow" result="shape"/>
</filter>
<filter id="filter6_d" x="533.252" y="140.688" width="37" height="128.214" filterUnits="userSpaceOnUse" color-interpolation-filters="sRGB">
<feFlood flood-opacity="0" result="BackgroundImageFix"/>
<feColorMatrix in="SourceAlpha" type="matrix" values="0 0 0 0 0 0 0 0 0 0 0 0 0 0 0 0 0 0 127 0"/>
<feOffset dy="1"/>
<feGaussianBlur stdDeviation="9"/>
<feColorMatrix type="matrix" values="0 0 0 0 0.364706 0 0 0 0 0.956863 0 0 0 0 0.827451 0 0 0 1 0"/>
<feBlend mode="normal" in2="BackgroundImageFix" result="effect1_dropShadow"/>
<feBlend mode="normal" in="SourceGraphic" in2="effect1_dropShadow" result="shape"/>
</filter>
<filter id="filter7_d" x="3" y="389" width="281" height="211" filterUnits="userSpaceOnUse" color-interpolation-filters="sRGB">
<feFlood flood-opacity="0" result="BackgroundImageFix"/>
<feColorMatrix in="SourceAlpha" type="matrix" values="0 0 0 0 0 0 0 0 0 0 0 0 0 0 0 0 0 0 127 0"/>
<feOffset dy="6"/>
<feGaussianBlur stdDeviation="25"/>
<feColorMatrix type="matrix" values="0 0 0 0 0.121569 0 0 0 0 0.360784 0 0 0 0 0.898039 0 0 0 1 0"/>
<feBlend mode="normal" in2="BackgroundImageFix" result="effect1_dropShadow"/>
<feBlend mode="normal" in="SourceGraphic" in2="effect1_dropShadow" result="shape"/>
</filter>
<filter id="filter8_d" x="45" y="75" width="167" height="215" filterUnits="userSpaceOnUse" color-interpolation-filters="sRGB">
<feFlood flood-opacity="0" result="BackgroundImageFix"/>
<feColorMatrix in="SourceAlpha" type="matrix" values="0 0 0 0 0 0 0 0 0 0 0 0 0 0 0 0 0 0 127 0"/>
<feOffset dy="6"/>
<feGaussianBlur stdDeviation="25"/>
<feColorMatrix type="matrix" values="0 0 0 0 0.121569 0 0 0 0 0.360784 0 0 0 0 0.898039 0 0 0 1 0"/>
<feBlend mode="normal" in2="BackgroundImageFix" result="effect1_dropShadow"/>
<feBlend mode="normal" in="SourceGraphic" in2="effect1_dropShadow" result="shape"/>
</filter>
<filter id="filter9_d" x="411" y="0" width="216" height="215" filterUnits="userSpaceOnUse" color-interpolation-filters="sRGB">
<feFlood flood-opacity="0" result="BackgroundImageFix"/>
<feColorMatrix in="SourceAlpha" type="matrix" values="0 0 0 0 0 0 0 0 0 0 0 0 0 0 0 0 0 0 127 0"/>
<feOffset dy="6"/>
<feGaussianBlur stdDeviation="25"/>
<feColorMatrix type="matrix" values="0 0 0 0 0.121569 0 0 0 0 0.360784 0 0 0 0 0.898039 0 0 0 1 0"/>
<feBlend mode="normal" in2="BackgroundImageFix" result="effect1_dropShadow"/>
<feBlend mode="normal" in="SourceGraphic" in2="effect1_dropShadow" result="shape"/>
</filter>
<filter id="filter10_d" x="511" y="8" width="106" height="104" filterUnits="userSpaceOnUse" color-interpolation-filters="sRGB">
<feFlood flood-opacity="0" result="BackgroundImageFix"/>
<feColorMatrix in="SourceAlpha" type="matrix" values="0 0 0 0 0 0 0 0 0 0 0 0 0 0 0 0 0 0 127 0"/>
<feOffset dy="6"/>
<feGaussianBlur stdDeviation="25"/>
<feColorMatrix type="matrix" values="0 0 0 0 0.121569 0 0 0 0 0.360784 0 0 0 0 0.898039 0 0 0 1 0"/>
<feBlend mode="normal" in2="BackgroundImageFix" result="effect1_dropShadow"/>
<feBlend mode="normal" in="SourceGraphic" in2="effect1_dropShadow" result="shape"/>
</filter>
<filter id="filter11_d" x="504" y="8" width="104" height="104" filterUnits="userSpaceOnUse" color-interpolation-filters="sRGB">
<feFlood flood-opacity="0" result="BackgroundImageFix"/>
<feColorMatrix in="SourceAlpha" type="matrix" values="0 0 0 0 0 0 0 0 0 0 0 0 0 0 0 0 0 0 127 0"/>
<feOffset dy="6"/>
<feGaussianBlur stdDeviation="25"/>
<feColorMatrix type="matrix" values="0 0 0 0 0.121569 0 0 0 0 0.360784 0 0 0 0 0.898039 0 0 0 1 0"/>
<feBlend mode="normal" in2="BackgroundImageFix" result="effect1_dropShadow"/>
<feBlend mode="normal" in="SourceGraphic" in2="effect1_dropShadow" result="shape"/>
</filter>
<filter id="filter12_d" x="496" y="8" width="104" height="104" filterUnits="userSpaceOnUse" color-interpolation-filters="sRGB">
<feFlood flood-opacity="0" result="BackgroundImageFix"/>
<feColorMatrix in="SourceAlpha" type="matrix" values="0 0 0 0 0 0 0 0 0 0 0 0 0 0 0 0 0 0 127 0"/>
<feOffset dy="6"/>
<feGaussianBlur stdDeviation="25"/>
<feColorMatrix type="matrix" values="0 0 0 0 0.121569 0 0 0 0 0.360784 0 0 0 0 0.898039 0 0 0 1 0"/>
<feBlend mode="normal" in2="BackgroundImageFix" result="effect1_dropShadow"/>
<feBlend mode="normal" in="SourceGraphic" in2="effect1_dropShadow" result="shape"/>
</filter>
<filter id="filter13_d" x="421" y="8" width="169" height="104" filterUnits="userSpaceOnUse" color-interpolation-filters="sRGB">
<feFlood flood-opacity="0" result="BackgroundImageFix"/>
<feColorMatrix in="SourceAlpha" type="matrix" values="0 0 0 0 0 0 0 0 0 0 0 0 0 0 0 0 0 0 127 0"/>
<feOffset dy="6"/>
<feGaussianBlur stdDeviation="25"/>
<feColorMatrix type="matrix" values="0 0 0 0 0.121569 0 0 0 0 0.360784 0 0 0 0 0.898039 0 0 0 1 0"/>
<feBlend mode="normal" in2="BackgroundImageFix" result="effect1_dropShadow"/>
<feBlend mode="normal" in="SourceGraphic" in2="effect1_dropShadow" result="shape"/>
</filter>
<filter id="filter14_d" x="750" y="115" width="204.936" height="195" filterUnits="userSpaceOnUse" color-interpolation-filters="sRGB">
<feFlood flood-opacity="0" result="BackgroundImageFix"/>
<feColorMatrix in="SourceAlpha" type="matrix" values="0 0 0 0 0 0 0 0 0 0 0 0 0 0 0 0 0 0 127 0"/>
<feOffset dy="6"/>
<feGaussianBlur stdDeviation="25"/>
<feColorMatrix type="matrix" values="0 0 0 0 0.121569 0 0 0 0 0.360784 0 0 0 0 0.898039 0 0 0 1 0"/>
<feBlend mode="normal" in2="BackgroundImageFix" result="effect1_dropShadow"/>
<feBlend mode="normal" in="SourceGraphic" in2="effect1_dropShadow" result="shape"/>
</filter>
<filter id="filter15_d" x="758.214" y="123.207" width="112.937" height="112.927" filterUnits="userSpaceOnUse" color-interpolation-filters="sRGB">
<feFlood flood-opacity="0" result="BackgroundImageFix"/>
<feColorMatrix in="SourceAlpha" type="matrix" values="0 0 0 0 0 0 0 0 0 0 0 0 0 0 0 0 0 0 127 0"/>
<feOffset dy="6"/>
<feGaussianBlur stdDeviation="25"/>
<feColorMatrix type="matrix" values="0 0 0 0 0.121569 0 0 0 0 0.360784 0 0 0 0 0.898039 0 0 0 1 0"/>
<feBlend mode="normal" in2="BackgroundImageFix" result="effect1_dropShadow"/>
<feBlend mode="normal" in="SourceGraphic" in2="effect1_dropShadow" result="shape"/>
</filter>
<filter id="filter16_d" x="758.214" y="156.037" width="112.937" height="112.927" filterUnits="userSpaceOnUse" color-interpolation-filters="sRGB">
<feFlood flood-opacity="0" result="BackgroundImageFix"/>
<feColorMatrix in="SourceAlpha" type="matrix" values="0 0 0 0 0 0 0 0 0 0 0 0 0 0 0 0 0 0 127 0"/>
<feOffset dy="6"/>
<feGaussianBlur stdDeviation="25"/>
<feColorMatrix type="matrix" values="0 0 0 0 0.121569 0 0 0 0 0.360784 0 0 0 0 0.898039 0 0 0 1 0"/>
<feBlend mode="normal" in2="BackgroundImageFix" result="effect1_dropShadow"/>
<feBlend mode="normal" in="SourceGraphic" in2="effect1_dropShadow" result="shape"/>
</filter>
<filter id="filter17_d" x="787.785" y="164.244" width="157.294" height="103.078" filterUnits="userSpaceOnUse" color-interpolation-filters="sRGB">
<feFlood flood-opacity="0" result="BackgroundImageFix"/>
<feColorMatrix in="SourceAlpha" type="matrix" values="0 0 0 0 0 0 0 0 0 0 0 0 0 0 0 0 0 0 127 0"/>
<feOffset dy="6"/>
<feGaussianBlur stdDeviation="25"/>
<feColorMatrix type="matrix" values="0 0 0 0 0.121569 0 0 0 0 0.360784 0 0 0 0 0.898039 0 0 0 1 0"/>
<feBlend mode="normal" in2="BackgroundImageFix" result="effect1_dropShadow"/>
<feBlend mode="normal" in="SourceGraphic" in2="effect1_dropShadow" result="shape"/>
</filter>
<filter id="filter18_d" x="787.785" y="157.678" width="157.294" height="103.078" filterUnits="userSpaceOnUse" color-interpolation-filters="sRGB">
<feFlood flood-opacity="0" result="BackgroundImageFix"/>
<feColorMatrix in="SourceAlpha" type="matrix" values="0 0 0 0 0 0 0 0 0 0 0 0 0 0 0 0 0 0 127 0"/>
<feOffset dy="6"/>
<feGaussianBlur stdDeviation="25"/>
<feColorMatrix type="matrix" values="0 0 0 0 0.121569 0 0 0 0 0.360784 0 0 0 0 0.898039 0 0 0 1 0"/>
<feBlend mode="normal" in2="BackgroundImageFix" result="effect1_dropShadow"/>
<feBlend mode="normal" in="SourceGraphic" in2="effect1_dropShadow" result="shape"/>
</filter>
<filter id="filter19_d" x="787.785" y="131.415" width="157.294" height="103.078" filterUnits="userSpaceOnUse" color-interpolation-filters="sRGB">
<feFlood flood-opacity="0" result="BackgroundImageFix"/>
<feColorMatrix in="SourceAlpha" type="matrix" values="0 0 0 0 0 0 0 0 0 0 0 0 0 0 0 0 0 0 127 0"/>
<feOffset dy="6"/>
<feGaussianBlur stdDeviation="25"/>
<feColorMatrix type="matrix" values="0 0 0 0 0.121569 0 0 0 0 0.360784 0 0 0 0 0.898039 0 0 0 1 0"/>
<feBlend mode="normal" in2="BackgroundImageFix" result="effect1_dropShadow"/>
<feBlend mode="normal" in="SourceGraphic" in2="effect1_dropShadow" result="shape"/>
</filter>
<filter id="filter20_d" x="787.785" y="124.849" width="157.294" height="103.078" filterUnits="userSpaceOnUse" color-interpolation-filters="sRGB">
<feFlood flood-opacity="0" result="BackgroundImageFix"/>
<feColorMatrix in="SourceAlpha" type="matrix" values="0 0 0 0 0 0 0 0 0 0 0 0 0 0 0 0 0 0 127 0"/>
<feOffset dy="6"/>
<feGaussianBlur stdDeviation="25"/>
<feColorMatrix type="matrix" values="0 0 0 0 0.121569 0 0 0 0 0.360784 0 0 0 0 0.898039 0 0 0 1 0"/>
<feBlend mode="normal" in2="BackgroundImageFix" result="effect1_dropShadow"/>
<feBlend mode="normal" in="SourceGraphic" in2="effect1_dropShadow" result="shape"/>
</filter>
<filter id="filter21_d" x="758.214" y="188.866" width="112.937" height="112.927" filterUnits="userSpaceOnUse" color-interpolation-filters="sRGB">
<feFlood flood-opacity="0" result="BackgroundImageFix"/>
<feColorMatrix in="SourceAlpha" type="matrix" values="0 0 0 0 0 0 0 0 0 0 0 0 0 0 0 0 0 0 127 0"/>
<feOffset dy="6"/>
<feGaussianBlur stdDeviation="25"/>
<feColorMatrix type="matrix" values="0 0 0 0 0.121569 0 0 0 0 0.360784 0 0 0 0 0.898039 0 0 0 1 0"/>
<feBlend mode="normal" in2="BackgroundImageFix" result="effect1_dropShadow"/>
<feBlend mode="normal" in="SourceGraphic" in2="effect1_dropShadow" result="shape"/>
</filter>
<filter id="filter22_d" x="787.785" y="197.073" width="157.294" height="103.078" filterUnits="userSpaceOnUse" color-interpolation-filters="sRGB">
<feFlood flood-opacity="0" result="BackgroundImageFix"/>
<feColorMatrix in="SourceAlpha" type="matrix" values="0 0 0 0 0 0 0 0 0 0 0 0 0 0 0 0 0 0 127 0"/>
<feOffset dy="6"/>
<feGaussianBlur stdDeviation="25"/>
<feColorMatrix type="matrix" values="0 0 0 0 0.121569 0 0 0 0 0.360784 0 0 0 0 0.898039 0 0 0 1 0"/>
<feBlend mode="normal" in2="BackgroundImageFix" result="effect1_dropShadow"/>
<feBlend mode="normal" in="SourceGraphic" in2="effect1_dropShadow" result="shape"/>
</filter>
<filter id="filter23_d" x="787.785" y="190.508" width="157.294" height="103.078" filterUnits="userSpaceOnUse" color-interpolation-filters="sRGB">
<feFlood flood-opacity="0" result="BackgroundImageFix"/>
<feColorMatrix in="SourceAlpha" type="matrix" values="0 0 0 0 0 0 0 0 0 0 0 0 0 0 0 0 0 0 127 0"/>
<feOffset dy="6"/>
<feGaussianBlur stdDeviation="25"/>
<feColorMatrix type="matrix" values="0 0 0 0 0.121569 0 0 0 0 0.360784 0 0 0 0 0.898039 0 0 0 1 0"/>
<feBlend mode="normal" in2="BackgroundImageFix" result="effect1_dropShadow"/>
<feBlend mode="normal" in="SourceGraphic" in2="effect1_dropShadow" result="shape"/>
</filter>
<filter id="filter24_d" x="345" y="204" width="296" height="215" filterUnits="userSpaceOnUse" color-interpolation-filters="sRGB">
<feFlood flood-opacity="0" result="BackgroundImageFix"/>
<feColorMatrix in="SourceAlpha" type="matrix" values="0 0 0 0 0 0 0 0 0 0 0 0 0 0 0 0 0 0 127 0"/>
<feOffset dy="6"/>
<feGaussianBlur stdDeviation="25"/>
<feColorMatrix type="matrix" values="0 0 0 0 0.121569 0 0 0 0 0.360784 0 0 0 0 0.898039 0 0 0 1 0"/>
<feBlend mode="normal" in2="BackgroundImageFix" result="effect1_dropShadow"/>
<feBlend mode="normal" in="SourceGraphic" in2="effect1_dropShadow" result="shape"/>
</filter>
<filter id="filter25_d" x="525" y="212" width="106" height="104" filterUnits="userSpaceOnUse" color-interpolation-filters="sRGB">
<feFlood flood-opacity="0" result="BackgroundImageFix"/>
<feColorMatrix in="SourceAlpha" type="matrix" values="0 0 0 0 0 0 0 0 0 0 0 0 0 0 0 0 0 0 127 0"/>
<feOffset dy="6"/>
<feGaussianBlur stdDeviation="25"/>
<feColorMatrix type="matrix" values="0 0 0 0 0.121569 0 0 0 0 0.360784 0 0 0 0 0.898039 0 0 0 1 0"/>
<feBlend mode="normal" in2="BackgroundImageFix" result="effect1_dropShadow"/>
<feBlend mode="normal" in="SourceGraphic" in2="effect1_dropShadow" result="shape"/>
</filter>
<filter id="filter26_d" x="518" y="212" width="104" height="104" filterUnits="userSpaceOnUse" color-interpolation-filters="sRGB">
<feFlood flood-opacity="0" result="BackgroundImageFix"/>
<feColorMatrix in="SourceAlpha" type="matrix" values="0 0 0 0 0 0 0 0 0 0 0 0 0 0 0 0 0 0 127 0"/>
<feOffset dy="6"/>
<feGaussianBlur stdDeviation="25"/>
<feColorMatrix type="matrix" values="0 0 0 0 0.121569 0 0 0 0 0.360784 0 0 0 0 0.898039 0 0 0 1 0"/>
<feBlend mode="normal" in2="BackgroundImageFix" result="effect1_dropShadow"/>
<feBlend mode="normal" in="SourceGraphic" in2="effect1_dropShadow" result="shape"/>
</filter>
<filter id="filter27_d" x="510" y="212" width="104" height="104" filterUnits="userSpaceOnUse" color-interpolation-filters="sRGB">
<feFlood flood-opacity="0" result="BackgroundImageFix"/>
<feColorMatrix in="SourceAlpha" type="matrix" values="0 0 0 0 0 0 0 0 0 0 0 0 0 0 0 0 0 0 127 0"/>
<feOffset dy="6"/>
<feGaussianBlur stdDeviation="25"/>
<feColorMatrix type="matrix" values="0 0 0 0 0.121569 0 0 0 0 0.360784 0 0 0 0 0.898039 0 0 0 1 0"/>
<feBlend mode="normal" in2="BackgroundImageFix" result="effect1_dropShadow"/>
<feBlend mode="normal" in="SourceGraphic" in2="effect1_dropShadow" result="shape"/>
</filter>
<filter id="filter28_d" x="355" y="212" width="169" height="104" filterUnits="userSpaceOnUse" color-interpolation-filters="sRGB">
<feFlood flood-opacity="0" result="BackgroundImageFix"/>
<feColorMatrix in="SourceAlpha" type="matrix" values="0 0 0 0 0 0 0 0 0 0 0 0 0 0 0 0 0 0 127 0"/>
<feOffset dy="6"/>
<feGaussianBlur stdDeviation="25"/>
<feColorMatrix type="matrix" values="0 0 0 0 0.121569 0 0 0 0 0.360784 0 0 0 0 0.898039 0 0 0 1 0"/>
<feBlend mode="normal" in2="BackgroundImageFix" result="effect1_dropShadow"/>
<feBlend mode="normal" in="SourceGraphic" in2="effect1_dropShadow" result="shape"/>
</filter>
<filter id="filter29_d" x="490" y="434" width="199" height="219" filterUnits="userSpaceOnUse" color-interpolation-filters="sRGB">
<feFlood flood-opacity="0" result="BackgroundImageFix"/>
<feColorMatrix in="SourceAlpha" type="matrix" values="0 0 0 0 0 0 0 0 0 0 0 0 0 0 0 0 0 0 127 0"/>
<feOffset dy="6"/>
<feGaussianBlur stdDeviation="25"/>
<feColorMatrix type="matrix" values="0 0 0 0 0.121569 0 0 0 0 0.360784 0 0 0 0 0.898039 0 0 0 1 0"/>
<feBlend mode="normal" in2="BackgroundImageFix" result="effect1_dropShadow"/>
<feBlend mode="normal" in="SourceGraphic" in2="effect1_dropShadow" result="shape"/>
</filter>
<filter id="filter30_d" x="532" y="479" width="116" height="116" filterUnits="userSpaceOnUse" color-interpolation-filters="sRGB">
<feFlood flood-opacity="0" result="BackgroundImageFix"/>
<feColorMatrix in="SourceAlpha" type="matrix" values="0 0 0 0 0 0 0 0 0 0 0 0 0 0 0 0 0 0 127 0"/>
<feOffset dy="6"/>
<feGaussianBlur stdDeviation="25"/>
<feColorMatrix type="matrix" values="0 0 0 0 0.0941176 0 0 0 0 0.854902 0 0 0 0 0.635294 0 0 0 1 0"/>
<feBlend mode="normal" in2="BackgroundImageFix" result="effect1_dropShadow"/>
<feBlend mode="normal" in="SourceGraphic" in2="effect1_dropShadow" result="shape"/>
</filter>
<filter id="filter31_d" x="733" y="351" width="182" height="184" filterUnits="userSpaceOnUse" color-interpolation-filters="sRGB">
<feFlood flood-opacity="0" result="BackgroundImageFix"/>
<feColorMatrix in="SourceAlpha" type="matrix" values="0 0 0 0 0 0 0 0 0 0 0 0 0 0 0 0 0 0 127 0"/>
<feOffset dy="6"/>
<feGaussianBlur stdDeviation="25"/>
<feColorMatrix type="matrix" values="0 0 0 0 0.121569 0 0 0 0 0.360784 0 0 0 0 0.898039 0 0 0 1 0"/>
<feBlend mode="normal" in2="BackgroundImageFix" result="effect1_dropShadow"/>
<feBlend mode="normal" in="SourceGraphic" in2="effect1_dropShadow" result="shape"/>
</filter>
<linearGradient id="paint0_linear" x1="615.774" y1="408.8" x2="615.774" y2="421" gradientUnits="userSpaceOnUse">
<stop stop-color="#05062C"/>
<stop offset="1" stop-color="#05062C" stop-opacity="0.01"/>
</linearGradient>
<linearGradient id="paint1_linear" x1="67.0016" y1="515.758" x2="139.545" y2="636.518" gradientUnits="userSpaceOnUse">
<stop stop-color="#05062C"/>
<stop offset="1" stop-color="#05062C" stop-opacity="0.01"/>
</linearGradient>
<linearGradient id="paint2_linear" x1="57.0016" y1="505.758" x2="129.545" y2="626.518" gradientUnits="userSpaceOnUse">
<stop stop-color="#05062C"/>
<stop offset="1" stop-color="#05062C" stop-opacity="0.01"/>
</linearGradient>
<linearGradient id="paint3_linear" x1="-87.3149" y1="469.307" x2="9.74113" y2="670.402" gradientUnits="userSpaceOnUse">
<stop stop-color="#83C3F7"/>
<stop offset="1" stop-color="#1B58E4"/>
</linearGradient>
<linearGradient id="paint4_linear" x1="117.172" y1="488.015" x2="146.639" y2="522.733" gradientUnits="userSpaceOnUse">
<stop stop-color="#18DAA2" stop-opacity="0.01"/>
<stop offset="1" stop-color="#18DAA2"/>
</linearGradient>
<linearGradient id="paint5_linear" x1="128" y1="486" x2="144" y2="502" gradientUnits="userSpaceOnUse">
<stop stop-color="#7CFFE9"/>
<stop offset="1" stop-color="#18DAA2"/>
</linearGradient>
<linearGradient id="paint6_linear" x1="102.713" y1="592.8" x2="102.713" y2="605" gradientUnits="userSpaceOnUse">
<stop stop-color="#05062C"/>
<stop offset="1" stop-color="#05062C" stop-opacity="0.01"/>
</linearGradient>
<linearGradient id="paint7_linear" x1="104.661" y1="202.631" x2="184.449" y2="254.219" gradientUnits="userSpaceOnUse">
<stop stop-color="#05062C"/>
<stop offset="1" stop-color="#05062C" stop-opacity="0.01"/>
</linearGradient>
<linearGradient id="paint8_linear" x1="94.6612" y1="192.631" x2="174.449" y2="244.219" gradientUnits="userSpaceOnUse">
<stop stop-color="#05062C"/>
<stop offset="1" stop-color="#05062C" stop-opacity="0.01"/>
</linearGradient>
<linearGradient id="paint9_linear" x1="46.6412" y1="172.385" x2="167.902" y2="243.395" gradientUnits="userSpaceOnUse">
<stop stop-color="#83C3F7"/>
<stop offset="1" stop-color="#1B58E4"/>
</linearGradient>
<linearGradient id="paint10_linear" x1="101.172" y1="179.015" x2="130.639" y2="213.733" gradientUnits="userSpaceOnUse">
<stop stop-color="#18DAA2" stop-opacity="0.01"/>
<stop offset="1" stop-color="#18DAA2"/>
</linearGradient>
<linearGradient id="paint11_linear" x1="112" y1="177" x2="128" y2="193" gradientUnits="userSpaceOnUse">
<stop stop-color="#7CFFE9"/>
<stop offset="1" stop-color="#18DAA2"/>
</linearGradient>
<linearGradient id="paint12_linear" x1="-11.2874" y1="145.8" x2="-11.2874" y2="158" gradientUnits="userSpaceOnUse">
<stop stop-color="#05062C"/>
<stop offset="1" stop-color="#05062C" stop-opacity="0.01"/>
</linearGradient>
<linearGradient id="paint13_linear" x1="463.1" y1="127.631" x2="550.041" y2="224.955" gradientUnits="userSpaceOnUse">
<stop stop-color="#05062C"/>
<stop offset="1" stop-color="#05062C" stop-opacity="0.01"/>
</linearGradient>
<linearGradient id="paint14_linear" x1="453.1" y1="117.631" x2="540.041" y2="214.955" gradientUnits="userSpaceOnUse">
<stop stop-color="#05062C"/>
<stop offset="1" stop-color="#05062C" stop-opacity="0.01"/>
</linearGradient>
<linearGradient id="paint15_linear" x1="519" y1="-13.5" x2="633.996" y2="102.496" gradientUnits="userSpaceOnUse">
<stop stop-color="#83C3F7"/>
<stop offset="1" stop-color="#1B58E4"/>
</linearGradient>
<linearGradient id="paint16_linear" x1="571.331" y1="53.8569" x2="566.875" y2="60.5742" gradientUnits="userSpaceOnUse">
<stop stop-color="#83C3F7"/>
<stop offset="1" stop-color="#1B58E4"/>
</linearGradient>
<linearGradient id="paint17_linear" x1="560.887" y1="53.8569" x2="556.051" y2="58.7178" gradientUnits="userSpaceOnUse">
<stop stop-color="#83C3F7"/>
<stop offset="1" stop-color="#1B58E4"/>
</linearGradient>
<linearGradient id="paint18_linear" x1="552.887" y1="53.8569" x2="548.051" y2="58.7178" gradientUnits="userSpaceOnUse">
<stop stop-color="#83C3F7"/>
<stop offset="1" stop-color="#1B58E4"/>
</linearGradient>
<linearGradient id="paint19_linear" x1="1011.71" y1="37.1445" x2="1011.95" y2="100.09" gradientUnits="userSpaceOnUse">
<stop stop-color="#83C3F7"/>
<stop offset="1" stop-color="#1B58E4"/>
</linearGradient>
<linearGradient id="paint20_linear" x1="493.172" y1="110.015" x2="522.639" y2="144.733" gradientUnits="userSpaceOnUse">
<stop stop-color="#18DAA2" stop-opacity="0.01"/>
<stop offset="1" stop-color="#18DAA2"/>
</linearGradient>
<linearGradient id="paint21_linear" x1="504" y1="108" x2="520" y2="124" gradientUnits="userSpaceOnUse">
<stop stop-color="#7CFFE9"/>
<stop offset="1" stop-color="#18DAA2"/>
</linearGradient>
<linearGradient id="paint22_linear" x1="337.596" y1="79.7998" x2="337.596" y2="92" gradientUnits="userSpaceOnUse">
<stop stop-color="#05062C"/>
<stop offset="1" stop-color="#05062C" stop-opacity="0.01"/>
</linearGradient>
<linearGradient id="paint23_linear" x1="803.797" y1="231.565" x2="874.594" y2="318.404" gradientUnits="userSpaceOnUse">
<stop stop-color="#05062C"/>
<stop offset="1" stop-color="#05062C" stop-opacity="0.01"/>
</linearGradient>
<linearGradient id="paint24_linear" x1="793.797" y1="221.565" x2="864.594" y2="308.404" gradientUnits="userSpaceOnUse">
<stop stop-color="#05062C"/>
<stop offset="1" stop-color="#05062C" stop-opacity="0.01"/>
</linearGradient>
<linearGradient id="paint25_linear" x1="748.625" y1="206.005" x2="842.075" y2="310.316" gradientUnits="userSpaceOnUse">
<stop stop-color="#83C3F7"/>
<stop offset="1" stop-color="#1B58E4"/>
</linearGradient>
<linearGradient id="paint26_linear" x1="766.747" y1="178.724" x2="792.222" y2="261.601" gradientUnits="userSpaceOnUse">
<stop stop-color="#83C3F7"/>
<stop offset="1" stop-color="#1B58E4"/>
</linearGradient>
<linearGradient id="paint27_linear" x1="766.747" y1="211.554" x2="792.222" y2="294.431" gradientUnits="userSpaceOnUse">
<stop stop-color="#83C3F7"/>
<stop offset="1" stop-color="#1B58E4"/>
</linearGradient>
<linearGradient id="paint28_linear" x1="12.9681" y1="170.56" x2="13.1557" y2="259.486" gradientUnits="userSpaceOnUse">
<stop stop-color="#83C3F7"/>
<stop offset="1" stop-color="#1B58E4"/>
</linearGradient>
<linearGradient id="paint29_linear" x1="12.9681" y1="163.995" x2="13.1557" y2="252.92" gradientUnits="userSpaceOnUse">
<stop stop-color="#83C3F7"/>
<stop offset="1" stop-color="#1B58E4"/>
</linearGradient>
<linearGradient id="paint30_linear" x1="12.9681" y1="137.731" x2="13.1557" y2="226.657" gradientUnits="userSpaceOnUse">
<stop stop-color="#83C3F7"/>
<stop offset="1" stop-color="#1B58E4"/>
</linearGradient>
<linearGradient id="paint31_linear" x1="12.9681" y1="131.165" x2="13.1557" y2="220.091" gradientUnits="userSpaceOnUse">
<stop stop-color="#83C3F7"/>
<stop offset="1" stop-color="#1B58E4"/>
</linearGradient>
<linearGradient id="paint32_linear" x1="766.747" y1="244.383" x2="792.222" y2="327.26" gradientUnits="userSpaceOnUse">
<stop stop-color="#83C3F7"/>
<stop offset="1" stop-color="#1B58E4"/>
</linearGradient>
<linearGradient id="paint33_linear" x1="12.9681" y1="203.39" x2="13.1557" y2="292.315" gradientUnits="userSpaceOnUse">
<stop stop-color="#83C3F7"/>
<stop offset="1" stop-color="#1B58E4"/>
</linearGradient>
<linearGradient id="paint34_linear" x1="12.9681" y1="196.824" x2="13.1557" y2="285.749" gradientUnits="userSpaceOnUse">
<stop stop-color="#83C3F7"/>
<stop offset="1" stop-color="#1B58E4"/>
</linearGradient>
<linearGradient id="paint35_linear" x1="928.713" y1="179.8" x2="928.713" y2="192" gradientUnits="userSpaceOnUse">
<stop stop-color="#05062C"/>
<stop offset="1" stop-color="#05062C" stop-opacity="0.01"/>
</linearGradient>
<linearGradient id="paint36_linear" x1="384.755" y1="331.631" x2="457.061" y2="468.394" gradientUnits="userSpaceOnUse">
<stop stop-color="#05062C"/>
<stop offset="1" stop-color="#05062C" stop-opacity="0.01"/>
</linearGradient>
<linearGradient id="paint37_linear" x1="374.755" y1="321.631" x2="447.061" y2="458.394" gradientUnits="userSpaceOnUse">
<stop stop-color="#05062C"/>
<stop offset="1" stop-color="#05062C" stop-opacity="0.01"/>
</linearGradient>
<linearGradient id="paint38_linear" x1="493" y1="190.5" x2="593.389" y2="361.598" gradientUnits="userSpaceOnUse">
<stop stop-color="#83C3F7"/>
<stop offset="1" stop-color="#1B58E4"/>
</linearGradient>
<linearGradient id="paint39_linear" x1="585.331" y1="257.857" x2="580.875" y2="264.574" gradientUnits="userSpaceOnUse">
<stop stop-color="#83C3F7"/>
<stop offset="1" stop-color="#1B58E4"/>
</linearGradient>
<linearGradient id="paint40_linear" x1="574.887" y1="257.857" x2="570.051" y2="262.718" gradientUnits="userSpaceOnUse">
<stop stop-color="#83C3F7"/>
<stop offset="1" stop-color="#1B58E4"/>
</linearGradient>
<linearGradient id="paint41_linear" x1="566.887" y1="257.857" x2="562.051" y2="262.718" gradientUnits="userSpaceOnUse">
<stop stop-color="#83C3F7"/>
<stop offset="1" stop-color="#1B58E4"/>
</linearGradient>
<linearGradient id="paint42_linear" x1="945.713" y1="241.145" x2="945.946" y2="304.09" gradientUnits="userSpaceOnUse">
<stop stop-color="#83C3F7"/>
<stop offset="1" stop-color="#1B58E4"/>
</linearGradient>
<linearGradient id="paint43_linear" x1="405" y1="310.414" x2="454.661" y2="389.623" gradientUnits="userSpaceOnUse">
<stop stop-color="#7CFFE9"/>
<stop offset="1" stop-color="#18DAA2"/>
</linearGradient>
<linearGradient id="paint44_linear" x1="290.995" y1="263.8" x2="290.995" y2="276" gradientUnits="userSpaceOnUse">
<stop stop-color="#05062C"/>
<stop offset="1" stop-color="#05062C" stop-opacity="0.01"/>
</linearGradient>
<linearGradient id="paint45_linear" x1="540.723" y1="563.845" x2="630.974" y2="647.169" gradientUnits="userSpaceOnUse">
<stop stop-color="#05062C"/>
<stop offset="1" stop-color="#05062C" stop-opacity="0.01"/>
</linearGradient>
<linearGradient id="paint46_linear" x1="530.723" y1="553.845" x2="620.974" y2="637.169" gradientUnits="userSpaceOnUse">
<stop stop-color="#05062C"/>
<stop offset="1" stop-color="#05062C" stop-opacity="0.01"/>
</linearGradient>
<linearGradient id="paint47_linear" x1="493.887" y1="536.642" x2="603.66" y2="630.162" gradientUnits="userSpaceOnUse">
<stop stop-color="#83C3F7"/>
<stop offset="1" stop-color="#1B58E4"/>
</linearGradient>
<linearGradient id="paint48_linear" x1="563.172" y1="533.015" x2="592.639" y2="567.733" gradientUnits="userSpaceOnUse">
<stop stop-color="#18DAA2" stop-opacity="0.01"/>
<stop offset="1" stop-color="#18DAA2"/>
</linearGradient>
<linearGradient id="paint49_linear" x1="546.713" y1="645.8" x2="546.713" y2="658" gradientUnits="userSpaceOnUse">
<stop stop-color="#05062C"/>
<stop offset="1" stop-color="#05062C" stop-opacity="0.01"/>
</linearGradient>
<linearGradient id="paint50_linear" x1="790.347" y1="468.179" x2="840.895" y2="534.845" gradientUnits="userSpaceOnUse">
<stop stop-color="#05062C"/>
<stop offset="1" stop-color="#05062C" stop-opacity="0.01"/>
</linearGradient>
<linearGradient id="paint51_linear" x1="780.347" y1="458.179" x2="830.895" y2="524.845" gradientUnits="userSpaceOnUse">
<stop stop-color="#05062C"/>
<stop offset="1" stop-color="#05062C" stop-opacity="0.01"/>
</linearGradient>
<linearGradient id="paint52_linear" x1="744.805" y1="436.394" x2="823.289" y2="514.852" gradientUnits="userSpaceOnUse">
<stop stop-color="#83C3F7"/>
<stop offset="1" stop-color="#1B58E4"/>
</linearGradient>
<linearGradient id="paint53_linear" x1="785.713" y1="527.8" x2="785.713" y2="540" gradientUnits="userSpaceOnUse">
<stop stop-color="#05062C"/>
<stop offset="1" stop-color="#05062C" stop-opacity="0.01"/>
</linearGradient>
</defs>
</svg>
