<svg width="762" height="710" viewBox="0 0 762 710" fill="none" xmlns="http://www.w3.org/2000/svg">
<g opacity="0.4" filter="url(#filter0_d)">
<path d="M121.062 230.85V315.243H224" stroke="#18DAA2"/>
</g>
<g opacity="0.4" filter="url(#filter1_d)">
<path d="M283.938 364.133V481.052H199" stroke="#18DAA2"/>
</g>
<g opacity="0.4" filter="url(#filter2_d)">
<path d="M334 364.133V557.38H373.938" stroke="#18DAA2"/>
</g>
<g opacity="0.4" filter="url(#filter3_d)">
<path d="M383 364.133V430.837H589.379" stroke="#18DAA2" stroke-width="2" stroke-dasharray="8 8"/>
</g>
<path d="M493.902 436.328C493.398 436.83 492.58 436.83 492.076 436.329C491.571 435.827 491.571 435.013 492.075 434.51L496.592 430.01C497.096 429.508 497.913 429.508 498.418 430.01C498.922 430.512 498.922 431.326 498.418 431.828L493.902 436.328Z" fill="#17D2A5"/>
<path d="M498.418 430.01C498.922 430.513 498.922 431.327 498.418 431.829C497.913 432.33 497.096 432.33 496.592 431.828L492.075 427.328C491.571 426.826 491.571 426.012 492.076 425.51C492.58 425.008 493.398 425.008 493.902 425.51L498.418 430.01Z" fill="#17D2A5"/>
<g opacity="0.298758">
<rect x="438" y="401.292" width="115" height="15.0646" fill="#18DAA2"/>
<rect x="438" y="401.292" width="115" height="15.0646" fill="url(#paint0_linear)"/>
</g>
<path d="M453.84 409.299H455.838V398.499H459.006V396.699H450.672V398.499H453.84V409.299ZM464.538 399.669C463.206 399.669 462.216 400.443 461.856 401.379V399.903H459.93V409.299H461.892V405.249C461.892 403.215 462.486 401.649 464.538 401.649V399.669ZM465.289 406.401C465.289 408.291 466.855 409.533 468.835 409.533C470.005 409.533 470.761 409.137 471.247 408.597L471.409 409.299H473.119V403.233C473.119 401.181 472.165 399.669 469.375 399.669C467.809 399.669 466.549 400.263 465.793 400.749L466.549 402.117C467.233 401.739 468.133 401.379 469.177 401.379C470.419 401.379 471.175 402.027 471.175 403.107V403.989C470.815 403.665 470.005 403.305 468.925 403.305C466.765 403.305 465.289 404.583 465.289 406.401ZM467.251 406.347C467.251 405.411 468.043 404.727 469.231 404.727C470.419 404.727 471.229 405.357 471.229 406.347C471.229 407.319 470.401 407.967 469.249 407.967C468.061 407.967 467.251 407.283 467.251 406.347ZM479.625 399.669C478.365 399.669 477.393 400.389 476.979 401.127V399.903H475.053V409.299H477.015V403.629C477.015 402.351 477.825 401.433 479.067 401.433C480.147 401.433 480.957 402.189 480.957 403.485V409.299H482.901V403.647C482.901 401.595 482.055 399.669 479.625 399.669ZM484.225 407.661C484.693 408.507 485.701 409.533 487.609 409.533C489.535 409.533 491.011 408.399 491.011 406.653C491.011 403.341 486.421 404.097 486.421 402.297C486.421 401.649 486.961 401.271 487.681 401.271C488.725 401.271 489.229 401.883 489.499 402.315L490.849 401.415C490.489 400.695 489.553 399.669 487.789 399.669C485.971 399.669 484.567 400.677 484.567 402.333C484.567 405.591 489.139 404.943 489.139 406.743C489.139 407.499 488.527 407.913 487.699 407.913C486.529 407.913 485.881 407.319 485.449 406.689L484.225 407.661ZM491.851 406.401C491.851 408.291 493.417 409.533 495.397 409.533C496.567 409.533 497.323 409.137 497.809 408.597L497.971 409.299H499.681V403.233C499.681 401.181 498.727 399.669 495.937 399.669C494.371 399.669 493.111 400.263 492.355 400.749L493.111 402.117C493.795 401.739 494.695 401.379 495.739 401.379C496.981 401.379 497.737 402.027 497.737 403.107V403.989C497.377 403.665 496.567 403.305 495.487 403.305C493.327 403.305 491.851 404.583 491.851 406.401ZM493.813 406.347C493.813 405.411 494.605 404.727 495.793 404.727C496.981 404.727 497.791 405.357 497.791 406.347C497.791 407.319 496.963 407.967 495.811 407.967C494.623 407.967 493.813 407.283 493.813 406.347ZM509.067 400.821C508.527 400.353 507.483 399.669 505.935 399.669C503.145 399.669 501.039 401.793 501.039 404.601C501.039 407.427 503.091 409.533 505.953 409.533C507.519 409.533 508.599 408.777 509.067 408.363L508.509 406.743C508.113 407.103 507.267 407.787 506.061 407.787C504.315 407.787 503.019 406.401 503.019 404.601C503.019 402.819 504.207 401.451 505.989 401.451C507.177 401.451 508.041 402.063 508.473 402.477L509.067 400.821ZM510.666 399.903H509.622V401.523H510.666V405.591C510.666 407.895 511.35 409.425 513.636 409.425C514.248 409.425 514.59 409.353 514.59 409.353V407.661C514.59 407.661 514.374 407.679 514.212 407.679C513.168 407.679 512.61 407.355 512.61 405.897V401.523H514.518V399.903H512.61V397.941H510.666V399.903ZM516.035 409.299H517.997V399.903H516.035V409.299ZM515.783 397.581C515.783 398.265 516.323 398.805 517.007 398.805C517.691 398.805 518.231 398.265 518.231 397.581C518.231 396.897 517.691 396.357 517.007 396.357C516.323 396.357 515.783 396.897 515.783 397.581ZM521.477 404.619C521.477 402.783 522.701 401.415 524.465 401.415C526.211 401.415 527.489 402.765 527.489 404.601C527.489 406.437 526.211 407.787 524.465 407.787C522.719 407.787 521.477 406.473 521.477 404.619ZM519.497 404.619C519.497 407.463 521.585 409.533 524.465 409.533C527.327 409.533 529.451 407.427 529.451 404.601C529.451 401.775 527.363 399.669 524.465 399.669C521.639 399.669 519.497 401.775 519.497 404.619ZM535.52 399.669C534.26 399.669 533.288 400.389 532.874 401.127V399.903H530.948V409.299H532.91V403.629C532.91 402.351 533.72 401.433 534.962 401.433C536.042 401.433 536.852 402.189 536.852 403.485V409.299H538.796V403.647C538.796 401.595 537.95 399.669 535.52 399.669Z" fill="white"/>
<g opacity="0.4" filter="url(#filter4_d)">
<path d="M664.379 162.687V92.9695H464" stroke="#18DAA2" stroke-width="2" stroke-dasharray="8 8"/>
</g>
<g opacity="0.4" filter="url(#filter5_d)">
<path d="M664.379 254.663V324.38H417" stroke="#18DAA2" stroke-width="2" stroke-dasharray="8 8"/>
</g>
<g opacity="0.4" filter="url(#filter6_d)">
<path d="M362.752 251.552V158.941" stroke="#18DAA2" stroke-width="2" stroke-dasharray="8 8"/>
</g>
<path d="M659.091 120.999C658.589 120.495 658.589 119.677 659.091 119.173C659.593 118.669 660.407 118.668 660.909 119.172L665.409 123.689C665.911 124.193 665.911 125.01 665.41 125.515C664.908 126.019 664.093 126.02 663.591 125.515L659.091 120.999Z" fill="#17D2A5"/>
<path d="M665.409 125.515C664.907 126.02 664.093 126.019 663.591 125.515C663.089 125.01 663.089 124.193 663.591 123.689L668.091 119.172C668.593 118.668 669.408 118.669 669.91 119.173C670.411 119.677 670.411 120.495 669.909 120.999L665.409 125.515Z" fill="#17D2A5"/>
<path d="M659.091 301.775C658.589 301.271 658.589 300.453 659.091 299.949C659.593 299.444 660.407 299.444 660.909 299.948L665.409 304.464C665.911 304.969 665.911 305.786 665.41 306.291C664.908 306.795 664.093 306.795 663.591 306.291L659.091 301.775Z" fill="#17D2A5"/>
<path d="M665.409 306.291C664.907 306.795 664.093 306.795 663.591 306.291C663.089 305.786 663.089 304.969 663.591 304.464L668.091 299.948C668.593 299.444 669.408 299.444 669.91 299.949C670.411 300.453 670.411 301.271 669.909 301.775L665.409 306.291Z" fill="#17D2A5"/>
<g opacity="0.298758">
<rect x="69" y="458.538" width="162" height="108.465" rx="9" fill="#3774E8"/>
<rect x="69" y="458.538" width="162" height="108.465" rx="9" fill="url(#paint1_linear)"/>
</g>
<g opacity="0.298758">
<rect x="59" y="448.494" width="162" height="108.465" rx="9" fill="#3774E8"/>
<rect x="59" y="448.494" width="162" height="108.465" rx="9" fill="url(#paint2_linear)"/>
</g>
<g filter="url(#filter7_d)">
<path fill-rule="evenodd" clip-rule="evenodd" d="M210.769 541.052H200.01C200.941 539.743 201.503 538.148 201.503 536.418V443.453C201.503 439.033 197.918 435.438 193.514 435.438H47.3808C42.9782 435.438 39.3948 439.035 39.3948 443.453V536.418C39.3948 538.183 39.9852 539.805 40.9529 541.133H30.0907C30.0907 541.133 29.6029 541.629 30.8895 542.918C34.5376 546.581 42.7319 546.898 42.7319 546.898V546.888C42.7319 546.888 196.223 546.925 196.393 546.915C204.949 546.915 207.712 544.341 209.974 542.839C211.649 541.15 210.769 541.052 210.769 541.052ZM130.709 543.007H110.145V541.605H130.706L130.709 543.007ZM195.607 534.576H45.0524V440.842H195.609V534.576H195.607Z" fill="url(#paint3_linear)"/>
</g>
<path opacity="0.3" fill-rule="evenodd" clip-rule="evenodd" d="M120.5 510.762C132.926 510.762 143 500.645 143 488.165C143 475.685 132.926 465.568 120.5 465.568C108.074 465.568 98 475.685 98 488.165C98 500.645 108.074 510.762 120.5 510.762Z" fill="url(#paint4_linear)"/>
<path fill-rule="evenodd" clip-rule="evenodd" d="M127.492 482.147C125.482 480.128 122.21 480.128 120.2 482.147C118.827 483.526 118.35 485.558 118.944 487.402L113.137 493.234C113.049 493.323 113 493.442 113 493.567V496.23C113 496.491 113.21 496.701 113.469 496.701H116.121C116.245 496.701 116.364 496.652 116.452 496.563L117.115 495.897C117.216 495.796 117.265 495.653 117.249 495.51L117.167 494.795L118.153 494.701C118.378 494.68 118.555 494.502 118.576 494.277L118.669 493.286L119.381 493.369C119.514 493.387 119.647 493.342 119.747 493.253C119.847 493.164 119.904 493.036 119.904 492.901V492.025H120.761C120.885 492.025 121.004 491.975 121.092 491.887L122.294 490.696C124.13 491.293 126.119 490.85 127.492 489.47C129.503 487.451 129.503 484.166 127.492 482.147ZM126.166 485.476C125.618 486.026 124.726 486.026 124.177 485.476C123.629 484.925 123.629 484.029 124.177 483.479C124.726 482.928 125.618 482.928 126.166 483.479C126.714 484.029 126.714 484.925 126.166 485.476Z" fill="url(#paint5_linear)"/>
<g opacity="0.298758">
<rect x="91" y="593.115" width="80" height="15.0646" fill="#18DAA2"/>
<rect x="91" y="593.115" width="80" height="15.0646" fill="url(#paint6_linear)"/>
</g>
<path d="M100.381 601.121H108.355V599.357H102.721C103.027 597.359 108.193 595.523 108.193 591.959C108.193 589.799 106.681 588.287 104.269 588.287C101.659 588.287 100.633 590.195 100.381 591.347L102.127 591.851C102.379 590.933 102.973 590.141 104.197 590.141C105.439 590.141 106.159 590.915 106.159 592.031C106.159 594.803 100.381 596.837 100.381 600.401V601.121ZM114.623 591.491C113.363 591.491 112.391 592.211 111.977 592.949V591.725H110.051V601.121H112.013V595.451C112.013 594.173 112.823 593.255 114.065 593.255C115.145 593.255 115.955 594.011 115.955 595.307V601.121H117.899V595.469C117.899 593.417 117.053 591.491 114.623 591.491ZM128.781 588.107H126.819V592.985C126.567 592.571 125.559 591.491 123.777 591.491C121.095 591.491 119.313 593.543 119.313 596.441C119.313 599.321 121.221 601.355 123.903 601.355C125.721 601.355 126.675 600.221 126.927 599.897V601.121H128.781V588.107ZM126.891 596.459C126.891 598.187 125.829 599.627 124.101 599.627C122.499 599.627 121.293 598.385 121.293 596.459C121.293 594.569 122.445 593.237 124.083 593.237C125.649 593.237 126.891 594.407 126.891 596.459ZM135.242 601.121H137.204V596.189L140.84 601.121H143.162L139.148 595.973L142.91 591.725H140.678L137.204 595.739V588.107H135.242V601.121ZM143.643 596.459C143.643 599.303 145.587 601.355 148.521 601.355C150.753 601.355 151.995 600.077 152.445 599.303L151.149 598.331C150.789 598.853 149.979 599.645 148.557 599.645C146.883 599.645 145.677 598.565 145.641 596.891H152.715C152.733 596.729 152.733 596.567 152.733 596.405C152.733 593.453 151.059 591.491 148.215 591.491C145.641 591.491 143.643 593.543 143.643 596.459ZM145.713 595.541C145.839 594.065 146.883 593.129 148.233 593.129C149.583 593.129 150.663 593.993 150.735 595.541H145.713ZM157.474 604.343L162.388 591.725H160.336L157.834 598.565L155.296 591.725H153.19L156.916 600.959L155.584 604.343H157.474Z" fill="white"/>
<g opacity="0.3">
<rect x="92" y="140.172" width="67" height="115.495" rx="9" fill="#3774E8"/>
<rect x="92" y="140.172" width="67" height="115.495" rx="9" fill="url(#paint7_linear)"/>
</g>
<g opacity="0.3">
<rect x="82" y="130.129" width="67" height="115.495" rx="9" fill="#3774E8"/>
<rect x="82" y="130.129" width="67" height="115.495" rx="9" fill="url(#paint8_linear)"/>
</g>
<g filter="url(#filter8_d)">
<path fill-rule="evenodd" clip-rule="evenodd" d="M139 127.887V227.78C139 232.073 135.501 235.581 131.21 235.581H79.7897C75.506 235.584 72 232.077 72 227.783V127.887C72 123.597 75.506 120.086 79.7897 120.086H131.207C135.491 120.086 139 123.594 139 127.887ZM96.3313 126.653C96.3313 127.174 96.7531 127.596 97.2737 127.596H113.723C114.244 127.596 114.665 127.174 114.665 126.653C114.665 126.131 114.244 125.706 113.723 125.706H97.2737C96.7564 125.709 96.3313 126.131 96.3313 126.653ZM109.393 227.783C109.393 225.628 107.65 223.883 105.498 223.883C103.347 223.883 101.604 225.625 101.604 227.783C101.604 229.941 103.347 231.687 105.498 231.687C107.65 231.687 109.393 229.938 109.393 227.783ZM133.58 132.457H77.4238V221.147H133.58V132.457Z" fill="url(#paint9_linear)"/>
</g>
<path opacity="0.3" fill-rule="evenodd" clip-rule="evenodd" d="M104.5 200.43C116.926 200.43 127 190.313 127 177.834C127 165.354 116.926 155.237 104.5 155.237C92.0736 155.237 82 165.354 82 177.834C82 190.313 92.0736 200.43 104.5 200.43Z" fill="url(#paint10_linear)"/>
<path fill-rule="evenodd" clip-rule="evenodd" d="M111.492 171.816C109.482 169.796 106.21 169.796 104.2 171.816C102.827 173.195 102.35 175.227 102.944 177.071L97.1373 182.903C97.0494 182.992 97 183.111 97 183.236V185.899C97 186.16 97.2097 186.37 97.4688 186.37H100.121C100.245 186.37 100.364 186.321 100.452 186.232L101.115 185.566C101.216 185.465 101.265 185.322 101.249 185.179L101.167 184.464L102.153 184.37C102.378 184.349 102.555 184.171 102.576 183.946L102.669 182.955L103.381 183.038C103.514 183.056 103.647 183.011 103.747 182.922C103.847 182.832 103.904 182.705 103.904 182.57V181.694H104.761C104.885 181.694 105.004 181.644 105.092 181.556L106.294 180.365C108.13 180.962 110.119 180.519 111.492 179.139C113.503 177.12 113.503 173.835 111.492 171.816ZM110.166 175.145C109.618 175.695 108.726 175.695 108.177 175.145C107.629 174.594 107.629 173.698 108.177 173.147C108.726 172.597 109.618 172.597 110.166 173.147C110.714 173.698 110.714 174.594 110.166 175.145Z" fill="url(#paint11_linear)"/>
<g opacity="0.298758">
<rect x="66" y="94.978" width="80" height="15.0646" fill="#18DAA2"/>
<rect x="66" y="94.978" width="80" height="15.0646" fill="url(#paint12_linear)"/>
</g>
<path d="M81.3742 92.8864L82.7602 92.3644V102.984H84.7402V90.3844H83.1202L80.8342 91.2304L81.3742 92.8864ZM86.4507 101.346C86.9187 102.192 87.9267 103.218 89.8347 103.218C91.7607 103.218 93.2367 102.084 93.2367 100.338C93.2367 97.0264 88.6467 97.7824 88.6467 95.9824C88.6467 95.3344 89.1867 94.9564 89.9067 94.9564C90.9507 94.9564 91.4547 95.5684 91.7247 96.0004L93.0747 95.1004C92.7147 94.3804 91.7787 93.3544 90.0147 93.3544C88.1967 93.3544 86.7927 94.3624 86.7927 96.0184C86.7927 99.2764 91.3647 98.6284 91.3647 100.428C91.3647 101.184 90.7527 101.598 89.9247 101.598C88.7547 101.598 88.1067 101.004 87.6747 100.374L86.4507 101.346ZM94.8142 93.5884H93.7702V95.2084H94.8142V99.2764C94.8142 101.58 95.4982 103.11 97.7842 103.11C98.3962 103.11 98.7382 103.038 98.7382 103.038V101.346C98.7382 101.346 98.5222 101.364 98.3602 101.364C97.3162 101.364 96.7582 101.04 96.7582 99.5824V95.2084H98.6662V93.5884H96.7582V91.6264H94.8142V93.5884ZM104.573 102.984H106.535V98.0524L110.171 102.984H112.493L108.479 97.8364L112.241 93.5884H110.009L106.535 97.6024V89.9704H104.573V102.984ZM112.974 98.3224C112.974 101.166 114.918 103.218 117.852 103.218C120.084 103.218 121.326 101.94 121.776 101.166L120.48 100.194C120.12 100.716 119.31 101.508 117.888 101.508C116.214 101.508 115.008 100.428 114.972 98.7544H122.046C122.064 98.5924 122.064 98.4304 122.064 98.2684C122.064 95.3164 120.39 93.3544 117.546 93.3544C114.972 93.3544 112.974 95.4064 112.974 98.3224ZM115.044 97.4044C115.17 95.9284 116.214 94.9924 117.564 94.9924C118.914 94.9924 119.994 95.8564 120.066 97.4044H115.044ZM126.805 106.206L131.719 93.5884H129.667L127.165 100.428L124.627 93.5884H122.521L126.247 102.822L124.915 106.206H126.805Z" fill="white"/>
<g opacity="0.298758">
<rect x="370" y="64.8489" width="116" height="115.495" rx="9" fill="#3774E8"/>
<rect x="370" y="64.8489" width="116" height="115.495" rx="9" fill="url(#paint13_linear)"/>
</g>
<g opacity="0.298758">
<rect x="360" y="54.8057" width="116" height="115.495" rx="9" fill="#3774E8"/>
<rect x="360" y="54.8057" width="116" height="115.495" rx="9" fill="url(#paint14_linear)"/>
</g>
<g filter="url(#filter9_d)">
<path fill-rule="evenodd" clip-rule="evenodd" d="M359.667 44.7627H456.333C461.669 44.769 465.994 49.0744 466 54.3874V150.634C465.994 155.946 461.669 160.252 456.333 160.258H359.667C354.331 160.252 350.007 155.946 350 150.633V54.3874C350.007 49.0744 354.331 44.769 359.667 44.7627ZM353.867 150.633C353.867 153.823 356.464 156.408 359.667 156.408H456.333C459.536 156.408 462.133 153.823 462.133 150.633V64.0119H353.867V150.633H353.867ZM353.867 60.1622H462.133V54.3874C462.133 51.1982 459.536 48.6126 456.333 48.6126H359.667C356.464 48.6126 353.867 51.1982 353.867 54.3874V60.1622H353.867Z" fill="url(#paint15_linear)"/>
</g>
<g filter="url(#filter10_d)">
<path fill-rule="evenodd" clip-rule="evenodd" d="M452 52.7971H454C455.105 52.7971 456 53.6963 456 54.8056C456 55.915 455.105 56.8144 454 56.8144H452C450.895 56.8144 450 55.9152 450 54.8059C450 53.6965 450.895 52.7971 452 52.7971Z" fill="url(#paint16_linear)"/>
</g>
<g filter="url(#filter11_d)">
<path fill-rule="evenodd" clip-rule="evenodd" d="M444.24 52.9627C444.723 52.7419 445.277 52.7419 445.76 52.9627C446.002 53.0645 446.225 53.2069 446.42 53.384C447.193 54.1751 447.193 55.4415 446.42 56.2326C446.225 56.4096 446.002 56.5521 445.76 56.6539C445.276 56.8678 444.724 56.8678 444.24 56.6539C443.998 56.5521 443.775 56.4096 443.58 56.2326C442.807 55.4415 442.807 54.1751 443.58 53.384C443.775 53.2069 443.998 53.0645 444.24 52.9627Z" fill="url(#paint17_linear)"/>
</g>
<g filter="url(#filter12_d)">
<path fill-rule="evenodd" clip-rule="evenodd" d="M436.233 52.9503C436.984 52.6383 437.848 52.8118 438.42 53.3896C438.596 53.5844 438.738 53.8079 438.84 54.0505C439.053 54.5354 439.053 55.0877 438.84 55.5726C438.738 55.8152 438.596 56.0387 438.42 56.2335C437.631 57.008 436.369 57.008 435.581 56.2335C435.404 56.0387 435.262 55.8152 435.161 55.5726C435.049 55.3348 434.994 55.0743 435.001 54.8114C434.996 53.998 435.483 53.2622 436.233 52.9503Z" fill="url(#paint18_linear)"/>
</g>
<g filter="url(#filter13_d)">
<path fill-rule="evenodd" clip-rule="evenodd" d="M361.917 52.7971H427.083C428.142 52.7971 429 53.6963 429 54.8057C429 55.9151 428.142 56.8144 427.083 56.8144H361.917C360.858 56.8144 360 55.9151 360 54.8057C360 53.6963 360.858 52.7971 361.917 52.7971Z" fill="url(#paint19_linear)"/>
</g>
<path opacity="0.3" fill-rule="evenodd" clip-rule="evenodd" d="M408.5 131.133C420.926 131.133 431 121.016 431 108.536C431 96.0564 420.926 85.9395 408.5 85.9395C396.074 85.9395 386 96.0564 386 108.536C386 121.016 396.074 131.133 408.5 131.133Z" fill="url(#paint20_linear)"/>
<path fill-rule="evenodd" clip-rule="evenodd" d="M415.492 102.519C413.482 100.499 410.21 100.499 408.2 102.519C406.827 103.898 406.35 105.93 406.944 107.774L401.137 113.606C401.049 113.694 401 113.814 401 113.939V116.602C401 116.863 401.21 117.073 401.469 117.073H404.121C404.245 117.073 404.364 117.023 404.452 116.935L405.115 116.269C405.216 116.167 405.265 116.025 405.249 115.882L405.167 115.167L406.153 115.073C406.378 115.052 406.555 114.874 406.576 114.649L406.669 113.658L407.381 113.741C407.514 113.759 407.647 113.714 407.747 113.625C407.847 113.535 407.904 113.408 407.904 113.273V112.397H408.761C408.885 112.397 409.004 112.347 409.092 112.259L410.294 111.068C412.13 111.665 414.119 111.222 415.492 109.842C417.503 107.823 417.503 104.538 415.492 102.519ZM414.166 105.847C413.618 106.398 412.726 106.398 412.177 105.847C411.629 105.297 411.629 104.401 412.177 103.85C412.726 103.3 413.618 103.3 414.166 103.85C414.714 104.401 414.714 105.297 414.166 105.847Z" fill="url(#paint21_linear)"/>
<g opacity="0.298758">
<rect x="357" y="16.6421" width="95" height="15.0646" fill="#18DAA2"/>
<rect x="357" y="16.6421" width="95" height="15.0646" fill="url(#paint22_linear)"/>
</g>
<path d="M378.674 24.6484H380.924L384.398 12.0484H382.274L379.7 22.1644L376.892 12.0484H375.002L372.212 22.1644L369.638 12.0484H367.496L370.988 24.6484H373.238L375.956 15.0364L378.674 24.6484ZM384.743 19.9864C384.743 22.8304 386.687 24.8824 389.621 24.8824C391.853 24.8824 393.095 23.6044 393.545 22.8304L392.249 21.8584C391.889 22.3804 391.079 23.1724 389.657 23.1724C387.983 23.1724 386.777 22.0924 386.741 20.4184H393.815C393.833 20.2564 393.833 20.0944 393.833 19.9324C393.833 16.9804 392.159 15.0184 389.315 15.0184C386.741 15.0184 384.743 17.0704 384.743 19.9864ZM386.813 19.0684C386.939 17.5924 387.983 16.6564 389.333 16.6564C390.683 16.6564 391.763 17.5204 391.835 19.0684H386.813ZM395.28 24.6484H397.134V23.4244C397.386 23.7484 398.34 24.8824 400.158 24.8824C402.84 24.8824 404.748 22.8484 404.748 19.9684C404.748 17.0704 402.966 15.0184 400.284 15.0184C398.502 15.0184 397.494 16.0984 397.242 16.5124V11.6344H395.28V24.6484ZM397.17 19.9864C397.17 17.9344 398.412 16.7644 399.978 16.7644C401.616 16.7644 402.768 18.0964 402.768 19.9864C402.768 21.9124 401.562 23.1544 399.96 23.1544C398.232 23.1544 397.17 21.7144 397.17 19.9864ZM410.056 21.7504C410.056 23.6404 411.622 24.8824 413.602 24.8824C414.772 24.8824 415.528 24.4864 416.014 23.9464L416.176 24.6484H417.886V18.5824C417.886 16.5304 416.932 15.0184 414.142 15.0184C412.576 15.0184 411.316 15.6124 410.56 16.0984L411.316 17.4664C412 17.0884 412.9 16.7284 413.944 16.7284C415.186 16.7284 415.942 17.3764 415.942 18.4564V19.3384C415.582 19.0144 414.772 18.6544 413.692 18.6544C411.532 18.6544 410.056 19.9324 410.056 21.7504ZM412.018 21.6964C412.018 20.7604 412.81 20.0764 413.998 20.0764C415.186 20.0764 415.996 20.7064 415.996 21.6964C415.996 22.6684 415.168 23.3164 414.016 23.3164C412.828 23.3164 412.018 22.6324 412.018 21.6964ZM419.82 28.0144H421.782V23.4064C422.034 23.8024 423.042 24.8824 424.824 24.8824C427.506 24.8824 429.288 22.8484 429.288 19.9324C429.288 17.0704 427.38 15.0184 424.698 15.0184C422.88 15.0184 421.926 16.1524 421.674 16.4944V15.2524H419.82V28.0144ZM421.71 19.9324C421.71 18.2044 422.772 16.7644 424.5 16.7644C426.102 16.7644 427.308 18.0064 427.308 19.9324C427.308 21.8224 426.156 23.1364 424.518 23.1364C422.952 23.1364 421.71 21.9664 421.71 19.9324ZM430.801 28.0144H432.763V23.4064C433.015 23.8024 434.023 24.8824 435.805 24.8824C438.487 24.8824 440.269 22.8484 440.269 19.9324C440.269 17.0704 438.361 15.0184 435.679 15.0184C433.861 15.0184 432.907 16.1524 432.655 16.4944V15.2524H430.801V28.0144ZM432.691 19.9324C432.691 18.2044 433.753 16.7644 435.481 16.7644C437.083 16.7644 438.289 18.0064 438.289 19.9324C438.289 21.8224 437.137 23.1364 435.499 23.1364C433.933 23.1364 432.691 21.9664 432.691 19.9324Z" fill="white"/>
<g opacity="0.298758">
<rect x="627" y="180.344" width="105" height="95.4093" rx="9" fill="#3774E8"/>
<rect x="627" y="180.344" width="105" height="95.4093" rx="9" fill="url(#paint23_linear)"/>
</g>
<g opacity="0.298758">
<rect x="617" y="170.301" width="105" height="95.4093" rx="9" fill="#3774E8"/>
<rect x="617" y="170.301" width="105" height="95.4093" rx="9" fill="url(#paint24_linear)"/>
</g>
<g filter="url(#filter14_d)">
<path fill-rule="evenodd" clip-rule="evenodd" d="M703.824 189.726C708.297 189.726 711.936 186.074 711.936 181.586V168.398C711.936 163.91 708.297 160.258 703.824 160.258H615.111C610.639 160.258 607 163.91 607 168.398V181.586C607 186.074 610.639 189.726 615.111 189.726H657.928V193.229H615.111C610.639 193.229 607 196.88 607 201.369V214.557C607 219.045 610.639 222.697 615.111 222.697H657.928V226.2H615.111C610.639 226.2 607 229.851 607 234.339V247.528C607 252.016 610.639 255.667 615.111 255.667H703.824C708.297 255.667 711.936 252.016 711.936 247.528V234.339C711.936 229.851 708.297 226.2 703.824 226.2H661.008V222.697H703.824C708.297 222.697 711.936 219.045 711.936 214.557V201.369C711.936 196.88 708.297 193.229 703.824 193.229H661.008V189.726H703.824ZM708.855 234.339V247.528C708.855 250.312 706.598 252.576 703.824 252.576H615.111C612.337 252.576 610.08 250.312 610.08 247.528V234.339C610.08 231.555 612.337 229.291 615.111 229.291H703.824C706.598 229.291 708.855 231.555 708.855 234.339ZM708.855 201.369V214.557C708.855 217.341 706.598 219.606 703.824 219.606H615.111C612.337 219.606 610.08 217.341 610.08 214.557V201.369C610.08 198.585 612.337 196.32 615.111 196.32H703.824C706.598 196.32 708.855 198.585 708.855 201.369ZM610.08 181.586V168.398C610.08 165.614 612.337 163.349 615.111 163.349H703.824C706.598 163.349 708.855 165.614 708.855 168.398V181.586C708.855 184.37 706.598 186.635 703.824 186.635H615.111C612.337 186.635 610.08 184.37 610.08 181.586Z" fill="url(#paint25_linear)"/>
</g>
<g filter="url(#filter15_d)">
<path fill-rule="evenodd" clip-rule="evenodd" d="M621.683 168.501C618.116 168.501 615.214 171.413 615.214 174.992C615.214 178.571 618.116 181.483 621.683 181.483C625.25 181.483 628.152 178.571 628.152 174.992C628.152 171.413 625.25 168.501 621.683 168.501ZM621.683 178.392C619.815 178.392 618.295 176.867 618.295 174.992C618.295 173.117 619.815 171.592 621.683 171.592C623.551 171.592 625.071 173.117 625.071 174.992C625.071 176.867 623.551 178.392 621.683 178.392Z" fill="url(#paint26_linear)"/>
</g>
<g filter="url(#filter16_d)">
<path fill-rule="evenodd" clip-rule="evenodd" d="M621.683 201.472C618.116 201.472 615.214 204.384 615.214 207.963C615.214 211.542 618.116 214.454 621.683 214.454C625.25 214.454 628.152 211.542 628.152 207.963C628.152 204.384 625.25 201.472 621.683 201.472ZM621.683 211.363C619.815 211.363 618.295 209.838 618.295 207.963C618.295 206.088 619.815 204.563 621.683 204.563C623.551 204.563 625.071 206.088 625.071 207.963C625.071 209.838 623.551 211.363 621.683 211.363Z" fill="url(#paint27_linear)"/>
</g>
<g filter="url(#filter17_d)">
<path fill-rule="evenodd" clip-rule="evenodd" d="M700.539 209.714H646.325C645.475 209.714 644.785 210.406 644.785 211.26C644.785 212.114 645.475 212.805 646.325 212.805H700.539C701.389 212.805 702.079 212.114 702.079 211.26C702.079 210.406 701.389 209.714 700.539 209.714Z" fill="url(#paint28_linear)"/>
</g>
<g filter="url(#filter18_d)">
<path fill-rule="evenodd" clip-rule="evenodd" d="M644.785 204.666C644.785 205.519 645.475 206.211 646.325 206.211H700.539C701.389 206.211 702.079 205.519 702.079 204.666C702.079 203.812 701.389 203.12 700.539 203.12H646.325C645.475 203.12 644.785 203.812 644.785 204.666Z" fill="url(#paint29_linear)"/>
</g>
<g filter="url(#filter19_d)">
<path fill-rule="evenodd" clip-rule="evenodd" d="M702.079 178.289C702.079 177.435 701.389 176.743 700.539 176.743H646.325C645.475 176.743 644.785 177.435 644.785 178.289C644.785 179.143 645.475 179.834 646.325 179.834H700.539C701.389 179.834 702.079 179.143 702.079 178.289Z" fill="url(#paint30_linear)"/>
</g>
<g filter="url(#filter20_d)">
<path fill-rule="evenodd" clip-rule="evenodd" d="M646.325 173.24H700.539C701.389 173.24 702.079 172.549 702.079 171.695C702.079 170.841 701.389 170.149 700.539 170.149H646.325C645.475 170.149 644.785 170.841 644.785 171.695C644.785 172.549 645.475 173.24 646.325 173.24Z" fill="url(#paint31_linear)"/>
</g>
<g filter="url(#filter21_d)">
<path fill-rule="evenodd" clip-rule="evenodd" d="M621.683 234.442C618.116 234.442 615.214 237.354 615.214 240.934C615.214 244.513 618.116 247.425 621.683 247.425C625.25 247.425 628.152 244.513 628.152 240.934C628.152 237.354 625.25 234.442 621.683 234.442ZM621.683 244.334C619.815 244.334 618.295 242.808 618.295 240.934C618.295 239.059 619.815 237.533 621.683 237.533C623.551 237.533 625.071 239.059 625.071 240.934C625.071 242.808 623.551 244.334 621.683 244.334Z" fill="url(#paint32_linear)"/>
</g>
<g filter="url(#filter22_d)">
<path fill-rule="evenodd" clip-rule="evenodd" d="M700.539 242.685H646.325C645.475 242.685 644.785 243.377 644.785 244.231C644.785 245.084 645.475 245.776 646.325 245.776H700.539C701.389 245.776 702.079 245.084 702.079 244.231C702.079 243.377 701.389 242.685 700.539 242.685Z" fill="url(#paint33_linear)"/>
</g>
<g filter="url(#filter23_d)">
<path fill-rule="evenodd" clip-rule="evenodd" d="M644.785 237.636C644.785 238.49 645.475 239.182 646.325 239.182H700.539C701.389 239.182 702.079 238.49 702.079 237.636C702.079 236.783 701.389 236.091 700.539 236.091H646.325C645.475 236.091 644.785 236.783 644.785 237.636Z" fill="url(#paint34_linear)"/>
</g>
<g opacity="0.298758">
<rect x="515" y="239.599" width="80" height="15.0646" fill="#18DAA2"/>
<rect x="515" y="239.599" width="80" height="15.0646" fill="url(#paint35_linear)"/>
</g>
<path d="M527.066 247.605H529.064V242.403H530.81L533.456 247.605H535.67L532.61 241.953C533.888 241.431 534.662 240.171 534.662 238.713C534.662 236.607 533.15 235.005 530.45 235.005H527.066V247.605ZM529.064 240.693V236.751H530.414C531.872 236.751 532.592 237.543 532.592 238.713C532.592 239.991 531.674 240.693 530.414 240.693H529.064ZM536.358 242.943C536.358 245.787 538.302 247.839 541.237 247.839C543.468 247.839 544.71 246.561 545.161 245.787L543.865 244.815C543.504 245.337 542.695 246.129 541.272 246.129C539.598 246.129 538.392 245.049 538.356 243.375H545.431C545.449 243.213 545.449 243.051 545.449 242.889C545.449 239.937 543.775 237.975 540.93 237.975C538.356 237.975 536.358 240.027 536.358 242.943ZM538.428 242.025C538.554 240.549 539.598 239.613 540.949 239.613C542.298 239.613 543.378 240.477 543.451 242.025H538.428ZM546.895 247.605H548.857V234.591H546.895V247.605ZM550.357 244.707C550.357 246.597 551.923 247.839 553.903 247.839C555.073 247.839 555.829 247.443 556.315 246.903L556.477 247.605H558.187V241.539C558.187 239.487 557.233 237.975 554.443 237.975C552.877 237.975 551.617 238.569 550.861 239.055L551.617 240.423C552.301 240.045 553.201 239.685 554.245 239.685C555.487 239.685 556.243 240.333 556.243 241.413V242.295C555.883 241.971 555.073 241.611 553.993 241.611C551.833 241.611 550.357 242.889 550.357 244.707ZM552.319 244.653C552.319 243.717 553.111 243.033 554.299 243.033C555.487 243.033 556.297 243.663 556.297 244.653C556.297 245.625 555.469 246.273 554.317 246.273C553.129 246.273 552.319 245.589 552.319 244.653ZM563.415 250.827L568.329 238.209H566.277L563.775 245.049L561.237 238.209H559.131L562.857 247.443L561.525 250.827H563.415ZM568.874 242.943C568.874 245.787 570.818 247.839 573.752 247.839C575.984 247.839 577.226 246.561 577.676 245.787L576.38 244.815C576.02 245.337 575.21 246.129 573.788 246.129C572.114 246.129 570.908 245.049 570.872 243.375H577.946C577.964 243.213 577.964 243.051 577.964 242.889C577.964 239.937 576.29 237.975 573.446 237.975C570.872 237.975 568.874 240.027 568.874 242.943ZM570.944 242.025C571.07 240.549 572.114 239.613 573.464 239.613C574.814 239.613 575.894 240.477 575.966 242.025H570.944ZM584.018 237.975C582.686 237.975 581.696 238.749 581.336 239.685V238.209H579.41V247.605H581.372V243.555C581.372 241.521 581.966 239.955 584.018 239.955V237.975Z" fill="white"/>
<g opacity="0.298758">
<rect x="242" y="269.728" width="196" height="115.495" rx="9" fill="#3774E8"/>
<rect x="242" y="269.728" width="196" height="115.495" rx="9" fill="url(#paint36_linear)"/>
</g>
<g opacity="0.298758">
<rect x="232" y="259.684" width="196" height="115.495" rx="9" fill="#3774E8"/>
<rect x="232" y="259.684" width="196" height="115.495" rx="9" fill="url(#paint37_linear)"/>
</g>
<g filter="url(#filter24_d)">
<path fill-rule="evenodd" clip-rule="evenodd" d="M231.667 249.641H408.333C413.669 249.648 417.994 253.953 418 259.266V355.512C417.994 360.825 413.669 365.13 408.333 365.137H231.667C226.331 365.13 222.007 360.825 222 355.512V259.266C222.007 253.953 226.331 249.648 231.667 249.641ZM231.667 361.287H408.333C411.536 361.287 414.133 358.702 414.133 355.512V268.891H225.867V355.512C225.867 358.701 228.464 361.287 231.667 361.287ZM414.133 265.041V259.266C414.133 256.077 411.536 253.491 408.333 253.491H231.667C228.464 253.491 225.867 256.077 225.867 259.266V265.041H414.133Z" fill="url(#paint38_linear)"/>
</g>
<g filter="url(#filter25_d)">
<path fill-rule="evenodd" clip-rule="evenodd" d="M404 257.676H406C407.105 257.676 408 258.575 408 259.684C408 260.794 407.105 261.693 406 261.693H404C402.895 261.693 402 260.794 402 259.685C402 258.575 402.895 257.676 404 257.676Z" fill="url(#paint39_linear)"/>
</g>
<g filter="url(#filter26_d)">
<path fill-rule="evenodd" clip-rule="evenodd" d="M396.24 257.841C396.723 257.621 397.277 257.621 397.76 257.841C398.002 257.943 398.225 258.086 398.42 258.263C399.193 259.054 399.193 260.32 398.42 261.111C398.225 261.288 398.002 261.431 397.76 261.533C397.276 261.746 396.724 261.746 396.24 261.533C395.998 261.431 395.775 261.288 395.58 261.111C394.807 260.32 394.807 259.054 395.58 258.263C395.775 258.086 395.998 257.943 396.24 257.841Z" fill="url(#paint40_linear)"/>
</g>
<g filter="url(#filter27_d)">
<path fill-rule="evenodd" clip-rule="evenodd" d="M388.233 257.829C388.984 257.517 389.848 257.69 390.42 258.268C390.596 258.463 390.738 258.687 390.84 258.929C391.053 259.414 391.053 259.966 390.84 260.451C390.738 260.694 390.596 260.917 390.42 261.112C389.631 261.887 388.369 261.887 387.581 261.112C387.404 260.917 387.262 260.694 387.161 260.451C387.049 260.213 386.994 259.953 387.001 259.69C386.996 258.877 387.483 258.141 388.233 257.829Z" fill="url(#paint41_linear)"/>
</g>
<g filter="url(#filter28_d)">
<path fill-rule="evenodd" clip-rule="evenodd" d="M233.917 257.676H299.083C300.142 257.676 301 258.575 301 259.684C301 260.794 300.142 261.693 299.083 261.693H233.917C232.858 261.693 232 260.794 232 259.684C232 258.575 232.858 257.676 233.917 257.676Z" fill="url(#paint42_linear)"/>
</g>
<path fill-rule="evenodd" clip-rule="evenodd" d="M346.6 298.853H321.4C320.627 298.853 320 298.178 320 297.346C320 296.514 320.627 295.84 321.4 295.84H346.6C347.373 295.84 348 296.514 348 297.346C348 298.178 347.373 298.853 346.6 298.853ZM321.385 301.865H354.615C355.38 301.865 356 302.54 356 303.372C356 304.204 355.38 304.878 354.615 304.878H321.385C320.62 304.878 320 304.204 320 303.372C320 302.54 320.62 301.865 321.385 301.865ZM327.364 317.934H339.636C340.389 317.934 341 317.26 341 316.428C341 315.596 340.389 314.921 339.636 314.921H327.364C326.611 314.921 326 315.596 326 316.428C326 317.26 326.611 317.934 327.364 317.934ZM320.439 315.362C320.718 315.082 321.104 314.921 321.5 314.921C321.896 314.921 322.282 315.082 322.561 315.362C322.841 315.643 323 316.031 323 316.428C323 316.825 322.841 317.213 322.561 317.494C322.282 317.774 321.896 317.934 321.5 317.934C321.104 317.934 320.718 317.774 320.439 317.494C320.159 317.213 320 316.825 320 316.428C320 316.031 320.159 315.643 320.439 315.362ZM348.611 320.947H326.389C325.622 320.947 325 321.622 325 322.454C325 323.286 325.622 323.96 326.389 323.96H348.611C349.378 323.96 350 323.286 350 322.454C350 321.622 349.378 320.947 348.611 320.947ZM320.439 321.388C320.718 321.107 321.104 320.947 321.5 320.947C321.896 320.947 322.282 321.107 322.561 321.388C322.841 321.669 323 322.056 323 322.454C323 322.851 322.841 323.239 322.561 323.52C322.282 323.8 321.896 323.96 321.5 323.96C321.104 323.96 320.718 323.8 320.439 323.52C320.159 323.239 320 322.851 320 322.454C320 322.056 320.159 321.669 320.439 321.388ZM344.667 326.973H327.333C326.597 326.973 326 327.648 326 328.48C326 329.312 326.597 329.986 327.333 329.986H344.667C345.403 329.986 346 329.312 346 328.48C346 327.648 345.403 326.973 344.667 326.973ZM320.439 327.414C320.718 327.133 321.104 326.973 321.5 326.973C321.896 326.973 322.282 327.133 322.561 327.414C322.841 327.694 323 328.082 323 328.48C323 328.877 322.841 329.265 322.561 329.545C322.282 329.826 321.896 329.986 321.5 329.986C321.104 329.986 320.718 329.826 320.439 329.545C320.159 329.265 320 328.877 320 328.48C320 328.082 320.159 327.694 320.439 327.414Z" fill="url(#paint43_linear)"/>
<g opacity="0.298758">
<rect x="222" y="223.53" width="78" height="15.0646" fill="#18DAA2"/>
<rect x="222" y="223.53" width="78" height="15.0646" fill="url(#paint44_linear)"/>
</g>
<path d="M232.19 231.536H234.188V218.936H232.19V231.536ZM245.378 218.522H243.416V223.4C243.164 222.986 242.156 221.906 240.374 221.906C237.692 221.906 235.91 223.958 235.91 226.856C235.91 229.736 237.818 231.77 240.5 231.77C242.318 231.77 243.272 230.636 243.524 230.312V231.536H245.378V218.522ZM243.488 226.874C243.488 228.602 242.426 230.042 240.698 230.042C239.096 230.042 237.89 228.8 237.89 226.874C237.89 224.984 239.042 223.652 240.68 223.652C242.246 223.652 243.488 224.822 243.488 226.874ZM246.891 226.874C246.891 229.718 248.835 231.77 251.769 231.77C254.001 231.77 255.243 230.492 255.693 229.718L254.397 228.746C254.037 229.268 253.227 230.06 251.805 230.06C250.131 230.06 248.925 228.98 248.889 227.306H255.963C255.981 227.144 255.981 226.982 255.981 226.82C255.981 223.868 254.307 221.906 251.463 221.906C248.889 221.906 246.891 223.958 246.891 226.874ZM248.961 225.956C249.087 224.48 250.131 223.544 251.481 223.544C252.831 223.544 253.911 224.408 253.983 225.956H248.961ZM262 221.906C260.74 221.906 259.768 222.626 259.354 223.364V222.14H257.428V231.536H259.39V225.866C259.39 224.588 260.2 223.67 261.442 223.67C262.522 223.67 263.332 224.426 263.332 225.722V231.536H265.276V225.884C265.276 223.832 264.43 221.906 262 221.906ZM267.428 222.14H266.384V223.76H267.428V227.828C267.428 230.132 268.112 231.662 270.398 231.662C271.01 231.662 271.352 231.59 271.352 231.59V229.898C271.352 229.898 271.136 229.916 270.974 229.916C269.93 229.916 269.372 229.592 269.372 228.134V223.76H271.28V222.14H269.372V220.178H267.428V222.14ZM272.798 231.536H274.76V222.14H272.798V231.536ZM272.546 219.818C272.546 220.502 273.086 221.042 273.77 221.042C274.454 221.042 274.994 220.502 274.994 219.818C274.994 219.134 274.454 218.594 273.77 218.594C273.086 218.594 272.546 219.134 272.546 219.818ZM276.997 222.14H275.953V223.76H276.997V227.828C276.997 230.132 277.681 231.662 279.967 231.662C280.579 231.662 280.921 231.59 280.921 231.59V229.898C280.921 229.898 280.705 229.916 280.543 229.916C279.499 229.916 278.941 229.592 278.941 228.134V223.76H280.849V222.14H278.941V220.178H276.997V222.14ZM286.206 234.758L291.12 222.14H289.068L286.566 228.98L284.028 222.14H281.922L285.648 231.374L284.316 234.758H286.206Z" fill="white"/>
<g opacity="0.298758">
<path fill-rule="evenodd" clip-rule="evenodd" d="M485.954 566.934C485.917 565.352 484.786 563.988 483.207 563.772C475.843 562.758 468.58 560.996 461.461 558.383C454.375 555.783 446.536 552.154 438.08 547.374C437.006 546.766 435.996 546.763 434.924 547.374C426.526 552.151 418.742 555.773 411.601 558.383C404.479 560.986 397.22 562.76 389.915 563.772C388.335 563.99 387.227 565.352 387.051 566.934C386.35 596.976 392.918 621.558 406.691 640.665C414.195 651.074 423.585 659.522 434.924 665.964C435.8 666.609 437.174 666.56 438.197 665.964C449.45 659.415 458.827 651.028 466.313 640.665C480.105 621.57 486.62 596.977 485.954 566.934Z" fill="#3774E8"/>
<path fill-rule="evenodd" clip-rule="evenodd" d="M485.954 566.934C485.917 565.352 484.786 563.988 483.207 563.772C475.843 562.758 468.58 560.996 461.461 558.383C454.375 555.783 446.536 552.154 438.08 547.374C437.006 546.766 435.996 546.763 434.924 547.374C426.526 552.151 418.742 555.773 411.601 558.383C404.479 560.986 397.22 562.76 389.915 563.772C388.335 563.99 387.227 565.352 387.051 566.934C386.35 596.976 392.918 621.558 406.691 640.665C414.195 651.074 423.585 659.522 434.924 665.964C435.8 666.609 437.174 666.56 438.197 665.964C449.45 659.415 458.827 651.028 466.313 640.665C480.105 621.57 486.62 596.977 485.954 566.934Z" fill="url(#paint45_linear)"/>
</g>
<g opacity="0.298758">
<path fill-rule="evenodd" clip-rule="evenodd" d="M475.954 556.891C475.917 555.309 474.786 553.945 473.207 553.728C465.843 552.715 458.58 550.952 451.461 548.34C444.375 545.74 436.536 542.111 428.08 537.33C427.006 536.723 425.996 536.719 424.924 537.33C416.526 542.108 408.742 545.73 401.601 548.34C394.479 550.942 387.22 552.716 379.915 553.728C378.335 553.947 377.227 555.309 377.051 556.891C376.35 586.933 382.918 611.514 396.691 630.622C404.195 641.031 413.585 649.479 424.924 655.921C425.8 656.566 427.174 656.517 428.197 655.921C439.45 649.372 448.827 640.984 456.313 630.622C470.105 611.527 476.62 586.934 475.954 556.891Z" fill="#3774E8"/>
<path fill-rule="evenodd" clip-rule="evenodd" d="M475.954 556.891C475.917 555.309 474.786 553.945 473.207 553.728C465.843 552.715 458.58 550.952 451.461 548.34C444.375 545.74 436.536 542.111 428.08 537.33C427.006 536.723 425.996 536.719 424.924 537.33C416.526 542.108 408.742 545.73 401.601 548.34C394.479 550.942 387.22 552.716 379.915 553.728C378.335 553.947 377.227 555.309 377.051 556.891C376.35 586.933 382.918 611.514 396.691 630.622C404.195 641.031 413.585 649.479 424.924 655.921C425.8 656.566 427.174 656.517 428.197 655.921C439.45 649.372 448.827 640.984 456.313 630.622C470.105 611.527 476.62 586.934 475.954 556.891Z" fill="url(#paint46_linear)"/>
</g>
<g filter="url(#filter29_d)">
<path fill-rule="evenodd" clip-rule="evenodd" d="M469.954 546.848C469.917 545.266 468.786 543.902 467.207 543.685C459.843 542.672 452.58 540.909 445.461 538.297C438.375 535.697 430.536 532.068 422.08 527.287C421.006 526.68 419.996 526.676 418.924 527.287C410.526 532.065 402.742 535.687 395.601 538.297C388.479 540.899 381.22 542.673 373.915 543.685C372.335 543.904 371.227 545.266 371.051 546.848C370.35 576.89 376.918 601.471 390.691 620.579C398.195 630.988 407.585 639.436 418.924 645.878C419.8 646.523 421.174 646.474 422.197 645.878C433.45 639.329 442.827 630.942 450.313 620.579C464.105 601.484 470.62 576.891 469.954 546.848ZM445.052 616.89C438.545 625.895 430.381 633.404 420.502 639.436C410.623 633.404 402.421 625.923 395.952 616.89C383.422 599.392 377.306 577.007 377.539 549.717C384.436 548.604 391.276 546.73 398.115 544.212C404.953 541.694 412.435 538.238 420.502 533.847C428.569 538.238 435.992 541.694 442.831 544.212C449.67 546.73 456.567 548.604 463.465 549.717C463.699 577.184 457.543 599.6 445.052 616.89Z" fill="url(#paint47_linear)"/>
</g>
<path opacity="0.3" fill-rule="evenodd" clip-rule="evenodd" d="M420.5 602.154C432.926 602.154 443 592.037 443 579.557C443 567.077 432.926 556.96 420.5 556.96C408.074 556.96 398 567.077 398 579.557C398 592.037 408.074 602.154 420.5 602.154Z" fill="url(#paint48_linear)"/>
<g filter="url(#filter30_d)">
<path fill-rule="evenodd" clip-rule="evenodd" d="M427.492 573.539C425.482 571.52 422.21 571.52 420.2 573.539C418.827 574.918 418.35 576.95 418.944 578.794L413.137 584.626C413.049 584.715 413 584.834 413 584.959V587.623C413 587.883 413.21 588.093 413.469 588.093H416.121C416.245 588.093 416.364 588.044 416.452 587.955L417.115 587.289C417.216 587.188 417.265 587.045 417.249 586.902L417.167 586.187L418.153 586.093C418.378 586.072 418.555 585.894 418.576 585.669L418.669 584.678L419.381 584.761C419.514 584.779 419.647 584.734 419.747 584.645C419.847 584.556 419.904 584.428 419.904 584.294V583.417H420.761C420.885 583.417 421.004 583.367 421.092 583.279L422.294 582.088C424.13 582.685 426.119 582.243 427.492 580.862C429.503 578.843 429.503 575.558 427.492 573.539ZM426.166 576.868C425.618 577.419 424.726 577.419 424.177 576.868C423.629 576.317 423.629 575.421 424.177 574.871C424.726 574.32 425.618 574.32 426.166 574.871C426.714 575.421 426.714 576.317 426.166 576.868Z" fill="#18DAA2"/>
</g>
<g opacity="0.298758">
<rect x="389" y="692.542" width="80" height="15.0646" fill="#18DAA2"/>
<rect x="389" y="692.542" width="80" height="15.0646" fill="url(#paint49_linear)"/>
</g>
<path d="M407.867 687.948H400.613V689.712H405.617L402.629 693.168V694.734H404.051C405.545 694.734 406.319 695.544 406.319 696.804C406.319 698.064 405.419 698.946 404.177 698.946C402.863 698.946 402.161 698.19 401.873 697.29L400.163 697.848C400.505 699.144 401.603 700.782 404.213 700.782C406.589 700.782 408.353 699.09 408.353 696.75C408.353 694.14 406.589 693.042 404.915 693.042L407.867 689.748V687.948ZM414.672 690.918C413.34 690.918 412.35 691.692 411.99 692.628V691.152H410.064V700.548H412.026V696.498C412.026 694.464 412.62 692.898 414.672 692.898V690.918ZM424.892 687.534H422.93V692.412C422.678 691.998 421.67 690.918 419.888 690.918C417.206 690.918 415.424 692.97 415.424 695.868C415.424 698.748 417.332 700.782 420.014 700.782C421.832 700.782 422.786 699.648 423.038 699.324V700.548H424.892V687.534ZM423.002 695.886C423.002 697.614 421.94 699.054 420.212 699.054C418.61 699.054 417.404 697.812 417.404 695.886C417.404 693.996 418.556 692.664 420.194 692.664C421.76 692.664 423.002 693.834 423.002 695.886ZM431.352 700.548H433.314V695.616L436.95 700.548H439.272L435.258 695.4L439.02 691.152H436.788L433.314 695.166V687.534H431.352V700.548ZM439.753 695.886C439.753 698.73 441.697 700.782 444.631 700.782C446.863 700.782 448.105 699.504 448.555 698.73L447.259 697.758C446.899 698.28 446.089 699.072 444.667 699.072C442.993 699.072 441.787 697.992 441.751 696.318H448.825C448.843 696.156 448.843 695.994 448.843 695.832C448.843 692.88 447.169 690.918 444.325 690.918C441.751 690.918 439.753 692.97 439.753 695.886ZM441.823 694.968C441.949 693.492 442.993 692.556 444.343 692.556C445.693 692.556 446.773 693.42 446.845 694.968H441.823ZM453.584 703.77L458.498 691.152H456.446L453.944 697.992L451.406 691.152H449.3L453.026 700.386L451.694 703.77H453.584Z" fill="white"/>
<g opacity="0.298758">
<rect x="609" y="425.396" width="82" height="69.2973" rx="9" fill="#3774E8"/>
<rect x="609" y="425.396" width="82" height="69.2973" rx="9" fill="url(#paint50_linear)"/>
</g>
<g opacity="0.298758">
<rect x="599" y="415.352" width="82" height="69.2973" rx="9" fill="#3774E8"/>
<rect x="599" y="415.352" width="82" height="69.2973" rx="9" fill="url(#paint51_linear)"/>
</g>
<g filter="url(#filter31_d)">
<path fill-rule="evenodd" clip-rule="evenodd" d="M671 429.544H667.026V410.925C667.026 406.461 663.46 402.83 659.078 402.83H653.695L648.187 392.743C647.347 391.201 645.75 390.245 644.017 390.245C643.209 390.245 642.408 390.457 641.701 390.857L620.561 402.829H596.948C592.566 402.829 589 406.461 589 410.924V466.511C589 470.975 592.566 474.607 596.948 474.607H659.078C663.46 474.607 667.026 470.975 667.026 466.511V450.186H671V429.544ZM659.078 406.067C661.526 406.067 663.525 407.962 663.794 410.385H657.82L655.464 406.067H659.078ZM643.247 393.687C643.993 393.261 644.996 393.559 645.408 394.315L654.183 410.384H613.764L643.247 393.687ZM663.846 466.511C663.846 469.189 661.707 471.369 659.077 471.369H596.948C594.319 471.369 592.179 469.189 592.179 466.511V410.925C592.179 408.247 594.319 406.067 596.948 406.067H614.845L607.221 410.386H597.942C597.063 410.386 596.352 411.111 596.352 412.005C596.352 412.899 597.063 413.624 597.942 413.624H601.503H659.588H663.846V429.545H652.221C646.823 429.545 642.429 434.02 642.429 439.519V440.215C642.429 445.713 646.823 450.188 652.221 450.188H663.846V466.511ZM667.821 446.949H667.026H652.221C648.575 446.949 645.608 443.927 645.608 440.213V439.517C645.608 435.803 648.574 432.782 652.221 432.782H667.026H667.821V446.949ZM657.09 439.998C657.09 441.973 655.52 443.573 653.58 443.573C651.641 443.573 650.071 441.973 650.071 439.998C650.071 438.023 651.641 436.423 653.58 436.423C655.52 436.423 657.09 438.024 657.09 439.998Z" fill="url(#paint52_linear)"/>
</g>
<g opacity="0.298758">
<rect x="603" y="520.805" width="80" height="15.0646" fill="#18DAA2"/>
<rect x="603" y="520.805" width="80" height="15.0646" fill="url(#paint53_linear)"/>
</g>
<path d="M629.396 528.811H631.646L635.12 516.211H632.996L630.422 526.327L627.614 516.211H625.724L622.934 526.327L620.36 516.211H618.218L621.71 528.811H623.96L626.678 519.199L629.396 528.811ZM635.711 525.913C635.711 527.803 637.277 529.045 639.257 529.045C640.427 529.045 641.183 528.649 641.669 528.109L641.831 528.811H643.541V522.745C643.541 520.693 642.587 519.181 639.797 519.181C638.231 519.181 636.971 519.775 636.215 520.261L636.971 521.629C637.655 521.251 638.555 520.891 639.599 520.891C640.841 520.891 641.597 521.539 641.597 522.619V523.501C641.237 523.177 640.427 522.817 639.347 522.817C637.187 522.817 635.711 524.095 635.711 525.913ZM637.673 525.859C637.673 524.923 638.465 524.239 639.653 524.239C640.841 524.239 641.651 524.869 641.651 525.859C641.651 526.831 640.823 527.479 639.671 527.479C638.483 527.479 637.673 526.795 637.673 525.859ZM645.475 528.811H647.437V515.797H645.475V528.811ZM649.512 528.811H651.474V515.797H649.512V528.811ZM652.992 524.149C652.992 526.993 654.936 529.045 657.87 529.045C660.102 529.045 661.344 527.767 661.794 526.993L660.498 526.021C660.138 526.543 659.328 527.335 657.906 527.335C656.232 527.335 655.026 526.255 654.99 524.581H662.064C662.082 524.419 662.082 524.257 662.082 524.095C662.082 521.143 660.408 519.181 657.564 519.181C654.99 519.181 652.992 521.233 652.992 524.149ZM655.062 523.231C655.188 521.755 656.232 520.819 657.582 520.819C658.932 520.819 660.012 521.683 660.084 523.231H655.062ZM663.69 519.415H662.646V521.035H663.69V525.103C663.69 527.407 664.374 528.937 666.66 528.937C667.272 528.937 667.614 528.865 667.614 528.865V527.173C667.614 527.173 667.398 527.191 667.236 527.191C666.192 527.191 665.634 526.867 665.634 525.409V521.035H667.542V519.415H665.634V517.453H663.69V519.415Z" fill="white"/>
<defs>
<filter id="filter0_d" x="102.562" y="213.85" width="139.438" height="120.893" filterUnits="userSpaceOnUse" color-interpolation-filters="sRGB">
<feFlood flood-opacity="0" result="BackgroundImageFix"/>
<feColorMatrix in="SourceAlpha" type="matrix" values="0 0 0 0 0 0 0 0 0 0 0 0 0 0 0 0 0 0 127 0"/>
<feOffset dy="1"/>
<feGaussianBlur stdDeviation="9"/>
<feColorMatrix type="matrix" values="0 0 0 0 0.364706 0 0 0 0 0.956863 0 0 0 0 0.827451 0 0 0 1 0"/>
<feBlend mode="normal" in2="BackgroundImageFix" result="effect1_dropShadow"/>
<feBlend mode="normal" in="SourceGraphic" in2="effect1_dropShadow" result="shape"/>
</filter>
<filter id="filter1_d" x="181" y="347.133" width="121.438" height="153.42" filterUnits="userSpaceOnUse" color-interpolation-filters="sRGB">
<feFlood flood-opacity="0" result="BackgroundImageFix"/>
<feColorMatrix in="SourceAlpha" type="matrix" values="0 0 0 0 0 0 0 0 0 0 0 0 0 0 0 0 0 0 127 0"/>
<feOffset dy="1"/>
<feGaussianBlur stdDeviation="9"/>
<feColorMatrix type="matrix" values="0 0 0 0 0.364706 0 0 0 0 0.956863 0 0 0 0 0.827451 0 0 0 1 0"/>
<feBlend mode="normal" in2="BackgroundImageFix" result="effect1_dropShadow"/>
<feBlend mode="normal" in="SourceGraphic" in2="effect1_dropShadow" result="shape"/>
</filter>
<filter id="filter2_d" x="315.5" y="347.133" width="76.4375" height="229.747" filterUnits="userSpaceOnUse" color-interpolation-filters="sRGB">
<feFlood flood-opacity="0" result="BackgroundImageFix"/>
<feColorMatrix in="SourceAlpha" type="matrix" values="0 0 0 0 0 0 0 0 0 0 0 0 0 0 0 0 0 0 127 0"/>
<feOffset dy="1"/>
<feGaussianBlur stdDeviation="9"/>
<feColorMatrix type="matrix" values="0 0 0 0 0.364706 0 0 0 0 0.956863 0 0 0 0 0.827451 0 0 0 1 0"/>
<feBlend mode="normal" in2="BackgroundImageFix" result="effect1_dropShadow"/>
<feBlend mode="normal" in="SourceGraphic" in2="effect1_dropShadow" result="shape"/>
</filter>
<filter id="filter3_d" x="364" y="347.133" width="243.379" height="103.704" filterUnits="userSpaceOnUse" color-interpolation-filters="sRGB">
<feFlood flood-opacity="0" result="BackgroundImageFix"/>
<feColorMatrix in="SourceAlpha" type="matrix" values="0 0 0 0 0 0 0 0 0 0 0 0 0 0 0 0 0 0 127 0"/>
<feOffset dy="1"/>
<feGaussianBlur stdDeviation="9"/>
<feColorMatrix type="matrix" values="0 0 0 0 0.364706 0 0 0 0 0.956863 0 0 0 0 0.827451 0 0 0 1 0"/>
<feBlend mode="normal" in2="BackgroundImageFix" result="effect1_dropShadow"/>
<feBlend mode="normal" in="SourceGraphic" in2="effect1_dropShadow" result="shape"/>
</filter>
<filter id="filter4_d" x="446" y="74.9695" width="237.379" height="106.717" filterUnits="userSpaceOnUse" color-interpolation-filters="sRGB">
<feFlood flood-opacity="0" result="BackgroundImageFix"/>
<feColorMatrix in="SourceAlpha" type="matrix" values="0 0 0 0 0 0 0 0 0 0 0 0 0 0 0 0 0 0 127 0"/>
<feOffset dy="1"/>
<feGaussianBlur stdDeviation="9"/>
<feColorMatrix type="matrix" values="0 0 0 0 0.364706 0 0 0 0 0.956863 0 0 0 0 0.827451 0 0 0 1 0"/>
<feBlend mode="normal" in2="BackgroundImageFix" result="effect1_dropShadow"/>
<feBlend mode="normal" in="SourceGraphic" in2="effect1_dropShadow" result="shape"/>
</filter>
<filter id="filter5_d" x="399" y="237.663" width="284.379" height="106.717" filterUnits="userSpaceOnUse" color-interpolation-filters="sRGB">
<feFlood flood-opacity="0" result="BackgroundImageFix"/>
<feColorMatrix in="SourceAlpha" type="matrix" values="0 0 0 0 0 0 0 0 0 0 0 0 0 0 0 0 0 0 127 0"/>
<feOffset dy="1"/>
<feGaussianBlur stdDeviation="9"/>
<feColorMatrix type="matrix" values="0 0 0 0 0.364706 0 0 0 0 0.956863 0 0 0 0 0.827451 0 0 0 1 0"/>
<feBlend mode="normal" in2="BackgroundImageFix" result="effect1_dropShadow"/>
<feBlend mode="normal" in="SourceGraphic" in2="effect1_dropShadow" result="shape"/>
</filter>
<filter id="filter6_d" x="343.752" y="141.941" width="38" height="128.611" filterUnits="userSpaceOnUse" color-interpolation-filters="sRGB">
<feFlood flood-opacity="0" result="BackgroundImageFix"/>
<feColorMatrix in="SourceAlpha" type="matrix" values="0 0 0 0 0 0 0 0 0 0 0 0 0 0 0 0 0 0 127 0"/>
<feOffset dy="1"/>
<feGaussianBlur stdDeviation="9"/>
<feColorMatrix type="matrix" values="0 0 0 0 0.364706 0 0 0 0 0.956863 0 0 0 0 0.827451 0 0 0 1 0"/>
<feBlend mode="normal" in2="BackgroundImageFix" result="effect1_dropShadow"/>
<feBlend mode="normal" in="SourceGraphic" in2="effect1_dropShadow" result="shape"/>
</filter>
<filter id="filter7_d" x="-20" y="391.438" width="281" height="211.478" filterUnits="userSpaceOnUse" color-interpolation-filters="sRGB">
<feFlood flood-opacity="0" result="BackgroundImageFix"/>
<feColorMatrix in="SourceAlpha" type="matrix" values="0 0 0 0 0 0 0 0 0 0 0 0 0 0 0 0 0 0 127 0"/>
<feOffset dy="6"/>
<feGaussianBlur stdDeviation="25"/>
<feColorMatrix type="matrix" values="0 0 0 0 0.121569 0 0 0 0 0.360784 0 0 0 0 0.898039 0 0 0 1 0"/>
<feBlend mode="normal" in2="BackgroundImageFix" result="effect1_dropShadow"/>
<feBlend mode="normal" in="SourceGraphic" in2="effect1_dropShadow" result="shape"/>
</filter>
<filter id="filter8_d" x="22" y="76.0857" width="167" height="215.495" filterUnits="userSpaceOnUse" color-interpolation-filters="sRGB">
<feFlood flood-opacity="0" result="BackgroundImageFix"/>
<feColorMatrix in="SourceAlpha" type="matrix" values="0 0 0 0 0 0 0 0 0 0 0 0 0 0 0 0 0 0 127 0"/>
<feOffset dy="6"/>
<feGaussianBlur stdDeviation="25"/>
<feColorMatrix type="matrix" values="0 0 0 0 0.121569 0 0 0 0 0.360784 0 0 0 0 0.898039 0 0 0 1 0"/>
<feBlend mode="normal" in2="BackgroundImageFix" result="effect1_dropShadow"/>
<feBlend mode="normal" in="SourceGraphic" in2="effect1_dropShadow" result="shape"/>
</filter>
<filter id="filter9_d" x="300" y="0.762695" width="216" height="215.495" filterUnits="userSpaceOnUse" color-interpolation-filters="sRGB">
<feFlood flood-opacity="0" result="BackgroundImageFix"/>
<feColorMatrix in="SourceAlpha" type="matrix" values="0 0 0 0 0 0 0 0 0 0 0 0 0 0 0 0 0 0 127 0"/>
<feOffset dy="6"/>
<feGaussianBlur stdDeviation="25"/>
<feColorMatrix type="matrix" values="0 0 0 0 0.121569 0 0 0 0 0.360784 0 0 0 0 0.898039 0 0 0 1 0"/>
<feBlend mode="normal" in2="BackgroundImageFix" result="effect1_dropShadow"/>
<feBlend mode="normal" in="SourceGraphic" in2="effect1_dropShadow" result="shape"/>
</filter>
<filter id="filter10_d" x="400" y="8.79712" width="106" height="104.017" filterUnits="userSpaceOnUse" color-interpolation-filters="sRGB">
<feFlood flood-opacity="0" result="BackgroundImageFix"/>
<feColorMatrix in="SourceAlpha" type="matrix" values="0 0 0 0 0 0 0 0 0 0 0 0 0 0 0 0 0 0 127 0"/>
<feOffset dy="6"/>
<feGaussianBlur stdDeviation="25"/>
<feColorMatrix type="matrix" values="0 0 0 0 0.121569 0 0 0 0 0.360784 0 0 0 0 0.898039 0 0 0 1 0"/>
<feBlend mode="normal" in2="BackgroundImageFix" result="effect1_dropShadow"/>
<feBlend mode="normal" in="SourceGraphic" in2="effect1_dropShadow" result="shape"/>
</filter>
<filter id="filter11_d" x="393" y="8.79712" width="104" height="104.017" filterUnits="userSpaceOnUse" color-interpolation-filters="sRGB">
<feFlood flood-opacity="0" result="BackgroundImageFix"/>
<feColorMatrix in="SourceAlpha" type="matrix" values="0 0 0 0 0 0 0 0 0 0 0 0 0 0 0 0 0 0 127 0"/>
<feOffset dy="6"/>
<feGaussianBlur stdDeviation="25"/>
<feColorMatrix type="matrix" values="0 0 0 0 0.121569 0 0 0 0 0.360784 0 0 0 0 0.898039 0 0 0 1 0"/>
<feBlend mode="normal" in2="BackgroundImageFix" result="effect1_dropShadow"/>
<feBlend mode="normal" in="SourceGraphic" in2="effect1_dropShadow" result="shape"/>
</filter>
<filter id="filter12_d" x="385" y="8.79712" width="104" height="104.017" filterUnits="userSpaceOnUse" color-interpolation-filters="sRGB">
<feFlood flood-opacity="0" result="BackgroundImageFix"/>
<feColorMatrix in="SourceAlpha" type="matrix" values="0 0 0 0 0 0 0 0 0 0 0 0 0 0 0 0 0 0 127 0"/>
<feOffset dy="6"/>
<feGaussianBlur stdDeviation="25"/>
<feColorMatrix type="matrix" values="0 0 0 0 0.121569 0 0 0 0 0.360784 0 0 0 0 0.898039 0 0 0 1 0"/>
<feBlend mode="normal" in2="BackgroundImageFix" result="effect1_dropShadow"/>
<feBlend mode="normal" in="SourceGraphic" in2="effect1_dropShadow" result="shape"/>
</filter>
<filter id="filter13_d" x="310" y="8.79712" width="169" height="104.017" filterUnits="userSpaceOnUse" color-interpolation-filters="sRGB">
<feFlood flood-opacity="0" result="BackgroundImageFix"/>
<feColorMatrix in="SourceAlpha" type="matrix" values="0 0 0 0 0 0 0 0 0 0 0 0 0 0 0 0 0 0 127 0"/>
<feOffset dy="6"/>
<feGaussianBlur stdDeviation="25"/>
<feColorMatrix type="matrix" values="0 0 0 0 0.121569 0 0 0 0 0.360784 0 0 0 0 0.898039 0 0 0 1 0"/>
<feBlend mode="normal" in2="BackgroundImageFix" result="effect1_dropShadow"/>
<feBlend mode="normal" in="SourceGraphic" in2="effect1_dropShadow" result="shape"/>
</filter>
<filter id="filter14_d" x="557" y="116.258" width="204.936" height="195.409" filterUnits="userSpaceOnUse" color-interpolation-filters="sRGB">
<feFlood flood-opacity="0" result="BackgroundImageFix"/>
<feColorMatrix in="SourceAlpha" type="matrix" values="0 0 0 0 0 0 0 0 0 0 0 0 0 0 0 0 0 0 127 0"/>
<feOffset dy="6"/>
<feGaussianBlur stdDeviation="25"/>
<feColorMatrix type="matrix" values="0 0 0 0 0.121569 0 0 0 0 0.360784 0 0 0 0 0.898039 0 0 0 1 0"/>
<feBlend mode="normal" in2="BackgroundImageFix" result="effect1_dropShadow"/>
<feBlend mode="normal" in="SourceGraphic" in2="effect1_dropShadow" result="shape"/>
</filter>
<filter id="filter15_d" x="565.214" y="124.501" width="112.937" height="112.982" filterUnits="userSpaceOnUse" color-interpolation-filters="sRGB">
<feFlood flood-opacity="0" result="BackgroundImageFix"/>
<feColorMatrix in="SourceAlpha" type="matrix" values="0 0 0 0 0 0 0 0 0 0 0 0 0 0 0 0 0 0 127 0"/>
<feOffset dy="6"/>
<feGaussianBlur stdDeviation="25"/>
<feColorMatrix type="matrix" values="0 0 0 0 0.121569 0 0 0 0 0.360784 0 0 0 0 0.898039 0 0 0 1 0"/>
<feBlend mode="normal" in2="BackgroundImageFix" result="effect1_dropShadow"/>
<feBlend mode="normal" in="SourceGraphic" in2="effect1_dropShadow" result="shape"/>
</filter>
<filter id="filter16_d" x="565.214" y="157.472" width="112.937" height="112.982" filterUnits="userSpaceOnUse" color-interpolation-filters="sRGB">
<feFlood flood-opacity="0" result="BackgroundImageFix"/>
<feColorMatrix in="SourceAlpha" type="matrix" values="0 0 0 0 0 0 0 0 0 0 0 0 0 0 0 0 0 0 127 0"/>
<feOffset dy="6"/>
<feGaussianBlur stdDeviation="25"/>
<feColorMatrix type="matrix" values="0 0 0 0 0.121569 0 0 0 0 0.360784 0 0 0 0 0.898039 0 0 0 1 0"/>
<feBlend mode="normal" in2="BackgroundImageFix" result="effect1_dropShadow"/>
<feBlend mode="normal" in="SourceGraphic" in2="effect1_dropShadow" result="shape"/>
</filter>
<filter id="filter17_d" x="594.785" y="165.714" width="157.294" height="103.091" filterUnits="userSpaceOnUse" color-interpolation-filters="sRGB">
<feFlood flood-opacity="0" result="BackgroundImageFix"/>
<feColorMatrix in="SourceAlpha" type="matrix" values="0 0 0 0 0 0 0 0 0 0 0 0 0 0 0 0 0 0 127 0"/>
<feOffset dy="6"/>
<feGaussianBlur stdDeviation="25"/>
<feColorMatrix type="matrix" values="0 0 0 0 0.121569 0 0 0 0 0.360784 0 0 0 0 0.898039 0 0 0 1 0"/>
<feBlend mode="normal" in2="BackgroundImageFix" result="effect1_dropShadow"/>
<feBlend mode="normal" in="SourceGraphic" in2="effect1_dropShadow" result="shape"/>
</filter>
<filter id="filter18_d" x="594.785" y="159.12" width="157.294" height="103.091" filterUnits="userSpaceOnUse" color-interpolation-filters="sRGB">
<feFlood flood-opacity="0" result="BackgroundImageFix"/>
<feColorMatrix in="SourceAlpha" type="matrix" values="0 0 0 0 0 0 0 0 0 0 0 0 0 0 0 0 0 0 127 0"/>
<feOffset dy="6"/>
<feGaussianBlur stdDeviation="25"/>
<feColorMatrix type="matrix" values="0 0 0 0 0.121569 0 0 0 0 0.360784 0 0 0 0 0.898039 0 0 0 1 0"/>
<feBlend mode="normal" in2="BackgroundImageFix" result="effect1_dropShadow"/>
<feBlend mode="normal" in="SourceGraphic" in2="effect1_dropShadow" result="shape"/>
</filter>
<filter id="filter19_d" x="594.785" y="132.743" width="157.294" height="103.091" filterUnits="userSpaceOnUse" color-interpolation-filters="sRGB">
<feFlood flood-opacity="0" result="BackgroundImageFix"/>
<feColorMatrix in="SourceAlpha" type="matrix" values="0 0 0 0 0 0 0 0 0 0 0 0 0 0 0 0 0 0 127 0"/>
<feOffset dy="6"/>
<feGaussianBlur stdDeviation="25"/>
<feColorMatrix type="matrix" values="0 0 0 0 0.121569 0 0 0 0 0.360784 0 0 0 0 0.898039 0 0 0 1 0"/>
<feBlend mode="normal" in2="BackgroundImageFix" result="effect1_dropShadow"/>
<feBlend mode="normal" in="SourceGraphic" in2="effect1_dropShadow" result="shape"/>
</filter>
<filter id="filter20_d" x="594.785" y="126.149" width="157.294" height="103.091" filterUnits="userSpaceOnUse" color-interpolation-filters="sRGB">
<feFlood flood-opacity="0" result="BackgroundImageFix"/>
<feColorMatrix in="SourceAlpha" type="matrix" values="0 0 0 0 0 0 0 0 0 0 0 0 0 0 0 0 0 0 127 0"/>
<feOffset dy="6"/>
<feGaussianBlur stdDeviation="25"/>
<feColorMatrix type="matrix" values="0 0 0 0 0.121569 0 0 0 0 0.360784 0 0 0 0 0.898039 0 0 0 1 0"/>
<feBlend mode="normal" in2="BackgroundImageFix" result="effect1_dropShadow"/>
<feBlend mode="normal" in="SourceGraphic" in2="effect1_dropShadow" result="shape"/>
</filter>
<filter id="filter21_d" x="565.214" y="190.442" width="112.937" height="112.982" filterUnits="userSpaceOnUse" color-interpolation-filters="sRGB">
<feFlood flood-opacity="0" result="BackgroundImageFix"/>
<feColorMatrix in="SourceAlpha" type="matrix" values="0 0 0 0 0 0 0 0 0 0 0 0 0 0 0 0 0 0 127 0"/>
<feOffset dy="6"/>
<feGaussianBlur stdDeviation="25"/>
<feColorMatrix type="matrix" values="0 0 0 0 0.121569 0 0 0 0 0.360784 0 0 0 0 0.898039 0 0 0 1 0"/>
<feBlend mode="normal" in2="BackgroundImageFix" result="effect1_dropShadow"/>
<feBlend mode="normal" in="SourceGraphic" in2="effect1_dropShadow" result="shape"/>
</filter>
<filter id="filter22_d" x="594.785" y="198.685" width="157.294" height="103.091" filterUnits="userSpaceOnUse" color-interpolation-filters="sRGB">
<feFlood flood-opacity="0" result="BackgroundImageFix"/>
<feColorMatrix in="SourceAlpha" type="matrix" values="0 0 0 0 0 0 0 0 0 0 0 0 0 0 0 0 0 0 127 0"/>
<feOffset dy="6"/>
<feGaussianBlur stdDeviation="25"/>
<feColorMatrix type="matrix" values="0 0 0 0 0.121569 0 0 0 0 0.360784 0 0 0 0 0.898039 0 0 0 1 0"/>
<feBlend mode="normal" in2="BackgroundImageFix" result="effect1_dropShadow"/>
<feBlend mode="normal" in="SourceGraphic" in2="effect1_dropShadow" result="shape"/>
</filter>
<filter id="filter23_d" x="594.785" y="192.091" width="157.294" height="103.091" filterUnits="userSpaceOnUse" color-interpolation-filters="sRGB">
<feFlood flood-opacity="0" result="BackgroundImageFix"/>
<feColorMatrix in="SourceAlpha" type="matrix" values="0 0 0 0 0 0 0 0 0 0 0 0 0 0 0 0 0 0 127 0"/>
<feOffset dy="6"/>
<feGaussianBlur stdDeviation="25"/>
<feColorMatrix type="matrix" values="0 0 0 0 0.121569 0 0 0 0 0.360784 0 0 0 0 0.898039 0 0 0 1 0"/>
<feBlend mode="normal" in2="BackgroundImageFix" result="effect1_dropShadow"/>
<feBlend mode="normal" in="SourceGraphic" in2="effect1_dropShadow" result="shape"/>
</filter>
<filter id="filter24_d" x="172" y="205.641" width="296" height="215.495" filterUnits="userSpaceOnUse" color-interpolation-filters="sRGB">
<feFlood flood-opacity="0" result="BackgroundImageFix"/>
<feColorMatrix in="SourceAlpha" type="matrix" values="0 0 0 0 0 0 0 0 0 0 0 0 0 0 0 0 0 0 127 0"/>
<feOffset dy="6"/>
<feGaussianBlur stdDeviation="25"/>
<feColorMatrix type="matrix" values="0 0 0 0 0.121569 0 0 0 0 0.360784 0 0 0 0 0.898039 0 0 0 1 0"/>
<feBlend mode="normal" in2="BackgroundImageFix" result="effect1_dropShadow"/>
<feBlend mode="normal" in="SourceGraphic" in2="effect1_dropShadow" result="shape"/>
</filter>
<filter id="filter25_d" x="352" y="213.676" width="106" height="104.017" filterUnits="userSpaceOnUse" color-interpolation-filters="sRGB">
<feFlood flood-opacity="0" result="BackgroundImageFix"/>
<feColorMatrix in="SourceAlpha" type="matrix" values="0 0 0 0 0 0 0 0 0 0 0 0 0 0 0 0 0 0 127 0"/>
<feOffset dy="6"/>
<feGaussianBlur stdDeviation="25"/>
<feColorMatrix type="matrix" values="0 0 0 0 0.121569 0 0 0 0 0.360784 0 0 0 0 0.898039 0 0 0 1 0"/>
<feBlend mode="normal" in2="BackgroundImageFix" result="effect1_dropShadow"/>
<feBlend mode="normal" in="SourceGraphic" in2="effect1_dropShadow" result="shape"/>
</filter>
<filter id="filter26_d" x="345" y="213.676" width="104" height="104.017" filterUnits="userSpaceOnUse" color-interpolation-filters="sRGB">
<feFlood flood-opacity="0" result="BackgroundImageFix"/>
<feColorMatrix in="SourceAlpha" type="matrix" values="0 0 0 0 0 0 0 0 0 0 0 0 0 0 0 0 0 0 127 0"/>
<feOffset dy="6"/>
<feGaussianBlur stdDeviation="25"/>
<feColorMatrix type="matrix" values="0 0 0 0 0.121569 0 0 0 0 0.360784 0 0 0 0 0.898039 0 0 0 1 0"/>
<feBlend mode="normal" in2="BackgroundImageFix" result="effect1_dropShadow"/>
<feBlend mode="normal" in="SourceGraphic" in2="effect1_dropShadow" result="shape"/>
</filter>
<filter id="filter27_d" x="337" y="213.676" width="104" height="104.017" filterUnits="userSpaceOnUse" color-interpolation-filters="sRGB">
<feFlood flood-opacity="0" result="BackgroundImageFix"/>
<feColorMatrix in="SourceAlpha" type="matrix" values="0 0 0 0 0 0 0 0 0 0 0 0 0 0 0 0 0 0 127 0"/>
<feOffset dy="6"/>
<feGaussianBlur stdDeviation="25"/>
<feColorMatrix type="matrix" values="0 0 0 0 0.121569 0 0 0 0 0.360784 0 0 0 0 0.898039 0 0 0 1 0"/>
<feBlend mode="normal" in2="BackgroundImageFix" result="effect1_dropShadow"/>
<feBlend mode="normal" in="SourceGraphic" in2="effect1_dropShadow" result="shape"/>
</filter>
<filter id="filter28_d" x="182" y="213.676" width="169" height="104.017" filterUnits="userSpaceOnUse" color-interpolation-filters="sRGB">
<feFlood flood-opacity="0" result="BackgroundImageFix"/>
<feColorMatrix in="SourceAlpha" type="matrix" values="0 0 0 0 0 0 0 0 0 0 0 0 0 0 0 0 0 0 127 0"/>
<feOffset dy="6"/>
<feGaussianBlur stdDeviation="25"/>
<feColorMatrix type="matrix" values="0 0 0 0 0.121569 0 0 0 0 0.360784 0 0 0 0 0.898039 0 0 0 1 0"/>
<feBlend mode="normal" in2="BackgroundImageFix" result="effect1_dropShadow"/>
<feBlend mode="normal" in="SourceGraphic" in2="effect1_dropShadow" result="shape"/>
</filter>
<filter id="filter29_d" x="321" y="482.831" width="199" height="219.513" filterUnits="userSpaceOnUse" color-interpolation-filters="sRGB">
<feFlood flood-opacity="0" result="BackgroundImageFix"/>
<feColorMatrix in="SourceAlpha" type="matrix" values="0 0 0 0 0 0 0 0 0 0 0 0 0 0 0 0 0 0 127 0"/>
<feOffset dy="6"/>
<feGaussianBlur stdDeviation="25"/>
<feColorMatrix type="matrix" values="0 0 0 0 0.121569 0 0 0 0 0.360784 0 0 0 0 0.898039 0 0 0 1 0"/>
<feBlend mode="normal" in2="BackgroundImageFix" result="effect1_dropShadow"/>
<feBlend mode="normal" in="SourceGraphic" in2="effect1_dropShadow" result="shape"/>
</filter>
<filter id="filter30_d" x="363" y="528.024" width="116" height="116.069" filterUnits="userSpaceOnUse" color-interpolation-filters="sRGB">
<feFlood flood-opacity="0" result="BackgroundImageFix"/>
<feColorMatrix in="SourceAlpha" type="matrix" values="0 0 0 0 0 0 0 0 0 0 0 0 0 0 0 0 0 0 127 0"/>
<feOffset dy="6"/>
<feGaussianBlur stdDeviation="25"/>
<feColorMatrix type="matrix" values="0 0 0 0 0.0941176 0 0 0 0 0.854902 0 0 0 0 0.635294 0 0 0 1 0"/>
<feBlend mode="normal" in2="BackgroundImageFix" result="effect1_dropShadow"/>
<feBlend mode="normal" in="SourceGraphic" in2="effect1_dropShadow" result="shape"/>
</filter>
<filter id="filter31_d" x="539" y="346.245" width="182" height="184.362" filterUnits="userSpaceOnUse" color-interpolation-filters="sRGB">
<feFlood flood-opacity="0" result="BackgroundImageFix"/>
<feColorMatrix in="SourceAlpha" type="matrix" values="0 0 0 0 0 0 0 0 0 0 0 0 0 0 0 0 0 0 127 0"/>
<feOffset dy="6"/>
<feGaussianBlur stdDeviation="25"/>
<feColorMatrix type="matrix" values="0 0 0 0 0.121569 0 0 0 0 0.360784 0 0 0 0 0.898039 0 0 0 1 0"/>
<feBlend mode="normal" in2="BackgroundImageFix" result="effect1_dropShadow"/>
<feBlend mode="normal" in="SourceGraphic" in2="effect1_dropShadow" result="shape"/>
</filter>
<linearGradient id="paint0_linear" x1="421.774" y1="404.104" x2="421.774" y2="416.357" gradientUnits="userSpaceOnUse">
<stop stop-color="#05062C"/>
<stop offset="1" stop-color="#05062C" stop-opacity="0.01"/>
</linearGradient>
<linearGradient id="paint1_linear" x1="44.0016" y1="518.553" x2="117.004" y2="639.556" gradientUnits="userSpaceOnUse">
<stop stop-color="#05062C"/>
<stop offset="1" stop-color="#05062C" stop-opacity="0.01"/>
</linearGradient>
<linearGradient id="paint2_linear" x1="34.0016" y1="508.51" x2="107.004" y2="629.513" gradientUnits="userSpaceOnUse">
<stop stop-color="#05062C"/>
<stop offset="1" stop-color="#05062C" stop-opacity="0.01"/>
</linearGradient>
<linearGradient id="paint3_linear" x1="-110.315" y1="471.901" x2="-12.5802" y2="673.534" gradientUnits="userSpaceOnUse">
<stop stop-color="#83C3F7"/>
<stop offset="1" stop-color="#1B58E4"/>
</linearGradient>
<linearGradient id="paint4_linear" x1="94.1719" y1="490.69" x2="123.786" y2="525.433" gradientUnits="userSpaceOnUse">
<stop stop-color="#18DAA2" stop-opacity="0.01"/>
<stop offset="1" stop-color="#18DAA2"/>
</linearGradient>
<linearGradient id="paint5_linear" x1="105" y1="488.667" x2="121.069" y2="504.667" gradientUnits="userSpaceOnUse">
<stop stop-color="#7CFFE9"/>
<stop offset="1" stop-color="#18DAA2"/>
</linearGradient>
<linearGradient id="paint6_linear" x1="79.7126" y1="595.927" x2="79.7126" y2="608.18" gradientUnits="userSpaceOnUse">
<stop stop-color="#05062C"/>
<stop offset="1" stop-color="#05062C" stop-opacity="0.01"/>
</linearGradient>
<linearGradient id="paint7_linear" x1="81.6612" y1="204.077" x2="161.651" y2="255.573" gradientUnits="userSpaceOnUse">
<stop stop-color="#05062C"/>
<stop offset="1" stop-color="#05062C" stop-opacity="0.01"/>
</linearGradient>
<linearGradient id="paint8_linear" x1="71.6612" y1="194.034" x2="151.651" y2="245.53" gradientUnits="userSpaceOnUse">
<stop stop-color="#05062C"/>
<stop offset="1" stop-color="#05062C" stop-opacity="0.01"/>
</linearGradient>
<linearGradient id="paint9_linear" x1="23.6412" y1="173.701" x2="145.168" y2="244.561" gradientUnits="userSpaceOnUse">
<stop stop-color="#83C3F7"/>
<stop offset="1" stop-color="#1B58E4"/>
</linearGradient>
<linearGradient id="paint10_linear" x1="78.1719" y1="180.359" x2="107.786" y2="215.102" gradientUnits="userSpaceOnUse">
<stop stop-color="#18DAA2" stop-opacity="0.01"/>
<stop offset="1" stop-color="#18DAA2"/>
</linearGradient>
<linearGradient id="paint11_linear" x1="89" y1="178.336" x2="105.069" y2="194.336" gradientUnits="userSpaceOnUse">
<stop stop-color="#7CFFE9"/>
<stop offset="1" stop-color="#18DAA2"/>
</linearGradient>
<linearGradient id="paint12_linear" x1="54.7126" y1="97.7899" x2="54.7126" y2="110.043" gradientUnits="userSpaceOnUse">
<stop stop-color="#05062C"/>
<stop offset="1" stop-color="#05062C" stop-opacity="0.01"/>
</linearGradient>
<linearGradient id="paint13_linear" x1="352.1" y1="128.754" x2="439.457" y2="226.124" gradientUnits="userSpaceOnUse">
<stop stop-color="#05062C"/>
<stop offset="1" stop-color="#05062C" stop-opacity="0.01"/>
</linearGradient>
<linearGradient id="paint14_linear" x1="342.1" y1="118.711" x2="429.457" y2="216.081" gradientUnits="userSpaceOnUse">
<stop stop-color="#05062C"/>
<stop offset="1" stop-color="#05062C" stop-opacity="0.01"/>
</linearGradient>
<linearGradient id="paint15_linear" x1="408" y1="-12.985" x2="523.494" y2="103.014" gradientUnits="userSpaceOnUse">
<stop stop-color="#83C3F7"/>
<stop offset="1" stop-color="#1B58E4"/>
</linearGradient>
<linearGradient id="paint16_linear" x1="460.331" y1="54.662" x2="455.849" y2="61.3905" gradientUnits="userSpaceOnUse">
<stop stop-color="#83C3F7"/>
<stop offset="1" stop-color="#1B58E4"/>
</linearGradient>
<linearGradient id="paint17_linear" x1="449.887" y1="54.662" x2="445.03" y2="59.523" gradientUnits="userSpaceOnUse">
<stop stop-color="#83C3F7"/>
<stop offset="1" stop-color="#1B58E4"/>
</linearGradient>
<linearGradient id="paint18_linear" x1="441.887" y1="54.662" x2="437.03" y2="59.523" gradientUnits="userSpaceOnUse">
<stop stop-color="#83C3F7"/>
<stop offset="1" stop-color="#1B58E4"/>
</linearGradient>
<linearGradient id="paint19_linear" x1="900.713" y1="37.8777" x2="900.948" y2="101.095" gradientUnits="userSpaceOnUse">
<stop stop-color="#83C3F7"/>
<stop offset="1" stop-color="#1B58E4"/>
</linearGradient>
<linearGradient id="paint20_linear" x1="382.172" y1="111.062" x2="411.786" y2="145.805" gradientUnits="userSpaceOnUse">
<stop stop-color="#18DAA2" stop-opacity="0.01"/>
<stop offset="1" stop-color="#18DAA2"/>
</linearGradient>
<linearGradient id="paint21_linear" x1="393" y1="109.039" x2="409.069" y2="125.038" gradientUnits="userSpaceOnUse">
<stop stop-color="#7CFFE9"/>
<stop offset="1" stop-color="#18DAA2"/>
</linearGradient>
<linearGradient id="paint22_linear" x1="343.596" y1="19.454" x2="343.596" y2="31.7067" gradientUnits="userSpaceOnUse">
<stop stop-color="#05062C"/>
<stop offset="1" stop-color="#05062C" stop-opacity="0.01"/>
</linearGradient>
<linearGradient id="paint23_linear" x1="610.797" y1="233.136" x2="681.96" y2="320.049" gradientUnits="userSpaceOnUse">
<stop stop-color="#05062C"/>
<stop offset="1" stop-color="#05062C" stop-opacity="0.01"/>
</linearGradient>
<linearGradient id="paint24_linear" x1="600.797" y1="223.093" x2="671.96" y2="310.006" gradientUnits="userSpaceOnUse">
<stop stop-color="#05062C"/>
<stop offset="1" stop-color="#05062C" stop-opacity="0.01"/>
</linearGradient>
<linearGradient id="paint25_linear" x1="555.625" y1="207.466" x2="649.521" y2="311.824" gradientUnits="userSpaceOnUse">
<stop stop-color="#83C3F7"/>
<stop offset="1" stop-color="#1B58E4"/>
</linearGradient>
<linearGradient id="paint26_linear" x1="573.747" y1="180.067" x2="599.423" y2="263.239" gradientUnits="userSpaceOnUse">
<stop stop-color="#83C3F7"/>
<stop offset="1" stop-color="#1B58E4"/>
</linearGradient>
<linearGradient id="paint27_linear" x1="573.747" y1="213.038" x2="599.423" y2="296.21" gradientUnits="userSpaceOnUse">
<stop stop-color="#83C3F7"/>
<stop offset="1" stop-color="#1B58E4"/>
</linearGradient>
<linearGradient id="paint28_linear" x1="-180.032" y1="171.868" x2="-179.843" y2="261.177" gradientUnits="userSpaceOnUse">
<stop stop-color="#83C3F7"/>
<stop offset="1" stop-color="#1B58E4"/>
</linearGradient>
<linearGradient id="paint29_linear" x1="-180.032" y1="165.274" x2="-179.843" y2="254.583" gradientUnits="userSpaceOnUse">
<stop stop-color="#83C3F7"/>
<stop offset="1" stop-color="#1B58E4"/>
</linearGradient>
<linearGradient id="paint30_linear" x1="-180.032" y1="138.897" x2="-179.843" y2="228.206" gradientUnits="userSpaceOnUse">
<stop stop-color="#83C3F7"/>
<stop offset="1" stop-color="#1B58E4"/>
</linearGradient>
<linearGradient id="paint31_linear" x1="-180.032" y1="132.303" x2="-179.843" y2="221.612" gradientUnits="userSpaceOnUse">
<stop stop-color="#83C3F7"/>
<stop offset="1" stop-color="#1B58E4"/>
</linearGradient>
<linearGradient id="paint32_linear" x1="573.747" y1="246.009" x2="599.423" y2="329.181" gradientUnits="userSpaceOnUse">
<stop stop-color="#83C3F7"/>
<stop offset="1" stop-color="#1B58E4"/>
</linearGradient>
<linearGradient id="paint33_linear" x1="-180.032" y1="204.839" x2="-179.843" y2="294.148" gradientUnits="userSpaceOnUse">
<stop stop-color="#83C3F7"/>
<stop offset="1" stop-color="#1B58E4"/>
</linearGradient>
<linearGradient id="paint34_linear" x1="-180.032" y1="198.245" x2="-179.843" y2="287.553" gradientUnits="userSpaceOnUse">
<stop stop-color="#83C3F7"/>
<stop offset="1" stop-color="#1B58E4"/>
</linearGradient>
<linearGradient id="paint35_linear" x1="503.713" y1="242.41" x2="503.713" y2="254.663" gradientUnits="userSpaceOnUse">
<stop stop-color="#05062C"/>
<stop offset="1" stop-color="#05062C" stop-opacity="0.01"/>
</linearGradient>
<linearGradient id="paint36_linear" x1="211.755" y1="333.633" x2="284.548" y2="470.726" gradientUnits="userSpaceOnUse">
<stop stop-color="#05062C"/>
<stop offset="1" stop-color="#05062C" stop-opacity="0.01"/>
</linearGradient>
<linearGradient id="paint37_linear" x1="201.755" y1="323.59" x2="274.548" y2="460.683" gradientUnits="userSpaceOnUse">
<stop stop-color="#05062C"/>
<stop offset="1" stop-color="#05062C" stop-opacity="0.01"/>
</linearGradient>
<linearGradient id="paint38_linear" x1="320" y1="191.894" x2="421.033" y2="363.35" gradientUnits="userSpaceOnUse">
<stop stop-color="#83C3F7"/>
<stop offset="1" stop-color="#1B58E4"/>
</linearGradient>
<linearGradient id="paint39_linear" x1="412.331" y1="259.541" x2="407.849" y2="266.269" gradientUnits="userSpaceOnUse">
<stop stop-color="#83C3F7"/>
<stop offset="1" stop-color="#1B58E4"/>
</linearGradient>
<linearGradient id="paint40_linear" x1="401.887" y1="259.541" x2="397.03" y2="264.402" gradientUnits="userSpaceOnUse">
<stop stop-color="#83C3F7"/>
<stop offset="1" stop-color="#1B58E4"/>
</linearGradient>
<linearGradient id="paint41_linear" x1="393.887" y1="259.541" x2="389.03" y2="264.402" gradientUnits="userSpaceOnUse">
<stop stop-color="#83C3F7"/>
<stop offset="1" stop-color="#1B58E4"/>
</linearGradient>
<linearGradient id="paint42_linear" x1="772.713" y1="242.756" x2="772.948" y2="305.973" gradientUnits="userSpaceOnUse">
<stop stop-color="#83C3F7"/>
<stop offset="1" stop-color="#1B58E4"/>
</linearGradient>
<linearGradient id="paint43_linear" x1="232" y1="312.324" x2="281.968" y2="391.681" gradientUnits="userSpaceOnUse">
<stop stop-color="#7CFFE9"/>
<stop offset="1" stop-color="#18DAA2"/>
</linearGradient>
<linearGradient id="paint44_linear" x1="210.995" y1="226.341" x2="210.995" y2="238.594" gradientUnits="userSpaceOnUse">
<stop stop-color="#05062C"/>
<stop offset="1" stop-color="#05062C" stop-opacity="0.01"/>
</linearGradient>
<linearGradient id="paint45_linear" x1="371.723" y1="613.045" x2="462.331" y2="696.34" gradientUnits="userSpaceOnUse">
<stop stop-color="#05062C"/>
<stop offset="1" stop-color="#05062C" stop-opacity="0.01"/>
</linearGradient>
<linearGradient id="paint46_linear" x1="361.723" y1="603.002" x2="452.331" y2="686.297" gradientUnits="userSpaceOnUse">
<stop stop-color="#05062C"/>
<stop offset="1" stop-color="#05062C" stop-opacity="0.01"/>
</linearGradient>
<linearGradient id="paint47_linear" x1="324.887" y1="585.725" x2="435.057" y2="679.18" gradientUnits="userSpaceOnUse">
<stop stop-color="#83C3F7"/>
<stop offset="1" stop-color="#1B58E4"/>
</linearGradient>
<linearGradient id="paint48_linear" x1="394.172" y1="582.082" x2="423.786" y2="616.825" gradientUnits="userSpaceOnUse">
<stop stop-color="#18DAA2" stop-opacity="0.01"/>
<stop offset="1" stop-color="#18DAA2"/>
</linearGradient>
<linearGradient id="paint49_linear" x1="377.713" y1="695.353" x2="377.713" y2="707.606" gradientUnits="userSpaceOnUse">
<stop stop-color="#05062C"/>
<stop offset="1" stop-color="#05062C" stop-opacity="0.01"/>
</linearGradient>
<linearGradient id="paint50_linear" x1="596.347" y1="463.739" x2="647.171" y2="530.482" gradientUnits="userSpaceOnUse">
<stop stop-color="#05062C"/>
<stop offset="1" stop-color="#05062C" stop-opacity="0.01"/>
</linearGradient>
<linearGradient id="paint51_linear" x1="586.347" y1="453.696" x2="637.171" y2="520.439" gradientUnits="userSpaceOnUse">
<stop stop-color="#05062C"/>
<stop offset="1" stop-color="#05062C" stop-opacity="0.01"/>
</linearGradient>
<linearGradient id="paint52_linear" x1="550.805" y1="431.817" x2="629.627" y2="510.274" gradientUnits="userSpaceOnUse">
<stop stop-color="#83C3F7"/>
<stop offset="1" stop-color="#1B58E4"/>
</linearGradient>
<linearGradient id="paint53_linear" x1="591.713" y1="523.617" x2="591.713" y2="535.87" gradientUnits="userSpaceOnUse">
<stop stop-color="#05062C"/>
<stop offset="1" stop-color="#05062C" stop-opacity="0.01"/>
</linearGradient>
</defs>
</svg>
