<?xml version="1.0" encoding="UTF-8"?>
<svg width="764px" height="704px" viewBox="0 0 764 704" version="1.1" xmlns="http://www.w3.org/2000/svg" xmlns:xlink="http://www.w3.org/1999/xlink">
    <!-- Generator: Sketch 52.3 (67297) - http://www.bohemiancoding.com/sketch -->
    <title>Group 21</title>
    <desc>Created with Sketch.</desc>
    <defs>
        <linearGradient x1="26.5581273%" y1="18.6653646%" x2="26.5581273%" y2="100%" id="linearGradient-1">
            <stop stop-color="#05062C" offset="0%"></stop>
            <stop stop-color="#05062C" stop-opacity="0" offset="100%"></stop>
        </linearGradient>
        <rect id="path-2" x="0" y="10" width="115" height="15"></rect>
        <linearGradient x1="26.5581273%" y1="17.4957541%" x2="102.230061%" y2="101.474185%" id="linearGradient-3">
            <stop stop-color="#05062C" offset="0%"></stop>
            <stop stop-color="#05062C" stop-opacity="0" offset="100%"></stop>
        </linearGradient>
        <rect id="path-4" x="39" y="23" width="162" height="108" rx="9"></rect>
        <rect id="path-5" x="29" y="13" width="162" height="108" rx="9"></rect>
        <linearGradient x1="-8.55490331%" y1="-21.5688345%" x2="100%" y2="116.365489%" id="linearGradient-6">
            <stop stop-color="#83C3F7" offset="0%"></stop>
            <stop stop-color="#1B58E4" offset="100%"></stop>
        </linearGradient>
        <path d="M180.76934,105.160388 L170.009793,105.160388 C170.941151,103.857437 171.503123,102.268974 171.503123,100.546429 L171.503123,7.98017582 C171.503123,3.57916958 167.918185,0 163.51397,0 L17.3808204,0 C12.978183,0 9.3948245,3.58074701 9.3948245,7.98017582 L9.3948245,100.546429 C9.3948245,102.303677 9.98521044,103.918957 10.9528751,105.240836 L0.0907209217,105.240836 C0.0907209217,105.240836 -0.397057837,105.734569 0.889478372,107.01859 C4.53755835,110.665589 12.7319258,110.981073 12.7319258,110.981073 L12.7319258,110.971609 C12.7319258,110.971609 166.222799,111.007889 166.393285,110.998425 C174.949145,110.998425 177.711646,108.435115 179.97374,106.939719 C181.648605,105.258188 180.76934,105.160388 180.76934,105.160388 Z M100.708902,107.106926 L80.1448446,107.106926 L80.1448446,105.710908 L100.705745,105.710908 L100.708902,107.106926 Z M165.607156,98.7118882 L15.0524267,98.7118882 L15.0524267,5.38058504 L165.608735,5.38058504 L165.608735,98.7118882 L165.607156,98.7118882 Z" id="path-7"></path>
        <filter x="-43.1%" y="-64.9%" width="186.1%" height="240.5%" filterUnits="objectBoundingBox" id="filter-8">
            <feOffset dx="0" dy="6" in="SourceAlpha" result="shadowOffsetOuter1"></feOffset>
            <feGaussianBlur stdDeviation="25" in="shadowOffsetOuter1" result="shadowBlurOuter1"></feGaussianBlur>
            <feColorMatrix values="0 0 0 0 0.121568627   0 0 0 0 0.360784314   0 0 0 0 0.898039216  0 0 0 1 0" type="matrix" in="shadowBlurOuter1"></feColorMatrix>
        </filter>
        <linearGradient x1="30.0694444%" y1="22.8472222%" x2="95.5512153%" y2="100%" id="linearGradient-9">
            <stop stop-color="#18DAA2" stop-opacity="0" offset="0%"></stop>
            <stop stop-color="#18DAA2" offset="100%"></stop>
        </linearGradient>
        <linearGradient x1="0%" y1="0%" x2="100%" y2="100%" id="linearGradient-10">
            <stop stop-color="#7CFFE9" offset="0%"></stop>
            <stop stop-color="#18DAA2" offset="100%"></stop>
        </linearGradient>
        <rect id="path-11" x="0" y="10" width="80" height="15"></rect>
        <rect id="path-12" x="10" y="10" width="67" height="115" rx="9"></rect>
        <rect id="path-13" x="0" y="0" width="67" height="115" rx="9"></rect>
        <linearGradient x1="-11.4155784%" y1="-14.030231%" x2="109.488689%" y2="107.493207%" id="linearGradient-14">
            <stop stop-color="#83C3F7" offset="0%"></stop>
            <stop stop-color="#1B58E4" offset="100%"></stop>
        </linearGradient>
        <path d="M67,7.76765035 L67,107.232347 C67,111.507184 63.5005656,114.999998 59.2102985,114.999998 L7.78970147,114.999998 C3.50602469,115.003283 0,111.510469 0,107.235633 L0,7.76765035 C2.92666867e-15,3.49609982 3.50602469,0 7.78970147,0 L59.2070034,0 C63.4906802,0 67,3.49281401 67,7.76765035 Z M24.3312841,6.53875812 C24.3312841,7.0579158 24.7530615,7.47849924 25.273693,7.47849924 L41.7230119,7.47849924 C42.2436433,7.47849924 42.6654207,7.0579158 42.6654207,6.53875812 C42.6654207,6.01960044 42.2436433,5.59573119 41.7230119,5.59573119 L25.273693,5.59573119 C24.7563567,5.599017 24.3312841,6.01960044 24.3312841,6.53875812 Z M37.3932032,107.235633 C37.3932032,105.09 35.6500762,103.351808 33.4983524,103.351808 C31.3466286,103.351808 29.6035017,105.086715 29.6035017,107.235633 C29.6035017,109.384552 31.3466286,111.122744 33.4983524,111.122744 C35.6500762,111.122744 37.3932032,109.381266 37.3932032,107.235633 Z M61.5795013,12.3184946 L5.42379383,12.3184946 L5.42379383,100.627873 L61.5795013,100.627873 L61.5795013,12.3184946 Z" id="path-15"></path>
        <filter x="-116.4%" y="-62.6%" width="332.8%" height="235.7%" filterUnits="objectBoundingBox" id="filter-16">
            <feOffset dx="0" dy="6" in="SourceAlpha" result="shadowOffsetOuter1"></feOffset>
            <feGaussianBlur stdDeviation="25" in="shadowOffsetOuter1" result="shadowBlurOuter1"></feGaussianBlur>
            <feColorMatrix values="0 0 0 0 0.121568627   0 0 0 0 0.360784314   0 0 0 0 0.898039216  0 0 0 1 0" type="matrix" in="shadowBlurOuter1"></feColorMatrix>
        </filter>
        <rect id="path-17" x="0" y="10" width="80" height="15"></rect>
        <rect id="path-18" x="20" y="20" width="116" height="115" rx="9"></rect>
        <rect id="path-19" x="10" y="10" width="116" height="115" rx="9"></rect>
        <linearGradient x1="100%" y1="0%" x2="0%" y2="100%" id="linearGradient-20">
            <stop stop-color="#83C3F7" offset="0%"></stop>
            <stop stop-color="#1B58E4" offset="100%"></stop>
        </linearGradient>
        <path d="M106.33305,0 L9.66672331,0 C4.33050717,0.0062890625 0.00634373761,4.29318359 0,9.5834082 L0,105.416816 C0.00634373761,110.706816 4.33050717,114.993711 9.66672331,115 L106.333277,115 C111.669266,114.993711 115.99343,110.706816 116,105.416592 L116,9.5834082 C115.99343,4.29318359 111.669266,0.0062890625 106.33305,0 Z M112.133039,105.416592 C112.133039,108.592119 109.536411,111.166592 106.33305,111.166592 L9.66672331,111.166592 C6.46358894,111.166592 3.86673464,108.592344 3.86673464,105.416592 L3.86673464,19.1665918 L112.133265,19.1665918 L112.133265,105.416592 L112.133039,105.416592 Z M112.133265,15.3334082 L3.86673464,15.3334082 L3.86673464,9.5834082 C3.86673464,6.40788086 6.46358894,3.8334082 9.66672331,3.8334082 L106.333277,3.8334082 C109.536411,3.8334082 112.133265,6.40788086 112.133265,9.5834082 L112.133265,15.3334082 Z" id="path-21"></path>
        <filter x="-67.2%" y="-62.6%" width="234.5%" height="235.7%" filterUnits="objectBoundingBox" id="filter-22">
            <feOffset dx="0" dy="6" in="SourceAlpha" result="shadowOffsetOuter1"></feOffset>
            <feGaussianBlur stdDeviation="25" in="shadowOffsetOuter1" result="shadowBlurOuter1"></feGaussianBlur>
            <feColorMatrix values="0 0 0 0 0.121568627   0 0 0 0 0.360784314   0 0 0 0 0.898039216  0 0 0 1 0" type="matrix" in="shadowBlurOuter1"></feColorMatrix>
        </filter>
        <path d="M14,8 L12,8 C10.8953475,8 10,8.89529501 10,9.99988281 C10,11.1044706 10.8953475,12 12,12 L14,12 C15.1046525,12 16,11.104705 16,10.0001172 C16,8.89552938 15.1046525,8 14,8 Z" id="path-23"></path>
        <filter x="-1300.0%" y="-1800.0%" width="2700.0%" height="4000.0%" filterUnits="objectBoundingBox" id="filter-24">
            <feOffset dx="0" dy="6" in="SourceAlpha" result="shadowOffsetOuter1"></feOffset>
            <feGaussianBlur stdDeviation="25" in="shadowOffsetOuter1" result="shadowBlurOuter1"></feGaussianBlur>
            <feColorMatrix values="0 0 0 0 0.121568627   0 0 0 0 0.360784314   0 0 0 0 0.898039216  0 0 0 1 0" type="matrix" in="shadowBlurOuter1"></feColorMatrix>
        </filter>
        <path d="M21.7599461,8.16485494 C21.277143,7.94504835 20.7226226,7.94504835 20.2400539,8.16485494 C19.9977149,8.2662141 19.7745942,8.40807011 19.5800668,8.58433673 C18.8066444,9.37203552 18.8066444,10.6330558 19.5800668,11.4207546 C19.7745942,11.5970213 19.9977149,11.7388773 20.2400539,11.8402364 C20.7242632,12.0532545 21.2757368,12.0532545 21.7599461,11.8402364 C22.0022851,11.7388773 22.2254058,11.5970213 22.4199332,11.4207546 C23.1933556,10.6330558 23.1933556,9.37203552 22.4199332,8.58433673 C22.2254058,8.40807011 22.0022851,8.2662141 21.7599461,8.16485494 Z" id="path-25"></path>
        <filter x="-1950.0%" y="-1800.0%" width="4000.0%" height="4000.0%" filterUnits="objectBoundingBox" id="filter-26">
            <feOffset dx="0" dy="6" in="SourceAlpha" result="shadowOffsetOuter1"></feOffset>
            <feGaussianBlur stdDeviation="25" in="shadowOffsetOuter1" result="shadowBlurOuter1"></feGaussianBlur>
            <feColorMatrix values="0 0 0 0 0.121568627   0 0 0 0 0.360784314   0 0 0 0 0.898039216  0 0 0 1 0" type="matrix" in="shadowBlurOuter1"></feColorMatrix>
        </filter>
        <path d="M29.766606,8.15248304 C29.0162685,7.84190542 28.1520446,8.01460434 27.5800353,8.58995582 C27.4035818,8.78392077 27.2615753,9.00639624 27.1601087,9.24803452 C26.9466304,9.73084368 26.9466304,10.2807227 27.1601087,10.7635318 C27.2615753,11.0051701 27.4035818,11.2276456 27.5800353,11.4216105 C28.3685692,12.1927965 29.6309266,12.1927965 30.4194606,11.4216105 C30.5959141,11.2276456 30.7379205,11.0051701 30.8393871,10.7635318 C30.9513988,10.5268011 31.0062329,10.2674022 30.9994373,10.0056663 C31.0043583,9.19568735 30.5169435,8.46306067 29.766606,8.15248304 Z" id="path-27"></path>
        <filter x="-1950.0%" y="-1800.0%" width="4000.0%" height="4000.0%" filterUnits="objectBoundingBox" id="filter-28">
            <feOffset dx="0" dy="6" in="SourceAlpha" result="shadowOffsetOuter1"></feOffset>
            <feGaussianBlur stdDeviation="25" in="shadowOffsetOuter1" result="shadowBlurOuter1"></feGaussianBlur>
            <feColorMatrix values="0 0 0 0 0.121568627   0 0 0 0 0.360784314   0 0 0 0 0.898039216  0 0 0 1 0" type="matrix" in="shadowBlurOuter1"></feColorMatrix>
        </filter>
        <linearGradient x1="100%" y1="-321.386719%" x2="0%" y2="1245.89844%" id="linearGradient-29">
            <stop stop-color="#83C3F7" offset="0%"></stop>
            <stop stop-color="#1B58E4" offset="100%"></stop>
        </linearGradient>
        <path d="M104.083402,8 L38.916598,8 C37.8580106,8 37,8.89534747 37,10 C37,11.1046525 37.8580106,12 38.916598,12 L104.083402,12 C105.141989,12 106,11.1046525 106,10 C106,8.89534747 105.141989,8 104.083402,8 Z" id="path-30"></path>
        <filter x="-113.0%" y="-1800.0%" width="326.1%" height="4000.0%" filterUnits="objectBoundingBox" id="filter-31">
            <feOffset dx="0" dy="6" in="SourceAlpha" result="shadowOffsetOuter1"></feOffset>
            <feGaussianBlur stdDeviation="25" in="shadowOffsetOuter1" result="shadowBlurOuter1"></feGaussianBlur>
            <feColorMatrix values="0 0 0 0 0.121568627   0 0 0 0 0.360784314   0 0 0 0 0.898039216  0 0 0 1 0" type="matrix" in="shadowBlurOuter1"></feColorMatrix>
        </filter>
        <rect id="path-32" x="0" y="10" width="95" height="15"></rect>
        <rect id="path-33" x="20" y="20" width="105" height="95" rx="9"></rect>
        <rect id="path-34" x="10" y="10" width="105" height="95" rx="9"></rect>
        <linearGradient x1="1.04179186%" y1="0%" x2="100%" y2="100%" id="linearGradient-35">
            <stop stop-color="#83C3F7" offset="0%"></stop>
            <stop stop-color="#1B58E4" offset="100%"></stop>
        </linearGradient>
        <path d="M96.8242462,29.3412527 C101.296849,29.3412527 104.935715,25.7053996 104.935715,21.2365011 L104.935715,8.10475162 C104.935715,3.63585313 101.296849,0 96.8242462,0 L8.11146919,0 C3.63886669,0 0,3.63585313 0,8.10475162 L0,21.2365011 C0,25.7053996 3.63886669,29.3412527 8.11146919,29.3412527 L50.9277053,29.3412527 L50.9277053,32.8293737 L8.11146919,32.8293737 C3.63886669,32.8293737 0,36.4652268 0,40.9341253 L0,54.0658747 C0,58.5347732 3.63886669,62.1706263 8.11146919,62.1706263 L50.9277053,62.1706263 L50.9277053,65.6587473 L8.11146919,65.6587473 C3.63886669,65.6587473 0,69.2946004 0,73.7634989 L0,86.8952484 C0,91.3641469 3.63886669,95 8.11146919,95 L96.8242462,95 C101.296849,95 104.935715,91.3641469 104.935715,86.8952484 L104.935715,73.7634989 C104.935715,69.2946004 101.296849,65.6587473 96.8242462,65.6587473 L54.0080101,65.6587473 L54.0080101,62.1706263 L96.8242462,62.1706263 C101.296849,62.1706263 104.935715,58.5347732 104.935715,54.0658747 L104.935715,40.9341253 C104.935715,36.4652268 101.296849,32.8293737 96.8242462,32.8293737 L54.0080101,32.8293737 L54.0080101,29.3412527 L96.8242462,29.3412527 Z M101.855411,73.7634989 L101.855411,86.8952484 C101.855411,89.6672786 99.5983687,91.9222462 96.8242462,91.9222462 L8.11146919,91.9222462 C5.33734673,91.9222462 3.08030476,89.6672786 3.08030476,86.8952484 L3.08030476,73.7634989 C3.08030476,70.9914687 5.33734673,68.7365011 8.11146919,68.7365011 L96.8242462,68.7365011 C99.5983687,68.7365011 101.855411,70.9914687 101.855411,73.7634989 Z M101.855411,40.9341253 L101.855411,54.0658747 C101.855411,56.837905 99.5983687,59.0928726 96.8242462,59.0928726 L8.11146919,59.0928726 C5.33734673,59.0928726 3.08030476,56.837905 3.08030476,54.0658747 L3.08030476,40.9341253 C3.08030476,38.162095 5.33734673,35.9071274 8.11146919,35.9071274 L96.8242462,35.9071274 C99.5983687,35.9071274 101.855411,38.162095 101.855411,40.9341253 Z M3.08030476,21.2365011 L3.08030476,8.10475162 C3.08030476,5.33272138 5.33734673,3.07775378 8.11146919,3.07775378 L96.8242462,3.07775378 C99.5983687,3.07775378 101.855411,5.33272138 101.855411,8.10475162 L101.855411,21.2365011 C101.855411,24.0085313 99.5983687,26.2634989 96.8242462,26.2634989 L8.11146919,26.2634989 C5.33734673,26.2634989 3.08030476,24.0085313 3.08030476,21.2365011 Z" id="path-36"></path>
        <filter x="-74.3%" y="-75.8%" width="248.7%" height="264.2%" filterUnits="objectBoundingBox" id="filter-37">
            <feOffset dx="0" dy="6" in="SourceAlpha" result="shadowOffsetOuter1"></feOffset>
            <feGaussianBlur stdDeviation="25" in="shadowOffsetOuter1" result="shadowBlurOuter1"></feGaussianBlur>
            <feColorMatrix values="0 0 0 0 0.121568627   0 0 0 0 0.360784314   0 0 0 0 0.898039216  0 0 0 1 0" type="matrix" in="shadowBlurOuter1"></feColorMatrix>
        </filter>
        <linearGradient x1="0%" y1="-9.5088477%" x2="197.206303%" y2="631.537159%" id="linearGradient-38">
            <stop stop-color="#83C3F7" offset="0%"></stop>
            <stop stop-color="#1B58E4" offset="100%"></stop>
        </linearGradient>
        <path d="M14.682786,8.20734341 C11.1159985,8.20734341 8.21414602,11.1067927 8.21414602,14.6706263 C8.21414602,18.23446 11.1159985,21.1339093 14.682786,21.1339093 C18.2495736,21.1339093 21.151426,18.23446 21.151426,14.6706263 C21.151426,11.1067927 18.2495736,8.20734341 14.682786,8.20734341 Z M14.682786,18.0561555 C12.8144785,18.0561555 11.2944508,16.5373866 11.2944508,14.6706263 C11.2944508,12.8038661 12.8144785,11.2850972 14.682786,11.2850972 C16.5510935,11.2850972 18.0711212,12.8038661 18.0711212,14.6706263 C18.0711212,16.5373866 16.5510935,18.0561555 14.682786,18.0561555 Z" id="path-39"></path>
        <filter x="-602.9%" y="-557.0%" width="1305.8%" height="1306.8%" filterUnits="objectBoundingBox" id="filter-40">
            <feOffset dx="0" dy="6" in="SourceAlpha" result="shadowOffsetOuter1"></feOffset>
            <feGaussianBlur stdDeviation="25" in="shadowOffsetOuter1" result="shadowBlurOuter1"></feGaussianBlur>
            <feColorMatrix values="0 0 0 0 0.121568627   0 0 0 0 0.360784314   0 0 0 0 0.898039216  0 0 0 1 0" type="matrix" in="shadowBlurOuter1"></feColorMatrix>
        </filter>
        <path d="M14.682786,41.0367171 C11.1159985,41.0367171 8.21414602,43.9361663 8.21414602,47.5 C8.21414602,51.0638337 11.1159985,53.9632829 14.682786,53.9632829 C18.2495736,53.9632829 21.151426,51.0638337 21.151426,47.5 C21.151426,43.9361663 18.2495736,41.0367171 14.682786,41.0367171 Z M14.682786,50.8855292 C12.8144785,50.8855292 11.2944508,49.3667603 11.2944508,47.5 C11.2944508,45.6332397 12.8144785,44.1144708 14.682786,44.1144708 C16.5510935,44.1144708 18.0711212,45.6332397 18.0711212,47.5 C18.0711212,49.3667603 16.5510935,50.8855292 14.682786,50.8855292 Z" id="path-41"></path>
        <filter x="-602.9%" y="-557.0%" width="1305.8%" height="1306.8%" filterUnits="objectBoundingBox" id="filter-42">
            <feOffset dx="0" dy="6" in="SourceAlpha" result="shadowOffsetOuter1"></feOffset>
            <feGaussianBlur stdDeviation="25" in="shadowOffsetOuter1" result="shadowBlurOuter1"></feGaussianBlur>
            <feColorMatrix values="0 0 0 0 0.121568627   0 0 0 0 0.360784314   0 0 0 0 0.898039216  0 0 0 1 0" type="matrix" in="shadowBlurOuter1"></feColorMatrix>
        </filter>
        <linearGradient x1="2.80182584%" y1="-1281.03221%" x2="116.090481%" y2="1603.83209%" id="linearGradient-43">
            <stop stop-color="#83C3F7" offset="0%"></stop>
            <stop stop-color="#1B58E4" offset="100%"></stop>
        </linearGradient>
        <path d="M93.5385878,49.2440605 L39.3252241,49.2440605 C38.4746492,49.2440605 37.7850717,49.9328618 37.7850717,50.7829374 C37.7850717,51.633013 38.4746492,52.3218143 39.3252241,52.3218143 L93.5385878,52.3218143 C94.3891626,52.3218143 95.0787402,51.633013 95.0787402,50.7829374 C95.0787402,49.9328618 94.3891626,49.2440605 93.5385878,49.2440605 Z" id="path-44"></path>
        <filter x="-136.1%" y="-2339.4%" width="372.3%" height="5168.6%" filterUnits="objectBoundingBox" id="filter-45">
            <feOffset dx="0" dy="6" in="SourceAlpha" result="shadowOffsetOuter1"></feOffset>
            <feGaussianBlur stdDeviation="25" in="shadowOffsetOuter1" result="shadowBlurOuter1"></feGaussianBlur>
            <feColorMatrix values="0 0 0 0 0.121568627   0 0 0 0 0.360784314   0 0 0 0 0.898039216  0 0 0 1 0" type="matrix" in="shadowBlurOuter1"></feColorMatrix>
        </filter>
        <path d="M37.7850717,44.2170626 C37.7850717,45.0671382 38.4746492,45.7559395 39.3252241,45.7559395 L93.5385878,45.7559395 C94.3891626,45.7559395 95.0787402,45.0671382 95.0787402,44.2170626 C95.0787402,43.366987 94.3891626,42.6781857 93.5385878,42.6781857 L39.3252241,42.6781857 C38.4746492,42.6781857 37.7850717,43.366987 37.7850717,44.2170626 Z" id="path-46"></path>
        <filter x="-136.1%" y="-2339.4%" width="372.3%" height="5168.6%" filterUnits="objectBoundingBox" id="filter-47">
            <feOffset dx="0" dy="6" in="SourceAlpha" result="shadowOffsetOuter1"></feOffset>
            <feGaussianBlur stdDeviation="25" in="shadowOffsetOuter1" result="shadowBlurOuter1"></feGaussianBlur>
            <feColorMatrix values="0 0 0 0 0.121568627   0 0 0 0 0.360784314   0 0 0 0 0.898039216  0 0 0 1 0" type="matrix" in="shadowBlurOuter1"></feColorMatrix>
        </filter>
        <path d="M95.0787402,17.9535637 C95.0787402,17.1034881 94.3891626,16.4146868 93.5385878,16.4146868 L39.3252241,16.4146868 C38.4746492,16.4146868 37.7850717,17.1034881 37.7850717,17.9535637 C37.7850717,18.8036393 38.4746492,19.4924406 39.3252241,19.4924406 L93.5385878,19.4924406 C94.3891626,19.4924406 95.0787402,18.8036393 95.0787402,17.9535637 Z" id="path-48"></path>
        <filter x="-136.1%" y="-2339.4%" width="372.3%" height="5168.6%" filterUnits="objectBoundingBox" id="filter-49">
            <feOffset dx="0" dy="6" in="SourceAlpha" result="shadowOffsetOuter1"></feOffset>
            <feGaussianBlur stdDeviation="25" in="shadowOffsetOuter1" result="shadowBlurOuter1"></feGaussianBlur>
            <feColorMatrix values="0 0 0 0 0.121568627   0 0 0 0 0.360784314   0 0 0 0 0.898039216  0 0 0 1 0" type="matrix" in="shadowBlurOuter1"></feColorMatrix>
        </filter>
        <path d="M39.3252241,12.9265659 L93.5385878,12.9265659 C94.3891626,12.9265659 95.0787402,12.2377646 95.0787402,11.387689 C95.0787402,10.5376134 94.3891626,9.8488121 93.5385878,9.8488121 L39.3252241,9.8488121 C38.4746492,9.8488121 37.7850717,10.5376134 37.7850717,11.387689 C37.7850717,12.2377646 38.4746492,12.9265659 39.3252241,12.9265659 Z" id="path-50"></path>
        <filter x="-136.1%" y="-2339.4%" width="372.3%" height="5168.6%" filterUnits="objectBoundingBox" id="filter-51">
            <feOffset dx="0" dy="6" in="SourceAlpha" result="shadowOffsetOuter1"></feOffset>
            <feGaussianBlur stdDeviation="25" in="shadowOffsetOuter1" result="shadowBlurOuter1"></feGaussianBlur>
            <feColorMatrix values="0 0 0 0 0.121568627   0 0 0 0 0.360784314   0 0 0 0 0.898039216  0 0 0 1 0" type="matrix" in="shadowBlurOuter1"></feColorMatrix>
        </filter>
        <path d="M14.682786,73.8660907 C11.1159985,73.8660907 8.21414602,76.76554 8.21414602,80.3293737 C8.21414602,83.8932073 11.1159985,86.7926566 14.682786,86.7926566 C18.2495736,86.7926566 21.151426,83.8932073 21.151426,80.3293737 C21.151426,76.76554 18.2495736,73.8660907 14.682786,73.8660907 Z M14.682786,83.7149028 C12.8144785,83.7149028 11.2944508,82.1961339 11.2944508,80.3293737 C11.2944508,78.4626134 12.8144785,76.9438445 14.682786,76.9438445 C16.5510935,76.9438445 18.0711212,78.4626134 18.0711212,80.3293737 C18.0711212,82.1961339 16.5510935,83.7149028 14.682786,83.7149028 Z" id="path-52"></path>
        <filter x="-602.9%" y="-557.0%" width="1305.8%" height="1306.8%" filterUnits="objectBoundingBox" id="filter-53">
            <feOffset dx="0" dy="6" in="SourceAlpha" result="shadowOffsetOuter1"></feOffset>
            <feGaussianBlur stdDeviation="25" in="shadowOffsetOuter1" result="shadowBlurOuter1"></feGaussianBlur>
            <feColorMatrix values="0 0 0 0 0.121568627   0 0 0 0 0.360784314   0 0 0 0 0.898039216  0 0 0 1 0" type="matrix" in="shadowBlurOuter1"></feColorMatrix>
        </filter>
        <path d="M93.5385878,82.0734341 L39.3252241,82.0734341 C38.4746492,82.0734341 37.7850717,82.7622354 37.7850717,83.612311 C37.7850717,84.4623866 38.4746492,85.1511879 39.3252241,85.1511879 L93.5385878,85.1511879 C94.3891626,85.1511879 95.0787402,84.4623866 95.0787402,83.612311 C95.0787402,82.7622354 94.3891626,82.0734341 93.5385878,82.0734341 Z" id="path-54"></path>
        <filter x="-136.1%" y="-2339.4%" width="372.3%" height="5168.6%" filterUnits="objectBoundingBox" id="filter-55">
            <feOffset dx="0" dy="6" in="SourceAlpha" result="shadowOffsetOuter1"></feOffset>
            <feGaussianBlur stdDeviation="25" in="shadowOffsetOuter1" result="shadowBlurOuter1"></feGaussianBlur>
            <feColorMatrix values="0 0 0 0 0.121568627   0 0 0 0 0.360784314   0 0 0 0 0.898039216  0 0 0 1 0" type="matrix" in="shadowBlurOuter1"></feColorMatrix>
        </filter>
        <path d="M37.7850717,77.0464363 C37.7850717,77.8965119 38.4746492,78.5853132 39.3252241,78.5853132 L93.5385878,78.5853132 C94.3891626,78.5853132 95.0787402,77.8965119 95.0787402,77.0464363 C95.0787402,76.1963607 94.3891626,75.5075594 93.5385878,75.5075594 L39.3252241,75.5075594 C38.4746492,75.5075594 37.7850717,76.1963607 37.7850717,77.0464363 Z" id="path-56"></path>
        <filter x="-136.1%" y="-2339.4%" width="372.3%" height="5168.6%" filterUnits="objectBoundingBox" id="filter-57">
            <feOffset dx="0" dy="6" in="SourceAlpha" result="shadowOffsetOuter1"></feOffset>
            <feGaussianBlur stdDeviation="25" in="shadowOffsetOuter1" result="shadowBlurOuter1"></feGaussianBlur>
            <feColorMatrix values="0 0 0 0 0.121568627   0 0 0 0 0.360784314   0 0 0 0 0.898039216  0 0 0 1 0" type="matrix" in="shadowBlurOuter1"></feColorMatrix>
        </filter>
        <rect id="path-58" x="0" y="10" width="80" height="15"></rect>
        <rect id="path-59" x="20" y="20" width="196" height="115" rx="9"></rect>
        <rect id="path-60" x="10" y="10" width="196" height="115" rx="9"></rect>
        <path d="M186.33305,0 L9.66672331,0 C4.33050717,0.0062890625 0.00634373761,4.29318359 1.08002496e-12,9.5834082 L1.08002496e-12,105.416816 C0.00634373761,110.706816 4.33050717,114.993711 9.66672331,115 L186.333277,115 C191.669266,114.993711 195.99343,110.706816 196,105.416592 L196,9.5834082 C195.99343,4.29318359 191.669266,0.0062890625 186.33305,0 Z M186.33305,111.166592 L9.66672331,111.166592 C6.46358894,111.166592 3.86673464,108.592344 3.86673464,105.416592 L3.86673464,19.1665918 L192.133265,19.1665918 L192.133265,105.416592 C192.133039,108.592119 189.536411,111.166592 186.33305,111.166592 Z M3.86673464,15.3334082 L3.86673464,9.5834082 C3.86673464,6.40788086 6.46358894,3.8334082 9.66672331,3.8334082 L186.333277,3.8334082 C189.536411,3.8334082 192.133265,6.40788086 192.133265,9.5834082 L192.133265,15.3334082 L3.86673464,15.3334082 Z" id="path-61"></path>
        <filter x="-39.8%" y="-62.6%" width="179.6%" height="235.7%" filterUnits="objectBoundingBox" id="filter-62">
            <feOffset dx="0" dy="6" in="SourceAlpha" result="shadowOffsetOuter1"></feOffset>
            <feGaussianBlur stdDeviation="25" in="shadowOffsetOuter1" result="shadowBlurOuter1"></feGaussianBlur>
            <feColorMatrix values="0 0 0 0 0.121568627   0 0 0 0 0.360784314   0 0 0 0 0.898039216  0 0 0 1 0" type="matrix" in="shadowBlurOuter1"></feColorMatrix>
        </filter>
        <path d="M14,8 L12,8 C10.8953475,8 10,8.89529501 10,9.99988281 C10,11.1044706 10.8953475,12 12,12 L14,12 C15.1046525,12 16,11.104705 16,10.0001172 C16,8.89552938 15.1046525,8 14,8 Z" id="path-63"></path>
        <filter x="-1300.0%" y="-1800.0%" width="2700.0%" height="4000.0%" filterUnits="objectBoundingBox" id="filter-64">
            <feOffset dx="0" dy="6" in="SourceAlpha" result="shadowOffsetOuter1"></feOffset>
            <feGaussianBlur stdDeviation="25" in="shadowOffsetOuter1" result="shadowBlurOuter1"></feGaussianBlur>
            <feColorMatrix values="0 0 0 0 0.121568627   0 0 0 0 0.360784314   0 0 0 0 0.898039216  0 0 0 1 0" type="matrix" in="shadowBlurOuter1"></feColorMatrix>
        </filter>
        <path d="M21.7599461,8.16485494 C21.277143,7.94504835 20.7226226,7.94504835 20.2400539,8.16485494 C19.9977149,8.2662141 19.7745942,8.40807011 19.5800668,8.58433673 C18.8066444,9.37203552 18.8066444,10.6330558 19.5800668,11.4207546 C19.7745942,11.5970213 19.9977149,11.7388773 20.2400539,11.8402364 C20.7242632,12.0532545 21.2757368,12.0532545 21.7599461,11.8402364 C22.0022851,11.7388773 22.2254058,11.5970213 22.4199332,11.4207546 C23.1933556,10.6330558 23.1933556,9.37203552 22.4199332,8.58433673 C22.2254058,8.40807011 22.0022851,8.2662141 21.7599461,8.16485494 Z" id="path-65"></path>
        <filter x="-1950.0%" y="-1800.0%" width="4000.0%" height="4000.0%" filterUnits="objectBoundingBox" id="filter-66">
            <feOffset dx="0" dy="6" in="SourceAlpha" result="shadowOffsetOuter1"></feOffset>
            <feGaussianBlur stdDeviation="25" in="shadowOffsetOuter1" result="shadowBlurOuter1"></feGaussianBlur>
            <feColorMatrix values="0 0 0 0 0.121568627   0 0 0 0 0.360784314   0 0 0 0 0.898039216  0 0 0 1 0" type="matrix" in="shadowBlurOuter1"></feColorMatrix>
        </filter>
        <path d="M29.766606,8.15248304 C29.0162685,7.84190542 28.1520446,8.01460434 27.5800353,8.58995582 C27.4035818,8.78392077 27.2615753,9.00639624 27.1601087,9.24803452 C26.9466304,9.73084368 26.9466304,10.2807227 27.1601087,10.7635318 C27.2615753,11.0051701 27.4035818,11.2276456 27.5800353,11.4216105 C28.3685692,12.1927965 29.6309266,12.1927965 30.4194606,11.4216105 C30.5959141,11.2276456 30.7379205,11.0051701 30.8393871,10.7635318 C30.9513988,10.5268011 31.0062329,10.2674022 30.9994373,10.0056663 C31.0043583,9.19568735 30.5169435,8.46306067 29.766606,8.15248304 Z" id="path-67"></path>
        <filter x="-1950.0%" y="-1800.0%" width="4000.0%" height="4000.0%" filterUnits="objectBoundingBox" id="filter-68">
            <feOffset dx="0" dy="6" in="SourceAlpha" result="shadowOffsetOuter1"></feOffset>
            <feGaussianBlur stdDeviation="25" in="shadowOffsetOuter1" result="shadowBlurOuter1"></feGaussianBlur>
            <feColorMatrix values="0 0 0 0 0.121568627   0 0 0 0 0.360784314   0 0 0 0 0.898039216  0 0 0 1 0" type="matrix" in="shadowBlurOuter1"></feColorMatrix>
        </filter>
        <path d="M184.083402,8 L118.916598,8 C117.858011,8 117,8.89534747 117,10 C117,11.1046525 117.858011,12 118.916598,12 L184.083402,12 C185.141989,12 186,11.1046525 186,10 C186,8.89534747 185.141989,8 184.083402,8 Z" id="path-69"></path>
        <filter x="-113.0%" y="-1800.0%" width="326.1%" height="4000.0%" filterUnits="objectBoundingBox" id="filter-70">
            <feOffset dx="0" dy="6" in="SourceAlpha" result="shadowOffsetOuter1"></feOffset>
            <feGaussianBlur stdDeviation="25" in="shadowOffsetOuter1" result="shadowBlurOuter1"></feGaussianBlur>
            <feColorMatrix values="0 0 0 0 0.121568627   0 0 0 0 0.360784314   0 0 0 0 0.898039216  0 0 0 1 0" type="matrix" in="shadowBlurOuter1"></feColorMatrix>
        </filter>
        <rect id="path-71" x="0" y="10" width="78" height="15"></rect>
        <path d="M114.953703,39.931172 C114.917468,38.3563065 113.786404,36.9978458 112.206604,36.7825706 C104.842882,35.7736496 97.5804255,34.018366 90.4611314,31.417151 C83.3754845,28.8283618 75.5355256,25.2145142 67.0795642,20.454899 C66.0059274,19.8502242 64.9960262,19.8465126 63.9235217,20.454899 C55.5261194,25.2120936 47.7422931,28.8183565 40.6006753,31.417151 C33.4791165,34.0085221 26.2202189,35.7749406 18.9150563,36.7825706 C17.3350939,37.0002664 16.2265158,38.3563065 16.0506768,39.931172 C15.3499092,69.8447418 21.917907,94.3205957 35.691258,113.346469 C43.1945831,123.71034 52.5845778,132.122372 63.9235217,138.536572 C64.8001283,139.178525 66.1744869,139.12995 67.1968441,138.536572 C78.4498906,132.01538 87.8274293,123.664348 95.3134455,113.346469 C109.105076,94.3330217 115.619529,69.8458715 114.953703,39.931172 Z" id="path-72"></path>
        <path d="M104.953703,29.931172 C104.917468,28.3563065 103.786404,26.9978458 102.206604,26.7825706 C94.842882,25.7736496 87.5804255,24.018366 80.4611314,21.417151 C73.3754845,18.8283618 65.5355256,15.2145142 57.0795642,10.454899 C56.0059274,9.85022423 54.9960262,9.84651259 53.9235217,10.454899 C45.5261194,15.2120936 37.7422931,18.8183565 30.6006753,21.417151 C23.4791165,24.0085221 16.2202189,25.7749406 8.91505632,26.7825706 C7.33509391,27.0002664 6.2265158,28.3563065 6.05067684,29.931172 C5.34990924,59.8447418 11.917907,84.3205957 25.691258,103.346469 C33.1945831,113.71034 42.5845778,122.122372 53.9235217,128.536572 C54.8001283,129.178525 56.1744869,129.12995 57.1968441,128.536572 C68.4498906,122.01538 77.8274293,113.664348 85.3134455,103.346469 C99.1050761,84.3330217 105.619529,59.8458715 104.953703,29.931172 Z" id="path-73"></path>
        <linearGradient x1="1.24740997%" y1="2.57564706%" x2="94.6544034%" y2="98.2282596%" id="linearGradient-74">
            <stop stop-color="#83C3F7" offset="0%"></stop>
            <stop stop-color="#1B58E4" offset="100%"></stop>
        </linearGradient>
        <path d="M98.9537032,19.931172 C98.9174677,18.3563065 97.7864042,16.9978458 96.2066036,16.7825706 C88.842882,15.7736496 81.5804255,14.018366 74.4611314,11.417151 C67.3754845,8.82836184 59.5355256,5.2145142 51.0795642,0.454899018 C50.0059274,-0.149775766 48.9960262,-0.153487407 47.9235217,0.454899018 C39.5261194,5.21209356 31.7422931,8.81835655 24.6006753,11.417151 C17.4791165,14.0085221 10.2202189,15.7749406 2.91505632,16.7825706 C1.33509391,17.0002664 0.226515803,18.3563065 0.0506768414,19.931172 C-0.65009076,49.8447418 5.91790697,74.3205957 19.691258,93.3464692 C27.1945831,103.71034 36.5845778,112.122372 47.9235217,118.536572 C48.8001283,119.178525 50.1744869,119.12995 51.1968441,118.536572 C62.4498906,112.01538 71.8274293,103.664348 79.3134455,93.3464692 C93.1050761,74.3330217 99.6195295,49.8458715 98.9537032,19.931172 Z M74.0520267,89.6729125 C67.5450146,98.6395924 59.3808779,106.11629 49.50219,112.12221 C39.6233404,106.116129 31.4205418,98.6670263 24.9521915,89.6729125 C12.4221691,72.2504681 6.30565857,49.9615779 6.53876247,22.7886517 C13.4359527,21.6803234 20.2758781,19.8141747 27.1145093,17.3063961 C33.9531405,14.7997472 41.4352743,11.358733 49.50219,6.98609674 C57.5691057,11.358733 64.992357,14.7997472 71.8311499,17.3063961 C78.6697811,19.814336 85.5669714,21.6803234 92.4654558,22.7886517 C92.6987214,50.1369933 86.5433872,72.457029 74.0520267,89.6729125 Z" id="path-75"></path>
        <filter x="-78.8%" y="-60.5%" width="257.6%" height="231.1%" filterUnits="objectBoundingBox" id="filter-76">
            <feOffset dx="0" dy="6" in="SourceAlpha" result="shadowOffsetOuter1"></feOffset>
            <feGaussianBlur stdDeviation="25" in="shadowOffsetOuter1" result="shadowBlurOuter1"></feGaussianBlur>
            <feColorMatrix values="0 0 0 0 0.121568627   0 0 0 0 0.360784314   0 0 0 0 0.898039216  0 0 0 1 0" type="matrix" in="shadowBlurOuter1"></feColorMatrix>
        </filter>
        <path d="M14.4921221,1.5078579 C12.4816181,-0.502640134 9.21045549,-0.502608884 7.19995156,1.50788915 C5.82666763,2.88116906 5.3496667,4.90494834 5.94429286,6.74104029 L0.137344018,12.5480034 C0.0494375966,12.6359095 0,12.7549094 0,12.8794405 L0,15.5312505 C0,15.790344 0.209656659,16 0.468750916,16 L3.12056859,16 C3.24506884,16 3.36410032,15.9505625 3.45197549,15.8626564 L4.11482054,15.1993445 C4.21597698,15.0981884 4.26541458,14.9562823 4.2489458,14.8139074 L4.16653939,14.1016269 L5.15347882,14.0086894 C5.37779175,13.987627 5.55494835,13.8104709 5.57601089,13.5861586 L5.66894857,12.5992221 L6.38123121,12.6820657 C6.51351272,12.6999095 6.64673173,12.6555033 6.74698193,12.5667221 C6.84676337,12.4774722 6.90398223,12.3501911 6.90398223,12.2165349 L6.90398223,11.3437545 L7.76092141,11.3437545 C7.88542165,11.3437545 8.00445313,11.2943171 8.09232831,11.2064109 L9.2944244,10.0202246 C11.130053,10.6153178 13.1188381,10.1742557 14.4921221,8.80003828 C16.502626,6.78957149 16.502626,3.51835594 14.4921221,1.5078579 Z M13.1660257,4.82254217 C12.6176184,5.37094788 11.7258979,5.37094788 11.1774906,4.82254217 C10.6290833,4.27413645 10.6290833,3.38241857 11.1774906,2.83401286 C11.7258979,2.28560714 12.6176184,2.28560714 13.1660257,2.83401286 C13.714433,3.38241857 13.7144018,4.27413645 13.1660257,4.82254217 Z" id="path-77"></path>
        <filter x="-487.5%" y="-450.0%" width="1075.0%" height="1075.0%" filterUnits="objectBoundingBox" id="filter-78">
            <feOffset dx="0" dy="6" in="SourceAlpha" result="shadowOffsetOuter1"></feOffset>
            <feGaussianBlur stdDeviation="25" in="shadowOffsetOuter1" result="shadowBlurOuter1"></feGaussianBlur>
            <feColorMatrix values="0 0 0 0 0.0941176471   0 0 0 0 0.854901961   0 0 0 0 0.635294118  0 0 0 1 0" type="matrix" in="shadowBlurOuter1"></feColorMatrix>
        </filter>
        <rect id="path-79" x="0" y="10" width="80" height="15"></rect>
        <rect id="path-80" x="20" y="35" width="82" height="69" rx="9"></rect>
        <rect id="path-81" x="10" y="25" width="82" height="69" rx="9"></rect>
        <path d="M82,39.1306513 L78.025839,39.1306513 L78.025839,20.5913831 C78.025839,16.1467648 74.4602989,12.5309189 70.0775169,12.5309189 L64.6949489,12.5309189 L59.1867276,2.48757152 C58.3472241,0.952686965 56.749595,0 55.0169133,0 C54.2093178,0 53.4081535,0.211206536 52.7007345,0.609288214 L31.5612748,12.5306681 L7.9483221,12.5306681 C3.56554002,12.5306681 0,16.1465139 0,20.5911322 L0,75.9395358 C0,80.3841541 3.56554002,84 7.9483221,84 L70.0775169,84 C74.4602989,84 78.025839,80.3841541 78.025839,75.9395358 L78.025839,59.6846594 L82,59.6846594 L82,39.1306513 Z M70.0775169,15.7549541 C72.5255328,15.7549541 74.5253518,17.6410134 74.7939731,20.0543365 L68.8199931,20.0543365 L66.4639911,15.7549541 L70.0775169,15.7549541 Z M54.2474096,3.42721485 C54.9929204,3.00329674 55.9961691,3.29978858 56.4077583,4.05280761 L65.1827217,20.0528315 L24.7638689,20.0528315 L54.2474096,3.42721485 Z M74.8464112,75.9395358 C74.8464112,78.6059556 72.7065925,80.7759648 70.0772695,80.7759648 L7.9483221,80.7759648 C5.31899914,80.7759648 3.17918043,78.6059556 3.17918043,75.9395358 L3.17918043,20.5913831 C3.17918043,17.9249633 5.31899914,15.7549541 7.9483221,15.7549541 L25.8447853,15.7549541 L18.2207381,20.0545874 L8.9419242,20.0545874 C8.06284482,20.0545874 7.35221031,20.7767532 7.35221031,21.6667304 C7.35221031,22.5567076 8.06284482,23.2788734 8.9419242,23.2788734 L12.5027646,23.2788734 L70.5877984,23.2788734 L74.8464112,23.2788734 L74.8464112,39.1321564 L63.2212419,39.1321564 C57.8225963,39.1321564 53.4289308,43.5880624 53.4289308,49.0626262 L53.4289308,49.7559455 C53.4289308,55.23076 57.8228436,59.6864153 63.2212419,59.6864153 L74.8464112,59.6864153 L74.8464112,75.9395358 Z M78.8205722,56.4606242 L78.025839,56.4606242 L63.2212419,56.4606242 C59.5745713,56.4606242 56.6081112,53.4525615 56.6081112,49.7541896 L56.6081112,49.0608703 C56.6081112,45.3627492 59.5743239,42.3544357 63.2212419,42.3544357 L78.025839,42.3544357 L78.8205722,42.3544357 L78.8205722,56.4606242 Z M68.0903127,49.539973 C68.0903127,51.5068025 66.5196447,53.0993801 64.5804262,53.0993801 C62.6409604,53.0993801 61.0705398,51.5065517 61.0705398,49.539973 C61.0705398,47.5733943 62.6412078,45.9805659 64.5804262,45.9805659 C66.519892,45.9803151 68.0903127,47.5746485 68.0903127,49.539973 Z" id="path-82"></path>
        <filter x="-95.1%" y="-85.7%" width="290.2%" height="285.7%" filterUnits="objectBoundingBox" id="filter-83">
            <feOffset dx="0" dy="6" in="SourceAlpha" result="shadowOffsetOuter1"></feOffset>
            <feGaussianBlur stdDeviation="25" in="shadowOffsetOuter1" result="shadowBlurOuter1"></feGaussianBlur>
            <feColorMatrix values="0 0 0 0 0.121568627   0 0 0 0 0.360784314   0 0 0 0 0.898039216  0 0 0 1 0" type="matrix" in="shadowBlurOuter1"></feColorMatrix>
        </filter>
        <rect id="path-84" x="0" y="10" width="80" height="15"></rect>
    </defs>
    <g id="Page-1" stroke="none" stroke-width="1" fill="none" fill-rule="evenodd">
        <g id="Tablet" transform="translate(0.000000, -1853.000000)">
            <g id="Group-23" transform="translate(0.000000, 1720.000000)">
                <g id="Group-21" transform="translate(33.000000, 139.000000)">
                    <polyline id="Path-2" stroke="#18DAA2" opacity="0.400000006" points="91.0625 223.289062 91.0625 307.320312 194 307.320312"></polyline>
                    <polyline id="Path-2" stroke="#18DAA2" opacity="0.400000006" transform="translate(211.468750, 414.208984) scale(-1, 1) translate(-211.468750, -414.208984) " points="169 356 169 472.417969 253.9375 472.417969"></polyline>
                    <polyline id="Path-2-Copy" stroke="#18DAA2" opacity="0.400000006" points="304 356 304 548.417969 343.9375 548.417969"></polyline>
                    <polyline id="Path-2-Copy-2" stroke="#18DAA2" opacity="0.400000006" points="353 356 353 422.417969 559.378906 422.417969"></polyline>
                    <g id="Group-11-Copy" transform="translate(465.700000, 422.500000) rotate(-90.000000) translate(-465.700000, -422.500000) translate(461.200000, 419.800000)" fill="#17D2A5" fill-rule="nonzero">
                        <path d="M-0.908840816,0.909433667 C-1.41110716,0.407494745 -1.41137259,-0.406574471 -0.909433667,-0.908840816 C-0.407494745,-1.41110716 0.406574471,-1.41137259 0.908840816,-0.909433667 L5.40884082,3.58763283 C5.91110716,4.08957175 5.91137259,4.90364096 5.40943367,5.40590731 C4.90749474,5.90817365 4.09342553,5.90843908 3.59115918,5.40650016 L-0.908840816,0.909433667 Z" id="Stroke-354"></path>
                        <path d="M5.40884082,5.40650016 C4.90657447,5.90843908 4.09250526,5.90817365 3.59056633,5.40590731 C3.08862741,4.90364096 3.08889284,4.08957175 3.59115918,3.58763283 L8.09115918,-0.909433667 C8.59342553,-1.41137259 9.40749474,-1.41110716 9.90943367,-0.908840816 C10.4113726,-0.406574471 10.4111072,0.407494745 9.90884082,0.909433667 L5.40884082,5.40650016 Z" id="Stroke-355"></path>
                    </g>
                    <g id="Group-12-Copy-5" transform="translate(408.000000, 383.000000)">
                        <g id="Rectangle" opacity="0.298758371">
                            <use fill="#18DAA2" xlink:href="#path-2"></use>
                            <use fill="url(#linearGradient-1)" xlink:href="#path-2"></use>
                        </g>
                        <path d="M15.8301427,18 L15.8301427,7.2 L12.6621427,7.2 L12.6621427,5.4 L20.9961427,5.4 L20.9961427,7.2 L17.8281427,7.2 L17.8281427,18 L15.8301427,18 Z M26.5375713,8.37 L26.5375713,10.35 C24.4855713,10.35 23.8915713,11.916 23.8915713,13.95 L23.8915713,18 L21.9295713,18 L21.9295713,8.604 L23.8555713,8.604 L23.8555713,10.08 C24.2155713,9.144 25.2055713,8.37 26.5375713,8.37 Z M27.2909999,15.102 C27.2909999,13.284 28.7669999,12.006 30.9269999,12.006 C32.0069999,12.006 32.8169999,12.366 33.1769999,12.69 L33.1769999,11.808 C33.1769999,10.728 32.4209999,10.08 31.1789999,10.08 C30.1349999,10.08 29.2349999,10.44 28.5509999,10.818 L27.7949999,9.45 C28.5509999,8.964 29.8109999,8.37 31.3769999,8.37 C34.1669999,8.37 35.1209999,9.882 35.1209999,11.934 L35.1209999,18 L33.4109999,18 L33.2489999,17.298 C32.7629999,17.838 32.0069999,18.234 30.8369999,18.234 C28.8569999,18.234 27.2909999,16.992 27.2909999,15.102 Z M29.2529999,15.048 C29.2529999,15.984 30.0629999,16.668 31.2509999,16.668 C32.4029999,16.668 33.2309999,16.02 33.2309999,15.048 C33.2309999,14.058 32.4209999,13.428 31.2329999,13.428 C30.0449999,13.428 29.2529999,14.112 29.2529999,15.048 Z M41.6344285,8.37 C44.0644285,8.37 44.9104285,10.296 44.9104285,12.348 L44.9104285,18 L42.9664285,18 L42.9664285,12.186 C42.9664285,10.89 42.1564285,10.134 41.0764285,10.134 C39.8344285,10.134 39.0244285,11.052 39.0244285,12.33 L39.0244285,18 L37.0624285,18 L37.0624285,8.604 L38.9884285,8.604 L38.9884285,9.828 C39.4024285,9.09 40.3744285,8.37 41.6344285,8.37 Z M46.2398571,16.362 L47.4638571,15.39 C47.8958571,16.02 48.5438571,16.614 49.7138571,16.614 C50.5418571,16.614 51.1538571,16.2 51.1538571,15.444 C51.1538571,13.644 46.5818571,14.292 46.5818571,11.034 C46.5818571,9.378 47.9858571,8.37 49.8038571,8.37 C51.5678571,8.37 52.5038571,9.396 52.8638571,10.116 L51.5138571,11.016 C51.2438571,10.584 50.7398571,9.972 49.6958571,9.972 C48.9758571,9.972 48.4358571,10.35 48.4358571,10.998 C48.4358571,12.798 53.0258571,12.042 53.0258571,15.354 C53.0258571,17.1 51.5498571,18.234 49.6238571,18.234 C47.7158571,18.234 46.7078571,17.208 46.2398571,16.362 Z M53.8692857,15.102 C53.8692857,13.284 55.3452857,12.006 57.5052857,12.006 C58.5852857,12.006 59.3952857,12.366 59.7552857,12.69 L59.7552857,11.808 C59.7552857,10.728 58.9992857,10.08 57.7572857,10.08 C56.7132857,10.08 55.8132857,10.44 55.1292857,10.818 L54.3732857,9.45 C55.1292857,8.964 56.3892857,8.37 57.9552857,8.37 C60.7452857,8.37 61.6992857,9.882 61.6992857,11.934 L61.6992857,18 L59.9892857,18 L59.8272857,17.298 C59.3412857,17.838 58.5852857,18.234 57.4152857,18.234 C55.4352857,18.234 53.8692857,16.992 53.8692857,15.102 Z M55.8312857,15.048 C55.8312857,15.984 56.6412857,16.668 57.8292857,16.668 C58.9812857,16.668 59.8092857,16.02 59.8092857,15.048 C59.8092857,14.058 58.9992857,13.428 57.8112857,13.428 C56.6232857,13.428 55.8312857,14.112 55.8312857,15.048 Z M71.0927143,9.522 L70.4987143,11.178 C70.0667143,10.764 69.2027143,10.152 68.0147143,10.152 C66.2327143,10.152 65.0447143,11.52 65.0447143,13.302 C65.0447143,15.102 66.3407143,16.488 68.0867143,16.488 C69.2927143,16.488 70.1387143,15.804 70.5347143,15.444 L71.0927143,17.064 C70.6247143,17.478 69.5447143,18.234 67.9787143,18.234 C65.1167143,18.234 63.0647143,16.128 63.0647143,13.302 C63.0647143,10.494 65.1707143,8.37 67.9607143,8.37 C69.5087143,8.37 70.5527143,9.054 71.0927143,9.522 Z M72.6921429,8.604 L72.6921429,6.642 L74.6361429,6.642 L74.6361429,8.604 L76.5441429,8.604 L76.5441429,10.224 L74.6361429,10.224 L74.6361429,14.598 C74.6361429,16.056 75.1941429,16.38 76.2381429,16.38 C76.4001429,16.38 76.6161429,16.362 76.6161429,16.362 L76.6161429,18.054 C76.6161429,18.054 76.2741429,18.126 75.6621429,18.126 C73.3761429,18.126 72.6921429,16.596 72.6921429,14.292 L72.6921429,10.224 L71.6481429,10.224 L71.6481429,8.604 L72.6921429,8.604 Z M78.0535715,18 L78.0535715,8.604 L80.0155715,8.604 L80.0155715,18 L78.0535715,18 Z M77.8015715,6.282 C77.8015715,5.598 78.3415715,5.058 79.0255715,5.058 C79.7095715,5.058 80.2495715,5.598 80.2495715,6.282 C80.2495715,6.966 79.7095715,7.506 79.0255715,7.506 C78.3415715,7.506 77.8015715,6.966 77.8015715,6.282 Z M83.4870001,13.32 C83.4870001,15.174 84.7290001,16.488 86.4750001,16.488 C88.2210001,16.488 89.4990001,15.138 89.4990001,13.302 C89.4990001,11.466 88.2210001,10.116 86.4750001,10.116 C84.7110001,10.116 83.4870001,11.484 83.4870001,13.32 Z M81.5070001,13.32 C81.5070001,10.476 83.6490001,8.37 86.4750001,8.37 C89.3730001,8.37 91.4610001,10.476 91.4610001,13.302 C91.4610001,16.128 89.3370001,18.234 86.4750001,18.234 C83.5950001,18.234 81.5070001,16.164 81.5070001,13.32 Z M97.5244287,8.37 C99.9544287,8.37 100.800429,10.296 100.800429,12.348 L100.800429,18 L98.8564287,18 L98.8564287,12.186 C98.8564287,10.89 98.0464287,10.134 96.9664287,10.134 C95.7244287,10.134 94.9144287,11.052 94.9144287,12.33 L94.9144287,18 L92.9524287,18 L92.9524287,8.604 L94.8784287,8.604 L94.8784287,9.828 C95.2924287,9.09 96.2644287,8.37 97.5244287,8.37 Z" id="Transaction" fill="#FFFFFF"></path>
                    </g>
                    <g id="Group-20" transform="translate(332.000000, 86.000000)">
                        <polyline id="Path-2-Copy-3" stroke="#18DAA2" opacity="0.400000006" transform="translate(202.189453, 34.708984) scale(-1, -1) translate(-202.189453, -34.708984) " points="102 6.82121026e-13 102 69.4179688 302.378906 69.4179688"></polyline>
                        <polyline id="Path-2-Copy-4" stroke="#18DAA2" opacity="0.400000006" transform="translate(178.689453, 195.708984) scale(-1, 1) translate(-178.689453, -195.708984) " points="55 161 55 230.417969 302.378906 230.417969"></polyline>
                        <path d="M0.751953125,157.902344 L0.751953125,65.6884766" id="Path-3" stroke="#18DAA2" opacity="0.400000006"></path>
                        <g id="Group-11" transform="translate(298.000000, 27.000000)" fill="#17D2A5" fill-rule="nonzero">
                            <path d="M-0.908840816,0.909433667 C-1.41110716,0.407494745 -1.41137259,-0.406574471 -0.909433667,-0.908840816 C-0.407494745,-1.41110716 0.406574471,-1.41137259 0.908840816,-0.909433667 L5.40884082,3.58763283 C5.91110716,4.08957175 5.91137259,4.90364096 5.40943367,5.40590731 C4.90749474,5.90817365 4.09342553,5.90843908 3.59115918,5.40650016 L-0.908840816,0.909433667 Z" id="Stroke-354"></path>
                            <path d="M5.40884082,5.40650016 C4.90657447,5.90843908 4.09250526,5.90817365 3.59056633,5.40590731 C3.08862741,4.90364096 3.08889284,4.08957175 3.59115918,3.58763283 L8.09115918,-0.909433667 C8.59342553,-1.41137259 9.40749474,-1.41110716 9.90943367,-0.908840816 C10.4113726,-0.406574471 10.4111072,0.407494745 9.90884082,0.909433667 L5.40884082,5.40650016 Z" id="Stroke-355"></path>
                        </g>
                        <g id="Group-11-Copy" transform="translate(298.000000, 207.000000)" fill="#17D2A5" fill-rule="nonzero">
                            <path d="M-0.908840816,0.909433667 C-1.41110716,0.407494745 -1.41137259,-0.406574471 -0.909433667,-0.908840816 C-0.407494745,-1.41110716 0.406574471,-1.41137259 0.908840816,-0.909433667 L5.40884082,3.58763283 C5.91110716,4.08957175 5.91137259,4.90364096 5.40943367,5.40590731 C4.90749474,5.90817365 4.09342553,5.90843908 3.59115918,5.40650016 L-0.908840816,0.909433667 Z" id="Stroke-354"></path>
                            <path d="M5.40884082,5.40650016 C4.90657447,5.90843908 4.09250526,5.90817365 3.59056633,5.40590731 C3.08862741,4.90364096 3.08889284,4.08957175 3.59115918,3.58763283 L8.09115918,-0.909433667 C8.59342553,-1.41137259 9.40749474,-1.41110716 9.90943367,-0.908840816 C10.4113726,-0.406574471 10.4111072,0.407494745 9.90884082,0.909433667 L5.40884082,5.40650016 Z" id="Stroke-355"></path>
                        </g>
                    </g>
                    <g id="Group-17" transform="translate(0.000000, 427.000000)">
                        <g id="Group-6">
                            <g id="Rectangle" opacity="0.298758371">
                                <use fill="#3774E8" xlink:href="#path-4"></use>
                                <use fill="url(#linearGradient-3)" xlink:href="#path-4"></use>
                            </g>
                            <g id="Rectangle" opacity="0.298758371">
                                <use fill="#3774E8" xlink:href="#path-5"></use>
                                <use fill="url(#linearGradient-3)" xlink:href="#path-5"></use>
                            </g>
                            <g id="notebook">
                                <g id="Shape">
                                    <use fill="black" fill-opacity="1" filter="url(#filter-8)" xlink:href="#path-7"></use>
                                    <use fill="url(#linearGradient-6)" fill-rule="evenodd" xlink:href="#path-7"></use>
                                </g>
                            </g>
                            <g id="Group-7" transform="translate(68.000000, 30.000000)">
                                <circle id="Oval" fill="url(#linearGradient-9)" opacity="0.300000012" cx="22.5" cy="22.5" r="22.5"></circle>
                                <g id="key" transform="translate(15.000000, 15.000000)" fill="url(#linearGradient-10)">
                                    <path d="M14.4921221,1.5078579 C12.4816181,-0.502640134 9.21045549,-0.502608884 7.19995156,1.50788915 C5.82666763,2.88116906 5.3496667,4.90494834 5.94429286,6.74104029 L0.137344018,12.5480034 C0.0494375966,12.6359095 0,12.7549094 0,12.8794405 L0,15.5312505 C0,15.790344 0.209656659,16 0.468750916,16 L3.12056859,16 C3.24506884,16 3.36410032,15.9505625 3.45197549,15.8626564 L4.11482054,15.1993445 C4.21597698,15.0981884 4.26541458,14.9562823 4.2489458,14.8139074 L4.16653939,14.1016269 L5.15347882,14.0086894 C5.37779175,13.987627 5.55494835,13.8104709 5.57601089,13.5861586 L5.66894857,12.5992221 L6.38123121,12.6820657 C6.51351272,12.6999095 6.64673173,12.6555033 6.74698193,12.5667221 C6.84676337,12.4774722 6.90398223,12.3501911 6.90398223,12.2165349 L6.90398223,11.3437545 L7.76092141,11.3437545 C7.88542165,11.3437545 8.00445313,11.2943171 8.09232831,11.2064109 L9.2944244,10.0202246 C11.130053,10.6153178 13.1188381,10.1742557 14.4921221,8.80003828 C16.502626,6.78957149 16.502626,3.51835594 14.4921221,1.5078579 Z M13.1660257,4.82254217 C12.6176184,5.37094788 11.7258979,5.37094788 11.1774906,4.82254217 C10.6290833,4.27413645 10.6290833,3.38241857 11.1774906,2.83401286 C11.7258979,2.28560714 12.6176184,2.28560714 13.1660257,2.83401286 C13.714433,3.38241857 13.7144018,4.27413645 13.1660257,4.82254217 Z" id="Shape"></path>
                                </g>
                            </g>
                        </g>
                        <g id="Group-12-Copy-3" transform="translate(61.000000, 147.000000)">
                            <g id="Rectangle" opacity="0.298758371">
                                <use fill="#18DAA2" xlink:href="#path-11"></use>
                                <use fill="url(#linearGradient-1)" xlink:href="#path-11"></use>
                            </g>
                            <path d="M9.3819999,18 L9.3819999,17.28 C9.3819999,13.716 15.1599999,11.682 15.1599999,8.91 C15.1599999,7.794 14.4399999,7.02 13.1979999,7.02 C11.9739999,7.02 11.3799999,7.812 11.1279999,8.73 L9.3819999,8.226 C9.6339999,7.074 10.6599999,5.166 13.2699999,5.166 C15.6819999,5.166 17.1939999,6.678 17.1939999,8.838 C17.1939999,12.402 12.0279999,14.238 11.7219999,16.236 L17.3559999,16.236 L17.3559999,18 L9.3819999,18 Z M23.6174285,8.37 C26.0474285,8.37 26.8934285,10.296 26.8934285,12.348 L26.8934285,18 L24.9494285,18 L24.9494285,12.186 C24.9494285,10.89 24.1394285,10.134 23.0594285,10.134 C21.8174285,10.134 21.0074285,11.052 21.0074285,12.33 L21.0074285,18 L19.0454285,18 L19.0454285,8.604 L20.9714285,8.604 L20.9714285,9.828 C21.3854285,9.09 22.3574285,8.37 23.6174285,8.37 Z M37.7808571,4.986 L37.7808571,18 L35.9268571,18 L35.9268571,16.776 C35.6748571,17.1 34.7208571,18.234 32.9028571,18.234 C30.2208571,18.234 28.3128571,16.2 28.3128571,13.32 C28.3128571,10.422 30.0948571,8.37 32.7768571,8.37 C34.5588571,8.37 35.5668571,9.45 35.8188571,9.864 L35.8188571,4.986 L37.7808571,4.986 Z M35.8908571,13.338 C35.8908571,11.286 34.6488571,10.116 33.0828571,10.116 C31.4448571,10.116 30.2928571,11.448 30.2928571,13.338 C30.2928571,15.264 31.4988571,16.506 33.1008571,16.506 C34.8288571,16.506 35.8908571,15.066 35.8908571,13.338 Z M44.2377143,18 L44.2377143,4.986 L46.1997143,4.986 L46.1997143,12.618 L49.6737143,8.604 L51.9057143,8.604 L48.1437143,12.852 L52.1577143,18 L49.8357143,18 L46.1997143,13.068 L46.1997143,18 L44.2377143,18 Z M52.6411429,13.338 C52.6411429,10.422 54.6391429,8.37 57.2131429,8.37 C60.0571429,8.37 61.7311429,10.332 61.7311429,13.284 C61.7311429,13.446 61.7311429,13.608 61.7131429,13.77 L54.6391429,13.77 C54.6751429,15.444 55.8811429,16.524 57.5551429,16.524 C58.9771429,16.524 59.7871429,15.732 60.1471429,15.21 L61.4431429,16.182 C60.9931429,16.956 59.7511429,18.234 57.5191429,18.234 C54.5851429,18.234 52.6411429,16.182 52.6411429,13.338 Z M54.7111429,12.42 L59.7331429,12.42 C59.6611429,10.872 58.5811429,10.008 57.2311429,10.008 C55.8811429,10.008 54.8371429,10.944 54.7111429,12.42 Z M66.4805715,21.222 L64.5905715,21.222 L65.9225715,17.838 L62.1965715,8.604 L64.3025715,8.604 L66.8405715,15.444 L69.3425715,8.604 L71.3945715,8.604 L66.4805715,21.222 Z" id="2nd-key" fill="#FFFFFF"></path>
                        </g>
                    </g>
                    <g id="Group-13" transform="translate(36.000000, 78.000000)">
                        <g id="Group-8" transform="translate(6.000000, 35.000000)">
                            <g id="Group-5" transform="translate(10.000000, 10.000000)" opacity="0.300000012">
                                <g id="Rectangle-Copy">
                                    <use fill="#3774E8" xlink:href="#path-12"></use>
                                    <use fill="url(#linearGradient-3)" xlink:href="#path-12"></use>
                                </g>
                                <g id="Rectangle">
                                    <use fill="#3774E8" xlink:href="#path-13"></use>
                                    <use fill="url(#linearGradient-3)" xlink:href="#path-13"></use>
                                </g>
                            </g>
                            <g id="smartphone-with-wireless-internet">
                                <g id="Shape">
                                    <use fill="black" fill-opacity="1" filter="url(#filter-16)" xlink:href="#path-15"></use>
                                    <use fill="url(#linearGradient-14)" fill-rule="evenodd" xlink:href="#path-15"></use>
                                </g>
                            </g>
                            <g id="Group-7" transform="translate(10.000000, 35.000000)">
                                <circle id="Oval" fill="url(#linearGradient-9)" opacity="0.300000012" cx="22.5" cy="22.5" r="22.5"></circle>
                                <g id="key" transform="translate(15.000000, 15.000000)" fill="url(#linearGradient-10)">
                                    <path d="M14.4921221,1.5078579 C12.4816181,-0.502640134 9.21045549,-0.502608884 7.19995156,1.50788915 C5.82666763,2.88116906 5.3496667,4.90494834 5.94429286,6.74104029 L0.137344018,12.5480034 C0.0494375966,12.6359095 0,12.7549094 0,12.8794405 L0,15.5312505 C0,15.790344 0.209656659,16 0.468750916,16 L3.12056859,16 C3.24506884,16 3.36410032,15.9505625 3.45197549,15.8626564 L4.11482054,15.1993445 C4.21597698,15.0981884 4.26541458,14.9562823 4.2489458,14.8139074 L4.16653939,14.1016269 L5.15347882,14.0086894 C5.37779175,13.987627 5.55494835,13.8104709 5.57601089,13.5861586 L5.66894857,12.5992221 L6.38123121,12.6820657 C6.51351272,12.6999095 6.64673173,12.6555033 6.74698193,12.5667221 C6.84676337,12.4774722 6.90398223,12.3501911 6.90398223,12.2165349 L6.90398223,11.3437545 L7.76092141,11.3437545 C7.88542165,11.3437545 8.00445313,11.2943171 8.09232831,11.2064109 L9.2944244,10.0202246 C11.130053,10.6153178 13.1188381,10.1742557 14.4921221,8.80003828 C16.502626,6.78957149 16.502626,3.51835594 14.4921221,1.5078579 Z M13.1660257,4.82254217 C12.6176184,5.37094788 11.7258979,5.37094788 11.1774906,4.82254217 C10.6290833,4.27413645 10.6290833,3.38241857 11.1774906,2.83401286 C11.7258979,2.28560714 12.6176184,2.28560714 13.1660257,2.83401286 C13.714433,3.38241857 13.7144018,4.27413645 13.1660257,4.82254217 Z" id="Shape"></path>
                                </g>
                            </g>
                        </g>
                        <g id="Group-12-Copy-4">
                            <g id="Rectangle" opacity="0.298758371">
                                <use fill="#18DAA2" xlink:href="#path-17"></use>
                                <use fill="url(#linearGradient-1)" xlink:href="#path-17"></use>
                            </g>
                            <path d="M15.3759999,7.902 L14.8359999,6.246 L17.1219999,5.4 L18.7419999,5.4 L18.7419999,18 L16.7619999,18 L16.7619999,7.38 L15.3759999,7.902 Z M20.4494285,16.362 L21.6734285,15.39 C22.1054285,16.02 22.7534285,16.614 23.9234285,16.614 C24.7514285,16.614 25.3634285,16.2 25.3634285,15.444 C25.3634285,13.644 20.7914285,14.292 20.7914285,11.034 C20.7914285,9.378 22.1954285,8.37 24.0134285,8.37 C25.7774285,8.37 26.7134285,9.396 27.0734285,10.116 L25.7234285,11.016 C25.4534285,10.584 24.9494285,9.972 23.9054285,9.972 C23.1854285,9.972 22.6454285,10.35 22.6454285,10.998 C22.6454285,12.798 27.2354285,12.042 27.2354285,15.354 C27.2354285,17.1 25.7594285,18.234 23.8334285,18.234 C21.9254285,18.234 20.9174285,17.208 20.4494285,16.362 Z M28.8168571,8.604 L28.8168571,6.642 L30.7608571,6.642 L30.7608571,8.604 L32.6688571,8.604 L32.6688571,10.224 L30.7608571,10.224 L30.7608571,14.598 C30.7608571,16.056 31.3188571,16.38 32.3628571,16.38 C32.5248571,16.38 32.7408571,16.362 32.7408571,16.362 L32.7408571,18.054 C32.7408571,18.054 32.3988571,18.126 31.7868571,18.126 C29.5008571,18.126 28.8168571,16.596 28.8168571,14.292 L28.8168571,10.224 L27.7728571,10.224 L27.7728571,8.604 L28.8168571,8.604 Z M38.5677143,18 L38.5677143,4.986 L40.5297143,4.986 L40.5297143,12.618 L44.0037143,8.604 L46.2357143,8.604 L42.4737143,12.852 L46.4877143,18 L44.1657143,18 L40.5297143,13.068 L40.5297143,18 L38.5677143,18 Z M46.9711429,13.338 C46.9711429,10.422 48.9691429,8.37 51.5431429,8.37 C54.3871429,8.37 56.0611429,10.332 56.0611429,13.284 C56.0611429,13.446 56.0611429,13.608 56.0431429,13.77 L48.9691429,13.77 C49.0051429,15.444 50.2111429,16.524 51.8851429,16.524 C53.3071429,16.524 54.1171429,15.732 54.4771429,15.21 L55.7731429,16.182 C55.3231429,16.956 54.0811429,18.234 51.8491429,18.234 C48.9151429,18.234 46.9711429,16.182 46.9711429,13.338 Z M49.0411429,12.42 L54.0631429,12.42 C53.9911429,10.872 52.9111429,10.008 51.5611429,10.008 C50.2111429,10.008 49.1671429,10.944 49.0411429,12.42 Z M60.8105715,21.222 L58.9205715,21.222 L60.2525715,17.838 L56.5265715,8.604 L58.6325715,8.604 L61.1705715,15.444 L63.6725715,8.604 L65.7245715,8.604 L60.8105715,21.222 Z" id="1st-key" fill="#FFFFFF"></path>
                        </g>
                    </g>
                    <g id="Group-14" transform="translate(320.000000, 0.000000)">
                        <g id="Group-9" transform="translate(0.000000, 38.000000)">
                            <g id="Rectangle-Copy-2" opacity="0.298758371">
                                <use fill="#3774E8" xlink:href="#path-18"></use>
                                <use fill="url(#linearGradient-3)" xlink:href="#path-18"></use>
                            </g>
                            <g id="Rectangle" opacity="0.298758371">
                                <use fill="#3774E8" xlink:href="#path-19"></use>
                                <use fill="url(#linearGradient-3)" xlink:href="#path-19"></use>
                            </g>
                            <g id="web-2" transform="translate(58.000000, 57.500000) scale(-1, 1) translate(-58.000000, -57.500000) ">
                                <g id="Shape">
                                    <use fill="black" fill-opacity="1" filter="url(#filter-22)" xlink:href="#path-21"></use>
                                    <use fill="url(#linearGradient-20)" fill-rule="evenodd" xlink:href="#path-21"></use>
                                </g>
                                <g id="Path">
                                    <use fill="black" fill-opacity="1" filter="url(#filter-24)" xlink:href="#path-23"></use>
                                    <use fill="url(#linearGradient-14)" fill-rule="evenodd" xlink:href="#path-23"></use>
                                </g>
                                <g id="Path">
                                    <use fill="black" fill-opacity="1" filter="url(#filter-26)" xlink:href="#path-25"></use>
                                    <use fill="url(#linearGradient-14)" fill-rule="evenodd" xlink:href="#path-25"></use>
                                </g>
                                <g id="Path">
                                    <use fill="black" fill-opacity="1" filter="url(#filter-28)" xlink:href="#path-27"></use>
                                    <use fill="url(#linearGradient-14)" fill-rule="evenodd" xlink:href="#path-27"></use>
                                </g>
                                <g id="Path">
                                    <use fill="black" fill-opacity="1" filter="url(#filter-31)" xlink:href="#path-30"></use>
                                    <use fill="url(#linearGradient-29)" fill-rule="evenodd" xlink:href="#path-30"></use>
                                </g>
                            </g>
                            <g id="Group-7" transform="translate(36.000000, 41.000000)">
                                <circle id="Oval" fill="url(#linearGradient-9)" opacity="0.300000012" cx="22.5" cy="22.5" r="22.5"></circle>
                                <g id="key" transform="translate(15.000000, 15.000000)" fill="url(#linearGradient-10)">
                                    <path d="M14.4921221,1.5078579 C12.4816181,-0.502640134 9.21045549,-0.502608884 7.19995156,1.50788915 C5.82666763,2.88116906 5.3496667,4.90494834 5.94429286,6.74104029 L0.137344018,12.5480034 C0.0494375966,12.6359095 0,12.7549094 0,12.8794405 L0,15.5312505 C0,15.790344 0.209656659,16 0.468750916,16 L3.12056859,16 C3.24506884,16 3.36410032,15.9505625 3.45197549,15.8626564 L4.11482054,15.1993445 C4.21597698,15.0981884 4.26541458,14.9562823 4.2489458,14.8139074 L4.16653939,14.1016269 L5.15347882,14.0086894 C5.37779175,13.987627 5.55494835,13.8104709 5.57601089,13.5861586 L5.66894857,12.5992221 L6.38123121,12.6820657 C6.51351272,12.6999095 6.64673173,12.6555033 6.74698193,12.5667221 C6.84676337,12.4774722 6.90398223,12.3501911 6.90398223,12.2165349 L6.90398223,11.3437545 L7.76092141,11.3437545 C7.88542165,11.3437545 8.00445313,11.2943171 8.09232831,11.2064109 L9.2944244,10.0202246 C11.130053,10.6153178 13.1188381,10.1742557 14.4921221,8.80003828 C16.502626,6.78957149 16.502626,3.51835594 14.4921221,1.5078579 Z M13.1660257,4.82254217 C12.6176184,5.37094788 11.7258979,5.37094788 11.1774906,4.82254217 C10.6290833,4.27413645 10.6290833,3.38241857 11.1774906,2.83401286 C11.7258979,2.28560714 12.6176184,2.28560714 13.1660257,2.83401286 C13.714433,3.38241857 13.7144018,4.27413645 13.1660257,4.82254217 Z" id="Shape"></path>
                                </g>
                            </g>
                        </g>
                        <g id="Group-12-Copy-5" transform="translate(7.000000, 0.000000)">
                            <g id="Rectangle" opacity="0.298758371">
                                <use fill="#18DAA2" xlink:href="#path-32"></use>
                                <use fill="url(#linearGradient-1)" xlink:href="#path-32"></use>
                            </g>
                            <path d="M21.6739999,18 L18.9559999,8.388 L16.2379999,18 L13.9879999,18 L10.4959999,5.4 L12.6379999,5.4 L15.2119999,15.516 L18.0019999,5.4 L19.8919999,5.4 L22.6999999,15.516 L25.2739999,5.4 L27.3979999,5.4 L23.9239999,18 L21.6739999,18 Z M27.7374285,13.338 C27.7374285,10.422 29.7354285,8.37 32.3094285,8.37 C35.1534285,8.37 36.8274285,10.332 36.8274285,13.284 C36.8274285,13.446 36.8274285,13.608 36.8094285,13.77 L29.7354285,13.77 C29.7714285,15.444 30.9774285,16.524 32.6514285,16.524 C34.0734285,16.524 34.8834285,15.732 35.2434285,15.21 L36.5394285,16.182 C36.0894285,16.956 34.8474285,18.234 32.6154285,18.234 C29.6814285,18.234 27.7374285,16.182 27.7374285,13.338 Z M29.8074285,12.42 L34.8294285,12.42 C34.7574285,10.872 33.6774285,10.008 32.3274285,10.008 C30.9774285,10.008 29.9334285,10.944 29.8074285,12.42 Z M38.2828571,18 L38.2828571,4.986 L40.2448571,4.986 L40.2448571,9.864 C40.4968571,9.45 41.5048571,8.37 43.2868571,8.37 C45.9688571,8.37 47.7508571,10.422 47.7508571,13.32 C47.7508571,16.2 45.8428571,18.234 43.1608571,18.234 C41.3428571,18.234 40.3888571,17.1 40.1368571,16.776 L40.1368571,18 L38.2828571,18 Z M40.1728571,13.338 C40.1728571,15.066 41.2348571,16.506 42.9628571,16.506 C44.5648571,16.506 45.7708571,15.264 45.7708571,13.338 C45.7708571,11.448 44.6188571,10.116 42.9808571,10.116 C41.4148571,10.116 40.1728571,11.286 40.1728571,13.338 Z M53.0557143,15.102 C53.0557143,13.284 54.5317143,12.006 56.6917143,12.006 C57.7717143,12.006 58.5817143,12.366 58.9417143,12.69 L58.9417143,11.808 C58.9417143,10.728 58.1857143,10.08 56.9437143,10.08 C55.8997143,10.08 54.9997143,10.44 54.3157143,10.818 L53.5597143,9.45 C54.3157143,8.964 55.5757143,8.37 57.1417143,8.37 C59.9317143,8.37 60.8857143,9.882 60.8857143,11.934 L60.8857143,18 L59.1757143,18 L59.0137143,17.298 C58.5277143,17.838 57.7717143,18.234 56.6017143,18.234 C54.6217143,18.234 53.0557143,16.992 53.0557143,15.102 Z M55.0177143,15.048 C55.0177143,15.984 55.8277143,16.668 57.0157143,16.668 C58.1677143,16.668 58.9957143,16.02 58.9957143,15.048 C58.9957143,14.058 58.1857143,13.428 56.9977143,13.428 C55.8097143,13.428 55.0177143,14.112 55.0177143,15.048 Z M62.8271429,21.366 L62.8271429,8.604 L64.6811429,8.604 L64.6811429,9.846 C64.9331429,9.504 65.8871429,8.37 67.7051429,8.37 C70.3871429,8.37 72.2951429,10.422 72.2951429,13.284 C72.2951429,16.2 70.5131429,18.234 67.8311429,18.234 C66.0491429,18.234 65.0411429,17.154 64.7891429,16.758 L64.7891429,21.366 L62.8271429,21.366 Z M64.7171429,13.284 C64.7171429,15.318 65.9591429,16.488 67.5251429,16.488 C69.1631429,16.488 70.3151429,15.174 70.3151429,13.284 C70.3151429,11.358 69.1091429,10.116 67.5071429,10.116 C65.7791429,10.116 64.7171429,11.556 64.7171429,13.284 Z M73.8045715,21.366 L73.8045715,8.604 L75.6585715,8.604 L75.6585715,9.846 C75.9105715,9.504 76.8645715,8.37 78.6825715,8.37 C81.3645715,8.37 83.2725715,10.422 83.2725715,13.284 C83.2725715,16.2 81.4905715,18.234 78.8085715,18.234 C77.0265715,18.234 76.0185715,17.154 75.7665715,16.758 L75.7665715,21.366 L73.8045715,21.366 Z M75.6945715,13.284 C75.6945715,15.318 76.9365715,16.488 78.5025715,16.488 C80.1405715,16.488 81.2925715,15.174 81.2925715,13.284 C81.2925715,11.358 80.0865715,10.116 78.4845715,10.116 C76.7565715,10.116 75.6945715,11.556 75.6945715,13.284 Z" id="Web-app" fill="#FFFFFF"></path>
                        </g>
                    </g>
                    <g id="Group-15" transform="translate(485.000000, 153.000000)">
                        <g id="Group-9-Copy" transform="translate(92.000000, 0.000000)">
                            <g id="Rectangle" opacity="0.298758371">
                                <use fill="#3774E8" xlink:href="#path-33"></use>
                                <use fill="url(#linearGradient-3)" xlink:href="#path-33"></use>
                            </g>
                            <g id="Rectangle" opacity="0.298758371">
                                <use fill="#3774E8" xlink:href="#path-34"></use>
                                <use fill="url(#linearGradient-3)" xlink:href="#path-34"></use>
                            </g>
                            <g id="database">
                                <g id="server">
                                    <g id="Shape">
                                        <use fill="black" fill-opacity="1" filter="url(#filter-37)" xlink:href="#path-36"></use>
                                        <use fill="url(#linearGradient-35)" fill-rule="evenodd" xlink:href="#path-36"></use>
                                    </g>
                                    <g id="Shape">
                                        <use fill="black" fill-opacity="1" filter="url(#filter-40)" xlink:href="#path-39"></use>
                                        <use fill="url(#linearGradient-38)" fill-rule="evenodd" xlink:href="#path-39"></use>
                                    </g>
                                    <g id="Shape">
                                        <use fill="black" fill-opacity="1" filter="url(#filter-42)" xlink:href="#path-41"></use>
                                        <use fill="url(#linearGradient-38)" fill-rule="evenodd" xlink:href="#path-41"></use>
                                    </g>
                                    <g id="Path">
                                        <use fill="black" fill-opacity="1" filter="url(#filter-45)" xlink:href="#path-44"></use>
                                        <use fill="url(#linearGradient-43)" fill-rule="evenodd" xlink:href="#path-44"></use>
                                    </g>
                                    <g id="Path">
                                        <use fill="black" fill-opacity="1" filter="url(#filter-47)" xlink:href="#path-46"></use>
                                        <use fill="url(#linearGradient-43)" fill-rule="evenodd" xlink:href="#path-46"></use>
                                    </g>
                                    <g id="Path">
                                        <use fill="black" fill-opacity="1" filter="url(#filter-49)" xlink:href="#path-48"></use>
                                        <use fill="url(#linearGradient-43)" fill-rule="evenodd" xlink:href="#path-48"></use>
                                    </g>
                                    <g id="Path">
                                        <use fill="black" fill-opacity="1" filter="url(#filter-51)" xlink:href="#path-50"></use>
                                        <use fill="url(#linearGradient-43)" fill-rule="evenodd" xlink:href="#path-50"></use>
                                    </g>
                                    <g id="Shape">
                                        <use fill="black" fill-opacity="1" filter="url(#filter-53)" xlink:href="#path-52"></use>
                                        <use fill="url(#linearGradient-38)" fill-rule="evenodd" xlink:href="#path-52"></use>
                                    </g>
                                    <g id="Path">
                                        <use fill="black" fill-opacity="1" filter="url(#filter-55)" xlink:href="#path-54"></use>
                                        <use fill="url(#linearGradient-43)" fill-rule="evenodd" xlink:href="#path-54"></use>
                                    </g>
                                    <g id="Path">
                                        <use fill="black" fill-opacity="1" filter="url(#filter-57)" xlink:href="#path-56"></use>
                                        <use fill="url(#linearGradient-43)" fill-rule="evenodd" xlink:href="#path-56"></use>
                                    </g>
                                </g>
                            </g>
                        </g>
                        <g id="Group-12-Copy" transform="translate(0.000000, 69.000000)">
                            <g id="Rectangle" opacity="0.298758371">
                                <use fill="#18DAA2" xlink:href="#path-58"></use>
                                <use fill="url(#linearGradient-1)" xlink:href="#path-58"></use>
                            </g>
                            <path d="M12.0639999,18 L12.0639999,5.4 L15.4479999,5.4 C18.1479999,5.4 19.6599999,7.002 19.6599999,9.108 C19.6599999,10.566 18.8859999,11.826 17.6079999,12.348 L20.6679999,18 L18.4539999,18 L15.8079999,12.798 L14.0619999,12.798 L14.0619999,18 L12.0639999,18 Z M14.0619999,11.088 L15.4119999,11.088 C16.6719999,11.088 17.5899999,10.386 17.5899999,9.108 C17.5899999,7.938 16.8699999,7.146 15.4119999,7.146 L14.0619999,7.146 L14.0619999,11.088 Z M21.3494285,13.338 C21.3494285,10.422 23.3474285,8.37 25.9214285,8.37 C28.7654285,8.37 30.4394285,10.332 30.4394285,13.284 C30.4394285,13.446 30.4394285,13.608 30.4214285,13.77 L23.3474285,13.77 C23.3834285,15.444 24.5894285,16.524 26.2634285,16.524 C27.6854285,16.524 28.4954285,15.732 28.8554285,15.21 L30.1514285,16.182 C29.7014285,16.956 28.4594285,18.234 26.2274285,18.234 C23.2934285,18.234 21.3494285,16.182 21.3494285,13.338 Z M23.4194285,12.42 L28.4414285,12.42 C28.3694285,10.872 27.2894285,10.008 25.9394285,10.008 C24.5894285,10.008 23.5454285,10.944 23.4194285,12.42 Z M31.8948571,18 L31.8948571,4.986 L33.8568571,4.986 L33.8568571,18 L31.8948571,18 Z M35.3482857,15.102 C35.3482857,13.284 36.8242857,12.006 38.9842857,12.006 C40.0642857,12.006 40.8742857,12.366 41.2342857,12.69 L41.2342857,11.808 C41.2342857,10.728 40.4782857,10.08 39.2362857,10.08 C38.1922857,10.08 37.2922857,10.44 36.6082857,10.818 L35.8522857,9.45 C36.6082857,8.964 37.8682857,8.37 39.4342857,8.37 C42.2242857,8.37 43.1782857,9.882 43.1782857,11.934 L43.1782857,18 L41.4682857,18 L41.3062857,17.298 C40.8202857,17.838 40.0642857,18.234 38.8942857,18.234 C36.9142857,18.234 35.3482857,16.992 35.3482857,15.102 Z M37.3102857,15.048 C37.3102857,15.984 38.1202857,16.668 39.3082857,16.668 C40.4602857,16.668 41.2882857,16.02 41.2882857,15.048 C41.2882857,14.058 40.4782857,13.428 39.2902857,13.428 C38.1022857,13.428 37.3102857,14.112 37.3102857,15.048 Z M48.4137143,21.222 L46.5237143,21.222 L47.8557143,17.838 L44.1297143,8.604 L46.2357143,8.604 L48.7737143,15.444 L51.2757143,8.604 L53.3277143,8.604 L48.4137143,21.222 Z M53.8651429,13.338 C53.8651429,10.422 55.8631429,8.37 58.4371429,8.37 C61.2811429,8.37 62.9551429,10.332 62.9551429,13.284 C62.9551429,13.446 62.9551429,13.608 62.9371429,13.77 L55.8631429,13.77 C55.8991429,15.444 57.1051429,16.524 58.7791429,16.524 C60.2011429,16.524 61.0111429,15.732 61.3711429,15.21 L62.6671429,16.182 C62.2171429,16.956 60.9751429,18.234 58.7431429,18.234 C55.8091429,18.234 53.8651429,16.182 53.8651429,13.338 Z M55.9351429,12.42 L60.9571429,12.42 C60.8851429,10.872 59.8051429,10.008 58.4551429,10.008 C57.1051429,10.008 56.0611429,10.944 55.9351429,12.42 Z M69.0185715,8.37 L69.0185715,10.35 C66.9665715,10.35 66.3725715,11.916 66.3725715,13.95 L66.3725715,18 L64.4105715,18 L64.4105715,8.604 L66.3365715,8.604 L66.3365715,10.08 C66.6965715,9.144 67.6865715,8.37 69.0185715,8.37 Z" id="Relayer" fill="#FFFFFF"></path>
                        </g>
                    </g>
                    <g id="Group-16" transform="translate(192.000000, 206.000000)">
                        <g id="Group-9" transform="translate(0.000000, 36.000000)">
                            <g id="Rectangle-Copy-2" opacity="0.298758371">
                                <use fill="#3774E8" xlink:href="#path-59"></use>
                                <use fill="url(#linearGradient-3)" xlink:href="#path-59"></use>
                            </g>
                            <g id="Rectangle" opacity="0.298758371">
                                <use fill="#3774E8" xlink:href="#path-60"></use>
                                <use fill="url(#linearGradient-3)" xlink:href="#path-60"></use>
                            </g>
                            <g id="web-2" transform="translate(98.000000, 57.500000) scale(-1, 1) translate(-98.000000, -57.500000) ">
                                <g id="Shape">
                                    <use fill="black" fill-opacity="1" filter="url(#filter-62)" xlink:href="#path-61"></use>
                                    <use fill="url(#linearGradient-20)" fill-rule="evenodd" xlink:href="#path-61"></use>
                                </g>
                                <g id="Path">
                                    <use fill="black" fill-opacity="1" filter="url(#filter-64)" xlink:href="#path-63"></use>
                                    <use fill="url(#linearGradient-14)" fill-rule="evenodd" xlink:href="#path-63"></use>
                                </g>
                                <g id="Path">
                                    <use fill="black" fill-opacity="1" filter="url(#filter-66)" xlink:href="#path-65"></use>
                                    <use fill="url(#linearGradient-14)" fill-rule="evenodd" xlink:href="#path-65"></use>
                                </g>
                                <g id="Path">
                                    <use fill="black" fill-opacity="1" filter="url(#filter-68)" xlink:href="#path-67"></use>
                                    <use fill="url(#linearGradient-14)" fill-rule="evenodd" xlink:href="#path-67"></use>
                                </g>
                                <g id="Path">
                                    <use fill="black" fill-opacity="1" filter="url(#filter-70)" xlink:href="#path-69"></use>
                                    <use fill="url(#linearGradient-29)" fill-rule="evenodd" xlink:href="#path-69"></use>
                                </g>
                            </g>
                            <g id="badge" transform="translate(54.000000, 34.000000)" fill="url(#linearGradient-10)">
                                <path d="M81.125,0.827675386 C84.915875,0.827675386 88,3.92146349 88,7.72421596 L88,49.1034594 C88,52.9062119 84.915875,56 81.125,56 L6.875,56 C3.084125,56 0,52.9062119 0,49.1034594 L0,7.72421596 C0,3.92146349 3.084125,0.827675386 6.875,0.827675386 L36.5555781,0.827675386 L40.4444219,0.827675386 L47.5554062,0.827675386 L51.4445937,0.827675386 L81.125,0.827675386 Z M85.25,49.1034594 L85.25,7.72421596 C85.25,5.44249551 83.3995937,3.58629162 81.125,3.58629162 L48.6945937,3.58629162 L44.8054062,3.58629162 L6.875,3.58629162 C4.60040625,3.58629162 2.75,5.44249551 2.75,7.72421596 L2.75,49.1034594 C2.75,51.3851799 4.60040625,53.2413838 6.875,53.2413838 L81.125,53.2413838 C83.3995937,53.2413838 85.25,51.3851799 85.25,49.1034594 Z M25,32 C21.1402,32 18,28.9413636 18,25.1818182 L18,23.8181818 C18,20.0586364 21.1402,17 25,17 C28.8598,17 32,20.0586364 32,23.8181818 L32,25.1818182 C32,28.9413636 28.8598,32 25,32 Z M20.8,23.8181818 L20.8,25.1818182 C20.8,27.4376136 22.68405,29.2727273 25,29.2727273 C27.31595,29.2727273 29.2,27.4376136 29.2,25.1818182 L29.2,23.8181818 C29.2,21.5623864 27.31595,19.7272727 25,19.7272727 C22.68405,19.7272727 20.8,21.5623864 20.8,23.8181818 Z M30.512504,32 C32.0121251,32 33.4313081,32.6675453 34.5084571,33.8795852 C35.4424331,34.930434 36,36.2755342 36,37.4773918 L36,40.4735793 C36,41.8666573 34.8712881,43 33.4840741,43 L16.5217697,43 C15.1312901,43 14,41.8640685 14,40.4678842 L14,37.4773918 C14,34.9444131 16.3971594,32 19.4876679,32.0001726 L20.6547082,32.0001726 C21.1321807,32.0001726 21.5754498,32.2488625 21.8257018,32.6571904 C22.6276768,33.9657033 23.7845764,34.7160877 25.0000859,34.7160877 C26.2155954,34.7160877 27.3724951,33.9657033 28.1744701,32.6570178 C28.4247221,32.2486899 28.8679912,32 29.3454636,32 L30.512504,32 Z M33.2501504,40.2386959 L33.2499785,40.2386959 L33.2499785,37.4773918 C33.2499785,36.5447614 32.1838296,34.7613041 30.5123321,34.7613041 L30.0709537,34.7613041 C28.7700216,36.4973015 26.9574137,37.4773918 25.0000859,37.4773918 C23.0427581,37.4773918 21.2301502,36.4973015 19.9290463,34.7613041 L19.4876679,34.7613041 C17.8161704,34.7613041 16.7500215,36.5447614 16.7500215,37.4773918 L16.7500215,40.2386959 L33.2501504,40.2386959 Z M36.875,9 C39.1494219,9 41,10.8744375 41,13.1785714 L41,43.8214286 C41,46.1253884 39.1494219,48 36.875,48 L12.125,48 C9.85057812,48 8,46.1253884 8,43.8214286 L8,13.1785714 C8,10.8744375 9.85057812,9 12.125,9 L36.875,9 Z M38.25,43.8214286 L38.25,13.1785714 C38.25,12.4105848 37.6331406,11.7857143 36.875,11.7857143 L12.125,11.7857143 C11.3668594,11.7857143 10.75,12.4105848 10.75,13.1785714 L10.75,43.8214286 C10.75,44.5894152 11.3668594,45.2142857 12.125,45.2142857 L36.875,45.2142857 C37.6331406,45.2142857 38.25,44.5894152 38.25,43.8214286 Z M45.4,15 C44.62685,15 44,14.328375 44,13.5 C44,12.671625 44.62685,12 45.4,12 L70.6,12 C71.37315,12 72,12.671625 72,13.5 C72,14.328375 71.37315,15 70.6,15 L45.4,15 Z M78.6153846,18 C79.3800385,18 80,18.671625 80,19.5 C80,20.328375 79.3800385,21 78.6153846,21 L45.3846154,21 C44.6199615,21 44,20.328375 44,19.5 C44,18.671625 44.6199615,18 45.3846154,18 L78.6153846,18 Z M51.3636364,34 C50.6105682,34 50,33.328375 50,32.5 C50,31.671625 50.6105682,31 51.3636364,31 L63.6363636,31 C64.3894318,31 65,31.671625 65,32.5 C65,33.328375 64.3894318,34 63.6363636,34 L51.3636364,34 Z M45.5,31 C45.895625,31 46.281875,31.159375 46.56125,31.43875 C46.840625,31.718125 47,32.104375 47,32.5 C47,32.895625 46.840625,33.281875 46.56125,33.56125 C46.281875,33.840625 45.895625,34 45.5,34 C45.104375,34 44.718125,33.840625 44.43875,33.56125 C44.159375,33.281875 44,32.895625 44,32.5 C44,32.104375 44.159375,31.718125 44.43875,31.43875 C44.718125,31.159375 45.104375,31 45.5,31 Z M72.6111111,37 C73.378125,37 74,37.671625 74,38.5 C74,39.328375 73.378125,40 72.6111111,40 L50.3888889,40 C49.621875,40 49,39.328375 49,38.5 C49,37.671625 49.621875,37 50.3888889,37 L72.6111111,37 Z M45.5,37 C45.895625,37 46.281875,37.159375 46.56125,37.43875 C46.840625,37.718125 47,38.104375 47,38.5 C47,38.895625 46.840625,39.281875 46.56125,39.56125 C46.281875,39.840625 45.895625,40 45.5,40 C45.104375,40 44.718125,39.840625 44.43875,39.56125 C44.159375,39.281875 44,38.895625 44,38.5 C44,38.104375 44.159375,37.718125 44.43875,37.43875 C44.718125,37.159375 45.104375,37 45.5,37 Z M68.6666667,43 C69.403,43 70,43.671625 70,44.5 C70,45.328375 69.403,46 68.6666667,46 L51.3333333,46 C50.597,46 50,45.328375 50,44.5 C50,43.671625 50.597,43 51.3333333,43 L68.6666667,43 Z M45.5,43 C45.895625,43 46.281875,43.159375 46.56125,43.43875 C46.840625,43.718125 47,44.104375 47,44.5 C47,44.895625 46.840625,45.281875 46.56125,45.56125 C46.281875,45.840625 45.895625,46 45.5,46 C45.104375,46 44.718125,45.840625 44.43875,45.56125 C44.159375,45.281875 44,44.895625 44,44.5 C44,44.104375 44.159375,43.718125 44.43875,43.43875 C44.718125,43.159375 45.104375,43 45.5,43 Z" id="Combined-Shape"></path>
                            </g>
                        </g>
                        <g id="Group-12-Copy-6">
                            <g id="Rectangle" opacity="0.298758371">
                                <use fill="#18DAA2" xlink:href="#path-71"></use>
                                <use fill="url(#linearGradient-1)" xlink:href="#path-71"></use>
                            </g>
                            <path d="M10.2012856,18 L10.2012856,5.4 L12.1992856,5.4 L12.1992856,18 L10.2012856,18 Z M23.3927142,4.986 L23.3927142,18 L21.5387142,18 L21.5387142,16.776 C21.2867142,17.1 20.3327142,18.234 18.5147142,18.234 C15.8327142,18.234 13.9247142,16.2 13.9247142,13.32 C13.9247142,10.422 15.7067142,8.37 18.3887142,8.37 C20.1707142,8.37 21.1787142,9.45 21.4307142,9.864 L21.4307142,4.986 L23.3927142,4.986 Z M21.5027142,13.338 C21.5027142,11.286 20.2607142,10.116 18.6947142,10.116 C17.0567142,10.116 15.9047142,11.448 15.9047142,13.338 C15.9047142,15.264 17.1107142,16.506 18.7127142,16.506 C20.4407142,16.506 21.5027142,15.066 21.5027142,13.338 Z M24.9021428,13.338 C24.9021428,10.422 26.9001428,8.37 29.4741428,8.37 C32.3181428,8.37 33.9921428,10.332 33.9921428,13.284 C33.9921428,13.446 33.9921428,13.608 33.9741428,13.77 L26.9001428,13.77 C26.9361428,15.444 28.1421428,16.524 29.8161428,16.524 C31.2381428,16.524 32.0481428,15.732 32.4081428,15.21 L33.7041428,16.182 C33.2541428,16.956 32.0121428,18.234 29.7801428,18.234 C26.8461428,18.234 24.9021428,16.182 24.9021428,13.338 Z M26.9721428,12.42 L31.9941428,12.42 C31.9221428,10.872 30.8421428,10.008 29.4921428,10.008 C28.1421428,10.008 27.0981428,10.944 26.9721428,12.42 Z M40.0195714,8.37 C42.4495714,8.37 43.2955714,10.296 43.2955714,12.348 L43.2955714,18 L41.3515714,18 L41.3515714,12.186 C41.3515714,10.89 40.5415714,10.134 39.4615714,10.134 C38.2195714,10.134 37.4095714,11.052 37.4095714,12.33 L37.4095714,18 L35.4475714,18 L35.4475714,8.604 L37.3735714,8.604 L37.3735714,9.828 C37.7875714,9.09 38.7595714,8.37 40.0195714,8.37 Z M45.453,8.604 L45.453,6.642 L47.397,6.642 L47.397,8.604 L49.305,8.604 L49.305,10.224 L47.397,10.224 L47.397,14.598 C47.397,16.056 47.955,16.38 48.999,16.38 C49.161,16.38 49.377,16.362 49.377,16.362 L49.377,18.054 C49.377,18.054 49.035,18.126 48.423,18.126 C46.137,18.126 45.453,16.596 45.453,14.292 L45.453,10.224 L44.409,10.224 L44.409,8.604 L45.453,8.604 Z M50.8144286,18 L50.8144286,8.604 L52.7764286,8.604 L52.7764286,18 L50.8144286,18 Z M50.5624286,6.282 C50.5624286,5.598 51.1024286,5.058 51.7864286,5.058 C52.4704286,5.058 53.0104286,5.598 53.0104286,6.282 C53.0104286,6.966 52.4704286,7.506 51.7864286,7.506 C51.1024286,7.506 50.5624286,6.966 50.5624286,6.282 Z M55.0058572,8.604 L55.0058572,6.642 L56.9498572,6.642 L56.9498572,8.604 L58.8578572,8.604 L58.8578572,10.224 L56.9498572,10.224 L56.9498572,14.598 C56.9498572,16.056 57.5078572,16.38 58.5518572,16.38 C58.7138572,16.38 58.9298572,16.362 58.9298572,16.362 L58.9298572,18.054 C58.9298572,18.054 58.5878572,18.126 57.9758572,18.126 C55.6898572,18.126 55.0058572,16.596 55.0058572,14.292 L55.0058572,10.224 L53.9618572,10.224 L53.9618572,8.604 L55.0058572,8.604 Z M64.2012858,21.222 L62.3112858,21.222 L63.6432858,17.838 L59.9172858,8.604 L62.0232858,8.604 L64.5612858,15.444 L67.0632858,8.604 L69.1152858,8.604 L64.2012858,21.222 Z" id="Identity" fill="#FFFFFF"></path>
                        </g>
                    </g>
                    <g id="Group-18" transform="translate(341.000000, 518.000000)">
                        <g id="security-badge">
                            <g id="Path-Copy" opacity="0.298758371">
                                <use fill="#3774E8" xlink:href="#path-72"></use>
                                <use fill="url(#linearGradient-3)" xlink:href="#path-72"></use>
                            </g>
                            <g id="Path" opacity="0.298758371">
                                <use fill="#3774E8" xlink:href="#path-73"></use>
                                <use fill="url(#linearGradient-3)" xlink:href="#path-73"></use>
                            </g>
                            <g id="Shape">
                                <use fill="black" fill-opacity="1" filter="url(#filter-76)" xlink:href="#path-75"></use>
                                <use fill="url(#linearGradient-74)" fill-rule="evenodd" xlink:href="#path-75"></use>
                            </g>
                            <g id="Group-7" transform="translate(27.000000, 30.000000)">
                                <circle id="Oval" fill="url(#linearGradient-9)" opacity="0.300000012" cx="22.5" cy="22.5" r="22.5"></circle>
                                <g id="key" transform="translate(15.000000, 15.000000)">
                                    <g id="Shape">
                                        <use fill="black" fill-opacity="1" filter="url(#filter-78)" xlink:href="#path-77"></use>
                                        <use fill="#18DAA2" fill-rule="evenodd" xlink:href="#path-77"></use>
                                    </g>
                                </g>
                            </g>
                        </g>
                        <g id="Group-12-Copy-2" transform="translate(18.000000, 155.000000)">
                            <g id="Rectangle" opacity="0.298758371">
                                <use fill="#18DAA2" xlink:href="#path-79"></use>
                                <use fill="url(#linearGradient-1)" xlink:href="#path-79"></use>
                            </g>
                            <path d="M18.8679999,5.4 L18.8679999,7.2 L15.9159999,10.494 C17.5899999,10.494 19.3539999,11.592 19.3539999,14.202 C19.3539999,16.542 17.5899999,18.234 15.2139999,18.234 C12.6039999,18.234 11.5059999,16.596 11.1639999,15.3 L12.8739999,14.742 C13.1619999,15.642 13.8639999,16.398 15.1779999,16.398 C16.4199999,16.398 17.3199999,15.516 17.3199999,14.256 C17.3199999,12.996 16.5459999,12.186 15.0519999,12.186 L13.6299999,12.186 L13.6299999,10.62 L16.6179999,7.164 L11.6139999,7.164 L11.6139999,5.4 L18.8679999,5.4 Z M25.6694285,8.37 L25.6694285,10.35 C23.6174285,10.35 23.0234285,11.916 23.0234285,13.95 L23.0234285,18 L21.0614285,18 L21.0614285,8.604 L22.9874285,8.604 L22.9874285,10.08 C23.3474285,9.144 24.3374285,8.37 25.6694285,8.37 Z M35.8908571,4.986 L35.8908571,18 L34.0368571,18 L34.0368571,16.776 C33.7848571,17.1 32.8308571,18.234 31.0128571,18.234 C28.3308571,18.234 26.4228571,16.2 26.4228571,13.32 C26.4228571,10.422 28.2048571,8.37 30.8868571,8.37 C32.6688571,8.37 33.6768571,9.45 33.9288571,9.864 L33.9288571,4.986 L35.8908571,4.986 Z M34.0008571,13.338 C34.0008571,11.286 32.7588571,10.116 31.1928571,10.116 C29.5548571,10.116 28.4028571,11.448 28.4028571,13.338 C28.4028571,15.264 29.6088571,16.506 31.2108571,16.506 C32.9388571,16.506 34.0008571,15.066 34.0008571,13.338 Z M42.3477143,18 L42.3477143,4.986 L44.3097143,4.986 L44.3097143,12.618 L47.7837143,8.604 L50.0157143,8.604 L46.2537143,12.852 L50.2677143,18 L47.9457143,18 L44.3097143,13.068 L44.3097143,18 L42.3477143,18 Z M50.7511429,13.338 C50.7511429,10.422 52.7491429,8.37 55.3231429,8.37 C58.1671429,8.37 59.8411429,10.332 59.8411429,13.284 C59.8411429,13.446 59.8411429,13.608 59.8231429,13.77 L52.7491429,13.77 C52.7851429,15.444 53.9911429,16.524 55.6651429,16.524 C57.0871429,16.524 57.8971429,15.732 58.2571429,15.21 L59.5531429,16.182 C59.1031429,16.956 57.8611429,18.234 55.6291429,18.234 C52.6951429,18.234 50.7511429,16.182 50.7511429,13.338 Z M52.8211429,12.42 L57.8431429,12.42 C57.7711429,10.872 56.6911429,10.008 55.3411429,10.008 C53.9911429,10.008 52.9471429,10.944 52.8211429,12.42 Z M64.5905715,21.222 L62.7005715,21.222 L64.0325715,17.838 L60.3065715,8.604 L62.4125715,8.604 L64.9505715,15.444 L67.4525715,8.604 L69.5045715,8.604 L64.5905715,21.222 Z" id="3rd-key" fill="#FFFFFF"></path>
                        </g>
                    </g>
                    <g id="Group-19" transform="translate(559.000000, 382.000000)">
                        <g id="Group-10">
                            <g id="Rectangle-Copy-3" opacity="0.298758371">
                                <use fill="#3774E8" xlink:href="#path-80"></use>
                                <use fill="url(#linearGradient-3)" xlink:href="#path-80"></use>
                            </g>
                            <g id="Rectangle" opacity="0.298758371">
                                <use fill="#3774E8" xlink:href="#path-81"></use>
                                <use fill="url(#linearGradient-3)" xlink:href="#path-81"></use>
                            </g>
                            <g id="wallet-2">
                                <g id="Shape">
                                    <use fill="black" fill-opacity="1" filter="url(#filter-83)" xlink:href="#path-82"></use>
                                    <use fill="url(#linearGradient-74)" fill-rule="evenodd" xlink:href="#path-82"></use>
                                </g>
                            </g>
                        </g>
                        <g id="Group-12" transform="translate(14.000000, 120.000000)">
                            <g id="Rectangle" opacity="0.298758371">
                                <use fill="#18DAA2" xlink:href="#path-84"></use>
                                <use fill="url(#linearGradient-1)" xlink:href="#path-84"></use>
                            </g>
                            <text id="Wallet" font-family="Geomanist-Book, Geomanist" font-size="18" font-weight="300" letter-spacing="-0.1285714" fill="#FFFFFF">
                                <tspan x="15.0417142" y="18">Wallet</tspan>
                            </text>
                        </g>
                    </g>
                </g>
            </g>
        </g>
    </g>
</svg>