<?xml version="1.0" encoding="UTF-8"?>
<svg width="1021px" height="615px" viewBox="0 0 1021 615" version="1.1" xmlns="http://www.w3.org/2000/svg" xmlns:xlink="http://www.w3.org/1999/xlink">
    <!-- Generator: Sketch 53.2 (72643) - https://sketchapp.com -->
    <title>Process img</title>
    <desc>Created with Sketch.</desc>
    <defs>
        <linearGradient x1="26.5581273%" y1="18.6653646%" x2="26.5581273%" y2="100%" id="linearGradient-1">
            <stop stop-color="#05062C" offset="0%"></stop>
            <stop stop-color="#05062C" stop-opacity="0" offset="100%"></stop>
        </linearGradient>
        <rect id="path-2" x="0" y="11" width="115" height="15"></rect>
        <path d="M0.751953125,155.902344 L0.751953125,63.6884766" id="path-3"></path>
        <filter x="-2750.0%" y="-29.3%" width="5600.0%" height="160.7%" filterUnits="objectBoundingBox" id="filter-4">
            <feMorphology radius="0.5" operator="dilate" in="SourceAlpha" result="shadowSpreadOuter1"></feMorphology>
            <feOffset dx="0" dy="1" in="shadowSpreadOuter1" result="shadowOffsetOuter1"></feOffset>
            <feMorphology radius="1" operator="erode" in="SourceAlpha" result="shadowInner"></feMorphology>
            <feOffset dx="0" dy="1" in="shadowInner" result="shadowInner"></feOffset>
            <feComposite in="shadowOffsetOuter1" in2="shadowInner" operator="out" result="shadowOffsetOuter1"></feComposite>
            <feGaussianBlur stdDeviation="9" in="shadowOffsetOuter1" result="shadowBlurOuter1"></feGaussianBlur>
            <feColorMatrix values="0 0 0 0 0.364705882   0 0 0 0 0.956862745   0 0 0 0 0.82745098  0 0 0 1 0" type="matrix" in="shadowBlurOuter1"></feColorMatrix>
        </filter>
        <linearGradient x1="26.5581273%" y1="35.5536685%" x2="102.230061%" y2="72.8774155%" id="linearGradient-5">
            <stop stop-color="#05062C" offset="0%"></stop>
            <stop stop-color="#05062C" stop-opacity="0" offset="100%"></stop>
        </linearGradient>
        <rect id="path-6" x="39" y="23" width="162" height="108" rx="9"></rect>
        <rect id="path-7" x="29" y="13" width="162" height="108" rx="9"></rect>
        <linearGradient x1="-8.55490331%" y1="23.0838616%" x2="100%" y2="74.9592257%" id="linearGradient-8">
            <stop stop-color="#83C3F7" offset="0%"></stop>
            <stop stop-color="#1B58E4" offset="100%"></stop>
        </linearGradient>
        <linearGradient x1="30.0694444%" y1="22.8472222%" x2="95.5512153%" y2="100%" id="linearGradient-9">
            <stop stop-color="#18DAA2" stop-opacity="0" offset="0%"></stop>
            <stop stop-color="#18DAA2" offset="100%"></stop>
        </linearGradient>
        <linearGradient x1="0%" y1="0%" x2="100%" y2="100%" id="linearGradient-10">
            <stop stop-color="#7CFFE9" offset="0%"></stop>
            <stop stop-color="#18DAA2" offset="100%"></stop>
        </linearGradient>
        <linearGradient x1="26.5581273%" y1="18.6653646%" x2="26.5581273%" y2="100%" id="linearGradient-11">
            <stop stop-color="#05062C" offset="0%"></stop>
            <stop stop-color="#05062C" stop-opacity="0" offset="100%"></stop>
        </linearGradient>
        <rect id="path-12" x="0" y="11" width="80" height="15"></rect>
        <linearGradient x1="42.0430574%" y1="17.4957541%" x2="67.7286005%" y2="101.474185%" id="linearGradient-13">
            <stop stop-color="#05062C" offset="0%"></stop>
            <stop stop-color="#05062C" stop-opacity="0" offset="100%"></stop>
        </linearGradient>
        <rect id="path-14" x="10" y="10" width="67" height="115" rx="9"></rect>
        <rect id="path-15" x="0" y="0" width="67" height="115" rx="9"></rect>
        <linearGradient x1="29.1535326%" y1="-14.030231%" x2="70.1924179%" y2="107.493207%" id="linearGradient-16">
            <stop stop-color="#83C3F7" offset="0%"></stop>
            <stop stop-color="#1B58E4" offset="100%"></stop>
        </linearGradient>
        <rect id="path-17" x="0" y="11" width="80" height="15"></rect>
        <linearGradient x1="26.5581273%" y1="18.0537565%" x2="102.230061%" y2="100.590524%" id="linearGradient-18">
            <stop stop-color="#05062C" offset="0%"></stop>
            <stop stop-color="#05062C" stop-opacity="0" offset="100%"></stop>
        </linearGradient>
        <rect id="path-19" x="20" y="20" width="116" height="115" rx="9"></rect>
        <rect id="path-20" x="10" y="10" width="116" height="115" rx="9"></rect>
        <linearGradient x1="100%" y1="0.858353151%" x2="0%" y2="99.1416468%" id="linearGradient-21">
            <stop stop-color="#83C3F7" offset="0%"></stop>
            <stop stop-color="#1B58E4" offset="100%"></stop>
        </linearGradient>
        <linearGradient x1="-11.4155784%" y1="21.5421196%" x2="109.488689%" y2="75.5525362%" id="linearGradient-22">
            <stop stop-color="#83C3F7" offset="0%"></stop>
            <stop stop-color="#1B58E4" offset="100%"></stop>
        </linearGradient>
        <linearGradient x1="-11.4155784%" y1="-14.030231%" x2="109.488689%" y2="107.493207%" id="linearGradient-23">
            <stop stop-color="#83C3F7" offset="0%"></stop>
            <stop stop-color="#1B58E4" offset="100%"></stop>
        </linearGradient>
        <linearGradient x1="100%" y1="48.7519035%" x2="0%" y2="54.0189824%" id="linearGradient-24">
            <stop stop-color="#83C3F7" offset="0%"></stop>
            <stop stop-color="#1B58E4" offset="100%"></stop>
        </linearGradient>
        <linearGradient x1="26.5581273%" y1="18.6653646%" x2="26.5581273%" y2="100%" id="linearGradient-25">
            <stop stop-color="#05062C" offset="0%"></stop>
            <stop stop-color="#05062C" stop-opacity="0" offset="100%"></stop>
        </linearGradient>
        <rect id="path-26" x="0" y="11" width="95" height="15"></rect>
        <linearGradient x1="26.5581273%" y1="23.3922159%" x2="102.230061%" y2="92.1364642%" id="linearGradient-27">
            <stop stop-color="#05062C" offset="0%"></stop>
            <stop stop-color="#05062C" stop-opacity="0" offset="100%"></stop>
        </linearGradient>
        <rect id="path-28" x="20" y="20" width="105" height="95" rx="9"></rect>
        <rect id="path-29" x="10" y="10" width="105" height="95" rx="9"></rect>
        <linearGradient x1="1.04179186%" y1="9.02013157%" x2="100%" y2="90.9798684%" id="linearGradient-30">
            <stop stop-color="#83C3F7" offset="0%"></stop>
            <stop stop-color="#1B58E4" offset="100%"></stop>
        </linearGradient>
        <linearGradient x1="0%" y1="-9.41032313%" x2="197.206303%" y2="630.57435%" id="linearGradient-31">
            <stop stop-color="#83C3F7" offset="0%"></stop>
            <stop stop-color="#1B58E4" offset="100%"></stop>
        </linearGradient>
        <linearGradient x1="2.80182584%" y1="46.1590111%" x2="116.090481%" y2="54.4839274%" id="linearGradient-32">
            <stop stop-color="#83C3F7" offset="0%"></stop>
            <stop stop-color="#1B58E4" offset="100%"></stop>
        </linearGradient>
        <rect id="path-33" x="0" y="11" width="80" height="15"></rect>
        <linearGradient x1="26.5581273%" y1="38.8101663%" x2="102.230061%" y2="67.7203794%" id="linearGradient-34">
            <stop stop-color="#05062C" offset="0%"></stop>
            <stop stop-color="#05062C" stop-opacity="0" offset="100%"></stop>
        </linearGradient>
        <rect id="path-35" x="20" y="20" width="196" height="115" rx="9"></rect>
        <rect id="path-36" x="10" y="10" width="196" height="115" rx="9"></rect>
        <linearGradient x1="100%" y1="32.78712%" x2="0%" y2="67.21288%" id="linearGradient-37">
            <stop stop-color="#83C3F7" offset="0%"></stop>
            <stop stop-color="#1B58E4" offset="100%"></stop>
        </linearGradient>
        <linearGradient x1="38.6063991%" y1="0%" x2="61.3936009%" y2="100%" id="linearGradient-38">
            <stop stop-color="#7CFFE9" offset="0%"></stop>
            <stop stop-color="#18DAA2" offset="100%"></stop>
        </linearGradient>
        <linearGradient x1="0%" y1="2.98472412%" x2="100%" y2="97.0152759%" id="linearGradient-39">
            <stop stop-color="#7CFFE9" offset="0%"></stop>
            <stop stop-color="#18DAA2" offset="100%"></stop>
        </linearGradient>
        <linearGradient x1="38.6066228%" y1="0%" x2="61.3933772%" y2="100%" id="linearGradient-40">
            <stop stop-color="#7CFFE9" offset="0%"></stop>
            <stop stop-color="#18DAA2" offset="100%"></stop>
        </linearGradient>
        <linearGradient x1="0%" y1="2.97086217%" x2="100%" y2="97.0291378%" id="linearGradient-41">
            <stop stop-color="#7CFFE9" offset="0%"></stop>
            <stop stop-color="#18DAA2" offset="100%"></stop>
        </linearGradient>
        <linearGradient x1="0%" y1="1.16500628%" x2="100%" y2="98.8349937%" id="linearGradient-42">
            <stop stop-color="#7CFFE9" offset="0%"></stop>
            <stop stop-color="#18DAA2" offset="100%"></stop>
        </linearGradient>
        <linearGradient x1="26.5581273%" y1="18.6653646%" x2="26.5581273%" y2="100%" id="linearGradient-43">
            <stop stop-color="#05062C" offset="0%"></stop>
            <stop stop-color="#05062C" stop-opacity="0" offset="100%"></stop>
        </linearGradient>
        <rect id="path-44" x="0" y="11" width="154" height="15"></rect>
        <linearGradient x1="33.7755954%" y1="17.4957541%" x2="86.149059%" y2="101.474185%" id="linearGradient-45">
            <stop stop-color="#05062C" offset="0%"></stop>
            <stop stop-color="#05062C" stop-opacity="0" offset="100%"></stop>
        </linearGradient>
        <path d="M114.953703,39.931172 C114.917468,38.3563065 113.786404,36.9978458 112.206604,36.7825706 C104.842882,35.7736496 97.5804255,34.018366 90.4611314,31.417151 C83.3754845,28.8283618 75.5355256,25.2145142 67.0795642,20.454899 C66.0059274,19.8502242 64.9960262,19.8465126 63.9235217,20.454899 C55.5261194,25.2120936 47.7422931,28.8183565 40.6006753,31.417151 C33.4791165,34.0085221 26.2202189,35.7749406 18.9150563,36.7825706 C17.3350939,37.0002664 16.2265158,38.3563065 16.0506768,39.931172 C15.3499092,69.8447418 21.917907,94.3205957 35.691258,113.346469 C43.1945831,123.71034 52.5845778,132.122372 63.9235217,138.536572 C64.8001283,139.178525 66.1744869,139.12995 67.1968441,138.536572 C78.4498906,132.01538 87.8274293,123.664348 95.3134455,113.346469 C109.105076,94.3330217 115.619529,69.8458715 114.953703,39.931172 Z" id="path-46"></path>
        <path d="M104.953703,29.931172 C104.917468,28.3563065 103.786404,26.9978458 102.206604,26.7825706 C94.842882,25.7736496 87.5804255,24.018366 80.4611314,21.417151 C73.3754845,18.8283618 65.5355256,15.2145142 57.0795642,10.454899 C56.0059274,9.85022423 54.9960262,9.84651259 53.9235217,10.454899 C45.5261194,15.2120936 37.7422931,18.8183565 30.6006753,21.417151 C23.4791165,24.0085221 16.2202189,25.7749406 8.91505632,26.7825706 C7.33509391,27.0002664 6.2265158,28.3563065 6.05067684,29.931172 C5.34990924,59.8447418 11.917907,84.3205957 25.691258,103.346469 C33.1945831,113.71034 42.5845778,122.122372 53.9235217,128.536572 C54.8001283,129.178525 56.1744869,129.12995 57.1968441,128.536572 C68.4498906,122.01538 77.8274293,113.664348 85.3134455,103.346469 C99.1050761,84.3330217 105.619529,59.8458715 104.953703,29.931172 Z" id="path-47"></path>
        <linearGradient x1="16.2577406%" y1="2.57564706%" x2="80.9058546%" y2="98.2282596%" id="linearGradient-48">
            <stop stop-color="#83C3F7" offset="0%"></stop>
            <stop stop-color="#1B58E4" offset="100%"></stop>
        </linearGradient>
        <path d="M14.4921221,1.5078579 C12.4816181,-0.502640134 9.21045549,-0.502608884 7.19995156,1.50788915 C5.82666763,2.88116906 5.3496667,4.90494834 5.94429286,6.74104029 L0.137344018,12.5480034 C0.0494375966,12.6359095 0,12.7549094 0,12.8794405 L0,15.5312505 C0,15.790344 0.209656659,16 0.468750916,16 L3.12056859,16 C3.24506884,16 3.36410032,15.9505625 3.45197549,15.8626564 L4.11482054,15.1993445 C4.21597698,15.0981884 4.26541458,14.9562823 4.2489458,14.8139074 L4.16653939,14.1016269 L5.15347882,14.0086894 C5.37779175,13.987627 5.55494835,13.8104709 5.57601089,13.5861586 L5.66894857,12.5992221 L6.38123121,12.6820657 C6.51351272,12.6999095 6.64673173,12.6555033 6.74698193,12.5667221 C6.84676337,12.4774722 6.90398223,12.3501911 6.90398223,12.2165349 L6.90398223,11.3437545 L7.76092141,11.3437545 C7.88542165,11.3437545 8.00445313,11.2943171 8.09232831,11.2064109 L9.2944244,10.0202246 C11.130053,10.6153178 13.1188381,10.1742557 14.4921221,8.80003828 C16.502626,6.78957149 16.502626,3.51835594 14.4921221,1.5078579 Z M13.1660257,4.82254217 C12.6176184,5.37094788 11.7258979,5.37094788 11.1774906,4.82254217 C10.6290833,4.27413645 10.6290833,3.38241857 11.1774906,2.83401286 C11.7258979,2.28560714 12.6176184,2.28560714 13.1660257,2.83401286 C13.714433,3.38241857 13.7144018,4.27413645 13.1660257,4.82254217 Z" id="path-49"></path>
        <filter x="-487.5%" y="-450.0%" width="1075.0%" height="1075.0%" filterUnits="objectBoundingBox" id="filter-50">
            <feOffset dx="0" dy="6" in="SourceAlpha" result="shadowOffsetOuter1"></feOffset>
            <feGaussianBlur stdDeviation="25" in="shadowOffsetOuter1" result="shadowBlurOuter1"></feGaussianBlur>
            <feColorMatrix values="0 0 0 0 0.0941176471   0 0 0 0 0.854901961   0 0 0 0 0.635294118  0 0 0 1 0" type="matrix" in="shadowBlurOuter1"></feColorMatrix>
        </filter>
        <rect id="path-51" x="0" y="11" width="80" height="15"></rect>
        <linearGradient x1="26.5581273%" y1="26.9850216%" x2="102.230061%" y2="86.4468462%" id="linearGradient-52">
            <stop stop-color="#05062C" offset="0%"></stop>
            <stop stop-color="#05062C" stop-opacity="0" offset="100%"></stop>
        </linearGradient>
        <rect id="path-53" x="20" y="35" width="82" height="69" rx="9"></rect>
        <rect id="path-54" x="10" y="25" width="82" height="69" rx="9"></rect>
        <linearGradient x1="3.54132435%" y1="2.57564706%" x2="92.5533175%" y2="98.2282596%" id="linearGradient-55">
            <stop stop-color="#83C3F7" offset="0%"></stop>
            <stop stop-color="#1B58E4" offset="100%"></stop>
        </linearGradient>
        <rect id="path-56" x="0" y="11" width="80" height="15"></rect>
    </defs>
    <g id="Page-1" stroke="none" stroke-width="1" fill="none" fill-rule="evenodd">
        <g id="Desktop" transform="translate(-351.000000, -2874.000000)">
            <g id="How-does-it-work?" transform="translate(229.000000, 2688.000000)">
                <g id="Process-img" transform="translate(122.480469, 186.531250)">
                    <polyline id="Line" stroke="#18DAA2" opacity="0.400000006" points="144.0625 185.289062 144.0625 269.320312 394 269.320312"></polyline>
                    <polyline id="Line" stroke="#18DAA2" opacity="0.400000006" transform="translate(347.968750, 376.208984) scale(-1, 1) translate(-347.968750, -376.208984) " points="223 318 223 434.417969 472.9375 434.417969"></polyline>
                    <polyline id="Line" stroke="#18DAA2" opacity="0.400000006" points="503 318 503 464.417969 542.9375 464.417969"></polyline>
                    <g id="Arrow" transform="translate(689.700000, 391.500000) rotate(-90.000000) translate(-689.700000, -391.500000) translate(685.200000, 388.800000)" fill="#17D2A5" fill-rule="nonzero">
                        <path d="M-0.908840816,0.909433667 C-1.41110716,0.407494745 -1.41137259,-0.406574471 -0.909433667,-0.908840816 C-0.407494745,-1.41110716 0.406574471,-1.41137259 0.908840816,-0.909433667 L5.40884082,3.58763283 C5.91110716,4.08957175 5.91137259,4.90364096 5.40943367,5.40590731 C4.90749474,5.90817365 4.09342553,5.90843908 3.59115918,5.40650016 L-0.908840816,0.909433667 Z" id="Stroke-354"></path>
                        <path d="M5.40884082,5.40650016 C4.90657447,5.90843908 4.09250526,5.90817365 3.59056633,5.40590731 C3.08862741,4.90364096 3.08889284,4.08957175 3.59115918,3.58763283 L8.09115918,-0.909433667 C8.59342553,-1.41137259 9.40749474,-1.41110716 9.90943367,-0.908840816 C10.4113726,-0.406574471 10.4111072,0.407494745 9.90884082,0.909433667 L5.40884082,5.40650016 Z" id="Stroke-355"></path>
                    </g>
                    <g id="Transaction" transform="translate(632.000000, 351.000000)">
                        <g id="Rectangle" opacity="0.298758371">
                            <use fill="#18DAA2" xlink:href="#path-2"></use>
                            <use fill="url(#linearGradient-1)" xlink:href="#path-2"></use>
                        </g>
                        <text font-family="Geomanist-Book, Geomanist" font-size="20" font-weight="300" letter-spacing="-0.1428571" fill="#FFFFFF">
                            <tspan x="7.33571405" y="19">Transaction</tspan>
                        </text>
                    </g>
                    <g id="Lines" transform="translate(551.000000, 50.000000)">
                        <g id="line" opacity="0.400000006">
                            <use fill="black" fill-opacity="1" filter="url(#filter-4)" xlink:href="#path-3"></use>
                            <use stroke="#18DAA2" stroke-width="1" xlink:href="#path-3"></use>
                        </g>
                        <polyline id="line" stroke="#17D2A5" points="26 0 301.467858 7.07084131e-15 301.5 65"></polyline>
                        <polyline id="line" stroke="#17D2A5" points="40 230.201492 301.019531 230.201492 301.019531 160"></polyline>
                        <polyline id="line" stroke="#17D2A5" points="26.5195312 269.006856 26.5195312 341.5 231.519531 341.5"></polyline>
                        <g id="Arrow" transform="translate(295.000000, 23.000000)" fill="#17D2A5" fill-rule="nonzero">
                            <path d="M0.89640472,2.90943367 C0.394138374,2.40749474 0.393872946,1.59342553 0.895811869,1.09115918 C1.39775079,0.588892838 2.21182001,0.58862741 2.71408635,1.09056633 L7.21408635,5.58763283 C7.7163527,6.08957175 7.71661813,6.90364096 7.2146792,7.40590731 C6.71274028,7.90817365 5.89867107,7.90843908 5.39640472,7.40650016 L0.89640472,2.90943367 Z" id="Stroke-354"></path>
                            <path d="M7.21408635,7.40650016 C6.71182001,7.90843908 5.89775079,7.90817365 5.39581187,7.40590731 C4.89387295,6.90364096 4.89413837,6.08957175 5.39640472,5.58763283 L9.89640472,1.09056633 C10.3986711,0.58862741 11.2127403,0.588892838 11.7146792,1.09115918 C12.2166181,1.59342553 12.2163527,2.40749474 11.7140864,2.90943367 L7.21408635,7.40650016 Z" id="Stroke-355"></path>
                        </g>
                        <g id="Arrow" transform="translate(294.000000, 203.000000)" fill="#17D2A5" fill-rule="nonzero">
                            <path d="M1.09115918,2.90943367 C0.588892838,2.40749474 0.58862741,1.59342553 1.09056633,1.09115918 C1.59250526,0.588892838 2.40657447,0.58862741 2.90884082,1.09056633 L7.40884082,5.58763283 C7.91110716,6.08957175 7.91137259,6.90364096 7.40943367,7.40590731 C6.90749474,7.90817365 6.09342553,7.90843908 5.59115918,7.40650016 L1.09115918,2.90943367 Z" id="Stroke-354"></path>
                            <path d="M7.40884082,7.40650016 C6.90657447,7.90843908 6.09250526,7.90817365 5.59056633,7.40590731 C5.08862741,6.90364096 5.08889284,6.08957175 5.59115918,5.58763283 L10.0911592,1.09056633 C10.5934255,0.58862741 11.4074947,0.588892838 11.9094337,1.09115918 C12.4113726,1.59342553 12.4111072,2.40749474 11.9088408,2.90943367 L7.40884082,7.40650016 Z" id="Stroke-355"></path>
                        </g>
                    </g>
                    <g id="2nd-key" transform="translate(53.000000, 389.000000)">
                        <g id="Group-6">
                            <g id="Rectangle" opacity="0.298758371">
                                <use fill="#3774E8" xlink:href="#path-6"></use>
                                <use fill="url(#linearGradient-5)" xlink:href="#path-6"></use>
                            </g>
                            <g id="Rectangle" opacity="0.298758371">
                                <use fill="#3774E8" xlink:href="#path-7"></use>
                                <use fill="url(#linearGradient-5)" xlink:href="#path-7"></use>
                            </g>
                            <g id="notebook" fill="url(#linearGradient-8)">
                                <path d="M180.76934,105.160388 L170.009793,105.160388 C170.941151,103.857437 171.503123,102.268974 171.503123,100.546429 L171.503123,7.98017582 C171.503123,3.57916958 167.918185,0 163.51397,0 L17.3808204,0 C12.978183,0 9.3948245,3.58074701 9.3948245,7.98017582 L9.3948245,100.546429 C9.3948245,102.303677 9.98521044,103.918957 10.9528751,105.240836 L0.0907209217,105.240836 C0.0907209217,105.240836 -0.397057837,105.734569 0.889478372,107.01859 C4.53755835,110.665589 12.7319258,110.981073 12.7319258,110.981073 L12.7319258,110.971609 C12.7319258,110.971609 166.222799,111.007889 166.393285,110.998425 C174.949145,110.998425 177.711646,108.435115 179.97374,106.939719 C181.648605,105.258188 180.76934,105.160388 180.76934,105.160388 Z M100.708902,107.106926 L80.1448446,107.106926 L80.1448446,105.710908 L100.705745,105.710908 L100.708902,107.106926 L100.708902,107.106926 Z M165.607156,98.7118882 L15.0524267,98.7118882 L15.0524267,5.38058504 L165.608735,5.38058504 L165.608735,98.7118882 L165.607156,98.7118882 Z" id="Shape"></path>
                            </g>
                            <g id="Group-7" transform="translate(68.000000, 30.000000)">
                                <circle id="Oval" fill="url(#linearGradient-9)" opacity="0.300000012" cx="22.5" cy="22.5" r="22.5"></circle>
                                <g id="key" transform="translate(15.000000, 15.000000)" fill="url(#linearGradient-10)">
                                    <path d="M14.4921221,1.5078579 C12.4816181,-0.502640134 9.21045549,-0.502608884 7.19995156,1.50788915 C5.82666763,2.88116906 5.3496667,4.90494834 5.94429286,6.74104029 L0.137344018,12.5480034 C0.0494375966,12.6359095 0,12.7549094 0,12.8794405 L0,15.5312505 C0,15.790344 0.209656659,16 0.468750916,16 L3.12056859,16 C3.24506884,16 3.36410032,15.9505625 3.45197549,15.8626564 L4.11482054,15.1993445 C4.21597698,15.0981884 4.26541458,14.9562823 4.2489458,14.8139074 L4.16653939,14.1016269 L5.15347882,14.0086894 C5.37779175,13.987627 5.55494835,13.8104709 5.57601089,13.5861586 L5.66894857,12.5992221 L6.38123121,12.6820657 C6.51351272,12.6999095 6.64673173,12.6555033 6.74698193,12.5667221 C6.84676337,12.4774722 6.90398223,12.3501911 6.90398223,12.2165349 L6.90398223,11.3437545 L7.76092141,11.3437545 C7.88542165,11.3437545 8.00445313,11.2943171 8.09232831,11.2064109 L9.2944244,10.0202246 C11.130053,10.6153178 13.1188381,10.1742557 14.4921221,8.80003828 C16.502626,6.78957149 16.502626,3.51835594 14.4921221,1.5078579 Z M13.1660257,4.82254217 C12.6176184,5.37094788 11.7258979,5.37094788 11.1774906,4.82254217 C10.6290833,4.27413645 10.6290833,3.38241857 11.1774906,2.83401286 C11.7258979,2.28560714 12.6176184,2.28560714 13.1660257,2.83401286 C13.714433,3.38241857 13.7144018,4.27413645 13.1660257,4.82254217 Z" id="Shape"></path>
                                </g>
                            </g>
                        </g>
                        <g id="Group-12-Copy-3" transform="translate(61.000000, 146.000000)">
                            <g id="Rectangle" opacity="0.298758371">
                                <use fill="#18DAA2" xlink:href="#path-12"></use>
                                <use fill="url(#linearGradient-11)" xlink:href="#path-12"></use>
                            </g>
                            <text id="2nd-key" font-family="Geomanist-Book, Geomanist" font-size="20" font-weight="300" letter-spacing="-0.1428571" fill="#FFFFFF">
                                <tspan x="5.11999985" y="19">2nd key</tspan>
                            </text>
                        </g>
                    </g>
                    <g id="1st-key" transform="translate(0.000000, 75.000000)">
                        <g id="Group-8" transform="translate(95.000000, 0.000000)">
                            <g id="Group-5" transform="translate(10.000000, 10.000000)" opacity="0.300000012">
                                <g id="Rectangle-Copy">
                                    <use fill="#3774E8" xlink:href="#path-14"></use>
                                    <use fill="url(#linearGradient-13)" xlink:href="#path-14"></use>
                                </g>
                                <g id="Rectangle">
                                    <use fill="#3774E8" xlink:href="#path-15"></use>
                                    <use fill="url(#linearGradient-13)" xlink:href="#path-15"></use>
                                </g>
                            </g>
                            <g id="smartphone-with-wireless-internet" fill="url(#linearGradient-16)">
                                <path d="M67,7.76765035 L67,107.232347 C67,111.507184 63.5005656,114.999998 59.2102985,114.999998 L7.78970147,114.999998 C3.50602469,115.003283 0,111.510469 0,107.235633 L0,7.76765035 C2.92666867e-15,3.49609982 3.50602469,0 7.78970147,0 L59.2070034,0 C63.4906802,0 67,3.49281401 67,7.76765035 Z M24.3312841,6.53875812 C24.3312841,7.0579158 24.7530615,7.47849924 25.273693,7.47849924 L41.7230119,7.47849924 C42.2436433,7.47849924 42.6654207,7.0579158 42.6654207,6.53875812 C42.6654207,6.01960044 42.2436433,5.59573119 41.7230119,5.59573119 L25.273693,5.59573119 C24.7563567,5.599017 24.3312841,6.01960044 24.3312841,6.53875812 Z M37.3932032,107.235633 C37.3932032,105.09 35.6500762,103.351808 33.4983524,103.351808 C31.3466286,103.351808 29.6035017,105.086715 29.6035017,107.235633 C29.6035017,109.384552 31.3466286,111.122744 33.4983524,111.122744 C35.6500762,111.122744 37.3932032,109.381266 37.3932032,107.235633 Z M61.5795013,12.3184946 L5.42379383,12.3184946 L5.42379383,100.627873 L61.5795013,100.627873 L61.5795013,12.3184946 Z" id="Shape"></path>
                            </g>
                            <g id="Group-7" transform="translate(10.000000, 35.000000)">
                                <circle id="Oval" fill="url(#linearGradient-9)" opacity="0.300000012" cx="22.5" cy="22.5" r="22.5"></circle>
                                <g id="key" transform="translate(15.000000, 15.000000)" fill="url(#linearGradient-10)">
                                    <path d="M14.4921221,1.5078579 C12.4816181,-0.502640134 9.21045549,-0.502608884 7.19995156,1.50788915 C5.82666763,2.88116906 5.3496667,4.90494834 5.94429286,6.74104029 L0.137344018,12.5480034 C0.0494375966,12.6359095 0,12.7549094 0,12.8794405 L0,15.5312505 C0,15.790344 0.209656659,16 0.468750916,16 L3.12056859,16 C3.24506884,16 3.36410032,15.9505625 3.45197549,15.8626564 L4.11482054,15.1993445 C4.21597698,15.0981884 4.26541458,14.9562823 4.2489458,14.8139074 L4.16653939,14.1016269 L5.15347882,14.0086894 C5.37779175,13.987627 5.55494835,13.8104709 5.57601089,13.5861586 L5.66894857,12.5992221 L6.38123121,12.6820657 C6.51351272,12.6999095 6.64673173,12.6555033 6.74698193,12.5667221 C6.84676337,12.4774722 6.90398223,12.3501911 6.90398223,12.2165349 L6.90398223,11.3437545 L7.76092141,11.3437545 C7.88542165,11.3437545 8.00445313,11.2943171 8.09232831,11.2064109 L9.2944244,10.0202246 C11.130053,10.6153178 13.1188381,10.1742557 14.4921221,8.80003828 C16.502626,6.78957149 16.502626,3.51835594 14.4921221,1.5078579 Z M13.1660257,4.82254217 C12.6176184,5.37094788 11.7258979,5.37094788 11.1774906,4.82254217 C10.6290833,4.27413645 10.6290833,3.38241857 11.1774906,2.83401286 C11.7258979,2.28560714 12.6176184,2.28560714 13.1660257,2.83401286 C13.714433,3.38241857 13.7144018,4.27413645 13.1660257,4.82254217 Z" id="Shape"></path>
                                </g>
                            </g>
                        </g>
                        <g id="Group-12-Copy-4" transform="translate(0.000000, 13.000000)">
                            <g id="Rectangle" opacity="0.298758371">
                                <use fill="#18DAA2" xlink:href="#path-17"></use>
                                <use fill="url(#linearGradient-11)" xlink:href="#path-17"></use>
                            </g>
                            <text id="1st-key" font-family="Geomanist-Book, Geomanist" font-size="20" font-weight="300" letter-spacing="-0.1428571" fill="#FFFFFF">
                                <tspan x="11.4199999" y="19">1st key</tspan>
                            </text>
                        </g>
                    </g>
                    <g id="Web-app" transform="translate(351.000000, 0.000000)">
                        <g id="Group-9" transform="translate(110.000000, 0.000000)">
                            <g id="Rectangle-Copy-2" opacity="0.298758371">
                                <use fill="#3774E8" xlink:href="#path-19"></use>
                                <use fill="url(#linearGradient-18)" xlink:href="#path-19"></use>
                            </g>
                            <g id="Rectangle" opacity="0.298758371">
                                <use fill="#3774E8" xlink:href="#path-20"></use>
                                <use fill="url(#linearGradient-18)" xlink:href="#path-20"></use>
                            </g>
                            <g id="web-2" transform="translate(58.000000, 57.500000) scale(-1, 1) translate(-58.000000, -57.500000) ">
                                <path d="M106.33305,0 L9.66672331,0 C4.33050717,0.0062890625 0.00634373761,4.29318359 0,9.5834082 L0,105.416816 C0.00634373761,110.706816 4.33050717,114.993711 9.66672331,115 L106.333277,115 C111.669266,114.993711 115.99343,110.706816 116,105.416592 L116,9.5834082 C115.99343,4.29318359 111.669266,0.0062890625 106.33305,0 Z M112.133039,105.416592 C112.133039,108.592119 109.536411,111.166592 106.33305,111.166592 L9.66672331,111.166592 C6.46358894,111.166592 3.86673464,108.592344 3.86673464,105.416592 L3.86673464,19.1665918 L112.133265,19.1665918 L112.133265,105.416592 L112.133039,105.416592 Z M112.133265,15.3334082 L3.86673464,15.3334082 L3.86673464,9.5834082 C3.86673464,6.40788086 6.46358894,3.8334082 9.66672331,3.8334082 L106.333277,3.8334082 C109.536411,3.8334082 112.133265,6.40788086 112.133265,9.5834082 L112.133265,15.3334082 L112.133265,15.3334082 Z" id="Shape" fill="url(#linearGradient-21)"></path>
                                <path d="M14,8 L12,8 C10.8953475,8 10,8.89529501 10,9.99988281 C10,11.1044706 10.8953475,12 12,12 L14,12 C15.1046525,12 16,11.104705 16,10.0001172 C16,8.89552938 15.1046525,8 14,8 Z" id="Path" fill="url(#linearGradient-22)"></path>
                                <path d="M21.7599461,8.16485494 C21.277143,7.94504835 20.7226226,7.94504835 20.2400539,8.16485494 C19.9977149,8.2662141 19.7745942,8.40807011 19.5800668,8.58433673 C18.8066444,9.37203552 18.8066444,10.6330558 19.5800668,11.4207546 C19.7745942,11.5970213 19.9977149,11.7388773 20.2400539,11.8402364 C20.7242632,12.0532545 21.2757368,12.0532545 21.7599461,11.8402364 C22.0022851,11.7388773 22.2254058,11.5970213 22.4199332,11.4207546 C23.1933556,10.6330558 23.1933556,9.37203552 22.4199332,8.58433673 C22.2254058,8.40807011 22.0022851,8.2662141 21.7599461,8.16485494 Z" id="Path" fill="url(#linearGradient-23)"></path>
                                <path d="M29.766606,8.15248304 C29.0162685,7.84190542 28.1520446,8.01460434 27.5800353,8.58995582 C27.4035818,8.78392077 27.2615753,9.00639624 27.1601087,9.24803452 C26.9466304,9.73084368 26.9466304,10.2807227 27.1601087,10.7635318 C27.2615753,11.0051701 27.4035818,11.2276456 27.5800353,11.4216105 C28.3685692,12.1927965 29.6309266,12.1927965 30.4194606,11.4216105 C30.5959141,11.2276456 30.7379205,11.0051701 30.8393871,10.7635318 C30.9513988,10.5268011 31.0062329,10.2674022 30.9994373,10.0056663 C31.0043583,9.19568735 30.5169435,8.46306067 29.766606,8.15248304 Z" id="Path" fill="url(#linearGradient-23)"></path>
                                <path d="M104.083402,8 L38.916598,8 C37.8580106,8 37,8.89534747 37,10 C37,11.1046525 37.8580106,12 38.916598,12 L104.083402,12 C105.141989,12 106,11.1046525 106,10 C106,8.89534747 105.141989,8 104.083402,8 Z" id="Path" fill="url(#linearGradient-24)"></path>
                            </g>
                            <g id="Group-7" transform="translate(36.000000, 41.000000)">
                                <circle id="Oval" fill="url(#linearGradient-9)" opacity="0.300000012" cx="22.5" cy="22.5" r="22.5"></circle>
                                <g id="key" transform="translate(15.000000, 15.000000)" fill="url(#linearGradient-10)">
                                    <path d="M14.4921221,1.5078579 C12.4816181,-0.502640134 9.21045549,-0.502608884 7.19995156,1.50788915 C5.82666763,2.88116906 5.3496667,4.90494834 5.94429286,6.74104029 L0.137344018,12.5480034 C0.0494375966,12.6359095 0,12.7549094 0,12.8794405 L0,15.5312505 C0,15.790344 0.209656659,16 0.468750916,16 L3.12056859,16 C3.24506884,16 3.36410032,15.9505625 3.45197549,15.8626564 L4.11482054,15.1993445 C4.21597698,15.0981884 4.26541458,14.9562823 4.2489458,14.8139074 L4.16653939,14.1016269 L5.15347882,14.0086894 C5.37779175,13.987627 5.55494835,13.8104709 5.57601089,13.5861586 L5.66894857,12.5992221 L6.38123121,12.6820657 C6.51351272,12.6999095 6.64673173,12.6555033 6.74698193,12.5667221 C6.84676337,12.4774722 6.90398223,12.3501911 6.90398223,12.2165349 L6.90398223,11.3437545 L7.76092141,11.3437545 C7.88542165,11.3437545 8.00445313,11.2943171 8.09232831,11.2064109 L9.2944244,10.0202246 C11.130053,10.6153178 13.1188381,10.1742557 14.4921221,8.80003828 C16.502626,6.78957149 16.502626,3.51835594 14.4921221,1.5078579 Z M13.1660257,4.82254217 C12.6176184,5.37094788 11.7258979,5.37094788 11.1774906,4.82254217 C10.6290833,4.27413645 10.6290833,3.38241857 11.1774906,2.83401286 C11.7258979,2.28560714 12.6176184,2.28560714 13.1660257,2.83401286 C13.714433,3.38241857 13.7144018,4.27413645 13.1660257,4.82254217 Z" id="Shape"></path>
                                </g>
                            </g>
                        </g>
                        <g id="Group-12-Copy-5" transform="translate(0.000000, 22.000000)">
                            <g id="Rectangle" opacity="0.298758371">
                                <use fill="#18DAA2" xlink:href="#path-26"></use>
                                <use fill="url(#linearGradient-25)" xlink:href="#path-26"></use>
                            </g>
                            <text id="Web-app" font-family="Geomanist-Book, Geomanist" font-size="20" font-weight="300" letter-spacing="-0.1428571" fill="#FFFFFF">
                                <tspan x="6.23999985" y="19">Web app</tspan>
                            </text>
                        </g>
                    </g>
                    <g id="Relayer" transform="translate(800.000000, 115.000000)">
                        <g id="Group-9-Copy">
                            <g id="Rectangle" opacity="0.298758371">
                                <use fill="#3774E8" xlink:href="#path-28"></use>
                                <use fill="url(#linearGradient-27)" xlink:href="#path-28"></use>
                            </g>
                            <g id="Rectangle" opacity="0.298758371">
                                <use fill="#3774E8" xlink:href="#path-29"></use>
                                <use fill="url(#linearGradient-27)" xlink:href="#path-29"></use>
                            </g>
                            <g id="database">
                                <g id="server">
                                    <path d="M96.8242462,29.3412527 C101.296849,29.3412527 104.935715,25.7053996 104.935715,21.2365011 L104.935715,8.10475162 C104.935715,3.63585313 101.296849,0 96.8242462,0 L8.11146919,0 C3.63886669,0 0,3.63585313 0,8.10475162 L0,21.2365011 C0,25.7053996 3.63886669,29.3412527 8.11146919,29.3412527 L50.9277053,29.3412527 L50.9277053,32.8293737 L8.11146919,32.8293737 C3.63886669,32.8293737 0,36.4652268 0,40.9341253 L0,54.0658747 C0,58.5347732 3.63886669,62.1706263 8.11146919,62.1706263 L50.9277053,62.1706263 L50.9277053,65.6587473 L8.11146919,65.6587473 C3.63886669,65.6587473 0,69.2946004 0,73.7634989 L0,86.8952484 C0,91.3641469 3.63886669,95 8.11146919,95 L96.8242462,95 C101.296849,95 104.935715,91.3641469 104.935715,86.8952484 L104.935715,73.7634989 C104.935715,69.2946004 101.296849,65.6587473 96.8242462,65.6587473 L54.0080101,65.6587473 L54.0080101,62.1706263 L96.8242462,62.1706263 C101.296849,62.1706263 104.935715,58.5347732 104.935715,54.0658747 L104.935715,40.9341253 C104.935715,36.4652268 101.296849,32.8293737 96.8242462,32.8293737 L54.0080101,32.8293737 L54.0080101,29.3412527 L96.8242462,29.3412527 Z M101.855411,73.7634989 L101.855411,86.8952484 C101.855411,89.6672786 99.5983687,91.9222462 96.8242462,91.9222462 L8.11146919,91.9222462 C5.33734673,91.9222462 3.08030476,89.6672786 3.08030476,86.8952484 L3.08030476,73.7634989 C3.08030476,70.9914687 5.33734673,68.7365011 8.11146919,68.7365011 L96.8242462,68.7365011 C99.5983687,68.7365011 101.855411,70.9914687 101.855411,73.7634989 Z M101.855411,40.9341253 L101.855411,54.0658747 C101.855411,56.837905 99.5983687,59.0928726 96.8242462,59.0928726 L8.11146919,59.0928726 C5.33734673,59.0928726 3.08030476,56.837905 3.08030476,54.0658747 L3.08030476,40.9341253 C3.08030476,38.162095 5.33734673,35.9071274 8.11146919,35.9071274 L96.8242462,35.9071274 C99.5983687,35.9071274 101.855411,38.162095 101.855411,40.9341253 Z M3.08030476,21.2365011 L3.08030476,8.10475162 C3.08030476,5.33272138 5.33734673,3.07775378 8.11146919,3.07775378 L96.8242462,3.07775378 C99.5983687,3.07775378 101.855411,5.33272138 101.855411,8.10475162 L101.855411,21.2365011 C101.855411,24.0085313 99.5983687,26.2634989 96.8242462,26.2634989 L8.11146919,26.2634989 C5.33734673,26.2634989 3.08030476,24.0085313 3.08030476,21.2365011 Z" id="Shape" fill="url(#linearGradient-30)"></path>
                                    <path d="M14.682786,8.20734341 C11.1159985,8.20734341 8.21414602,11.1067927 8.21414602,14.6706263 C8.21414602,18.23446 11.1159985,21.1339093 14.682786,21.1339093 C18.2495736,21.1339093 21.151426,18.23446 21.151426,14.6706263 C21.151426,11.1067927 18.2495736,8.20734341 14.682786,8.20734341 Z M14.682786,18.0561555 C12.8144785,18.0561555 11.2944508,16.5373866 11.2944508,14.6706263 C11.2944508,12.8038661 12.8144785,11.2850972 14.682786,11.2850972 C16.5510935,11.2850972 18.0711212,12.8038661 18.0711212,14.6706263 C18.0711212,16.5373866 16.5510935,18.0561555 14.682786,18.0561555 Z" id="Shape" fill="url(#linearGradient-31)"></path>
                                    <path d="M14.682786,41.0367171 C11.1159985,41.0367171 8.21414602,43.9361663 8.21414602,47.5 C8.21414602,51.0638337 11.1159985,53.9632829 14.682786,53.9632829 C18.2495736,53.9632829 21.151426,51.0638337 21.151426,47.5 C21.151426,43.9361663 18.2495736,41.0367171 14.682786,41.0367171 Z M14.682786,50.8855292 C12.8144785,50.8855292 11.2944508,49.3667603 11.2944508,47.5 C11.2944508,45.6332397 12.8144785,44.1144708 14.682786,44.1144708 C16.5510935,44.1144708 18.0711212,45.6332397 18.0711212,47.5 C18.0711212,49.3667603 16.5510935,50.8855292 14.682786,50.8855292 Z" id="Shape" fill="url(#linearGradient-31)"></path>
                                    <path d="M93.5385878,49.2440605 L39.3252241,49.2440605 C38.4746492,49.2440605 37.7850717,49.9328618 37.7850717,50.7829374 C37.7850717,51.633013 38.4746492,52.3218143 39.3252241,52.3218143 L93.5385878,52.3218143 C94.3891626,52.3218143 95.0787402,51.633013 95.0787402,50.7829374 C95.0787402,49.9328618 94.3891626,49.2440605 93.5385878,49.2440605 Z" id="Path" fill="url(#linearGradient-32)"></path>
                                    <path d="M37.7850717,44.2170626 C37.7850717,45.0671382 38.4746492,45.7559395 39.3252241,45.7559395 L93.5385878,45.7559395 C94.3891626,45.7559395 95.0787402,45.0671382 95.0787402,44.2170626 C95.0787402,43.366987 94.3891626,42.6781857 93.5385878,42.6781857 L39.3252241,42.6781857 C38.4746492,42.6781857 37.7850717,43.366987 37.7850717,44.2170626 Z" id="Path" fill="url(#linearGradient-32)"></path>
                                    <path d="M95.0787402,17.9535637 C95.0787402,17.1034881 94.3891626,16.4146868 93.5385878,16.4146868 L39.3252241,16.4146868 C38.4746492,16.4146868 37.7850717,17.1034881 37.7850717,17.9535637 C37.7850717,18.8036393 38.4746492,19.4924406 39.3252241,19.4924406 L93.5385878,19.4924406 C94.3891626,19.4924406 95.0787402,18.8036393 95.0787402,17.9535637 Z" id="Path" fill="url(#linearGradient-32)"></path>
                                    <path d="M39.3252241,12.9265659 L93.5385878,12.9265659 C94.3891626,12.9265659 95.0787402,12.2377646 95.0787402,11.387689 C95.0787402,10.5376134 94.3891626,9.8488121 93.5385878,9.8488121 L39.3252241,9.8488121 C38.4746492,9.8488121 37.7850717,10.5376134 37.7850717,11.387689 C37.7850717,12.2377646 38.4746492,12.9265659 39.3252241,12.9265659 Z" id="Path" fill="url(#linearGradient-32)"></path>
                                    <path d="M14.682786,73.8660907 C11.1159985,73.8660907 8.21414602,76.76554 8.21414602,80.3293737 C8.21414602,83.8932073 11.1159985,86.7926566 14.682786,86.7926566 C18.2495736,86.7926566 21.151426,83.8932073 21.151426,80.3293737 C21.151426,76.76554 18.2495736,73.8660907 14.682786,73.8660907 Z M14.682786,83.7149028 C12.8144785,83.7149028 11.2944508,82.1961339 11.2944508,80.3293737 C11.2944508,78.4626134 12.8144785,76.9438445 14.682786,76.9438445 C16.5510935,76.9438445 18.0711212,78.4626134 18.0711212,80.3293737 C18.0711212,82.1961339 16.5510935,83.7149028 14.682786,83.7149028 Z" id="Shape" fill="url(#linearGradient-31)"></path>
                                    <path d="M93.5385878,82.0734341 L39.3252241,82.0734341 C38.4746492,82.0734341 37.7850717,82.7622354 37.7850717,83.612311 C37.7850717,84.4623866 38.4746492,85.1511879 39.3252241,85.1511879 L93.5385878,85.1511879 C94.3891626,85.1511879 95.0787402,84.4623866 95.0787402,83.612311 C95.0787402,82.7622354 94.3891626,82.0734341 93.5385878,82.0734341 Z" id="Path" fill="url(#linearGradient-32)"></path>
                                    <path d="M37.7850717,77.0464363 C37.7850717,77.8965119 38.4746492,78.5853132 39.3252241,78.5853132 L93.5385878,78.5853132 C94.3891626,78.5853132 95.0787402,77.8965119 95.0787402,77.0464363 C95.0787402,76.1963607 94.3891626,75.5075594 93.5385878,75.5075594 L39.3252241,75.5075594 C38.4746492,75.5075594 37.7850717,76.1963607 37.7850717,77.0464363 Z" id="Path" fill="url(#linearGradient-32)"></path>
                                </g>
                            </g>
                        </g>
                        <g id="Group-12-Copy" transform="translate(140.000000, 7.000000)">
                            <g id="Rectangle" opacity="0.298758371">
                                <use fill="#18DAA2" xlink:href="#path-33"></use>
                                <use fill="url(#linearGradient-11)" xlink:href="#path-33"></use>
                            </g>
                            <text id="Relayer" font-family="Geomanist-Book, Geomanist" font-size="20" font-weight="300" letter-spacing="-0.1428571" fill="#FFFFFF">
                                <tspan x="7.49999985" y="19">Relayer</tspan>
                            </text>
                        </g>
                    </g>
                    <g id="Identity" transform="translate(226.000000, 204.000000)">
                        <g id="Group-9" transform="translate(169.000000, 0.000000)">
                            <g id="Rectangle-Copy-2" opacity="0.298758371">
                                <use fill="#3774E8" xlink:href="#path-35"></use>
                                <use fill="url(#linearGradient-34)" xlink:href="#path-35"></use>
                            </g>
                            <g id="Rectangle" opacity="0.298758371">
                                <use fill="#3774E8" xlink:href="#path-36"></use>
                                <use fill="url(#linearGradient-34)" xlink:href="#path-36"></use>
                            </g>
                            <g id="web-2" transform="translate(98.000000, 57.500000) scale(-1, 1) translate(-98.000000, -57.500000) ">
                                <path d="M186.33305,0 L9.66672331,0 C4.33050717,0.0062890625 0.00634373761,4.29318359 1.70530257e-13,9.5834082 L1.70530257e-13,105.416816 C0.00634373761,110.706816 4.33050717,114.993711 9.66672331,115 L186.333277,115 C191.669266,114.993711 195.99343,110.706816 196,105.416592 L196,9.5834082 C195.99343,4.29318359 191.669266,0.0062890625 186.33305,0 Z M186.33305,111.166592 L9.66672331,111.166592 C6.46358894,111.166592 3.86673464,108.592344 3.86673464,105.416592 L3.86673464,19.1665918 L192.133265,19.1665918 L192.133265,105.416592 C192.133039,108.592119 189.536411,111.166592 186.33305,111.166592 Z M3.86673464,15.3334082 L3.86673464,9.5834082 C3.86673464,6.40788086 6.46358894,3.8334082 9.66672331,3.8334082 L186.333277,3.8334082 C189.536411,3.8334082 192.133265,6.40788086 192.133265,9.5834082 L192.133265,15.3334082 L3.86673464,15.3334082 Z" id="Shape" fill="url(#linearGradient-37)"></path>
                                <path d="M14,8 L12,8 C10.8953475,8 10,8.89529501 10,9.99988281 C10,11.1044706 10.8953475,12 12,12 L14,12 C15.1046525,12 16,11.104705 16,10.0001172 C16,8.89552938 15.1046525,8 14,8 Z" id="Path" fill="url(#linearGradient-22)"></path>
                                <path d="M21.7599461,8.16485494 C21.277143,7.94504835 20.7226226,7.94504835 20.2400539,8.16485494 C19.9977149,8.2662141 19.7745942,8.40807011 19.5800668,8.58433673 C18.8066444,9.37203552 18.8066444,10.6330558 19.5800668,11.4207546 C19.7745942,11.5970213 19.9977149,11.7388773 20.2400539,11.8402364 C20.7242632,12.0532545 21.2757368,12.0532545 21.7599461,11.8402364 C22.0022851,11.7388773 22.2254058,11.5970213 22.4199332,11.4207546 C23.1933556,10.6330558 23.1933556,9.37203552 22.4199332,8.58433673 C22.2254058,8.40807011 22.0022851,8.2662141 21.7599461,8.16485494 Z" id="Path" fill="url(#linearGradient-23)"></path>
                                <path d="M29.766606,8.15248304 C29.0162685,7.84190542 28.1520446,8.01460434 27.5800353,8.58995582 C27.4035818,8.78392077 27.2615753,9.00639624 27.1601087,9.24803452 C26.9466304,9.73084368 26.9466304,10.2807227 27.1601087,10.7635318 C27.2615753,11.0051701 27.4035818,11.2276456 27.5800353,11.4216105 C28.3685692,12.1927965 29.6309266,12.1927965 30.4194606,11.4216105 C30.5959141,11.2276456 30.7379205,11.0051701 30.8393871,10.7635318 C30.9513988,10.5268011 31.0062329,10.2674022 30.9994373,10.0056663 C31.0043583,9.19568735 30.5169435,8.46306067 29.766606,8.15248304 Z" id="Path" fill="url(#linearGradient-23)"></path>
                                <path d="M184.083402,8 L118.916598,8 C117.858011,8 117,8.89534747 117,10 C117,11.1046525 117.858011,12 118.916598,12 L184.083402,12 C185.141989,12 186,11.1046525 186,10 C186,8.89534747 185.141989,8 184.083402,8 Z" id="Path" fill="url(#linearGradient-24)"></path>
                            </g>
                            <g id="money" transform="translate(70.000000, 39.000000)">
                                <path d="M48.9773373,28.8425641 C47.5602465,26.634428 45.5637574,24.8674852 43.2037475,23.7329882 C42.6636193,23.473284 42.0154438,23.7006607 41.7559566,24.2406805 C41.4963609,24.7807002 41.7236292,25.4287673 42.2636489,25.6883629 C46.3762821,27.6653254 49.0335306,31.8894773 49.0335306,36.4498126 C49.0335306,38.4011736 48.5525247,40.3363708 47.6426923,42.0464694 C47.3612919,42.5753156 47.5618738,43.2322781 48.0908284,43.5136785 C48.2531164,43.6000296 48.4275542,43.6410355 48.5993886,43.6410355 C48.9875345,43.6410355 49.3629882,43.4321006 49.5580375,43.0655424 C50.6342801,41.0430178 51.2031558,38.7552564 51.2031558,36.4498126 C51.2031558,33.7421203 50.4334813,31.1115582 48.9773373,28.8425641 Z" id="Path" fill="url(#linearGradient-38)"></path>
                                <path d="M38.8008185,22.347357 L38.7278107,22.3472485 C38.1287771,22.3472485 37.642998,22.8329191 37.642998,23.4320611 C37.642998,24.0312032 38.1287771,24.5168738 38.7278107,24.5168738 L38.7906213,24.5169822 C38.792357,24.5169822 38.7939842,24.5169822 38.7958284,24.5169822 C39.3925838,24.5169822 39.877712,24.0346746 39.8805325,23.4372682 C39.8832446,22.8381262 39.3998521,22.3501775 38.8008185,22.347357 Z" id="Path" fill="url(#linearGradient-39)"></path>
                                <path d="M31.937643,47.2112623 C27.8251183,45.2341913 25.1678698,41.0100394 25.1678698,36.4498126 C25.1678698,34.4984517 25.6488757,32.5632544 26.5587081,30.8531558 C26.8401085,30.3243097 26.6395266,29.6673471 26.110572,29.3859467 C25.5818343,29.1045464 24.9246548,29.3051282 24.6433629,29.8340828 C23.5671203,31.856716 22.9982446,34.1443688 22.9982446,36.4498126 C22.9982446,39.1575049 23.7679191,41.7879586 25.2240631,44.0570611 C26.6411538,46.2651972 28.637643,48.03214 30.9976529,49.1667456 C31.1492012,49.239645 31.3093195,49.2740335 31.4669428,49.2740335 C31.870927,49.2740335 32.2586391,49.0474162 32.4454438,48.6590533 C32.7048225,48.1190335 32.4776627,47.470858 31.937643,47.2112623 Z" id="Path" fill="url(#linearGradient-40)"></path>
                                <path d="M35.4735897,48.3827515 L35.4107791,48.3825345 C34.808925,48.3814497 34.3237968,48.862998 34.3210848,49.4622485 C34.3182643,50.0613905 34.8018738,50.5493393 35.4009073,50.5521598 L35.4735897,50.5523767 C36.0726233,50.5523767 36.5584024,50.0665976 36.5584024,49.4675641 C36.5584024,48.8685306 36.0726233,48.3827515 35.4735897,48.3827515 Z" id="Path" fill="url(#linearGradient-41)"></path>
                                <path d="M42.0266174,18.677002 C41.8945957,18.3624063 41.7328501,18.065927 41.5446351,17.790927 L44.3688363,17.790927 C47.120355,17.790927 49.3589744,15.5523077 49.3589744,12.800789 C49.3589744,10.0492702 47.120355,7.81065089 44.3688363,7.81065089 L35.6816568,7.81065089 C36.2339349,7.00767258 36.5581854,6.03622288 36.5581854,4.99013807 C36.5581854,2.23861933 34.3195661,0 31.5680473,0 L4.99013807,0 C2.23861933,0 0,2.23861933 0,4.99013807 C0,7.7416568 2.23861933,9.98027613 4.99013807,9.98027613 L13.6773176,9.98027613 C13.1250394,10.7832544 12.800789,11.7547041 12.800789,12.800789 C12.800789,13.8468738 13.124931,14.8183235 13.6773176,15.6213018 L10.8481262,15.6213018 C8.0966075,15.6213018 5.85798817,17.8599211 5.85798817,20.6114398 C5.85798817,22.1916864 6.59717949,23.6018343 7.74718935,24.5167653 C6.59717949,25.4316963 5.85798817,26.8418442 5.85798817,28.4220907 C5.85798817,30.0023373 6.59717949,31.4124852 7.74718935,32.3274162 C6.59717949,33.2423471 5.85798817,34.6524951 5.85798817,36.2327416 C5.85798817,37.8129882 6.59717949,39.2231361 7.74718935,40.1380671 C6.59717949,41.052998 5.85798817,42.463146 5.85798817,44.0433925 C5.85798817,46.7949112 8.0966075,49.0335306 10.8481262,49.0335306 L23.632643,49.0335306 C27.0005523,52.6358679 31.7917357,54.8916272 37.1007002,54.8916272 C47.2695168,54.8916272 55.5425148,46.6186292 55.5425148,36.4498126 C55.5425148,27.98643 49.8114497,20.8374063 42.0266174,18.677002 Z M44.3688363,9.98027613 C45.9241321,9.98027613 47.1893491,11.2456016 47.1893491,12.800789 C47.1893491,14.3559763 45.9241321,15.6213018 44.3688363,15.6213018 L37.4260355,15.6213018 L17.790927,15.6213018 C16.2356312,15.6213018 14.9704142,14.3559763 14.9704142,12.800789 C14.9704142,11.2456016 16.2356312,9.98027613 17.790927,9.98027613 L44.3688363,9.98027613 Z M4.99013807,7.81065089 C3.43484221,7.81065089 2.16962525,6.54532544 2.16962525,4.99013807 C2.16962525,3.43495069 3.43484221,2.16962525 4.99013807,2.16962525 L31.5680473,2.16962525 C33.1233432,2.16962525 34.3885602,3.43495069 34.3885602,4.99013807 C34.3885602,6.54532544 33.1233432,7.81065089 31.5680473,7.81065089 L4.99013807,7.81065089 Z M10.8481262,17.790927 L37.4260355,17.790927 C37.862998,17.790927 38.2814103,17.8924655 38.6567554,18.0742801 C38.1436391,18.031213 37.6248817,18.007998 37.1007002,18.007998 C32.0080473,18.007998 27.3910848,20.0831361 24.0505128,23.4319527 L10.8481262,23.4319527 C9.29293886,23.4319527 8.02761341,22.1666272 8.02761341,20.6114398 C8.02761341,19.0562525 9.29293886,17.790927 10.8481262,17.790927 Z M10.8481262,25.6015779 L22.1968935,25.6015779 C20.9654142,27.288787 20.0132742,29.1917653 19.4085996,31.2426036 L10.8481262,31.2426036 C9.29283037,31.2426036 8.02761341,29.9773866 8.02761341,28.4220907 C8.02761341,26.8669034 9.29283037,25.6015779 10.8481262,25.6015779 Z M10.8481262,33.4122288 L18.9104536,33.4122288 C18.7458876,34.4008185 18.6588856,35.4152268 18.6588856,36.4498126 C18.6588856,37.333501 18.7227811,38.2024359 18.8435207,39.0532544 L10.8481262,39.0532544 C9.29283037,39.0532544 8.02761341,37.7880375 8.02761341,36.2327416 C8.02761341,34.6774458 9.29283037,33.4122288 10.8481262,33.4122288 Z M10.8481262,46.8639053 C9.29283037,46.8639053 8.02761341,45.5986884 8.02761341,44.0433925 C8.02761341,42.4880966 9.29283037,41.2228797 10.8481262,41.2228797 L19.2864497,41.2228797 C19.8338462,43.2637377 20.7230671,45.1657396 21.8892406,46.8639053 L10.8481262,46.8639053 Z M37.1007002,52.722002 C28.128215,52.722002 20.8285108,45.4222978 20.8285108,36.4498126 C20.8285108,27.4773274 28.128215,20.1776233 37.1007002,20.1776233 C46.0731854,20.1776233 53.3728895,27.4773274 53.3728895,36.4498126 C53.3728895,45.4222978 46.0731854,52.722002 37.1007002,52.722002 Z" id="Shape" fill="url(#linearGradient-42)"></path>
                            </g>
                        </g>
                        <g id="Group-12-Copy-6" transform="translate(0.000000, 2.000000)">
                            <g id="Rectangle" opacity="0.298758371">
                                <use fill="#18DAA2" xlink:href="#path-44"></use>
                                <use fill="url(#linearGradient-43)" xlink:href="#path-44"></use>
                            </g>
                            <text id="Contract-wallet" font-family="Geomanist-Book, Geomanist" font-size="20" font-weight="300" letter-spacing="-0.1428571" fill="#FFFFFF">
                                <tspan x="11.8409595" y="19">Contract wallet</tspan>
                            </text>
                        </g>
                    </g>
                    <g id="3rd-key" transform="translate(540.000000, 434.000000)">
                        <g id="security-badge">
                            <g id="Path-Copy" opacity="0.298758371">
                                <use fill="#3774E8" xlink:href="#path-46"></use>
                                <use fill="url(#linearGradient-45)" xlink:href="#path-46"></use>
                            </g>
                            <g id="Path" opacity="0.298758371">
                                <use fill="#3774E8" xlink:href="#path-47"></use>
                                <use fill="url(#linearGradient-45)" xlink:href="#path-47"></use>
                            </g>
                            <path d="M98.9537032,19.931172 C98.9174677,18.3563065 97.7864042,16.9978458 96.2066036,16.7825706 C88.842882,15.7736496 81.5804255,14.018366 74.4611314,11.417151 C67.3754845,8.82836184 59.5355256,5.2145142 51.0795642,0.454899018 C50.0059274,-0.149775766 48.9960262,-0.153487407 47.9235217,0.454899018 C39.5261194,5.21209356 31.7422931,8.81835655 24.6006753,11.417151 C17.4791165,14.0085221 10.2202189,15.7749406 2.91505632,16.7825706 C1.33509391,17.0002664 0.226515803,18.3563065 0.0506768414,19.931172 C-0.65009076,49.8447418 5.91790697,74.3205957 19.691258,93.3464692 C27.1945831,103.71034 36.5845778,112.122372 47.9235217,118.536572 C48.8001283,119.178525 50.1744869,119.12995 51.1968441,118.536572 C62.4498906,112.01538 71.8274293,103.664348 79.3134455,93.3464692 C93.1050761,74.3330217 99.6195295,49.8458715 98.9537032,19.931172 Z M74.0520267,89.6729125 C67.5450146,98.6395924 59.3808779,106.11629 49.50219,112.12221 C39.6233404,106.116129 31.4205418,98.6670263 24.9521915,89.6729125 C12.4221691,72.2504681 6.30565857,49.9615779 6.53876247,22.7886517 C13.4359527,21.6803234 20.2758781,19.8141747 27.1145093,17.3063961 C33.9531405,14.7997472 41.4352743,11.358733 49.50219,6.98609674 C57.5691057,11.358733 64.992357,14.7997472 71.8311499,17.3063961 C78.6697811,19.814336 85.5669714,21.6803234 92.4654558,22.7886517 C92.6987214,50.1369933 86.5433872,72.457029 74.0520267,89.6729125 Z" id="Shape" fill="url(#linearGradient-48)"></path>
                            <g id="Group-7" transform="translate(27.000000, 30.000000)">
                                <circle id="Oval" fill="url(#linearGradient-9)" opacity="0.300000012" cx="22.5" cy="22.5" r="22.5"></circle>
                                <g id="key" transform="translate(15.000000, 15.000000)">
                                    <g id="Shape">
                                        <use fill="black" fill-opacity="1" filter="url(#filter-50)" xlink:href="#path-49"></use>
                                        <use fill="#18DAA2" fill-rule="evenodd" xlink:href="#path-49"></use>
                                    </g>
                                </g>
                            </g>
                        </g>
                        <g id="Group-12-Copy-2" transform="translate(18.000000, 154.000000)">
                            <g id="Rectangle" opacity="0.298758371">
                                <use fill="#18DAA2" xlink:href="#path-51"></use>
                                <use fill="url(#linearGradient-11)" xlink:href="#path-51"></use>
                            </g>
                            <text id="3rd-key" font-family="Geomanist-Book, Geomanist" font-size="20" font-weight="300" letter-spacing="-0.1428571" fill="#FFFFFF">
                                <tspan x="7.21999985" y="19">3rd key</tspan>
                            </text>
                        </g>
                    </g>
                    <g id="Wallet" transform="translate(783.000000, 351.000000)">
                        <g id="Group-10">
                            <g id="Rectangle-Copy-3" opacity="0.298758371">
                                <use fill="#3774E8" xlink:href="#path-53"></use>
                                <use fill="url(#linearGradient-52)" xlink:href="#path-53"></use>
                            </g>
                            <g id="Rectangle" opacity="0.298758371">
                                <use fill="#3774E8" xlink:href="#path-54"></use>
                                <use fill="url(#linearGradient-52)" xlink:href="#path-54"></use>
                            </g>
                            <g id="wallet-2" fill="url(#linearGradient-55)">
                                <path d="M82,39.1306513 L78.025839,39.1306513 L78.025839,20.5913831 C78.025839,16.1467648 74.4602989,12.5309189 70.0775169,12.5309189 L64.6949489,12.5309189 L59.1867276,2.48757152 C58.3472241,0.952686965 56.749595,0 55.0169133,0 C54.2093178,0 53.4081535,0.211206536 52.7007345,0.609288214 L31.5612748,12.5306681 L7.9483221,12.5306681 C3.56554002,12.5306681 0,16.1465139 0,20.5911322 L0,75.9395358 C0,80.3841541 3.56554002,84 7.9483221,84 L70.0775169,84 C74.4602989,84 78.025839,80.3841541 78.025839,75.9395358 L78.025839,59.6846594 L82,59.6846594 L82,39.1306513 Z M70.0775169,15.7549541 C72.5255328,15.7549541 74.5253518,17.6410134 74.7939731,20.0543365 L68.8199931,20.0543365 L66.4639911,15.7549541 L70.0775169,15.7549541 Z M54.2474096,3.42721485 C54.9929204,3.00329674 55.9961691,3.29978858 56.4077583,4.05280761 L65.1827217,20.0528315 L24.7638689,20.0528315 L54.2474096,3.42721485 Z M74.8464112,75.9395358 C74.8464112,78.6059556 72.7065925,80.7759648 70.0772695,80.7759648 L7.9483221,80.7759648 C5.31899914,80.7759648 3.17918043,78.6059556 3.17918043,75.9395358 L3.17918043,20.5913831 C3.17918043,17.9249633 5.31899914,15.7549541 7.9483221,15.7549541 L25.8447853,15.7549541 L18.2207381,20.0545874 L8.9419242,20.0545874 C8.06284482,20.0545874 7.35221031,20.7767532 7.35221031,21.6667304 C7.35221031,22.5567076 8.06284482,23.2788734 8.9419242,23.2788734 L12.5027646,23.2788734 L70.5877984,23.2788734 L74.8464112,23.2788734 L74.8464112,39.1321564 L63.2212419,39.1321564 C57.8225963,39.1321564 53.4289308,43.5880624 53.4289308,49.0626262 L53.4289308,49.7559455 C53.4289308,55.23076 57.8228436,59.6864153 63.2212419,59.6864153 L74.8464112,59.6864153 L74.8464112,75.9395358 Z M78.8205722,56.4606242 L78.025839,56.4606242 L63.2212419,56.4606242 C59.5745713,56.4606242 56.6081112,53.4525615 56.6081112,49.7541896 L56.6081112,49.0608703 C56.6081112,45.3627492 59.5743239,42.3544357 63.2212419,42.3544357 L78.025839,42.3544357 L78.8205722,42.3544357 L78.8205722,56.4606242 Z M68.0903127,49.539973 C68.0903127,51.5068025 66.5196447,53.0993801 64.5804262,53.0993801 C62.6409604,53.0993801 61.0705398,51.5065517 61.0705398,49.539973 C61.0705398,47.5733943 62.6412078,45.9805659 64.5804262,45.9805659 C66.519892,45.9803151 68.0903127,47.5746485 68.0903127,49.539973 Z" id="Shape"></path>
                            </g>
                        </g>
                        <g id="Group-12" transform="translate(14.000000, 119.000000)">
                            <g id="Rectangle" opacity="0.298758371">
                                <use fill="#18DAA2" xlink:href="#path-56"></use>
                                <use fill="url(#linearGradient-11)" xlink:href="#path-56"></use>
                            </g>
                            <text id="Wallet" font-family="Geomanist-Book, Geomanist" font-size="20" font-weight="300" letter-spacing="-0.1428571" fill="#FFFFFF">
                                <tspan x="12.2685713" y="19">Wallet</tspan>
                            </text>
                        </g>
                    </g>
                </g>
            </g>
        </g>
    </g>
</svg>