<svg width="1021" height="661" viewBox="0 0 1021 661" fill="none" xmlns="http://www.w3.org/2000/svg">
<g opacity="0.4" filter="url(#filter0_d)">
<path d="M144.543 229.82V313.852H394.48" stroke="#18DAA2"/>
</g>
<g opacity="0.4" filter="url(#filter1_d)">
<path d="M473.418 362.531V478.949H223.48" stroke="#18DAA2"/>
</g>
<g opacity="0.4" filter="url(#filter2_d)">
<path d="M503.48 362.531V508.949H543.418" stroke="#18DAA2"/>
</g>
<g opacity="0.4" filter="url(#filter3_d)">
<path d="M577.48 359.531V435.949H783.859" stroke="#18DAA2" stroke-width="2" stroke-dasharray="8 8"/>
</g>
<path d="M688.39 441.44C687.888 441.942 687.074 441.943 686.572 441.441C686.069 440.939 686.069 440.125 686.571 439.622L691.068 435.122C691.57 434.62 692.384 434.62 692.886 435.122C693.389 435.624 693.389 436.438 692.887 436.94L688.39 441.44Z" fill="#17D2A5"/>
<path d="M692.887 435.122C693.389 435.625 693.389 436.439 692.886 436.941C692.384 437.443 691.57 437.442 691.068 436.94L686.571 432.44C686.069 431.938 686.069 431.124 686.572 430.622C687.074 430.12 687.888 430.12 688.39 430.622L692.887 435.122Z" fill="#17D2A5"/>
<g opacity="0.298758">
<rect x="632.48" y="406.531" width="115" height="15" fill="#18DAA2"/>
<rect x="632.48" y="406.531" width="115" height="15" fill="url(#paint0_linear)"/>
</g>
<path d="M643.747 414.531H645.967V402.531H649.487V400.531H640.227V402.531H643.747V414.531ZM655.633 403.831C654.153 403.831 653.053 404.691 652.653 405.731V404.091H650.513V414.531H652.693V410.031C652.693 407.771 653.353 406.031 655.633 406.031V403.831ZM656.469 411.311C656.469 413.411 658.209 414.791 660.409 414.791C661.709 414.791 662.549 414.351 663.089 413.751L663.269 414.531H665.169V407.791C665.169 405.511 664.109 403.831 661.009 403.831C659.269 403.831 657.869 404.491 657.029 405.031L657.869 406.551C658.629 406.131 659.629 405.731 660.789 405.731C662.169 405.731 663.009 406.451 663.009 407.651V408.631C662.609 408.271 661.709 407.871 660.509 407.871C658.109 407.871 656.469 409.291 656.469 411.311ZM658.649 411.251C658.649 410.211 659.529 409.451 660.849 409.451C662.169 409.451 663.069 410.151 663.069 411.251C663.069 412.331 662.149 413.051 660.869 413.051C659.549 413.051 658.649 412.291 658.649 411.251ZM672.397 403.831C670.997 403.831 669.917 404.631 669.457 405.451V404.091H667.317V414.531H669.497V408.231C669.497 406.811 670.397 405.791 671.777 405.791C672.977 405.791 673.877 406.631 673.877 408.071V414.531H676.037V408.251C676.037 405.971 675.097 403.831 672.397 403.831ZM677.509 412.711C678.029 413.651 679.149 414.791 681.269 414.791C683.409 414.791 685.049 413.531 685.049 411.591C685.049 407.911 679.949 408.751 679.949 406.751C679.949 406.031 680.549 405.611 681.349 405.611C682.509 405.611 683.069 406.291 683.369 406.771L684.869 405.771C684.469 404.971 683.429 403.831 681.469 403.831C679.449 403.831 677.889 404.951 677.889 406.791C677.889 410.411 682.969 409.691 682.969 411.691C682.969 412.531 682.289 412.991 681.369 412.991C680.069 412.991 679.349 412.331 678.869 411.631L677.509 412.711ZM685.982 411.311C685.982 413.411 687.722 414.791 689.922 414.791C691.222 414.791 692.062 414.351 692.602 413.751L692.782 414.531H694.682V407.791C694.682 405.511 693.622 403.831 690.522 403.831C688.782 403.831 687.382 404.491 686.542 405.031L687.382 406.551C688.142 406.131 689.142 405.731 690.302 405.731C691.682 405.731 692.522 406.451 692.522 407.651V408.631C692.122 408.271 691.222 407.871 690.022 407.871C687.622 407.871 685.982 409.291 685.982 411.311ZM688.162 411.251C688.162 410.211 689.042 409.451 690.362 409.451C691.682 409.451 692.582 410.151 692.582 411.251C692.582 412.331 691.662 413.051 690.382 413.051C689.062 413.051 688.162 412.291 688.162 411.251ZM705.11 405.111C704.51 404.591 703.35 403.831 701.63 403.831C698.53 403.831 696.19 406.191 696.19 409.311C696.19 412.451 698.47 414.791 701.65 414.791C703.39 414.791 704.59 413.951 705.11 413.491L704.49 411.691C704.05 412.091 703.11 412.851 701.77 412.851C699.83 412.851 698.39 411.311 698.39 409.311C698.39 407.331 699.71 405.811 701.69 405.811C703.01 405.811 703.97 406.491 704.45 406.951L705.11 405.111ZM706.887 404.091H705.727V405.891H706.887V410.411C706.887 412.971 707.647 414.671 710.187 414.671C710.867 414.671 711.247 414.591 711.247 414.591V412.711C711.247 412.711 711.007 412.731 710.827 412.731C709.667 412.731 709.047 412.371 709.047 410.751V405.891H711.167V404.091H709.047V401.911H706.887V404.091ZM712.853 414.531H715.033V404.091H712.853V414.531ZM712.573 401.511C712.573 402.271 713.173 402.871 713.933 402.871C714.693 402.871 715.293 402.271 715.293 401.511C715.293 400.751 714.693 400.151 713.933 400.151C713.173 400.151 712.573 400.751 712.573 401.511ZM718.899 409.331C718.899 407.291 720.259 405.771 722.219 405.771C724.159 405.771 725.579 407.271 725.579 409.311C725.579 411.351 724.159 412.851 722.219 412.851C720.279 412.851 718.899 411.391 718.899 409.331ZM716.699 409.331C716.699 412.491 719.019 414.791 722.219 414.791C725.399 414.791 727.759 412.451 727.759 409.311C727.759 406.171 725.439 403.831 722.219 403.831C719.079 403.831 716.699 406.171 716.699 409.331ZM734.503 403.831C733.103 403.831 732.023 404.631 731.563 405.451V404.091H729.423V414.531H731.603V408.231C731.603 406.811 732.503 405.791 733.883 405.791C735.083 405.791 735.983 406.631 735.983 408.071V414.531H738.143V408.251C738.143 405.971 737.203 403.831 734.503 403.831Z" fill="white"/>
<g opacity="0.4" filter="url(#filter4_d)">
<path d="M853.859 161.949V92.5312H576.48" stroke="#18DAA2" stroke-width="2" stroke-dasharray="8 8"/>
</g>
<g opacity="0.4" filter="url(#filter5_d)">
<path d="M853.859 253.531V322.949H590.48" stroke="#18DAA2" stroke-width="2" stroke-dasharray="8 8"/>
</g>
<g opacity="0.4" filter="url(#filter6_d)">
<path d="M552.232 250.434V158.22" stroke="#18DAA2" stroke-width="2" stroke-dasharray="8 8"/>
</g>
<path d="M848.572 120.441C848.069 119.939 848.069 119.125 848.571 118.622C849.073 118.12 849.887 118.12 850.389 118.622L854.889 123.119C855.392 123.621 855.392 124.435 854.89 124.937C854.388 125.439 853.574 125.44 853.072 124.938L848.572 120.441Z" fill="#17D2A5"/>
<path d="M854.889 124.938C854.387 125.44 853.573 125.439 853.071 124.937C852.569 124.435 852.569 123.621 853.072 123.119L857.572 118.622C858.074 118.12 858.888 118.12 859.39 118.622C859.892 119.125 859.892 119.939 859.389 120.441L854.889 124.938Z" fill="#17D2A5"/>
<path d="M848.572 300.441C848.069 299.939 848.069 299.125 848.571 298.622C849.073 298.12 849.887 298.12 850.389 298.622L854.889 303.119C855.392 303.621 855.392 304.435 854.89 304.937C854.388 305.439 853.574 305.44 853.072 304.938L848.572 300.441Z" fill="#17D2A5"/>
<path d="M854.889 304.938C854.387 305.44 853.573 305.439 853.071 304.937C852.569 304.435 852.569 303.621 853.072 303.119L857.572 298.622C858.074 298.12 858.888 298.12 859.39 298.622C859.892 299.125 859.892 299.939 859.389 300.441L854.889 304.938Z" fill="#17D2A5"/>
<g opacity="0.298758">
<rect x="92.4805" y="456.531" width="162" height="108" rx="9" fill="#3774E8"/>
<rect x="92.4805" y="456.531" width="162" height="108" rx="9" fill="url(#paint1_linear)"/>
</g>
<g opacity="0.298758">
<rect x="82.4805" y="446.531" width="162" height="108" rx="9" fill="#3774E8"/>
<rect x="82.4805" y="446.531" width="162" height="108" rx="9" fill="url(#paint2_linear)"/>
</g>
<g filter="url(#filter7_d)">
<path fill-rule="evenodd" clip-rule="evenodd" d="M234.25 538.692H223.49C224.422 537.389 224.984 535.8 224.984 534.078V441.511C224.984 437.11 221.399 433.531 216.994 433.531H70.8613C66.4587 433.531 62.8753 437.112 62.8753 441.511V534.078C62.8753 535.835 63.4657 537.45 64.4333 538.772H53.5712C53.5712 538.772 53.0834 539.266 54.3699 540.55C58.018 544.197 66.2124 544.512 66.2124 544.512V544.503C66.2124 544.503 219.703 544.539 219.874 544.53C228.43 544.53 231.192 541.966 233.454 540.471C235.129 538.789 234.25 538.692 234.25 538.692ZM154.189 540.638H133.625V539.242H154.186L154.189 540.638ZM219.088 532.243H68.5329V438.912H219.089V532.243H219.088Z" fill="url(#paint3_linear)"/>
</g>
<path opacity="0.3" fill-rule="evenodd" clip-rule="evenodd" d="M143.98 508.531C156.407 508.531 166.48 498.458 166.48 486.031C166.48 473.605 156.407 463.531 143.98 463.531C131.554 463.531 121.48 473.605 121.48 486.031C121.48 498.458 131.554 508.531 143.98 508.531Z" fill="url(#paint4_linear)"/>
<path fill-rule="evenodd" clip-rule="evenodd" d="M150.973 480.039C148.962 478.029 145.691 478.029 143.68 480.039C142.307 481.412 141.83 483.436 142.425 485.272L136.618 491.079C136.53 491.167 136.48 491.286 136.48 491.411V494.062C136.48 494.322 136.69 494.531 136.949 494.531H139.601C139.726 494.531 139.845 494.482 139.932 494.394L140.595 493.731C140.696 493.629 140.746 493.488 140.729 493.345L140.647 492.633L141.634 492.54C141.858 492.519 142.035 492.342 142.056 492.117L142.149 491.13L142.862 491.213C142.994 491.231 143.127 491.187 143.227 491.098C143.327 491.009 143.384 490.881 143.384 490.748V489.875H144.241C144.366 489.875 144.485 489.826 144.573 489.738L145.775 488.551C147.611 489.147 149.599 488.706 150.973 487.331C152.983 485.321 152.983 482.05 150.973 480.039ZM149.646 483.354C149.098 483.902 148.206 483.902 147.658 483.354C147.11 482.805 147.11 481.914 147.658 481.365C148.206 480.817 149.098 480.817 149.646 481.365C150.195 481.914 150.195 482.805 149.646 483.354Z" fill="url(#paint5_linear)"/>
<g opacity="0.298758">
<rect x="114.48" y="590.531" width="80" height="15" fill="#18DAA2"/>
<rect x="114.48" y="590.531" width="80" height="15" fill="url(#paint6_linear)"/>
</g>
<path d="M120.46 598.531H129.32V596.571H123.06C123.4 594.351 129.14 592.311 129.14 588.351C129.14 585.951 127.46 584.271 124.78 584.271C121.88 584.271 120.74 586.391 120.46 587.671L122.4 588.231C122.68 587.211 123.34 586.331 124.7 586.331C126.08 586.331 126.88 587.191 126.88 588.431C126.88 591.511 120.46 593.771 120.46 597.731V598.531ZM136.284 587.831C134.884 587.831 133.804 588.631 133.344 589.451V588.091H131.204V598.531H133.384V592.231C133.384 590.811 134.284 589.791 135.664 589.791C136.864 589.791 137.764 590.631 137.764 592.071V598.531H139.924V592.251C139.924 589.971 138.984 587.831 136.284 587.831ZM152.015 584.071H149.835V589.491C149.555 589.031 148.435 587.831 146.455 587.831C143.475 587.831 141.495 590.111 141.495 593.331C141.495 596.531 143.615 598.791 146.595 598.791C148.615 598.791 149.675 597.531 149.955 597.171V598.531H152.015V584.071ZM149.915 593.351C149.915 595.271 148.735 596.871 146.815 596.871C145.035 596.871 143.695 595.491 143.695 593.351C143.695 591.251 144.975 589.771 146.795 589.771C148.535 589.771 149.915 591.071 149.915 593.351ZM159.193 598.531H161.373V593.051L165.413 598.531H167.993L163.533 592.811L167.713 588.091H165.233L161.373 592.551V584.071H159.193V598.531ZM168.528 593.351C168.528 596.511 170.688 598.791 173.948 598.791C176.428 598.791 177.808 597.371 178.308 596.511L176.868 595.431C176.468 596.011 175.568 596.891 173.988 596.891C172.128 596.891 170.788 595.691 170.748 593.831H178.608C178.628 593.651 178.628 593.471 178.628 593.291C178.628 590.011 176.768 587.831 173.608 587.831C170.748 587.831 168.528 590.111 168.528 593.351ZM170.828 592.331C170.968 590.691 172.128 589.651 173.628 589.651C175.128 589.651 176.328 590.611 176.408 592.331H170.828ZM183.896 602.111L189.356 588.091H187.076L184.296 595.691L181.476 588.091H179.136L183.276 598.351L181.796 602.111H183.896Z" fill="white"/>
<g opacity="0.3">
<rect x="115.48" y="139.531" width="67" height="115" rx="9" fill="#3774E8"/>
<rect x="115.48" y="139.531" width="67" height="115" rx="9" fill="url(#paint7_linear)"/>
</g>
<g opacity="0.3">
<rect x="105.48" y="129.531" width="67" height="115" rx="9" fill="#3774E8"/>
<rect x="105.48" y="129.531" width="67" height="115" rx="9" fill="url(#paint8_linear)"/>
</g>
<g filter="url(#filter8_d)">
<path fill-rule="evenodd" clip-rule="evenodd" d="M162.48 127.299V226.764C162.48 231.038 158.981 234.531 154.691 234.531H103.27C98.9865 234.535 95.4805 231.042 95.4805 226.767V127.299C95.4805 123.027 98.9865 119.531 103.27 119.531H154.687C158.971 119.531 162.48 123.024 162.48 127.299ZM119.812 126.07C119.812 126.589 120.234 127.01 120.754 127.01H137.203C137.724 127.01 138.146 126.589 138.146 126.07C138.146 125.551 137.724 125.127 137.203 125.127H120.754C120.237 125.13 119.812 125.551 119.812 126.07ZM132.874 226.767C132.874 224.621 131.131 222.883 128.979 222.883C126.827 222.883 125.084 224.618 125.084 226.767C125.084 228.916 126.827 230.654 128.979 230.654C131.131 230.654 132.874 228.913 132.874 226.767ZM157.06 131.85H100.904V220.159H157.06V131.85Z" fill="url(#paint9_linear)"/>
</g>
<path opacity="0.3" fill-rule="evenodd" clip-rule="evenodd" d="M127.98 199.531C140.407 199.531 150.48 189.458 150.48 177.031C150.48 164.605 140.407 154.531 127.98 154.531C115.554 154.531 105.48 164.605 105.48 177.031C105.48 189.458 115.554 199.531 127.98 199.531Z" fill="url(#paint10_linear)"/>
<path fill-rule="evenodd" clip-rule="evenodd" d="M134.973 171.039C132.962 169.029 129.691 169.029 127.68 171.039C126.307 172.412 125.83 174.436 126.425 176.272L120.618 182.079C120.53 182.167 120.48 182.286 120.48 182.411V185.062C120.48 185.322 120.69 185.531 120.949 185.531H123.601C123.726 185.531 123.845 185.482 123.932 185.394L124.595 184.731C124.696 184.629 124.746 184.488 124.729 184.345L124.647 183.633L125.634 183.54C125.858 183.519 126.035 183.342 126.056 183.117L126.149 182.13L126.862 182.213C126.994 182.231 127.127 182.187 127.227 182.098C127.327 182.009 127.384 181.881 127.384 181.748V180.875H128.241C128.366 180.875 128.485 180.826 128.573 180.738L129.775 179.551C131.611 180.147 133.599 179.706 134.973 178.331C136.983 176.321 136.983 173.05 134.973 171.039ZM133.646 174.354C133.098 174.902 132.206 174.902 131.658 174.354C131.11 173.805 131.11 172.914 131.658 172.365C132.206 171.817 133.098 171.817 133.646 172.365C134.195 172.914 134.195 173.805 133.646 174.354Z" fill="url(#paint11_linear)"/>
<g opacity="0.298758">
<rect x="0.480469" y="143.531" width="80" height="15" fill="#18DAA2"/>
<rect x="0.480469" y="143.531" width="80" height="15" fill="url(#paint12_linear)"/>
</g>
<path d="M13.1184 140.311L14.6584 139.731V151.531H16.8584V137.531H15.0584L12.5184 138.471L13.1184 140.311ZM18.759 149.711C19.279 150.651 20.399 151.791 22.519 151.791C24.659 151.791 26.299 150.531 26.299 148.591C26.299 144.911 21.199 145.751 21.199 143.751C21.199 143.031 21.799 142.611 22.599 142.611C23.759 142.611 24.319 143.291 24.619 143.771L26.119 142.771C25.719 141.971 24.679 140.831 22.719 140.831C20.699 140.831 19.139 141.951 19.139 143.791C19.139 147.411 24.219 146.691 24.219 148.691C24.219 149.531 23.539 149.991 22.619 149.991C21.319 149.991 20.599 149.331 20.119 148.631L18.759 149.711ZM28.0518 141.091H26.8918V142.891H28.0518V147.411C28.0518 149.971 28.8118 151.671 31.3518 151.671C32.0318 151.671 32.4118 151.591 32.4118 151.591V149.711C32.4118 149.711 32.1718 149.731 31.9918 149.731C30.8318 149.731 30.2118 149.371 30.2118 147.751V142.891H32.3318V141.091H30.2118V138.911H28.0518V141.091ZM38.8947 151.531H41.0747V146.051L45.1147 151.531H47.6947L43.2347 145.811L47.4147 141.091H44.9347L41.0747 145.551V137.071H38.8947V151.531ZM48.2295 146.351C48.2295 149.511 50.3895 151.791 53.6495 151.791C56.1295 151.791 57.5095 150.371 58.0095 149.511L56.5695 148.431C56.1695 149.011 55.2695 149.891 53.6895 149.891C51.8295 149.891 50.4895 148.691 50.4495 146.831H58.3095C58.3295 146.651 58.3295 146.471 58.3295 146.291C58.3295 143.011 56.4695 140.831 53.3095 140.831C50.4495 140.831 48.2295 143.111 48.2295 146.351ZM50.5295 145.331C50.6695 143.691 51.8295 142.651 53.3295 142.651C54.8295 142.651 56.0295 143.611 56.1095 145.331H50.5295ZM63.5971 155.111L69.0571 141.091H66.7771L63.9971 148.691L61.1771 141.091H58.8371L62.9771 151.351L61.4971 155.111H63.5971Z" fill="white"/>
<g opacity="0.298758">
<rect x="481.48" y="64.5312" width="116" height="115" rx="9" fill="#3774E8"/>
<rect x="481.48" y="64.5312" width="116" height="115" rx="9" fill="url(#paint13_linear)"/>
</g>
<g opacity="0.298758">
<rect x="471.48" y="54.5312" width="116" height="115" rx="9" fill="#3774E8"/>
<rect x="471.48" y="54.5312" width="116" height="115" rx="9" fill="url(#paint14_linear)"/>
</g>
<g filter="url(#filter9_d)">
<path fill-rule="evenodd" clip-rule="evenodd" d="M471.147 44.5312H567.814C573.15 44.5375 577.474 48.8244 577.48 54.1147V149.948C577.474 155.238 573.15 159.525 567.814 159.531H471.147C465.811 159.525 461.487 155.238 461.48 149.948V54.1147C461.487 48.8244 465.811 44.5375 471.147 44.5312ZM465.347 149.948C465.347 153.123 467.944 155.698 471.147 155.698H567.814C571.017 155.698 573.614 153.124 573.614 149.948V63.6978H465.347V149.948H465.347ZM465.347 59.8647H573.614V54.1147C573.614 50.9391 571.017 48.3647 567.814 48.3647H471.147C467.944 48.3647 465.347 50.9391 465.347 54.1147V59.8647H465.347Z" fill="url(#paint15_linear)"/>
</g>
<g filter="url(#filter10_d)">
<path fill-rule="evenodd" clip-rule="evenodd" d="M563.48 52.5312H565.48C566.585 52.5312 567.48 53.4265 567.48 54.5311C567.48 55.6357 566.585 56.5312 565.48 56.5312H563.48C562.376 56.5312 561.48 55.636 561.48 54.5314C561.48 53.4268 562.376 52.5312 563.48 52.5312Z" fill="url(#paint16_linear)"/>
</g>
<g filter="url(#filter11_d)">
<path fill-rule="evenodd" clip-rule="evenodd" d="M555.721 52.6961C556.203 52.4763 556.758 52.4763 557.24 52.6961C557.483 52.7975 557.706 52.9393 557.9 53.1156C558.674 53.9033 558.674 55.1643 557.9 55.952C557.706 56.1283 557.483 56.2701 557.24 56.3715C556.756 56.5845 556.205 56.5845 555.721 56.3715C555.478 56.2701 555.255 56.1283 555.061 55.952C554.287 55.1643 554.287 53.9033 555.061 53.1156C555.255 52.9393 555.478 52.7975 555.721 52.6961Z" fill="url(#paint17_linear)"/>
</g>
<g filter="url(#filter12_d)">
<path fill-rule="evenodd" clip-rule="evenodd" d="M547.714 52.6837C548.464 52.3732 549.328 52.5459 549.9 53.1212C550.077 53.3152 550.219 53.5376 550.32 53.7793C550.534 54.2621 550.534 54.812 550.32 55.2948C550.219 55.5364 550.077 55.7589 549.9 55.9529C549.112 56.724 547.85 56.724 547.061 55.9529C546.885 55.7589 546.743 55.5364 546.641 55.2948C546.529 55.0581 546.474 54.7987 546.481 54.5369C546.476 53.7269 546.964 52.9943 547.714 52.6837Z" fill="url(#paint18_linear)"/>
</g>
<g filter="url(#filter13_d)">
<path fill-rule="evenodd" clip-rule="evenodd" d="M473.397 52.5312H538.564C539.622 52.5312 540.48 53.4266 540.48 54.5312C540.48 55.6359 539.622 56.5312 538.564 56.5312H473.397C472.338 56.5312 471.48 55.6359 471.48 54.5312C471.48 53.4266 472.338 52.5312 473.397 52.5312Z" fill="url(#paint19_linear)"/>
</g>
<path opacity="0.3" fill-rule="evenodd" clip-rule="evenodd" d="M519.98 130.531C532.407 130.531 542.48 120.458 542.48 108.031C542.48 95.6048 532.407 85.5312 519.98 85.5312C507.554 85.5312 497.48 95.6048 497.48 108.031C497.48 120.458 507.554 130.531 519.98 130.531Z" fill="url(#paint20_linear)"/>
<path fill-rule="evenodd" clip-rule="evenodd" d="M526.973 102.039C524.962 100.029 521.691 100.029 519.68 102.039C518.307 103.412 517.83 105.436 518.425 107.272L512.618 113.079C512.53 113.167 512.48 113.286 512.48 113.411V116.062C512.48 116.322 512.69 116.531 512.949 116.531H515.601C515.726 116.531 515.845 116.482 515.932 116.394L516.595 115.731C516.696 115.629 516.746 115.488 516.729 115.345L516.647 114.633L517.634 114.54C517.858 114.519 518.035 114.342 518.056 114.117L518.149 113.13L518.862 113.213C518.994 113.231 519.127 113.187 519.227 113.098C519.327 113.009 519.384 112.881 519.384 112.748V111.875H520.241C520.366 111.875 520.485 111.826 520.573 111.738L521.775 110.551C523.611 111.147 525.599 110.706 526.973 109.331C528.983 107.321 528.983 104.05 526.973 102.039ZM525.646 105.354C525.098 105.902 524.206 105.902 523.658 105.354C523.11 104.805 523.11 103.914 523.658 103.365C524.206 102.817 525.098 102.817 525.646 103.365C526.195 103.914 526.195 104.805 525.646 105.354Z" fill="url(#paint21_linear)"/>
<g opacity="0.298758">
<rect x="351.48" y="77.5312" width="95" height="15" fill="#18DAA2"/>
<rect x="351.48" y="77.5312" width="95" height="15" fill="url(#paint22_linear)"/>
</g>
<path d="M370.341 85.5312H372.841L376.701 71.5312H374.341L371.481 82.7712L368.361 71.5312H366.261L363.161 82.7712L360.301 71.5312H357.921L361.801 85.5312H364.301L367.321 74.8512L370.341 85.5312ZM377.084 80.3512C377.084 83.5112 379.244 85.7913 382.504 85.7913C384.984 85.7913 386.364 84.3712 386.864 83.5112L385.424 82.4312C385.024 83.0112 384.124 83.8912 382.544 83.8912C380.684 83.8912 379.344 82.6912 379.304 80.8312H387.164C387.184 80.6512 387.184 80.4712 387.184 80.2912C387.184 77.0112 385.324 74.8312 382.164 74.8312C379.304 74.8312 377.084 77.1112 377.084 80.3512ZM379.384 79.3312C379.524 77.6912 380.684 76.6512 382.184 76.6512C383.684 76.6512 384.884 77.6112 384.964 79.3312H379.384ZM388.792 85.5312H390.852V84.1712C391.132 84.5312 392.192 85.7913 394.212 85.7913C397.192 85.7913 399.312 83.5312 399.312 80.3312C399.312 77.1112 397.332 74.8312 394.352 74.8312C392.372 74.8312 391.252 76.0312 390.972 76.4912V71.0712H388.792V85.5312ZM390.892 80.3512C390.892 78.0712 392.272 76.7712 394.012 76.7712C395.832 76.7712 397.112 78.2512 397.112 80.3512C397.112 82.4912 395.772 83.8712 393.992 83.8712C392.072 83.8712 390.892 82.2712 390.892 80.3512ZM405.21 82.3112C405.21 84.4112 406.95 85.7913 409.15 85.7913C410.45 85.7913 411.29 85.3512 411.83 84.7512L412.01 85.5312H413.91V78.7912C413.91 76.5112 412.85 74.8312 409.75 74.8312C408.01 74.8312 406.61 75.4912 405.77 76.0312L406.61 77.5512C407.37 77.1312 408.37 76.7312 409.53 76.7312C410.91 76.7312 411.75 77.4512 411.75 78.6512V79.6312C411.35 79.2712 410.45 78.8712 409.25 78.8712C406.85 78.8712 405.21 80.2912 405.21 82.3112ZM407.39 82.2512C407.39 81.2112 408.27 80.4512 409.59 80.4512C410.91 80.4512 411.81 81.1512 411.81 82.2512C411.81 83.3312 410.89 84.0512 409.61 84.0512C408.29 84.0512 407.39 83.2912 407.39 82.2512ZM416.058 89.2713H418.238V84.1512C418.518 84.5912 419.638 85.7913 421.618 85.7913C424.598 85.7913 426.578 83.5312 426.578 80.2912C426.578 77.1112 424.458 74.8312 421.478 74.8312C419.458 74.8312 418.398 76.0912 418.118 76.4712V75.0912H416.058V89.2713ZM418.158 80.2912C418.158 78.3712 419.338 76.7712 421.258 76.7712C423.038 76.7712 424.378 78.1512 424.378 80.2912C424.378 82.3912 423.098 83.8512 421.278 83.8512C419.538 83.8512 418.158 82.5512 418.158 80.2912ZM428.259 89.2713H430.439V84.1512C430.719 84.5912 431.839 85.7913 433.819 85.7913C436.799 85.7913 438.779 83.5312 438.779 80.2912C438.779 77.1112 436.659 74.8312 433.679 74.8312C431.659 74.8312 430.599 76.0912 430.319 76.4712V75.0912H428.259V89.2713ZM430.359 80.2912C430.359 78.3712 431.539 76.7712 433.459 76.7712C435.239 76.7712 436.579 78.1512 436.579 80.2912C436.579 82.3912 435.299 83.8512 433.479 83.8512C431.739 83.8512 430.359 82.5512 430.359 80.2912Z" fill="white"/>
<g opacity="0.298758">
<rect x="820.48" y="179.531" width="105" height="95" rx="9" fill="#3774E8"/>
<rect x="820.48" y="179.531" width="105" height="95" rx="9" fill="url(#paint23_linear)"/>
</g>
<g opacity="0.298758">
<rect x="810.48" y="169.531" width="105" height="95" rx="9" fill="#3774E8"/>
<rect x="810.48" y="169.531" width="105" height="95" rx="9" fill="url(#paint24_linear)"/>
</g>
<g filter="url(#filter14_d)">
<path fill-rule="evenodd" clip-rule="evenodd" d="M897.305 188.873C901.777 188.873 905.416 185.237 905.416 180.768V167.636C905.416 163.167 901.777 159.531 897.305 159.531H808.592C804.119 159.531 800.48 163.167 800.48 167.636V180.768C800.48 185.237 804.119 188.873 808.592 188.873H851.408V192.361H808.592C804.119 192.361 800.48 195.996 800.48 200.465V213.597C800.48 218.066 804.119 221.702 808.592 221.702H851.408V225.19H808.592C804.119 225.19 800.48 228.826 800.48 233.295V246.426C800.48 250.895 804.119 254.531 808.592 254.531H897.305C901.777 254.531 905.416 250.895 905.416 246.426V233.295C905.416 228.826 901.777 225.19 897.305 225.19H854.488V221.702H897.305C901.777 221.702 905.416 218.066 905.416 213.597V200.465C905.416 195.996 901.777 192.361 897.305 192.361H854.488V188.873H897.305ZM902.336 233.295V246.426C902.336 249.199 900.079 251.453 897.305 251.453H808.592C805.818 251.453 803.561 249.199 803.561 246.426V233.295C803.561 230.523 805.818 228.268 808.592 228.268H897.305C900.079 228.268 902.336 230.523 902.336 233.295ZM902.336 200.465V213.597C902.336 216.369 900.079 218.624 897.305 218.624H808.592C805.818 218.624 803.561 216.369 803.561 213.597V200.465C803.561 197.693 805.818 195.438 808.592 195.438H897.305C900.079 195.438 902.336 197.693 902.336 200.465ZM803.561 180.768V167.636C803.561 164.864 805.818 162.609 808.592 162.609H897.305C900.079 162.609 902.336 164.864 902.336 167.636V180.768C902.336 183.54 900.079 185.795 897.305 185.795H808.592C805.818 185.795 803.561 183.54 803.561 180.768Z" fill="url(#paint25_linear)"/>
</g>
<g filter="url(#filter15_d)">
<path fill-rule="evenodd" clip-rule="evenodd" d="M815.163 167.739C811.597 167.739 808.695 170.638 808.695 174.202C808.695 177.766 811.597 180.665 815.163 180.665C818.73 180.665 821.632 177.766 821.632 174.202C821.632 170.638 818.73 167.739 815.163 167.739ZM815.163 177.587C813.295 177.587 811.775 176.069 811.775 174.202C811.775 172.335 813.295 170.816 815.163 170.816C817.032 170.816 818.552 172.335 818.552 174.202C818.552 176.069 817.032 177.587 815.163 177.587Z" fill="url(#paint26_linear)"/>
</g>
<g filter="url(#filter16_d)">
<path fill-rule="evenodd" clip-rule="evenodd" d="M815.163 200.568C811.597 200.568 808.695 203.467 808.695 207.031C808.695 210.595 811.597 213.494 815.163 213.494C818.73 213.494 821.632 210.595 821.632 207.031C821.632 203.467 818.73 200.568 815.163 200.568ZM815.163 210.417C813.295 210.417 811.775 208.898 811.775 207.031C811.775 205.164 813.295 203.646 815.163 203.646C817.032 203.646 818.552 205.164 818.552 207.031C818.552 208.898 817.032 210.417 815.163 210.417Z" fill="url(#paint27_linear)"/>
</g>
<g filter="url(#filter17_d)">
<path fill-rule="evenodd" clip-rule="evenodd" d="M894.019 208.775H839.806C838.955 208.775 838.266 209.464 838.266 210.314C838.266 211.164 838.955 211.853 839.806 211.853H894.019C894.87 211.853 895.559 211.164 895.559 210.314C895.559 209.464 894.87 208.775 894.019 208.775Z" fill="url(#paint28_linear)"/>
</g>
<g filter="url(#filter18_d)">
<path fill-rule="evenodd" clip-rule="evenodd" d="M838.266 203.748C838.266 204.598 838.955 205.287 839.806 205.287H894.019C894.87 205.287 895.559 204.598 895.559 203.748C895.559 202.898 894.87 202.209 894.019 202.209H839.806C838.955 202.209 838.266 202.898 838.266 203.748Z" fill="url(#paint29_linear)"/>
</g>
<g filter="url(#filter19_d)">
<path fill-rule="evenodd" clip-rule="evenodd" d="M895.559 177.485C895.559 176.635 894.87 175.946 894.019 175.946H839.806C838.955 175.946 838.266 176.635 838.266 177.485C838.266 178.335 838.955 179.024 839.806 179.024H894.019C894.87 179.024 895.559 178.335 895.559 177.485Z" fill="url(#paint30_linear)"/>
</g>
<g filter="url(#filter20_d)">
<path fill-rule="evenodd" clip-rule="evenodd" d="M839.806 172.458H894.019C894.87 172.458 895.559 171.769 895.559 170.919C895.559 170.069 894.87 169.38 894.019 169.38H839.806C838.955 169.38 838.266 170.069 838.266 170.919C838.266 171.769 838.955 172.458 839.806 172.458Z" fill="url(#paint31_linear)"/>
</g>
<g filter="url(#filter21_d)">
<path fill-rule="evenodd" clip-rule="evenodd" d="M815.163 233.397C811.597 233.397 808.695 236.297 808.695 239.861C808.695 243.425 811.597 246.324 815.163 246.324C818.73 246.324 821.632 243.425 821.632 239.861C821.632 236.297 818.73 233.397 815.163 233.397ZM815.163 243.246C813.295 243.246 811.775 241.728 811.775 239.861C811.775 237.994 813.295 236.475 815.163 236.475C817.032 236.475 818.552 237.994 818.552 239.861C818.552 241.728 817.032 243.246 815.163 243.246Z" fill="url(#paint32_linear)"/>
</g>
<g filter="url(#filter22_d)">
<path fill-rule="evenodd" clip-rule="evenodd" d="M894.019 241.605H839.806C838.955 241.605 838.266 242.294 838.266 243.144C838.266 243.994 838.955 244.682 839.806 244.682H894.019C894.87 244.682 895.559 243.994 895.559 243.144C895.559 242.294 894.87 241.605 894.019 241.605Z" fill="url(#paint33_linear)"/>
</g>
<g filter="url(#filter23_d)">
<path fill-rule="evenodd" clip-rule="evenodd" d="M838.266 236.578C838.266 237.428 838.955 238.117 839.806 238.117H894.019C894.87 238.117 895.559 237.428 895.559 236.578C895.559 235.728 894.87 235.039 894.019 235.039H839.806C838.955 235.039 838.266 235.728 838.266 236.578Z" fill="url(#paint34_linear)"/>
</g>
<g opacity="0.298758">
<rect x="940.48" y="177.531" width="80" height="15" fill="#18DAA2"/>
<rect x="940.48" y="177.531" width="80" height="15" fill="url(#paint35_linear)"/>
</g>
<path d="M949.942 185.531H952.162V179.751H954.102L957.042 185.531H959.502L956.102 179.251C957.522 178.671 958.382 177.271 958.382 175.651C958.382 173.311 956.702 171.531 953.702 171.531H949.942V185.531ZM952.162 177.851V173.471H953.662C955.282 173.471 956.082 174.351 956.082 175.651C956.082 177.071 955.062 177.851 953.662 177.851H952.162ZM960.268 180.351C960.268 183.511 962.428 185.791 965.688 185.791C968.168 185.791 969.548 184.371 970.048 183.511L968.608 182.431C968.208 183.011 967.308 183.891 965.728 183.891C963.868 183.891 962.528 182.691 962.488 180.831H970.348C970.368 180.651 970.368 180.471 970.368 180.291C970.368 177.011 968.508 174.831 965.348 174.831C962.488 174.831 960.268 177.111 960.268 180.351ZM962.568 179.331C962.708 177.691 963.868 176.651 965.368 176.651C966.868 176.651 968.068 177.611 968.148 179.331H962.568ZM971.975 185.531H974.155V171.071H971.975V185.531ZM975.821 182.311C975.821 184.411 977.561 185.791 979.761 185.791C981.061 185.791 981.901 185.351 982.441 184.751L982.621 185.531H984.521V178.791C984.521 176.511 983.461 174.831 980.361 174.831C978.621 174.831 977.221 175.491 976.381 176.031L977.221 177.551C977.981 177.131 978.981 176.731 980.141 176.731C981.521 176.731 982.361 177.451 982.361 178.651V179.631C981.961 179.271 981.061 178.871 979.861 178.871C977.461 178.871 975.821 180.291 975.821 182.311ZM978.001 182.251C978.001 181.211 978.881 180.451 980.201 180.451C981.521 180.451 982.421 181.151 982.421 182.251C982.421 183.331 981.501 184.051 980.221 184.051C978.901 184.051 978.001 183.291 978.001 182.251ZM990.33 189.111L995.79 175.091H993.51L990.73 182.691L987.91 175.091H985.57L989.71 185.351L988.23 189.111H990.33ZM996.395 180.351C996.395 183.511 998.555 185.791 1001.82 185.791C1004.3 185.791 1005.68 184.371 1006.18 183.511L1004.74 182.431C1004.34 183.011 1003.44 183.891 1001.86 183.891C999.995 183.891 998.655 182.691 998.615 180.831H1006.48C1006.5 180.651 1006.5 180.471 1006.5 180.291C1006.5 177.011 1004.64 174.831 1001.48 174.831C998.615 174.831 996.395 177.111 996.395 180.351ZM998.695 179.331C998.835 177.691 999.995 176.651 1001.5 176.651C1003 176.651 1004.2 177.611 1004.28 179.331H998.695ZM1013.22 174.831C1011.74 174.831 1010.64 175.691 1010.24 176.731V175.091H1008.1V185.531H1010.28V181.031C1010.28 178.771 1010.94 177.031 1013.22 177.031V174.831Z" fill="white"/>
<g opacity="0.298758">
<rect x="415.48" y="268.531" width="196" height="115" rx="9" fill="#3774E8"/>
<rect x="415.48" y="268.531" width="196" height="115" rx="9" fill="url(#paint36_linear)"/>
</g>
<g opacity="0.298758">
<rect x="405.48" y="258.531" width="196" height="115" rx="9" fill="#3774E8"/>
<rect x="405.48" y="258.531" width="196" height="115" rx="9" fill="url(#paint37_linear)"/>
</g>
<g filter="url(#filter24_d)">
<path fill-rule="evenodd" clip-rule="evenodd" d="M405.147 248.531H581.814C587.15 248.538 591.474 252.824 591.48 258.115V353.948C591.474 359.238 587.15 363.525 581.814 363.531H405.147C399.811 363.525 395.487 359.238 395.48 353.948V258.115C395.487 252.824 399.811 248.538 405.147 248.531ZM405.147 359.698H581.814C585.017 359.698 587.614 357.124 587.614 353.948V267.698H399.347V353.948C399.347 357.123 401.944 359.698 405.147 359.698ZM587.614 263.865V258.115C587.614 254.939 585.017 252.365 581.814 252.365H405.147C401.944 252.365 399.347 254.939 399.347 258.115V263.865H587.614Z" fill="url(#paint38_linear)"/>
</g>
<g filter="url(#filter25_d)">
<path fill-rule="evenodd" clip-rule="evenodd" d="M577.48 256.531H579.48C580.585 256.531 581.48 257.427 581.48 258.531C581.48 259.636 580.585 260.531 579.48 260.531H577.48C576.376 260.531 575.48 259.636 575.48 258.531C575.48 257.427 576.376 256.531 577.48 256.531Z" fill="url(#paint39_linear)"/>
</g>
<g filter="url(#filter26_d)">
<path fill-rule="evenodd" clip-rule="evenodd" d="M569.721 256.696C570.203 256.476 570.758 256.476 571.24 256.696C571.483 256.797 571.706 256.939 571.9 257.116C572.674 257.903 572.674 259.164 571.9 259.952C571.706 260.128 571.483 260.27 571.24 260.371C570.756 260.585 570.205 260.585 569.721 260.371C569.478 260.27 569.255 260.128 569.061 259.952C568.287 259.164 568.287 257.903 569.061 257.116C569.255 256.939 569.478 256.797 569.721 256.696Z" fill="url(#paint40_linear)"/>
</g>
<g filter="url(#filter27_d)">
<path fill-rule="evenodd" clip-rule="evenodd" d="M561.714 256.684C562.464 256.373 563.328 256.546 563.9 257.121C564.077 257.315 564.219 257.538 564.32 257.779C564.534 258.262 564.534 258.812 564.32 259.295C564.219 259.536 564.077 259.759 563.9 259.953C563.112 260.724 561.85 260.724 561.061 259.953C560.885 259.759 560.743 259.536 560.641 259.295C560.529 259.058 560.474 258.799 560.481 258.537C560.476 257.727 560.964 256.994 561.714 256.684Z" fill="url(#paint41_linear)"/>
</g>
<g filter="url(#filter28_d)">
<path fill-rule="evenodd" clip-rule="evenodd" d="M407.397 256.531H472.564C473.622 256.531 474.48 257.427 474.48 258.531C474.48 259.636 473.622 260.531 472.564 260.531H407.397C406.338 260.531 405.48 259.636 405.48 258.531C405.48 257.427 406.338 256.531 407.397 256.531Z" fill="url(#paint42_linear)"/>
</g>
<path fill-rule="evenodd" clip-rule="evenodd" d="M514.458 316.374C513.041 314.166 511.044 312.399 508.684 311.264C508.144 311.004 507.496 311.232 507.236 311.772C506.977 312.312 507.204 312.96 507.744 313.22C511.857 315.196 514.514 319.421 514.514 323.981C514.514 325.932 514.033 327.868 513.123 329.578C512.842 330.106 513.042 330.763 513.571 331.045C513.733 331.131 513.908 331.172 514.08 331.172C514.468 331.172 514.843 330.963 515.038 330.597C516.115 328.574 516.683 326.286 516.683 323.981C516.683 321.273 515.914 318.643 514.458 316.374Z" fill="url(#paint43_linear)"/>
<path fill-rule="evenodd" clip-rule="evenodd" d="M504.281 309.879L504.208 309.878C503.609 309.878 503.124 310.364 503.124 310.963C503.124 311.562 503.609 312.048 504.208 312.048L504.271 312.048C504.273 312.048 504.275 312.048 504.276 312.048C504.873 312.048 505.358 311.566 505.361 310.968C505.364 310.369 504.88 309.881 504.281 309.879Z" fill="url(#paint44_linear)"/>
<path fill-rule="evenodd" clip-rule="evenodd" d="M497.418 334.742C493.305 332.765 490.648 328.541 490.648 323.981C490.648 322.03 491.129 320.094 492.039 318.384C492.32 317.855 492.12 317.199 491.591 316.917C491.062 316.636 490.405 316.836 490.124 317.365C489.047 319.388 488.479 321.676 488.479 323.981C488.479 326.689 489.248 329.319 490.704 331.588C492.121 333.796 494.118 335.563 496.478 336.698C496.629 336.771 496.79 336.805 496.947 336.805C497.351 336.805 497.739 336.579 497.926 336.19C498.185 335.65 497.958 335.002 497.418 334.742Z" fill="url(#paint45_linear)"/>
<path fill-rule="evenodd" clip-rule="evenodd" d="M500.954 335.914L500.891 335.914C500.29 335.913 499.804 336.394 499.802 336.994C499.799 337.593 500.283 338.081 500.882 338.083L500.954 338.084C501.553 338.084 502.039 337.598 502.039 336.999C502.039 336.4 501.553 335.914 500.954 335.914Z" fill="url(#paint46_linear)"/>
<path fill-rule="evenodd" clip-rule="evenodd" d="M507.507 306.208C507.375 305.894 507.213 305.597 507.025 305.322H509.849C512.601 305.322 514.839 303.084 514.839 300.332C514.839 297.581 512.601 295.342 509.849 295.342H501.162C501.714 294.539 502.039 293.567 502.039 292.521C502.039 289.77 499.8 287.531 497.049 287.531H470.471C467.719 287.531 465.48 289.77 465.48 292.521C465.48 295.273 467.719 297.512 470.471 297.512H479.158C478.606 298.315 478.281 299.286 478.281 300.332C478.281 301.378 478.605 302.35 479.158 303.153H476.329C473.577 303.153 471.338 305.391 471.338 308.143C471.338 309.723 472.078 311.133 473.228 312.048C472.078 312.963 471.338 314.373 471.338 315.953C471.338 317.534 472.078 318.944 473.228 319.859C472.078 320.774 471.338 322.184 471.338 323.764C471.338 325.344 472.078 326.754 473.228 327.669C472.078 328.584 471.338 329.994 471.338 331.575C471.338 334.326 473.577 336.565 476.329 336.565H489.113C492.481 340.167 497.272 342.423 502.581 342.423C512.75 342.423 521.023 334.15 521.023 323.981C521.023 315.518 515.292 308.369 507.507 306.208ZM509.849 297.512C511.405 297.512 512.67 298.777 512.67 300.332C512.67 301.887 511.405 303.153 509.849 303.153H502.907H483.271C481.716 303.153 480.451 301.887 480.451 300.332C480.451 298.777 481.716 297.512 483.271 297.512H509.849ZM470.471 295.342C468.915 295.342 467.65 294.077 467.65 292.521C467.65 290.966 468.915 289.701 470.471 289.701H497.049C498.604 289.701 499.869 290.966 499.869 292.521C499.869 294.077 498.604 295.342 497.049 295.342H470.471ZM476.329 305.322H502.907C503.343 305.322 503.762 305.424 504.137 305.606C503.624 305.562 503.105 305.539 502.581 305.539C497.489 305.539 492.872 307.614 489.531 310.963H476.329C474.773 310.963 473.508 309.698 473.508 308.143C473.508 306.588 474.773 305.322 476.329 305.322ZM476.329 313.133H487.677C486.446 314.82 485.494 316.723 484.889 318.774H476.329C474.773 318.774 473.508 317.509 473.508 315.953C473.508 314.398 474.773 313.133 476.329 313.133ZM476.329 320.943H484.391C484.226 321.932 484.139 322.946 484.139 323.981C484.139 324.865 484.203 325.734 484.324 326.585H476.329C474.773 326.585 473.508 325.319 473.508 323.764C473.508 322.209 474.773 320.943 476.329 320.943ZM476.329 334.395C474.773 334.395 473.508 333.13 473.508 331.575C473.508 330.019 474.773 328.754 476.329 328.754H484.767C485.314 330.795 486.204 332.697 487.37 334.395H476.329ZM502.581 340.253C493.609 340.253 486.309 332.954 486.309 323.981C486.309 315.009 493.609 307.709 502.581 307.709C511.554 307.709 518.853 315.009 518.853 323.981C518.853 332.954 511.554 340.253 502.581 340.253Z" fill="url(#paint47_linear)"/>
<g opacity="0.298758">
<rect x="226.48" y="261.531" width="154" height="15" fill="#18DAA2"/>
<rect x="226.48" y="261.531" width="154" height="15" fill="url(#paint48_linear)"/>
</g>
<path d="M249.946 266.391C249.386 266.811 248.086 267.711 246.266 267.711C243.266 267.711 241.306 265.431 241.306 262.531C241.306 259.631 243.326 257.351 246.246 257.351C247.886 257.351 249.166 258.131 249.766 258.591L250.426 256.631C249.606 256.011 248.166 255.271 246.186 255.271C242.086 255.271 239.006 258.411 239.006 262.531C239.006 266.651 241.966 269.791 246.206 269.791C248.366 269.791 249.906 268.871 250.606 268.331L249.946 266.391ZM253.892 264.331C253.892 262.291 255.252 260.771 257.212 260.771C259.152 260.771 260.572 262.271 260.572 264.311C260.572 266.351 259.152 267.851 257.212 267.851C255.272 267.851 253.892 266.391 253.892 264.331ZM251.692 264.331C251.692 267.491 254.012 269.791 257.212 269.791C260.392 269.791 262.752 267.451 262.752 264.311C262.752 261.171 260.432 258.831 257.212 258.831C254.072 258.831 251.692 261.171 251.692 264.331ZM269.496 258.831C268.096 258.831 267.016 259.631 266.556 260.451V259.091H264.416V269.531H266.596V263.231C266.596 261.811 267.496 260.791 268.876 260.791C270.076 260.791 270.976 261.631 270.976 263.071V269.531H273.136V263.251C273.136 260.971 272.196 258.831 269.496 258.831ZM275.527 259.091H274.367V260.891H275.527V265.411C275.527 267.971 276.287 269.671 278.827 269.671C279.507 269.671 279.887 269.591 279.887 269.591V267.711C279.887 267.711 279.647 267.731 279.467 267.731C278.307 267.731 277.687 267.371 277.687 265.751V260.891H279.807V259.091H277.687V256.911H275.527V259.091ZM286.613 258.831C285.133 258.831 284.033 259.691 283.633 260.731V259.091H281.493V269.531H283.673V265.031C283.673 262.771 284.333 261.031 286.613 261.031V258.831ZM287.449 266.311C287.449 268.411 289.189 269.791 291.389 269.791C292.689 269.791 293.529 269.351 294.069 268.751L294.249 269.531H296.149V262.791C296.149 260.511 295.089 258.831 291.989 258.831C290.249 258.831 288.849 259.491 288.009 260.031L288.849 261.551C289.609 261.131 290.609 260.731 291.769 260.731C293.149 260.731 293.989 261.451 293.989 262.651V263.631C293.589 263.271 292.689 262.871 291.489 262.871C289.089 262.871 287.449 264.291 287.449 266.311ZM289.629 266.251C289.629 265.211 290.509 264.451 291.829 264.451C293.149 264.451 294.049 265.151 294.049 266.251C294.049 267.331 293.129 268.051 291.849 268.051C290.529 268.051 289.629 267.291 289.629 266.251ZM306.578 260.111C305.978 259.591 304.818 258.831 303.098 258.831C299.998 258.831 297.658 261.191 297.658 264.311C297.658 267.451 299.938 269.791 303.118 269.791C304.858 269.791 306.058 268.951 306.578 268.491L305.958 266.691C305.518 267.091 304.578 267.851 303.238 267.851C301.298 267.851 299.858 266.311 299.858 264.311C299.858 262.331 301.178 260.811 303.158 260.811C304.478 260.811 305.438 261.491 305.918 261.951L306.578 260.111ZM308.354 259.091H307.194V260.891H308.354V265.411C308.354 267.971 309.114 269.671 311.654 269.671C312.334 269.671 312.714 269.591 312.714 269.591V267.711C312.714 267.711 312.474 267.731 312.294 267.731C311.134 267.731 310.514 267.371 310.514 265.751V260.891H312.634V259.091H310.514V256.911H308.354V259.091ZM328.537 269.531H330.957L334.277 259.091H331.917L329.617 267.091C329.617 267.091 329.597 267.051 327.237 259.091H325.157C322.777 267.051 322.757 267.091 322.757 267.091L320.477 259.091H318.117L321.437 269.531H323.837L326.197 262.051L328.537 269.531ZM334.86 266.311C334.86 268.411 336.6 269.791 338.8 269.791C340.1 269.791 340.94 269.351 341.48 268.751L341.66 269.531H343.56V262.791C343.56 260.511 342.5 258.831 339.4 258.831C337.66 258.831 336.26 259.491 335.42 260.031L336.26 261.551C337.02 261.131 338.02 260.731 339.18 260.731C340.56 260.731 341.4 261.451 341.4 262.651V263.631C341 263.271 340.1 262.871 338.9 262.871C336.5 262.871 334.86 264.291 334.86 266.311ZM337.04 266.251C337.04 265.211 337.92 264.451 339.24 264.451C340.56 264.451 341.46 265.151 341.46 266.251C341.46 267.331 340.54 268.051 339.26 268.051C337.94 268.051 337.04 267.291 337.04 266.251ZM345.708 269.531H347.888V255.071H345.708V269.531ZM350.194 269.531H352.374V255.071H350.194V269.531ZM354.06 264.351C354.06 267.511 356.22 269.791 359.48 269.791C361.96 269.791 363.34 268.371 363.84 267.511L362.4 266.431C362 267.011 361.1 267.891 359.52 267.891C357.66 267.891 356.32 266.691 356.28 264.831H364.14C364.16 264.651 364.16 264.471 364.16 264.291C364.16 261.011 362.3 258.831 359.14 258.831C356.28 258.831 354.06 261.111 354.06 264.351ZM356.36 263.331C356.5 261.691 357.66 260.651 359.16 260.651C360.66 260.651 361.86 261.611 361.94 263.331H356.36ZM365.948 259.091H364.788V260.891H365.948V265.411C365.948 267.971 366.708 269.671 369.248 269.671C369.928 269.671 370.308 269.591 370.308 269.591V267.711C370.308 267.711 370.068 267.731 369.888 267.731C368.728 267.731 368.108 267.371 368.108 265.751V260.891H370.228V259.091H368.108V256.911H365.948V259.091Z" fill="white"/>
<g opacity="0.298758">
<path fill-rule="evenodd" clip-rule="evenodd" d="M655.434 518.462C655.398 516.888 654.267 515.529 652.687 515.314C645.323 514.305 638.061 512.55 630.942 509.948C623.856 507.36 616.016 503.746 607.56 498.986C606.486 498.381 605.476 498.378 604.404 498.986C596.007 503.743 588.223 507.35 581.081 509.948C573.96 512.54 566.701 514.306 559.396 515.314C557.816 515.532 556.707 516.888 556.531 518.462C555.83 548.376 562.398 572.852 576.172 591.878C583.675 602.242 593.065 610.654 604.404 617.068C605.281 617.71 606.655 617.661 607.677 617.068C618.93 610.547 628.308 602.196 635.794 591.878C649.586 572.864 656.1 548.377 655.434 518.462Z" fill="#3774E8"/>
<path fill-rule="evenodd" clip-rule="evenodd" d="M655.434 518.462C655.398 516.888 654.267 515.529 652.687 515.314C645.323 514.305 638.061 512.55 630.942 509.948C623.856 507.36 616.016 503.746 607.56 498.986C606.486 498.381 605.476 498.378 604.404 498.986C596.007 503.743 588.223 507.35 581.081 509.948C573.96 512.54 566.701 514.306 559.396 515.314C557.816 515.532 556.707 516.888 556.531 518.462C555.83 548.376 562.398 572.852 576.172 591.878C583.675 602.242 593.065 610.654 604.404 617.068C605.281 617.71 606.655 617.661 607.677 617.068C618.93 610.547 628.308 602.196 635.794 591.878C649.586 572.864 656.1 548.377 655.434 518.462Z" fill="url(#paint49_linear)"/>
</g>
<g opacity="0.298758">
<path fill-rule="evenodd" clip-rule="evenodd" d="M645.434 508.462C645.398 506.888 644.267 505.529 642.687 505.314C635.323 504.305 628.061 502.55 620.942 499.948C613.856 497.36 606.016 493.746 597.56 488.986C596.486 488.381 595.476 488.378 594.404 488.986C586.007 493.743 578.223 497.35 571.081 499.948C563.96 502.54 556.701 504.306 549.396 505.314C547.816 505.532 546.707 506.888 546.531 508.462C545.83 538.376 552.398 562.852 566.172 581.878C573.675 592.242 583.065 600.654 594.404 607.068C595.281 607.71 596.655 607.661 597.677 607.068C608.93 600.547 618.308 592.196 625.794 581.878C639.586 562.864 646.1 538.377 645.434 508.462Z" fill="#3774E8"/>
<path fill-rule="evenodd" clip-rule="evenodd" d="M645.434 508.462C645.398 506.888 644.267 505.529 642.687 505.314C635.323 504.305 628.061 502.55 620.942 499.948C613.856 497.36 606.016 493.746 597.56 488.986C596.486 488.381 595.476 488.378 594.404 488.986C586.007 493.743 578.223 497.35 571.081 499.948C563.96 502.54 556.701 504.306 549.396 505.314C547.816 505.532 546.707 506.888 546.531 508.462C545.83 538.376 552.398 562.852 566.172 581.878C573.675 592.242 583.065 600.654 594.404 607.068C595.281 607.71 596.655 607.661 597.677 607.068C608.93 600.547 618.308 592.196 625.794 581.878C639.586 562.864 646.1 538.377 645.434 508.462Z" fill="url(#paint50_linear)"/>
</g>
<g filter="url(#filter29_d)">
<path fill-rule="evenodd" clip-rule="evenodd" d="M639.434 498.462C639.398 496.888 638.267 495.529 636.687 495.314C629.323 494.305 622.061 492.55 614.942 489.948C607.856 487.36 600.016 483.746 591.56 478.986C590.486 478.381 589.476 478.378 588.404 478.986C580.007 483.743 572.223 487.35 565.081 489.948C557.96 492.54 550.701 494.306 543.396 495.314C541.816 495.532 540.707 496.888 540.531 498.462C539.83 528.376 546.398 552.852 560.172 571.878C567.675 582.242 577.065 590.654 588.404 597.068C589.281 597.71 590.655 597.661 591.677 597.068C602.93 590.547 612.308 582.196 619.794 571.878C633.586 552.864 640.1 528.377 639.434 498.462ZM614.533 568.204C608.025 577.171 599.861 584.648 589.983 590.653C580.104 584.647 571.901 577.198 565.433 568.204C552.903 550.782 546.786 528.493 547.019 501.32C553.916 500.212 560.756 498.345 567.595 495.838C574.434 493.331 581.916 489.89 589.983 485.517C598.05 489.89 605.473 493.331 612.312 495.838C619.15 498.346 626.047 500.212 632.946 501.32C633.179 528.668 627.024 550.988 614.533 568.204Z" fill="url(#paint51_linear)"/>
</g>
<path opacity="0.3" fill-rule="evenodd" clip-rule="evenodd" d="M589.98 553.531C602.407 553.531 612.48 543.458 612.48 531.031C612.48 518.605 602.407 508.531 589.98 508.531C577.554 508.531 567.48 518.605 567.48 531.031C567.48 543.458 577.554 553.531 589.98 553.531Z" fill="url(#paint52_linear)"/>
<g filter="url(#filter30_d)">
<path fill-rule="evenodd" clip-rule="evenodd" d="M596.973 525.039C594.962 523.029 591.691 523.029 589.68 525.039C588.307 526.412 587.83 528.436 588.425 530.272L582.618 536.079C582.53 536.167 582.48 536.286 582.48 536.411V539.062C582.48 539.322 582.69 539.531 582.949 539.531H585.601C585.726 539.531 585.845 539.482 585.932 539.394L586.595 538.731C586.696 538.629 586.746 538.488 586.729 538.345L586.647 537.633L587.634 537.54C587.858 537.519 588.035 537.342 588.056 537.117L588.149 536.13L588.862 536.213C588.994 536.231 589.127 536.187 589.227 536.098C589.327 536.009 589.384 535.881 589.384 535.748V534.875H590.241C590.366 534.875 590.485 534.826 590.573 534.738L591.775 533.551C593.611 534.147 595.599 533.706 596.973 532.331C598.983 530.321 598.983 527.05 596.973 525.039ZM595.646 528.354C595.098 528.902 594.206 528.902 593.658 528.354C593.11 527.805 593.11 526.914 593.658 526.365C594.206 525.817 595.098 525.817 595.646 526.365C596.195 526.914 596.195 527.805 595.646 528.354Z" fill="#18DAA2"/>
</g>
<g opacity="0.298758">
<rect x="558.48" y="643.531" width="80" height="15" fill="#18DAA2"/>
<rect x="558.48" y="643.531" width="80" height="15" fill="url(#paint53_linear)"/>
</g>
<path d="M574.999 637.531H566.939V639.491H572.499L569.179 643.331V645.071H570.759C572.419 645.071 573.279 645.971 573.279 647.371C573.279 648.771 572.279 649.751 570.899 649.751C569.439 649.751 568.659 648.911 568.339 647.911L566.439 648.531C566.819 649.971 568.039 651.791 570.939 651.791C573.579 651.791 575.539 649.911 575.539 647.311C575.539 644.411 573.579 643.191 571.719 643.191L574.999 639.531V637.531ZM582.56 640.831C581.08 640.831 579.98 641.691 579.58 642.731V641.091H577.44V651.531H579.62V647.031C579.62 644.771 580.28 643.031 582.56 643.031V640.831ZM593.916 637.071H591.736V642.491C591.456 642.031 590.336 640.831 588.356 640.831C585.376 640.831 583.396 643.111 583.396 646.331C583.396 649.531 585.516 651.791 588.496 651.791C590.516 651.791 591.576 650.531 591.856 650.171V651.531H593.916V637.071ZM591.816 646.351C591.816 648.271 590.636 649.871 588.716 649.871C586.936 649.871 585.596 648.491 585.596 646.351C585.596 644.251 586.876 642.771 588.696 642.771C590.436 642.771 591.816 644.071 591.816 646.351ZM601.094 651.531H603.274V646.051L607.314 651.531H609.894L605.434 645.811L609.614 641.091H607.134L603.274 645.551V637.071H601.094V651.531ZM610.429 646.351C610.429 649.511 612.589 651.791 615.849 651.791C618.329 651.791 619.709 650.371 620.209 649.511L618.769 648.431C618.369 649.011 617.469 649.891 615.889 649.891C614.029 649.891 612.689 648.691 612.649 646.831H620.509C620.529 646.651 620.529 646.471 620.529 646.291C620.529 643.011 618.669 640.831 615.509 640.831C612.649 640.831 610.429 643.111 610.429 646.351ZM612.729 645.331C612.869 643.691 614.029 642.651 615.529 642.651C617.029 642.651 618.229 643.611 618.309 645.331H612.729ZM625.796 655.111L631.256 641.091H628.976L626.196 648.691L623.376 641.091H621.036L625.176 651.351L623.696 655.111H625.796Z" fill="white"/>
<g opacity="0.298758">
<rect x="803.48" y="430.531" width="82" height="69" rx="9" fill="#3774E8"/>
<rect x="803.48" y="430.531" width="82" height="69" rx="9" fill="url(#paint54_linear)"/>
</g>
<g opacity="0.298758">
<rect x="793.48" y="420.531" width="82" height="69" rx="9" fill="#3774E8"/>
<rect x="793.48" y="420.531" width="82" height="69" rx="9" fill="url(#paint55_linear)"/>
</g>
<g filter="url(#filter31_d)">
<path fill-rule="evenodd" clip-rule="evenodd" d="M865.48 434.662H861.506V416.123C861.506 411.678 857.941 408.062 853.558 408.062H848.175L842.667 398.019C841.828 396.484 840.23 395.531 838.497 395.531C837.69 395.531 836.889 395.742 836.181 396.141L815.042 408.062H791.429C787.046 408.062 783.48 411.678 783.48 416.122V471.471C783.48 475.915 787.046 479.531 791.429 479.531H853.558C857.941 479.531 861.506 475.915 861.506 471.471V455.216H865.48V434.662ZM853.558 411.286C856.006 411.286 858.006 413.172 858.274 415.586H852.3L849.944 411.286H853.558ZM837.728 398.958C838.473 398.535 839.477 398.831 839.888 399.584L848.663 415.584H808.244L837.728 398.958ZM858.327 471.471C858.327 474.137 856.187 476.307 853.558 476.307H791.429C788.799 476.307 786.66 474.137 786.66 471.471V416.123C786.66 413.456 788.799 411.286 791.429 411.286H809.325L801.701 415.586H792.422C791.543 415.586 790.833 416.308 790.833 417.198C790.833 418.088 791.543 418.81 792.422 418.81H795.983H854.068H858.327V434.663H846.702C841.303 434.663 836.909 439.119 836.909 444.594V445.287C836.909 450.762 841.303 455.218 846.702 455.218H858.327V471.471ZM862.301 451.992H861.506H846.702C843.055 451.992 840.089 448.984 840.089 445.285V444.592C840.089 440.894 843.055 437.886 846.702 437.886H861.506H862.301V451.992ZM851.571 445.071C851.571 447.038 850 448.631 848.061 448.631C846.121 448.631 844.551 447.038 844.551 445.071C844.551 443.105 846.122 441.512 848.061 441.512C850 441.512 851.571 443.106 851.571 445.071Z" fill="url(#paint56_linear)"/>
</g>
<g opacity="0.298758">
<rect x="797.48" y="525.531" width="80" height="15" fill="#18DAA2"/>
<rect x="797.48" y="525.531" width="80" height="15" fill="url(#paint57_linear)"/>
</g>
<path d="M822.365 533.531H824.865L828.725 519.531H826.365L823.505 530.771L820.385 519.531H818.285L815.185 530.771L812.325 519.531H809.945L813.825 533.531H816.325L819.345 522.851L822.365 533.531ZM829.381 530.311C829.381 532.411 831.121 533.791 833.321 533.791C834.621 533.791 835.461 533.351 836.001 532.751L836.181 533.531H838.081V526.791C838.081 524.511 837.021 522.831 833.921 522.831C832.181 522.831 830.781 523.491 829.941 524.031L830.781 525.551C831.541 525.131 832.541 524.731 833.701 524.731C835.081 524.731 835.921 525.451 835.921 526.651V527.631C835.521 527.271 834.621 526.871 833.421 526.871C831.021 526.871 829.381 528.291 829.381 530.311ZM831.561 530.251C831.561 529.211 832.441 528.451 833.761 528.451C835.081 528.451 835.981 529.151 835.981 530.251C835.981 531.331 835.061 532.051 833.781 532.051C832.461 532.051 831.561 531.291 831.561 530.251ZM840.23 533.531H842.41V519.071H840.23V533.531ZM844.716 533.531H846.896V519.071H844.716V533.531ZM848.582 528.351C848.582 531.511 850.742 533.791 854.002 533.791C856.482 533.791 857.862 532.371 858.362 531.511L856.922 530.431C856.522 531.011 855.622 531.891 854.042 531.891C852.182 531.891 850.842 530.691 850.802 528.831H858.662C858.682 528.651 858.682 528.471 858.682 528.291C858.682 525.011 856.822 522.831 853.662 522.831C850.802 522.831 848.582 525.111 848.582 528.351ZM850.882 527.331C851.022 525.691 852.182 524.651 853.682 524.651C855.182 524.651 856.382 525.611 856.462 527.331H850.882ZM860.47 523.091H859.31V524.891H860.47V529.411C860.47 531.971 861.23 533.671 863.77 533.671C864.45 533.671 864.83 533.591 864.83 533.591V531.711C864.83 531.711 864.59 531.731 864.41 531.731C863.25 531.731 862.63 531.371 862.63 529.751V524.891H864.75V523.091H862.63V520.911H860.47V523.091Z" fill="white"/>
<defs>
<filter id="filter0_d" x="126.043" y="212.82" width="286.438" height="120.531" filterUnits="userSpaceOnUse" color-interpolation-filters="sRGB">
<feFlood flood-opacity="0" result="BackgroundImageFix"/>
<feColorMatrix in="SourceAlpha" type="matrix" values="0 0 0 0 0 0 0 0 0 0 0 0 0 0 0 0 0 0 127 0"/>
<feOffset dy="1"/>
<feGaussianBlur stdDeviation="9"/>
<feColorMatrix type="matrix" values="0 0 0 0 0.364706 0 0 0 0 0.956863 0 0 0 0 0.827451 0 0 0 1 0"/>
<feBlend mode="normal" in2="BackgroundImageFix" result="effect1_dropShadow"/>
<feBlend mode="normal" in="SourceGraphic" in2="effect1_dropShadow" result="shape"/>
</filter>
<filter id="filter1_d" x="205.48" y="345.531" width="286.438" height="152.918" filterUnits="userSpaceOnUse" color-interpolation-filters="sRGB">
<feFlood flood-opacity="0" result="BackgroundImageFix"/>
<feColorMatrix in="SourceAlpha" type="matrix" values="0 0 0 0 0 0 0 0 0 0 0 0 0 0 0 0 0 0 127 0"/>
<feOffset dy="1"/>
<feGaussianBlur stdDeviation="9"/>
<feColorMatrix type="matrix" values="0 0 0 0 0.364706 0 0 0 0 0.956863 0 0 0 0 0.827451 0 0 0 1 0"/>
<feBlend mode="normal" in2="BackgroundImageFix" result="effect1_dropShadow"/>
<feBlend mode="normal" in="SourceGraphic" in2="effect1_dropShadow" result="shape"/>
</filter>
<filter id="filter2_d" x="484.98" y="345.531" width="76.4375" height="182.918" filterUnits="userSpaceOnUse" color-interpolation-filters="sRGB">
<feFlood flood-opacity="0" result="BackgroundImageFix"/>
<feColorMatrix in="SourceAlpha" type="matrix" values="0 0 0 0 0 0 0 0 0 0 0 0 0 0 0 0 0 0 127 0"/>
<feOffset dy="1"/>
<feGaussianBlur stdDeviation="9"/>
<feColorMatrix type="matrix" values="0 0 0 0 0.364706 0 0 0 0 0.956863 0 0 0 0 0.827451 0 0 0 1 0"/>
<feBlend mode="normal" in2="BackgroundImageFix" result="effect1_dropShadow"/>
<feBlend mode="normal" in="SourceGraphic" in2="effect1_dropShadow" result="shape"/>
</filter>
<filter id="filter3_d" x="558.48" y="342.531" width="243.379" height="113.418" filterUnits="userSpaceOnUse" color-interpolation-filters="sRGB">
<feFlood flood-opacity="0" result="BackgroundImageFix"/>
<feColorMatrix in="SourceAlpha" type="matrix" values="0 0 0 0 0 0 0 0 0 0 0 0 0 0 0 0 0 0 127 0"/>
<feOffset dy="1"/>
<feGaussianBlur stdDeviation="9"/>
<feColorMatrix type="matrix" values="0 0 0 0 0.364706 0 0 0 0 0.956863 0 0 0 0 0.827451 0 0 0 1 0"/>
<feBlend mode="normal" in2="BackgroundImageFix" result="effect1_dropShadow"/>
<feBlend mode="normal" in="SourceGraphic" in2="effect1_dropShadow" result="shape"/>
</filter>
<filter id="filter4_d" x="558.48" y="74.5312" width="314.379" height="106.418" filterUnits="userSpaceOnUse" color-interpolation-filters="sRGB">
<feFlood flood-opacity="0" result="BackgroundImageFix"/>
<feColorMatrix in="SourceAlpha" type="matrix" values="0 0 0 0 0 0 0 0 0 0 0 0 0 0 0 0 0 0 127 0"/>
<feOffset dy="1"/>
<feGaussianBlur stdDeviation="9"/>
<feColorMatrix type="matrix" values="0 0 0 0 0.364706 0 0 0 0 0.956863 0 0 0 0 0.827451 0 0 0 1 0"/>
<feBlend mode="normal" in2="BackgroundImageFix" result="effect1_dropShadow"/>
<feBlend mode="normal" in="SourceGraphic" in2="effect1_dropShadow" result="shape"/>
</filter>
<filter id="filter5_d" x="572.48" y="236.531" width="300.379" height="106.418" filterUnits="userSpaceOnUse" color-interpolation-filters="sRGB">
<feFlood flood-opacity="0" result="BackgroundImageFix"/>
<feColorMatrix in="SourceAlpha" type="matrix" values="0 0 0 0 0 0 0 0 0 0 0 0 0 0 0 0 0 0 127 0"/>
<feOffset dy="1"/>
<feGaussianBlur stdDeviation="9"/>
<feColorMatrix type="matrix" values="0 0 0 0 0.364706 0 0 0 0 0.956863 0 0 0 0 0.827451 0 0 0 1 0"/>
<feBlend mode="normal" in2="BackgroundImageFix" result="effect1_dropShadow"/>
<feBlend mode="normal" in="SourceGraphic" in2="effect1_dropShadow" result="shape"/>
</filter>
<filter id="filter6_d" x="533.232" y="141.22" width="38" height="128.214" filterUnits="userSpaceOnUse" color-interpolation-filters="sRGB">
<feFlood flood-opacity="0" result="BackgroundImageFix"/>
<feColorMatrix in="SourceAlpha" type="matrix" values="0 0 0 0 0 0 0 0 0 0 0 0 0 0 0 0 0 0 127 0"/>
<feOffset dy="1"/>
<feGaussianBlur stdDeviation="9"/>
<feColorMatrix type="matrix" values="0 0 0 0 0.364706 0 0 0 0 0.956863 0 0 0 0 0.827451 0 0 0 1 0"/>
<feBlend mode="normal" in2="BackgroundImageFix" result="effect1_dropShadow"/>
<feBlend mode="normal" in="SourceGraphic" in2="effect1_dropShadow" result="shape"/>
</filter>
<filter id="filter7_d" x="3.48047" y="389.531" width="281" height="211" filterUnits="userSpaceOnUse" color-interpolation-filters="sRGB">
<feFlood flood-opacity="0" result="BackgroundImageFix"/>
<feColorMatrix in="SourceAlpha" type="matrix" values="0 0 0 0 0 0 0 0 0 0 0 0 0 0 0 0 0 0 127 0"/>
<feOffset dy="6"/>
<feGaussianBlur stdDeviation="25"/>
<feColorMatrix type="matrix" values="0 0 0 0 0.121569 0 0 0 0 0.360784 0 0 0 0 0.898039 0 0 0 1 0"/>
<feBlend mode="normal" in2="BackgroundImageFix" result="effect1_dropShadow"/>
<feBlend mode="normal" in="SourceGraphic" in2="effect1_dropShadow" result="shape"/>
</filter>
<filter id="filter8_d" x="45.4805" y="75.5312" width="167" height="215" filterUnits="userSpaceOnUse" color-interpolation-filters="sRGB">
<feFlood flood-opacity="0" result="BackgroundImageFix"/>
<feColorMatrix in="SourceAlpha" type="matrix" values="0 0 0 0 0 0 0 0 0 0 0 0 0 0 0 0 0 0 127 0"/>
<feOffset dy="6"/>
<feGaussianBlur stdDeviation="25"/>
<feColorMatrix type="matrix" values="0 0 0 0 0.121569 0 0 0 0 0.360784 0 0 0 0 0.898039 0 0 0 1 0"/>
<feBlend mode="normal" in2="BackgroundImageFix" result="effect1_dropShadow"/>
<feBlend mode="normal" in="SourceGraphic" in2="effect1_dropShadow" result="shape"/>
</filter>
<filter id="filter9_d" x="411.48" y="0.53125" width="216" height="215" filterUnits="userSpaceOnUse" color-interpolation-filters="sRGB">
<feFlood flood-opacity="0" result="BackgroundImageFix"/>
<feColorMatrix in="SourceAlpha" type="matrix" values="0 0 0 0 0 0 0 0 0 0 0 0 0 0 0 0 0 0 127 0"/>
<feOffset dy="6"/>
<feGaussianBlur stdDeviation="25"/>
<feColorMatrix type="matrix" values="0 0 0 0 0.121569 0 0 0 0 0.360784 0 0 0 0 0.898039 0 0 0 1 0"/>
<feBlend mode="normal" in2="BackgroundImageFix" result="effect1_dropShadow"/>
<feBlend mode="normal" in="SourceGraphic" in2="effect1_dropShadow" result="shape"/>
</filter>
<filter id="filter10_d" x="511.48" y="8.53125" width="106" height="104" filterUnits="userSpaceOnUse" color-interpolation-filters="sRGB">
<feFlood flood-opacity="0" result="BackgroundImageFix"/>
<feColorMatrix in="SourceAlpha" type="matrix" values="0 0 0 0 0 0 0 0 0 0 0 0 0 0 0 0 0 0 127 0"/>
<feOffset dy="6"/>
<feGaussianBlur stdDeviation="25"/>
<feColorMatrix type="matrix" values="0 0 0 0 0.121569 0 0 0 0 0.360784 0 0 0 0 0.898039 0 0 0 1 0"/>
<feBlend mode="normal" in2="BackgroundImageFix" result="effect1_dropShadow"/>
<feBlend mode="normal" in="SourceGraphic" in2="effect1_dropShadow" result="shape"/>
</filter>
<filter id="filter11_d" x="504.48" y="8.53125" width="104" height="104" filterUnits="userSpaceOnUse" color-interpolation-filters="sRGB">
<feFlood flood-opacity="0" result="BackgroundImageFix"/>
<feColorMatrix in="SourceAlpha" type="matrix" values="0 0 0 0 0 0 0 0 0 0 0 0 0 0 0 0 0 0 127 0"/>
<feOffset dy="6"/>
<feGaussianBlur stdDeviation="25"/>
<feColorMatrix type="matrix" values="0 0 0 0 0.121569 0 0 0 0 0.360784 0 0 0 0 0.898039 0 0 0 1 0"/>
<feBlend mode="normal" in2="BackgroundImageFix" result="effect1_dropShadow"/>
<feBlend mode="normal" in="SourceGraphic" in2="effect1_dropShadow" result="shape"/>
</filter>
<filter id="filter12_d" x="496.48" y="8.53125" width="104" height="104" filterUnits="userSpaceOnUse" color-interpolation-filters="sRGB">
<feFlood flood-opacity="0" result="BackgroundImageFix"/>
<feColorMatrix in="SourceAlpha" type="matrix" values="0 0 0 0 0 0 0 0 0 0 0 0 0 0 0 0 0 0 127 0"/>
<feOffset dy="6"/>
<feGaussianBlur stdDeviation="25"/>
<feColorMatrix type="matrix" values="0 0 0 0 0.121569 0 0 0 0 0.360784 0 0 0 0 0.898039 0 0 0 1 0"/>
<feBlend mode="normal" in2="BackgroundImageFix" result="effect1_dropShadow"/>
<feBlend mode="normal" in="SourceGraphic" in2="effect1_dropShadow" result="shape"/>
</filter>
<filter id="filter13_d" x="421.48" y="8.53125" width="169" height="104" filterUnits="userSpaceOnUse" color-interpolation-filters="sRGB">
<feFlood flood-opacity="0" result="BackgroundImageFix"/>
<feColorMatrix in="SourceAlpha" type="matrix" values="0 0 0 0 0 0 0 0 0 0 0 0 0 0 0 0 0 0 127 0"/>
<feOffset dy="6"/>
<feGaussianBlur stdDeviation="25"/>
<feColorMatrix type="matrix" values="0 0 0 0 0.121569 0 0 0 0 0.360784 0 0 0 0 0.898039 0 0 0 1 0"/>
<feBlend mode="normal" in2="BackgroundImageFix" result="effect1_dropShadow"/>
<feBlend mode="normal" in="SourceGraphic" in2="effect1_dropShadow" result="shape"/>
</filter>
<filter id="filter14_d" x="750.48" y="115.531" width="204.936" height="195" filterUnits="userSpaceOnUse" color-interpolation-filters="sRGB">
<feFlood flood-opacity="0" result="BackgroundImageFix"/>
<feColorMatrix in="SourceAlpha" type="matrix" values="0 0 0 0 0 0 0 0 0 0 0 0 0 0 0 0 0 0 127 0"/>
<feOffset dy="6"/>
<feGaussianBlur stdDeviation="25"/>
<feColorMatrix type="matrix" values="0 0 0 0 0.121569 0 0 0 0 0.360784 0 0 0 0 0.898039 0 0 0 1 0"/>
<feBlend mode="normal" in2="BackgroundImageFix" result="effect1_dropShadow"/>
<feBlend mode="normal" in="SourceGraphic" in2="effect1_dropShadow" result="shape"/>
</filter>
<filter id="filter15_d" x="758.695" y="123.739" width="112.937" height="112.927" filterUnits="userSpaceOnUse" color-interpolation-filters="sRGB">
<feFlood flood-opacity="0" result="BackgroundImageFix"/>
<feColorMatrix in="SourceAlpha" type="matrix" values="0 0 0 0 0 0 0 0 0 0 0 0 0 0 0 0 0 0 127 0"/>
<feOffset dy="6"/>
<feGaussianBlur stdDeviation="25"/>
<feColorMatrix type="matrix" values="0 0 0 0 0.121569 0 0 0 0 0.360784 0 0 0 0 0.898039 0 0 0 1 0"/>
<feBlend mode="normal" in2="BackgroundImageFix" result="effect1_dropShadow"/>
<feBlend mode="normal" in="SourceGraphic" in2="effect1_dropShadow" result="shape"/>
</filter>
<filter id="filter16_d" x="758.695" y="156.568" width="112.937" height="112.927" filterUnits="userSpaceOnUse" color-interpolation-filters="sRGB">
<feFlood flood-opacity="0" result="BackgroundImageFix"/>
<feColorMatrix in="SourceAlpha" type="matrix" values="0 0 0 0 0 0 0 0 0 0 0 0 0 0 0 0 0 0 127 0"/>
<feOffset dy="6"/>
<feGaussianBlur stdDeviation="25"/>
<feColorMatrix type="matrix" values="0 0 0 0 0.121569 0 0 0 0 0.360784 0 0 0 0 0.898039 0 0 0 1 0"/>
<feBlend mode="normal" in2="BackgroundImageFix" result="effect1_dropShadow"/>
<feBlend mode="normal" in="SourceGraphic" in2="effect1_dropShadow" result="shape"/>
</filter>
<filter id="filter17_d" x="788.266" y="164.775" width="157.294" height="103.078" filterUnits="userSpaceOnUse" color-interpolation-filters="sRGB">
<feFlood flood-opacity="0" result="BackgroundImageFix"/>
<feColorMatrix in="SourceAlpha" type="matrix" values="0 0 0 0 0 0 0 0 0 0 0 0 0 0 0 0 0 0 127 0"/>
<feOffset dy="6"/>
<feGaussianBlur stdDeviation="25"/>
<feColorMatrix type="matrix" values="0 0 0 0 0.121569 0 0 0 0 0.360784 0 0 0 0 0.898039 0 0 0 1 0"/>
<feBlend mode="normal" in2="BackgroundImageFix" result="effect1_dropShadow"/>
<feBlend mode="normal" in="SourceGraphic" in2="effect1_dropShadow" result="shape"/>
</filter>
<filter id="filter18_d" x="788.266" y="158.209" width="157.294" height="103.078" filterUnits="userSpaceOnUse" color-interpolation-filters="sRGB">
<feFlood flood-opacity="0" result="BackgroundImageFix"/>
<feColorMatrix in="SourceAlpha" type="matrix" values="0 0 0 0 0 0 0 0 0 0 0 0 0 0 0 0 0 0 127 0"/>
<feOffset dy="6"/>
<feGaussianBlur stdDeviation="25"/>
<feColorMatrix type="matrix" values="0 0 0 0 0.121569 0 0 0 0 0.360784 0 0 0 0 0.898039 0 0 0 1 0"/>
<feBlend mode="normal" in2="BackgroundImageFix" result="effect1_dropShadow"/>
<feBlend mode="normal" in="SourceGraphic" in2="effect1_dropShadow" result="shape"/>
</filter>
<filter id="filter19_d" x="788.266" y="131.946" width="157.294" height="103.078" filterUnits="userSpaceOnUse" color-interpolation-filters="sRGB">
<feFlood flood-opacity="0" result="BackgroundImageFix"/>
<feColorMatrix in="SourceAlpha" type="matrix" values="0 0 0 0 0 0 0 0 0 0 0 0 0 0 0 0 0 0 127 0"/>
<feOffset dy="6"/>
<feGaussianBlur stdDeviation="25"/>
<feColorMatrix type="matrix" values="0 0 0 0 0.121569 0 0 0 0 0.360784 0 0 0 0 0.898039 0 0 0 1 0"/>
<feBlend mode="normal" in2="BackgroundImageFix" result="effect1_dropShadow"/>
<feBlend mode="normal" in="SourceGraphic" in2="effect1_dropShadow" result="shape"/>
</filter>
<filter id="filter20_d" x="788.266" y="125.38" width="157.294" height="103.078" filterUnits="userSpaceOnUse" color-interpolation-filters="sRGB">
<feFlood flood-opacity="0" result="BackgroundImageFix"/>
<feColorMatrix in="SourceAlpha" type="matrix" values="0 0 0 0 0 0 0 0 0 0 0 0 0 0 0 0 0 0 127 0"/>
<feOffset dy="6"/>
<feGaussianBlur stdDeviation="25"/>
<feColorMatrix type="matrix" values="0 0 0 0 0.121569 0 0 0 0 0.360784 0 0 0 0 0.898039 0 0 0 1 0"/>
<feBlend mode="normal" in2="BackgroundImageFix" result="effect1_dropShadow"/>
<feBlend mode="normal" in="SourceGraphic" in2="effect1_dropShadow" result="shape"/>
</filter>
<filter id="filter21_d" x="758.695" y="189.397" width="112.937" height="112.927" filterUnits="userSpaceOnUse" color-interpolation-filters="sRGB">
<feFlood flood-opacity="0" result="BackgroundImageFix"/>
<feColorMatrix in="SourceAlpha" type="matrix" values="0 0 0 0 0 0 0 0 0 0 0 0 0 0 0 0 0 0 127 0"/>
<feOffset dy="6"/>
<feGaussianBlur stdDeviation="25"/>
<feColorMatrix type="matrix" values="0 0 0 0 0.121569 0 0 0 0 0.360784 0 0 0 0 0.898039 0 0 0 1 0"/>
<feBlend mode="normal" in2="BackgroundImageFix" result="effect1_dropShadow"/>
<feBlend mode="normal" in="SourceGraphic" in2="effect1_dropShadow" result="shape"/>
</filter>
<filter id="filter22_d" x="788.266" y="197.605" width="157.294" height="103.078" filterUnits="userSpaceOnUse" color-interpolation-filters="sRGB">
<feFlood flood-opacity="0" result="BackgroundImageFix"/>
<feColorMatrix in="SourceAlpha" type="matrix" values="0 0 0 0 0 0 0 0 0 0 0 0 0 0 0 0 0 0 127 0"/>
<feOffset dy="6"/>
<feGaussianBlur stdDeviation="25"/>
<feColorMatrix type="matrix" values="0 0 0 0 0.121569 0 0 0 0 0.360784 0 0 0 0 0.898039 0 0 0 1 0"/>
<feBlend mode="normal" in2="BackgroundImageFix" result="effect1_dropShadow"/>
<feBlend mode="normal" in="SourceGraphic" in2="effect1_dropShadow" result="shape"/>
</filter>
<filter id="filter23_d" x="788.266" y="191.039" width="157.294" height="103.078" filterUnits="userSpaceOnUse" color-interpolation-filters="sRGB">
<feFlood flood-opacity="0" result="BackgroundImageFix"/>
<feColorMatrix in="SourceAlpha" type="matrix" values="0 0 0 0 0 0 0 0 0 0 0 0 0 0 0 0 0 0 127 0"/>
<feOffset dy="6"/>
<feGaussianBlur stdDeviation="25"/>
<feColorMatrix type="matrix" values="0 0 0 0 0.121569 0 0 0 0 0.360784 0 0 0 0 0.898039 0 0 0 1 0"/>
<feBlend mode="normal" in2="BackgroundImageFix" result="effect1_dropShadow"/>
<feBlend mode="normal" in="SourceGraphic" in2="effect1_dropShadow" result="shape"/>
</filter>
<filter id="filter24_d" x="345.48" y="204.531" width="296" height="215" filterUnits="userSpaceOnUse" color-interpolation-filters="sRGB">
<feFlood flood-opacity="0" result="BackgroundImageFix"/>
<feColorMatrix in="SourceAlpha" type="matrix" values="0 0 0 0 0 0 0 0 0 0 0 0 0 0 0 0 0 0 127 0"/>
<feOffset dy="6"/>
<feGaussianBlur stdDeviation="25"/>
<feColorMatrix type="matrix" values="0 0 0 0 0.121569 0 0 0 0 0.360784 0 0 0 0 0.898039 0 0 0 1 0"/>
<feBlend mode="normal" in2="BackgroundImageFix" result="effect1_dropShadow"/>
<feBlend mode="normal" in="SourceGraphic" in2="effect1_dropShadow" result="shape"/>
</filter>
<filter id="filter25_d" x="525.48" y="212.531" width="106" height="104" filterUnits="userSpaceOnUse" color-interpolation-filters="sRGB">
<feFlood flood-opacity="0" result="BackgroundImageFix"/>
<feColorMatrix in="SourceAlpha" type="matrix" values="0 0 0 0 0 0 0 0 0 0 0 0 0 0 0 0 0 0 127 0"/>
<feOffset dy="6"/>
<feGaussianBlur stdDeviation="25"/>
<feColorMatrix type="matrix" values="0 0 0 0 0.121569 0 0 0 0 0.360784 0 0 0 0 0.898039 0 0 0 1 0"/>
<feBlend mode="normal" in2="BackgroundImageFix" result="effect1_dropShadow"/>
<feBlend mode="normal" in="SourceGraphic" in2="effect1_dropShadow" result="shape"/>
</filter>
<filter id="filter26_d" x="518.48" y="212.531" width="104" height="104" filterUnits="userSpaceOnUse" color-interpolation-filters="sRGB">
<feFlood flood-opacity="0" result="BackgroundImageFix"/>
<feColorMatrix in="SourceAlpha" type="matrix" values="0 0 0 0 0 0 0 0 0 0 0 0 0 0 0 0 0 0 127 0"/>
<feOffset dy="6"/>
<feGaussianBlur stdDeviation="25"/>
<feColorMatrix type="matrix" values="0 0 0 0 0.121569 0 0 0 0 0.360784 0 0 0 0 0.898039 0 0 0 1 0"/>
<feBlend mode="normal" in2="BackgroundImageFix" result="effect1_dropShadow"/>
<feBlend mode="normal" in="SourceGraphic" in2="effect1_dropShadow" result="shape"/>
</filter>
<filter id="filter27_d" x="510.48" y="212.531" width="104" height="104" filterUnits="userSpaceOnUse" color-interpolation-filters="sRGB">
<feFlood flood-opacity="0" result="BackgroundImageFix"/>
<feColorMatrix in="SourceAlpha" type="matrix" values="0 0 0 0 0 0 0 0 0 0 0 0 0 0 0 0 0 0 127 0"/>
<feOffset dy="6"/>
<feGaussianBlur stdDeviation="25"/>
<feColorMatrix type="matrix" values="0 0 0 0 0.121569 0 0 0 0 0.360784 0 0 0 0 0.898039 0 0 0 1 0"/>
<feBlend mode="normal" in2="BackgroundImageFix" result="effect1_dropShadow"/>
<feBlend mode="normal" in="SourceGraphic" in2="effect1_dropShadow" result="shape"/>
</filter>
<filter id="filter28_d" x="355.48" y="212.531" width="169" height="104" filterUnits="userSpaceOnUse" color-interpolation-filters="sRGB">
<feFlood flood-opacity="0" result="BackgroundImageFix"/>
<feColorMatrix in="SourceAlpha" type="matrix" values="0 0 0 0 0 0 0 0 0 0 0 0 0 0 0 0 0 0 127 0"/>
<feOffset dy="6"/>
<feGaussianBlur stdDeviation="25"/>
<feColorMatrix type="matrix" values="0 0 0 0 0.121569 0 0 0 0 0.360784 0 0 0 0 0.898039 0 0 0 1 0"/>
<feBlend mode="normal" in2="BackgroundImageFix" result="effect1_dropShadow"/>
<feBlend mode="normal" in="SourceGraphic" in2="effect1_dropShadow" result="shape"/>
</filter>
<filter id="filter29_d" x="490.48" y="434.531" width="199" height="219" filterUnits="userSpaceOnUse" color-interpolation-filters="sRGB">
<feFlood flood-opacity="0" result="BackgroundImageFix"/>
<feColorMatrix in="SourceAlpha" type="matrix" values="0 0 0 0 0 0 0 0 0 0 0 0 0 0 0 0 0 0 127 0"/>
<feOffset dy="6"/>
<feGaussianBlur stdDeviation="25"/>
<feColorMatrix type="matrix" values="0 0 0 0 0.121569 0 0 0 0 0.360784 0 0 0 0 0.898039 0 0 0 1 0"/>
<feBlend mode="normal" in2="BackgroundImageFix" result="effect1_dropShadow"/>
<feBlend mode="normal" in="SourceGraphic" in2="effect1_dropShadow" result="shape"/>
</filter>
<filter id="filter30_d" x="532.48" y="479.531" width="116" height="116" filterUnits="userSpaceOnUse" color-interpolation-filters="sRGB">
<feFlood flood-opacity="0" result="BackgroundImageFix"/>
<feColorMatrix in="SourceAlpha" type="matrix" values="0 0 0 0 0 0 0 0 0 0 0 0 0 0 0 0 0 0 127 0"/>
<feOffset dy="6"/>
<feGaussianBlur stdDeviation="25"/>
<feColorMatrix type="matrix" values="0 0 0 0 0.0941176 0 0 0 0 0.854902 0 0 0 0 0.635294 0 0 0 1 0"/>
<feBlend mode="normal" in2="BackgroundImageFix" result="effect1_dropShadow"/>
<feBlend mode="normal" in="SourceGraphic" in2="effect1_dropShadow" result="shape"/>
</filter>
<filter id="filter31_d" x="733.48" y="351.531" width="182" height="184" filterUnits="userSpaceOnUse" color-interpolation-filters="sRGB">
<feFlood flood-opacity="0" result="BackgroundImageFix"/>
<feColorMatrix in="SourceAlpha" type="matrix" values="0 0 0 0 0 0 0 0 0 0 0 0 0 0 0 0 0 0 127 0"/>
<feOffset dy="6"/>
<feGaussianBlur stdDeviation="25"/>
<feColorMatrix type="matrix" values="0 0 0 0 0.121569 0 0 0 0 0.360784 0 0 0 0 0.898039 0 0 0 1 0"/>
<feBlend mode="normal" in2="BackgroundImageFix" result="effect1_dropShadow"/>
<feBlend mode="normal" in="SourceGraphic" in2="effect1_dropShadow" result="shape"/>
</filter>
<linearGradient id="paint0_linear" x1="616.255" y1="409.331" x2="616.255" y2="421.531" gradientUnits="userSpaceOnUse">
<stop stop-color="#05062C"/>
<stop offset="1" stop-color="#05062C" stop-opacity="0.01"/>
</linearGradient>
<linearGradient id="paint1_linear" x1="67.4821" y1="516.29" x2="140.026" y2="637.049" gradientUnits="userSpaceOnUse">
<stop stop-color="#05062C"/>
<stop offset="1" stop-color="#05062C" stop-opacity="0.01"/>
</linearGradient>
<linearGradient id="paint2_linear" x1="57.4821" y1="506.29" x2="130.026" y2="627.049" gradientUnits="userSpaceOnUse">
<stop stop-color="#05062C"/>
<stop offset="1" stop-color="#05062C" stop-opacity="0.01"/>
</linearGradient>
<linearGradient id="paint3_linear" x1="-86.8345" y1="469.838" x2="10.2216" y2="670.933" gradientUnits="userSpaceOnUse">
<stop stop-color="#83C3F7"/>
<stop offset="1" stop-color="#1B58E4"/>
</linearGradient>
<linearGradient id="paint4_linear" x1="117.652" y1="488.546" x2="147.119" y2="523.265" gradientUnits="userSpaceOnUse">
<stop stop-color="#18DAA2" stop-opacity="0.01"/>
<stop offset="1" stop-color="#18DAA2"/>
</linearGradient>
<linearGradient id="paint5_linear" x1="128.48" y1="486.531" x2="144.48" y2="502.531" gradientUnits="userSpaceOnUse">
<stop stop-color="#7CFFE9"/>
<stop offset="1" stop-color="#18DAA2"/>
</linearGradient>
<linearGradient id="paint6_linear" x1="103.193" y1="593.331" x2="103.193" y2="605.531" gradientUnits="userSpaceOnUse">
<stop stop-color="#05062C"/>
<stop offset="1" stop-color="#05062C" stop-opacity="0.01"/>
</linearGradient>
<linearGradient id="paint7_linear" x1="105.142" y1="203.163" x2="184.929" y2="254.75" gradientUnits="userSpaceOnUse">
<stop stop-color="#05062C"/>
<stop offset="1" stop-color="#05062C" stop-opacity="0.01"/>
</linearGradient>
<linearGradient id="paint8_linear" x1="95.1416" y1="193.163" x2="174.929" y2="244.75" gradientUnits="userSpaceOnUse">
<stop stop-color="#05062C"/>
<stop offset="1" stop-color="#05062C" stop-opacity="0.01"/>
</linearGradient>
<linearGradient id="paint9_linear" x1="47.1217" y1="172.916" x2="168.383" y2="243.926" gradientUnits="userSpaceOnUse">
<stop stop-color="#83C3F7"/>
<stop offset="1" stop-color="#1B58E4"/>
</linearGradient>
<linearGradient id="paint10_linear" x1="101.652" y1="179.546" x2="131.119" y2="214.265" gradientUnits="userSpaceOnUse">
<stop stop-color="#18DAA2" stop-opacity="0.01"/>
<stop offset="1" stop-color="#18DAA2"/>
</linearGradient>
<linearGradient id="paint11_linear" x1="112.48" y1="177.531" x2="128.48" y2="193.531" gradientUnits="userSpaceOnUse">
<stop stop-color="#7CFFE9"/>
<stop offset="1" stop-color="#18DAA2"/>
</linearGradient>
<linearGradient id="paint12_linear" x1="-10.8069" y1="146.331" x2="-10.8069" y2="158.531" gradientUnits="userSpaceOnUse">
<stop stop-color="#05062C"/>
<stop offset="1" stop-color="#05062C" stop-opacity="0.01"/>
</linearGradient>
<linearGradient id="paint13_linear" x1="463.58" y1="128.163" x2="550.522" y2="225.487" gradientUnits="userSpaceOnUse">
<stop stop-color="#05062C"/>
<stop offset="1" stop-color="#05062C" stop-opacity="0.01"/>
</linearGradient>
<linearGradient id="paint14_linear" x1="453.58" y1="118.163" x2="540.522" y2="215.487" gradientUnits="userSpaceOnUse">
<stop stop-color="#05062C"/>
<stop offset="1" stop-color="#05062C" stop-opacity="0.01"/>
</linearGradient>
<linearGradient id="paint15_linear" x1="519.48" y1="-12.9688" x2="634.476" y2="103.027" gradientUnits="userSpaceOnUse">
<stop stop-color="#83C3F7"/>
<stop offset="1" stop-color="#1B58E4"/>
</linearGradient>
<linearGradient id="paint16_linear" x1="571.811" y1="54.3881" x2="567.356" y2="61.1055" gradientUnits="userSpaceOnUse">
<stop stop-color="#83C3F7"/>
<stop offset="1" stop-color="#1B58E4"/>
</linearGradient>
<linearGradient id="paint17_linear" x1="561.368" y1="54.3881" x2="556.531" y2="59.2491" gradientUnits="userSpaceOnUse">
<stop stop-color="#83C3F7"/>
<stop offset="1" stop-color="#1B58E4"/>
</linearGradient>
<linearGradient id="paint18_linear" x1="553.368" y1="54.3881" x2="548.531" y2="59.2491" gradientUnits="userSpaceOnUse">
<stop stop-color="#83C3F7"/>
<stop offset="1" stop-color="#1B58E4"/>
</linearGradient>
<linearGradient id="paint19_linear" x1="1012.19" y1="37.6758" x2="1012.43" y2="100.622" gradientUnits="userSpaceOnUse">
<stop stop-color="#83C3F7"/>
<stop offset="1" stop-color="#1B58E4"/>
</linearGradient>
<linearGradient id="paint20_linear" x1="493.652" y1="110.546" x2="523.119" y2="145.265" gradientUnits="userSpaceOnUse">
<stop stop-color="#18DAA2" stop-opacity="0.01"/>
<stop offset="1" stop-color="#18DAA2"/>
</linearGradient>
<linearGradient id="paint21_linear" x1="504.48" y1="108.531" x2="520.48" y2="124.531" gradientUnits="userSpaceOnUse">
<stop stop-color="#7CFFE9"/>
<stop offset="1" stop-color="#18DAA2"/>
</linearGradient>
<linearGradient id="paint22_linear" x1="338.077" y1="80.3311" x2="338.077" y2="92.5313" gradientUnits="userSpaceOnUse">
<stop stop-color="#05062C"/>
<stop offset="1" stop-color="#05062C" stop-opacity="0.01"/>
</linearGradient>
<linearGradient id="paint23_linear" x1="804.278" y1="232.096" x2="875.075" y2="318.935" gradientUnits="userSpaceOnUse">
<stop stop-color="#05062C"/>
<stop offset="1" stop-color="#05062C" stop-opacity="0.01"/>
</linearGradient>
<linearGradient id="paint24_linear" x1="794.278" y1="222.096" x2="865.075" y2="308.935" gradientUnits="userSpaceOnUse">
<stop stop-color="#05062C"/>
<stop offset="1" stop-color="#05062C" stop-opacity="0.01"/>
</linearGradient>
<linearGradient id="paint25_linear" x1="749.106" y1="206.536" x2="842.556" y2="310.847" gradientUnits="userSpaceOnUse">
<stop stop-color="#83C3F7"/>
<stop offset="1" stop-color="#1B58E4"/>
</linearGradient>
<linearGradient id="paint26_linear" x1="767.228" y1="179.255" x2="792.702" y2="262.132" gradientUnits="userSpaceOnUse">
<stop stop-color="#83C3F7"/>
<stop offset="1" stop-color="#1B58E4"/>
</linearGradient>
<linearGradient id="paint27_linear" x1="767.228" y1="212.085" x2="792.702" y2="294.962" gradientUnits="userSpaceOnUse">
<stop stop-color="#83C3F7"/>
<stop offset="1" stop-color="#1B58E4"/>
</linearGradient>
<linearGradient id="paint28_linear" x1="13.4486" y1="171.092" x2="13.6362" y2="260.017" gradientUnits="userSpaceOnUse">
<stop stop-color="#83C3F7"/>
<stop offset="1" stop-color="#1B58E4"/>
</linearGradient>
<linearGradient id="paint29_linear" x1="13.4486" y1="164.526" x2="13.6362" y2="253.451" gradientUnits="userSpaceOnUse">
<stop stop-color="#83C3F7"/>
<stop offset="1" stop-color="#1B58E4"/>
</linearGradient>
<linearGradient id="paint30_linear" x1="13.4486" y1="138.262" x2="13.6362" y2="227.188" gradientUnits="userSpaceOnUse">
<stop stop-color="#83C3F7"/>
<stop offset="1" stop-color="#1B58E4"/>
</linearGradient>
<linearGradient id="paint31_linear" x1="13.4486" y1="131.696" x2="13.6362" y2="220.622" gradientUnits="userSpaceOnUse">
<stop stop-color="#83C3F7"/>
<stop offset="1" stop-color="#1B58E4"/>
</linearGradient>
<linearGradient id="paint32_linear" x1="767.228" y1="244.914" x2="792.702" y2="327.791" gradientUnits="userSpaceOnUse">
<stop stop-color="#83C3F7"/>
<stop offset="1" stop-color="#1B58E4"/>
</linearGradient>
<linearGradient id="paint33_linear" x1="13.4486" y1="203.921" x2="13.6362" y2="292.847" gradientUnits="userSpaceOnUse">
<stop stop-color="#83C3F7"/>
<stop offset="1" stop-color="#1B58E4"/>
</linearGradient>
<linearGradient id="paint34_linear" x1="13.4486" y1="197.355" x2="13.6362" y2="286.281" gradientUnits="userSpaceOnUse">
<stop stop-color="#83C3F7"/>
<stop offset="1" stop-color="#1B58E4"/>
</linearGradient>
<linearGradient id="paint35_linear" x1="929.193" y1="180.331" x2="929.193" y2="192.531" gradientUnits="userSpaceOnUse">
<stop stop-color="#05062C"/>
<stop offset="1" stop-color="#05062C" stop-opacity="0.01"/>
</linearGradient>
<linearGradient id="paint36_linear" x1="385.236" y1="332.163" x2="457.542" y2="468.925" gradientUnits="userSpaceOnUse">
<stop stop-color="#05062C"/>
<stop offset="1" stop-color="#05062C" stop-opacity="0.01"/>
</linearGradient>
<linearGradient id="paint37_linear" x1="375.236" y1="322.163" x2="447.542" y2="458.925" gradientUnits="userSpaceOnUse">
<stop stop-color="#05062C"/>
<stop offset="1" stop-color="#05062C" stop-opacity="0.01"/>
</linearGradient>
<linearGradient id="paint38_linear" x1="493.48" y1="191.031" x2="593.87" y2="362.129" gradientUnits="userSpaceOnUse">
<stop stop-color="#83C3F7"/>
<stop offset="1" stop-color="#1B58E4"/>
</linearGradient>
<linearGradient id="paint39_linear" x1="585.811" y1="258.388" x2="581.356" y2="265.105" gradientUnits="userSpaceOnUse">
<stop stop-color="#83C3F7"/>
<stop offset="1" stop-color="#1B58E4"/>
</linearGradient>
<linearGradient id="paint40_linear" x1="575.368" y1="258.388" x2="570.531" y2="263.249" gradientUnits="userSpaceOnUse">
<stop stop-color="#83C3F7"/>
<stop offset="1" stop-color="#1B58E4"/>
</linearGradient>
<linearGradient id="paint41_linear" x1="567.368" y1="258.388" x2="562.531" y2="263.249" gradientUnits="userSpaceOnUse">
<stop stop-color="#83C3F7"/>
<stop offset="1" stop-color="#1B58E4"/>
</linearGradient>
<linearGradient id="paint42_linear" x1="946.194" y1="241.676" x2="946.427" y2="304.622" gradientUnits="userSpaceOnUse">
<stop stop-color="#83C3F7"/>
<stop offset="1" stop-color="#1B58E4"/>
</linearGradient>
<linearGradient id="paint43_linear" x1="502.352" y1="321.164" x2="517.914" y2="328.594" gradientUnits="userSpaceOnUse">
<stop stop-color="#7CFFE9"/>
<stop offset="1" stop-color="#18DAA2"/>
</linearGradient>
<linearGradient id="paint44_linear" x1="502.005" y1="310.963" x2="504.173" y2="313.2" gradientUnits="userSpaceOnUse">
<stop stop-color="#7CFFE9"/>
<stop offset="1" stop-color="#18DAA2"/>
</linearGradient>
<linearGradient id="paint45_linear" x1="483.701" y1="326.798" x2="499.264" y2="334.226" gradientUnits="userSpaceOnUse">
<stop stop-color="#7CFFE9"/>
<stop offset="1" stop-color="#18DAA2"/>
</linearGradient>
<linearGradient id="paint46_linear" x1="498.683" y1="336.999" x2="500.852" y2="339.235" gradientUnits="userSpaceOnUse">
<stop stop-color="#7CFFE9"/>
<stop offset="1" stop-color="#18DAA2"/>
</linearGradient>
<linearGradient id="paint47_linear" x1="437.709" y1="314.977" x2="492.597" y2="370.516" gradientUnits="userSpaceOnUse">
<stop stop-color="#7CFFE9"/>
<stop offset="1" stop-color="#18DAA2"/>
</linearGradient>
<linearGradient id="paint48_linear" x1="204.752" y1="264.331" x2="204.752" y2="276.531" gradientUnits="userSpaceOnUse">
<stop stop-color="#05062C"/>
<stop offset="1" stop-color="#05062C" stop-opacity="0.01"/>
</linearGradient>
<linearGradient id="paint49_linear" x1="541.204" y1="564.376" x2="631.454" y2="647.7" gradientUnits="userSpaceOnUse">
<stop stop-color="#05062C"/>
<stop offset="1" stop-color="#05062C" stop-opacity="0.01"/>
</linearGradient>
<linearGradient id="paint50_linear" x1="531.204" y1="554.376" x2="621.454" y2="637.7" gradientUnits="userSpaceOnUse">
<stop stop-color="#05062C"/>
<stop offset="1" stop-color="#05062C" stop-opacity="0.01"/>
</linearGradient>
<linearGradient id="paint51_linear" x1="494.367" y1="537.173" x2="604.141" y2="630.693" gradientUnits="userSpaceOnUse">
<stop stop-color="#83C3F7"/>
<stop offset="1" stop-color="#1B58E4"/>
</linearGradient>
<linearGradient id="paint52_linear" x1="563.652" y1="533.546" x2="593.119" y2="568.265" gradientUnits="userSpaceOnUse">
<stop stop-color="#18DAA2" stop-opacity="0.01"/>
<stop offset="1" stop-color="#18DAA2"/>
</linearGradient>
<linearGradient id="paint53_linear" x1="547.193" y1="646.331" x2="547.193" y2="658.531" gradientUnits="userSpaceOnUse">
<stop stop-color="#05062C"/>
<stop offset="1" stop-color="#05062C" stop-opacity="0.01"/>
</linearGradient>
<linearGradient id="paint54_linear" x1="790.827" y1="468.71" x2="841.376" y2="535.377" gradientUnits="userSpaceOnUse">
<stop stop-color="#05062C"/>
<stop offset="1" stop-color="#05062C" stop-opacity="0.01"/>
</linearGradient>
<linearGradient id="paint55_linear" x1="780.827" y1="458.71" x2="831.376" y2="525.377" gradientUnits="userSpaceOnUse">
<stop stop-color="#05062C"/>
<stop offset="1" stop-color="#05062C" stop-opacity="0.01"/>
</linearGradient>
<linearGradient id="paint56_linear" x1="745.286" y1="436.926" x2="823.77" y2="515.383" gradientUnits="userSpaceOnUse">
<stop stop-color="#83C3F7"/>
<stop offset="1" stop-color="#1B58E4"/>
</linearGradient>
<linearGradient id="paint57_linear" x1="786.193" y1="528.331" x2="786.193" y2="540.531" gradientUnits="userSpaceOnUse">
<stop stop-color="#05062C"/>
<stop offset="1" stop-color="#05062C" stop-opacity="0.01"/>
</linearGradient>
</defs>
</svg>
