<svg width="320" height="962" viewBox="0 0 320 962" fill="none" xmlns="http://www.w3.org/2000/svg">
<g id="Illustration">
<g id="Group 16">
<g id="Group 9">
<g id="Rectangle Copy 2" opacity="0.298758">
<rect x="72" y="499.734" width="196" height="115" rx="9" fill="#3774E8"/>
<rect x="72" y="499.734" width="196" height="115" rx="9" fill="url(#paint0_linear)"/>
</g>
<g id="Rectangle" opacity="0.298758">
<rect x="62" y="489.734" width="196" height="115" rx="9" fill="#3774E8"/>
<rect x="62" y="489.734" width="196" height="115" rx="9" fill="url(#paint1_linear)"/>
</g>
<g id="web-2">
<g id="Shape" filter="url(#filter0_d)">
<path fill-rule="evenodd" clip-rule="evenodd" d="M61.6669 479.734H238.333C243.669 479.741 247.994 484.028 248 489.318V585.151C247.994 590.441 243.669 594.728 238.333 594.734H61.6667C56.3307 594.728 52.0066 590.441 52 585.151V489.318C52.0066 484.028 56.3307 479.741 61.6669 479.734ZM61.667 590.901H238.333C241.536 590.901 244.133 588.327 244.133 585.151V498.901H55.8667V585.151C55.867 588.326 58.4636 590.901 61.667 590.901ZM244.133 495.068V489.318C244.133 486.142 241.536 483.568 238.333 483.568H61.6667C58.4636 483.568 55.8667 486.142 55.8667 489.318V495.068H244.133Z" fill="url(#paint2_linear)"/>
</g>
<g id="Path" filter="url(#filter1_d)">
<path fill-rule="evenodd" clip-rule="evenodd" d="M234 487.734H236C237.105 487.734 238 488.63 238 489.734C238 490.839 237.105 491.734 236 491.734H234C232.895 491.734 232 490.839 232 489.734C232 488.63 232.895 487.734 234 487.734Z" fill="url(#paint3_linear)"/>
</g>
<g id="Path_2" filter="url(#filter2_d)">
<path fill-rule="evenodd" clip-rule="evenodd" d="M226.24 487.899C226.723 487.679 227.277 487.679 227.76 487.899C228.002 488.001 228.225 488.142 228.42 488.319C229.193 489.106 229.193 490.367 228.42 491.155C228.225 491.331 228.002 491.473 227.76 491.575C227.276 491.788 226.724 491.788 226.24 491.575C225.998 491.473 225.775 491.331 225.58 491.155C224.807 490.367 224.807 489.106 225.58 488.319C225.775 488.142 225.998 488.001 226.24 487.899Z" fill="url(#paint4_linear)"/>
</g>
<g id="Path_3" filter="url(#filter3_d)">
<path fill-rule="evenodd" clip-rule="evenodd" d="M218.233 487.887C218.984 487.576 219.848 487.749 220.42 488.324C220.596 488.518 220.738 488.741 220.84 488.982C221.053 489.465 221.053 490.015 220.84 490.498C220.738 490.74 220.596 490.962 220.42 491.156C219.631 491.927 218.369 491.927 217.581 491.156C217.404 490.962 217.262 490.74 217.161 490.498C217.049 490.261 216.994 490.002 217.001 489.74C216.996 488.93 217.483 488.197 218.233 487.887Z" fill="url(#paint5_linear)"/>
</g>
<g id="Path_4" filter="url(#filter4_d)">
<path fill-rule="evenodd" clip-rule="evenodd" d="M63.9166 487.734H129.083C130.142 487.734 131 488.63 131 489.734C131 490.839 130.142 491.734 129.083 491.734H63.9166C62.858 491.734 62 490.839 62 489.734C62 488.63 62.858 487.734 63.9166 487.734Z" fill="url(#paint6_linear)"/>
</g>
</g>
<g id="badge">
<path id="Combined Shape" fill-rule="evenodd" clip-rule="evenodd" d="M176.6 528.734H151.4C150.627 528.734 150 528.063 150 527.234C150 526.406 150.627 525.734 151.4 525.734H176.6C177.373 525.734 178 526.406 178 527.234C178 528.063 177.373 528.734 176.6 528.734ZM151.385 531.734H184.615C185.38 531.734 186 532.406 186 533.234C186 534.063 185.38 534.734 184.615 534.734H151.385C150.62 534.734 150 534.063 150 533.234C150 532.406 150.62 531.734 151.385 531.734ZM157.364 547.734H169.636C170.389 547.734 171 547.063 171 546.234C171 545.406 170.389 544.734 169.636 544.734H157.364C156.611 544.734 156 545.406 156 546.234C156 547.063 156.611 547.734 157.364 547.734ZM150.439 545.173C150.718 544.894 151.104 544.734 151.5 544.734C151.896 544.734 152.282 544.894 152.561 545.173C152.841 545.452 153 545.839 153 546.234C153 546.63 152.841 547.016 152.561 547.296C152.282 547.575 151.896 547.734 151.5 547.734C151.104 547.734 150.718 547.575 150.439 547.296C150.159 547.016 150 546.63 150 546.234C150 545.839 150.159 545.452 150.439 545.173ZM178.611 550.734H156.389C155.622 550.734 155 551.406 155 552.234C155 553.063 155.622 553.734 156.389 553.734H178.611C179.378 553.734 180 553.063 180 552.234C180 551.406 179.378 550.734 178.611 550.734ZM150.439 551.173C150.718 550.894 151.104 550.734 151.5 550.734C151.896 550.734 152.282 550.894 152.561 551.173C152.841 551.452 153 551.839 153 552.234C153 552.63 152.841 553.016 152.561 553.296C152.282 553.575 151.896 553.734 151.5 553.734C151.104 553.734 150.718 553.575 150.439 553.296C150.159 553.016 150 552.63 150 552.234C150 551.839 150.159 551.452 150.439 551.173ZM174.667 556.734H157.333C156.597 556.734 156 557.406 156 558.234C156 559.063 156.597 559.734 157.333 559.734H174.667C175.403 559.734 176 559.063 176 558.234C176 557.406 175.403 556.734 174.667 556.734ZM150.439 557.173C150.718 556.894 151.104 556.734 151.5 556.734C151.896 556.734 152.282 556.894 152.561 557.173C152.841 557.452 153 557.839 153 558.234C153 558.63 152.841 559.016 152.561 559.296C152.282 559.575 151.896 559.734 151.5 559.734C151.104 559.734 150.718 559.575 150.439 559.296C150.159 559.016 150 558.63 150 558.234C150 557.839 150.159 557.452 150.439 557.173Z" fill="url(#paint7_linear)"/>
</g>
</g>
<g id="Group 12 Copy 6">
<g id="Rectangle_2" opacity="0.298758">
<rect x="118" y="453.734" width="78" height="15" fill="#18DAA2"/>
<rect x="118" y="453.734" width="78" height="15" fill="url(#paint8_linear)"/>
</g>
<path id="Identity" fill-rule="evenodd" clip-rule="evenodd" d="M128.201 461.734V449.134H130.199V461.734H128.201ZM141.393 448.72V461.734H139.539V460.51C139.287 460.834 138.333 461.968 136.515 461.968C133.833 461.968 131.925 459.934 131.925 457.054C131.925 454.156 133.707 452.104 136.389 452.104C138.171 452.104 139.179 453.184 139.431 453.598V448.72H141.393ZM139.503 457.072C139.503 455.02 138.261 453.85 136.695 453.85C135.057 453.85 133.905 455.182 133.905 457.072C133.905 458.998 135.111 460.24 136.713 460.24C138.441 460.24 139.503 458.8 139.503 457.072ZM142.902 457.072C142.902 454.156 144.9 452.104 147.474 452.104C150.318 452.104 151.992 454.066 151.992 457.018C151.992 457.18 151.992 457.342 151.974 457.504H144.9C144.936 459.178 146.142 460.258 147.816 460.258C149.238 460.258 150.048 459.466 150.408 458.944L151.704 459.916C151.254 460.69 150.012 461.968 147.78 461.968C144.846 461.968 142.902 459.916 142.902 457.072ZM144.972 456.154H149.994C149.922 454.606 148.842 453.742 147.492 453.742C146.142 453.742 145.098 454.678 144.972 456.154ZM158.019 452.104C160.449 452.104 161.295 454.03 161.295 456.082V461.734H159.351V455.92C159.351 454.624 158.541 453.868 157.461 453.868C156.219 453.868 155.409 454.786 155.409 456.064V461.734H153.447V452.338H155.373V453.562C155.787 452.824 156.759 452.104 158.019 452.104ZM163.453 452.338V450.376H165.397V452.338H167.305V453.958H165.397V458.332C165.397 459.79 165.955 460.114 166.999 460.114C167.161 460.114 167.377 460.096 167.377 460.096V461.788C167.377 461.788 167.035 461.86 166.423 461.86C164.137 461.86 163.453 460.33 163.453 458.026V453.958H162.409V452.338H163.453ZM168.814 461.734V452.338H170.776V461.734H168.814ZM168.562 450.016C168.562 449.332 169.102 448.792 169.786 448.792C170.47 448.792 171.01 449.332 171.01 450.016C171.01 450.7 170.47 451.24 169.786 451.24C169.102 451.24 168.562 450.7 168.562 450.016ZM173.006 452.338V450.376H174.95V452.338H176.858V453.958H174.95V458.332C174.95 459.79 175.508 460.114 176.552 460.114C176.714 460.114 176.93 460.096 176.93 460.096V461.788C176.93 461.788 176.588 461.86 175.976 461.86C173.69 461.86 173.006 460.33 173.006 458.026V453.958H171.962V452.338H173.006ZM182.201 464.956H180.311L181.643 461.572L177.917 452.338H180.023L182.561 459.178L185.063 452.338H187.115L182.201 464.956Z" fill="white"/>
</g>
</g>
<g id="Path 2" opacity="0.4" filter="url(#filter5_d)">
<path d="M31 129.734V537.793H55.2207" stroke="#18DAA2" stroke-width="2" stroke-dasharray="8 8"/>
</g>
<g id="Path 2_2" opacity="0.4" filter="url(#filter6_d)">
<path d="M31 702.5V559.734H55.2207" stroke="#18DAA2" stroke-width="2" stroke-dasharray="8 8"/>
</g>
<path id="Path 2_3" opacity="0.4" d="M156 845.414V593.394" stroke="#18DAA2"/>
<path id="Path 2_4" opacity="0.4" d="M156 433.543V359.394" stroke="#18DAA2"/>
<g id="Group 12 Copy 5">
<g id="Rectangle_3" opacity="0.298758">
<rect x="69" y="636.734" width="87" height="11" fill="#18DAA2"/>
<rect x="69" y="636.734" width="87" height="11" fill="url(#paint9_linear)"/>
</g>
<path id="Transaction" fill-rule="evenodd" clip-rule="evenodd" d="M80.4082 642.557V634.36H78V632.994H84.3352V634.36H81.927V642.557H80.4082ZM88.5477 635.248V636.751C86.9878 636.751 86.5363 637.939 86.5363 639.483V642.557H85.0448V635.426H86.5089V636.546C86.7826 635.835 87.5351 635.248 88.5477 635.248ZM89.1204 640.357C89.1204 638.978 90.2424 638.008 91.8844 638.008C92.7054 638.008 93.3211 638.281 93.5948 638.527V637.857C93.5948 637.038 93.0201 636.546 92.0759 636.546C91.2823 636.546 90.5982 636.819 90.0782 637.106L89.5035 636.068C90.0782 635.699 91.036 635.248 92.2265 635.248C94.3473 635.248 95.0725 636.396 95.0725 637.953V642.557H93.7726L93.6495 642.024C93.2801 642.434 92.7054 642.734 91.816 642.734C90.3108 642.734 89.1204 641.792 89.1204 640.357ZM90.6119 640.316C90.6119 641.027 91.2276 641.546 92.1307 641.546C93.0064 641.546 93.6358 641.054 93.6358 640.316C93.6358 639.565 93.0201 639.087 92.117 639.087C91.2139 639.087 90.6119 639.606 90.6119 640.316ZM100.024 635.248C101.871 635.248 102.514 636.71 102.514 638.267V642.557H101.036V638.144C101.036 637.161 100.421 636.587 99.5997 636.587C98.6555 636.587 98.0398 637.284 98.0398 638.254V642.557H96.5483V635.426H98.0124V636.355C98.3271 635.794 99.066 635.248 100.024 635.248ZM103.525 641.314L104.455 640.576C104.784 641.054 105.276 641.505 106.166 641.505C106.795 641.505 107.26 641.191 107.26 640.617C107.26 639.251 103.785 639.743 103.785 637.27C103.785 636.013 104.852 635.248 106.234 635.248C107.575 635.248 108.286 636.027 108.56 636.573L107.534 637.256C107.329 636.928 106.946 636.464 106.152 636.464C105.605 636.464 105.194 636.751 105.194 637.243C105.194 638.609 108.683 638.035 108.683 640.549C108.683 641.874 107.561 642.734 106.097 642.734C104.647 642.734 103.88 641.956 103.525 641.314ZM109.324 640.357C109.324 638.978 110.446 638.008 112.088 638.008C112.909 638.008 113.525 638.281 113.799 638.527V637.857C113.799 637.038 113.224 636.546 112.28 636.546C111.486 636.546 110.802 636.819 110.282 637.106L109.708 636.068C110.282 635.699 111.24 635.248 112.43 635.248C114.551 635.248 115.277 636.396 115.277 637.953V642.557H113.977L113.853 642.024C113.484 642.434 112.909 642.734 112.02 642.734C110.515 642.734 109.324 641.792 109.324 640.357ZM110.816 640.316C110.816 641.027 111.432 641.546 112.335 641.546C113.21 641.546 113.84 641.054 113.84 640.316C113.84 639.565 113.224 639.087 112.321 639.087C111.418 639.087 110.816 639.606 110.816 640.316ZM122.417 636.122L121.966 637.379C121.637 637.065 120.98 636.6 120.077 636.6C118.723 636.6 117.82 637.639 117.82 638.991C117.82 640.357 118.805 641.409 120.132 641.409C121.049 641.409 121.692 640.89 121.993 640.617L122.417 641.846C122.061 642.161 121.24 642.734 120.05 642.734C117.874 642.734 116.314 641.136 116.314 638.991C116.314 636.86 117.915 635.248 120.036 635.248C121.213 635.248 122.007 635.767 122.417 636.122ZM123.633 635.426V633.937H125.111V635.426H126.561V636.655H125.111V639.975C125.111 641.081 125.535 641.327 126.329 641.327C126.452 641.327 126.616 641.314 126.616 641.314V642.598C126.616 642.598 126.356 642.652 125.891 642.652C124.153 642.652 123.633 641.491 123.633 639.743V636.655H122.839V635.426H123.633ZM127.709 642.557V635.426H129.2V642.557H127.709ZM127.517 633.663C127.517 633.144 127.927 632.734 128.447 632.734C128.967 632.734 129.378 633.144 129.378 633.663C129.378 634.182 128.967 634.592 128.447 634.592C127.927 634.592 127.517 634.182 127.517 633.663ZM131.839 639.005C131.839 640.412 132.783 641.409 134.11 641.409C135.438 641.409 136.409 640.385 136.409 638.991C136.409 637.598 135.438 636.573 134.11 636.573C132.769 636.573 131.839 637.611 131.839 639.005ZM130.334 639.005C130.334 636.846 131.962 635.248 134.11 635.248C136.313 635.248 137.9 636.846 137.9 638.991C137.9 641.136 136.286 642.734 134.11 642.734C131.921 642.734 130.334 641.163 130.334 639.005ZM142.51 635.248C144.357 635.248 145 636.71 145 638.267V642.557H143.522V638.144C143.522 637.161 142.906 636.587 142.086 636.587C141.141 636.587 140.526 637.284 140.526 638.254V642.557H139.034V635.426H140.498V636.355C140.813 635.794 141.552 635.248 142.51 635.248Z" fill="white"/>
</g>
<path id="Path 2_5" opacity="0.4" d="M271.221 694.734L271.221 559.734H247" stroke="#18DAA2"/>
<g id="Path 2 Copy" opacity="0.4" filter="url(#filter7_d)">
<path d="M271.221 129.734V537.793H247" stroke="#18DAA2" stroke-width="2" stroke-dasharray="8 8"/>
</g>
<g id="Group 11 Copy">
<path id="Stroke 354" d="M266.091 208.644C265.588 208.142 265.588 207.328 266.09 206.826C266.592 206.323 267.406 206.323 267.908 206.825L272.408 211.322C272.911 211.824 272.911 212.638 272.409 213.14C271.907 213.643 271.093 213.643 270.591 213.141L266.091 208.644Z" fill="#17D2A5"/>
<path id="Stroke 355" d="M272.408 213.141C271.906 213.643 271.092 213.643 270.59 213.14C270.088 212.638 270.088 211.824 270.591 211.322L275.091 206.825C275.593 206.323 276.407 206.323 276.909 206.826C277.411 207.328 277.411 208.142 276.908 208.644L272.408 213.141Z" fill="#17D2A5"/>
</g>
<g id="Path 2_6" opacity="0.4" filter="url(#filter8_d)">
<path d="M100 115.234H197.411" stroke="#18DAA2" stroke-width="2" stroke-dasharray="8 8"/>
</g>
<g id="Group 11">
<path id="Stroke 354_2" d="M154.909 109.826C154.407 109.323 153.593 109.323 153.091 109.825C152.588 110.327 152.588 111.141 153.09 111.643L157.587 116.143C158.089 116.646 158.903 116.646 159.405 116.144C159.908 115.642 159.908 114.828 159.406 114.326L154.909 109.826Z" fill="#17D2A5"/>
<path id="Stroke 355_2" d="M159.406 116.143C159.908 115.641 159.908 114.827 159.405 114.325C158.903 113.823 158.089 113.823 157.587 114.326L153.09 118.826C152.588 119.328 152.588 120.142 153.091 120.644C153.593 121.146 154.407 121.146 154.909 120.643L159.406 116.143Z" fill="#17D2A5"/>
</g>
<g id="Group 17">
<g id="Group 6">
<g id="Rectangle_4" opacity="0.298758">
<rect x="35" y="712.734" width="81" height="54" rx="9" fill="#3774E8"/>
<rect x="35" y="712.734" width="81" height="54" rx="9" fill="url(#paint10_linear)"/>
</g>
<g id="Rectangle_5" opacity="0.298758">
<rect x="30" y="707.734" width="81" height="54" rx="9" fill="#3774E8"/>
<rect x="30" y="707.734" width="81" height="54" rx="9" fill="url(#paint11_linear)"/>
</g>
<g id="notebook">
<g id="Shape_2" filter="url(#filter9_d)">
<path fill-rule="evenodd" clip-rule="evenodd" d="M105.884 753.788H100.475C100.943 753.131 101.225 752.33 101.225 751.461V704.76C101.225 702.54 99.423 700.734 97.2087 700.734H23.7384C21.5249 700.734 19.7234 702.541 19.7234 704.76V751.461C19.7234 752.347 20.0202 753.162 20.5067 753.829H15.0456C15.0456 753.829 14.8004 754.078 15.4472 754.726C17.2813 756.566 21.4011 756.725 21.4011 756.725V756.72C21.4011 756.72 98.5706 756.738 98.6563 756.734C102.958 756.734 104.347 755.44 105.484 754.686C106.326 753.838 105.884 753.788 105.884 753.788ZM65.6327 754.77H55.2938V754.066H65.6311L65.6327 754.77ZM98.2611 750.535H22.5678V703.449H98.2618V750.535H98.2611Z" fill="url(#paint12_linear)"/>
</g>
</g>
<g id="Group 7">
<path id="Oval" opacity="0.3" fill-rule="evenodd" clip-rule="evenodd" d="M60.5 738.734C66.8513 738.734 72 733.586 72 727.234C72 720.883 66.8513 715.734 60.5 715.734C54.1487 715.734 49 720.883 49 727.234C49 733.586 54.1487 738.734 60.5 738.734Z" fill="url(#paint13_linear)"/>
<g id="key">
<path id="Shape_3" fill-rule="evenodd" clip-rule="evenodd" d="M64.0736 724.172C63.046 723.144 61.3741 723.144 60.3465 724.172C59.6446 724.873 59.4008 725.908 59.7047 726.846L56.7367 729.814C56.6918 729.859 56.6665 729.92 56.6665 729.984V731.339C56.6665 731.471 56.7737 731.579 56.9061 731.579H58.2615C58.3251 731.579 58.3859 731.553 58.4308 731.508L58.7696 731.169C58.8213 731.118 58.8466 731.045 58.8382 730.972L58.7961 730.608L59.3005 730.561C59.4152 730.55 59.5057 730.46 59.5165 730.345L59.564 729.84L59.928 729.883C59.9956 729.892 60.0637 729.869 60.115 729.824C60.166 729.778 60.1952 729.713 60.1952 729.645V729.199H60.6332C60.6968 729.199 60.7577 729.174 60.8026 729.129L61.417 728.522C62.3552 728.826 63.3717 728.601 64.0736 727.899C65.1012 726.871 65.1012 725.199 64.0736 724.172ZM63.3958 725.866C63.1155 726.146 62.6597 726.146 62.3794 725.866C62.0991 725.585 62.0991 725.13 62.3794 724.849C62.6597 724.569 63.1155 724.569 63.3958 724.849C63.6761 725.13 63.6761 725.585 63.3958 725.866Z" fill="url(#paint14_linear)"/>
</g>
</g>
</g>
<g id="Group 12 Copy 3">
<g id="Rectangle_6" opacity="0.298758">
<rect x="26" y="786.734" width="80" height="15" fill="#18DAA2"/>
<rect x="26" y="786.734" width="80" height="15" fill="url(#paint15_linear)"/>
</g>
<path id="2nd key" fill-rule="evenodd" clip-rule="evenodd" d="M35.3818 794.734V794.014C35.3818 790.45 41.1598 788.416 41.1598 785.644C41.1598 784.528 40.4398 783.754 39.1978 783.754C37.9738 783.754 37.3798 784.546 37.1278 785.464L35.3818 784.96C35.6338 783.808 36.6598 781.9 39.2698 781.9C41.6818 781.9 43.1938 783.412 43.1938 785.572C43.1938 789.136 38.0278 790.972 37.7218 792.97H43.3558V794.734H35.3818ZM49.6173 785.104C52.0473 785.104 52.8933 787.03 52.8933 789.082V794.734H50.9493V788.92C50.9493 787.624 50.1393 786.868 49.0593 786.868C47.8173 786.868 47.0073 787.786 47.0073 789.064V794.734H45.0453V785.338H46.9713V786.562C47.3853 785.824 48.3573 785.104 49.6173 785.104ZM63.7807 781.72V794.734H61.9267V793.51C61.6747 793.834 60.7207 794.968 58.9027 794.968C56.2207 794.968 54.3127 792.934 54.3127 790.054C54.3127 787.156 56.0947 785.104 58.7767 785.104C60.5587 785.104 61.5667 786.184 61.8187 786.598V781.72H63.7807ZM61.8907 790.072C61.8907 788.02 60.6487 786.85 59.0827 786.85C57.4447 786.85 56.2927 788.182 56.2927 790.072C56.2927 791.998 57.4987 793.24 59.1007 793.24C60.8287 793.24 61.8907 791.8 61.8907 790.072ZM70.2375 794.734V781.72H72.1996V789.352L75.6735 785.338H77.9055L74.1435 789.586L78.1575 794.734H75.8355L72.1996 789.802V794.734H70.2375ZM78.641 790.072C78.641 787.156 80.639 785.104 83.213 785.104C86.057 785.104 87.731 787.066 87.731 790.018C87.731 790.18 87.731 790.342 87.713 790.504H80.639C80.675 792.178 81.881 793.258 83.555 793.258C84.977 793.258 85.787 792.466 86.147 791.944L87.443 792.916C86.993 793.69 85.751 794.968 83.519 794.968C80.585 794.968 78.641 792.916 78.641 790.072ZM80.711 789.154H85.733C85.661 787.606 84.581 786.742 83.231 786.742C81.881 786.742 80.837 787.678 80.711 789.154ZM92.4804 797.956H90.5904L91.9224 794.572L88.1964 785.338H90.3024L92.8404 792.178L95.3424 785.338H97.3944L92.4804 797.956Z" fill="white"/>
</g>
</g>
<g id="Group 19">
<g id="Group 10">
<g id="Rectangle Copy 3" opacity="0.298758">
<rect x="136" y="867.734" width="64" height="54" rx="9" fill="#3774E8"/>
<rect x="136" y="867.734" width="64" height="54" rx="9" fill="url(#paint16_linear)"/>
</g>
<g id="Rectangle_7" opacity="0.298758">
<rect x="128" y="859.734" width="64" height="54" rx="9" fill="#3774E8"/>
<rect x="128" y="859.734" width="64" height="54" rx="9" fill="url(#paint17_linear)"/>
</g>
<g id="wallet-2">
<g id="Shape_4" filter="url(#filter10_d)">
<path fill-rule="evenodd" clip-rule="evenodd" d="M184 870.48H180.898V855.913C180.898 852.421 178.115 849.58 174.695 849.58H170.494L166.195 841.689C165.539 840.483 164.292 839.734 162.94 839.734C162.31 839.734 161.684 839.9 161.132 840.213L144.633 849.58H126.204C122.783 849.58 120 852.421 120 855.913V899.401C120 902.893 122.783 905.734 126.204 905.734H174.695C178.115 905.734 180.898 902.893 180.898 899.401V886.629H184V870.48ZM174.695 852.113C176.605 852.113 178.166 853.595 178.376 855.491H173.713L171.874 852.113H174.695ZM162.339 842.427C162.921 842.094 163.704 842.327 164.026 842.919L170.874 855.49H139.328L162.339 842.427ZM178.417 899.401C178.417 901.496 176.747 903.201 174.694 903.201H126.204C124.151 903.201 122.481 901.496 122.481 899.401V855.913C122.481 853.818 124.151 852.113 126.204 852.113H140.172L134.221 855.492H126.979C126.293 855.492 125.738 856.059 125.738 856.758C125.738 857.458 126.293 858.025 126.979 858.025H129.758H175.093H178.417V870.481H169.343C165.13 870.481 161.701 873.982 161.701 878.284V878.828C161.701 883.13 165.13 886.631 169.343 886.631H178.417V899.401ZM181.518 884.096H180.898H169.343C166.497 884.096 164.182 881.733 164.182 878.827V878.282C164.182 875.377 166.497 873.013 169.343 873.013H180.898H181.518V884.096ZM173.144 878.659C173.144 880.204 171.918 881.455 170.404 881.455C168.891 881.455 167.665 880.204 167.665 878.659C167.665 877.113 168.891 875.862 170.404 875.862C171.918 875.862 173.144 877.114 173.144 878.659Z" fill="url(#paint18_linear)"/>
</g>
</g>
</g>
<g id="Group 12">
<g id="Rectangle_8" opacity="0.298758">
<rect x="120" y="943.734" width="80" height="15" fill="#18DAA2"/>
<rect x="120" y="943.734" width="80" height="15" fill="url(#paint19_linear)"/>
</g>
<path id="Wallet" fill-rule="evenodd" clip-rule="evenodd" d="M146.4 951.734L143.682 942.122L140.964 951.734H138.714L135.222 939.134H137.364L139.938 949.25L142.728 939.134H144.618L147.426 949.25L150 939.134H152.124L148.65 951.734H146.4ZM152.715 948.836C152.715 947.018 154.191 945.74 156.351 945.74C157.431 945.74 158.241 946.1 158.601 946.424V945.542C158.601 944.462 157.845 943.814 156.603 943.814C155.559 943.814 154.659 944.174 153.975 944.552L153.219 943.184C153.975 942.698 155.235 942.104 156.801 942.104C159.591 942.104 160.545 943.616 160.545 945.668V951.734H158.835L158.673 951.032C158.187 951.572 157.431 951.968 156.261 951.968C154.281 951.968 152.715 950.726 152.715 948.836ZM154.677 948.782C154.677 949.718 155.487 950.402 156.675 950.402C157.827 950.402 158.655 949.754 158.655 948.782C158.655 947.792 157.845 947.162 156.657 947.162C155.469 947.162 154.677 947.846 154.677 948.782ZM162.487 951.734V938.72H164.449V951.734H162.487ZM166.516 951.734V938.72H168.478V951.734H166.516ZM169.987 947.072C169.987 944.156 171.985 942.104 174.559 942.104C177.403 942.104 179.077 944.066 179.077 947.018C179.077 947.18 179.077 947.342 179.059 947.504H171.985C172.021 949.178 173.227 950.258 174.901 950.258C176.323 950.258 177.133 949.466 177.493 948.944L178.789 949.916C178.339 950.69 177.097 951.968 174.865 951.968C171.931 951.968 169.987 949.916 169.987 947.072ZM172.057 946.154H177.079C177.007 944.606 175.927 943.742 174.577 943.742C173.227 943.742 172.183 944.678 172.057 946.154ZM180.695 942.338V940.376H182.639V942.338H184.547V943.958H182.639V948.332C182.639 949.79 183.197 950.114 184.241 950.114C184.403 950.114 184.619 950.096 184.619 950.096V951.788C184.619 951.788 184.277 951.86 183.665 951.86C181.379 951.86 180.695 950.33 180.695 948.026V943.958H179.651V942.338H180.695Z" fill="white"/>
</g>
</g>
<g id="Group 18">
<g id="security-badge">
<g id="Path Copy" opacity="0.298758">
<path fill-rule="evenodd" clip-rule="evenodd" d="M300.967 712.138C300.941 711 300.13 710.019 298.997 709.863C293.716 709.134 288.507 707.865 283.401 705.985C278.32 704.115 272.697 701.503 266.633 698.063C265.863 697.626 265.139 697.623 264.369 698.063C258.347 701.501 252.765 704.107 247.643 705.985C242.536 707.858 237.33 709.135 232.091 709.863C230.957 710.02 230.162 711 230.036 712.138C229.534 733.757 234.244 751.445 244.122 765.195C249.503 772.685 256.237 778.764 264.369 783.399C264.998 783.863 265.984 783.828 266.717 783.399C274.787 778.687 281.513 772.651 286.881 765.195C296.772 751.454 301.444 733.757 300.967 712.138Z" fill="#3774E8"/>
<path fill-rule="evenodd" clip-rule="evenodd" d="M300.967 712.138C300.941 711 300.13 710.019 298.997 709.863C293.716 709.134 288.507 707.865 283.401 705.985C278.32 704.115 272.697 701.503 266.633 698.063C265.863 697.626 265.139 697.623 264.369 698.063C258.347 701.501 252.765 704.107 247.643 705.985C242.536 707.858 237.33 709.135 232.091 709.863C230.957 710.02 230.162 711 230.036 712.138C229.534 733.757 234.244 751.445 244.122 765.195C249.503 772.685 256.237 778.764 264.369 783.399C264.998 783.863 265.984 783.828 266.717 783.399C274.787 778.687 281.513 772.651 286.881 765.195C296.772 751.454 301.444 733.757 300.967 712.138Z" fill="url(#paint20_linear)"/>
</g>
<g id="Path_5" opacity="0.298758">
<path fill-rule="evenodd" clip-rule="evenodd" d="M293.967 705.138C293.941 704 293.13 703.019 291.997 702.863C286.716 702.134 281.507 700.865 276.401 698.985C271.32 697.115 265.697 694.503 259.633 691.063C258.863 690.626 258.139 690.623 257.369 691.063C251.347 694.501 245.765 697.107 240.643 698.985C235.536 700.858 230.33 702.135 225.091 702.863C223.957 703.02 223.162 704 223.036 705.138C222.534 726.757 227.244 744.445 237.122 758.195C242.503 765.685 249.237 771.764 257.369 776.399C257.998 776.863 258.984 776.828 259.717 776.399C267.787 771.687 274.513 765.651 279.881 758.195C289.772 744.454 294.444 726.757 293.967 705.138Z" fill="#3774E8"/>
<path fill-rule="evenodd" clip-rule="evenodd" d="M293.967 705.138C293.941 704 293.13 703.019 291.997 702.863C286.716 702.134 281.507 700.865 276.401 698.985C271.32 697.115 265.697 694.503 259.633 691.063C258.863 690.626 258.139 690.623 257.369 691.063C251.347 694.501 245.765 697.107 240.643 698.985C235.536 700.858 230.33 702.135 225.091 702.863C223.957 703.02 223.162 704 223.036 705.138C222.534 726.757 227.244 744.445 237.122 758.195C242.503 765.685 249.237 771.764 257.369 776.399C257.998 776.863 258.984 776.828 259.717 776.399C267.787 771.687 274.513 765.651 279.881 758.195C289.772 744.454 294.444 726.757 293.967 705.138Z" fill="url(#paint21_linear)"/>
</g>
<g id="Shape_5" filter="url(#filter11_d)">
<path fill-rule="evenodd" clip-rule="evenodd" d="M288.967 697.138C288.941 696 288.13 695.019 286.997 694.863C281.716 694.134 276.507 692.865 271.401 690.985C266.32 689.115 260.697 686.503 254.633 683.063C253.863 682.626 253.139 682.623 252.369 683.063C246.347 686.501 240.765 689.107 235.643 690.985C230.536 692.858 225.33 694.135 220.091 694.863C218.957 695.02 218.162 696 218.036 697.138C217.534 718.757 222.244 736.445 232.122 750.195C237.503 757.685 244.237 763.764 252.369 768.399C252.998 768.863 253.984 768.828 254.717 768.399C262.787 763.687 269.513 757.651 274.881 750.195C284.772 736.454 289.444 718.757 288.967 697.138ZM271.108 747.54C266.441 754.02 260.586 759.423 253.502 763.764C246.417 759.423 240.534 754.04 235.895 747.54C226.909 734.949 222.522 718.841 222.689 699.203C227.636 698.403 232.541 697.054 237.446 695.242C242.35 693.43 247.716 690.943 253.502 687.783C259.287 690.943 264.611 693.43 269.515 695.242C274.42 697.054 279.366 698.403 284.314 699.203C284.481 718.968 280.066 735.098 271.108 747.54Z" fill="url(#paint22_linear)"/>
</g>
<g id="Group 7_2">
<path id="Oval_2" opacity="0.3" fill-rule="evenodd" clip-rule="evenodd" d="M254 737.734C262.837 737.734 270 730.347 270 721.234C270 712.122 262.837 704.734 254 704.734C245.163 704.734 238 712.122 238 721.234C238 730.347 245.163 737.734 254 737.734Z" fill="url(#paint23_linear)"/>
<g id="key_2">
<g id="Shape_6" filter="url(#filter12_d)">
<path fill-rule="evenodd" clip-rule="evenodd" d="M258.973 716.84C257.543 715.366 255.217 715.366 253.787 716.84C252.81 717.847 252.471 719.331 252.894 720.678L248.765 724.936C248.702 725.001 248.667 725.088 248.667 725.179V727.124C248.667 727.314 248.816 727.468 249 727.468H250.886C250.975 727.468 251.059 727.431 251.122 727.367L251.593 726.881C251.665 726.806 251.7 726.702 251.688 726.598L251.63 726.076L252.332 726.007C252.491 725.992 252.617 725.862 252.632 725.698L252.698 724.974L253.205 725.035C253.299 725.048 253.394 725.015 253.465 724.95C253.536 724.885 253.576 724.791 253.576 724.693V724.053H254.186C254.274 724.053 254.359 724.017 254.422 723.952L255.276 723.083C256.582 723.519 257.996 723.195 258.973 722.188C260.402 720.713 260.402 718.315 258.973 716.84ZM258.029 719.271C257.64 719.673 257.005 719.673 256.615 719.271C256.225 718.869 256.225 718.215 256.615 717.813C257.005 717.41 257.64 717.41 258.029 717.813C258.419 718.215 258.419 718.869 258.029 719.271Z" fill="#18DAA2"/>
</g>
</g>
</g>
</g>
<g id="Group 12 Copy 2">
<g id="Rectangle_9" opacity="0.298758">
<rect x="218" y="803.734" width="80" height="15" fill="#18DAA2"/>
<rect x="218" y="803.734" width="80" height="15" fill="url(#paint24_linear)"/>
</g>
<path id="3rd key" fill-rule="evenodd" clip-rule="evenodd" d="M236.868 799.134V800.934L233.916 804.228C235.59 804.228 237.354 805.326 237.354 807.936C237.354 810.276 235.59 811.968 233.214 811.968C230.604 811.968 229.506 810.33 229.164 809.034L230.874 808.476C231.162 809.376 231.864 810.132 233.178 810.132C234.42 810.132 235.32 809.25 235.32 807.99C235.32 806.73 234.546 805.92 233.052 805.92H231.63V804.354L234.618 800.898H229.614V799.134H236.868ZM243.669 802.104V804.084C241.617 804.084 241.023 805.65 241.023 807.684V811.734H239.061V802.338H240.987V803.814C241.347 802.878 242.337 802.104 243.669 802.104ZM253.891 798.72V811.734H252.037V810.51C251.785 810.834 250.831 811.968 249.013 811.968C246.331 811.968 244.423 809.934 244.423 807.054C244.423 804.156 246.205 802.104 248.887 802.104C250.669 802.104 251.677 803.184 251.929 803.598V798.72H253.891ZM252.001 807.072C252.001 805.02 250.759 803.85 249.193 803.85C247.555 803.85 246.403 805.182 246.403 807.072C246.403 808.998 247.609 810.24 249.211 810.24C250.939 810.24 252.001 808.8 252.001 807.072ZM260.348 811.734V798.72H262.31V806.352L265.784 802.338H268.016L264.254 806.586L268.268 811.734H265.946L262.31 806.802V811.734H260.348ZM268.751 807.072C268.751 804.156 270.749 802.104 273.323 802.104C276.167 802.104 277.841 804.066 277.841 807.018C277.841 807.18 277.841 807.342 277.823 807.504H270.749C270.785 809.178 271.991 810.258 273.665 810.258C275.087 810.258 275.897 809.466 276.257 808.944L277.553 809.916C277.103 810.69 275.861 811.968 273.629 811.968C270.695 811.968 268.751 809.916 268.751 807.072ZM270.821 806.154H275.843C275.771 804.606 274.691 803.742 273.341 803.742C271.991 803.742 270.947 804.678 270.821 806.154ZM282.591 814.956H280.701L282.033 811.572L278.307 802.338H280.413L282.951 809.178L285.453 802.338H287.505L282.591 814.956Z" fill="white"/>
</g>
</g>
<g id="Group 14">
<g id="Group 9_2">
<g id="Rectangle Copy 2_2" opacity="0.298758">
<rect x="30" y="59.7344" width="87" height="86" rx="9" fill="#3774E8"/>
<rect x="30" y="59.7344" width="87" height="86" rx="9" fill="url(#paint25_linear)"/>
</g>
<g id="Rectangle_10" opacity="0.298758">
<rect x="23" y="52.7344" width="87" height="86" rx="9" fill="#3774E8"/>
<rect x="23" y="52.7344" width="87" height="86" rx="9" fill="url(#paint26_linear)"/>
</g>
<g id="web-2_2">
<g id="Shape_7" filter="url(#filter13_d)">
<path fill-rule="evenodd" clip-rule="evenodd" d="M22.2502 44.7344H94.75C98.7521 44.7391 101.995 47.9449 102 51.9011V123.568C101.995 127.524 98.7521 130.73 94.75 130.734H22.25C18.2481 130.73 15.0049 127.524 15 123.568V51.9011C15.0049 47.9449 18.2481 44.7391 22.2502 44.7344ZM17.9002 123.568C17.9002 125.942 19.8477 127.868 22.2502 127.868H94.75C97.1523 127.868 99.0999 125.943 99.0999 123.568V59.0677H17.9001V123.568H17.9002ZM17.9002 56.2011H99.0999V51.9011C99.0999 49.5264 97.1523 47.6011 94.75 47.6011H22.25C19.8477 47.6011 17.9001 49.5264 17.9001 51.9011V56.2011H17.9002Z" fill="url(#paint27_linear)"/>
</g>
<g id="Path_6" filter="url(#filter14_d)">
<path fill-rule="evenodd" clip-rule="evenodd" d="M91.5 50.7168H93C93.8285 50.7168 94.5 51.3863 94.5 52.2124C94.5 53.0384 93.8285 53.7081 93 53.7081H91.5C90.6715 53.7081 90 53.0386 90 52.2125C90 51.3865 90.6715 50.7168 91.5 50.7168Z" fill="url(#paint28_linear)"/>
</g>
<g id="Path_7" filter="url(#filter15_d)">
<path fill-rule="evenodd" clip-rule="evenodd" d="M85.68 50.8401C86.0421 50.6757 86.458 50.6757 86.82 50.8401C87.0017 50.9159 87.1691 51.022 87.3149 51.1538C87.895 51.7428 87.895 52.6859 87.3149 53.2749C87.1691 53.4067 87.0017 53.5128 86.82 53.5886C86.4568 53.7479 86.0432 53.7479 85.68 53.5886C85.4983 53.5128 85.3309 53.4067 85.1851 53.2749C84.605 52.6859 84.605 51.7428 85.1851 51.1538C85.3309 51.022 85.4983 50.9159 85.68 50.8401Z" fill="url(#paint29_linear)"/>
</g>
<g id="Path_8" filter="url(#filter16_d)">
<path fill-rule="evenodd" clip-rule="evenodd" d="M79.675 50.8308C80.2378 50.5986 80.886 50.7277 81.315 51.158C81.4473 51.303 81.5538 51.4694 81.6299 51.6501C81.79 52.0112 81.79 52.4224 81.6299 52.7834C81.5538 52.9641 81.4473 53.1305 81.315 53.2756C80.7236 53.8523 79.7768 53.8523 79.1854 53.2756C79.0531 53.1305 78.9466 52.9641 78.8705 52.7834C78.7865 52.6064 78.7453 52.4124 78.7504 52.2167C78.7467 51.611 79.1123 51.0631 79.675 50.8308Z" fill="url(#paint30_linear)"/>
</g>
<g id="Path_9" filter="url(#filter17_d)">
<path fill-rule="evenodd" clip-rule="evenodd" d="M23.9375 50.7168H72.8126C73.6065 50.7168 74.25 51.3864 74.25 52.2124C74.25 53.0385 73.6065 53.7081 72.8126 53.7081H23.9375C23.1435 53.7081 22.5 53.0385 22.5 52.2124C22.5 51.3864 23.1435 50.7168 23.9375 50.7168Z" fill="url(#paint31_linear)"/>
</g>
</g>
<g id="Group 7_3">
<path id="Oval_3" opacity="0.3" fill-rule="evenodd" clip-rule="evenodd" d="M59 109.734C68.3888 109.734 76 102.123 76 92.7344C76 83.3455 68.3888 75.7344 59 75.7344C49.6112 75.7344 42 83.3455 42 92.7344C42 102.123 49.6112 109.734 59 109.734Z" fill="url(#paint32_linear)"/>
<g id="key_3">
<path id="Shape_8" fill-rule="evenodd" clip-rule="evenodd" d="M64.2831 88.2071C62.7641 86.6881 60.2925 86.6881 58.7735 88.2072C57.7359 89.2448 57.3755 90.7738 57.8247 92.1611L53.4373 96.5486C53.3708 96.615 53.3335 96.7049 53.3335 96.799V98.8026C53.3335 98.9984 53.4919 99.1568 53.6877 99.1568H55.6913C55.7853 99.1568 55.8753 99.1194 55.9417 99.053L56.4425 98.5518C56.5189 98.4754 56.5563 98.3682 56.5438 98.2606L56.4815 97.7224L57.2272 97.6522C57.3967 97.6363 57.5306 97.5024 57.5465 97.333L57.6167 96.5873L58.1549 96.6499C58.2548 96.6634 58.3555 96.6298 58.4312 96.5627C58.5066 96.4953 58.5498 96.3991 58.5498 96.2981V95.6387H59.1973C59.2914 95.6387 59.3813 95.6014 59.4477 95.5349L60.3559 94.6387C61.7429 95.0883 63.2455 94.7551 64.2831 93.7168C65.8021 92.1978 65.8021 89.7262 64.2831 88.2071ZM63.2812 90.7116C62.8668 91.1259 62.1931 91.1259 61.7787 90.7116C61.3644 90.2972 61.3644 89.6235 61.7787 89.2091C62.1931 88.7948 62.8668 88.7948 63.2812 89.2091C63.6955 89.6235 63.6955 90.2972 63.2812 90.7116Z" fill="url(#paint33_linear)"/>
</g>
</g>
</g>
<g id="Group 12 Copy 5_2">
<g id="Rectangle_11" opacity="0.298758">
<rect x="15" y="16.7344" width="95" height="15" fill="#18DAA2"/>
<rect x="15" y="16.7344" width="95" height="15" fill="url(#paint34_linear)"/>
</g>
<path id="Web app" fill-rule="evenodd" clip-rule="evenodd" d="M36.6741 24.7342L33.9561 15.1222L31.2381 24.7342H28.9881L25.4961 12.1342H27.6381L30.2121 22.2502L33.0021 12.1342H34.8921L37.7001 22.2502L40.2741 12.1342H42.3981L38.9241 24.7342H36.6741ZM42.7375 20.0722C42.7375 17.1562 44.7355 15.1042 47.3095 15.1042C50.1535 15.1042 51.8275 17.0662 51.8275 20.0182C51.8275 20.1802 51.8275 20.3422 51.8095 20.5042H44.7355C44.7715 22.1782 45.9775 23.2582 47.6515 23.2582C49.0735 23.2582 49.8835 22.4662 50.2435 21.9442L51.5395 22.9162C51.0895 23.6902 49.8475 24.9682 47.6155 24.9682C44.6815 24.9682 42.7375 22.9162 42.7375 20.0722ZM44.8075 19.1542H49.8295C49.7575 17.6062 48.6775 16.7422 47.3275 16.7422C45.9775 16.7422 44.9335 17.6782 44.8075 19.1542ZM53.283 24.7342V11.7202H55.245V16.5982C55.497 16.1842 56.505 15.1042 58.287 15.1042C60.969 15.1042 62.751 17.1562 62.751 20.0542C62.751 22.9342 60.843 24.9682 58.1609 24.9682C56.343 24.9682 55.389 23.8342 55.137 23.5102V24.7342H53.283ZM55.173 20.0722C55.173 21.8002 56.235 23.2402 57.963 23.2402C59.5649 23.2402 60.771 21.9982 60.771 20.0722C60.771 18.1822 59.6189 16.8502 57.9809 16.8502C56.415 16.8502 55.173 18.0202 55.173 20.0722ZM68.0558 21.8362C68.0558 20.0182 69.5318 18.7402 71.6918 18.7402C72.7718 18.7402 73.5818 19.1002 73.9418 19.4242V18.5422C73.9418 17.4622 73.1858 16.8142 71.9438 16.8142C70.8998 16.8142 69.9998 17.1742 69.3158 17.5522L68.5598 16.1842C69.3158 15.6982 70.5758 15.1042 72.1418 15.1042C74.9318 15.1042 75.8858 16.6162 75.8858 18.6682V24.7342H74.1758L74.0138 24.0322C73.5278 24.5722 72.7718 24.9682 71.6018 24.9682C69.6218 24.9682 68.0558 23.7262 68.0558 21.8362ZM70.0178 21.7822C70.0178 22.7182 70.8278 23.4022 72.0158 23.4022C73.1678 23.4022 73.9958 22.7542 73.9958 21.7822C73.9958 20.7922 73.1858 20.1622 71.9978 20.1622C70.8098 20.1622 70.0178 20.8462 70.0178 21.7822ZM77.8272 28.1002V15.3382H79.6812V16.5802C79.9332 16.2382 80.8872 15.1042 82.7052 15.1042C85.3872 15.1042 87.2952 17.1562 87.2952 20.0182C87.2952 22.9342 85.5132 24.9682 82.8312 24.9682C81.0492 24.9682 80.0412 23.8882 79.7892 23.4922V28.1002H77.8272ZM79.7172 20.0182C79.7172 22.0522 80.9592 23.2222 82.5252 23.2222C84.1632 23.2222 85.3152 21.9082 85.3152 20.0182C85.3152 18.0922 84.1092 16.8502 82.5072 16.8502C80.7792 16.8502 79.7172 18.2902 79.7172 20.0182ZM88.8047 28.1002V15.3382H90.6587V16.5802C90.9107 16.2382 91.8647 15.1042 93.6827 15.1042C96.3647 15.1042 98.2727 17.1562 98.2727 20.0182C98.2727 22.9342 96.4907 24.9682 93.8087 24.9682C92.0267 24.9682 91.0187 23.8882 90.7667 23.4922V28.1002H88.8047ZM90.6947 20.0182C90.6947 22.0522 91.9367 23.2222 93.5027 23.2222C95.1407 23.2222 96.2927 21.9082 96.2927 20.0182C96.2927 18.0922 95.0867 16.8502 93.4847 16.8502C91.7567 16.8502 90.6947 18.2902 90.6947 20.0182Z" fill="white"/>
</g>
</g>
<g id="Group 3">
<g id="Group 9 Copy">
<g id="Rectangle_12" opacity="0.298758">
<rect x="213" y="62.7344" width="92" height="83" rx="9" fill="#3774E8"/>
<rect x="213" y="62.7344" width="92" height="83" rx="9" fill="url(#paint35_linear)"/>
</g>
<g id="Rectangle_13" opacity="0.298758">
<rect x="205" y="53.7344" width="92" height="83" rx="9" fill="#3774E8"/>
<rect x="205" y="53.7344" width="92" height="83" rx="9" fill="url(#paint36_linear)"/>
</g>
<g id="database">
<g id="server">
<g id="Shape_9" filter="url(#filter18_d)">
<path fill-rule="evenodd" clip-rule="evenodd" d="M280.836 70.3694C284.755 70.3694 287.944 67.1928 287.944 63.2884V51.8154C287.944 47.911 284.755 44.7344 280.836 44.7344H203.107C199.188 44.7344 196 47.911 196 51.8154V63.2884C196 67.1928 199.188 70.3694 203.107 70.3694H240.622V73.4169H203.107C199.188 73.4169 196 76.5935 196 80.4979V91.9709C196 95.8753 199.188 99.0519 203.107 99.0519H240.622V102.099H203.107C199.188 102.099 196 105.276 196 109.18V120.653C196 124.558 199.188 127.734 203.107 127.734H280.836C284.755 127.734 287.944 124.558 287.944 120.653V109.18C287.944 105.276 284.755 102.099 280.836 102.099H243.321V99.0519H280.836C284.755 99.0519 287.944 95.8753 287.944 91.9709V80.4979C287.944 76.5935 284.755 73.4169 280.836 73.4169H243.321V70.3694H280.836ZM285.245 109.18V120.653C285.245 123.075 283.267 125.045 280.836 125.045H203.107C200.677 125.045 198.699 123.075 198.699 120.653V109.18C198.699 106.759 200.677 104.788 203.107 104.788H280.836C283.267 104.788 285.245 106.759 285.245 109.18ZM285.245 80.4979V91.9709C285.245 94.3928 283.267 96.3629 280.836 96.3629H203.107C200.677 96.3629 198.699 94.3928 198.699 91.9709V80.4979C198.699 78.076 200.677 76.1059 203.107 76.1059H280.836C283.267 76.1059 285.245 78.076 285.245 80.4979ZM198.699 63.2884V51.8154C198.699 49.3935 200.677 47.4234 203.107 47.4234H280.836C283.267 47.4234 285.245 49.3935 285.245 51.8154V63.2884C285.245 65.7103 283.267 67.6804 280.836 67.6804H203.107C200.677 67.6804 198.699 65.7103 198.699 63.2884Z" fill="url(#paint37_linear)"/>
</g>
<g id="Shape_10" filter="url(#filter19_d)">
<path fill-rule="evenodd" clip-rule="evenodd" d="M208.865 51.9048C205.74 51.9048 203.197 54.438 203.197 57.5517C203.197 60.6653 205.74 63.1985 208.865 63.1985C211.99 63.1985 214.533 60.6653 214.533 57.5517C214.533 54.438 211.99 51.9048 208.865 51.9048ZM208.865 60.5095C207.228 60.5095 205.896 59.1826 205.896 57.5517C205.896 55.9207 207.228 54.5938 208.865 54.5938C210.502 54.5938 211.834 55.9207 211.834 57.5517C211.834 59.1826 210.502 60.5095 208.865 60.5095Z" fill="url(#paint38_linear)"/>
</g>
<g id="Shape_11" filter="url(#filter20_d)">
<path fill-rule="evenodd" clip-rule="evenodd" d="M208.865 80.5874C205.74 80.5874 203.197 83.1206 203.197 86.2343C203.197 89.3479 205.74 91.8811 208.865 91.8811C211.99 91.8811 214.533 89.3479 214.533 86.2343C214.533 83.1206 211.99 80.5874 208.865 80.5874ZM208.865 89.1922C207.228 89.1922 205.896 87.8652 205.896 86.2343C205.896 84.6033 207.228 83.2764 208.865 83.2764C210.502 83.2764 211.834 84.6033 211.834 86.2343C211.834 87.8652 210.502 89.1922 208.865 89.1922Z" fill="url(#paint39_linear)"/>
</g>
<g id="Path_10" filter="url(#filter21_d)">
<path fill-rule="evenodd" clip-rule="evenodd" d="M277.957 87.7583H230.456C229.711 87.7583 229.106 88.3601 229.106 89.1028C229.106 89.8455 229.711 90.4473 230.456 90.4473H277.957C278.702 90.4473 279.307 89.8455 279.307 89.1028C279.307 88.3601 278.702 87.7583 277.957 87.7583Z" fill="url(#paint40_linear)"/>
</g>
<g id="Path_11" filter="url(#filter22_d)">
<path fill-rule="evenodd" clip-rule="evenodd" d="M229.106 83.366C229.106 84.1087 229.711 84.7105 230.456 84.7105H277.957C278.702 84.7105 279.307 84.1087 279.307 83.366C279.307 82.6233 278.702 82.0215 277.957 82.0215H230.456C229.711 82.0215 229.106 82.6233 229.106 83.366Z" fill="url(#paint41_linear)"/>
</g>
<g id="Path_12" filter="url(#filter23_d)">
<path fill-rule="evenodd" clip-rule="evenodd" d="M279.307 60.4202C279.307 59.6775 278.702 59.0757 277.957 59.0757H230.456C229.711 59.0757 229.106 59.6775 229.106 60.4202C229.106 61.1629 229.711 61.7647 230.456 61.7647H277.957C278.702 61.7647 279.307 61.1629 279.307 60.4202Z" fill="url(#paint42_linear)"/>
</g>
<g id="Path_13" filter="url(#filter24_d)">
<path fill-rule="evenodd" clip-rule="evenodd" d="M230.456 56.0283H277.957C278.702 56.0283 279.307 55.4265 279.307 54.6838C279.307 53.9412 278.702 53.3394 277.957 53.3394H230.456C229.711 53.3394 229.106 53.9412 229.106 54.6838C229.106 55.4265 229.711 56.0283 230.456 56.0283Z" fill="url(#paint43_linear)"/>
</g>
<g id="Shape_12" filter="url(#filter25_d)">
<path fill-rule="evenodd" clip-rule="evenodd" d="M208.865 109.27C205.74 109.27 203.197 111.803 203.197 114.917C203.197 118.031 205.74 120.564 208.865 120.564C211.99 120.564 214.533 118.031 214.533 114.917C214.533 111.803 211.99 109.27 208.865 109.27ZM208.865 117.875C207.228 117.875 205.896 116.548 205.896 114.917C205.896 113.286 207.228 111.959 208.865 111.959C210.502 111.959 211.834 113.286 211.834 114.917C211.834 116.548 210.502 117.875 208.865 117.875Z" fill="url(#paint44_linear)"/>
</g>
<g id="Path_14" filter="url(#filter26_d)">
<path fill-rule="evenodd" clip-rule="evenodd" d="M277.957 116.44H230.456C229.711 116.44 229.106 117.042 229.106 117.785C229.106 118.528 229.711 119.129 230.456 119.129H277.957C278.702 119.129 279.307 118.528 279.307 117.785C279.307 117.042 278.702 116.44 277.957 116.44Z" fill="url(#paint45_linear)"/>
</g>
<g id="Path_15" filter="url(#filter27_d)">
<path fill-rule="evenodd" clip-rule="evenodd" d="M229.106 112.049C229.106 112.791 229.711 113.393 230.456 113.393H277.957C278.702 113.393 279.307 112.791 279.307 112.049C279.307 111.306 278.702 110.704 277.957 110.704H230.456C229.711 110.704 229.106 111.306 229.106 112.049Z" fill="url(#paint46_linear)"/>
</g>
</g>
</g>
</g>
<g id="Group 12 Copy">
<g id="Rectangle_14" opacity="0.298758">
<rect x="204" y="16.7344" width="80" height="15" fill="#18DAA2"/>
<rect x="204" y="16.7344" width="80" height="15" fill="url(#paint47_linear)"/>
</g>
<path id="Relayer" fill-rule="evenodd" clip-rule="evenodd" d="M216.064 24.7342V12.1342H219.448C222.148 12.1342 223.66 13.7362 223.66 15.8422C223.66 17.3002 222.886 18.5602 221.608 19.0822L224.668 24.7342H222.454L219.808 19.5322H218.062V24.7342H216.064ZM218.062 17.8222H219.412C220.672 17.8222 221.59 17.1202 221.59 15.8422C221.59 14.6722 220.87 13.8802 219.412 13.8802H218.062V17.8222ZM225.35 20.0722C225.35 17.1562 227.348 15.1042 229.922 15.1042C232.766 15.1042 234.44 17.0662 234.44 20.0182C234.44 20.1802 234.44 20.3422 234.422 20.5042H227.348C227.384 22.1782 228.59 23.2582 230.264 23.2582C231.686 23.2582 232.496 22.4662 232.856 21.9442L234.152 22.9162C233.702 23.6902 232.46 24.9682 230.228 24.9682C227.294 24.9682 225.35 22.9162 225.35 20.0722ZM227.42 19.1542H232.442C232.37 17.6062 231.29 16.7422 229.94 16.7422C228.59 16.7422 227.546 17.6782 227.42 19.1542ZM235.895 24.7342V11.7202H237.857V24.7342H235.895ZM239.349 21.8362C239.349 20.0182 240.825 18.7402 242.985 18.7402C244.065 18.7402 244.875 19.1002 245.235 19.4242V18.5422C245.235 17.4622 244.479 16.8142 243.237 16.8142C242.193 16.8142 241.293 17.1742 240.609 17.5522L239.853 16.1842C240.609 15.6982 241.869 15.1042 243.435 15.1042C246.225 15.1042 247.179 16.6162 247.179 18.6682V24.7342H245.469L245.307 24.0322C244.821 24.5722 244.065 24.9682 242.895 24.9682C240.915 24.9682 239.349 23.7262 239.349 21.8362ZM241.311 21.7822C241.311 22.7182 242.121 23.4022 243.309 23.4022C244.461 23.4022 245.289 22.7542 245.289 21.7822C245.289 20.7922 244.479 20.1622 243.291 20.1622C242.103 20.1622 241.311 20.8462 241.311 21.7822ZM252.414 27.9562H250.524L251.856 24.5722L248.13 15.3382H250.236L252.774 22.1782L255.276 15.3382H257.328L252.414 27.9562ZM257.866 20.0722C257.866 17.1562 259.864 15.1042 262.438 15.1042C265.282 15.1042 266.956 17.0662 266.956 20.0182C266.956 20.1802 266.956 20.3422 266.938 20.5042H259.864C259.9 22.1782 261.106 23.2582 262.78 23.2582C264.202 23.2582 265.012 22.4662 265.372 21.9442L266.668 22.9162C266.218 23.6902 264.976 24.9682 262.744 24.9682C259.81 24.9682 257.866 22.9162 257.866 20.0722ZM259.936 19.1542H264.958C264.886 17.6062 263.806 16.7422 262.456 16.7422C261.106 16.7422 260.062 17.6782 259.936 19.1542ZM273.019 15.1042V17.0842C270.967 17.0842 270.373 18.6502 270.373 20.6842V24.7342H268.411V15.3382H270.337V16.8142C270.697 15.8782 271.687 15.1042 273.019 15.1042Z" fill="white"/>
</g>
</g>
<g id="Group 13">
<g id="Group 8">
<g id="Group 5">
<g id="Rectangle Copy" opacity="0.3">
<rect x="144.7" y="268.92" width="53.6" height="92.3964" rx="7.2" fill="#3774E8"/>
<rect x="144.7" y="268.92" width="53.6" height="92.3964" rx="7.2" fill="url(#paint48_linear)"/>
</g>
<g id="Rectangle_15" opacity="0.3">
<rect x="136.7" y="260.886" width="53.6" height="92.3964" rx="7.2" fill="#3774E8"/>
<rect x="136.7" y="260.886" width="53.6" height="92.3964" rx="7.2" fill="url(#paint49_linear)"/>
</g>
</g>
<g id="smartphone-with-wireless-internet">
<g id="Shape_13" filter="url(#filter28_d)">
<path fill-rule="evenodd" clip-rule="evenodd" d="M182.3 259.092V339.007C182.3 342.441 179.501 345.247 176.068 345.247H134.932C131.505 345.25 128.7 342.444 128.7 339.009V259.092C128.7 255.66 131.505 252.851 134.932 252.851H176.066C179.493 252.851 182.3 255.657 182.3 259.092ZM148.165 258.105C148.165 258.522 148.503 258.86 148.919 258.86H162.079C162.495 258.86 162.833 258.522 162.833 258.105C162.833 257.688 162.495 257.347 162.079 257.347H148.919C148.505 257.35 148.165 257.688 148.165 258.105ZM158.615 339.009C158.615 337.285 157.22 335.889 155.499 335.889C153.777 335.889 152.383 337.283 152.383 339.009C152.383 340.736 153.777 342.132 155.499 342.132C157.22 342.132 158.615 340.733 158.615 339.009ZM177.964 262.748H133.039V333.7H177.964V262.748Z" fill="url(#paint50_linear)"/>
</g>
</g>
<g id="Group 7_4">
<path id="Oval_4" opacity="0.3" fill-rule="evenodd" clip-rule="evenodd" d="M154.7 317.127C164.641 317.127 172.7 309.033 172.7 299.049C172.7 289.065 164.641 280.972 154.7 280.972C144.759 280.972 136.7 289.065 136.7 299.049C136.7 309.033 144.759 317.127 154.7 317.127Z" fill="url(#paint51_linear)"/>
<g id="key_4">
<path id="Shape_14" fill-rule="evenodd" clip-rule="evenodd" d="M160.294 294.235C158.685 292.62 156.069 292.62 154.46 294.235C153.362 295.338 152.98 296.964 153.456 298.44L148.81 303.105C148.74 303.176 148.7 303.271 148.7 303.371V305.502C148.7 305.71 148.868 305.879 149.075 305.879H151.197C151.296 305.879 151.391 305.839 151.462 305.768L151.992 305.235C152.073 305.154 152.113 305.04 152.099 304.926L152.033 304.353L152.823 304.279C153.002 304.262 153.144 304.119 153.161 303.939L153.235 303.146L153.805 303.213C153.911 303.227 154.018 303.191 154.098 303.12C154.178 303.048 154.223 302.946 154.223 302.839V302.138H154.909C155.009 302.138 155.104 302.098 155.174 302.027L156.136 301.074C157.604 301.552 159.195 301.198 160.294 300.094C161.902 298.478 161.902 295.85 160.294 294.235ZM159.233 296.898C158.794 297.339 158.081 297.339 157.642 296.898C157.203 296.457 157.203 295.741 157.642 295.3C158.081 294.86 158.794 294.86 159.233 295.3C159.672 295.741 159.672 296.457 159.233 296.898Z" fill="url(#paint52_linear)"/>
</g>
</g>
</g>
<g id="Group 12 Copy 4">
<g id="Rectangle_16" opacity="0.298758">
<rect x="116" y="224.043" width="80" height="15.0646" fill="#18DAA2"/>
<rect x="116" y="224.043" width="80" height="15.0646" fill="url(#paint53_linear)"/>
</g>
<path id="1st key" d="M131.374 221.952L132.76 221.43V232.05H134.74V219.45H133.12L130.834 220.296L131.374 221.952ZM136.451 230.412C136.919 231.258 137.927 232.284 139.835 232.284C141.761 232.284 143.237 231.15 143.237 229.404C143.237 226.092 138.647 226.848 138.647 225.048C138.647 224.4 139.187 224.022 139.907 224.022C140.951 224.022 141.455 224.634 141.725 225.066L143.075 224.166C142.715 223.446 141.779 222.42 140.015 222.42C138.197 222.42 136.793 223.428 136.793 225.084C136.793 228.342 141.365 227.694 141.365 229.494C141.365 230.25 140.753 230.664 139.925 230.664C138.755 230.664 138.107 230.07 137.675 229.44L136.451 230.412ZM144.814 222.654H143.77V224.274H144.814V228.342C144.814 230.646 145.498 232.176 147.784 232.176C148.396 232.176 148.738 232.104 148.738 232.104V230.412C148.738 230.412 148.522 230.43 148.36 230.43C147.316 230.43 146.758 230.106 146.758 228.648V224.274H148.666V222.654H146.758V220.692H144.814V222.654ZM154.573 232.05H156.535V227.118L160.171 232.05H162.493L158.479 226.902L162.241 222.654H160.009L156.535 226.668V219.036H154.573V232.05ZM162.974 227.388C162.974 230.232 164.918 232.284 167.852 232.284C170.084 232.284 171.326 231.006 171.776 230.232L170.48 229.26C170.12 229.782 169.31 230.574 167.888 230.574C166.214 230.574 165.008 229.494 164.972 227.82H172.046C172.064 227.658 172.064 227.496 172.064 227.334C172.064 224.382 170.39 222.42 167.546 222.42C164.972 222.42 162.974 224.472 162.974 227.388ZM165.044 226.47C165.17 224.994 166.214 224.058 167.564 224.058C168.914 224.058 169.994 224.922 170.066 226.47H165.044ZM176.805 235.272L181.719 222.654H179.667L177.165 229.494L174.627 222.654H172.521L176.247 231.888L174.915 235.272H176.805Z" fill="white"/>
</g>
</g>
</g>
<defs>
<filter id="filter0_d" x="2" y="435.734" width="296" height="215" filterUnits="userSpaceOnUse" color-interpolation-filters="sRGB">
<feFlood flood-opacity="0" result="BackgroundImageFix"/>
<feColorMatrix in="SourceAlpha" type="matrix" values="0 0 0 0 0 0 0 0 0 0 0 0 0 0 0 0 0 0 127 0"/>
<feOffset dy="6"/>
<feGaussianBlur stdDeviation="25"/>
<feColorMatrix type="matrix" values="0 0 0 0 0.121569 0 0 0 0 0.360784 0 0 0 0 0.898039 0 0 0 1 0"/>
<feBlend mode="normal" in2="BackgroundImageFix" result="effect1_dropShadow"/>
<feBlend mode="normal" in="SourceGraphic" in2="effect1_dropShadow" result="shape"/>
</filter>
<filter id="filter1_d" x="182" y="443.734" width="106" height="104" filterUnits="userSpaceOnUse" color-interpolation-filters="sRGB">
<feFlood flood-opacity="0" result="BackgroundImageFix"/>
<feColorMatrix in="SourceAlpha" type="matrix" values="0 0 0 0 0 0 0 0 0 0 0 0 0 0 0 0 0 0 127 0"/>
<feOffset dy="6"/>
<feGaussianBlur stdDeviation="25"/>
<feColorMatrix type="matrix" values="0 0 0 0 0.121569 0 0 0 0 0.360784 0 0 0 0 0.898039 0 0 0 1 0"/>
<feBlend mode="normal" in2="BackgroundImageFix" result="effect1_dropShadow"/>
<feBlend mode="normal" in="SourceGraphic" in2="effect1_dropShadow" result="shape"/>
</filter>
<filter id="filter2_d" x="175" y="443.734" width="104" height="104" filterUnits="userSpaceOnUse" color-interpolation-filters="sRGB">
<feFlood flood-opacity="0" result="BackgroundImageFix"/>
<feColorMatrix in="SourceAlpha" type="matrix" values="0 0 0 0 0 0 0 0 0 0 0 0 0 0 0 0 0 0 127 0"/>
<feOffset dy="6"/>
<feGaussianBlur stdDeviation="25"/>
<feColorMatrix type="matrix" values="0 0 0 0 0.121569 0 0 0 0 0.360784 0 0 0 0 0.898039 0 0 0 1 0"/>
<feBlend mode="normal" in2="BackgroundImageFix" result="effect1_dropShadow"/>
<feBlend mode="normal" in="SourceGraphic" in2="effect1_dropShadow" result="shape"/>
</filter>
<filter id="filter3_d" x="167" y="443.734" width="104" height="104" filterUnits="userSpaceOnUse" color-interpolation-filters="sRGB">
<feFlood flood-opacity="0" result="BackgroundImageFix"/>
<feColorMatrix in="SourceAlpha" type="matrix" values="0 0 0 0 0 0 0 0 0 0 0 0 0 0 0 0 0 0 127 0"/>
<feOffset dy="6"/>
<feGaussianBlur stdDeviation="25"/>
<feColorMatrix type="matrix" values="0 0 0 0 0.121569 0 0 0 0 0.360784 0 0 0 0 0.898039 0 0 0 1 0"/>
<feBlend mode="normal" in2="BackgroundImageFix" result="effect1_dropShadow"/>
<feBlend mode="normal" in="SourceGraphic" in2="effect1_dropShadow" result="shape"/>
</filter>
<filter id="filter4_d" x="12" y="443.734" width="169" height="104" filterUnits="userSpaceOnUse" color-interpolation-filters="sRGB">
<feFlood flood-opacity="0" result="BackgroundImageFix"/>
<feColorMatrix in="SourceAlpha" type="matrix" values="0 0 0 0 0 0 0 0 0 0 0 0 0 0 0 0 0 0 127 0"/>
<feOffset dy="6"/>
<feGaussianBlur stdDeviation="25"/>
<feColorMatrix type="matrix" values="0 0 0 0 0.121569 0 0 0 0 0.360784 0 0 0 0 0.898039 0 0 0 1 0"/>
<feBlend mode="normal" in2="BackgroundImageFix" result="effect1_dropShadow"/>
<feBlend mode="normal" in="SourceGraphic" in2="effect1_dropShadow" result="shape"/>
</filter>
<filter id="filter5_d" x="12" y="112.734" width="61.2207" height="445.059" filterUnits="userSpaceOnUse" color-interpolation-filters="sRGB">
<feFlood flood-opacity="0" result="BackgroundImageFix"/>
<feColorMatrix in="SourceAlpha" type="matrix" values="0 0 0 0 0 0 0 0 0 0 0 0 0 0 0 0 0 0 127 0"/>
<feOffset dy="1"/>
<feGaussianBlur stdDeviation="9"/>
<feColorMatrix type="matrix" values="0 0 0 0 0.364706 0 0 0 0 0.956863 0 0 0 0 0.827451 0 0 0 1 0"/>
<feBlend mode="normal" in2="BackgroundImageFix" result="effect1_dropShadow"/>
<feBlend mode="normal" in="SourceGraphic" in2="effect1_dropShadow" result="shape"/>
</filter>
<filter id="filter6_d" x="12" y="541.734" width="61.2207" height="179.766" filterUnits="userSpaceOnUse" color-interpolation-filters="sRGB">
<feFlood flood-opacity="0" result="BackgroundImageFix"/>
<feColorMatrix in="SourceAlpha" type="matrix" values="0 0 0 0 0 0 0 0 0 0 0 0 0 0 0 0 0 0 127 0"/>
<feOffset dy="1"/>
<feGaussianBlur stdDeviation="9"/>
<feColorMatrix type="matrix" values="0 0 0 0 0.364706 0 0 0 0 0.956863 0 0 0 0 0.827451 0 0 0 1 0"/>
<feBlend mode="normal" in2="BackgroundImageFix" result="effect1_dropShadow"/>
<feBlend mode="normal" in="SourceGraphic" in2="effect1_dropShadow" result="shape"/>
</filter>
<filter id="filter7_d" x="229" y="112.734" width="61.2207" height="445.059" filterUnits="userSpaceOnUse" color-interpolation-filters="sRGB">
<feFlood flood-opacity="0" result="BackgroundImageFix"/>
<feColorMatrix in="SourceAlpha" type="matrix" values="0 0 0 0 0 0 0 0 0 0 0 0 0 0 0 0 0 0 127 0"/>
<feOffset dy="1"/>
<feGaussianBlur stdDeviation="9"/>
<feColorMatrix type="matrix" values="0 0 0 0 0.364706 0 0 0 0 0.956863 0 0 0 0 0.827451 0 0 0 1 0"/>
<feBlend mode="normal" in2="BackgroundImageFix" result="effect1_dropShadow"/>
<feBlend mode="normal" in="SourceGraphic" in2="effect1_dropShadow" result="shape"/>
</filter>
<filter id="filter8_d" x="82" y="97.2344" width="133.411" height="38" filterUnits="userSpaceOnUse" color-interpolation-filters="sRGB">
<feFlood flood-opacity="0" result="BackgroundImageFix"/>
<feColorMatrix in="SourceAlpha" type="matrix" values="0 0 0 0 0 0 0 0 0 0 0 0 0 0 0 0 0 0 127 0"/>
<feOffset dy="1"/>
<feGaussianBlur stdDeviation="9"/>
<feColorMatrix type="matrix" values="0 0 0 0 0.364706 0 0 0 0 0.956863 0 0 0 0 0.827451 0 0 0 1 0"/>
<feBlend mode="normal" in2="BackgroundImageFix" result="effect1_dropShadow"/>
<feBlend mode="normal" in="SourceGraphic" in2="effect1_dropShadow" result="shape"/>
</filter>
<filter id="filter9_d" x="-35" y="656.734" width="191" height="156" filterUnits="userSpaceOnUse" color-interpolation-filters="sRGB">
<feFlood flood-opacity="0" result="BackgroundImageFix"/>
<feColorMatrix in="SourceAlpha" type="matrix" values="0 0 0 0 0 0 0 0 0 0 0 0 0 0 0 0 0 0 127 0"/>
<feOffset dy="6"/>
<feGaussianBlur stdDeviation="25"/>
<feColorMatrix type="matrix" values="0 0 0 0 0.121569 0 0 0 0 0.360784 0 0 0 0 0.898039 0 0 0 1 0"/>
<feBlend mode="normal" in2="BackgroundImageFix" result="effect1_dropShadow"/>
<feBlend mode="normal" in="SourceGraphic" in2="effect1_dropShadow" result="shape"/>
</filter>
<filter id="filter10_d" x="70" y="795.734" width="164" height="166" filterUnits="userSpaceOnUse" color-interpolation-filters="sRGB">
<feFlood flood-opacity="0" result="BackgroundImageFix"/>
<feColorMatrix in="SourceAlpha" type="matrix" values="0 0 0 0 0 0 0 0 0 0 0 0 0 0 0 0 0 0 127 0"/>
<feOffset dy="6"/>
<feGaussianBlur stdDeviation="25"/>
<feColorMatrix type="matrix" values="0 0 0 0 0.121569 0 0 0 0 0.360784 0 0 0 0 0.898039 0 0 0 1 0"/>
<feBlend mode="normal" in2="BackgroundImageFix" result="effect1_dropShadow"/>
<feBlend mode="normal" in="SourceGraphic" in2="effect1_dropShadow" result="shape"/>
</filter>
<filter id="filter11_d" x="168" y="638.734" width="171" height="186" filterUnits="userSpaceOnUse" color-interpolation-filters="sRGB">
<feFlood flood-opacity="0" result="BackgroundImageFix"/>
<feColorMatrix in="SourceAlpha" type="matrix" values="0 0 0 0 0 0 0 0 0 0 0 0 0 0 0 0 0 0 127 0"/>
<feOffset dy="6"/>
<feGaussianBlur stdDeviation="25"/>
<feColorMatrix type="matrix" values="0 0 0 0 0.121569 0 0 0 0 0.360784 0 0 0 0 0.898039 0 0 0 1 0"/>
<feBlend mode="normal" in2="BackgroundImageFix" result="effect1_dropShadow"/>
<feBlend mode="normal" in="SourceGraphic" in2="effect1_dropShadow" result="shape"/>
</filter>
<filter id="filter12_d" x="198.667" y="671.734" width="111.378" height="111.733" filterUnits="userSpaceOnUse" color-interpolation-filters="sRGB">
<feFlood flood-opacity="0" result="BackgroundImageFix"/>
<feColorMatrix in="SourceAlpha" type="matrix" values="0 0 0 0 0 0 0 0 0 0 0 0 0 0 0 0 0 0 127 0"/>
<feOffset dy="6"/>
<feGaussianBlur stdDeviation="25"/>
<feColorMatrix type="matrix" values="0 0 0 0 0.0941176 0 0 0 0 0.854902 0 0 0 0 0.635294 0 0 0 1 0"/>
<feBlend mode="normal" in2="BackgroundImageFix" result="effect1_dropShadow"/>
<feBlend mode="normal" in="SourceGraphic" in2="effect1_dropShadow" result="shape"/>
</filter>
<filter id="filter13_d" x="-35" y="0.734375" width="187" height="186" filterUnits="userSpaceOnUse" color-interpolation-filters="sRGB">
<feFlood flood-opacity="0" result="BackgroundImageFix"/>
<feColorMatrix in="SourceAlpha" type="matrix" values="0 0 0 0 0 0 0 0 0 0 0 0 0 0 0 0 0 0 127 0"/>
<feOffset dy="6"/>
<feGaussianBlur stdDeviation="25"/>
<feColorMatrix type="matrix" values="0 0 0 0 0.121569 0 0 0 0 0.360784 0 0 0 0 0.898039 0 0 0 1 0"/>
<feBlend mode="normal" in2="BackgroundImageFix" result="effect1_dropShadow"/>
<feBlend mode="normal" in="SourceGraphic" in2="effect1_dropShadow" result="shape"/>
</filter>
<filter id="filter14_d" x="40" y="6.7168" width="104.5" height="102.991" filterUnits="userSpaceOnUse" color-interpolation-filters="sRGB">
<feFlood flood-opacity="0" result="BackgroundImageFix"/>
<feColorMatrix in="SourceAlpha" type="matrix" values="0 0 0 0 0 0 0 0 0 0 0 0 0 0 0 0 0 0 127 0"/>
<feOffset dy="6"/>
<feGaussianBlur stdDeviation="25"/>
<feColorMatrix type="matrix" values="0 0 0 0 0.121569 0 0 0 0 0.360784 0 0 0 0 0.898039 0 0 0 1 0"/>
<feBlend mode="normal" in2="BackgroundImageFix" result="effect1_dropShadow"/>
<feBlend mode="normal" in="SourceGraphic" in2="effect1_dropShadow" result="shape"/>
</filter>
<filter id="filter15_d" x="34.75" y="6.7168" width="103" height="102.991" filterUnits="userSpaceOnUse" color-interpolation-filters="sRGB">
<feFlood flood-opacity="0" result="BackgroundImageFix"/>
<feColorMatrix in="SourceAlpha" type="matrix" values="0 0 0 0 0 0 0 0 0 0 0 0 0 0 0 0 0 0 127 0"/>
<feOffset dy="6"/>
<feGaussianBlur stdDeviation="25"/>
<feColorMatrix type="matrix" values="0 0 0 0 0.121569 0 0 0 0 0.360784 0 0 0 0 0.898039 0 0 0 1 0"/>
<feBlend mode="normal" in2="BackgroundImageFix" result="effect1_dropShadow"/>
<feBlend mode="normal" in="SourceGraphic" in2="effect1_dropShadow" result="shape"/>
</filter>
<filter id="filter16_d" x="28.75" y="6.7168" width="103" height="102.991" filterUnits="userSpaceOnUse" color-interpolation-filters="sRGB">
<feFlood flood-opacity="0" result="BackgroundImageFix"/>
<feColorMatrix in="SourceAlpha" type="matrix" values="0 0 0 0 0 0 0 0 0 0 0 0 0 0 0 0 0 0 127 0"/>
<feOffset dy="6"/>
<feGaussianBlur stdDeviation="25"/>
<feColorMatrix type="matrix" values="0 0 0 0 0.121569 0 0 0 0 0.360784 0 0 0 0 0.898039 0 0 0 1 0"/>
<feBlend mode="normal" in2="BackgroundImageFix" result="effect1_dropShadow"/>
<feBlend mode="normal" in="SourceGraphic" in2="effect1_dropShadow" result="shape"/>
</filter>
<filter id="filter17_d" x="-27.5" y="6.7168" width="151.75" height="102.991" filterUnits="userSpaceOnUse" color-interpolation-filters="sRGB">
<feFlood flood-opacity="0" result="BackgroundImageFix"/>
<feColorMatrix in="SourceAlpha" type="matrix" values="0 0 0 0 0 0 0 0 0 0 0 0 0 0 0 0 0 0 127 0"/>
<feOffset dy="6"/>
<feGaussianBlur stdDeviation="25"/>
<feColorMatrix type="matrix" values="0 0 0 0 0.121569 0 0 0 0 0.360784 0 0 0 0 0.898039 0 0 0 1 0"/>
<feBlend mode="normal" in2="BackgroundImageFix" result="effect1_dropShadow"/>
<feBlend mode="normal" in="SourceGraphic" in2="effect1_dropShadow" result="shape"/>
</filter>
<filter id="filter18_d" x="146" y="0.734375" width="191.944" height="183" filterUnits="userSpaceOnUse" color-interpolation-filters="sRGB">
<feFlood flood-opacity="0" result="BackgroundImageFix"/>
<feColorMatrix in="SourceAlpha" type="matrix" values="0 0 0 0 0 0 0 0 0 0 0 0 0 0 0 0 0 0 127 0"/>
<feOffset dy="6"/>
<feGaussianBlur stdDeviation="25"/>
<feColorMatrix type="matrix" values="0 0 0 0 0.121569 0 0 0 0 0.360784 0 0 0 0 0.898039 0 0 0 1 0"/>
<feBlend mode="normal" in2="BackgroundImageFix" result="effect1_dropShadow"/>
<feBlend mode="normal" in="SourceGraphic" in2="effect1_dropShadow" result="shape"/>
</filter>
<filter id="filter19_d" x="153.197" y="7.90479" width="111.336" height="111.294" filterUnits="userSpaceOnUse" color-interpolation-filters="sRGB">
<feFlood flood-opacity="0" result="BackgroundImageFix"/>
<feColorMatrix in="SourceAlpha" type="matrix" values="0 0 0 0 0 0 0 0 0 0 0 0 0 0 0 0 0 0 127 0"/>
<feOffset dy="6"/>
<feGaussianBlur stdDeviation="25"/>
<feColorMatrix type="matrix" values="0 0 0 0 0.121569 0 0 0 0 0.360784 0 0 0 0 0.898039 0 0 0 1 0"/>
<feBlend mode="normal" in2="BackgroundImageFix" result="effect1_dropShadow"/>
<feBlend mode="normal" in="SourceGraphic" in2="effect1_dropShadow" result="shape"/>
</filter>
<filter id="filter20_d" x="153.197" y="36.5874" width="111.336" height="111.294" filterUnits="userSpaceOnUse" color-interpolation-filters="sRGB">
<feFlood flood-opacity="0" result="BackgroundImageFix"/>
<feColorMatrix in="SourceAlpha" type="matrix" values="0 0 0 0 0 0 0 0 0 0 0 0 0 0 0 0 0 0 127 0"/>
<feOffset dy="6"/>
<feGaussianBlur stdDeviation="25"/>
<feColorMatrix type="matrix" values="0 0 0 0 0.121569 0 0 0 0 0.360784 0 0 0 0 0.898039 0 0 0 1 0"/>
<feBlend mode="normal" in2="BackgroundImageFix" result="effect1_dropShadow"/>
<feBlend mode="normal" in="SourceGraphic" in2="effect1_dropShadow" result="shape"/>
</filter>
<filter id="filter21_d" x="179.106" y="43.7583" width="150.2" height="102.689" filterUnits="userSpaceOnUse" color-interpolation-filters="sRGB">
<feFlood flood-opacity="0" result="BackgroundImageFix"/>
<feColorMatrix in="SourceAlpha" type="matrix" values="0 0 0 0 0 0 0 0 0 0 0 0 0 0 0 0 0 0 127 0"/>
<feOffset dy="6"/>
<feGaussianBlur stdDeviation="25"/>
<feColorMatrix type="matrix" values="0 0 0 0 0.121569 0 0 0 0 0.360784 0 0 0 0 0.898039 0 0 0 1 0"/>
<feBlend mode="normal" in2="BackgroundImageFix" result="effect1_dropShadow"/>
<feBlend mode="normal" in="SourceGraphic" in2="effect1_dropShadow" result="shape"/>
</filter>
<filter id="filter22_d" x="179.106" y="38.0215" width="150.2" height="102.689" filterUnits="userSpaceOnUse" color-interpolation-filters="sRGB">
<feFlood flood-opacity="0" result="BackgroundImageFix"/>
<feColorMatrix in="SourceAlpha" type="matrix" values="0 0 0 0 0 0 0 0 0 0 0 0 0 0 0 0 0 0 127 0"/>
<feOffset dy="6"/>
<feGaussianBlur stdDeviation="25"/>
<feColorMatrix type="matrix" values="0 0 0 0 0.121569 0 0 0 0 0.360784 0 0 0 0 0.898039 0 0 0 1 0"/>
<feBlend mode="normal" in2="BackgroundImageFix" result="effect1_dropShadow"/>
<feBlend mode="normal" in="SourceGraphic" in2="effect1_dropShadow" result="shape"/>
</filter>
<filter id="filter23_d" x="179.106" y="15.0757" width="150.2" height="102.689" filterUnits="userSpaceOnUse" color-interpolation-filters="sRGB">
<feFlood flood-opacity="0" result="BackgroundImageFix"/>
<feColorMatrix in="SourceAlpha" type="matrix" values="0 0 0 0 0 0 0 0 0 0 0 0 0 0 0 0 0 0 127 0"/>
<feOffset dy="6"/>
<feGaussianBlur stdDeviation="25"/>
<feColorMatrix type="matrix" values="0 0 0 0 0.121569 0 0 0 0 0.360784 0 0 0 0 0.898039 0 0 0 1 0"/>
<feBlend mode="normal" in2="BackgroundImageFix" result="effect1_dropShadow"/>
<feBlend mode="normal" in="SourceGraphic" in2="effect1_dropShadow" result="shape"/>
</filter>
<filter id="filter24_d" x="179.106" y="9.33936" width="150.2" height="102.689" filterUnits="userSpaceOnUse" color-interpolation-filters="sRGB">
<feFlood flood-opacity="0" result="BackgroundImageFix"/>
<feColorMatrix in="SourceAlpha" type="matrix" values="0 0 0 0 0 0 0 0 0 0 0 0 0 0 0 0 0 0 127 0"/>
<feOffset dy="6"/>
<feGaussianBlur stdDeviation="25"/>
<feColorMatrix type="matrix" values="0 0 0 0 0.121569 0 0 0 0 0.360784 0 0 0 0 0.898039 0 0 0 1 0"/>
<feBlend mode="normal" in2="BackgroundImageFix" result="effect1_dropShadow"/>
<feBlend mode="normal" in="SourceGraphic" in2="effect1_dropShadow" result="shape"/>
</filter>
<filter id="filter25_d" x="153.197" y="65.27" width="111.336" height="111.294" filterUnits="userSpaceOnUse" color-interpolation-filters="sRGB">
<feFlood flood-opacity="0" result="BackgroundImageFix"/>
<feColorMatrix in="SourceAlpha" type="matrix" values="0 0 0 0 0 0 0 0 0 0 0 0 0 0 0 0 0 0 127 0"/>
<feOffset dy="6"/>
<feGaussianBlur stdDeviation="25"/>
<feColorMatrix type="matrix" values="0 0 0 0 0.121569 0 0 0 0 0.360784 0 0 0 0 0.898039 0 0 0 1 0"/>
<feBlend mode="normal" in2="BackgroundImageFix" result="effect1_dropShadow"/>
<feBlend mode="normal" in="SourceGraphic" in2="effect1_dropShadow" result="shape"/>
</filter>
<filter id="filter26_d" x="179.106" y="72.4404" width="150.2" height="102.689" filterUnits="userSpaceOnUse" color-interpolation-filters="sRGB">
<feFlood flood-opacity="0" result="BackgroundImageFix"/>
<feColorMatrix in="SourceAlpha" type="matrix" values="0 0 0 0 0 0 0 0 0 0 0 0 0 0 0 0 0 0 127 0"/>
<feOffset dy="6"/>
<feGaussianBlur stdDeviation="25"/>
<feColorMatrix type="matrix" values="0 0 0 0 0.121569 0 0 0 0 0.360784 0 0 0 0 0.898039 0 0 0 1 0"/>
<feBlend mode="normal" in2="BackgroundImageFix" result="effect1_dropShadow"/>
<feBlend mode="normal" in="SourceGraphic" in2="effect1_dropShadow" result="shape"/>
</filter>
<filter id="filter27_d" x="179.106" y="66.7041" width="150.2" height="102.689" filterUnits="userSpaceOnUse" color-interpolation-filters="sRGB">
<feFlood flood-opacity="0" result="BackgroundImageFix"/>
<feColorMatrix in="SourceAlpha" type="matrix" values="0 0 0 0 0 0 0 0 0 0 0 0 0 0 0 0 0 0 127 0"/>
<feOffset dy="6"/>
<feGaussianBlur stdDeviation="25"/>
<feColorMatrix type="matrix" values="0 0 0 0 0.121569 0 0 0 0 0.360784 0 0 0 0 0.898039 0 0 0 1 0"/>
<feBlend mode="normal" in2="BackgroundImageFix" result="effect1_dropShadow"/>
<feBlend mode="normal" in="SourceGraphic" in2="effect1_dropShadow" result="shape"/>
</filter>
<filter id="filter28_d" x="88.7002" y="217.851" width="133.6" height="172.396" filterUnits="userSpaceOnUse" color-interpolation-filters="sRGB">
<feFlood flood-opacity="0" result="BackgroundImageFix"/>
<feColorMatrix in="SourceAlpha" type="matrix" values="0 0 0 0 0 0 0 0 0 0 0 0 0 0 0 0 0 0 127 0"/>
<feOffset dy="5"/>
<feGaussianBlur stdDeviation="20"/>
<feColorMatrix type="matrix" values="0 0 0 0 0.121569 0 0 0 0 0.360784 0 0 0 0 0.898039 0 0 0 1 0"/>
<feBlend mode="normal" in2="BackgroundImageFix" result="effect1_dropShadow"/>
<feBlend mode="normal" in="SourceGraphic" in2="effect1_dropShadow" result="shape"/>
</filter>
<linearGradient id="paint0_linear" x1="41.7551" y1="563.366" x2="114.061" y2="700.128" gradientUnits="userSpaceOnUse">
<stop stop-color="#05062C"/>
<stop offset="1" stop-color="#05062C" stop-opacity="0.01"/>
</linearGradient>
<linearGradient id="paint1_linear" x1="31.7551" y1="553.366" x2="104.061" y2="690.128" gradientUnits="userSpaceOnUse">
<stop stop-color="#05062C"/>
<stop offset="1" stop-color="#05062C" stop-opacity="0.01"/>
</linearGradient>
<linearGradient id="paint2_linear" x1="150" y1="422.234" x2="250.389" y2="593.333" gradientUnits="userSpaceOnUse">
<stop stop-color="#83C3F7"/>
<stop offset="1" stop-color="#1B58E4"/>
</linearGradient>
<linearGradient id="paint3_linear" x1="242.331" y1="489.591" x2="237.875" y2="496.309" gradientUnits="userSpaceOnUse">
<stop stop-color="#83C3F7"/>
<stop offset="1" stop-color="#1B58E4"/>
</linearGradient>
<linearGradient id="paint4_linear" x1="231.887" y1="489.591" x2="227.051" y2="494.452" gradientUnits="userSpaceOnUse">
<stop stop-color="#83C3F7"/>
<stop offset="1" stop-color="#1B58E4"/>
</linearGradient>
<linearGradient id="paint5_linear" x1="223.887" y1="489.591" x2="219.051" y2="494.452" gradientUnits="userSpaceOnUse">
<stop stop-color="#83C3F7"/>
<stop offset="1" stop-color="#1B58E4"/>
</linearGradient>
<linearGradient id="paint6_linear" x1="602.713" y1="472.879" x2="602.946" y2="535.825" gradientUnits="userSpaceOnUse">
<stop stop-color="#83C3F7"/>
<stop offset="1" stop-color="#1B58E4"/>
</linearGradient>
<linearGradient id="paint7_linear" x1="62" y1="542.148" x2="111.661" y2="621.357" gradientUnits="userSpaceOnUse">
<stop stop-color="#7CFFE9"/>
<stop offset="1" stop-color="#18DAA2"/>
</linearGradient>
<linearGradient id="paint8_linear" x1="106.995" y1="456.534" x2="106.995" y2="468.734" gradientUnits="userSpaceOnUse">
<stop stop-color="#05062C"/>
<stop offset="1" stop-color="#05062C" stop-opacity="0.01"/>
</linearGradient>
<linearGradient id="paint9_linear" x1="56.725" y1="638.788" x2="56.725" y2="647.734" gradientUnits="userSpaceOnUse">
<stop stop-color="#05062C"/>
<stop offset="1" stop-color="#05062C" stop-opacity="0.01"/>
</linearGradient>
<linearGradient id="paint10_linear" x1="22.5008" y1="742.614" x2="58.7726" y2="802.993" gradientUnits="userSpaceOnUse">
<stop stop-color="#05062C"/>
<stop offset="1" stop-color="#05062C" stop-opacity="0.01"/>
</linearGradient>
<linearGradient id="paint11_linear" x1="17.5008" y1="737.614" x2="53.7726" y2="797.993" gradientUnits="userSpaceOnUse">
<stop stop-color="#05062C"/>
<stop offset="1" stop-color="#05062C" stop-opacity="0.01"/>
</linearGradient>
<linearGradient id="paint12_linear" x1="-55.5451" y1="719.051" x2="-6.47455" y2="820.372" gradientUnits="userSpaceOnUse">
<stop stop-color="#83C3F7"/>
<stop offset="1" stop-color="#1B58E4"/>
</linearGradient>
<linearGradient id="paint13_linear" x1="47.0434" y1="728.52" x2="62.1042" y2="746.265" gradientUnits="userSpaceOnUse">
<stop stop-color="#18DAA2" stop-opacity="0.01"/>
<stop offset="1" stop-color="#18DAA2"/>
</linearGradient>
<linearGradient id="paint14_linear" x1="52.5776" y1="727.49" x2="60.7554" y2="735.668" gradientUnits="userSpaceOnUse">
<stop stop-color="#7CFFE9"/>
<stop offset="1" stop-color="#18DAA2"/>
</linearGradient>
<linearGradient id="paint15_linear" x1="14.7126" y1="789.534" x2="14.7126" y2="801.734" gradientUnits="userSpaceOnUse">
<stop stop-color="#05062C"/>
<stop offset="1" stop-color="#05062C" stop-opacity="0.01"/>
</linearGradient>
<linearGradient id="paint16_linear" x1="126.124" y1="897.614" x2="165.713" y2="949.684" gradientUnits="userSpaceOnUse">
<stop stop-color="#05062C"/>
<stop offset="1" stop-color="#05062C" stop-opacity="0.01"/>
</linearGradient>
<linearGradient id="paint17_linear" x1="118.124" y1="889.614" x2="157.713" y2="941.684" gradientUnits="userSpaceOnUse">
<stop stop-color="#05062C"/>
<stop offset="1" stop-color="#05062C" stop-opacity="0.01"/>
</linearGradient>
<linearGradient id="paint18_linear" x1="90.1895" y1="872.259" x2="151.854" y2="933.492" gradientUnits="userSpaceOnUse">
<stop stop-color="#83C3F7"/>
<stop offset="1" stop-color="#1B58E4"/>
</linearGradient>
<linearGradient id="paint19_linear" x1="108.713" y1="946.534" x2="108.713" y2="958.734" gradientUnits="userSpaceOnUse">
<stop stop-color="#05062C"/>
<stop offset="1" stop-color="#05062C" stop-opacity="0.01"/>
</linearGradient>
<linearGradient id="paint20_linear" x1="219.044" y1="745.32" x2="284.225" y2="805.039" gradientUnits="userSpaceOnUse">
<stop stop-color="#05062C"/>
<stop offset="1" stop-color="#05062C" stop-opacity="0.01"/>
</linearGradient>
<linearGradient id="paint21_linear" x1="212.044" y1="738.32" x2="277.225" y2="798.039" gradientUnits="userSpaceOnUse">
<stop stop-color="#05062C"/>
<stop offset="1" stop-color="#05062C" stop-opacity="0.01"/>
</linearGradient>
<linearGradient id="paint22_linear" x1="184.929" y1="725.114" x2="264.162" y2="792.1" gradientUnits="userSpaceOnUse">
<stop stop-color="#83C3F7"/>
<stop offset="1" stop-color="#1B58E4"/>
</linearGradient>
<linearGradient id="paint23_linear" x1="235.278" y1="723.078" x2="256.985" y2="747.88" gradientUnits="userSpaceOnUse">
<stop stop-color="#18DAA2" stop-opacity="0.01"/>
<stop offset="1" stop-color="#18DAA2"/>
</linearGradient>
<linearGradient id="paint24_linear" x1="206.713" y1="806.534" x2="206.713" y2="818.734" gradientUnits="userSpaceOnUse">
<stop stop-color="#05062C"/>
<stop offset="1" stop-color="#05062C" stop-opacity="0.01"/>
</linearGradient>
<linearGradient id="paint25_linear" x1="16.575" y1="107.32" x2="81.5705" y2="180.288" gradientUnits="userSpaceOnUse">
<stop stop-color="#05062C"/>
<stop offset="1" stop-color="#05062C" stop-opacity="0.01"/>
</linearGradient>
<linearGradient id="paint26_linear" x1="9.57495" y1="100.32" x2="74.5705" y2="173.288" gradientUnits="userSpaceOnUse">
<stop stop-color="#05062C"/>
<stop offset="1" stop-color="#05062C" stop-opacity="0.01"/>
</linearGradient>
<linearGradient id="paint27_linear" x1="58.5" y1="1.73438" x2="144.494" y2="88.7286" gradientUnits="userSpaceOnUse">
<stop stop-color="#83C3F7"/>
<stop offset="1" stop-color="#1B58E4"/>
</linearGradient>
<linearGradient id="paint28_linear" x1="97.748" y1="52.1054" x2="94.4199" y2="57.1377" gradientUnits="userSpaceOnUse">
<stop stop-color="#83C3F7"/>
<stop offset="1" stop-color="#1B58E4"/>
</linearGradient>
<linearGradient id="paint29_linear" x1="89.9153" y1="52.1054" x2="86.2988" y2="55.7511" gradientUnits="userSpaceOnUse">
<stop stop-color="#83C3F7"/>
<stop offset="1" stop-color="#1B58E4"/>
</linearGradient>
<linearGradient id="paint30_linear" x1="83.9153" y1="52.1054" x2="80.2988" y2="55.7511" gradientUnits="userSpaceOnUse">
<stop stop-color="#83C3F7"/>
<stop offset="1" stop-color="#1B58E4"/>
</linearGradient>
<linearGradient id="paint31_linear" x1="428.035" y1="39.6075" x2="428.209" y2="86.68" gradientUnits="userSpaceOnUse">
<stop stop-color="#83C3F7"/>
<stop offset="1" stop-color="#1B58E4"/>
</linearGradient>
<linearGradient id="paint32_linear" x1="39.1076" y1="94.6343" x2="61.3714" y2="120.866" gradientUnits="userSpaceOnUse">
<stop stop-color="#18DAA2" stop-opacity="0.01"/>
<stop offset="1" stop-color="#18DAA2"/>
</linearGradient>
<linearGradient id="paint33_linear" x1="47.2891" y1="93.1123" x2="59.3779" y2="105.201" gradientUnits="userSpaceOnUse">
<stop stop-color="#7CFFE9"/>
<stop offset="1" stop-color="#18DAA2"/>
</linearGradient>
<linearGradient id="paint34_linear" x1="1.59627" y1="19.5342" x2="1.59627" y2="31.7344" gradientUnits="userSpaceOnUse">
<stop stop-color="#05062C"/>
<stop offset="1" stop-color="#05062C" stop-opacity="0.01"/>
</linearGradient>
<linearGradient id="paint35_linear" x1="198.803" y1="108.66" x2="260.622" y2="184.703" gradientUnits="userSpaceOnUse">
<stop stop-color="#05062C"/>
<stop offset="1" stop-color="#05062C" stop-opacity="0.01"/>
</linearGradient>
<linearGradient id="paint36_linear" x1="190.803" y1="99.6597" x2="252.622" y2="175.703" gradientUnits="userSpaceOnUse">
<stop stop-color="#05062C"/>
<stop offset="1" stop-color="#05062C" stop-opacity="0.01"/>
</linearGradient>
<linearGradient id="paint37_linear" x1="150.986" y1="85.802" x2="232.606" y2="177.169" gradientUnits="userSpaceOnUse">
<stop stop-color="#83C3F7"/>
<stop offset="1" stop-color="#1B58E4"/>
</linearGradient>
<linearGradient id="paint38_linear" x1="166.864" y1="61.9669" x2="189.068" y2="134.411" gradientUnits="userSpaceOnUse">
<stop stop-color="#83C3F7"/>
<stop offset="1" stop-color="#1B58E4"/>
</linearGradient>
<linearGradient id="paint39_linear" x1="166.864" y1="90.6495" x2="189.068" y2="163.094" gradientUnits="userSpaceOnUse">
<stop stop-color="#83C3F7"/>
<stop offset="1" stop-color="#1B58E4"/>
</linearGradient>
<linearGradient id="paint40_linear" x1="-493.59" y1="54.8347" x2="-493.427" y2="132.528" gradientUnits="userSpaceOnUse">
<stop stop-color="#83C3F7"/>
<stop offset="1" stop-color="#1B58E4"/>
</linearGradient>
<linearGradient id="paint41_linear" x1="-493.59" y1="49.0979" x2="-493.427" y2="126.791" gradientUnits="userSpaceOnUse">
<stop stop-color="#83C3F7"/>
<stop offset="1" stop-color="#1B58E4"/>
</linearGradient>
<linearGradient id="paint42_linear" x1="-493.59" y1="26.1521" x2="-493.427" y2="103.845" gradientUnits="userSpaceOnUse">
<stop stop-color="#83C3F7"/>
<stop offset="1" stop-color="#1B58E4"/>
</linearGradient>
<linearGradient id="paint43_linear" x1="-493.59" y1="20.4158" x2="-493.427" y2="98.1086" gradientUnits="userSpaceOnUse">
<stop stop-color="#83C3F7"/>
<stop offset="1" stop-color="#1B58E4"/>
</linearGradient>
<linearGradient id="paint44_linear" x1="166.864" y1="119.332" x2="189.068" y2="191.776" gradientUnits="userSpaceOnUse">
<stop stop-color="#83C3F7"/>
<stop offset="1" stop-color="#1B58E4"/>
</linearGradient>
<linearGradient id="paint45_linear" x1="-493.59" y1="83.5168" x2="-493.427" y2="161.21" gradientUnits="userSpaceOnUse">
<stop stop-color="#83C3F7"/>
<stop offset="1" stop-color="#1B58E4"/>
</linearGradient>
<linearGradient id="paint46_linear" x1="-493.59" y1="77.7805" x2="-493.427" y2="155.473" gradientUnits="userSpaceOnUse">
<stop stop-color="#83C3F7"/>
<stop offset="1" stop-color="#1B58E4"/>
</linearGradient>
<linearGradient id="paint47_linear" x1="192.713" y1="19.5342" x2="192.713" y2="31.7344" gradientUnits="userSpaceOnUse">
<stop stop-color="#05062C"/>
<stop offset="1" stop-color="#05062C" stop-opacity="0.01"/>
</linearGradient>
<linearGradient id="paint48_linear" x1="136.429" y1="320.045" x2="200.421" y2="361.242" gradientUnits="userSpaceOnUse">
<stop stop-color="#05062C"/>
<stop offset="1" stop-color="#05062C" stop-opacity="0.01"/>
</linearGradient>
<linearGradient id="paint49_linear" x1="128.429" y1="312.01" x2="192.421" y2="353.207" gradientUnits="userSpaceOnUse">
<stop stop-color="#05062C"/>
<stop offset="1" stop-color="#05062C" stop-opacity="0.01"/>
</linearGradient>
<linearGradient id="paint50_linear" x1="90.0132" y1="295.743" x2="187.234" y2="352.431" gradientUnits="userSpaceOnUse">
<stop stop-color="#83C3F7"/>
<stop offset="1" stop-color="#1B58E4"/>
</linearGradient>
<linearGradient id="paint51_linear" x1="133.638" y1="301.07" x2="157.329" y2="328.864" gradientUnits="userSpaceOnUse">
<stop stop-color="#18DAA2" stop-opacity="0.01"/>
<stop offset="1" stop-color="#18DAA2"/>
</linearGradient>
<linearGradient id="paint52_linear" x1="142.3" y1="299.451" x2="155.155" y2="312.251" gradientUnits="userSpaceOnUse">
<stop stop-color="#7CFFE9"/>
<stop offset="1" stop-color="#18DAA2"/>
</linearGradient>
<linearGradient id="paint53_linear" x1="104.713" y1="226.855" x2="104.713" y2="239.108" gradientUnits="userSpaceOnUse">
<stop stop-color="#05062C"/>
<stop offset="1" stop-color="#05062C" stop-opacity="0.01"/>
</linearGradient>
</defs>
</svg>
