<svg xmlns="http://www.w3.org/2000/svg" viewBox="0 0 987.13 189.32"><defs><style>.cls-1{fill:#fff;}</style></defs><title>Zasób 1</title><g id="Warstwa_2" data-name="Warstwa 2"><g id="Warstwa_1-2" data-name="Warstwa 1"><path id="M0gQRt.tif" class="cls-1" d="M578.91,185.65H560.25c-.13-2.1-.35-4-.36-5.93-.08-27,0-54-.25-81A80.85,80.85,0,0,0,558,82.4c-3-13.73-17.45-19-28.57-10.3C522,78,517.32,85.71,517.33,95.68q.06,42,0,84v5.84H498.59V53.67a102.63,102.63,0,0,1,10.83.14c1.15.13,2.64,1.73,3.06,3,1.19,3.56,1.91,7.28,3,11.89C523.84,57.8,533.59,51.4,546.83,51c13.72-.38,23.48,4.91,27.66,17.73,5.42-4.57,10.09-9.64,15.76-13,10.32-6.2,21.66-6,32.83-2.25,8.23,2.79,12.25,9.69,14.08,17.56a99.59,99.59,0,0,1,2.93,21.2c.35,30.15.22,60.3.24,90.45a23.18,23.18,0,0,1-.35,2.81H621.59c-.09-1.9-.24-3.81-.25-5.73,0-25.82.06-51.64-.06-77.47a134,134,0,0,0-1.21-17.91c-1-6.93-2.87-13.63-11.11-15.46-8.75-1.94-16.71-.49-22.73,6.58a29.48,29.48,0,0,0-7.36,19.68c.09,28,0,56,0,84ZM737.14,166.5c-15.81,9.5-34.73,7.15-44.13-6-8.15-11.38-8.86-24.66-9.06-38.59h6q28,0,56,0c2,0,4.59.83,4.9-2.6,1.37-15,2.38-30-2.82-44.52C744,63.28,736.5,55.12,724,52.39c-25.86-5.66-46.19,5.53-54.52,30.64-6.59,19.89-6.52,40.31-3.37,60.8,2,12.76,6.23,24.52,15.54,33.94,16.69,16.89,45.94,12.61,60.72,3.89,6.57-3.88,6.52-4,3-11-1.1-2.23-2.22-4.44-3.57-7.14C739.92,164.71,738.56,165.65,737.14,166.5ZM690.71,80C696,71.08,704.2,67.18,714.38,68.4,724,69.57,729.39,76,731.53,85c1.54,6.4,2,13.06,3,20.22H684.27C684.79,96.08,686.18,87.57,690.71,80Zm-516.2,32.25c-24.92,3.53-36.58,18.64-34.37,43.81,1.16,13.21,6.57,24.15,19.52,29,13.26,4.92,26.28,3.62,37.51-6,2.72-2.33,5-5.19,8-8.38,1.27,4.53,2.25,8.52,3.57,12.4.47,1.36,1.71,3.36,2.76,3.46a111.87,111.87,0,0,0,11.62.17c-.71-11.71-1.74-22.64-1.92-33.57-.19-11.49.64-23,.66-34.48,0-13.48.42-27-.74-40.41-1.3-15-11.05-24.27-26-25.79a84.15,84.15,0,0,0-43.92,6.93,54.34,54.34,0,0,0-4.74,2.79l6.21,14.6c11-5.06,21.63-8.09,33-7.58,9.91.44,15.49,4.61,16.88,14.34,1.25,8.79,1,17.79,1.45,26.71C193.05,110.9,183.69,110.91,174.51,112.22Zm21.73,52.09c-7.53,6-15.91,7.6-24.81,4.86-8.21-2.52-11.14-9.43-11.84-17.39-.75-8.47,1.84-15.57,9.58-19.83,9.91-5.46,20.78-5.29,31.62-4.52.93.07,2.35,2.09,2.46,3.3.32,3.63.11,7.3.11,12.75C204,150.18,203.79,158.25,196.24,164.31ZM272.41,179c0-27.32.26-54.65-.14-82-.13-9.41,3.73-16.43,10.13-22.38,7.05-6.56,15.62-8,24.69-5.34,8.19,2.45,10.78,9.49,12,16.94a115.44,115.44,0,0,1,1.56,17.89c.19,25.15.11,50.31.12,75.46,0,1.94,0,3.87,0,5.9h18.55a21.75,21.75,0,0,0,.39-2.78c-.08-30.65.08-61.31-.46-91.95-.12-7.19-2-14.52-4.15-21.45-2.67-8.58-8.7-14.59-17.71-16.74-16.66-4-31.4-.7-43.3,12.24a19.21,19.21,0,0,0-2.16,3.85c-2.24-4.71-2.94-8.31-4-11.8-.37-1.2-1.57-2.94-2.51-3-3.88-.34-7.81-.14-11.68-.14V185.58h18.68Zm506.22,6.52h18.64v-6.21c0-27.49.25-55-.14-82.47-.14-9.43,3.77-16.44,10.22-22.33,7.08-6.48,15.7-8,24.74-5.12,8.15,2.54,10.62,9.66,11.86,17.09a107.4,107.4,0,0,1,1.48,16.89c.16,25.33.09,50.66.1,76,0,1.95,0,3.91,0,6.11h18.59a13,13,0,0,0,.35-1.87c-.05-31,.27-62-.45-93-.19-8.26-3-16.65-5.68-24.59-2.23-6.54-7.62-11-14.4-12.89C826.64,48.3,811.3,51.4,798.75,65l-3.14,3.39c-1.07-4.3-1.78-8-3-11.55-.42-1.24-1.91-2.85-3.06-3a104.77,104.77,0,0,0-11-.14ZM120.51,61.24c.28-1.23-.7-3.66-1.74-4.12-14.8-6.62-30.24-8.7-45.69-3.24-17.62,6.23-24.62,31.61-14.34,49.34,5.31,9.15,13.66,14.69,22.34,20.18,6.54,4.14,13,8.81,18.31,14.39,6.64,7,7.47,16.08,3.5,24.73-3.67,8-11.44,9.48-19.44,9.56a22.26,22.26,0,0,1-6-.52c-6.86-1.86-13.65-3.94-21-6.08-1.16,3.26-2.11,7.17-3.88,10.65-2.27,4.45-.27,6.17,3.51,7.72a69,69,0,0,0,39.67,4.27c10.66-2,19.52-7.45,24.11-17.59,6.13-13.56,5.61-27.22-1.94-40.26-5.63-9.73-14.89-15.41-24-21.35a97.33,97.33,0,0,1-16-12.54c-5.6-5.62-5.82-13-2.92-20.06,2.74-6.74,9-8.52,15.33-8,8.66.76,17.22,2.71,26.68,4.3C118,69.48,119.56,65.43,120.51,61.24Zm251,16.42c0,24.33-.27,48.66.15,73A109.87,109.87,0,0,0,375,174.76c2,8.06,8.28,12.33,16.44,13.26a56.9,56.9,0,0,0,29.27-4.75c1-.44,2.42-1.9,2.28-2.62-.86-4.48-2.1-8.87-3.06-12.67-6.2,1.19-11.52,2.66-16.92,3.12-5.75.48-9.25-2.1-10.59-7.76a67.07,67.07,0,0,1-1.76-14.81c-.17-24.17-.08-48.33-.07-72.5,0-1.6.14-3.2.24-5.25,8.35,0,16.16.13,24-.12,1.43,0,3.92-1.59,4-2.62.44-4.57.19-9.2.19-14.44H390.53V22.09c-5.48,1.73-10.16,3.44-15,4.64-3.19.8-4.23,2.32-4.12,5.56.23,6.93.07,13.88.07,21.43h-16c0,4.91.12,9.2-.05,13.49-.12,3,1.31,3.69,3.94,3.6,3.79-.13,7.59,0,12.07,0Zm524.84,0c0,24.33-.24,48.66.14,73a111.64,111.64,0,0,0,3.07,23.64c1.89,8,7.93,12.61,16.12,13.66,10.31,1.33,20.25-.58,29.75-4.67,1-.43,2.43-1.9,2.29-2.64-.84-4.49-2.08-8.91-3-12.66-6.19,1.19-11.51,2.66-16.91,3.13-5.75.49-9.29-2.13-10.63-7.73a64.29,64.29,0,0,1-1.72-14.3c-.17-24.33-.08-48.65-.08-73V70.62h28v-17c-7.77,0-15.25-.21-22.71.08-4.07.15-5.54-1-5.38-5.26.32-8.58.1-17.17.1-26.39-5.53,1.74-10.22,3.44-15,4.64-3.22.81-4.16,2.44-4.06,5.62.22,6.93.07,13.88.07,21.39h-15.7v17h15.7ZM463.09,54.06H444.66v131.5h18.43ZM973.83,134.6c8.55,0,13.32-5.35,13.3-15s-4.88-14.85-13.57-14.71c-8.31.14-12.85,5.47-12.77,15S965.48,134.57,973.83,134.6Zm-960.76,0c8.57,0,13.29-5.47,13.2-15.25-.09-9.37-4.89-14.56-13.42-14.48S-.06,110.15,0,119.83,4.63,134.62,13.07,134.6ZM467.29,13.75C467.23,5.6,461.87.05,454,0s-12.94,5.38-13,13.86C441,22,446,27.2,453.89,27.21,462,27.22,467.35,21.83,467.29,13.75Z"/></g></g></svg>