<?xml version="1.0" encoding="UTF-8"?>
<svg width="124px" height="45px" viewBox="0 0 124 45" version="1.1" xmlns="http://www.w3.org/2000/svg" xmlns:xlink="http://www.w3.org/1999/xlink">
    <!-- Generator: Sketch 53.2 (72643) - https://sketchapp.com -->
    <title>logo_white_deepit</title>
    <desc>Created with Sketch.</desc>
    <g id="Page-1" stroke="none" stroke-width="1" fill="none" fill-rule="evenodd">
        <g id="Desktop" transform="translate(-515.000000, -6339.000000)" fill="#FFFFFF" fill-rule="nonzero">
            <g id="Group-47" transform="translate(515.000000, 6159.000000)">
                <g id="logo_white_deepit" transform="translate(0.000000, 180.000000)">
                    <path d="M120.2475,34.2675 L120.2475,34.2675 C119.429991,34.2679329 118.614974,34.1773754 117.8175,33.9975 C116.498428,33.7079499 115.267081,33.1089856 114.225,32.25 C112.352396,30.7054925 111.255006,28.4146891 111.225,25.9875 C111.225,25.755 111.225,25.5225 111.225,25.29 L111.225,1.575 C111.223375,1.45819435 111.249057,1.34262395 111.3,1.2375 C111.432563,0.941807802 111.725954,0.751103486 112.05,0.75 L112.8,0.75 C113.302323,0.743706578 113.804235,0.781349948 114.3,0.8625 C116.082574,1.28609913 117.381089,2.82181332 117.5025,4.65 C117.5025,5.28 117.5025,6.9375 117.5025,8.145 L117.5025,9.3 L122.595,9.3 L122.91,9.3 C123.345992,9.3606432 123.667992,9.73738329 123.66,10.1775 C123.664527,10.2299024 123.664527,10.2825976 123.66,10.335 L123.66,13.05 C123.688329,13.7186562 123.433525,14.3682857 122.958153,14.8393751 C122.482781,15.3104644 121.830872,15.5593793 121.1625,15.525 L117.51,15.525 L117.51,18.345 C117.51,20.6925 117.51,23.0475 117.51,25.395 C117.522931,25.7987256 117.585912,26.1992864 117.6975,26.5875 C117.867658,27.2010551 118.370047,27.6656921 118.995,27.7875 L119.07,27.7875 C119.901582,28.0198007 120.780918,28.0198007 121.6125,27.7875 C121.838542,27.7099781 122.054954,27.6068049 122.2575,27.48 C122.437589,27.3659485 122.644515,27.3012842 122.8575,27.2925 C123.2175,27.2925 123.6075,27.54 123.6525,28.23 L123.6525,32.925 C123.688512,33.1782948 123.617717,33.4351695 123.457028,33.634253 C123.296339,33.8333365 123.06019,33.9567471 122.805,33.975 C121.965454,34.1639192 121.108022,34.2619833 120.2475,34.2675 Z M112.215,1.7475 L112.215,25.2675 C112.215,25.4775 112.215,25.695 112.215,25.9125 C112.233322,27.2139283 112.590011,28.4881866 113.25,29.61 C113.683956,30.306088 114.225702,30.9288438 114.855,31.455 C115.777136,32.219862 116.870819,32.7499768 118.0425,33 C118.765606,33.1674522 119.505261,33.2529906 120.2475,33.255 L120.2475,33.255 C121.03218,33.2516742 121.814209,33.1636646 122.58,32.9925 L122.64,32.9925 C122.64364,32.9701472 122.64364,32.9473528 122.64,32.925 L122.64,28.425 C122.401492,28.5614677 122.150317,28.6744962 121.89,28.7625 C120.875162,29.0514134 119.799838,29.0514134 118.785,28.7625 L118.695,28.7625 C117.736196,28.545284 116.976702,27.8146685 116.7225,26.865 C116.589684,26.3935089 116.516612,25.9072031 116.505,25.4175 C116.505,23.0625 116.505,20.715 116.505,18.36 L116.505,14.535 L121.155,14.535 C121.563812,14.5751239 121.969104,14.4300301 122.259567,14.1395673 C122.55003,13.8491044 122.695124,13.4438122 122.655,13.035 C122.655,12.285 122.655,11.475 122.655,10.695 L122.655,10.275 L116.5125,10.275 L116.5125,8.145 C116.5125,6.945 116.5125,5.295 116.5125,4.68 C116.413688,3.31889121 115.451617,2.17529721 114.1275,1.845 C113.696175,1.77508964 113.259338,1.74496298 112.8225,1.755 L112.215,1.7475 Z" id="Shape"></path>
                    <path d="M105.39,33.9375 L103.545,33.9375 C102.795,33.9375 102.5175,33.645 102.495,32.925 L102.495,9.8925 C102.487644,9.7475933 102.487644,9.6024067 102.495,9.4575 C102.490808,9.01302762 102.845584,8.64821157 103.29,8.64 L103.5225,8.64 L107.91,8.64 C108.153165,8.61644909 108.394119,8.70288466 108.566867,8.8756328 C108.739615,9.04838095 108.826051,9.28933503 108.8025,9.5325 L108.8025,32.73 C108.8025,33.705 108.5625,33.9375 107.595,33.9375 L105.39,33.9375 Z M103.5,32.94 L107.8125,32.94 C107.8125,32.865 107.8125,32.79 107.8125,32.73 L107.8125,9.63 L103.5,9.63 L103.5,32.94 Z" id="Shape"></path>
                    <path d="M108,7.035 L103.35,7.035 C103.117298,7.03507919 102.894438,6.94112684 102.732026,6.77447723 C102.569613,6.60782762 102.48143,6.38262232 102.4875,6.15 L102.4875,6.0675 C102.4875,5.58 102.4875,5.145 102.4875,4.65 C102.619037,2.83629637 103.912704,1.31790722 105.6825,0.9 C106.178279,0.818963867 106.68018,0.781321246 107.1825,0.7875 L107.9325,0.7875 C108.257116,0.786680339 108.551463,0.978005628 108.6825,1.275 C108.733443,1.38012395 108.759125,1.49569435 108.7575,1.6125 L108.7575,6.1575 C108.787665,6.60800437 108.450081,6.99906677 108,7.035 Z M103.5,6 L107.7825,6 L107.7825,1.7475 L107.205,1.7475 C106.768168,1.73775721 106.331359,1.76788202 105.9,1.8375 C104.567496,2.16309989 103.597641,3.31177212 103.5,4.68 C103.5,5.1525 103.5,5.565 103.5,6 Z" id="Shape"></path>
                    <path d="M70.425,25.5825 C70.2175303,25.5754981 70.0147061,25.6448853 69.855,25.7775 C69.8206467,25.8080923 69.7880923,25.8406467 69.7575,25.875 C69.6013856,26.0511727 69.4335002,26.2165523 69.255,26.37 C67.996113,27.4915054 66.3659556,28.1061548 64.68,28.095 C63.9154616,28.0975329 63.1555808,27.975952 62.43,27.735 C61.5217916,27.4222955 60.6925782,26.915554 60,26.25 C59.0191059,25.3462176 58.3231771,24.1759103 57.9975,22.8825 L69.9975,22.8825 C70.485,22.8825 70.98,22.8825 71.4975,22.8375 C73.4658624,22.7106025 75.1135517,21.2982974 75.54,19.3725 C75.54,19.2375 75.585,19.1025 75.6075,18.96 C75.63,18.8175 75.6075,18.78 75.6075,18.6825 C75.6187351,18.5151884 75.6187351,18.3473116 75.6075,18.18 C75.5954511,16.2810168 74.8761467,14.4546789 73.59,13.0575 C72.6497902,11.9671625 71.5124218,11.0638833 70.2375,10.395 L70.2375,10.395 C69.1067393,9.80626796 67.8844697,9.41321448 66.6225,9.2325 C65.9250194,9.1256973 65.2206038,9.07054733 64.515,9.0675 L64.2825,9.0675 C63.3152839,9.0829816 62.3543983,9.22673615 61.425,9.495 L61.05,9.6075 L60.75,9.75 C60.54,9.825 60.3375,9.915 60.135,10.005 L60.135,10.005 C57.3360638,11.070458 55.0554935,13.1737401 53.7675,15.8775 C53.7392783,15.9386627 53.7142448,16.0012466 53.6925,16.065 C53.3242658,16.8500099 53.0329063,17.6688304 52.8225,18.51 C52.4115354,20.218696 52.3935849,21.9983622 52.77,23.715 L52.77,23.715 C52.77,23.775 52.77,23.8425 52.77,23.9025 C52.77,23.9625 52.8225,24.1275 52.845,24.24 C52.9849318,24.7784941 53.1603143,25.307147 53.37,25.8225 C54.14706,27.7432372 55.4236643,29.4212079 57.0675,30.6825 C57.36,30.915 57.675,31.14 57.9975,31.35 C58.1775,31.47 58.365,31.575 58.5525,31.68 L58.5525,31.68 C59.523406,32.2610858 60.574723,32.6957649 61.6725,32.97 L61.74,32.97 C62.477942,33.1468868 63.2316562,33.2498944 63.99,33.2775 L64.5,33.2775 C65.1581181,33.2766445 65.8151477,33.2239818 66.465,33.12 C66.81,33.06 67.1475,33 67.4925,32.9175 C67.8375,32.835 68.055,32.79 68.34,32.7075 C70.3724089,32.1022459 72.1923626,30.9348756 73.59,29.34 C74.0111981,28.8689462 74.3972361,28.3675981 74.745,27.84 L74.8425,27.69 C75.1431376,27.2265285 75.4161138,26.7456897 75.66,26.25 C75.7226794,26.1366695 75.7609975,26.0114969 75.7725,25.8825 C75.7735885,25.8232279 75.7551394,25.765245 75.72,25.7175 C75.5830709,25.6071961 75.4066639,25.5583449 75.2325,25.5825 L70.425,25.5825 Z M58.2225,18.6675 C58.6657331,17.5382751 59.3976226,16.5451811 60.345,15.7875 C60.9707512,15.2908113 61.6755815,14.9029011 62.43,14.64 C64.4059133,13.9536359 66.5868894,14.2048623 68.355,15.3225 C68.5725,15.465 68.79,15.6075 68.9925,15.765 L68.9925,15.765 C69.5536658,16.1710548 70.0089639,16.7060944 70.32,17.325 C70.4082668,17.4970687 70.4569539,17.6866922 70.4625,17.88 C70.4625,18.345 70.11,18.63 69.5025,18.63 L58.2225,18.6675 Z" id="Shape"></path>
                    <path d="M95.64,21.75 C95.6777927,21.4566012 95.6928375,21.160719 95.685,20.865 C95.6752869,20.1183748 95.5330797,19.3794052 95.265,18.6825 C95.0228902,18.0213285 94.6759547,17.4034286 94.2375,16.8525 C94.044516,16.5886868 93.834043,16.3381237 93.6075,16.1025 C92.3405312,14.8732896 90.6322096,14.2056386 88.8675,14.25 C87.8920917,14.237439 86.9269775,14.4504828 86.0475,14.8725 C85.5081598,15.1355951 85.0041781,15.4657032 84.5475,15.855 C84.2598607,16.098867 83.9915571,16.3646631 83.745,16.65 C82.7247261,17.8381951 82.1493712,19.3441933 82.1175,20.91 L82.1175,20.91 L82.1175,43.695 C82.1175621,43.9893528 81.9991129,44.2713352 81.7888683,44.4773467 C81.5786236,44.6833583 81.2942907,44.7960484 81,44.79 L78.5775,44.79 C77.9844075,44.7819296 77.5055704,44.3030925 77.4975,43.71 L77.4975,10.38 C77.4736569,10.2104364 77.5243372,10.0388491 77.6364821,9.90945114 C77.748627,9.78005316 77.911269,9.70549935 78.0825,9.705 L78.1875,9.705 C78.5625,9.705 78.9375,9.705 79.32,9.705 C80.3827333,9.74191742 81.3578343,10.3039353 81.9225,11.205 L82.095,11.46 C82.095,11.46 82.095,11.46 82.14,11.46 C82.7625,11.055 83.34,10.635 83.955,10.29 L84.03,10.29 C84.3135206,10.1319642 84.606585,9.99169405 84.9075,9.87 C85.9363059,9.45042509 87.0299171,9.21191129 88.14,9.165 C88.395,9.165 88.6575,9.165 88.89,9.165 C90.1948085,9.15347154 91.4924695,9.35876556 92.73,9.7725 L92.73,9.7725 C93.3560552,9.98959587 93.9610509,10.2632247 94.5375,10.59 C94.695,10.6725 94.8375,10.7775 94.9875,10.8675 C96.0501505,11.5231821 97.0062144,12.3376069 97.8225,13.2825 C98.9358804,14.526304 99.7537548,16.0056567 100.215,17.61 C100.405168,18.2792912 100.53321,18.9646932 100.5975,19.6575 C100.691251,20.5801245 100.691251,21.5098755 100.5975,22.4325 C100.477189,23.8162362 100.076561,25.1610192 99.42,26.385 C97.8865698,29.3904038 95.1404442,31.5960394 91.875,32.445 L91.62,32.52 C91.305,32.595 90.9975,32.6475 90.69,32.7 C90.0057949,32.8105744 89.3129029,32.8582735 88.62,32.8425 C87.3780665,32.8217418 86.149419,32.5831202 84.99,32.1375 L84.99,32.1375 C84.8164892,32.0322041 84.7089484,31.8454227 84.705,31.6425 L84.705,27.5325 C84.7866089,27.1866243 85.0997539,26.9455026 85.455,26.955 C85.582784,26.9563961 85.7085313,26.9871914 85.8225,27.045 C87.9396768,28.1354544 90.4790533,28.0066247 92.475,26.7075 C93.6035902,25.9782649 94.494988,24.9356945 95.04,23.7075 C95.3273549,23.091088 95.5147014,22.4328434 95.595,21.7575" id="Path"></path>
                    <path d="M87.75,18.285 C86.6501635,18.6595753 85.8842837,19.6598196 85.8095172,20.8192836 C85.7347507,21.9787476 86.3658231,23.0690725 87.4084429,23.5818012 C88.4510628,24.0945299 89.6998839,23.9286794 90.5725369,23.1615917 C91.44519,22.3945039 91.769804,21.1772586 91.395,20.0775 C90.9817937,18.9187475 89.8877,18.1423906 88.6575,18.135 C88.3487049,18.1334576 88.0418746,18.1841734 87.75,18.285" id="Path"></path>
                    <rect id="Rectangle" x="85.4625" y="18.135" width="6.45" height="6.135"></rect>
                    <path d="M45.3825,25.5825 C45.1750303,25.5754981 44.9722061,25.6448853 44.8125,25.7775 L44.7075,25.875 C44.5539464,26.0510626 44.3885626,26.2164464 44.2125,26.37 C42.952863,27.4902653 41.3232002,28.1047283 39.6375,28.095 C38.8729202,28.0980658 38.1129538,27.9764712 37.3875,27.735 C36.4592222,27.4248081 35.6113429,26.9124943 34.905,26.235 C33.9213488,25.3334565 33.2248933,24.1622637 32.9025,22.8675 L44.9025,22.8675 C45.3975,22.8675 45.8925,22.8675 46.4025,22.8225 C48.3698679,22.6931609 50.016291,21.2819411 50.445,19.3575 C50.4728685,19.2212599 50.4929014,19.0835339 50.505,18.945 C50.505,18.855 50.505,18.765 50.55,18.6675 C50.595,18.57 50.55,18.33 50.55,18.165 C50.5343703,16.2667101 49.8155549,14.4416137 48.5325,13.0425 C47.5895753,11.9519385 46.4497128,11.0486993 45.1725,10.38 L45.1725,10.38 C44.0412953,9.7923317 42.8192104,9.39933759 41.5575,9.2175 C40.8600194,9.1106973 40.1556038,9.05554733 39.45,9.0525 L39.2175,9.0525 C38.2502401,9.06744943 37.2892844,9.21121446 36.36,9.48 L35.9775,9.5925 C35.88,9.5925 35.79,9.675 35.6925,9.705 C35.595,9.735 35.28,9.87 35.0775,9.96 L35.0775,9.96 C32.2773173,11.0234439 29.9960866,13.1273351 28.71,15.8325 C28.71,15.8925 28.6575,15.96 28.6275,16.02 C28.2625578,16.8063601 27.9713113,17.6248632 27.7575,18.465 C27.3615558,20.1847226 27.3589921,21.9716483 27.75,23.6925 L27.75,23.6925 C27.75,23.7525 27.75,23.82 27.7875,23.88 C27.825,23.94 27.8325,24.105 27.8625,24.2175 C28.0024318,24.7559941 28.1778143,25.284647 28.3875,25.8 C29.1643791,27.718776 30.4379755,29.3961955 32.0775,30.66 C32.3775,30.8925 32.685,31.1175 33.015,31.3275 C33.195,31.4475 33.3825,31.5525 33.5625,31.6575 L33.5625,31.6575 C34.5366633,32.237416 35.5902746,32.6719991 36.69,32.9475 L36.75,33 C37.4880331,33.1764015 38.2416987,33.2794024 39,33.3075 L39.4125,33.3075 C40.0706068,33.3063667 40.7276146,33.2537057 41.3775,33.15 C41.715,33.09 42.06,33.03 42.405,32.9475 C42.75,32.865 42.9675,32.82 43.2525,32.7375 C45.2849089,32.1322459 47.1048626,30.9648756 48.5025,29.37 C48.9235272,28.9006859 49.3071975,28.3991561 49.65,27.87 L49.755,27.72 C50.0690976,27.2460988 50.3570281,26.7553652 50.6175,26.25 C50.6801794,26.1366695 50.7184975,26.0114969 50.73,25.8825 C50.7323331,25.8217721 50.7107959,25.7625446 50.67,25.7175 C50.595,25.6275 50.445,25.5825 50.19,25.5825 L45.3825,25.5825 Z M33.18,18.6675 C33.6204157,17.5367215 34.3528046,16.5429499 35.3025,15.7875 C35.9282512,15.2908113 36.6330815,14.9029011 37.3875,14.64 C39.3609377,13.9538166 41.539581,14.2050924 43.305,15.3225 C43.53,15.465 43.7475,15.6075 43.95,15.765 L43.95,15.765 C44.5065406,16.1760345 44.9608083,16.7098632 45.2775,17.325 C45.3657668,17.4970687 45.4144539,17.6866922 45.42,17.88 C45.42,18.345 45.0675,18.63 44.46,18.63 L33.18,18.6675 Z" id="Shape"></path>
                    <path d="M2.7825,16.3275 C1.84812088,16.3269337 0.916087037,16.2339815 8.8817842e-16,16.05 L8.8817842e-16,22.26 C1.59080055,22.6647813 3.22600909,22.8688674 4.8675,22.8675 L5.5725,22.8675068 L5.5725,16.05 C4.6538832,16.2339889 3.71936094,16.3269387 2.7825,16.3275 Z" id="Path"></path>
                    <path d="M21.51,5.61 C20.4562273,4.43206025 19.1985856,3.4538945 17.7975,2.7225 C17.505,2.565 17.2125,2.43 16.9125,2.3025 C16.8989195,4.26684959 16.4721756,6.20636237 15.66,7.995 C16.6625133,8.60486715 17.521984,9.42341065 18.18,10.395 C19.1639058,11.8781532 19.7973996,13.5657603 20.0325,15.33 C20.0325,15.4725 20.07,15.585 20.085,15.6975 C21.7516625,13.6911542 23.0033641,11.3738492 23.7675,8.88 C23.1746236,7.68801991 22.4144385,6.58688793 21.51,5.61 L21.51,5.61 Z" id="Path"></path>
                    <path d="M-8.8817842e-16,24.465 L-2.73253642e-16,31.965 C0.0013791064,32.1774186 0.0554994255,32.3861684 0.1575,32.5725 L0.1575,32.5725 C0.388896008,32.9857142 0.823925867,33.2432977 1.2975,33.2475 L4.26,33.2475 C4.73942504,33.2429638 5.17869472,32.9788278 5.4075,32.5575 C5.51517557,32.3676658 5.57201004,32.1532449 5.5725,31.935 L5.5725,24.96 L4.8675,24.96 C3.231701,24.975208 1.59924944,24.809196 -8.8817842e-16,24.465 L-8.8817842e-16,24.465 Z" id="Path"></path>
                    <path d="M25.17,12.75 C25.1175,12.555 25.02,12.2025 24.9225,11.895 C23.7704009,14.5129846 22.1167861,16.8800234 20.055,18.8625 C20.055,19.095 19.995,19.3275 19.95,19.56 L19.95,19.7175 C19.6453152,21.443398 18.9416128,23.074241 17.895,24.48 C16.4859322,26.3595131 14.3222255,27.5250079 11.9775,27.6675 C11.4675,27.705 10.95,27.72 10.4775,27.72 L9.555,27.72 C8.97072955,27.7222475 8.46465307,28.1258668 8.3325,28.695 C8.32474317,28.7873374 8.32474317,28.8801626 8.3325,28.9725 L8.3325,32.0175 C8.32514397,32.1098538 8.32514397,32.2026462 8.3325,32.295 C8.36545019,32.4154846 8.41332074,32.5313817 8.475,32.64 C8.68178816,33.0054379 9.06070739,33.2401416 9.48,33.2625 L11.085,33.2625 C12.2682756,33.2700558 13.4485055,33.1417152 14.6025,32.88 C17.159768,32.3106713 19.4844434,30.9796705 21.27,29.0625 C21.799194,28.5002654 22.2879159,27.9012678 22.7325,27.27 C23.4391043,26.2240895 24.0205778,25.0989005 24.465,23.9175 C24.63,23.4825 24.7725,23.0475 24.9075,22.605 C25.3933888,21.038473 25.6683095,19.4141709 25.725,17.775 C25.7831728,16.0820047 25.5962387,14.3894931 25.17,12.75 Z" id="Path"></path>
                    <path d="M5.5725,6.75 L5.5725,13.8825 C4.65897696,14.1033081 3.72232872,14.2140944 2.7825,14.2125 C1.84393736,14.2042558 0.909756533,14.0833914 -1.53363108e-15,13.8525 L-1.53363108e-15,2.25 C-0.00401512525,1.96495448 0.106414881,1.69019805 0.306577966,1.48721577 C0.50674105,1.28423349 0.779926208,1.16997172 1.065,1.17 L11.355,1.17 C11.64,1.17 11.9325,1.17 12.2175,1.17 C13.0730135,1.2088859 13.9223687,1.33453015 14.7525,1.545 L14.7525,1.545 C14.8502376,3.44908384 14.4928689,5.34905122 13.71,7.0875 C12.7943547,6.84977852 11.8509012,6.73626138 10.905,6.75 L5.5725,6.75 Z" id="Path"></path>
                </g>
            </g>
        </g>
    </g>
</svg>