<?xml version="1.0" encoding="UTF-8"?>
<svg width="122px" height="18px" viewBox="0 0 122 18" version="1.1" xmlns="http://www.w3.org/2000/svg" xmlns:xlink="http://www.w3.org/1999/xlink">
    <!-- Generator: Sketch 53.2 (72643) - https://sketchapp.com -->
    <title>Original-Works</title>
    <desc>Created with Sketch.</desc>
    <g id="Page-1" stroke="none" stroke-width="1" fill="none" fill-rule="evenodd">
        <g id="Desktop" transform="translate(-1187.000000, -6354.000000)" fill="#FFFFFF" fill-rule="nonzero">
            <g id="Group-47" transform="translate(295.000000, 6159.000000)">
                <g id="Group-22" transform="translate(0.000000, 177.000000)">
                    <g id="Group-41">
                        <g id="logo" transform="translate(892.000000, 18.000000)">
                            <path d="M7.38,12.254 C9.81,12.254 11.34,10.4 11.34,7.61 L11.34,7.466 C11.34,4.82 9.864,2.858 7.344,2.858 C4.824,2.858 3.33,4.712 3.33,7.484 L3.33,7.628 C3.33,10.436 5.04,12.254 7.38,12.254 Z M7.344,14.18 C3.402,14.18 0.828,11.354 0.828,7.646 L0.828,7.502 C0.828,3.74 3.528,0.95 7.344,0.95 C11.178,0.95 13.824,3.668 13.824,7.448 L13.824,7.592 C13.824,11.354 11.25,14.18 7.344,14.18 Z M15.648,14 L15.648,4.586 L17.826,4.586 L17.826,6.35 C18.42,5.162 19.302,4.46 20.886,4.442 L20.886,6.476 C18.978,6.494 17.826,7.106 17.826,9.104 L17.826,14 L15.648,14 Z M22.548,14 L22.548,4.586 L24.726,4.586 L24.726,14 L22.548,14 Z M23.61,3.038 C22.89,3.038 22.314,2.498 22.314,1.796 C22.314,1.076 22.89,0.536 23.61,0.536 C24.33,0.536 24.906,1.076 24.906,1.796 C24.906,2.498 24.33,3.038 23.61,3.038 Z M31.086,17.456 C28.134,17.456 26.802,16.124 26.55,14.324 L28.746,14.324 C28.926,15.26 29.646,15.8 31.068,15.8 C32.76,15.8 33.696,14.954 33.696,13.262 L33.696,11.876 C33.174,12.776 32.004,13.622 30.618,13.622 C28.26,13.622 26.442,11.858 26.442,9.14 L26.442,9.014 C26.442,6.368 28.242,4.388 30.672,4.388 C32.22,4.388 33.156,5.09 33.696,6.026 L33.696,4.586 L35.874,4.586 L35.874,13.298 C35.856,16.07 34.002,17.456 31.086,17.456 Z M31.158,11.948 C32.67,11.948 33.768,10.868 33.768,9.068 L33.768,8.942 C33.768,7.16 32.796,6.098 31.23,6.098 C29.61,6.098 28.674,7.268 28.674,8.978 L28.674,9.122 C28.674,10.868 29.754,11.948 31.158,11.948 Z M38.22,14 L38.22,4.586 L40.398,4.586 L40.398,14 L38.22,14 Z M39.282,3.038 C38.562,3.038 37.986,2.498 37.986,1.796 C37.986,1.076 38.562,0.536 39.282,0.536 C40.002,0.536 40.578,1.076 40.578,1.796 C40.578,2.498 40.002,3.038 39.282,3.038 Z M42.7439999,14 L42.7439999,4.586 L44.9219999,4.586 L44.9219999,6.08 C45.3719999,5.162 46.4159999,4.388 47.9639999,4.388 C49.8539999,4.388 51.1859999,5.486 51.1859999,8.078 L51.1859999,14 L49.0079999,14 L49.0079999,8.276 C49.0079999,6.854 48.4319999,6.206 47.1359999,6.206 C45.9119999,6.206 44.9219999,6.962 44.9219999,8.456 L44.9219999,14 L42.7439999,14 Z M55.8539999,14.18 C54.1259999,14.18 52.7039999,13.352 52.7039999,11.39 C52.7039999,9.194 54.8279999,8.402 57.5279999,8.402 L58.6979999,8.402 L58.6979999,7.916 C58.6979999,6.656 58.2659999,6.026 56.9879999,6.026 C55.8539999,6.026 55.2959999,6.566 55.1879999,7.502 L53.0819999,7.502 C53.2619999,5.306 55.0079999,4.388 57.1139999,4.388 C59.2199999,4.388 60.8759999,5.252 60.8759999,7.826 L60.8759999,14 L58.7339999,14 L58.7339999,12.848 C58.1219999,13.658 57.2939999,14.18 55.8539999,14.18 Z M56.3759999,12.614 C57.7079999,12.614 58.6979999,11.912 58.6979999,10.706 L58.6979999,9.77 L57.5819999,9.77 C55.9259999,9.77 54.8639999,10.148 54.8639999,11.3 C54.8639999,12.092 55.2959999,12.614 56.3759999,12.614 Z M63.1319999,14 L63.1319999,0.23 L65.3099999,0.23 L65.3099999,14 L63.1319999,14 Z M74.0159999,14 L70.8119999,1.13 L73.2599999,1.13 L75.492,10.58 L77.994,1.13 L79.974,1.13 L82.53,10.634 L84.834,1.13 L87.066,1.13 L83.844,14 L81.45,14 L78.912,4.622 L76.302,14 L74.0159999,14 Z M91.932,12.488 C93.552,12.488 94.524,11.282 94.524,9.356 L94.524,9.23 C94.524,7.286 93.552,6.098 91.932,6.098 C90.312,6.098 89.322,7.268 89.322,9.212 L89.322,9.356 C89.322,11.282 90.276,12.488 91.932,12.488 Z M91.914,14.18 C89.142,14.18 87.09,12.254 87.09,9.392 L87.09,9.248 C87.09,6.332 89.16,4.388 91.932,4.388 C94.686,4.388 96.756,6.314 96.756,9.194 L96.756,9.338 C96.756,12.272 94.686,14.18 91.914,14.18 Z M98.418,14 L98.418,4.586 L100.596,4.586 L100.596,6.35 C101.19,5.162 102.072,4.46 103.656,4.442 L103.656,6.476 C101.748,6.494 100.596,7.106 100.596,9.104 L100.596,14 L98.418,14 Z M105.264,14 L105.264,0.23 L107.442,0.23 L107.442,8.726 L110.808,4.586 L113.184,4.586 L109.53,8.906 L113.49,14 L110.97,14 L107.442,9.374 L107.442,14 L105.264,14 Z M117.726,14.18 C115.296,14.18 113.874,13.064 113.784,11.066 L115.836,11.066 C115.944,12.02 116.43,12.578 117.708,12.578 C118.878,12.578 119.4,12.164 119.4,11.372 C119.4,10.598 118.77,10.31 117.384,10.076 C114.9,9.68 113.982,8.978 113.982,7.214 C113.982,5.324 115.746,4.388 117.51,4.388 C119.436,4.388 120.966,5.108 121.2,7.232 L119.184,7.232 C119.004,6.368 118.518,5.972 117.51,5.972 C116.574,5.972 116.016,6.422 116.016,7.088 C116.016,7.772 116.466,8.042 117.96,8.294 C120.174,8.636 121.488,9.176 121.488,11.174 C121.488,13.082 120.138,14.18 117.726,14.18 Z" id="Original-Works"></path>
                        </g>
                    </g>
                </g>
            </g>
        </g>
    </g>
</svg>