<?xml version="1.0" encoding="UTF-8"?>
<svg width="127px" height="56px" viewBox="0 0 127 56" version="1.1" xmlns="http://www.w3.org/2000/svg" xmlns:xlink="http://www.w3.org/1999/xlink">
    <!-- Generator: Sketch 56.2 (81672) - https://sketch.com -->
    <title>logo / lototipo</title>
    <desc>Created with Sketch.</desc>
    <g id="logo-/-lototipo" stroke="none" stroke-width="1" fill="none" fill-rule="evenodd">
        <g id="logo-/-typo" transform="translate(58.000000, 4.000000)" fill="#fff">
            <path d="M0,18.9210933 L5.29891826,18.9210933 L5.29891826,21.3470861 C5.86491972,20.4614018 6.55777319,19.7827082 7.37749945,19.310985 C8.19722571,18.8392619 9.15355867,18.6034038 10.246527,18.6034038 L10.7003018,18.6034038 C10.8661988,18.6034038 11.0564895,18.6226575 11.2711797,18.6611655 L11.2711797,23.6575554 C10.5685572,23.3109833 9.80739424,23.1376998 8.98766798,23.1376998 C7.75807859,23.1376998 6.83590038,23.4987071 6.22110569,24.2207323 C5.60631099,24.9427576 5.29891826,25.9968987 5.29891826,27.3831872 L5.29891826,33.7369778 L0,33.7369778 L0,18.9210933 Z M17.2466245,26.2857143 C17.2466245,26.7670645 17.334451,27.2147134 17.5101066,27.6286746 C17.6857622,28.0426357 17.9248455,28.4036429 18.2273635,28.7117071 C18.5298815,29.0197712 18.890946,29.2604427 19.3105678,29.4337287 C19.7301896,29.6070148 20.1839598,29.6936565 20.6718921,29.6936565 C21.1403071,29.6936565 21.5843188,29.6070148 22.0039406,29.4337287 C22.4235624,29.2604427 22.7846269,29.0197712 23.0871449,28.7117071 C23.3896629,28.4036429 23.6336254,28.0474492 23.8190397,27.643115 C24.0044539,27.2387809 24.0971597,26.8055722 24.0971597,26.343476 C24.0971597,25.8813798 24.0044539,25.4433578 23.8190397,25.0293966 C23.6336254,24.6154354 23.3896629,24.2544282 23.0871449,23.9463641 C22.7846269,23.6383 22.4235624,23.3976285 22.0039406,23.2243424 C21.5843188,23.0510564 21.1403071,22.9644146 20.6718921,22.9644146 C20.1839598,22.9644146 19.7301896,23.0510564 19.3105678,23.2243424 C18.890946,23.3976285 18.5298815,23.6383 18.2273635,23.9463641 C17.9248455,24.2544282 17.6857622,24.6058086 17.5101066,25.0005157 C17.334451,25.3952229 17.2466245,25.8236181 17.2466245,26.2857143 Z M23.9215049,18.9210933 L29.249699,18.9210933 L29.249699,33.7369778 L23.9215049,33.7369778 L23.9215049,32.0907684 C22.789502,33.496311 21.2574176,34.1990717 19.3252057,34.1990717 C18.2322373,34.1990717 17.2271119,34.0017211 16.3097992,33.6070139 C15.3924864,33.2123068 14.5922895,32.6587624 13.9091843,31.9463641 C13.226079,31.2339658 12.6942408,30.3964291 12.3136536,29.4337287 C11.9330664,28.4710284 11.7427757,27.4217007 11.7427757,26.2857143 C11.7427757,25.2267439 11.9281872,24.2207371 12.2990157,23.2676637 C12.6698443,22.3145904 13.1870448,21.4818671 13.8506327,20.7694688 C14.5142206,20.0570705 15.3046591,19.4938993 16.2219718,19.0799381 C17.1392845,18.665977 18.1541685,18.4589995 19.2666541,18.4589995 C21.1403141,18.4589995 22.6919156,19.1039991 23.9215049,20.3940175 L23.9215049,18.9210933 Z M36.6596575,18.9210933 L36.6596575,33.7369778 L31.3607393,33.7369778 L31.3607393,18.9210933 L36.6596575,18.9210933 Z M31.0094298,13.2315627 C31.0094298,12.8272285 31.0874978,12.4469676 31.2436361,12.0907684 C31.3997745,11.7345693 31.6144614,11.4216964 31.8877035,11.1521403 C32.1609456,10.8825842 32.4780969,10.6707933 32.8391668,10.5167612 C33.2002367,10.3627292 33.5856974,10.2857143 33.9955605,10.2857143 C34.4054237,10.2857143 34.7908844,10.3627292 35.1519543,10.5167612 C35.5130242,10.6707933 35.8301754,10.8825842 36.1034175,11.1521403 C36.3766596,11.4216964 36.5913466,11.7345693 36.7474849,12.0907684 C36.9036233,12.4469676 36.9816913,12.8272285 36.9816913,13.2315627 C36.9816913,13.6358968 36.9036233,14.0161578 36.7474849,14.3723569 C36.5913466,14.728556 36.3766596,15.0414289 36.1034175,15.310985 C35.8301754,15.5805411 35.5130242,15.792332 35.1519543,15.9463641 C34.7908844,16.1003962 34.4054237,16.177411 33.9955605,16.177411 C33.5856974,16.177411 33.2002367,16.1003962 32.8391668,15.9463641 C32.4780969,15.792332 32.1609456,15.5805411 31.8877035,15.310985 C31.6144614,15.0414289 31.3997745,14.728556 31.2436361,14.3723569 C31.0874978,14.0161578 31.0094298,13.6358968 31.0094298,13.2315627 Z M48.7537427,22.7333677 C47.7778781,22.2327635 46.8215452,21.9824652 45.8847152,21.9824652 C45.3967829,21.9824652 45.0015636,22.0787338 44.6990456,22.2712739 C44.3965276,22.4638139 44.2452708,22.7237391 44.2452708,23.0510572 C44.2452708,23.2243433 44.2696671,23.3639328 44.3184603,23.4698298 C44.3672536,23.5757268 44.4745971,23.6768089 44.640494,23.7730789 C44.806391,23.8693489 45.0503535,23.9559907 45.3723888,24.0330067 C45.6944241,24.1100227 46.1189189,24.2062913 46.6458857,24.3218154 C48.1096826,24.6106255 49.2026346,25.1256624 49.9247744,25.8669417 C50.6469142,26.608221 51.0079787,27.5564666 51.0079787,28.7117071 C51.0079787,29.5781374 50.8323257,30.357913 50.4810144,31.0510572 C50.1297032,31.7442015 49.6417782,32.3266265 49.0172249,32.7983497 C48.3926715,33.2700728 47.641267,33.6358935 46.7629889,33.8958226 C45.8847108,34.1557517 44.9186193,34.2857143 43.8646856,34.2857143 C41.8348872,34.2857143 39.8343948,33.7177296 37.8631483,32.5817432 L39.7953505,28.8849923 C41.2786647,29.8862006 42.6838887,30.3867973 44.0110645,30.3867973 C44.4989968,30.3867973 44.8990953,30.2809019 45.211372,30.0691078 C45.5236486,29.8573137 45.6797846,29.5877617 45.6797846,29.2604435 C45.6797846,29.0679035 45.6553884,28.9090603 45.6065952,28.7839092 C45.5578019,28.6587582 45.4553377,28.5432359 45.2991993,28.4373388 C45.143061,28.3314418 44.9137363,28.2351732 44.6112182,28.1485302 C44.3087002,28.0618871 43.913481,27.970432 43.4255487,27.8741619 C41.7860962,27.5468438 40.6394725,27.0606874 39.9856432,26.4156782 C39.3318139,25.7706689 39.0049042,24.8801845 39.0049042,23.744198 C39.0049042,22.9162757 39.1610402,22.1701941 39.4733168,21.5059309 C39.7855935,20.8416676 40.2344845,20.2784964 40.8200032,19.8164002 C41.405522,19.354304 42.1130132,18.9981102 42.9424981,18.7478081 C43.771983,18.4975061 44.6941612,18.3723569 45.7090604,18.3723569 C47.3680302,18.3723569 48.9781827,18.6900432 50.539566,19.3254255 L48.7537427,22.7333677 Z M63.1898912,24.177411 C63.0142356,23.4457588 62.6531711,22.8585204 62.106687,22.4156782 C61.5602028,21.972836 60.8966248,21.7514183 60.1159331,21.7514183 C59.2962069,21.7514183 58.6277497,21.9632092 58.1105414,22.3867973 C57.5933332,22.8103855 57.2664235,23.4072507 57.1298024,24.177411 L63.1898912,24.177411 Z M56.9834234,27.209902 C56.9834234,29.4626209 58.0568584,30.5889634 60.2037605,30.5889634 C61.3552807,30.5889634 62.2237872,30.1268741 62.809306,29.2026818 L67.9325695,29.2026818 C66.898153,32.5913871 64.3121506,34.2857143 60.1744847,34.2857143 C58.9058607,34.2857143 57.7445993,34.0979905 56.6906655,33.7225374 C55.6367318,33.3470842 54.7340706,32.8127901 53.9826548,32.1196493 C53.2312391,31.426505 52.6506084,30.5985952 52.2407452,29.6358948 C51.8308821,28.6731944 51.6259536,27.5949862 51.6259536,26.4012378 C51.6259536,25.1689813 51.8211236,24.0570791 52.2114694,23.0654977 C52.6018153,22.0739163 53.1580498,21.2315661 53.8801896,20.5384219 C54.6023294,19.8452776 55.4757151,19.3109869 56.5003729,18.9355338 C57.5250307,18.5600806 58.6814129,18.3723569 59.9695542,18.3723569 C61.2381782,18.3723569 62.3799226,18.5600806 63.3948218,18.9355338 C64.409721,19.3109869 65.2684689,19.8549045 65.9710914,20.5673027 C66.6737139,21.279701 67.2104314,22.1509318 67.58126,23.1810211 C67.9520885,24.2111105 68.1375,25.3711471 68.1375,26.6611655 L68.1375,27.209902 L56.9834234,27.209902 Z" id="raise"></path>
        </g>
        <g id="logo-/-isotipo" transform="translate(0.000000, 4.000000)">
            <path d="M37.3987671,4.3114357 L44.1541703,5.14089492 C46.0196234,5.36994376 47.3461911,7.06787304 47.1171422,8.93332612 L45.250859,24.1329833 C45.0218101,25.9984364 43.3238809,27.3250042 41.4584278,27.0959553 L34.7030246,26.2664961 C32.8375715,26.0374473 31.5109509,24.3395115 31.7399998,22.4740584 L33.606283,7.27440121 L37.3987671,4.3114357 Z" id="Rectangle" fill="#00DA9E"></path>
            <path d="M41.4583749,27.0959488 L34.7029717,26.2664896 C32.8375186,26.0374408 31.5109509,24.3395115 31.7399998,22.4740584 L33.606283,7.27440121 C33.8353319,5.40894812 35.5332611,4.08238037 37.3987142,4.31142921 L44.1541174,5.14088842 C46.0195705,5.36993726 47.3461911,7.06787304 47.1171422,8.93332612 L45.250859,24.1329833 L41.4583749,27.0959488 Z" id="Rectangle" fill="#00DA9E"></path>
            <path d="M23.6575941,0.38850976 L27.6634826,0.422106734 C28.9909173,0.433239792 30.0760408,1.4736874 30.0871739,2.74601151 L30.1544542,10.4251668 C30.1655009,11.6974909 29.0984276,12.7198883 27.7709929,12.7088453 L23.7651044,12.6751583 C22.4376697,12.6640252 21.3525462,11.6235776 21.3414131,10.3512535 L21.2742192,2.67209817 L23.6575941,0.38850976 Z" id="Rectangle" fill="#3DC9FF" transform="translate(25.714337, 6.548678) rotate(-11.000000) translate(-25.714337, -6.548678) "></path>
            <path d="M23.6574922,0.388437821 L27.6633807,0.422034795 C28.9908154,0.433167853 30.0759389,1.47361546 30.087072,2.74593957 L30.1543523,10.4250949 C30.165399,11.697419 29.0983257,12.7198163 27.770891,12.7087734 L23.7650025,12.6750863 C22.4375678,12.6639533 21.3524443,11.6235056 21.3413112,10.3511815 L21.2741172,2.67202623 L23.6574922,0.388437821 Z" id="Rectangle" fill="#3DC9FF" transform="translate(25.714235, 6.548606) scale(-1, -1) rotate(-11.000000) translate(-25.714235, -6.548606) "></path>
            <path d="M8.15560169,2.95623098 L15.4905693,2.95623098 C18.1912298,2.95623098 20.3805478,5.25794564 20.3805478,8.09725456 L20.3805478,42.370745 C20.3805478,45.210054 18.1912298,47.5117686 15.4905693,47.5117686 L8.15560169,47.5117686 C5.45494118,47.5117686 3.26562326,45.210054 3.26562326,42.370745 C3.22837973,23.1505384 3.22837973,11.7260415 3.26562326,8.09725456 C3.30286679,4.46846758 4.9328596,2.75479305 8.15560169,2.95623098 Z" id="Rectangle" fill="#EB3F93" transform="translate(11.809119, 25.226054) rotate(-11.000000) translate(-11.809119, -25.226054) "></path>
        </g>
        <text id="beta" font-family="Futura-Medium, Futura" font-size="10" font-weight="400" fill="#777B85">
            <tspan x="99.8056641" y="19">BETA</tspan>
        </text>
    </g>
</svg>