<?xml version="1.0" standalone="no"?>
<!DOCTYPE svg PUBLIC "-//W3C//DTD SVG 20010904//EN"
 "http://www.w3.org/TR/2001/REC-SVG-20010904/DTD/svg10.dtd">
<svg version="1.0" xmlns="http://www.w3.org/2000/svg"
 width="816.000000pt" height="816.000000pt" viewBox="0 0 816.000000 816.000000"
 preserveAspectRatio="xMidYMid meet">
<metadata>
Created by potrace 1.11, written by Peter Selinger 2001-2013
</metadata>
<g transform="translate(0.000000,816.000000) scale(0.100000,-0.100000)"
fill="#000000" stroke="none">
<path d="M69 7880 c-9 -6 -5 -3880 5 -3965 3 -27 7 -70 10 -95 6 -60 27 -214
41 -295 6 -36 39 -191 51 -240 3 -11 7 -29 8 -40 2 -11 6 -27 10 -35 3 -8 7
-26 10 -40 14 -80 126 -392 206 -575 26 -61 135 -278 159 -320 10 -16 29 -48
41 -70 74 -128 84 -145 93 -145 4 0 7 -5 7 -11 0 -9 42 -76 72 -114 4 -5 41
-55 82 -111 66 -90 147 -191 212 -264 34 -38 307 -311 345 -345 19 -16 59 -50
89 -75 30 -25 57 -47 60 -50 3 -3 48 -38 101 -77 191 -143 415 -283 584 -364
50 -24 92 -47 95 -50 3 -4 34 -19 70 -34 112 -47 285 -117 295 -119 6 -2 17
-6 25 -9 57 -22 278 -91 325 -101 6 -1 37 -8 70 -15 33 -7 67 -16 75 -19 8 -3
22 -6 30 -8 40 -8 87 -16 110 -20 14 -3 48 -9 75 -14 28 -6 68 -12 90 -14 22
-3 40 -5 40 -6 0 -1 14 -3 30 -4 41 -4 161 -16 215 -23 109 -13 595 -4 695 13
17 3 50 7 75 9 25 2 45 4 45 5 0 1 20 3 45 5 25 3 65 9 90 15 25 6 60 12 78
15 76 12 97 16 175 35 45 11 95 23 111 26 16 3 33 7 38 10 4 3 41 14 81 25 39
11 79 22 87 26 8 3 20 7 25 9 31 8 186 65 220 80 22 10 43 19 48 20 4 1 8 2
10 4 1 1 10 3 21 5 10 2 23 8 29 14 6 6 19 11 29 11 10 0 18 5 18 10 0 6 6 10
13 10 18 0 267 123 345 171 35 22 66 39 68 39 3 0 165 103 204 130 89 62 176
124 180 129 3 4 32 28 65 53 62 48 68 52 174 146 253 223 520 534 698 812 162
252 267 461 403 805 42 104 130 407 145 494 3 19 7 37 9 40 6 9 47 239 51 286
3 22 7 56 9 75 8 52 15 116 22 200 9 103 10 3927 1 3936 -9 10 -48 11 -80 3
-15 -4 -27 -4 -27 1 0 4 -15 5 -32 1 -18 -3 -51 -4 -73 -1 -22 3 -50 2 -63 -2
-13 -4 -21 -5 -19 0 3 4 -14 6 -36 5 -23 -2 -60 -3 -82 -3 -22 -1 -51 -1 -65
-1 -14 -1 -32 0 -40 0 -8 1 -26 1 -40 0 -14 0 -32 0 -40 0 -8 1 -26 1 -40 0
-14 0 -32 0 -40 0 -66 3 -120 2 -129 -3 -5 -4 -12 -2 -15 3 -3 5 -21 6 -38 2
-18 -3 -51 -4 -73 -1 -22 3 -50 2 -63 -2 -13 -4 -21 -5 -19 0 3 4 -14 6 -36 4
-70 -4 -149 -3 -154 2 -3 3 -16 1 -30 -5 -13 -5 -22 -5 -19 0 4 5 -9 6 -28 1
-18 -4 -40 -4 -47 0 -8 5 -32 5 -55 1 -22 -4 -49 -4 -60 -1 -10 4 -23 5 -27 3
-5 -3 -43 -6 -85 -8 -113 -4 -251 -29 -352 -62 -25 -8 -49 -16 -55 -17 -91
-23 -331 -147 -412 -213 -24 -19 -43 -32 -43 -30 0 23 -249 -228 -311 -313
-92 -127 -98 -137 -153 -247 -75 -150 -132 -328 -150 -463 -4 -25 -9 -63 -13
-85 -4 -22 -7 -560 -9 -1195 -2 -1110 -3 -1196 -25 -1285 -20 -79 -96 -262
-119 -285 -3 -3 -19 -25 -35 -50 -37 -55 -158 -179 -205 -211 -19 -12 -37 -26
-40 -29 -31 -34 -246 -130 -323 -144 -12 -3 -22 -5 -22 -6 0 -13 -281 -20
-355 -8 -61 10 -158 36 -195 52 -201 92 -297 161 -399 291 -22 28 -45 55 -50
60 -30 29 -130 237 -141 295 -1 3 -4 19 -8 35 -12 51 -18 78 -23 120 -3 22 -7
562 -9 1200 -2 638 -6 1174 -8 1190 -42 253 -104 433 -216 620 -37 62 -132
195 -160 225 -9 9 -32 34 -52 56 -63 69 -154 148 -234 204 -27 19 -51 38 -53
43 -2 4 -8 7 -14 7 -5 0 -23 10 -40 21 -71 51 -321 159 -403 175 -5 1 -28 7
-50 13 -23 6 -61 13 -85 16 -25 3 -52 8 -61 11 -10 2 -59 7 -110 10 -52 3
-111 6 -131 7 -21 2 -38 0 -38 -5 0 -4 -10 -4 -22 0 -29 9 -330 8 -346 -2 -7
-4 -12 -4 -12 1 0 10 -572 9 -588 -1 -7 -4 -12 -4 -12 1 0 9 -386 11 -401 3z"/>
</g>
</svg>
