<?xml version="1.0" standalone="no"?>
<!DOCTYPE svg PUBLIC "-//W3C//DTD SVG 20010904//EN"
 "http://www.w3.org/TR/2001/REC-SVG-20010904/DTD/svg10.dtd">
<svg version="1.0" xmlns="http://www.w3.org/2000/svg"
 width="880.000000pt" height="880.000000pt" viewBox="0 0 880.000000 880.000000"
 preserveAspectRatio="xMidYMid meet">
<metadata>
Created by potrace 1.11, written by Peter Selinger 2001-2013
</metadata>
<g transform="translate(0.000000,880.000000) scale(0.100000,-0.100000)"
fill="#000000" stroke="none">
<path d="M1646 7180 c251 -57 462 -211 586 -425 35 -62 84 -176 92 -217 24
-120 29 -153 28 -220 -1 -163 -27 -269 -103 -421 -27 -53 -53 -103 -59 -110
-18 -21 -290 -480 -290 -489 0 -4 -4 -8 -9 -8 -5 0 -11 -8 -14 -17 -7 -21 -39
-76 -49 -83 -4 -3 -12 -17 -17 -30 -11 -25 -32 -61 -41 -70 -11 -11 -31 -46
-41 -72 -6 -16 -15 -28 -20 -28 -5 0 -9 -5 -9 -10 0 -6 -16 -36 -35 -66 -19
-30 -35 -57 -35 -60 0 -3 -15 -29 -34 -57 -18 -29 -52 -83 -75 -122 -22 -38
-46 -77 -51 -85 -6 -8 -60 -98 -120 -200 -60 -102 -114 -192 -120 -200 -19
-29 -655 -1090 -680 -1135 -14 -25 -31 -53 -38 -62 -7 -10 -68 -112 -137 -228
-69 -115 -137 -230 -152 -254 -28 -43 -67 -110 -98 -163 -15 -26 -13 -30 37
-115 80 -137 141 -224 195 -278 64 -65 121 -115 129 -115 4 0 21 -10 38 -23
79 -59 261 -124 376 -134 213 -18 380 19 570 128 13 8 30 19 36 24 7 6 27 21
45 35 60 45 157 149 179 190 7 14 16 27 20 30 4 3 28 41 54 85 26 44 51 87 57
95 45 72 199 333 199 336 0 3 5 10 10 17 13 14 144 231 162 267 7 14 15 27 18
30 7 7 29 42 37 60 4 8 22 38 40 67 18 29 33 57 33 63 0 5 4 10 9 10 5 0 11 8
15 18 3 9 10 24 16 32 13 20 108 176 131 217 10 17 29 50 43 72 15 22 26 43
26 45 0 3 14 25 30 49 17 25 30 48 30 51 0 4 5 12 10 19 19 23 170 278 170
288 0 5 5 9 10 9 6 0 10 5 10 10 0 9 19 43 77 136 7 10 36 59 65 108 29 48 61
100 70 115 10 14 21 32 24 39 11 22 103 176 112 187 4 6 11 17 15 25 4 8 18
33 32 55 14 22 35 57 48 79 12 21 27 46 32 55 11 18 65 106 80 133 6 9 42 69
80 133 39 64 81 135 95 158 14 23 61 102 105 175 44 73 89 147 100 166 11 18
52 86 90 150 39 65 80 134 92 154 44 73 91 168 111 227 43 123 57 274 39 405
-28 197 -114 366 -258 511 -88 88 -215 171 -304 198 -22 7 -49 16 -60 21 -11
5 -51 15 -90 24 -59 12 -206 15 -960 15 -889 0 -890 0 -809 -19z"/>
<path d="M3930 7180 c120 -26 263 -83 290 -115 7 -8 17 -15 22 -15 17 0 81
-53 151 -125 210 -214 298 -532 226 -820 -5 -22 -12 -49 -14 -60 -10 -45 -117
-260 -136 -275 -4 -3 -17 -23 -29 -45 -25 -46 -36 -65 -114 -193 -31 -51 -56
-95 -56 -98 0 -3 -5 -10 -10 -17 -10 -11 -272 -444 -309 -510 -9 -16 -21 -36
-26 -45 -6 -9 -30 -51 -55 -92 -25 -41 -48 -76 -52 -78 -5 -2 -8 -7 -8 -12 0
-12 -102 -184 -112 -188 -4 -2 -8 -8 -8 -13 0 -12 -193 -333 -202 -337 -5 -2
-8 -7 -8 -12 0 -8 -129 -231 -139 -240 -3 -3 -11 -14 -17 -25 -20 -37 -249
-420 -254 -425 -3 -3 -16 -25 -29 -50 -14 -25 -27 -47 -30 -50 -3 -3 -11 -14
-17 -25 -33 -63 -490 -821 -496 -823 -5 -2 -8 -8 -8 -13 0 -5 -19 -40 -41 -77
-23 -37 -42 -75 -41 -84 0 -10 15 -38 31 -62 17 -25 31 -47 31 -50 0 -4 29
-50 64 -104 68 -103 135 -178 201 -227 22 -17 42 -33 45 -36 22 -29 214 -115
305 -138 125 -32 303 -29 425 6 30 8 60 16 65 18 38 8 195 84 195 94 0 3 13
12 29 19 37 16 157 133 208 202 34 46 91 136 138 218 49 86 140 238 145 242 3
3 14 21 24 40 11 19 31 53 45 75 14 22 31 49 37 60 25 46 53 93 82 140 17 28
39 65 48 83 9 17 20 32 25 32 5 0 9 5 9 11 0 13 202 353 213 357 4 2 7 8 7 13
0 5 36 68 80 140 44 73 80 134 80 137 0 3 11 20 26 39 14 18 21 33 17 33 -4 0
-3 4 2 8 9 6 139 217 173 282 7 14 19 32 26 40 7 8 18 26 24 40 7 14 21 39 32
55 11 17 23 37 27 45 4 8 33 57 65 108 32 51 58 95 58 97 0 2 26 46 58 97 32
51 61 100 65 108 4 8 15 27 25 42 20 31 81 133 100 168 7 14 19 32 26 40 7 8
18 26 24 40 7 14 21 39 32 55 11 17 23 37 27 45 5 8 76 126 158 263 83 136
155 255 160 265 58 102 141 238 147 240 5 2 8 7 8 12 0 8 69 130 80 140 5 5
37 70 64 130 61 138 79 441 32 554 -7 17 -14 36 -15 41 -20 99 -103 243 -205
353 -89 96 -295 219 -391 233 -2 0 -26 8 -52 17 -43 15 -143 17 -968 19 -918
2 -920 2 -835 -17z"/>
<path d="M6138 7193 c7 -3 16 -2 19 1 4 3 -2 6 -13 5 -11 0 -14 -3 -6 -6z"/>
<path d="M6172 7195 c3 -3 16 -8 29 -10 119 -22 241 -72 341 -137 54 -36 147
-121 198 -183 91 -110 170 -295 187 -438 22 -191 -8 -359 -92 -522 -40 -77
-248 -432 -286 -487 -11 -15 -19 -30 -19 -33 0 -3 -5 -11 -10 -18 -12 -14
-230 -379 -230 -385 0 -2 -12 -22 -27 -45 -35 -53 -44 -68 -88 -142 -20 -33
-40 -67 -45 -75 -5 -8 -35 -58 -66 -110 -31 -52 -66 -107 -76 -122 -11 -16
-16 -28 -11 -28 4 0 3 -4 -3 -8 -6 -4 -22 -27 -36 -52 -25 -45 -119 -201 -138
-230 -6 -8 -13 -22 -17 -30 -4 -8 -11 -19 -15 -25 -10 -12 -198 -326 -198
-331 0 -3 -111 -185 -130 -214 -6 -8 -13 -23 -16 -32 -4 -10 -10 -18 -15 -18
-5 0 -9 -4 -9 -10 0 -7 -78 -142 -140 -240 -5 -8 -38 -64 -74 -125 -36 -60
-70 -115 -75 -122 -6 -7 -11 -14 -11 -16 0 -3 -92 -158 -205 -345 l-204 -341
55 -93 c107 -179 136 -218 224 -305 47 -46 197 -152 204 -143 2 3 12 -2 22
-11 17 -15 156 -64 209 -75 104 -19 267 -20 350 0 79 19 143 39 163 52 12 8
22 12 22 9 0 -8 101 48 158 87 114 79 240 234 329 405 9 18 20 33 25 33 4 0 8
9 8 19 0 11 4 23 10 26 5 3 63 95 127 203 65 108 122 204 128 213 5 9 21 36
35 59 14 23 30 50 35 59 6 9 37 61 70 116 33 55 63 102 67 103 5 2 8 11 8 20
0 8 6 23 14 31 7 9 116 186 240 394 125 208 236 392 246 410 11 18 29 48 40
67 11 19 29 49 39 67 164 270 622 1036 635 1058 9 17 30 50 46 75 16 25 34 54
39 65 5 11 34 59 64 108 31 48 59 96 62 107 3 11 11 20 16 20 5 0 9 4 9 9 0 4
51 93 113 197 116 194 151 260 163 310 4 16 9 34 13 39 7 12 6 10 24 107 14
76 15 227 3 284 -4 16 -9 43 -12 59 -7 37 -10 46 -17 65 -3 8 -13 37 -23 65
-52 143 -162 288 -287 380 -34 25 -66 49 -72 53 -27 22 -156 77 -233 100 l-87
26 -905 4 c-497 1 -902 0 -898 -3z"/>
</g>
</svg>
